<svg width="332" height="51" viewBox="0 0 332 51" fill="none" xmlns="http://www.w3.org/2000/svg">
<path d="M10.7875 1.76656C7.30625 2.46968 3.6 5.26031 2.01563 8.31031C0.431251 11.3603 0.40625 12.1072 0.40625 24.9353L0.69375 38.3103C1.71563 43.5291 5.79687 47.6134 11.0187 48.6353C12.6 48.9228 33.1938 49.0666 33.1938 48.7509C33.1938 48.5197 31.4438 41.6197 31.3188 41.5634C31.2875 41.5072 27.6375 40.7009 23.2094 39.7509C12.8844 37.5072 13.2 37.5634 12.3344 36.5572L11.5844 35.6666V14.7853L12.3344 13.8478C13.1969 12.8166 12.8812 12.8978 23.2094 10.6541L31.3188 8.84156C31.4062 8.75406 33.1938 1.85406 33.1938 1.65406C33.1938 1.38218 12.1688 1.5103 10.7875 1.7978V1.76656ZM44.1219 1.81031C44.1531 2.32906 45.7625 8.6853 45.9344 8.82905C45.9906 8.91655 49.9344 9.80718 54.6844 10.8134L63.975 13.0572C64.4814 13.3514 64.9067 13.767 65.2125 14.2666C65.6719 15.0728 65.7312 15.9353 65.7312 25.1947L65.2125 36.1228C64.899 36.6162 64.4754 37.0301 63.975 37.3322C63.6 37.5322 59.4312 38.5416 54.6844 39.5759L45.9344 41.5603C45.2212 43.8704 44.6164 46.2125 44.1219 48.5791C44.1219 48.8916 46.1937 48.9541 55.2781 48.8666C67.8187 48.7509 67.9656 48.7228 71.1531 46.5666C73.4467 44.9885 75.1792 42.722 76.1 40.0947C76.7625 38.1666 76.7625 37.9947 76.7625 25.1978L76.1 10.2916C75.1792 7.6642 73.4467 5.39772 71.1531 3.81968C67.9594 1.63218 67.8156 1.63218 55.2781 1.51968C46.1906 1.43218 44.1219 1.47593 44.1219 1.80718V1.81031ZM97.6438 11.5916C95.6594 15.7322 93.675 20.8509 91.6344 27.0603L87.55 41.0666C88.3156 41.1416 89.1125 41.1697 89.85 41.1541H92.1219L92.4344 39.9166L93.5594 35.9791L94.3344 33.2478H110.125L110.931 36.1228L112.025 40.0603L112.313 41.1541H114.584L116.884 41.0666C116.884 41.0103 116.309 38.8791 115.591 36.2916C112.975 26.8291 109.638 17.5416 106.819 11.6728L105.319 8.65405H99.05L97.6438 11.5916ZM104.456 17.3416L108.541 28.3853C108.541 28.4416 105.728 28.5009 102.212 28.5009C98.6969 28.5009 95.8844 28.3853 95.8844 28.2697C95.8844 27.7822 98.7906 20.0447 100.197 16.7072C101.291 14.1447 101.838 13.2259 102.209 13.2259C102.581 13.2259 103.159 14.2884 104.453 17.3103L104.456 17.3416ZM119.756 24.9041V41.1541H124.359V8.65405H119.756V24.9041ZM130.109 9.02906C129.57 9.3906 129.134 9.88592 128.844 10.4666C128.384 11.4447 128.356 11.6759 128.728 12.6541C129.228 14.0978 130.778 14.8853 132.238 14.4353C133.675 13.9759 134.278 13.1416 134.278 11.6447C134.278 10.5509 134.134 10.2384 133.328 9.51968C132.322 8.62906 131.288 8.45718 130.109 9.06031V9.02906ZM138.453 24.8478V41.0978L141.991 41.3572L148.663 41.6166C151.569 41.6166 151.969 41.5603 153.494 40.7822C155.291 39.9697 156.637 38.3978 157.175 36.5009C157.347 35.8134 157.434 32.7634 157.375 28.5947C157.288 22.1822 157.259 21.7197 156.656 20.5697C155.531 18.4978 153.838 17.4916 150.703 17.0603C149.034 16.8291 144.891 17.0603 143.628 17.4666C143.081 17.6384 143.053 17.5228 143.053 13.1853V8.66655H138.45L138.453 24.8478ZM151.538 21.7416C152.1 21.9458 152.563 22.3572 152.831 22.8916C153.206 23.8697 153.206 34.5697 152.831 35.5166C152.4 36.6947 150.956 37.2416 148.228 37.2416C146.959 37.2556 145.69 37.1784 144.431 37.0103L143.05 36.8103V21.9416L144.719 21.6541C147.281 21.2228 150.413 21.2478 151.531 21.7416H151.538ZM184.181 24.8759V41.1259L187 41.2697L192.866 41.6447C196.803 41.8759 199.278 41.2384 200.891 39.5447C202.962 37.4197 203.016 37.1572 203.078 29.9103C203.166 24.6478 203.109 23.0353 202.766 21.8572C201.991 19.1541 199.747 17.4572 196.322 17.0541C194.597 16.8541 190.081 17.0853 189.159 17.4603C188.872 17.5478 188.784 16.5697 188.784 13.1478V8.68843H184.181V24.8759ZM197.094 21.6103C197.581 21.7822 198.125 22.1572 198.272 22.4447C198.584 23.0197 198.678 35.0384 198.387 35.8197C197.9 37.0853 194.012 37.6322 190.163 36.9978L188.781 36.7978V21.9478L190.45 21.6603C192.75 21.2853 196 21.2541 197.094 21.6166V21.6103ZM242.794 8.94156C239.919 9.46031 238.419 10.1509 236.956 11.6447C234.656 13.9447 234.513 14.7791 234.513 25.1916C234.513 35.6041 234.656 36.4353 237.012 38.7666C238.222 40.0041 238.887 40.3759 240.606 40.9541C242.481 41.5291 243.337 41.6166 247.194 41.6166C250.531 41.6166 252.256 41.4728 253.981 41.0697C254.899 40.887 255.803 40.6374 256.684 40.3228C256.916 40.1791 256.884 39.6603 256.541 38.2822C256.379 37.5843 256.157 36.9016 255.878 36.2416C255.762 36.1259 255.044 36.2103 254.297 36.4416C251.734 37.2166 247.25 37.5353 244.459 37.1916C241.669 36.8478 240.634 36.3853 239.772 35.2634C239.197 34.5134 239.169 34.2009 239.169 25.2259C239.169 16.2509 239.2 15.9353 239.772 15.1884C240.663 14.0634 241.669 13.6353 244.459 13.2603C247.25 12.8853 251.734 13.2291 254.297 14.0103L255.85 14.4416C256.081 14.4416 257.087 10.4416 256.913 10.2728C256.825 10.1853 255.762 9.86655 254.497 9.5228C251.997 8.8603 245.206 8.54468 242.819 8.97593L242.794 8.94156ZM260.969 24.9041V41.1541H265.281V8.65405H260.969V24.9041ZM326.281 12.9666V17.2791L324.641 17.1072L322.341 16.8197C321.362 16.6478 317.737 17.2259 316.703 17.7416C315.364 18.453 314.264 19.5432 313.541 20.8759C312.966 21.9384 312.909 22.5447 312.822 28.3759C312.706 36.2259 312.938 37.3759 315.009 39.4197C316.878 41.2322 319.094 41.8353 322.859 41.6072L328.209 41.2947L330.856 41.1228V8.68531H326.256L326.281 12.9666ZM325.794 21.7384C326.253 21.9384 326.281 22.5728 326.281 29.3884V36.8072L325.219 37.0072C323.344 37.3822 319.869 37.2947 318.862 36.8634C318.344 36.6322 317.8 36.2322 317.653 35.9416C317.506 35.6509 317.366 32.6041 317.366 29.1541C317.366 22.2791 317.422 22.0791 318.947 21.5916C319.869 21.3041 324.928 21.4197 325.822 21.7353L325.794 21.7384ZM168.106 17.0103C166.82 17.1826 165.543 17.4225 164.281 17.7291C162.728 18.1041 162.353 18.3041 162.469 18.6791C162.556 18.9384 162.756 19.7728 162.956 20.5759C163.156 21.3791 163.363 22.1009 163.475 22.1853C163.588 22.2697 164.828 22.1291 166.238 21.8728C171.041 20.8666 174.291 21.3259 174.75 23.0509C174.895 23.8187 174.972 24.5977 174.981 25.3791L175.012 26.9884L172.281 26.8447C164.975 26.4697 160.575 29.2041 160.519 34.1197C160.488 36.4478 161.238 38.2603 162.791 39.6978C164.603 41.3666 166.528 41.8853 170.241 41.6259L176.25 41.3134L179.356 41.1134L179.184 21.7853L178.378 20.4322C176.769 17.7134 172.941 16.4478 168.109 17.0666L168.106 17.0103ZM174.806 31.5634C175.094 31.7353 175.066 36.8259 174.775 36.8259C174.631 36.8259 173.166 36.9697 171.494 37.1384C166.691 37.5978 164.938 36.8791 164.938 34.4072C164.938 33.3447 165.081 33.0259 165.8 32.3947C166.425 31.9103 167.231 31.6041 168.044 31.5041L169.825 31.2166C170.344 31.1009 174.512 31.3728 174.8 31.5759L174.806 31.5634ZM213.978 16.9697L210.153 17.7197C208.225 18.1791 208.053 18.2947 208.197 18.8447L208.716 20.9697C209.028 22.4072 209.091 22.4947 209.778 22.3228C213.631 21.3166 217.341 21.0291 218.841 21.5728C220.194 22.0916 220.481 22.6666 220.481 24.8541V26.9259H216.912C212.397 26.9259 210.325 27.5009 208.341 29.2853C207.517 29.9805 206.883 30.8722 206.495 31.8778C206.108 32.8835 205.981 33.9705 206.125 35.0384C206.613 39.7259 209.95 41.9978 215.931 41.6259L221.941 41.3134L225.047 41.1134L224.959 31.5947C224.872 22.4478 224.844 22.0166 224.241 20.8947C222.6 17.8166 218.891 16.4353 213.944 17.0134L213.978 16.9697ZM219.672 31.3447H220.447V36.7822L218.806 36.9822C215.644 37.3884 212.566 37.2947 211.759 36.7509C210.15 35.6884 210.206 32.8978 211.847 32.0634C212.972 31.4884 215.644 31.0853 217.425 31.2572L219.669 31.3728L219.672 31.3447ZM275.409 16.9634C273.664 17.3434 272.094 18.2946 270.95 19.6666C269.481 21.5947 269.341 22.5416 269.341 29.4478C269.341 36.5228 269.541 37.3541 271.441 39.3416C273.316 41.2697 274.203 41.5291 278.544 41.5291C283.003 41.5291 284.012 41.2166 285.85 39.0291C287.6 36.9572 287.806 35.9228 287.725 28.6478C287.637 22.7228 287.581 22.1478 287.006 21.0541C286.155 19.4848 284.839 18.2183 283.237 17.4291C281.769 16.7666 277.456 16.4791 275.444 16.9103L275.409 16.9634ZM281.737 21.7384C283.206 22.4884 283.434 23.5197 283.434 29.1884C283.434 34.5634 283.234 35.5728 281.997 36.6666C281.106 37.4728 277.05 37.6728 275.584 36.9541C273.859 36.1478 273.656 35.3134 273.656 29.1884C273.656 23.3228 273.828 22.5447 275.325 21.7384C276.419 21.1353 280.587 21.1353 281.737 21.7384ZM129.278 29.1884V41.1259H133.591V17.2509H129.278V29.1884ZM291.309 17.6259C291.222 17.8572 291.194 22.1697 291.253 27.2041C291.341 35.4853 291.397 36.4634 291.884 37.3853C293.581 40.5791 296.456 41.9009 301.144 41.5853L309.319 41.0947V17.2822H304.944V36.8134L303.591 37.0134C301.091 37.4197 297.981 37.2728 296.975 36.7541L295.969 36.1791C295.937 36.1478 295.825 31.9228 295.737 26.8041L295.594 17.4291L293.494 17.3416C291.912 17.2853 291.369 17.3416 291.25 17.6541L291.309 17.6259ZM31.2875 24.5853C31.1938 24.8931 31.1745 25.2187 31.2313 25.5353C31.3188 26.0228 31.8344 26.0541 38.5938 26.1384L45.8438 26.1947V24.1822H38.6562C32.6469 24.1822 31.4063 24.2384 31.2938 24.5884L31.2875 24.5853Z" fill="black"/>
</svg>
