<svg width="315" height="76" viewBox="0 0 315 76" fill="none" xmlns="http://www.w3.org/2000/svg">
<path fill-rule="evenodd" clip-rule="evenodd" d="M130.033 61.9505C117.995 70.564 100.554 75.165 85.5209 75.165C64.4419 75.165 45.5029 67.6215 31.1114 55.049C29.9879 54.086 31.0044 52.695 32.3419 53.4975C47.8569 62.218 67.0099 67.5145 86.7514 67.5145C100.073 67.5145 114.785 64.8395 128.267 59.2755C130.354 58.366 132.066 60.506 130.033 61.9505Z" fill="#222E3E"/>
<path fill-rule="evenodd" clip-rule="evenodd" d="M132.388 56.0656C130.997 54.2466 123.025 55.2096 119.494 55.6376C118.424 55.7446 118.264 54.8351 119.227 54.1396C125.54 49.6456 135.919 50.9296 137.096 52.4276C138.326 53.9791 136.775 64.5186 130.836 69.5476C129.927 70.2966 129.071 69.9221 129.445 68.9056C130.836 65.4816 133.832 57.8846 132.388 56.0656Z" fill="#222E3E"/>
<path fill-rule="evenodd" clip-rule="evenodd" d="M119.762 17.1708V12.3023C119.762 11.5533 120.297 11.0718 120.939 11.0718H141.911C142.606 11.0718 143.141 11.6068 143.141 12.3023V16.4753C143.141 17.1708 142.553 18.0803 141.536 19.5248L130.676 35.6818C134.688 35.5748 138.968 36.2168 142.66 38.3568C143.462 38.8383 143.73 39.5338 143.783 40.2828V45.4723C143.783 46.1678 143.034 47.0238 142.232 46.5958C135.758 43.0648 127.198 42.6903 120.029 46.6493C119.28 47.0773 118.531 46.2213 118.531 45.5258V40.5503C118.531 39.7478 118.531 38.4103 119.334 37.1798L131.96 18.3478H120.992C120.35 18.4013 119.815 17.9198 119.762 17.1708Z" fill="#222E3E"/>
<path fill-rule="evenodd" clip-rule="evenodd" d="M43.9545 48.8965H37.7485C37.16 48.843 36.6785 48.3615 36.625 47.773V13.0515C36.625 12.356 37.16 11.821 37.8555 11.821H43.687C44.2755 11.8745 44.757 12.356 44.8105 12.998V17.5455H44.9175C46.4155 13.1585 49.3045 11.1255 53.1565 11.1255C57.062 11.1255 59.523 13.1585 61.235 17.5455C62.733 13.1585 66.2105 11.1255 69.8485 11.1255C72.47 11.1255 75.3055 12.3025 77.071 14.924C79.0505 17.8665 78.6225 22.093 78.6225 25.7845V47.666C78.6225 48.3615 78.0875 48.8965 77.4455 48.8965H71.186C70.544 48.843 70.0625 48.308 70.0625 47.666V29.262C70.0625 27.8175 70.1695 24.126 69.902 22.735C69.4205 20.381 68.0295 19.739 66.2105 19.739C64.7125 19.739 63.1075 20.809 62.4655 22.5745C61.8235 24.34 61.877 27.229 61.877 29.2085V47.6125C61.877 48.308 61.342 48.843 60.7 48.843H54.4405C53.7985 48.7895 53.317 48.2545 53.317 47.6125V29.2085C53.317 25.3565 53.9055 19.632 49.465 19.632C44.971 19.632 45.1315 25.196 45.1315 29.2085V47.6125C45.185 48.3615 44.65 48.8965 43.9545 48.8965Z" fill="#222E3E"/>
<path fill-rule="evenodd" clip-rule="evenodd" d="M162.671 18.0268C157.909 18.0268 157.588 24.7143 157.588 28.8338C157.588 33.0068 157.535 41.8878 162.617 41.8878C167.646 41.8878 167.86 34.7188 167.86 30.3318C167.86 27.4428 167.753 24.0188 166.897 21.2903C166.202 18.9363 164.704 18.0268 162.671 18.0268ZM162.617 11.0718C172.247 11.0718 177.437 19.5248 177.437 30.2783C177.437 40.6573 171.659 48.8963 162.617 48.8963C153.148 48.8963 148.012 40.4433 148.012 29.9038C148.012 19.3108 153.201 11.0718 162.617 11.0718Z" fill="#222E3E"/>
<path fill-rule="evenodd" clip-rule="evenodd" d="M190.973 48.8963H184.874C184.232 48.8428 183.75 48.3078 183.75 47.6658V12.9443C183.804 12.3023 184.285 11.8208 184.927 11.8208H190.598C191.133 11.8743 191.561 12.2488 191.668 12.7838V18.0803H191.775C193.487 13.3188 195.895 11.0718 200.121 11.0718C202.85 11.0718 205.578 12.1953 207.29 15.1378C208.895 17.9198 208.895 22.5743 208.895 25.9448V47.7728C208.842 48.4148 208.306 48.8428 207.718 48.8428H201.565C200.977 48.7893 200.549 48.3613 200.495 47.7728V28.9408C200.495 25.1423 200.924 19.5783 196.644 19.5783C195.146 19.5783 193.755 20.6483 193.113 22.3603C192.257 24.5003 192.15 26.5868 192.15 28.9408V47.6123C192.15 48.3613 191.615 48.8963 190.973 48.8963Z" fill="#222E3E"/>
<path fill-rule="evenodd" clip-rule="evenodd" d="M111.042 48.3615C110.614 48.736 109.972 48.7895 109.49 48.522C107.297 46.703 106.922 45.847 105.692 44.135C102.054 47.8265 99.4856 48.95 94.8311 48.95C89.2671 48.95 84.9336 45.526 84.9336 38.6245C84.9336 33.2745 87.8226 29.583 91.9421 27.8175C95.5266 26.266 100.502 25.945 104.354 25.517V24.661C104.354 23.1095 104.461 21.237 103.552 19.846C102.749 18.6155 101.198 18.134 99.8601 18.134C97.3456 18.134 95.0986 19.418 94.5636 22.093C94.4566 22.6815 94.0286 23.27 93.4401 23.3235L87.0736 22.628C86.5386 22.521 85.9501 22.093 86.1106 21.237C87.5551 13.426 94.5636 11.1255 100.877 11.1255C104.087 11.1255 108.26 11.9815 110.828 14.4425C114.038 17.4385 113.717 21.451 113.717 25.838V36.1635C113.717 39.2665 115.001 40.604 116.231 42.316C116.659 42.9045 116.766 43.6535 116.231 44.0815C114.787 45.098 112.379 47.1845 111.042 48.3615ZM104.408 32.2045C104.408 34.7725 104.461 36.9125 103.177 39.213C102.107 41.0855 100.449 42.209 98.6296 42.209C96.1151 42.209 94.6171 40.283 94.6171 37.394C94.6171 31.7765 99.6461 30.7065 104.408 30.7065V32.2045Z" fill="#222E3E"/>
<path fill-rule="evenodd" clip-rule="evenodd" d="M26.94 48.3615C26.512 48.736 25.87 48.7895 25.3885 48.522C23.195 46.703 22.8205 45.847 21.59 44.135C17.952 47.8265 15.384 48.95 10.7295 48.95C5.16553 48.95 0.832031 45.526 0.832031 38.6245C0.832031 33.2745 3.72103 29.583 7.84053 27.8175C11.425 26.266 16.4005 25.945 20.2525 25.517V24.661C20.2525 23.1095 20.3595 21.237 19.45 19.846C18.6475 18.6155 17.096 18.134 15.7585 18.134C13.244 18.134 10.997 19.418 10.462 22.093C10.355 22.6815 9.92703 23.27 9.33853 23.3235L2.97203 22.628C2.43703 22.521 1.84853 22.093 2.00903 21.237C3.45353 13.426 10.462 11.072 16.7215 11.072C19.9315 11.072 24.1045 11.928 26.6725 14.389C29.8825 17.385 29.5615 21.3975 29.5615 25.7845V36.11C29.5615 39.213 30.8455 40.5505 32.076 42.2625C32.504 42.851 32.611 43.6 32.076 44.028C30.685 45.098 28.2775 47.1845 26.94 48.3615ZM20.306 32.2045C20.306 34.7725 20.3595 36.9125 19.0755 39.213C18.0055 41.0855 16.347 42.209 14.528 42.209C12.0135 42.209 10.5155 40.283 10.5155 37.394C10.5155 31.7765 15.5445 30.7065 20.306 30.7065V32.2045Z" fill="#222E3E"/>
<path fill-rule="evenodd" clip-rule="evenodd" d="M261.485 20.702C259.666 22.8955 258.81 25.8915 258.81 29.7435C258.81 33.5955 259.666 36.645 261.378 38.892C263.358 41.4065 266.247 42.6905 270.152 42.6905C273.79 42.6905 276.572 41.46 278.605 38.9455C280.371 36.6985 281.28 33.756 281.28 30.1715V29.5295C281.28 25.7845 280.21 22.735 278.284 20.4345C276.251 18.0805 273.63 16.957 270.42 16.957C266.461 16.957 263.465 18.1875 261.485 20.702ZM286.737 1.87001V44.777C286.737 45.419 286.149 45.9005 285.453 45.9005H282.832C282.083 45.9005 281.494 45.3655 281.494 44.7235V40.604C278.98 44.7235 274.914 46.7565 269.51 46.7565C264.214 46.7565 260.094 44.991 257.152 41.6205C254.423 38.5175 253.086 34.505 253.086 29.6365C253.086 24.875 254.423 21.023 257.152 17.92C260.094 14.4425 264.053 12.7305 269.243 12.7305C274.432 12.7305 278.391 14.9775 281.173 19.525V1.656C281.173 1.014 281.762 0.479004 282.511 0.479004H285.293C286.095 0.532504 286.737 1.12101 286.737 1.87001Z" fill="#222E3E"/>
<path fill-rule="evenodd" clip-rule="evenodd" d="M243.723 32.5253C243.723 35.1468 242.492 37.5008 240.085 39.5338C237.624 41.6203 234.842 42.6903 231.685 42.6903C229.599 42.6903 227.94 42.1553 226.656 41.1923C225.372 40.1223 224.784 38.8918 224.784 37.3403C224.784 32.4183 228.529 29.9573 236.019 29.7968L243.723 29.6898V32.5253ZM245.916 14.8703C243.562 12.3023 240.085 11.0718 235.323 11.0718C233.879 11.0718 232.595 11.1788 231.364 11.3928C227.94 11.8208 224.784 13.3723 222.43 14.8168C222.002 15.0843 221.841 15.6193 222.055 16.0473L223.018 18.0268C223.232 18.5083 223.874 18.7223 224.356 18.4548C226.603 17.2243 229.652 16.1543 232.327 15.5658C233.13 15.4053 234.039 15.3518 235.002 15.3518C240.834 15.3518 243.723 18.1873 243.723 23.8583V25.6238L235.698 25.7308C230.669 25.7843 226.763 26.4798 224.035 28.3523C220.932 30.3318 219.434 33.4883 219.434 37.3403C219.434 40.0688 220.45 42.3693 222.537 44.1348C224.516 45.8468 227.191 46.7028 230.562 46.7028C233.665 46.7028 236.447 46.0073 238.908 44.6163C240.994 43.4393 242.706 41.9413 243.99 40.0688V44.5093C243.99 45.2048 244.579 45.7933 245.274 45.7933H247.575C248.27 45.7933 248.859 45.2048 248.859 44.5093V24.0188C248.912 20.1668 247.896 17.1173 245.916 14.8703Z" fill="#222E3E"/>
<path fill-rule="evenodd" clip-rule="evenodd" d="M290.961 40.497C290.961 39.748 291.817 39.2665 292.459 39.6945C295.08 41.246 297.862 41.995 300.858 41.995C305.566 41.995 308.776 40.4435 308.776 37.394C308.776 36.11 308.241 34.9865 307.225 34.184C306.208 33.328 303.266 32.3115 300.109 31.188C296.311 29.69 293.85 28.192 292.726 26.694C291.603 25.196 291.014 23.4305 291.014 21.344C291.014 18.348 292.298 15.673 294.866 13.854C297.434 12.035 300.591 11.1255 304.336 11.1255C307.011 11.1255 309.525 11.821 311.826 12.677C312.2 12.8375 312.468 13.1585 312.468 13.5865V17.064C312.468 17.813 311.719 18.241 311.023 17.92C308.83 16.85 306.422 15.994 303.747 15.994C301.821 15.994 299.681 16.422 298.451 17.2245C297.22 18.027 296.364 19.4715 296.364 20.809C296.364 22.1465 296.792 23.2165 297.702 23.9655C298.558 24.7145 301.34 25.6775 304.336 26.8545C308.134 28.2455 310.756 29.7435 312.093 31.2415C313.431 32.7395 314.126 34.612 314.126 36.859C314.126 39.962 312.842 42.423 310.274 44.1885C307.706 45.954 304.389 46.8635 300.27 46.8635C296.953 46.8635 294.064 46.275 291.549 45.1515C291.175 44.991 290.961 44.67 290.961 44.242V40.497Z" fill="#222E3E"/>
</svg>
