<svg width="15" height="10" viewBox="0 0 15 10" fill="none" xmlns="http://www.w3.org/2000/svg">
<path fill-rule="evenodd" clip-rule="evenodd" d="M14.2456 1.46556C14.2456 1.00457 13.8913 0.630859 13.4542 0.630859H12.6628C12.2257 0.630859 11.8714 1.00457 11.8714 1.46556V8.69967C11.8714 9.16066 12.2257 9.53437 12.6628 9.53437H13.4542C13.8913 9.53437 14.2456 9.16066 14.2456 8.69967V1.46556ZM8.73271 2.41149H9.52413C9.96122 2.41149 10.3156 2.79417 10.3156 3.26623V8.67956C10.3156 9.15162 9.96122 9.5343 9.52413 9.5343H8.73271C8.29562 9.5343 7.94128 9.15162 7.94128 8.67956V3.26623C7.94128 2.79417 8.29562 2.41149 8.73271 2.41149ZM5.51291 4.34066H4.72149C4.2844 4.34066 3.93007 4.72821 3.93007 5.20628V8.66875C3.93007 9.14682 4.2844 9.53437 4.72149 9.53437H5.51291C5.95 9.53437 6.30434 9.14682 6.30434 8.66875V5.20628C6.30434 4.72821 5.95 4.34066 5.51291 4.34066ZM1.58285 6.12129H0.791423C0.354332 6.12129 0 6.5033 0 6.97454V8.68105C0 9.15229 0.354332 9.5343 0.791423 9.5343H1.58285C2.01994 9.5343 2.37427 9.15229 2.37427 8.68105V6.97454C2.37427 6.5033 2.01994 6.12129 1.58285 6.12129Z" fill="black"/>
</svg>
