<svg width="49" height="49" viewBox="0 0 49 49" fill="none" xmlns="http://www.w3.org/2000/svg">
<path d="M11.5747 22.4236C2.21469 23.0836 2.21469 36.7036 11.5747 37.3636H15.4148" stroke="white" stroke-width="2.25" stroke-miterlimit="10" stroke-linecap="round" stroke-linejoin="round"/>
<path d="M11.6762 22.4236C5.25615 4.56363 32.336 -2.57636 35.436 16.1836C44.096 17.2836 47.5961 28.8236 41.0361 34.5636C39.0361 36.3836 36.4561 37.3836 33.7561 37.3636H33.5761" stroke="white" stroke-width="2.25" stroke-miterlimit="10" stroke-linecap="round" stroke-linejoin="round"/>
<path d="M34.5 33.2437C34.5 34.7237 34.18 36.1236 33.58 37.3636C33.42 37.7236 33.24 38.0637 33.04 38.3837C31.32 41.2837 28.14 43.2437 24.5 43.2437C20.86 43.2437 17.68 41.2837 15.96 38.3837C15.76 38.0637 15.58 37.7236 15.42 37.3636C14.82 36.1236 14.5 34.7237 14.5 33.2437C14.5 27.7237 18.98 23.2437 24.5 23.2437C30.02 23.2437 34.5 27.7237 34.5 33.2437Z" stroke="white" stroke-width="2.25" stroke-miterlimit="10" stroke-linecap="round" stroke-linejoin="round"/>
<path d="M21.3828 33.2437L23.3628 35.2237L27.6228 31.2837" stroke="white" stroke-width="2.25" stroke-linecap="round" stroke-linejoin="round"/>
</svg>
