<svg width="17" height="17" viewBox="0 0 17 17" fill="none" xmlns="http://www.w3.org/2000/svg">
<path d="M4.06053 7.99927C1.02149 8.21356 1.02149 12.6357 4.06053 12.85H5.30734" stroke="white" stroke-width="0.730538" stroke-miterlimit="10" stroke-linecap="round" stroke-linejoin="round"/>
<path d="M4.0919 7.9993C2.00743 2.20045 10.7998 -0.117783 11.8063 5.97328C14.6181 6.33043 15.7545 10.0773 13.6246 11.941C12.9752 12.5319 12.1375 12.8566 11.2609 12.8501H11.2024" stroke="white" stroke-width="0.730538" stroke-miterlimit="10" stroke-linecap="round" stroke-linejoin="round"/>
<path d="M11.5093 11.5123C11.5093 11.9929 11.4054 12.4474 11.2106 12.85C11.1586 12.9669 11.1002 13.0773 11.0353 13.1812C10.4768 14.1228 9.44431 14.7592 8.26246 14.7592C7.08061 14.7592 6.04811 14.1228 5.48965 13.1812C5.42471 13.0773 5.3663 12.9669 5.31435 12.85C5.11954 12.4474 5.01562 11.9929 5.01562 11.5123C5.01562 9.72008 6.47021 8.2655 8.26246 8.2655C10.0547 8.2655 11.5093 9.72008 11.5093 11.5123Z" stroke="white" stroke-width="0.730538" stroke-miterlimit="10" stroke-linecap="round" stroke-linejoin="round"/>
<path d="M7.25 11.5124L7.89287 12.1552L9.27602 10.876" stroke="white" stroke-width="0.730538" stroke-linecap="round" stroke-linejoin="round"/>
</svg>
