<svg width="34" height="35" viewBox="0 0 34 35" fill="none" xmlns="http://www.w3.org/2000/svg">
<path d="M16.8053 14.1948C14.4219 14.1948 12.4688 16.1479 12.4688 18.5313V19.1603C12.4688 19.723 12.9322 20.1865 13.495 20.1865C14.0577 20.1865 14.5212 19.723 14.5212 19.1603V18.5313C14.5212 17.2734 15.5474 16.2803 16.7722 16.2803C17.335 16.2803 17.7984 15.8168 17.7984 15.2541C17.7984 14.6913 17.3681 14.1948 16.8053 14.1948Z" fill="black"/>
<path d="M16.8075 7.67332C17.3702 7.67332 17.8337 7.20987 17.8337 6.64711V3.89953C17.8337 3.33677 17.3702 2.87332 16.8075 2.87332C16.2447 2.87332 15.7812 3.33677 15.7812 3.89953V6.64711C15.7812 7.17677 16.2447 7.67332 16.8075 7.67332Z" fill="black"/>
<path d="M7.62789 10.8512C7.82651 11.0498 8.09134 11.1491 8.35616 11.1491C8.62099 11.1491 8.88582 11.0498 9.08444 10.8512C9.48168 10.454 9.48168 9.79188 9.08444 9.36154L7.13134 7.40844C6.73409 7.01119 6.07203 7.01119 5.64168 7.40844C5.24444 7.80568 5.24444 8.46775 5.64168 8.89809L7.62789 10.8512Z" fill="black"/>
<path d="M4.88502 17.505H2.10433C1.54157 17.505 1.07812 17.9685 1.07812 18.5312C1.07812 19.094 1.54157 19.5574 2.10433 19.5574H4.88502C5.44778 19.5574 5.91123 19.094 5.91123 18.5312C5.91123 17.9685 5.44778 17.505 4.88502 17.505Z" fill="black"/>
<path d="M31.5022 17.5051H28.7215C28.1588 17.5051 27.6953 17.9685 27.6953 18.5313C27.6953 19.0941 28.1588 19.5575 28.7215 19.5575H31.4691C32.0319 19.5575 32.4953 19.0941 32.4953 18.5313C32.4953 17.9685 32.065 17.5051 31.5022 17.5051Z" fill="black"/>
<path d="M25.2468 11.1491C25.5116 11.1491 25.7765 11.0498 25.9751 10.8512L27.9282 8.89809C28.3254 8.50085 28.3254 7.83878 27.9282 7.40844C27.5309 7.01119 26.8689 7.01119 26.4385 7.40844L24.4854 9.36154C24.0882 9.75878 24.0882 10.4208 24.4854 10.8512C24.7172 11.0498 24.982 11.1491 25.2468 11.1491Z" fill="black"/>
<path d="M25.3086 22.5037V18.5313C25.3086 13.632 21.1706 9.69271 16.2051 10.0237C11.7031 10.3217 8.29341 14.2941 8.29341 18.8293V22.5037C6.86996 22.9672 5.84375 24.2913 5.84375 25.8803C5.84375 27.8665 7.46582 29.4555 9.41892 29.4555H24.2162C26.2024 29.4555 27.7913 27.8334 27.7913 25.8803C27.7582 24.3244 26.732 22.9672 25.3086 22.5037ZM10.3789 18.5313C10.3789 14.9893 13.2589 12.1093 16.801 12.1093C20.3431 12.1093 23.2231 14.9893 23.2231 18.5313V22.3051H10.3789V18.5313ZM24.1831 27.4031H9.41892C8.59134 27.4031 7.92927 26.741 7.92927 25.9134C7.92927 25.0858 8.59134 24.4237 9.41892 24.4237H24.2162C25.0438 24.4237 25.7058 25.0858 25.7058 25.9134C25.7058 26.7079 25.0106 27.4031 24.1831 27.4031Z" fill="black"/>
</svg>
