<svg width="34" height="35" viewBox="0 0 34 35" fill="none" xmlns="http://www.w3.org/2000/svg">
<path d="M28.4758 11.4349C28.0283 11.4349 27.6767 11.7819 27.6767 12.2235V14.4948H4.98109V12.2235C4.98109 11.7819 4.62947 11.4349 4.18195 11.4349C3.73443 11.4349 3.38281 11.7819 3.38281 12.2235V32.2236C3.38281 32.6652 3.73443 33.0122 4.18195 33.0122C4.62947 33.0122 4.98109 32.6652 4.98109 32.2236V30.0784H27.6447V32.2236C27.6447 32.6652 27.9964 33.0122 28.4439 33.0122C28.8914 33.0122 29.243 32.6652 29.243 32.2236V12.2235C29.275 11.7819 28.8914 11.4349 28.4758 11.4349ZM4.98109 16.0406H8.24159V24.6841H4.98109V16.0406ZM9.83987 16.0406H13.1004V24.6841H9.83987V16.0406ZM14.6987 16.0406H17.9591V24.6841H14.6987V16.0406ZM19.5574 16.0406H22.8179V24.6841H19.5574V16.0406ZM24.4162 16.0406H27.6767V24.6841H24.4162V16.0406ZM4.98109 28.5012V26.293H27.6447V28.5012H4.98109Z" fill="black"/>
<path d="M9.32973 9.32112H10.4166L8.65845 11.6871C8.49863 11.9394 8.46666 12.2549 8.59452 12.5072C8.72238 12.7596 9.01008 12.9489 9.29777 12.9489H11.9509C12.3984 12.9489 12.7501 12.6019 12.7501 12.1602C12.7501 11.7186 12.3984 11.3716 11.9509 11.3716H10.8641L12.6222 9.00567C12.782 8.7533 12.814 8.43784 12.6861 8.18548C12.5583 7.93311 12.2706 7.74384 11.9829 7.74384H9.32973C8.88221 7.74384 8.53059 8.09084 8.53059 8.53248C8.53059 8.97412 8.88221 9.32112 9.32973 9.32112Z" fill="black"/>
<path d="M14.986 6.95476H16.0728L14.3147 9.32069C14.1549 9.57306 14.1229 9.88851 14.2508 10.1409C14.3786 10.3932 14.6663 10.5825 14.954 10.5825H17.6072C18.0547 10.5825 18.4063 10.2355 18.4063 9.79388C18.4063 9.35224 18.0547 9.00523 17.6072 9.00523H16.5203L18.2784 6.6393C18.4383 6.38694 18.4702 6.07148 18.3424 5.81911C18.2145 5.56675 17.9268 5.37747 17.6391 5.37747H14.986C14.5385 5.37747 14.1868 5.72448 14.1868 6.16612C14.1868 6.60776 14.5704 6.95476 14.986 6.95476Z" fill="black"/>
<path d="M20.6806 4.62058H21.7674L20.0413 6.98651C19.8814 7.23888 19.8495 7.55434 19.9773 7.8067C20.1052 8.05907 20.3929 8.24834 20.6806 8.24834H23.3337C23.7812 8.24834 24.1329 7.90134 24.1329 7.4597C24.1329 7.01806 23.7812 6.67106 23.3337 6.67106H22.2469L24.005 4.27358C24.1648 4.02121 24.1968 3.70576 24.0689 3.45339C23.9411 3.20102 23.6534 3.01175 23.3657 3.01175H20.7125C20.265 3.01175 19.9134 3.35875 19.9134 3.80039C19.9134 4.24203 20.265 4.62058 20.6806 4.62058Z" fill="black"/>
</svg>
