<svg width="39" height="39" viewBox="0 0 39 39" fill="none" xmlns="http://www.w3.org/2000/svg">
<path d="M9.39219 18.2872C2.02552 18.8067 2.02552 29.5261 9.39219 30.0456H12.4145" stroke="black" stroke-width="1.45833" stroke-miterlimit="10" stroke-linecap="round" stroke-linejoin="round"/>
<path d="M9.47508 18.2873C4.42231 4.23077 25.7352 -1.38866 28.175 13.3762C34.9907 14.2419 37.7454 23.3243 32.5825 27.8419C31.0084 29.2743 28.9778 30.0613 26.8528 30.0456H26.7111" stroke="black" stroke-width="1.45833" stroke-miterlimit="10" stroke-linecap="round" stroke-linejoin="round"/>
<path d="M27.4282 26.803C27.4282 27.9678 27.1764 29.0696 26.7041 30.0455C26.5782 30.3289 26.4366 30.5965 26.2792 30.8483C24.9255 33.1307 22.4227 34.6733 19.5579 34.6733C16.6931 34.6733 14.1902 33.1307 12.8365 30.8483C12.6791 30.5965 12.5375 30.3289 12.4116 30.0455C11.9394 29.0696 11.6875 27.9678 11.6875 26.803C11.6875 22.4585 15.2134 18.9326 19.5579 18.9326C23.9023 18.9326 27.4282 22.4585 27.4282 26.803Z" stroke="black" stroke-width="1.45833" stroke-miterlimit="10" stroke-linecap="round" stroke-linejoin="round"/>
<path d="M17.1094 26.8022L18.6677 28.3605L22.0205 25.2596" stroke="black" stroke-width="1.45833" stroke-linecap="round" stroke-linejoin="round"/>
</svg>
