<svg width="39" height="38" viewBox="0 0 39 38" fill="none" xmlns="http://www.w3.org/2000/svg">
<path d="M19.5845 17.2214C19.4271 17.2056 19.2382 17.2056 19.065 17.2214C15.3188 17.0954 12.3438 14.026 12.3438 10.2482C12.3437 6.39175 15.4604 3.25934 19.3326 3.25934C23.1891 3.25934 26.3215 6.39175 26.3215 10.2482C26.3058 14.026 23.3308 17.0954 19.5845 17.2214Z" stroke="black" stroke-width="1.66667" stroke-linecap="round" stroke-linejoin="round"/>
<path d="M11.7085 23.0313C7.89925 25.5813 7.89925 29.7369 11.7085 32.2711C16.0372 35.1674 23.1363 35.1674 27.465 32.2711C31.2743 29.7211 31.2743 25.5656 27.465 23.0313C23.152 20.1508 16.053 20.1508 11.7085 23.0313Z" stroke="black" stroke-width="1.66667" stroke-linecap="round" stroke-linejoin="round"/>
</svg>
