<svg width="48" height="49" viewBox="0 0 48 49" fill="none" xmlns="http://www.w3.org/2000/svg">
<rect width="48" height="48" transform="translate(0 0.183594)" fill="#5FA4FB"/>
<path d="M17.2156 22.6958C18.9225 22.6958 20.3062 21.3121 20.3062 19.6052C20.3062 17.8984 18.9225 16.5146 17.2156 16.5146C15.5087 16.5146 14.125 17.8984 14.125 19.6052C14.125 21.3121 15.5087 22.6958 17.2156 22.6958Z" fill="white"/>
<path d="M30.7781 22.6958C32.485 22.6958 33.8687 21.3121 33.8687 19.6052C33.8687 17.8984 32.485 16.5146 30.7781 16.5146C29.0712 16.5146 27.6875 17.8984 27.6875 19.6052C27.6875 21.3121 29.0712 22.6958 30.7781 22.6958Z" fill="white"/>
<path d="M26.2058 30.5376H21.7313C21.0855 30.5376 20.5781 31.045 20.5781 31.6908V32.3827C20.5781 34.0433 21.9158 35.3349 23.5303 35.3349H24.3145C25.9751 35.3349 27.2667 33.9972 27.2667 32.3827V31.6908C27.359 31.045 26.8516 30.5376 26.2058 30.5376Z" fill="white"/>
<path d="M31.2859 8.02475L30.9287 7.96713C29.5306 7.74163 28.0336 7.65017 26.5192 7.60427L31.2859 8.02475ZM31.2859 8.02475L31.4523 7.70344M31.2859 8.02475L31.4523 7.70344M31.4523 7.70344C32.7061 5.2822 35.2588 3.68359 38.0198 3.68359C42.0797 3.68359 45.4077 7.01161 45.4077 11.0715C45.4077 13.0512 44.5912 14.9535 43.0684 16.4328L42.8881 16.6079L42.9211 16.857C43.3343 19.9788 43.6087 23.7385 43.6087 25.8325C43.6087 31.8375 38.9164 36.6426 33.9129 39.9936L33.759 40.0967L33.7094 40.2752C33.4987 41.0337 33.1192 41.7518 32.5678 42.388L32.567 42.389C31.5094 43.6157 29.9413 44.3373 28.2867 44.3373H19.6146C17.9632 44.3373 16.3978 43.6184 15.3404 42.3959C14.823 41.7474 14.4004 40.9794 14.192 40.2291L14.1424 40.0506L13.9885 39.9475C8.98499 36.5965 4.29268 31.7913 4.29268 25.7864C4.29268 23.6924 4.5671 19.9327 4.98028 16.8109L5.01329 16.5615L4.83267 16.3863C3.40784 15.0047 2.58594 13.0585 2.58594 11.0715C2.58594 6.96738 5.91204 3.68359 9.97385 3.68359C12.7348 3.68359 15.2875 5.2822 16.5413 7.70344L16.7061 8.02153L17.0602 7.96787C18.5619 7.74035 20.1049 7.60449 21.6443 7.60449H21.6514M31.4523 7.70344L21.6514 7.60449M21.6514 7.60449L21.6586 7.60428M21.6514 7.60449L21.6586 7.60428M21.6586 7.60428C23.2636 7.55842 24.9606 7.55844 26.519 7.60427L21.6586 7.60428ZM16.2597 38.1246L16.2586 38.1321L16.2578 38.1397C16.1513 39.0981 16.4173 40.0687 17.067 40.8267C17.7176 41.5858 18.6878 42.0161 19.6608 42.0161H28.3329C29.2864 42.0161 30.2685 41.6451 30.9321 40.8203C31.5634 40.0805 31.8962 39.1098 31.7332 38.1189L30.6269 30.3289L30.627 30.3289L30.6255 30.3196C30.3561 28.6493 28.9032 27.4083 27.2258 27.4083H20.7678C19.0536 27.4083 17.586 28.6425 17.3663 30.3319C17.3662 30.333 17.366 30.3341 17.3659 30.3352L16.2597 38.1246ZM7.85196 16.3301C7.94421 15.7305 7.71357 15.1308 7.20616 14.7618C6.00683 13.8853 5.31491 12.5015 5.31491 11.0254C5.31491 8.48833 7.39068 6.41256 9.92773 6.41256C11.9574 6.41256 13.8025 7.75028 14.356 9.73379C14.5867 10.518 15.417 11.0254 16.2012 10.887L7.85196 16.3301ZM21.683 9.87959C19.8076 9.88008 17.9355 10.0678 16.1136 10.3947C15.5817 10.4882 14.9966 10.134 14.8366 9.5956C14.2191 7.38962 12.1716 5.91256 9.92773 5.91256C7.11453 5.91256 4.81491 8.21219 4.81491 11.0254C4.81491 12.6591 5.58142 14.1937 6.91115 15.1655L6.91208 15.1661C7.26079 15.4197 7.42212 15.8294 7.3582 16.2513C6.84611 19.3257 6.56778 23.5488 6.56778 25.7403C6.56778 30.2327 9.92476 33.9617 13.3979 36.7402L14.0798 37.2857L14.2051 36.4215L15.127 30.0601C15.1271 30.0594 15.1272 30.0587 15.1273 30.058C15.5528 27.2993 17.9762 25.1793 20.7678 25.1793H27.2258C30.0713 25.1793 32.4847 27.2597 32.8654 30.0516L32.866 30.0558L33.7886 36.4215L33.9108 37.2651L34.5875 36.7466C38.1627 34.0072 41.472 30.2789 41.472 25.7864C41.472 23.5895 41.1466 19.3665 40.6822 16.3013L40.6703 16.2233L40.6429 16.1684C40.6426 16.1647 40.6424 16.1597 40.6421 16.1531C40.6417 16.1391 40.6417 16.1238 40.6417 16.0995V16.0534C40.6417 15.7075 40.7952 15.3901 41.0923 15.1581C42.3688 14.1868 43.1326 12.6564 43.1326 11.0254C43.1326 8.21219 40.833 5.91256 38.0198 5.91256C35.7633 5.91256 33.7789 7.44582 33.1156 9.58028C32.9158 10.173 32.3714 10.4892 31.7885 10.3948C30.0934 10.0658 28.3134 9.92627 26.5016 9.87978C24.9261 9.83346 23.2587 9.8334 21.683 9.87959Z" fill="white" stroke="#5FA4FB"/>
</svg>
