<svg width="39" height="38" viewBox="0 0 39 38" fill="none" xmlns="http://www.w3.org/2000/svg">
<path d="M10.7475 23.4025C11.0951 23.4025 11.354 23.3252 11.5977 23.1644C11.836 23.0072 12.0565 22.7718 12.3308 22.4675C12.9113 21.8267 13.6868 20.9885 15.16 20.9885C16.6206 20.9885 17.4136 21.8455 17.9758 22.4531L17.9899 22.4684C18.2692 22.7701 18.4898 23.0054 18.7261 23.1628C18.9683 23.3241 19.2244 23.4025 19.5724 23.4025C19.9192 23.4025 20.1698 23.3303 20.4099 23.1715C20.6436 23.0168 20.8645 22.7813 21.1548 22.4685L21.1741 22.4476C21.7575 21.8189 22.528 20.9885 23.9848 20.9885C25.4455 20.9885 26.2385 21.8455 26.8007 22.4531L26.8148 22.4684C27.0941 22.7701 27.3147 23.0054 27.551 23.1628C27.7932 23.3241 28.0493 23.4025 28.3973 23.4025C28.744 23.4025 28.9956 23.3303 29.2362 23.1715C29.4705 23.0168 29.6913 22.7812 29.9799 22.4683L29.9802 22.4679C30.5616 21.8374 31.3445 20.9885 32.8097 20.9885C33.0344 20.9885 33.2499 21.0777 33.4088 21.2366C33.5677 21.3955 33.657 21.611 33.657 21.8357C33.657 22.0604 33.5677 22.2759 33.4088 22.4348C33.2499 22.5936 33.0344 22.6829 32.8097 22.6829C32.463 22.6829 32.2114 22.755 31.9709 22.9139C31.7366 23.0685 31.5158 23.3041 31.2272 23.6171L31.218 23.627C30.6375 24.2566 29.8626 25.0969 28.3973 25.0969C26.9367 25.0969 26.1436 24.2398 25.5814 23.6322L25.5673 23.617C25.2881 23.3152 25.0674 23.0799 24.8311 22.9226C24.589 22.7613 24.3328 22.6829 23.9848 22.6829C23.6381 22.6829 23.3865 22.755 23.146 22.9139C22.9117 23.0685 22.6909 23.3041 22.4023 23.6171L22.3931 23.627C21.8126 24.2566 21.0378 25.0969 19.5724 25.0969C18.1118 25.0969 17.3187 24.2398 16.7565 23.6322L16.7424 23.617C16.4632 23.3152 16.2426 23.0799 16.0062 22.9226C15.7641 22.7613 15.5079 22.6829 15.16 22.6829C14.8133 22.6829 14.5616 22.755 14.3211 22.9139C14.0868 23.0686 13.866 23.3041 13.5774 23.6171L13.5683 23.627C12.9877 24.2566 12.2129 25.0969 10.7475 25.0969C9.2869 25.0969 8.49385 24.2398 7.93164 23.6322C7.92692 23.6271 7.92222 23.622 7.91754 23.617C7.63801 23.3149 7.41562 23.0798 7.17836 22.9225C6.93547 22.7614 6.67942 22.6829 6.33507 22.6829C6.11037 22.6829 5.89488 22.5936 5.73599 22.4348C5.57711 22.2759 5.48785 22.0604 5.48785 21.8357C5.48785 21.611 5.57711 21.3955 5.73599 21.2366C5.89488 21.0777 6.11037 20.9885 6.33507 20.9885C7.79568 20.9885 8.58873 21.8455 9.15094 22.4531C9.15566 22.4582 9.16036 22.4633 9.16505 22.4684C9.44431 22.7701 9.66492 23.0054 9.90124 23.1628C10.1434 23.3241 10.3996 23.4025 10.7475 23.4025Z" fill="black" stroke="black" stroke-width="0.194444"/>
<path d="M7.92535 29.1695C7.64582 28.8674 7.42344 28.6323 7.18617 28.475C6.94328 28.3139 6.68724 28.2354 6.34288 28.2354C6.11818 28.2354 5.90269 28.1461 5.74381 27.9872C5.58492 27.8284 5.49566 27.6129 5.49566 27.3882C5.49566 27.1635 5.58492 26.948 5.74381 26.7891C5.90269 26.6302 6.11818 26.5409 6.34288 26.5409C7.80349 26.5409 8.59654 27.398 9.15875 28.0056L9.17286 28.0209C9.45212 28.3226 9.67273 28.5579 9.90905 28.7153C10.1512 28.8766 10.4074 28.9549 10.7553 28.9549C11.1021 28.9549 11.3528 28.8828 11.5929 28.7239C11.8265 28.5693 12.0474 28.3338 12.3377 28.021C12.3441 28.014 12.3506 28.0071 12.3571 28.0001C12.9404 27.3714 13.7109 26.5409 15.1678 26.5409C16.6284 26.5409 17.4214 27.398 17.9836 28.0056L17.9978 28.0209C18.277 28.3226 18.4976 28.5579 18.7339 28.7153C18.9761 28.8766 19.2323 28.9549 19.5802 28.9549C19.927 28.9549 20.1777 28.8828 20.4178 28.7239C20.6514 28.5693 20.8723 28.3338 21.1626 28.021L21.182 28.0001C21.7653 27.3714 22.5358 26.5409 23.9927 26.5409C25.4533 26.5409 26.2463 27.398 26.8085 28.0056L26.8226 28.0209C27.1019 28.3226 27.3225 28.5579 27.5588 28.7153C27.801 28.8766 28.0571 28.9549 28.4051 28.9549C28.7518 28.9549 29.0034 28.8828 29.244 28.724C29.4783 28.5693 29.6991 28.3337 29.9877 28.0207L29.9881 28.0203C30.5694 27.3899 31.3523 26.5409 32.8176 26.5409C33.0422 26.5409 33.2577 26.6302 33.4166 26.7891C33.5755 26.948 33.6648 27.1635 33.6648 27.3882C33.6648 27.6129 33.5755 27.8284 33.4166 27.9872C33.2577 28.1461 33.0422 28.2354 32.8176 28.2354C32.4708 28.2354 32.2192 28.3075 31.9787 28.4663C31.7444 28.621 31.5236 28.8566 31.235 29.1696L31.2258 29.1795C30.6453 29.8091 29.8705 30.6494 28.4051 30.6494C26.9445 30.6494 26.1514 29.7923 25.5892 29.1847L25.5751 29.1695C25.2959 28.8677 25.0753 28.6324 24.8389 28.4751C24.5968 28.3138 24.3406 28.2354 23.9927 28.2354C23.646 28.2354 23.3944 28.3075 23.1538 28.4663C22.9195 28.621 22.6987 28.8566 22.4101 29.1696L22.401 29.1795C21.8204 29.8091 21.0456 30.6494 19.5802 30.6494C18.1196 30.6494 17.3266 29.7923 16.7643 29.1847L16.7502 29.1695C16.471 28.8677 16.2504 28.6324 16.0141 28.4751C15.7719 28.3138 15.5157 28.2354 15.1678 28.2354C14.8211 28.2354 14.5695 28.3075 14.3289 28.4663C14.0946 28.621 13.8738 28.8566 13.5852 29.1696L13.5761 29.1795C12.9955 29.8091 12.2207 30.6494 10.7553 30.6494C9.29472 30.6494 8.50167 29.7923 7.93946 29.1847C7.93474 29.1796 7.93003 29.1745 7.92535 29.1695Z" fill="black" stroke="black" stroke-width="0.194444"/>
<path d="M6.34288 33.805H6.24566V33.8145C6.05675 33.7927 5.8796 33.7078 5.74381 33.572C5.58492 33.4131 5.49566 33.1976 5.49566 32.9729C5.49566 32.7482 5.58492 32.5327 5.74381 32.3738C5.90269 32.2149 6.11818 32.1257 6.34288 32.1257C7.80349 32.1257 8.59654 32.9827 9.15875 33.5903L9.17286 33.6056C9.45239 33.9076 9.67477 34.1428 9.91204 34.3001C10.1549 34.4612 10.411 34.5397 10.7553 34.5397C11.0986 34.5397 11.3465 34.4674 11.5843 34.3084C11.8155 34.1538 12.0344 33.9182 12.3228 33.6055L12.3319 33.5956C12.9124 32.966 13.6873 32.1257 15.1527 32.1257C16.6133 32.1257 17.4063 32.9827 17.9685 33.5903L17.9826 33.6056C18.2623 33.9078 18.4856 34.1428 18.7233 34.3002C18.9666 34.4611 19.2226 34.5397 19.5651 34.5397C19.9066 34.5397 20.1536 34.4673 20.3908 34.3083C20.6215 34.1537 20.8404 33.9182 21.1288 33.6055L21.1379 33.5956C21.7184 32.966 22.4933 32.1257 23.9587 32.1257C25.4193 32.1257 26.2123 32.9827 26.7745 33.5903L26.7886 33.6056C27.0687 33.9082 27.2946 34.143 27.5338 34.3003C27.7781 34.461 28.034 34.5397 28.3711 34.5397C28.7069 34.5397 28.9625 34.4674 29.2097 34.3095C29.4518 34.1549 29.6826 33.9199 29.9726 33.6055L29.973 33.6051C30.5543 32.9746 31.3372 32.1257 32.8024 32.1257C33.0271 32.1257 33.2426 32.2149 33.4015 32.3738C33.5604 32.5327 33.6497 32.7482 33.6497 32.9729C33.6497 33.1976 33.5604 33.4131 33.4015 33.572C33.2426 33.7308 33.0271 33.8201 32.8024 33.8201C32.4557 33.8201 32.2041 33.8922 31.9636 34.0511C31.7293 34.2058 31.5085 34.4413 31.2199 34.7543L31.2107 34.7642C30.6302 35.3938 29.8554 36.2341 28.39 36.2341C26.9294 36.2341 26.1363 35.377 25.5741 34.7694L25.56 34.7542C25.2808 34.4524 25.0601 34.2171 24.8238 34.0598C24.5817 33.8985 24.3255 33.8201 23.9776 33.8201C23.6308 33.8201 23.3792 33.8922 23.1387 34.0511C22.9044 34.2058 22.6836 34.4413 22.395 34.7543L22.3946 34.7547C21.8132 35.3852 21.0304 36.2341 19.5651 36.2341C18.1321 36.2341 17.3486 35.3865 16.7871 34.7789C16.7747 34.7655 16.7624 34.7522 16.7502 34.7391C16.471 34.4373 16.2504 34.202 16.0141 34.0447C15.7719 33.8834 15.5157 33.805 15.1678 33.805C14.8211 33.805 14.5695 33.8771 14.3289 34.0359C14.0946 34.1906 13.8738 34.4262 13.5852 34.7392L13.5761 34.7491C12.9955 35.3787 12.2207 36.219 10.7553 36.219C9.29472 36.219 8.50167 35.3619 7.93946 34.7543C7.93474 34.7492 7.93003 34.7441 7.92535 34.7391C7.64582 34.437 7.42344 34.2019 7.18617 34.0446C6.94328 33.8835 6.68724 33.805 6.34288 33.805Z" fill="black" stroke="black" stroke-width="0.194444"/>
<path d="M17.5459 2.98482C17.7472 2.98383 17.9448 3.04172 18.1156 3.15181C18.2865 3.26189 18.4237 3.41968 18.5114 3.60692C18.6069 3.80823 18.7759 3.96211 18.9812 4.03471C19.1865 4.10731 19.4113 4.09268 19.6062 3.99404C19.801 3.89541 19.95 3.72084 20.0203 3.50875C20.0906 3.29666 20.0764 3.06441 19.9809 2.8631C19.712 2.29428 19.2643 1.83641 18.7111 1.56422C18.1578 1.29203 17.5316 1.22159 16.9346 1.3644C16.3376 1.5072 15.805 1.85482 15.4239 2.35052C15.0427 2.84622 14.8355 3.46074 14.8359 4.09378V18.1553C14.8359 18.3795 14.9221 18.5945 15.0756 18.753C15.229 18.9115 15.4372 19.0006 15.6542 19.0006C15.8712 19.0006 16.0793 18.9115 16.2327 18.753C16.3862 18.5945 16.4724 18.3795 16.4724 18.1553V16.6339H23.7873V18.1553C23.7873 18.3795 23.8735 18.5945 24.0269 18.753C24.1804 18.9115 24.3885 19.0006 24.6055 19.0006C24.8225 19.0006 25.0306 18.9115 25.1841 18.753C25.3375 18.5945 25.4237 18.3795 25.4237 18.1553V4.09378C25.4289 3.84757 25.5133 3.61016 25.6636 3.41899C25.8139 3.22781 26.0215 3.09376 26.2537 3.03796C26.4859 2.98215 26.7295 3.00779 26.946 3.1108C27.1626 3.21382 27.3397 3.38837 27.4496 3.60692C27.4969 3.7066 27.5627 3.79568 27.6433 3.86908C27.7239 3.94248 27.8177 3.99876 27.9194 4.03471C28.0211 4.07066 28.1286 4.08557 28.2358 4.07859C28.3431 4.07161 28.4479 4.04288 28.5444 3.99404C28.6409 3.9452 28.7271 3.87721 28.7982 3.79394C28.8692 3.71068 28.9237 3.61377 28.9585 3.50875C28.9933 3.40373 29.0077 3.29266 29.001 3.18188C28.9942 3.0711 28.9664 2.96278 28.9191 2.8631C28.6464 2.3017 28.1988 1.85137 27.6484 1.58452C27.0979 1.31767 26.4766 1.2498 25.8843 1.39184C25.292 1.53388 24.7632 1.87757 24.3828 2.36764C24.0025 2.85771 23.7927 3.46568 23.7873 4.09378V6.60924H16.4724V4.09378C16.4724 3.79967 16.5855 3.5176 16.7868 3.30963C16.9881 3.10166 17.2612 2.98482 17.5459 2.98482ZM16.4724 14.9434V12.4516H23.7873V14.9299L16.4724 14.9434ZM23.7873 8.29974V10.7611H16.4724V8.29974H23.7873Z" fill="black"/>
</svg>
