<svg width="34" height="34" viewBox="0 0 34 34" fill="none" xmlns="http://www.w3.org/2000/svg">
<path d="M12.1158 16.2798C13.293 16.2798 14.2473 15.3255 14.2473 14.1484C14.2473 12.9712 13.293 12.0169 12.1158 12.0169C10.9387 12.0169 9.98438 12.9712 9.98438 14.1484C9.98438 15.3255 10.9387 16.2798 12.1158 16.2798Z" fill="black"/>
<path d="M21.4674 16.2798C22.6445 16.2798 23.5988 15.3255 23.5988 14.1484C23.5988 12.9712 22.6445 12.0169 21.4674 12.0169C20.2902 12.0169 19.3359 12.9712 19.3359 14.1484C19.3359 15.3255 20.2902 16.2798 21.4674 16.2798Z" fill="black"/>
<path d="M18.3186 21.6893H15.2328C14.7874 21.6893 14.4375 22.0393 14.4375 22.4846V22.9618C14.4375 24.1071 15.3601 24.9978 16.4735 24.9978H17.0143C18.1596 24.9978 19.0503 24.0753 19.0503 22.9618V22.4846C19.1139 22.0393 18.764 21.6893 18.3186 21.6893Z" fill="black"/>
<path d="M28.3704 10.8088L28.4576 10.9209C28.4574 10.9211 28.4571 10.9212 28.4569 10.9214C28.2041 11.1183 28.067 11.3955 28.067 11.6996V11.7314C28.067 11.7986 28.0691 11.8293 28.0838 11.8588L28.0939 11.8788L28.0972 11.901C28.4162 14.0065 28.6396 16.9086 28.6396 18.412C28.6396 21.4094 26.4274 23.9278 23.9712 25.8098L23.779 25.957L23.7443 25.7175L23.1081 21.3273L23.1079 21.3261C22.8314 19.2983 21.0793 17.7905 19.0175 17.7905H14.5638C12.5359 17.7905 10.7811 19.3282 10.4731 21.328C10.4731 21.3282 10.4731 21.3284 10.473 21.3286L9.83696 25.7175L9.80139 25.9629L9.60774 25.808C7.21797 23.8961 4.97345 21.3776 4.97345 18.3802C4.97345 16.8783 5.16477 13.9761 5.51605 11.868C5.5716 11.5049 5.43222 11.1454 5.12736 10.9237L5.1271 10.9235C4.26295 10.292 3.76458 9.29477 3.76458 8.23201C3.76458 6.40391 5.25971 4.90877 7.08782 4.90877C8.54844 4.90877 9.87844 5.87095 10.2783 7.30213C10.4174 7.77306 10.9203 8.07941 11.3893 7.9968C12.6366 7.77294 13.9168 7.64479 15.1979 7.64465L23.2725 7.2978M28.3704 10.8088C29.1657 10.2044 29.6429 9.25001 29.6429 8.23201C29.6429 6.48232 28.2113 5.05076 26.4616 5.05076C25.0619 5.05076 23.8212 6.00514 23.4076 7.34126M28.3704 10.8088C28.0841 11.0315 27.925 11.3496 27.925 11.6996V11.7314C27.925 11.795 27.925 11.8586 27.9568 11.9223L28.3704 10.8088ZM23.4076 7.34126L23.2729 7.29636C23.2728 7.29684 23.2726 7.29732 23.2725 7.2978M23.4076 7.34126L23.272 7.29928C23.2722 7.29879 23.2723 7.29829 23.2725 7.2978M23.4076 7.34126C23.2168 7.91389 22.676 8.23201 22.1033 8.13658M23.2725 7.2978C23.1034 7.80285 22.6308 8.07968 22.1285 7.99682M22.1033 8.13658L22.1304 7.9972C22.1298 7.99707 22.1291 7.99695 22.1285 7.99682M22.1033 8.13658C20.9581 7.91389 19.7492 7.81845 18.5085 7.78664L22.1285 7.99682M22.1033 8.13658L22.1267 7.99652C22.1273 7.99662 22.1279 7.99672 22.1285 7.99682M21.6035 5.92262L21.705 5.93899L21.7522 5.84774C22.651 4.11223 24.48 2.96587 26.4616 2.96587C29.3736 2.96587 31.7596 5.35187 31.7596 8.26383C31.7596 9.68681 31.1722 11.0504 30.0848 12.1067L30.0336 12.1565L30.0429 12.2272C30.3287 14.3862 30.5189 16.9884 30.5189 18.4438C30.5189 22.6941 27.2028 26.061 23.7422 28.3786L23.6985 28.4079L23.6844 28.4586C23.531 29.0108 23.2548 29.5329 22.855 29.9942L22.8547 29.9945C22.0866 30.8856 20.9489 31.4086 19.7492 31.4086H13.7684C12.5697 31.4086 11.4327 30.8863 10.6646 29.9965C10.2931 29.5316 9.986 28.9767 9.83325 28.4268L9.81917 28.3761L9.77545 28.3468C6.31484 26.0292 2.99874 22.6623 2.99874 18.412C2.99874 16.9566 3.18895 14.3544 3.4747 12.1954L3.48407 12.1246L3.43278 12.0748C2.41063 11.0837 1.82168 9.6889 1.82168 8.26383C1.82168 5.32059 4.20713 2.96587 7.11963 2.96587C9.10132 2.96587 10.9303 4.11223 11.829 5.84774L11.8758 5.93807L11.9764 5.92283C13.0204 5.76466 14.0948 5.66994 15.1682 5.66994V5.66999L15.1723 5.66988C16.283 5.63814 17.4573 5.63814 18.5361 5.66987C19.5838 5.70162 20.6264 5.76502 21.6035 5.92262ZM11.6555 26.9496L11.6554 26.9496L11.655 26.9539C11.5873 27.5629 11.7564 28.1754 12.1655 28.6526C12.5748 29.1302 13.1871 29.4021 13.8003 29.4021H19.781C20.3886 29.4021 21.0044 29.1657 21.4174 28.6508C21.8212 28.1787 22.028 27.5662 21.9255 26.9479L21.1623 21.5733L21.1623 21.5733L21.1619 21.5707C20.9918 20.5162 20.074 19.7334 19.0175 19.7334H14.5638C13.4781 19.7334 12.5561 20.5143 12.4189 21.5742C12.4188 21.5745 12.4188 21.5748 12.4188 21.5751L11.6555 26.9496ZM5.65625 11.8905C5.71988 11.4769 5.56082 11.0633 5.21088 10.8088C4.38375 10.2044 3.90656 9.25001 3.90656 8.23201C3.90656 6.48232 5.33813 5.05076 7.08782 5.05076C8.48757 5.05076 9.76007 5.97332 10.1418 7.34126C10.3009 7.88208 10.8735 8.23201 11.4143 8.13658C12.655 7.91389 13.9275 7.78664 15.2 7.78664L5.65625 11.8905Z" fill="black" stroke="black" stroke-width="0.283976"/>
</svg>
