<svg width="38" height="38" viewBox="0 0 38 38" fill="none" xmlns="http://www.w3.org/2000/svg">
<path d="M24.2941 8.31744C28.8282 10.3434 31.9878 14.8926 31.9878 20.1797C31.9878 27.3518 26.1738 33.1658 19.0017 33.1658C11.8297 33.1658 6.01562 27.3518 6.01562 20.1797C6.01562 16.6978 7.38599 13.5359 9.61681 11.204C10.8233 12.8889 12.4229 14.2733 14.2814 15.2229C14.3524 10.8538 16.4013 6.96558 19.5717 4.41455C20.7734 6.02601 22.3669 7.38023 24.2941 8.31744Z" stroke="black" stroke-width="1.45833" stroke-linecap="round" stroke-linejoin="round"/>
<path d="M19.0017 28.4442C22.2618 28.4442 24.9045 25.8015 24.9045 22.5415C24.9045 19.5455 22.6726 17.0709 19.7807 16.6896C18.1936 18.1134 17.0911 20.0667 16.7513 22.2717C15.5194 21.9705 14.3823 21.4278 13.393 20.6964C13.2022 21.2769 13.099 21.8971 13.099 22.5415C13.099 25.8015 15.7417 28.4442 19.0017 28.4442Z" stroke="black" stroke-width="1.45833" stroke-linecap="round" stroke-linejoin="round"/>
</svg>
