<svg width="38" height="38" viewBox="0 0 38 38" fill="none" xmlns="http://www.w3.org/2000/svg">
<path d="M13.784 17.8286C15.1273 17.8286 16.2164 16.7395 16.2164 15.3962C16.2164 14.0528 15.1273 12.9637 13.784 12.9637C12.4406 12.9637 11.3516 14.0528 11.3516 15.3962C11.3516 16.7395 12.4406 17.8286 13.784 17.8286Z" fill="black"/>
<path d="M24.4558 17.8286C25.7992 17.8286 26.8883 16.7395 26.8883 15.3962C26.8883 14.0528 25.7992 12.9637 24.4558 12.9637C23.1125 12.9637 22.0234 14.0528 22.0234 15.3962C22.0234 16.7395 23.1125 17.8286 24.4558 17.8286Z" fill="black"/>
<path d="M20.8588 24.0019H17.3373C16.829 24.0019 16.4297 24.4012 16.4297 24.9095V25.4541C16.4297 26.761 17.4825 27.7776 18.7532 27.7776H19.3704C20.6773 27.7776 21.6939 26.7247 21.6939 25.4541V24.9095C21.7665 24.4012 21.3671 24.0019 20.8588 24.0019Z" fill="black"/>
<path d="M24.7922 6.15516L24.5937 6.12315C23.486 5.94449 22.302 5.87232 21.1083 5.83614L24.7922 6.15516ZM24.7922 6.15516L24.8846 5.97666M24.7922 6.15516L24.8846 5.97666M24.8846 5.97666C25.8909 4.03357 27.939 2.75037 30.1563 2.75037C33.4155 2.75037 36.0866 5.42146 36.0866 8.68068C36.0866 10.2717 35.4301 11.7983 34.2103 12.9832L34.1102 13.0805L34.1285 13.2189C34.4542 15.6793 34.6707 18.6436 34.6707 20.2981C34.6707 25.0864 30.932 28.8985 26.9884 31.5396L26.9029 31.5969L26.8753 31.696C26.7049 32.3096 26.398 32.8901 25.9528 33.4037L25.9524 33.4042C25.0979 34.3954 23.8316 34.9778 22.496 34.9778H15.6707C14.3368 34.9778 13.0721 34.3969 12.2177 33.4081M24.8846 5.97666L26.1628 33.5856M26.1628 33.5856C25.2551 34.6384 23.9119 35.2556 22.496 35.2556H15.6707C14.2549 35.2556 12.9116 34.6384 12.004 33.5856M26.1628 33.5856C26.6347 33.041 26.9615 32.4239 27.143 31.7704L26.1628 33.5856ZM12.004 33.5856L12.2209 33.4121C12.2198 33.4108 12.2188 33.4094 12.2177 33.4081M12.004 33.5856C11.5683 33.041 11.2053 32.3876 11.0238 31.7341L12.004 33.5856ZM12.2177 33.4081C11.8021 32.8877 11.4606 32.2688 11.2914 31.6597L11.2638 31.5606L11.1783 31.5033C7.23473 28.8622 3.49605 25.0501 3.49605 20.2618C3.49605 18.6073 3.71257 15.643 4.03821 13.1826L4.05655 13.044L3.95621 12.9467C2.81227 11.8374 2.15278 10.2758 2.15278 8.68068C2.15278 5.38621 4.82281 2.75037 8.08308 2.75037C10.3003 2.75037 12.3485 4.03357 13.3547 5.97666L13.4462 6.15338L13.643 6.12356C14.8296 5.94377 16.0499 5.83626 17.2681 5.83626V5.83637L17.2761 5.83615C18.5415 5.79999 19.8794 5.8 21.1082 5.83614L12.2177 33.4081ZM13.1448 29.9887L13.1447 29.9887L13.1438 29.9971C13.0633 30.7218 13.2644 31.4532 13.7535 32.0238C14.2431 32.595 14.9743 32.9195 15.707 32.9195H22.5323C23.2543 32.9195 23.9921 32.6386 24.4889 32.0202C24.9677 31.4597 25.2167 30.7282 25.0941 29.9855L24.2232 23.8532L24.2232 23.8532L24.2224 23.8481C24.0194 22.5891 22.9239 21.6541 21.661 21.6541H16.5784C15.2843 21.6541 14.1807 22.5853 14.0159 23.8549C14.0158 23.8555 14.0157 23.8561 14.0157 23.8567L13.1448 29.9887ZM32.1372 12.8141L32.1306 12.7707L32.111 12.7315C32.1101 12.7296 32.108 12.7252 32.1064 12.7123C32.1044 12.696 32.104 12.677 32.104 12.6379V12.6016C32.104 12.292 32.2427 12.0089 32.5039 11.8052C33.48 11.0627 34.0645 9.8922 34.0645 8.64437C34.0645 6.49421 32.3064 4.73614 30.1563 4.73614C28.4328 4.73614 26.9139 5.90834 26.4066 7.54268C26.2315 8.06407 25.7477 8.34641 25.2317 8.26203C23.9055 8.00448 22.5107 7.89494 21.0877 7.85843C19.8494 7.82203 18.5388 7.82199 17.3004 7.85833C15.8313 7.8586 14.3642 8.00558 12.9355 8.26198C12.4585 8.34592 11.9413 8.03173 11.799 7.55113C11.3278 5.8664 9.7632 4.73614 8.04678 4.73614C5.89661 4.73614 4.13854 6.49421 4.13854 8.64437C4.13854 9.89368 4.72455 11.0666 5.74091 11.8093L5.74143 11.8097C6.05259 12.036 6.19561 12.4024 6.13877 12.7755C5.73682 15.1883 5.51812 18.5062 5.51812 20.2255C5.51812 23.7037 8.11988 26.6082 10.8502 28.7925L11.2291 29.0956L11.2987 28.6154L12.0244 23.6078C12.0245 23.6074 12.0245 23.607 12.0246 23.6066C12.3678 21.38 14.3227 19.6683 16.5784 19.6683H21.661C23.9572 19.6683 25.9067 21.3473 26.2143 23.6031L26.2146 23.6054L26.9407 28.6154L27.0086 29.0841L27.3845 28.7961C30.193 26.6442 32.7575 23.7401 32.7575 20.2618C32.7575 18.5395 32.502 15.2217 32.1372 12.8141Z" fill="black" stroke="#F0F4F4" stroke-width="0.555556"/>
</svg>
