<svg width="39" height="38" viewBox="0 0 39 38" fill="none" xmlns="http://www.w3.org/2000/svg">
<path d="M33.0816 12.0862C32.5709 12.0862 32.1696 12.4822 32.1696 12.9862V15.5783H6.26928V12.9862C6.26928 12.4822 5.86801 12.0862 5.3573 12.0862C4.84658 12.0862 4.44531 12.4822 4.44531 12.9862V35.8103C4.44531 36.3143 4.84658 36.7103 5.3573 36.7103C5.86801 36.7103 6.26928 36.3143 6.26928 35.8103V33.3623H32.1331V35.8103C32.1331 36.3143 32.5344 36.7103 33.0451 36.7103C33.5558 36.7103 33.9571 36.3143 33.9571 35.8103V12.9862C33.9936 12.4822 33.5558 12.0862 33.0816 12.0862ZM6.26928 17.3423H9.99017V27.2063H6.26928V17.3423ZM11.8141 17.3423H15.535V27.2063H11.8141V17.3423ZM17.359 17.3423H21.0799V27.2063H17.359V17.3423ZM22.9038 17.3423H26.6247V27.2063H22.9038V17.3423ZM28.4487 17.3423H32.1696V27.2063H28.4487V17.3423ZM6.26928 31.5623V29.0423H32.1331V31.5623H6.26928Z" fill="black"/>
<path d="M11.2337 9.67397H12.474L10.4677 12.374C10.2853 12.662 10.2488 13.022 10.3947 13.31C10.5406 13.598 10.869 13.814 11.1973 13.814H14.2251C14.7358 13.814 15.137 13.418 15.137 12.914C15.137 12.41 14.7358 12.014 14.2251 12.014H12.9848L14.9911 9.31397C15.1735 9.02597 15.21 8.66596 15.0641 8.37796C14.9182 8.08996 14.5898 7.87396 14.2615 7.87396H11.2337C10.723 7.87396 10.3218 8.26996 10.3218 8.77397C10.3218 9.27797 10.723 9.67397 11.2337 9.67397Z" fill="black"/>
<path d="M17.6869 6.97347H18.9272L16.9208 9.67348C16.7384 9.96148 16.7019 10.3215 16.8478 10.6095C16.9938 10.8975 17.3221 11.1135 17.6504 11.1135H20.6782C21.1889 11.1135 21.5902 10.7175 21.5902 10.2135C21.5902 9.70948 21.1889 9.31348 20.6782 9.31348H19.4379L21.4442 6.61347C21.6266 6.32547 21.6631 5.96546 21.5172 5.67746C21.3713 5.38946 21.043 5.17346 20.7147 5.17346H17.6869C17.1762 5.17346 16.7749 5.56946 16.7749 6.07346C16.7749 6.57747 17.2126 6.97347 17.6869 6.97347Z" fill="black"/>
<path d="M24.1816 4.3097H25.4219L23.4521 7.00971C23.2697 7.29771 23.2332 7.65771 23.3791 7.94571C23.525 8.23371 23.8533 8.44971 24.1816 8.44971H27.2094C27.7201 8.44971 28.1214 8.05371 28.1214 7.54971C28.1214 7.04571 27.7201 6.64971 27.2094 6.64971H25.9691L27.9755 3.9137C28.1579 3.6257 28.1944 3.2657 28.0485 2.9777C27.9025 2.68969 27.5742 2.47369 27.2459 2.47369H24.2181C23.7074 2.47369 23.3061 2.8697 23.3061 3.3737C23.3061 3.8777 23.7074 4.3097 24.1816 4.3097Z" fill="black"/>
</svg>
