<svg width="17" height="16" viewBox="0 0 17 16" fill="none" xmlns="http://www.w3.org/2000/svg">
<rect width="15.5848" height="15.5848" transform="translate(0.609375 0.0568848)" fill="#5FA4FB"/>
<path d="M6.19096 7.36642C6.74516 7.36642 7.19443 6.91716 7.19443 6.36296C7.19443 5.80876 6.74516 5.3595 6.19096 5.3595C5.63677 5.3595 5.1875 5.80876 5.1875 6.36296C5.1875 6.91716 5.63677 7.36642 6.19096 7.36642Z" fill="white"/>
<path d="M10.5972 7.36642C11.1514 7.36642 11.6007 6.91716 11.6007 6.36296C11.6007 5.80876 11.1514 5.3595 10.5972 5.3595C10.043 5.3595 9.59375 5.80876 9.59375 6.36296C9.59375 6.91716 10.043 7.36642 10.5972 7.36642Z" fill="white"/>
<path d="M9.11626 9.9126H7.66349C7.45381 9.9126 7.28906 10.0773 7.28906 10.287V10.5117C7.28906 11.0509 7.7234 11.4702 8.24759 11.4702H8.5022C9.04138 11.4702 9.46074 11.0359 9.46074 10.5117V10.287C9.49069 10.0773 9.32594 9.9126 9.11626 9.9126Z" fill="white"/>
<path d="M13.809 5.2649L13.8128 5.29025C13.9636 6.28544 14.0692 7.65657 14.0692 8.36988C14.0692 9.82854 12.9948 11.039 11.834 11.9285L11.6143 12.0968L11.5746 11.8229L11.275 9.75608L11.2748 9.75473C11.1512 8.84826 10.3676 8.17278 9.44374 8.17278H7.34696C6.44055 8.17278 5.65372 8.8611 5.51557 9.75677C5.51554 9.75701 5.5155 9.75725 5.51546 9.75748L5.21613 11.8229L5.17546 12.1035L4.95405 11.9264C3.82639 11.0243 2.73643 9.81352 2.73643 8.35491C2.73643 7.64337 2.8268 6.2722 2.99307 5.27399C3.01382 5.13701 2.96144 5.004 2.84822 4.92166L2.84792 4.92144C2.41617 4.60594 2.1673 4.10766 2.1673 3.57723C2.1673 2.66383 2.91395 1.91718 3.82735 1.91718C4.55589 1.91718 5.22068 2.39676 5.42117 3.113C5.47315 3.28783 5.66312 3.40282 5.83582 3.37246C5.83588 3.37245 5.83595 3.37244 5.83602 3.37242L5.86423 3.5323L13.809 5.2649ZM13.809 5.2649L13.8001 5.24708M13.809 5.2649L13.8001 5.24708M13.8001 5.24708C13.8 5.24587 13.7999 5.24425 13.7998 5.2421C13.7997 5.23757 13.7997 5.23261 13.7997 5.2247V5.20973C13.7997 5.09742 13.8495 4.99436 13.946 4.91902C14.3604 4.60366 14.6084 4.10679 14.6084 3.57723C14.6084 2.66383 13.8618 1.91718 12.9484 1.91718C12.2157 1.91718 11.5714 2.415 11.3561 3.10803C11.2912 3.30047 11.1145 3.40312 10.9252 3.37249C10.9245 3.37238 10.9239 3.37227 10.9232 3.37216L13.8001 5.24708ZM10.646 2.58426L10.762 2.60297L10.816 2.49865C11.2231 1.71251 12.0519 1.19347 12.9484 1.19347C14.2666 1.19347 15.3471 2.27402 15.3471 3.5922C15.3471 4.23496 15.082 4.85261 14.5876 5.33291L14.529 5.38977L14.5398 5.47066C14.6739 6.48425 14.763 7.70497 14.763 8.38486C14.763 10.3346 13.2395 11.8947 11.6149 12.9827L11.565 13.0162L11.5489 13.0742C11.4805 13.3204 11.3572 13.5536 11.1782 13.7601L11.1779 13.7605C10.8346 14.1588 10.3254 14.3931 9.78822 14.3931H6.97253C6.43633 14.3931 5.92809 14.1597 5.58475 13.7627C5.41677 13.5522 5.27956 13.3028 5.21189 13.0592L5.19579 13.0012L5.1458 12.9677C3.52126 11.8797 1.99774 10.3196 1.99774 8.36988C1.99774 7.68999 2.08684 6.46928 2.221 5.45568L2.23171 5.3747L2.17307 5.31784C1.71045 4.86923 1.44359 4.23735 1.44359 3.5922C1.44359 2.25966 2.52352 1.19347 3.84233 1.19347C4.73876 1.19347 5.56757 1.71251 5.97468 2.49865L6.02816 2.60193L6.14316 2.5845C6.63072 2.51063 7.13172 2.46652 7.63152 2.46652V2.46659L7.63616 2.46645C8.15728 2.45156 8.70825 2.45157 9.21422 2.46645C9.70597 2.48135 10.192 2.51104 10.646 2.58426ZM5.88322 12.3759L5.88315 12.3759L5.8826 12.3808C5.84803 12.692 5.93441 13.0071 6.14535 13.2532C6.3566 13.4997 6.6716 13.6394 6.98751 13.6394H9.80319C10.1128 13.6394 10.4317 13.5189 10.6471 13.2511C10.8521 13.0109 10.9602 12.6957 10.9072 12.374L10.548 9.84476L10.5481 9.84476L10.5476 9.84174C10.4601 9.29942 9.98836 8.89649 9.44374 8.89649H7.34696C6.79035 8.89649 6.31386 9.29722 6.24253 9.84576C6.24249 9.84611 6.24244 9.84646 6.2424 9.84681L5.88322 12.3759ZM9.20855 3.20527C8.69704 3.19023 8.1557 3.19021 7.64411 3.20521L9.20855 3.20527Z" fill="white" stroke="#5FA4FB" stroke-width="0.324684"/>
</svg>
