<svg width="39" height="38" viewBox="0 0 39 38" fill="none" xmlns="http://www.w3.org/2000/svg">
<path d="M25.3051 4.56671H14.2551C10.3356 4.56671 9.46991 6.51856 8.9662 8.91116L7.1875 17.4269H32.3727L30.594 8.91116C30.0903 6.51856 29.2245 4.56671 25.3051 4.56671Z" stroke="black" stroke-width="1.66667" stroke-linecap="round" stroke-linejoin="round"/>
<path d="M35.5029 31.3094C35.676 33.151 34.1964 34.7408 32.3075 34.7408H29.3482C27.6482 34.7408 27.4121 34.0168 27.113 33.1195L26.7982 32.1751C26.3575 30.8844 26.0741 30.0186 23.8075 30.0186H15.7482C13.4816 30.0186 13.151 30.9945 12.7575 32.1751L12.4427 33.1195C12.1436 34.0168 11.9075 34.7408 10.2075 34.7408H7.24822C5.35933 34.7408 3.8797 33.151 4.05285 31.3094L4.93433 21.7232C5.1547 19.3621 5.61118 17.426 9.73526 17.426H29.8204C33.9445 17.426 34.401 19.3621 34.6214 21.7232L35.5029 31.3094Z" stroke="black" stroke-width="1.66667" stroke-linecap="round" stroke-linejoin="round"/>
<path d="M7.18345 12.7039H5.60938" stroke="black" stroke-width="2.75638" stroke-linecap="round" stroke-linejoin="round"/>
<path d="M33.9413 12.7039H32.3672" stroke="black" stroke-width="2.75638" stroke-linecap="round" stroke-linejoin="round"/>
<path d="M19.7812 4.83429V7.98244" stroke="black" stroke-width="2.75638" stroke-linecap="round" stroke-linejoin="round"/>
<path d="M17.4141 7.98163H22.1363" stroke="black" stroke-width="1.66667" stroke-linecap="round" stroke-linejoin="round"/>
<path d="M10.3281 23.7231H15.0503" stroke="black" stroke-width="2.75638" stroke-linecap="round" stroke-linejoin="round"/>
<path d="M24.5 23.7231H29.2222" stroke="black" stroke-width="2.75638" stroke-linecap="round" stroke-linejoin="round"/>
</svg>
