<svg width="506" height="285" viewBox="0 0 506 285" fill="none" xmlns="http://www.w3.org/2000/svg">
<rect y="0.183594" width="506" height="284" rx="30" fill="white"/>
<g clip-path="url(#clip0_9363_97092)">
<path d="M189.029 125.832C182.545 125.832 175.306 128.33 173.789 136.553C173.627 137.426 174.206 137.843 174.764 137.97L181.411 138.767C182.026 138.736 182.443 138.067 182.562 137.437C183.129 134.608 185.457 133.272 188.057 133.272C189.46 133.272 191.037 133.754 191.867 135.044C192.82 136.482 192.752 138.435 192.752 140.094V141.069C188.802 141.523 183.602 141.798 179.905 143.463C175.638 145.359 172.641 149.218 172.641 154.892C172.641 162.162 177.095 165.791 182.831 165.791C187.674 165.791 190.351 164.654 194.085 160.742C195.324 162.585 195.721 163.421 197.983 165.349C198.234 165.492 198.523 165.552 198.809 165.52C199.095 165.488 199.364 165.367 199.577 165.173V165.261C200.938 164.019 203.413 161.762 204.805 160.566C205.361 160.101 205.239 159.335 204.805 158.706C203.561 156.942 202.237 155.519 202.237 152.238V141.339C202.237 136.723 202.628 132.467 199.313 129.288C196.696 126.717 192.341 125.832 189.029 125.832ZM278.345 125.832C271.857 125.832 264.624 128.33 263.104 136.553C262.943 137.426 263.518 137.843 264.08 137.97L270.726 138.767C271.341 138.736 271.761 138.067 271.877 137.437C272.447 134.608 274.772 133.272 277.372 133.272C278.778 133.272 280.352 133.754 281.183 135.044C282.133 136.482 281.979 138.435 281.979 140.094V141.069C278.03 141.523 272.92 141.798 269.22 143.463C264.95 145.359 261.956 149.218 261.956 154.892C261.956 162.162 266.413 165.791 272.146 165.791C276.983 165.791 279.66 164.654 283.4 160.742C284.636 162.585 285.036 163.421 287.299 165.349C287.809 165.621 288.441 165.593 288.892 165.173V165.261C290.253 164.019 292.729 161.762 294.121 160.566C294.674 160.101 294.546 159.335 294.121 158.706C292.876 156.942 291.552 155.519 291.552 152.238V141.339C291.552 136.723 291.85 132.467 288.541 129.288C285.921 126.717 281.656 125.832 278.345 125.832ZM228.104 126.186C223.913 126.186 220.806 128.302 219.155 132.833H219.068V128.137C219.045 127.815 218.907 127.512 218.679 127.284C218.451 127.056 218.148 126.918 217.826 126.895H211.446C211.095 126.9 210.76 127.042 210.511 127.29C210.263 127.539 210.121 127.874 210.116 128.225V164.11C210.146 164.429 210.287 164.728 210.514 164.954C210.74 165.181 211.039 165.322 211.358 165.352H218.18C218.532 165.348 218.868 165.207 219.116 164.958C219.365 164.71 219.506 164.374 219.51 164.022V144.971C219.51 140.817 219.309 135.135 224.205 135.135C229.04 135.135 228.37 140.973 228.37 144.971V164.022C228.37 164.7 228.923 165.307 229.612 165.352H236.434C236.786 165.348 237.122 165.207 237.371 164.958C237.619 164.71 237.76 164.374 237.764 164.022V144.971C237.764 142.932 237.682 139.964 238.385 138.149C239.085 136.334 240.807 135.138 242.462 135.138C244.436 135.138 245.941 135.827 246.449 138.24C246.767 139.674 246.625 143.465 246.625 144.974V164.025C246.625 164.703 247.178 165.309 247.867 165.355H254.689C255.04 165.351 255.376 165.21 255.625 164.961C255.874 164.713 256.015 164.376 256.019 164.025V141.342C256.019 137.488 256.407 133.113 254.246 130.088C252.338 127.372 249.219 126.189 246.361 126.189C242.352 126.189 238.623 128.305 236.97 132.835C235.059 128.305 232.366 126.186 228.104 126.186ZM344.092 126.186C334.233 126.186 328.764 134.854 328.764 146.034C328.764 157.138 334.174 166.058 344.092 166.058C353.633 166.058 359.687 157.342 359.687 146.386C359.687 135.064 354.203 126.186 344.092 126.186ZM382.988 126.186C378.278 126.186 375.588 128.543 373.685 133.451H373.597V127.956C373.475 127.4 372.951 127.014 372.355 126.98H366.063C365.738 126.973 365.422 127.087 365.177 127.3C364.931 127.512 364.773 127.809 364.734 128.132V164.016C364.74 164.352 364.87 164.674 365.1 164.919C365.329 165.165 365.641 165.317 365.976 165.346H372.71C373.061 165.341 373.396 165.199 373.644 164.951C373.893 164.703 374.034 164.368 374.039 164.016V144.702C374.039 142.28 374.244 140.071 375.191 137.88C375.956 136.142 377.433 135.044 379.089 135.044C383.79 135.044 383.342 140.775 383.342 144.702V164.195C383.386 164.5 383.533 164.781 383.759 164.991C383.985 165.2 384.277 165.326 384.584 165.346H391.406C392.075 165.346 392.657 164.836 392.736 164.195V141.6C392.736 138.126 392.745 133.3 390.964 130.434C389.056 127.34 386.036 126.186 382.988 126.186ZM301.116 126.807C300.424 126.807 299.877 127.357 299.874 128.137V133.275C299.877 134.043 300.407 134.599 301.116 134.605H312.812L299.431 154.365C298.615 155.638 298.547 157.081 298.547 157.909V163.137C298.547 163.892 299.366 164.711 300.14 164.289C307.765 160.126 316.903 160.495 323.799 164.201C324.635 164.657 325.483 163.801 325.483 163.05V157.555C325.464 157.149 325.339 156.756 325.121 156.414C324.903 156.072 324.6 155.793 324.241 155.604C320.328 153.352 315.786 152.663 311.482 152.768L323.09 135.756C324.165 134.228 324.766 133.306 324.774 132.566V128.137C324.774 127.374 324.253 126.807 323.532 126.807H301.116ZM344.092 133.541C346.252 133.541 347.846 134.506 348.611 136.998C349.496 139.87 349.587 143.457 349.587 146.479C349.587 151.084 349.371 158.706 344.092 158.706C338.753 158.706 338.775 149.269 338.775 144.883C338.775 140.508 339.068 133.541 344.092 133.541ZM192.661 146.655V148.161C192.661 150.886 192.761 153.18 191.42 155.604C190.336 157.574 188.635 158.794 186.724 158.794C184.116 158.794 182.559 156.678 182.559 153.656C182.562 147.696 187.739 146.655 192.661 146.655ZM281.977 146.655V148.161C281.977 150.886 282.076 153.18 280.735 155.604C279.652 157.574 277.959 158.794 276.039 158.794C273.428 158.794 271.874 156.678 271.874 153.656C271.877 147.696 277.049 146.655 281.977 146.655Z" fill="#201C1D"/>
<path d="M326.194 166.504V171.642H329.65V166.504H326.194ZM225.979 167.389V203.982H229.169V200.705C229.85 202.003 230.624 202.976 231.562 203.628C232.498 204.28 233.573 204.603 234.752 204.603C237.094 204.603 239.116 203.407 240.865 200.971C242.615 198.535 243.525 195.005 243.525 190.514C243.525 187.574 243.148 185.138 242.374 183.071C241.6 181.01 240.565 179.476 239.272 178.464C237.979 177.451 236.51 176.87 234.931 176.87C233.833 176.859 232.755 177.166 231.829 177.755C230.907 178.345 230.162 179.306 229.436 180.502V167.389H225.979ZM258.765 175.986C256.361 175.986 254.453 176.697 253.094 178.112C251.736 179.524 251.056 181.347 251.056 183.607C251.056 184.92 251.351 186.028 251.853 187.063C252.354 188.098 253.077 188.929 253.979 189.544C254.886 190.16 256.695 190.968 259.383 191.847C261.243 192.445 262.355 192.955 262.84 193.352C263.543 193.934 263.903 194.696 263.903 195.745C263.903 196.959 263.483 197.971 262.661 198.757C261.842 199.548 260.702 199.908 259.205 199.908C257.708 199.908 256.474 199.488 255.573 198.578C254.671 197.668 254.183 196.284 253.979 194.413L250.523 195.122C251.302 200.807 254.138 203.631 259.029 203.628C261.638 203.628 263.634 202.888 265.142 201.326C266.651 199.763 267.444 197.654 267.444 195.122C267.444 193.755 267.203 192.57 266.736 191.577C266.268 190.585 265.624 189.851 264.785 189.275C263.943 188.702 262.066 187.937 259.202 186.973C257.121 186.244 255.902 185.711 255.482 185.379C254.776 184.818 254.419 184.052 254.419 183.077C254.419 182.079 254.747 181.234 255.482 180.596C256.216 179.958 257.348 179.62 258.85 179.62C261.493 179.62 262.97 181.072 263.279 183.961L266.648 183.428C266.415 181.6 266.015 180.156 265.406 179.175C264.796 178.194 263.895 177.366 262.746 176.782C261.601 176.201 260.282 175.986 258.765 175.986ZM279.943 175.986C277.173 175.986 274.836 177.125 273.03 179.53C271.224 181.934 270.371 185.416 270.371 189.987C270.371 194.39 271.241 197.841 273.03 200.177C274.819 202.511 277.139 203.634 280.031 203.634C282.33 203.634 284.236 202.945 285.79 201.507C287.346 200.069 288.475 197.954 289.067 195.127L285.523 194.506C284.505 198.127 282.628 199.905 280.028 199.911C278.372 199.911 277.02 199.207 275.863 197.696C274.706 196.182 274.051 193.936 273.912 190.962H289.152V189.72C289.152 185.249 288.262 181.892 286.493 179.53C284.729 177.168 282.583 175.986 279.943 175.986ZM300.942 175.986C300.114 175.986 299.391 176.266 298.727 176.87C298.064 177.474 297.31 178.727 296.513 180.59V176.513H293.411V203.007H296.867V189.187C296.867 187.259 297.049 185.405 297.488 183.692C297.738 182.711 298.209 181.937 298.818 181.39C299.428 180.843 300.122 180.593 300.857 180.593C301.671 180.593 302.479 180.919 303.338 181.568L304.489 177.403C303.281 176.439 302.099 175.986 300.942 175.986ZM343.294 175.986C340.558 175.986 338.304 177.137 336.56 179.442C334.822 181.744 333.901 185.203 333.901 189.808C333.901 194.376 334.831 197.838 336.56 200.174C338.287 202.508 340.448 203.631 343.116 203.631C345.319 203.631 347.213 202.811 348.787 201.15C350.36 199.488 351.319 197.044 351.71 193.885L348.341 193.352C348.092 195.612 347.502 197.237 346.569 198.314C345.636 199.386 344.514 199.908 343.201 199.908C341.528 199.908 340.105 199.128 339.036 197.515C337.967 195.901 337.442 193.321 337.442 189.717C337.442 186.224 338.006 183.703 339.126 182.096C340.246 180.488 341.672 179.615 343.379 179.615C344.519 179.615 345.492 180.057 346.303 180.945C347.119 181.829 347.661 183.236 347.987 185.022L351.355 184.313C350.95 181.523 350.054 179.416 348.608 178.021C347.162 176.623 345.407 175.986 343.294 175.986ZM363.054 175.986C360.284 175.986 357.948 177.125 356.142 179.53C354.335 181.934 353.482 185.416 353.482 189.987C353.482 194.39 354.352 197.841 356.142 200.177C357.934 202.511 360.25 203.634 363.142 203.634C365.436 203.634 367.344 202.945 368.901 201.507C370.455 200.069 371.583 197.954 372.179 195.127L368.634 194.506C367.616 198.127 365.822 199.905 363.23 199.911C361.574 199.911 360.134 199.207 358.977 197.696C357.82 196.182 357.168 193.936 357.026 190.962H372.267V189.72C372.267 185.249 371.376 181.892 369.607 179.53C367.849 177.168 365.697 175.986 363.054 175.986ZM383.523 175.986C381.113 175.986 379.21 176.697 377.852 178.112C376.491 179.524 375.814 181.347 375.814 183.607C375.814 184.92 376.021 186.028 376.522 187.063C377.021 188.096 377.742 188.929 378.649 189.544C379.551 190.16 381.368 190.968 384.053 191.847C385.908 192.445 387.113 192.955 387.598 193.352C388.301 193.934 388.661 194.696 388.661 195.745C388.661 196.959 388.241 197.971 387.419 198.757C386.602 199.548 385.46 199.908 383.963 199.908C382.463 199.908 381.232 199.488 380.33 198.578C379.429 197.668 378.847 196.284 378.646 194.413L375.19 195.122C375.97 200.807 378.799 203.631 383.696 203.628C386.307 203.628 388.389 202.888 389.9 201.326C391.411 199.763 392.202 197.654 392.202 195.122C392.202 193.755 391.961 192.57 391.493 191.577C391.026 190.585 390.297 189.851 389.455 189.275C388.615 188.702 386.823 187.937 383.96 186.973C381.879 186.244 380.571 185.711 380.149 185.379C379.443 184.818 379.086 184.052 379.086 183.077C379.086 182.079 379.502 181.234 380.237 180.596C380.971 179.958 382.108 179.62 383.605 179.62C386.248 179.62 387.725 181.072 388.034 183.961L391.403 183.428C391.167 181.6 390.773 180.156 390.161 179.175C389.51 178.149 388.59 177.321 387.501 176.782C386.364 176.201 385.037 175.986 383.523 175.986ZM304.486 176.516L312.196 203.01H315.473L323.183 176.516H319.639L315.119 192.731C314.572 194.691 314.09 196.383 313.789 197.781C313.412 196.02 313.052 194.172 312.547 192.377L308.118 176.516H304.486ZM326.194 176.516V203.01H329.65V176.516H326.194ZM212.602 176.87C209.86 176.87 207.654 178.101 205.868 180.502C204.079 182.907 203.12 186.389 203.12 190.959C203.12 195.363 204.005 198.725 205.78 201.059C207.555 203.393 209.917 204.603 212.781 204.603C215.055 204.603 216.912 203.826 218.451 202.389C219.988 200.951 221.052 198.836 221.641 196.009L218.185 195.476C217.178 199.097 215.35 200.875 212.781 200.88C211.139 200.88 209.761 200.177 208.615 198.666C207.47 197.152 206.804 194.906 206.665 191.932H221.726L221.814 190.69C221.814 186.218 220.907 182.773 219.155 180.412C217.402 178.05 215.213 176.87 212.602 176.87ZM173.703 177.491L179.907 203.985H183.539L187.616 183.604L188.325 188.124L191.603 203.985H195.147L201.439 177.491H198.161L194.705 192.819L193.554 197.957L192.491 192.819L189.479 177.491H185.935L182.745 192.998L181.682 198.493L180.44 192.822L177.25 177.494L173.703 177.491ZM394.244 177.758V179H397.612V187.86H398.942V179H402.31V177.758H394.244ZM403.637 177.758V187.857H404.879V179.263L407.803 187.857H409.045L411.968 179.439V187.857H413.298V177.758H411.438L409.045 184.846C408.804 185.555 408.631 186.068 408.512 186.44L407.978 184.934L405.585 177.758H403.637ZM279.852 179.618C281.573 179.618 282.991 180.451 284.105 182.099C284.871 183.227 285.367 184.945 285.523 187.236H274.093C274.201 184.911 274.859 183.117 275.953 181.741C277.048 180.366 278.307 179.618 279.852 179.618ZM362.966 179.618C364.682 179.618 366.105 180.451 367.219 182.099C367.985 183.227 368.481 184.945 368.637 187.236H357.208C357.315 184.911 357.973 183.117 359.068 181.741C360.159 180.372 361.418 179.618 362.966 179.618ZM212.602 180.593C214.303 180.593 215.67 181.427 216.767 183.074C217.524 184.203 218.029 185.921 218.185 188.212H206.931C207.039 185.887 207.615 184.004 208.703 182.629C209.784 181.257 211.068 180.593 212.602 180.593ZM234.576 180.593C236.113 180.593 237.42 181.446 238.475 183.074C239.53 184.704 239.981 187.217 239.981 190.696C239.981 194.084 239.482 196.61 238.387 198.317C237.293 200.024 235.988 200.886 234.576 200.886C233.539 200.886 232.594 200.537 231.741 199.823C230.885 199.108 230.258 198.085 229.79 196.721C229.322 195.357 229.081 193.259 229.081 190.517C229.081 187.287 229.657 184.869 230.766 183.162C231.874 181.455 233.164 180.593 234.576 180.593Z" fill="black"/>
<path d="M124.043 152.502L110.842 158.173L123.068 163.401L137.245 158.173L124.043 152.502ZM104.196 159.591L103.753 185.109L123.068 193.615V167.121L104.196 159.591ZM143.891 159.591L126.436 166.237V191.222L143.891 184.134V159.591ZM164.714 80.1992L151.422 85.87L163.739 91.0985L177.916 85.87L164.714 80.1992ZM146.284 87.7329V113.252L162.764 118.038L163.297 94.8214L146.284 87.7329ZM183.145 89.1506L167.55 95.7968V120.873L183.145 113.785V89.1506ZM102.29 116.115L89.0885 121.786L101.315 127.015L115.492 121.786L102.29 116.115ZM82.4423 123.204L82 148.722L101.315 157.229V130.735L82.4423 123.204ZM122.138 123.204L104.683 129.85V154.836L122.138 147.747V123.204ZM144.821 115.174L131.62 120.845L143.846 126.073L158.023 120.845L144.821 115.174ZM124.973 122.262L124.531 147.781L143.846 156.287V129.796L124.973 122.262ZM164.669 122.262L147.214 128.909V153.894L164.669 146.806V122.262ZM206.256 80.1992L193.054 85.87L205.281 91.0985L219.458 85.87L206.256 80.1992ZM186.408 87.2877L185.966 112.806L205.281 121.313V94.8214L186.408 87.2877ZM226.104 87.2877L208.649 93.9339V118.92L226.104 111.831V87.2877Z" fill="#F7A80D"/>
</g>
<defs>
<clipPath id="clip0_9363_97092">
<rect width="331.3" height="124.436" fill="white" transform="translate(82 80.1836)"/>
</clipPath>
</defs>
</svg>
