<svg width="301" height="85" viewBox="0 0 301 85" fill="none" xmlns="http://www.w3.org/2000/svg">
<rect x="0.65625" y="0.586914" width="144" height="84" rx="20" fill="white"/>
<g clip-path="url(#clip0_9363_97775)">
<path d="M16.8975 34.1591C15.6376 34.4135 14.2964 35.4234 13.723 36.5272C13.1497 37.6309 13.1406 37.9012 13.1406 42.5435L13.2447 47.3838C13.6145 49.2724 15.0914 50.7505 16.9811 51.1203C17.5534 51.2243 25.006 51.2763 25.006 51.1621C25.006 51.0784 24.3727 48.5814 24.3275 48.561C24.3161 48.5407 22.9953 48.2489 21.3928 47.9051C17.6563 47.0931 17.7705 47.1135 17.4573 46.7493L17.1858 46.427V38.8704L17.4573 38.5311C17.7694 38.1579 17.6552 38.1873 21.3928 37.3753L24.3275 36.7194C24.3591 36.6878 25.006 34.1907 25.006 34.1184C25.006 34.02 17.3973 34.0663 16.8975 34.1704V34.1591ZM28.9607 34.1749C28.972 34.3626 29.5545 36.6629 29.6167 36.7149C29.637 36.7466 31.0642 37.0689 32.7832 37.433L36.1453 38.245C36.3286 38.3515 36.4825 38.5019 36.5932 38.6827C36.7594 38.9744 36.7809 39.2866 36.7809 42.6374L36.5932 46.5921C36.4797 46.7707 36.3264 46.9205 36.1453 47.0298C36.0096 47.1022 34.501 47.4675 32.7832 47.8418L29.6167 48.5599C29.3586 49.3959 29.1397 50.2435 28.9607 51.0999C28.9607 51.213 29.7105 51.2356 32.998 51.2039C37.5363 51.1621 37.5895 51.1519 38.743 50.3716C39.573 49.8005 40.2 48.9803 40.5332 48.0295C40.7729 47.3318 40.7729 47.2696 40.7729 42.6385L40.5332 37.2442C40.2 36.2934 39.573 35.4731 38.743 34.9021C37.5872 34.1104 37.5352 34.1104 32.998 34.0697C29.7094 34.0381 28.9607 34.0539 28.9607 34.1738V34.1749ZM48.3296 37.7146C47.6115 39.213 46.8934 41.0655 46.1549 43.3125L44.6768 48.3812C44.9539 48.4084 45.2422 48.4185 45.5091 48.4129H46.3313L46.4444 47.9651L46.8515 46.5401L47.132 45.5517H52.8464L53.1382 46.5921L53.534 48.0171L53.638 48.4129H54.4602L55.2925 48.3812C55.2925 48.3609 55.0844 47.5896 54.8243 46.6532C53.8778 43.2289 52.67 39.8678 51.6499 37.744L51.1071 36.6516H48.8385L48.3296 37.7146ZM50.7949 39.7955L52.273 43.792C52.273 43.8124 51.2552 43.8339 49.983 43.8339C48.7107 43.8339 47.6929 43.792 47.6929 43.7502C47.6929 43.5738 48.7446 40.7737 49.2535 39.5659C49.6493 38.6386 49.8473 38.3061 49.9818 38.3061C50.1164 38.3061 50.3256 38.6906 50.7938 39.7842L50.7949 39.7955ZM56.3318 42.5322V48.4129H57.9976V36.6516H56.3318V42.5322ZM60.0785 36.7873C59.8833 36.9181 59.7255 37.0974 59.6205 37.3075C59.4542 37.6615 59.444 37.7451 59.5786 38.0991C59.7596 38.6216 60.3205 38.9066 60.8486 38.7437C61.3688 38.5775 61.5871 38.2755 61.5871 37.7338C61.5871 37.338 61.5351 37.2249 61.2433 36.9648C60.8791 36.6425 60.5048 36.5803 60.0785 36.7986V36.7873ZM63.098 42.5119V48.3925L64.3781 48.4864L66.7926 48.5803C67.8443 48.5803 67.9891 48.5599 68.541 48.2783C69.1912 47.9843 69.6786 47.4154 69.8732 46.729C69.9354 46.4802 69.967 45.3764 69.9455 43.8678C69.9139 41.5472 69.9037 41.3798 69.6854 40.9637C69.2783 40.2139 68.6654 39.8497 67.5311 39.6937C66.9272 39.61 65.4276 39.6937 64.9707 39.8407C64.7728 39.9029 64.7626 39.8611 64.7626 38.2914V36.6561H63.0968L63.098 42.5119ZM67.833 41.3878C68.0365 41.4617 68.204 41.6105 68.3012 41.8039C68.4369 42.1579 68.4369 46.0301 68.3012 46.3728C68.1452 46.7991 67.6227 46.997 66.6354 46.997C66.176 47.0021 65.7168 46.9741 65.2614 46.9133L64.7615 46.8409V41.4601L65.3654 41.3561C66.2927 41.2 67.4259 41.2091 67.8308 41.3878H67.833ZM79.6464 42.522V48.4027L80.6664 48.4547L82.7891 48.5904C84.2141 48.6741 85.1097 48.4434 85.6933 47.8305C86.4431 47.0615 86.4623 46.9665 86.4849 44.3439C86.5166 42.4395 86.4962 41.856 86.3718 41.4296C86.0913 40.4514 85.2794 39.8373 84.0399 39.6914C83.4156 39.619 81.7815 39.7027 81.4479 39.8384C81.3438 39.8701 81.3122 39.5161 81.3122 38.2778V36.664H79.6464V42.522ZM84.3192 41.3403C84.4957 41.4025 84.6924 41.5382 84.7456 41.6422C84.8587 41.8503 84.8926 46.1997 84.7874 46.4824C84.611 46.9405 83.2042 47.1384 81.8109 46.9088L81.3111 46.8364V41.4624L81.9149 41.3584C82.7473 41.2227 83.9234 41.2113 84.3192 41.3425V41.3403ZM100.857 36.7556C99.817 36.9433 99.2742 37.1933 98.7449 37.7338C97.9126 38.5662 97.8606 38.8681 97.8606 42.6363C97.8606 46.4044 97.9126 46.7052 98.7653 47.5489C99.203 47.9967 99.4438 48.1313 100.066 48.3405C100.744 48.5486 101.054 48.5803 102.45 48.5803C103.658 48.5803 104.282 48.5282 104.906 48.3824C105.238 48.3162 105.565 48.2259 105.884 48.1121C105.968 48.0601 105.957 47.8723 105.832 47.3736C105.774 47.121 105.693 46.874 105.593 46.6351C105.551 46.5933 105.291 46.6238 105.02 46.7075C104.093 46.988 102.47 47.1033 101.46 46.9789C100.45 46.8545 100.076 46.6871 99.7639 46.2812C99.5558 46.0097 99.5456 45.8966 99.5456 42.6487C99.5456 39.4008 99.5569 39.2866 99.7639 39.0163C100.086 38.6092 100.45 38.4542 101.46 38.3185C102.47 38.1828 104.093 38.3072 105.02 38.5899L105.582 38.746C105.666 38.746 106.03 37.2984 105.967 37.2374C105.935 37.2057 105.551 37.0904 105.093 36.966C104.188 36.7262 101.731 36.612 100.867 36.7681L100.857 36.7556ZM107.435 42.5322V48.4129H108.995V36.6516H107.435V42.5322ZM131.07 38.2122V39.7728L130.477 39.7106L129.644 39.6066C129.29 39.5444 127.979 39.7536 127.604 39.9402C127.12 40.1977 126.722 40.5922 126.46 41.0745C126.252 41.459 126.231 41.6784 126.2 43.7887C126.158 46.6295 126.242 47.0456 126.991 47.7852C127.668 48.4412 128.469 48.6594 129.832 48.5769L131.768 48.4638L132.726 48.4016V36.6629H131.061L131.07 38.2122ZM130.894 41.3866C131.06 41.459 131.07 41.6886 131.07 44.1551V46.8398L130.686 46.9122C130.007 47.0479 128.75 47.0162 128.386 46.8602C128.198 46.7765 128.001 46.6317 127.948 46.5266C127.895 46.4214 127.844 45.3188 127.844 44.0702C127.844 41.5823 127.864 41.5099 128.416 41.3335C128.75 41.2294 130.581 41.2713 130.904 41.3855L130.894 41.3866ZM73.829 39.6756C73.3634 39.7379 72.9013 39.8247 72.4448 39.9357C71.8828 40.0714 71.7471 40.1438 71.7889 40.2795C71.8206 40.3733 71.8929 40.6753 71.9653 40.9659C72.0377 41.2566 72.1123 41.5178 72.1531 41.5483C72.1938 41.5789 72.6427 41.528 73.1528 41.4353C74.891 41.0711 76.0671 41.2374 76.2333 41.8616C76.2858 42.1395 76.3138 42.4214 76.317 42.7041L76.3283 43.2865L75.3399 43.2345C72.6959 43.0988 71.1036 44.0883 71.0832 45.8672C71.0719 46.7098 71.3433 47.3657 71.9054 47.8859C72.5613 48.4898 73.2579 48.6775 74.6014 48.5837L76.7762 48.4706L77.9003 48.3982L77.8381 41.4036L77.5463 40.9139C76.9639 39.93 75.5785 39.472 73.8302 39.6959L73.829 39.6756ZM76.2537 44.9422C76.3577 45.0044 76.3475 46.8466 76.2424 46.8466C76.1903 46.8466 75.66 46.8986 75.0549 46.9597C73.3167 47.1259 72.6823 46.8658 72.6823 45.9713C72.6823 45.5868 72.7343 45.4714 72.9944 45.243C73.2206 45.0677 73.5124 44.9569 73.8064 44.9207L74.451 44.8166C74.6388 44.7748 76.1474 44.8732 76.2514 44.9467L76.2537 44.9422ZM90.4295 39.6609L89.0452 39.9323C88.3475 40.0985 88.2853 40.1404 88.3373 40.3394L88.525 41.1084C88.6381 41.6286 88.6607 41.6603 88.9095 41.5981C90.3039 41.234 91.6463 41.1299 92.1891 41.3267C92.6788 41.5144 92.7829 41.7225 92.7829 42.5141V43.2639H91.4914C89.8572 43.2639 89.1075 43.472 88.3893 44.1177C88.0914 44.3693 87.8617 44.692 87.7215 45.0559C87.5814 45.4199 87.5353 45.8133 87.5875 46.1997C87.7639 47.8961 88.9717 48.7182 91.1363 48.5837L93.311 48.4706L94.4351 48.3982L94.4034 44.9535C94.3718 41.6433 94.3616 41.4873 94.1433 41.0813C93.5496 39.9674 92.2072 39.4675 90.417 39.6767L90.4295 39.6609ZM92.49 44.863H92.7704V46.8308L92.1767 46.9031C91.0322 47.0502 89.9183 47.0162 89.6265 46.8195C89.0441 46.435 89.0645 45.4251 89.6582 45.1231C90.0653 44.915 91.0322 44.7691 91.6768 44.8313L92.4888 44.8732L92.49 44.863ZM112.661 39.6586C112.029 39.7961 111.461 40.1403 111.047 40.6368C110.515 41.3346 110.464 41.6773 110.464 44.1766C110.464 46.7369 110.537 47.0377 111.224 47.757C111.903 48.4547 112.224 48.5486 113.795 48.5486C115.409 48.5486 115.774 48.4355 116.439 47.6439C117.072 46.8941 117.147 46.5198 117.117 43.887C117.086 41.7429 117.065 41.5348 116.857 41.139C116.549 40.5711 116.073 40.1127 115.494 39.8271C114.962 39.5874 113.401 39.4833 112.673 39.6394L112.661 39.6586ZM114.951 41.3866C115.482 41.658 115.565 42.0312 115.565 44.0827C115.565 46.0278 115.492 46.3931 115.045 46.7889C114.722 47.0807 113.254 47.1531 112.724 46.893C112.1 46.6012 112.026 46.2992 112.026 44.0827C112.026 41.96 112.088 41.6784 112.63 41.3866C113.026 41.1684 114.535 41.1684 114.951 41.3866ZM59.7777 44.0827V48.4027H61.3383V39.7627H59.7777V44.0827ZM118.415 39.8984C118.383 39.9821 118.373 41.5427 118.394 43.3646C118.426 46.3614 118.446 46.7154 118.623 47.049C119.237 48.2048 120.277 48.6832 121.974 48.569L124.932 48.3914V39.774H123.349V46.8421L122.859 46.9145C121.954 47.0615 120.829 47.0083 120.465 46.8206L120.101 46.6125C120.089 46.6012 120.049 45.0722 120.017 43.2198L119.965 39.8271L119.205 39.7955C118.633 39.7751 118.436 39.7955 118.393 39.9086L118.415 39.8984ZM24.3161 42.4169C24.2822 42.5282 24.2753 42.6461 24.2958 42.7607C24.3275 42.9371 24.514 42.9484 26.9602 42.9789L29.5839 42.9993V42.271H26.9828C24.8081 42.271 24.3591 42.2913 24.3184 42.418L24.3161 42.4169Z" fill="black"/>
</g>
<rect x="156.656" y="0.586914" width="144" height="84" rx="20" fill="white"/>
<g clip-path="url(#clip1_9363_97775)">
<path d="M208.034 36.8026C205.73 36.8026 203.158 37.6902 202.619 40.6119C202.562 40.9222 202.767 41.0703 202.966 41.1157L205.327 41.3988C205.546 41.3877 205.694 41.1499 205.736 40.9263C205.938 39.9208 206.765 39.4463 207.689 39.4463C208.187 39.4463 208.748 39.6175 209.043 40.0759C209.381 40.5867 209.357 41.2809 209.357 41.8703V42.2168C207.954 42.378 206.106 42.4758 204.792 43.0672C203.276 43.7412 202.211 45.1124 202.211 47.1283C202.211 49.7115 203.794 51.0011 205.832 51.0011C207.553 51.0011 208.504 50.5971 209.831 49.2068C210.271 49.8617 210.412 50.1589 211.216 50.844C211.305 50.8947 211.407 50.9159 211.509 50.9047C211.611 50.8935 211.706 50.8503 211.782 50.7815V50.8127C212.266 50.3714 213.145 49.5695 213.64 49.1443C213.837 48.9791 213.794 48.7071 213.64 48.4834C213.198 47.8568 212.727 47.351 212.727 46.1853V42.3126C212.727 40.6724 212.866 39.1601 211.688 38.0307C210.758 37.1169 209.211 36.8026 208.034 36.8026ZM239.77 36.8026C237.465 36.8026 234.895 37.6902 234.355 40.6119C234.297 40.9222 234.502 41.0703 234.701 41.1157L237.063 41.3988C237.282 41.3877 237.431 41.1499 237.472 40.9263C237.674 39.9208 238.501 39.4463 239.424 39.4463C239.924 39.4463 240.483 39.6175 240.779 40.0759C241.116 40.5867 241.062 41.2809 241.062 41.8703V42.2168C239.658 42.378 237.843 42.4758 236.528 43.0672C235.011 43.7412 233.947 45.1124 233.947 47.1283C233.947 49.7115 235.531 51.0011 237.568 51.0011C239.286 51.0011 240.238 50.5971 241.566 49.2068C242.006 49.8617 242.148 50.1589 242.952 50.844C243.133 50.9407 243.358 50.9306 243.518 50.7815V50.8127C244.001 50.3714 244.881 49.5695 245.376 49.1443C245.572 48.9791 245.527 48.7071 245.376 48.4834C244.933 47.8568 244.463 47.351 244.463 46.1853V42.3126C244.463 40.6724 244.569 39.1601 243.393 38.0307C242.462 37.1169 240.947 36.8026 239.77 36.8026ZM221.918 36.9285C220.429 36.9285 219.325 37.6801 218.739 39.2901H218.708V37.6217C218.7 37.5073 218.65 37.3996 218.569 37.3185C218.488 37.2375 218.381 37.1884 218.266 37.1804H215.999C215.875 37.1822 215.756 37.2326 215.667 37.3208C215.579 37.4091 215.529 37.5282 215.527 37.6529V50.4037C215.538 50.5171 215.588 50.6232 215.668 50.7037C215.749 50.7843 215.855 50.8342 215.968 50.845H218.392C218.517 50.8437 218.637 50.7934 218.725 50.7051C218.813 50.6168 218.863 50.4974 218.865 50.3724V43.6031C218.865 42.1272 218.793 40.1082 220.533 40.1082C222.251 40.1082 222.013 42.1826 222.013 43.6031V50.3724C222.013 50.6132 222.21 50.8288 222.454 50.845H224.878C225.003 50.8437 225.123 50.7934 225.211 50.7051C225.299 50.6168 225.35 50.4974 225.351 50.3724V43.6031C225.351 42.8788 225.322 41.8239 225.572 41.1791C225.82 40.5343 226.432 40.1092 227.02 40.1092C227.722 40.1092 228.256 40.354 228.437 41.2114C228.55 41.7212 228.499 43.0682 228.499 43.6042V50.3735C228.499 50.6142 228.696 50.8298 228.941 50.846H231.365C231.489 50.8447 231.609 50.7945 231.697 50.7061C231.786 50.6178 231.836 50.4984 231.837 50.3735V42.3136C231.837 40.9444 231.975 39.3898 231.207 38.3148C230.529 37.3497 229.421 36.9296 228.406 36.9296C226.981 36.9296 225.656 37.6811 225.069 39.2911C224.39 37.6811 223.433 36.9285 221.918 36.9285ZM263.132 36.9285C259.629 36.9285 257.685 40.0084 257.685 43.981C257.685 47.9263 259.607 51.0958 263.132 51.0958C266.522 51.0958 268.673 47.9988 268.673 44.1059C268.673 40.083 266.724 36.9285 263.132 36.9285ZM276.952 36.9285C275.279 36.9285 274.323 37.7658 273.647 39.5097H273.616V37.5572C273.572 37.3598 273.386 37.2227 273.174 37.2106H270.939C270.823 37.208 270.711 37.2485 270.624 37.3241C270.536 37.3997 270.48 37.505 270.466 37.6197V50.3704C270.468 50.4898 270.515 50.604 270.596 50.6913C270.678 50.7785 270.789 50.8325 270.907 50.8429H273.3C273.425 50.8411 273.544 50.7908 273.632 50.7025C273.721 50.6143 273.771 50.4952 273.773 50.3704V43.5074C273.773 42.647 273.845 41.8622 274.182 41.0834C274.454 40.4658 274.979 40.0759 275.567 40.0759C277.237 40.0759 277.078 42.1121 277.078 43.5074V50.4339C277.094 50.5424 277.146 50.6422 277.226 50.7167C277.307 50.7911 277.41 50.8357 277.52 50.8429H279.944C280.181 50.8429 280.388 50.6616 280.416 50.4339V42.4052C280.416 41.1711 280.419 39.4563 279.786 38.4378C279.108 37.3386 278.035 36.9285 276.952 36.9285ZM247.861 37.1492C247.615 37.1492 247.421 37.3446 247.42 37.6217V39.4473C247.421 39.7203 247.609 39.9178 247.861 39.9198H252.017L247.263 46.9409C246.973 47.3933 246.948 47.9061 246.948 48.2003V50.0581C246.948 50.3261 247.24 50.6173 247.515 50.4672C250.224 48.9882 253.471 49.1191 255.921 50.4359C256.218 50.5981 256.519 50.2939 256.519 50.0269V48.0744C256.513 47.9304 256.468 47.7908 256.391 47.6692C256.313 47.5476 256.206 47.4484 256.078 47.3812C254.688 46.5813 253.074 46.3365 251.545 46.3737L255.669 40.3288C256.051 39.7858 256.265 39.4583 256.268 39.1954V37.6217C256.268 37.3507 256.082 37.1492 255.826 37.1492H247.861ZM263.132 39.542C263.899 39.542 264.466 39.8845 264.738 40.7701C265.052 41.7907 265.084 43.0651 265.084 44.1391C265.084 45.7753 265.008 48.4834 263.132 48.4834C261.235 48.4834 261.243 45.1305 261.243 43.5719C261.243 42.0174 261.346 39.542 263.132 39.542ZM209.325 44.2016V44.7366C209.325 45.7048 209.36 46.5198 208.884 47.3812C208.499 48.0814 207.894 48.5146 207.215 48.5146C206.288 48.5146 205.735 47.7631 205.735 46.6891C205.736 44.5713 207.576 44.2016 209.325 44.2016ZM241.061 44.2016V44.7366C241.061 45.7048 241.096 46.5198 240.619 47.3812C240.234 48.0814 239.633 48.5146 238.951 48.5146C238.023 48.5146 237.471 47.7631 237.471 46.6891C237.472 44.5713 239.31 44.2016 241.061 44.2016Z" fill="#201C1D"/>
<path d="M256.77 51.2563V53.0819H257.998V51.2563H256.77ZM221.161 51.5707V64.5733H222.294V63.4087C222.536 63.8701 222.811 64.2156 223.145 64.4474C223.477 64.6791 223.859 64.7939 224.278 64.7939C225.11 64.7939 225.829 64.3688 226.45 63.5034C227.072 62.6379 227.395 61.3836 227.395 59.7877C227.395 58.743 227.261 57.8775 226.986 57.1431C226.711 56.4106 226.343 55.8656 225.884 55.5059C225.425 55.1463 224.903 54.9397 224.342 54.9397C223.952 54.9356 223.569 55.0448 223.239 55.2541C222.912 55.4636 222.647 55.8052 222.389 56.2303V51.5707H221.161ZM232.811 54.6254C231.956 54.6254 231.278 54.8783 230.796 55.381C230.313 55.8827 230.071 56.5305 230.071 57.3335C230.071 57.8 230.176 58.1939 230.354 58.5616C230.533 58.9294 230.79 59.2246 231.11 59.4432C231.432 59.6618 232.075 59.9489 233.03 60.2613C233.691 60.4738 234.086 60.6552 234.258 60.7962C234.508 61.0028 234.636 61.2738 234.636 61.6466C234.636 62.0778 234.487 62.4374 234.195 62.7165C233.904 62.9976 233.499 63.1255 232.967 63.1255C232.435 63.1255 231.996 62.9764 231.676 62.653C231.356 62.3296 231.182 61.838 231.11 61.173L229.882 61.4249C230.159 63.4449 231.166 64.4484 232.904 64.4474C233.831 64.4474 234.54 64.1844 235.076 63.6293C235.612 63.0742 235.894 62.3246 235.894 61.4249C235.894 60.9393 235.809 60.5182 235.643 60.1656C235.476 59.8129 235.248 59.552 234.949 59.3475C234.65 59.144 233.983 58.8719 232.966 58.5294C232.226 58.2705 231.793 58.0811 231.644 57.9632C231.393 57.7637 231.266 57.4917 231.266 57.1451C231.266 56.7905 231.383 56.4902 231.644 56.2636C231.905 56.0369 232.307 55.917 232.841 55.917C233.78 55.917 234.305 56.4328 234.414 57.4594L235.611 57.27C235.529 56.6202 235.387 56.1074 235.17 55.7588C234.953 55.4102 234.633 55.116 234.225 54.9085C233.818 54.702 233.35 54.6254 232.811 54.6254ZM240.335 54.6254C239.351 54.6254 238.521 55.0304 237.879 55.8847C237.237 56.7391 236.934 57.9763 236.934 59.6004C236.934 61.165 237.243 62.3911 237.879 63.2213C238.515 64.0504 239.339 64.4494 240.367 64.4494C241.184 64.4494 241.861 64.2046 242.413 63.6938C242.966 63.183 243.367 62.4314 243.578 61.4269L242.318 61.2063C241.956 62.4928 241.29 63.1245 240.366 63.1266C239.777 63.1266 239.297 62.8767 238.886 62.3397C238.475 61.8017 238.242 61.0038 238.193 59.9469H243.608V59.5056C243.608 57.9168 243.291 56.724 242.663 55.8847C242.036 55.0455 241.273 54.6254 240.335 54.6254ZM247.797 54.6254C247.503 54.6254 247.246 54.7251 247.01 54.9397C246.774 55.1543 246.506 55.5996 246.223 56.2615V54.8128H245.121V64.2267H246.349V59.3162C246.349 58.6311 246.414 57.9723 246.57 57.3637C246.658 57.0151 246.826 56.7401 247.042 56.5457C247.259 56.3512 247.506 56.2626 247.767 56.2626C248.056 56.2626 248.343 56.3784 248.648 56.6091L249.057 55.1291C248.628 54.7866 248.208 54.6254 247.797 54.6254ZM262.846 54.6254C261.874 54.6254 261.073 55.0344 260.453 55.8535C259.835 56.6716 259.508 57.9007 259.508 59.5369C259.508 61.1599 259.838 62.3901 260.453 63.2203C261.067 64.0494 261.834 64.4484 262.782 64.4484C263.565 64.4484 264.238 64.1572 264.797 63.5668C265.356 62.9764 265.697 62.108 265.836 60.9856L264.639 60.7962C264.55 61.5992 264.341 62.1765 264.009 62.5593C263.678 62.9402 263.279 63.1255 262.812 63.1255C262.218 63.1255 261.712 62.8485 261.332 62.2752C260.953 61.702 260.766 60.7852 260.766 59.5046C260.766 58.2634 260.967 57.3678 261.365 56.7965C261.763 56.2253 262.269 55.915 262.876 55.915C263.281 55.915 263.627 56.0721 263.915 56.3875C264.205 56.7018 264.397 57.2015 264.513 57.8362L265.71 57.5844C265.566 56.593 265.248 55.8444 264.734 55.3488C264.22 54.8521 263.596 54.6254 262.846 54.6254ZM269.867 54.6254C268.883 54.6254 268.052 55.0304 267.411 55.8847C266.769 56.7391 266.466 57.9763 266.466 59.6004C266.466 61.165 266.775 62.3911 267.411 63.2213C268.047 64.0504 268.87 64.4494 269.898 64.4494C270.713 64.4494 271.391 64.2046 271.944 63.6938C272.496 63.183 272.897 62.4314 273.109 61.4269L271.85 61.2063C271.488 62.4928 270.85 63.1245 269.929 63.1266C269.341 63.1266 268.829 62.8767 268.418 62.3397C268.007 61.8017 267.775 61.0038 267.725 59.9469H273.14V59.5056C273.14 57.9168 272.824 56.724 272.195 55.8847C271.571 55.0455 270.806 54.6254 269.867 54.6254ZM277.14 54.6254C276.284 54.6254 275.608 54.8783 275.125 55.381C274.641 55.8827 274.401 56.5305 274.401 57.3335C274.401 57.8 274.474 58.1939 274.652 58.5616C274.83 58.9284 275.086 59.2246 275.408 59.4432C275.728 59.6618 276.374 59.9489 277.328 60.2613C277.987 60.4738 278.415 60.6552 278.588 60.7962C278.838 61.0028 278.966 61.2738 278.966 61.6466C278.966 62.0778 278.816 62.4374 278.524 62.7165C278.234 62.9976 277.828 63.1255 277.296 63.1255C276.763 63.1255 276.326 62.9764 276.006 62.653C275.685 62.3296 275.479 61.838 275.407 61.173L274.179 61.4249C274.456 63.4449 275.461 64.4484 277.201 64.4474C278.129 64.4474 278.869 64.1844 279.406 63.6293C279.943 63.0742 280.224 62.3246 280.224 61.4249C280.224 60.9393 280.138 60.5182 279.972 60.1656C279.806 59.8129 279.547 59.552 279.248 59.3475C278.949 59.144 278.313 58.8719 277.295 58.5294C276.556 58.2705 276.091 58.0811 275.941 57.9632C275.69 57.7637 275.563 57.4917 275.563 57.1451C275.563 56.7905 275.711 56.4902 275.972 56.2636C276.233 56.0369 276.637 55.917 277.169 55.917C278.108 55.917 278.633 56.4328 278.743 57.4594L279.94 57.27C279.856 56.6202 279.716 56.1074 279.498 55.7588C279.267 55.3941 278.94 55.1 278.553 54.9085C278.149 54.702 277.678 54.6254 277.14 54.6254ZM249.056 54.8138L251.796 64.2277H252.96L255.7 54.8138H254.44L252.834 60.5756C252.64 61.2718 252.469 61.8732 252.362 62.3699C252.228 61.7443 252.1 61.0874 251.921 60.4497L250.347 54.8138H249.056ZM256.77 54.8138V64.2277H257.998V54.8138H256.77ZM216.408 54.9397C215.433 54.9397 214.65 55.377 214.015 56.2303C213.379 57.0847 213.039 58.3219 213.039 59.9459C213.039 61.5105 213.353 62.7054 213.984 63.5346C214.614 64.3637 215.454 64.7939 216.471 64.7939C217.279 64.7939 217.939 64.5179 218.486 64.0071C219.032 63.4963 219.41 62.7447 219.62 61.7403L218.391 61.5508C218.034 62.8374 217.384 63.4691 216.471 63.4711C215.888 63.4711 215.398 63.2213 214.991 62.6843C214.584 62.1463 214.347 61.3483 214.298 60.2915H219.65L219.681 59.8502C219.681 58.2614 219.359 57.0373 218.736 56.1981C218.113 55.3588 217.336 54.9397 216.408 54.9397ZM202.586 55.1604L204.79 64.5743H206.081L207.53 57.3325L207.782 58.9384L208.946 64.5743H210.206L212.441 55.1604H211.277L210.048 60.6068L209.639 62.4324L209.262 60.6068L208.192 55.1604H206.932L205.799 60.6703L205.421 62.6228L204.98 60.6078L203.846 55.1614L202.586 55.1604ZM280.949 55.2551V55.6963H282.146V58.8447H282.619V55.6963H283.816V55.2551H280.949ZM284.287 55.2551V58.8437H284.728V55.79L285.767 58.8437H286.208L287.247 55.8525V58.8437H287.72V55.2551H287.059L286.208 57.7738C286.123 58.0257 286.061 58.208 286.019 58.34L285.83 57.805L284.979 55.2551H284.287ZM240.303 55.916C240.915 55.916 241.418 56.2122 241.814 56.7975C242.086 57.1985 242.263 57.809 242.318 58.6231H238.257C238.295 57.797 238.529 57.1592 238.918 56.6706C239.307 56.182 239.754 55.916 240.303 55.916ZM269.836 55.916C270.445 55.916 270.951 56.2122 271.347 56.7975C271.619 57.1985 271.795 57.809 271.851 58.6231H267.789C267.828 57.797 268.061 57.1592 268.45 56.6706C268.838 56.184 269.286 55.916 269.836 55.916ZM216.408 56.2626C217.012 56.2626 217.498 56.5588 217.888 57.1441C218.157 57.5451 218.336 58.1556 218.391 58.9697H214.393C214.431 58.1435 214.635 57.4746 215.022 56.9859C215.406 56.4983 215.863 56.2626 216.408 56.2626ZM224.216 56.2626C224.762 56.2626 225.226 56.5658 225.601 57.1441C225.976 57.7234 226.136 58.616 226.136 59.8522C226.136 61.0562 225.959 61.9538 225.57 62.5603C225.181 63.1669 224.717 63.4731 224.216 63.4731C223.847 63.4731 223.511 63.3492 223.208 63.0953C222.904 62.8414 222.681 62.4777 222.515 61.9931C222.349 61.5085 222.263 60.763 222.263 59.7888C222.263 58.6412 222.468 57.7818 222.862 57.1753C223.256 56.5688 223.714 56.2626 224.216 56.2626Z" fill="black"/>
<path d="M184.939 46.2799L180.248 48.2949L184.592 50.1527L189.63 48.2949L184.939 46.2799ZM177.887 48.7986L177.729 57.866L184.592 60.8885V51.4745L177.887 48.7986ZM191.991 48.7986L185.789 51.1602V60.0381L191.991 57.5194V48.7986ZM199.39 20.589L194.667 22.604L199.044 24.4618L204.081 22.604L199.39 20.589ZM192.842 23.2659V32.3333L198.697 34.0339L198.887 25.7846L192.842 23.2659ZM205.939 23.7696L200.398 26.1312V35.0414L205.939 32.5227V23.7696ZM177.21 33.3508L172.519 35.3658L176.863 37.2236L181.9 35.3658L177.21 33.3508ZM170.157 35.8695L170 44.9369L176.863 47.9594V38.5454L170.157 35.8695ZM184.262 35.8695L178.06 38.2311V47.1091L184.262 44.5903V35.8695ZM192.322 33.0163L187.631 35.0313L191.975 36.8891L197.013 35.0313L192.322 33.0163ZM185.269 35.5351L185.112 44.6024L191.975 47.6249V38.2119L185.269 35.5351ZM199.374 35.5351L193.172 37.8966V46.7746L199.374 44.2559V35.5351ZM214.151 20.589L209.46 22.604L213.805 24.4618L218.842 22.604L214.151 20.589ZM207.099 23.1077L206.942 32.1751L213.805 35.1975V25.7846L207.099 23.1077ZM221.203 23.1077L215.001 25.4693V34.3472L221.203 31.8285V23.1077Z" fill="#F7A80D"/>
</g>
<defs>
<clipPath id="clip0_9363_97775">
<rect width="119.875" height="18.0943" fill="white" transform="translate(13 33.5853)"/>
</clipPath>
<clipPath id="clip1_9363_97775">
<rect width="117.719" height="44.2152" fill="white" transform="translate(170 20.5861)"/>
</clipPath>
</defs>
</svg>
