<svg width="298" height="283" viewBox="0 0 298 283" fill="none" xmlns="http://www.w3.org/2000/svg">
<path d="M254.987 163.271C264.028 154.66 269.664 142.486 269.603 128.967L269.354 73.0775C269.223 43.9183 247.859 19.2059 219.026 14.8631L196.225 2.125L169.21 10.5861C147.786 15.2711 131.171 34.2113 130.886 57.6312L130.231 111.478C129.812 145.878 157.022 174.276 191.408 175.328L221.088 176.237C246.038 176.237 265.458 165.454 265.458 165.454L254.99 163.274L254.987 163.271Z" fill="#BABABA"/>
<path d="M254.987 163.271C264.028 154.66 269.664 142.486 269.603 128.967L269.354 73.0775C269.223 43.9183 247.859 19.206 219.026 14.8632L196.225 2.125L169.21 10.5861C147.786 15.2711 131.171 34.2113 130.886 57.6312L130.231 111.478C129.812 145.878 157.022 174.276 191.408 175.328L221.088 176.237C246.038 176.237 265.458 165.454 265.458 165.454L254.99 163.274L254.987 163.271Z" stroke="#1D1D1B" stroke-width="0.821463" stroke-miterlimit="10"/>
<path d="M197.151 175.33C162.764 174.279 135.555 145.881 135.974 111.481L136.628 57.6337C136.913 34.2165 149.476 15.1148 170.899 10.4297" stroke="#1D1D1B" stroke-width="0.821463" stroke-miterlimit="10"/>
<path d="M247.611 167.66L219.076 166.787C184.38 165.724 156.927 137.072 157.349 102.362L157.989 49.7227C158.353 19.805 185.059 -2.89751 214.643 1.5603L245.659 6.23168C274.768 10.6156 296.337 35.5661 296.469 65.0046L296.712 119.821C296.833 146.789 274.566 168.482 247.611 167.657V167.66Z" fill="white"/>
<path d="M248.471 168.026L218.791 167.117C184.405 166.065 157.195 137.667 157.614 103.267L158.269 49.4201C158.627 19.8475 185.026 -2.59215 214.27 1.81089L246.412 6.65204C275.245 10.9948 296.608 35.7072 296.74 64.8664L296.989 120.756C297.107 147.404 275.105 168.839 248.471 168.023V168.026Z" stroke="#1D1D1B" stroke-width="0.821463" stroke-miterlimit="10"/>
<path d="M248.636 166.451L220.939 165.605C186.794 164.562 159.776 136.364 160.192 102.204L160.817 50.8657C161.175 21.4026 187.476 -0.954922 216.61 3.43443L246.744 7.97438C275.397 12.2898 296.626 36.8488 296.758 65.8218L296.996 119.335C297.114 145.898 275.183 167.264 248.634 166.451H248.636Z" stroke="#1D1D1B" stroke-width="0.821463" stroke-miterlimit="10"/>
<path d="M250.065 149.733L221.763 148.251C213.293 147.808 206.656 140.809 206.664 132.329L206.746 24.654C206.752 18.2 212.461 13.2384 218.855 14.1365L251.771 18.7641C258.361 19.6896 263.29 25.292 263.367 31.9486L264.569 135.806C264.662 143.763 258.014 150.146 250.067 149.73L250.065 149.733Z" fill="#4A494A"/>
<path d="M233.817 54.0174C238.852 53.4722 242.378 47.9014 241.693 41.5748C241.008 35.2481 236.371 30.5613 231.336 31.1066C226.301 31.6518 222.774 37.2225 223.459 43.5492C224.144 49.8758 228.781 54.5626 233.817 54.0174Z" fill="#3A3A3A"/>
<path d="M250.065 149.733L221.763 148.251C213.293 147.808 206.656 140.809 206.664 132.329L206.746 24.654C206.752 18.2001 212.461 13.2384 218.855 14.1365L251.771 18.7641C258.361 19.6896 263.29 25.292 263.367 31.9486L264.569 135.806C264.662 143.763 258.014 150.146 250.067 149.73L250.065 149.733Z" stroke="#1D1D1B" stroke-width="0.821463" stroke-miterlimit="10"/>
<path d="M250.699 146.889L223.588 145.47C215.478 145.046 209.12 138.343 209.125 130.218L209.204 27.0809C209.21 20.898 214.681 16.1472 220.803 17.007L252.334 21.4402C258.648 22.3274 263.369 27.6943 263.443 34.0716L264.593 133.556C264.681 141.179 258.314 147.291 250.702 146.894L250.699 146.889Z" stroke="#1D1D1B" stroke-width="0.821463" stroke-miterlimit="10"/>
<path d="M233.321 47.6177C235.54 47.2882 237.002 44.7606 236.588 41.9724C236.174 39.1841 234.04 37.1909 231.821 37.5205C229.603 37.85 228.14 40.3775 228.555 43.1658C228.969 45.9541 231.103 47.9473 233.321 47.6177Z" fill="#1D1D1B"/>
<path d="M233.488 48.6978C236.185 48.2972 237.963 45.2245 237.46 41.8349C236.956 38.4453 234.362 36.0223 231.665 36.423C228.968 36.8236 227.189 39.8963 227.693 43.2859C228.197 46.6755 230.791 49.0985 233.488 48.6978Z" stroke="#1D1D1B" stroke-width="0.821463" stroke-miterlimit="10"/>
<path d="M231.562 44.7629C232.536 44.6182 233.178 43.509 232.996 42.2854C232.814 41.0618 231.878 40.1871 230.904 40.3318C229.93 40.4765 229.288 41.5857 229.47 42.8093C229.652 44.0329 230.588 44.9076 231.562 44.7629Z" fill="white"/>
<path d="M233.817 54.0174C238.852 53.4722 242.378 47.9014 241.693 41.5748C241.008 35.2481 236.371 30.5613 231.336 31.1066C226.301 31.6518 222.774 37.2225 223.459 43.5492C224.144 49.8758 228.781 54.5626 233.817 54.0174Z" stroke="#1D1D1B" stroke-width="0.821463" stroke-miterlimit="10"/>
<path d="M240.992 57.0615C247.923 55.0453 251.522 46.4692 249.031 37.9063C246.54 29.3434 238.902 24.0363 231.971 26.0525C225.04 28.0687 221.441 36.6447 223.932 45.2076C226.423 53.7705 234.061 59.0777 240.992 57.0615Z" stroke="#1D1D1B" stroke-width="0.821463" stroke-miterlimit="10"/>
<path d="M233.24 98.9758C229.76 99.351 226.419 97.897 223.845 95.2518C222.076 92.8614 220.658 90.0465 219.746 86.9085C219.429 85.8132 219.182 84.7207 219.007 83.6336C218.552 75.43 223.251 68.3955 229.853 67.6836C236.731 66.9415 243.062 73.338 244.001 81.9825C244.938 90.6243 240.119 98.231 233.243 98.9758H233.24Z" fill="#3A3A3A"/>
<path opacity="0.38" d="M240.559 81.8202C240.625 75.2845 237.096 69.95 232.678 69.9053C228.259 69.8606 224.623 75.1226 224.557 81.6583C224.491 88.194 228.02 93.5284 232.438 93.5732C236.857 93.6179 240.492 88.3559 240.559 81.8202Z" fill="white"/>
<path d="M240.559 81.8202C240.625 75.2845 237.096 69.95 232.678 69.9053C228.259 69.8606 224.623 75.1226 224.557 81.6583C224.491 88.194 228.02 93.5284 232.438 93.5732C236.857 93.6179 240.492 88.3559 240.559 81.8202Z" stroke="#1D1D1B" stroke-width="0.821463" stroke-miterlimit="10"/>
<path d="M232.57 90.1812C235.582 89.7337 237.569 86.3017 237.006 82.5157C236.444 78.7297 233.546 76.0233 230.533 76.4709C227.52 76.9184 225.534 80.3504 226.097 84.1364C226.659 87.9224 229.557 90.6288 232.57 90.1812Z" fill="#1D1D1B"/>
<path d="M233.09 85.4264C234.653 85.1942 235.684 83.4137 235.392 81.4497C235.1 79.4856 233.597 78.0817 232.033 78.3139C230.47 78.5461 229.44 80.3266 229.731 82.2906C230.023 84.2547 231.527 85.6586 233.09 85.4264Z" fill="white"/>
<path d="M232.787 91.7042C236.471 91.1568 238.9 86.96 238.212 82.3304C237.525 77.7007 233.98 74.3913 230.296 74.9387C226.612 75.486 224.183 79.6828 224.87 84.3125C225.558 88.9421 229.102 92.2515 232.787 91.7042Z" stroke="#1D1D1B" stroke-width="0.821463" stroke-miterlimit="10"/>
<path d="M233.24 98.9758C229.76 99.351 226.419 97.897 223.845 95.2518C222.076 92.8614 220.658 90.0465 219.746 86.9085C219.429 85.8132 219.182 84.7207 219.007 83.6336C218.552 75.43 223.251 68.3955 229.853 67.6836C236.731 66.9415 243.062 73.338 244.001 81.9825C244.938 90.6243 240.119 98.231 233.243 98.9758H233.24Z" stroke="#1D1D1B" stroke-width="0.821463" stroke-miterlimit="10"/>
<path d="M243.042 103.098C236.114 105.113 228.672 101.773 223.842 95.2503C222.073 92.8598 220.654 90.0449 219.742 86.9069C219.425 85.8116 219.178 84.7191 219.003 83.632C217.3 73.0954 222.138 63.2379 230.717 60.7406C240.183 57.986 250.616 65.234 254.019 76.9289C257.423 88.6265 252.508 100.341 243.042 103.095V103.098Z" stroke="#1D1D1B" stroke-width="0.821463" stroke-miterlimit="10"/>
<path d="M264.477 125.284L209.133 122.242" stroke="#1D1D1B" stroke-width="0.821463" stroke-miterlimit="10"/>
<path fill-rule="evenodd" clip-rule="evenodd" d="M149.208 112.922V97.4062H145.08C145.08 97.4062 145.078 97.4063 145.078 97.4082V112.922H149.21H149.208Z" stroke="#1D1D1B" stroke-width="0.575526" stroke-miterlimit="10"/>
<path d="M149.21 97.4062H146.586V112.993H149.21V97.4062Z" fill="#1D1D1B"/>
<path d="M231.625 259.8V279.352H210.965V259.8H231.625Z" fill="white"/>
<path d="M231.625 259.8V279.352H210.965V259.8H231.625Z" stroke="#1D1D1B" stroke-width="0.85892" stroke-miterlimit="10"/>
<path d="M211.859 269.298V269.75H224.972V267.923C224.972 267.723 225.135 267.557 225.339 267.557H227.555C227.755 267.557 227.921 267.72 227.921 267.923V269.75H231.626V269.298H228.376V267.923C228.376 267.471 228.01 267.105 227.558 267.105H225.342C224.889 267.105 224.523 267.471 224.523 267.923V269.298H211.862H211.859Z" fill="#1D1D1B"/>
<path d="M223.641 275.268V273.261C223.641 272.737 223.214 272.311 222.69 272.311H221.582C221.058 272.311 220.632 272.737 220.632 273.261V275.268C220.632 275.792 221.058 276.219 221.582 276.219H222.69C223.214 276.219 223.641 275.792 223.641 275.268Z" fill="white"/>
<path d="M223.641 265.885V263.878C223.641 263.352 223.214 262.928 222.69 262.928H221.582C221.058 262.928 220.632 263.354 220.632 263.878V265.885C220.632 266.412 221.058 266.836 221.582 266.836H222.69C223.214 266.836 223.641 266.409 223.641 265.885Z" fill="white"/>
<path d="M223.641 275.268V273.261C223.641 272.737 223.214 272.311 222.69 272.311H221.582C221.058 272.311 220.632 272.737 220.632 273.261V275.268C220.632 275.792 221.058 276.219 221.582 276.219H222.69C223.214 276.219 223.641 275.792 223.641 275.268Z" fill="#BABABA"/>
<path d="M223.641 265.885V263.878C223.641 263.352 223.214 262.928 222.69 262.928H221.582C221.058 262.928 220.632 263.354 220.632 263.878V265.885C220.632 266.412 221.058 266.836 221.582 266.836H222.69C223.214 266.836 223.641 266.409 223.641 265.885Z" fill="#BABABA"/>
<path d="M223.641 275.268V273.261C223.641 272.737 223.214 272.311 222.69 272.311H221.582C221.058 272.311 220.632 272.737 220.632 273.261V275.268C220.632 275.792 221.058 276.219 221.582 276.219H222.69C223.214 276.219 223.641 275.792 223.641 275.268Z" stroke="#1D1D1B" stroke-width="0.85892" stroke-miterlimit="10"/>
<path d="M223.641 265.885V263.878C223.641 263.352 223.214 262.928 222.69 262.928H221.582C221.058 262.928 220.632 263.354 220.632 263.878V265.885C220.632 266.412 221.058 266.836 221.582 266.836H222.69C223.214 266.836 223.641 266.409 223.641 265.885Z" stroke="#1D1D1B" stroke-width="0.85892" stroke-miterlimit="10"/>
<path d="M158.781 266.063V272.983L171.39 273.375V265.668L158.781 266.063Z" fill="#BABABA"/>
<path d="M158.781 266.063V272.983L171.39 273.375V265.668L158.781 266.063Z" stroke="#1D1D1B" stroke-width="0.85892" stroke-miterlimit="10"/>
<path d="M171.382 264.984L169.578 265.05V273.989L171.382 274.055V264.984Z" fill="white"/>
<path d="M168.75 265.085L167.023 265.148V273.898L168.75 273.961V265.085Z" fill="white"/>
<path d="M166.228 265.167L164.57 265.23V273.799L166.228 273.859V265.167Z" fill="white"/>
<path d="M163.811 265.259L162.219 265.319V273.716L163.811 273.773V265.259Z" fill="white"/>
<path d="M161.482 265.352L159.953 265.41V273.641L161.482 273.695V265.352Z" fill="white"/>
<path d="M159.25 265.435L158.66 265.457C158.173 265.475 157.781 265.999 157.781 266.626V272.426C157.781 273.053 158.173 273.577 158.66 273.594L159.25 273.617V265.437V265.435Z" fill="white"/>
<path d="M171.382 264.984L169.578 265.05V273.989L171.382 274.055V264.984Z" stroke="#1D1D1B" stroke-width="0.85892" stroke-miterlimit="10"/>
<path d="M168.75 265.085L167.023 265.148V273.898L168.75 273.961V265.085Z" stroke="#1D1D1B" stroke-width="0.85892" stroke-miterlimit="10"/>
<path d="M166.228 265.167L164.57 265.23V273.799L166.228 273.859V265.167Z" stroke="#1D1D1B" stroke-width="0.85892" stroke-miterlimit="10"/>
<path d="M163.811 265.259L162.219 265.319V273.716L163.811 273.773V265.259Z" stroke="#1D1D1B" stroke-width="0.85892" stroke-miterlimit="10"/>
<path d="M161.482 265.352L159.953 265.41V273.641L161.482 273.695V265.352Z" stroke="#1D1D1B" stroke-width="0.85892" stroke-miterlimit="10"/>
<path d="M159.25 265.435L158.66 265.457C158.173 265.475 157.781 265.999 157.781 266.626V272.426C157.781 273.053 158.173 273.577 158.66 273.594L159.25 273.617V265.437V265.435Z" stroke="#1D1D1B" stroke-width="0.85892" stroke-miterlimit="10"/>
<path d="M212.276 281.672H183.548C182.564 281.672 181.679 281.071 181.315 280.157L179.841 276.458H172.245C171.481 276.458 170.859 275.837 170.859 275.073V263.984C170.859 263.219 171.481 262.598 172.245 262.598H179.841L181.315 258.899C181.679 257.986 182.566 257.384 183.548 257.384H212.276V281.672Z" fill="#BABABA"/>
<path d="M212.276 281.672H183.548C182.564 281.672 181.679 281.071 181.315 280.157L179.841 276.458H172.245C171.481 276.458 170.859 275.837 170.859 275.073V263.984C170.859 263.219 171.481 262.598 172.245 262.598H179.841L181.315 258.899C181.679 257.986 182.566 257.384 183.548 257.384H212.276V281.672Z" stroke="#1D1D1B" stroke-width="0.85892" stroke-miterlimit="10"/>
<path opacity="0.5" d="M186.305 262.839V276.213C186.305 276.997 186.943 277.633 187.725 277.633H206.197C206.982 277.633 207.617 276.994 207.617 276.213V262.839C207.617 262.055 206.979 261.419 206.197 261.419H187.725C186.94 261.419 186.305 262.058 186.305 262.839Z" fill="#1D1D1B"/>
<path d="M186.305 262.839V276.213C186.305 276.997 186.943 277.633 187.725 277.633H206.197C206.982 277.633 207.617 276.994 207.617 276.213V262.839C207.617 262.055 206.979 261.419 206.197 261.419H187.725C186.94 261.419 186.305 262.058 186.305 262.839Z" stroke="#1D1D1B" stroke-width="0.85892" stroke-miterlimit="10"/>
<path d="M183.993 273.349C183.653 273.349 183.375 273.627 183.375 273.968C183.375 274.308 183.653 274.586 183.993 274.586C184.334 274.586 184.612 274.308 184.612 273.968C184.612 273.627 184.337 273.349 183.993 273.349Z" fill="#1D1D1B"/>
<path d="M183.993 264.466C184.335 264.466 184.612 264.743 184.612 265.085C184.612 265.426 184.335 265.703 183.993 265.703C183.652 265.703 183.375 265.426 183.375 265.085C183.375 264.743 183.652 264.466 183.993 264.466Z" fill="#1D1D1B"/>
<path d="M5.21684 250.228L5.21684 73.0583C5.21684 64.8464 11.8734 58.1898 20.0853 58.1898H20.4276C28.6395 58.1898 35.2961 64.8464 35.2961 73.0583V92.924C35.2961 100.906 41.7665 107.379 49.7511 107.379L98.9979 107.379V103.159L49.7511 103.159C44.0994 103.159 39.5157 98.5757 39.5157 92.924V73.3102C39.5157 68.1843 37.5661 63.2144 33.9461 59.5835C30.3399 55.9664 25.5371 53.9729 20.4276 53.9729H20.3372C15.2113 53.9729 10.2415 55.9226 6.61059 59.5425C2.97973 63.1624 1 67.9515 1 73.061V251.077C1 262.46 10.2278 271.687 21.6105 271.687L157.797 271.688V267.49L22.4785 267.49C12.9468 267.49 5.21958 259.762 5.21958 250.231L5.21684 250.228Z" stroke="#1D1D1B" stroke-width="0.821463" stroke-miterlimit="10"/>
<path d="M142.969 110.495L142.969 99.8203L133.905 99.8203L133.905 110.495L142.969 110.495Z" fill="white"/>
<path d="M142.969 110.495L142.969 99.8203L133.905 99.8203L133.905 110.495L142.969 110.495Z" stroke="#1D1D1B" stroke-width="1.05944" stroke-miterlimit="10"/>
<path d="M135.523 101.815C135.523 101.598 135.699 101.422 135.916 101.422L141.419 101.422C141.637 101.422 141.812 101.598 141.812 101.815C141.812 102.032 141.637 102.208 141.419 102.208L135.916 102.208C135.699 102.208 135.523 102.032 135.523 101.815Z" stroke="#1D1D1B" stroke-width="1.05944" stroke-miterlimit="10"/>
<path d="M135.515 108.502C135.515 108.285 135.691 108.109 135.908 108.109L141.412 108.109C141.629 108.109 141.805 108.285 141.805 108.502C141.805 108.72 141.629 108.896 141.412 108.896L135.908 108.896C135.691 108.896 135.515 108.72 135.515 108.502Z" stroke="#1D1D1B" stroke-width="1.05944" stroke-miterlimit="10"/>
<path d="M138.594 105.162C138.594 105.003 138.722 104.875 138.881 104.875L139.984 104.875L139.984 105.451L138.881 105.451C138.722 105.451 138.594 105.322 138.594 105.164L138.594 105.162Z" fill="#1D1D1B"/>
<path d="M138.594 103.724C138.594 103.566 138.722 103.437 138.881 103.437L139.984 103.438L139.984 104.013L138.881 104.013C138.722 104.013 138.594 103.885 138.594 103.726L138.594 103.724Z" fill="#1D1D1B"/>
<path d="M138.587 106.591C138.587 106.433 138.715 106.305 138.873 106.305L139.977 106.305L139.977 106.88L138.873 106.88C138.715 106.88 138.587 106.752 138.587 106.594L138.587 106.591Z" fill="#1D1D1B"/>
<path d="M109.047 108.579L109.047 101.844L97.6313 101.844L97.6313 108.579L109.047 108.579Z" fill="#BABABA"/>
<path d="M109.047 108.579L109.047 101.844L97.6313 101.844L97.6313 108.579L109.047 108.579Z" stroke="#1D1D1B" stroke-width="1.05944" stroke-miterlimit="10"/>
<path opacity="0.5" d="M109.047 108.581L109.047 101.844L106.936 101.844L106.936 108.581L109.047 108.581Z" fill="white"/>
<path opacity="0.5" d="M105.945 108.581L105.945 101.844L103.836 101.844L103.836 108.581L105.945 108.581Z" fill="white"/>
<path opacity="0.5" d="M102.844 108.581L102.844 101.844L100.733 101.844L100.733 108.581L102.844 108.581Z" fill="white"/>
<path opacity="0.5" d="M99.7344 108.581L99.7344 101.844L97.6254 101.844L97.6254 108.581L99.7344 108.581Z" fill="white"/>
<path d="M109.047 108.581L109.047 101.844L106.936 101.844L106.936 108.581L109.047 108.581Z" stroke="#1D1D1B" stroke-width="1.05944" stroke-miterlimit="10"/>
<path d="M105.945 108.581L105.945 101.844L103.836 101.844L103.836 108.581L105.945 108.581Z" stroke="#1D1D1B" stroke-width="1.05944" stroke-miterlimit="10"/>
<path d="M102.844 108.581L102.844 101.844L100.733 101.844L100.733 108.581L102.844 108.581Z" stroke="#1D1D1B" stroke-width="1.05944" stroke-miterlimit="10"/>
<path d="M99.7344 108.581L99.7344 101.844L97.6254 101.844L97.6254 108.581L99.7344 108.581Z" stroke="#1D1D1B" stroke-width="1.05944" stroke-miterlimit="10"/>
<path d="M134.094 113.214L111.445 113.214C109.866 113.214 108.587 111.935 108.587 110.354L108.587 99.9698C108.587 98.3908 109.866 97.1094 111.445 97.1094L134.094 97.1094L134.094 113.212L134.094 113.214Z" fill="#BABABA"/>
<path d="M134.094 113.214L111.445 113.214C109.866 113.214 108.587 111.935 108.587 110.354L108.587 99.9698C108.587 98.3908 109.866 97.1094 111.445 97.1094L134.094 97.1094L134.094 113.212L134.094 113.214Z" stroke="#1D1D1B" stroke-width="1.05944" stroke-miterlimit="10"/>
</svg>
