<svg width="218" height="207" viewBox="0 0 218 207" fill="none" xmlns="http://www.w3.org/2000/svg">
<path d="M186.514 119.522C193.118 113.232 197.234 104.34 197.19 94.4665L197.008 53.6453C196.912 32.3477 181.308 14.298 160.249 11.1261L143.595 1.82227L123.864 8.00215C108.216 11.4241 96.0801 25.2578 95.8721 42.3635L95.3941 81.6927C95.0881 106.818 114.962 127.56 140.077 128.328L161.755 128.992C179.978 128.992 194.162 121.116 194.162 121.116L186.516 119.524L186.514 119.522Z" fill="#BABABA"/>
<path d="M186.514 119.522C193.118 113.232 197.234 104.34 197.19 94.4665L197.008 53.6453C196.912 32.3477 181.308 14.298 160.249 11.1261L143.595 1.82227L123.864 8.00215C108.216 11.4241 96.0801 25.2578 95.8721 42.3635L95.3941 81.6927C95.0881 106.818 114.962 127.56 140.077 128.328L161.755 128.992C179.978 128.992 194.162 121.116 194.162 121.116L186.516 119.524L186.514 119.522Z" stroke="#1D1D1B" stroke-width="0.599988" stroke-miterlimit="10"/>
<path d="M144.265 128.33C119.149 127.562 99.2756 106.821 99.5816 81.6953L100.06 42.366C100.268 25.2623 109.443 11.3106 125.091 7.88867" stroke="#1D1D1B" stroke-width="0.599988" stroke-miterlimit="10"/>
<path d="M181.118 122.727L160.276 122.089C134.935 121.313 114.883 100.385 115.191 75.0338L115.659 36.5866C115.925 14.735 135.431 -1.8467 157.038 1.40924L179.692 4.82117C200.953 8.02311 216.707 26.2468 216.803 47.7483L216.981 87.7856C217.069 107.483 200.805 123.327 181.118 122.725V122.727Z" fill="white"/>
<path d="M181.739 122.993L160.062 122.329C134.946 121.561 115.072 100.82 115.378 75.694L115.856 36.3648C116.118 14.7652 135.4 -1.62448 156.76 1.59146L180.235 5.12739C201.295 8.29933 216.899 26.349 216.995 47.6466L217.177 88.4678C217.263 107.931 201.193 123.587 181.739 122.991V122.993Z" stroke="#1D1D1B" stroke-width="0.599988" stroke-miterlimit="10"/>
<path d="M181.868 121.844L161.638 121.226C136.699 120.464 116.965 99.868 117.269 74.9185L117.725 37.4212C117.987 15.9016 137.197 -0.428044 158.476 2.7779L180.486 6.09383C201.413 9.24577 216.919 27.1834 217.015 48.345L217.189 87.4303C217.275 106.832 201.257 122.438 181.866 121.844H181.868Z" stroke="#1D1D1B" stroke-width="0.599988" stroke-miterlimit="10"/>
<path d="M182.91 109.633L162.239 108.551C156.053 108.227 151.205 103.115 151.211 96.9208L151.271 18.2763C151.275 13.5624 155.445 9.9385 160.115 10.5945L184.156 13.9744C188.97 14.6504 192.57 18.7423 192.626 23.6042L193.504 99.4608C193.572 105.273 188.716 109.935 182.912 109.631L182.91 109.633Z" fill="#4A494A"/>
<path d="M171.041 39.7238C174.719 39.3255 177.295 35.2567 176.794 30.6358C176.294 26.0149 172.907 22.5917 169.229 22.9899C165.552 23.3881 162.976 27.4569 163.476 32.0779C163.977 36.6988 167.364 40.122 171.041 39.7238Z" fill="#3A3A3A"/>
<path d="M182.91 109.633L162.239 108.551C156.053 108.227 151.205 103.115 151.211 96.9208L151.271 18.2763C151.275 13.5624 155.445 9.9385 160.115 10.5945L184.156 13.9744C188.97 14.6504 192.57 18.7423 192.626 23.6042L193.504 99.4608C193.572 105.273 188.716 109.935 182.912 109.631L182.91 109.633Z" stroke="#1D1D1B" stroke-width="0.599988" stroke-miterlimit="10"/>
<path d="M183.373 107.555L163.572 106.519C157.648 106.209 153.004 101.313 153.008 95.3792L153.066 20.0487C153.07 15.5327 157.066 12.0628 161.538 12.6908L184.567 15.9287C189.179 16.5767 192.627 20.4966 192.681 25.1546L193.521 97.8172C193.585 103.385 188.935 107.849 183.375 107.559L183.373 107.555Z" stroke="#1D1D1B" stroke-width="0.599988" stroke-miterlimit="10"/>
<path d="M170.678 35.0485C172.298 34.8078 173.366 32.9617 173.064 30.9252C172.761 28.8886 171.202 27.4328 169.582 27.6735C167.962 27.9142 166.894 29.7603 167.196 31.7968C167.499 33.8334 169.058 35.2892 170.678 35.0485Z" fill="#1D1D1B"/>
<path d="M170.805 35.8379C172.775 35.5453 174.074 33.301 173.706 30.8253C173.338 28.3496 171.443 26.5798 169.473 26.8725C167.503 27.1651 166.204 29.4093 166.572 31.8851C166.94 34.3608 168.835 36.1305 170.805 35.8379Z" stroke="#1D1D1B" stroke-width="0.599988" stroke-miterlimit="10"/>
<path d="M169.394 32.965C170.105 32.8594 170.574 32.0492 170.441 31.1555C170.308 30.2618 169.624 29.6229 168.913 29.7286C168.202 29.8343 167.733 30.6444 167.865 31.5381C167.998 32.4318 168.682 33.0707 169.394 32.965Z" fill="white"/>
<path d="M171.041 39.7238C174.719 39.3255 177.295 35.2567 176.794 30.6358C176.294 26.0149 172.907 22.5917 169.229 22.9899C165.552 23.3881 162.976 27.4569 163.476 32.0779C163.977 36.6988 167.364 40.122 171.041 39.7238Z" stroke="#1D1D1B" stroke-width="0.599988" stroke-miterlimit="10"/>
<path d="M176.286 41.9471C181.348 40.4745 183.977 34.2106 182.157 27.9564C180.338 21.7021 174.759 17.8258 169.697 19.2984C164.635 20.7711 162.006 27.0349 163.826 33.2892C165.645 39.5434 171.224 43.4197 176.286 41.9471Z" stroke="#1D1D1B" stroke-width="0.599988" stroke-miterlimit="10"/>
<path d="M170.621 72.5604C168.079 72.8344 165.639 71.7725 163.759 69.8405C162.467 68.0945 161.431 66.0386 160.765 63.7466C160.533 62.9466 160.353 62.1486 160.225 61.3547C159.893 55.3628 163.325 50.2249 168.147 49.7049C173.171 49.1629 177.795 53.8348 178.481 60.1487C179.165 66.4606 175.645 72.0164 170.623 72.5604H170.621Z" fill="#3A3A3A"/>
<path opacity="0.38" d="M175.962 60.0296C176.011 55.256 173.433 51.3597 170.206 51.3271C166.979 51.2944 164.323 55.1377 164.275 59.9113C164.227 64.6849 166.804 68.5812 170.031 68.6138C173.258 68.6465 175.914 64.8032 175.962 60.0296Z" fill="white"/>
<path d="M175.962 60.0296C176.011 55.256 173.433 51.3597 170.206 51.3271C166.979 51.2944 164.323 55.1377 164.275 59.9113C164.227 64.6849 166.804 68.5812 170.031 68.6138C173.258 68.6465 175.914 64.8032 175.962 60.0296Z" stroke="#1D1D1B" stroke-width="0.599988" stroke-miterlimit="10"/>
<path d="M170.128 66.1369C172.329 65.81 173.779 63.3033 173.368 60.538C172.958 57.7728 170.841 55.7961 168.64 56.123C166.44 56.4498 164.989 58.9565 165.4 61.7218C165.811 64.4871 167.928 66.4638 170.128 66.1369Z" fill="#1D1D1B"/>
<path d="M170.511 62.6632C171.653 62.4936 172.405 61.1931 172.192 59.7586C171.979 58.3241 170.881 57.2987 169.739 57.4683C168.597 57.6379 167.845 58.9383 168.058 60.3728C168.271 61.8074 169.369 62.8328 170.511 62.6632Z" fill="white"/>
<path d="M170.285 67.25C172.976 66.8503 174.751 63.785 174.248 60.4035C173.746 57.0221 171.157 54.6049 168.466 55.0047C165.775 55.4044 164.001 58.4697 164.503 61.8512C165.006 65.2327 167.594 67.6498 170.285 67.25Z" stroke="#1D1D1B" stroke-width="0.599988" stroke-miterlimit="10"/>
<path d="M170.621 72.5604C168.079 72.8344 165.639 71.7725 163.759 69.8405C162.467 68.0945 161.431 66.0386 160.765 63.7466C160.533 62.9466 160.353 62.1486 160.225 61.3547C159.893 55.3628 163.325 50.2249 168.147 49.7049C173.171 49.1629 177.795 53.8348 178.481 60.1487C179.165 66.4606 175.645 72.0164 170.623 72.5604H170.621Z" stroke="#1D1D1B" stroke-width="0.599988" stroke-miterlimit="10"/>
<path d="M177.774 75.5712C172.714 77.0432 167.278 74.6033 163.75 69.8393C162.458 68.0934 161.422 66.0374 160.756 63.7455C160.524 62.9455 160.344 62.1475 160.216 61.3535C158.972 53.6577 162.506 46.4578 168.772 44.6338C175.686 42.6219 183.306 47.9158 185.792 56.4576C188.278 65.0014 184.688 73.5573 177.774 75.5692V75.5712Z" stroke="#1D1D1B" stroke-width="0.599988" stroke-miterlimit="10"/>
<path d="M193.439 91.7747L153.016 89.5527" stroke="#1D1D1B" stroke-width="0.599988" stroke-miterlimit="10"/>
<path fill-rule="evenodd" clip-rule="evenodd" d="M109.251 82.7469V71.4141H106.236C106.236 71.4141 106.234 71.4141 106.234 71.4155V82.7469H109.253H109.251Z" stroke="#1D1D1B" stroke-width="0.420358" stroke-miterlimit="10"/>
<path d="M109.261 71.4141H107.344V82.7988H109.261V71.4141Z" fill="#1D1D1B"/>
<path d="M169.445 190.024V204.305H154.356V190.024H169.445Z" fill="white"/>
<path d="M169.445 190.024V204.305H154.356V190.024H169.445Z" stroke="#1D1D1B" stroke-width="0.627346" stroke-miterlimit="10"/>
<path d="M155.016 196.963V197.293H164.593V195.959C164.593 195.812 164.712 195.691 164.861 195.691H166.479C166.626 195.691 166.747 195.81 166.747 195.959V197.293H169.453V196.963H167.079V195.959C167.079 195.628 166.812 195.361 166.481 195.361H164.863C164.532 195.361 164.265 195.628 164.265 195.959V196.963H155.018H155.016Z" fill="#1D1D1B"/>
<path d="M163.609 201.321V199.855C163.609 199.473 163.298 199.161 162.915 199.161H162.106C161.723 199.161 161.412 199.473 161.412 199.855V201.321C161.412 201.704 161.723 202.016 162.106 202.016H162.915C163.298 202.016 163.609 201.704 163.609 201.321Z" fill="white"/>
<path d="M163.609 194.466V193C163.609 192.615 163.298 192.306 162.915 192.306H162.106C161.723 192.306 161.412 192.617 161.412 193V194.466C161.412 194.851 161.723 195.16 162.106 195.16H162.915C163.298 195.16 163.609 194.849 163.609 194.466Z" fill="white"/>
<path d="M163.609 201.321V199.855C163.609 199.473 163.298 199.161 162.915 199.161H162.106C161.723 199.161 161.412 199.473 161.412 199.855V201.321C161.412 201.704 161.723 202.016 162.106 202.016H162.915C163.298 202.016 163.609 201.704 163.609 201.321Z" fill="#BABABA"/>
<path d="M163.609 194.466V193C163.609 192.615 163.298 192.306 162.915 192.306H162.106C161.723 192.306 161.412 192.617 161.412 193V194.466C161.412 194.851 161.723 195.16 162.106 195.16H162.915C163.298 195.16 163.609 194.849 163.609 194.466Z" fill="#BABABA"/>
<path d="M163.609 201.321V199.855C163.609 199.473 163.298 199.161 162.915 199.161H162.106C161.723 199.161 161.412 199.473 161.412 199.855V201.321C161.412 201.704 161.723 202.016 162.106 202.016H162.915C163.298 202.016 163.609 201.704 163.609 201.321Z" stroke="#1D1D1B" stroke-width="0.627346" stroke-miterlimit="10"/>
<path d="M163.609 194.466V193C163.609 192.615 163.298 192.306 162.915 192.306H162.106C161.723 192.306 161.412 192.617 161.412 193V194.466C161.412 194.851 161.723 195.16 162.106 195.16H162.915C163.298 195.16 163.609 194.849 163.609 194.466Z" stroke="#1D1D1B" stroke-width="0.627346" stroke-miterlimit="10"/>
<path d="M116.25 194.603V199.657L125.459 199.943V194.314L116.25 194.603Z" fill="#BABABA"/>
<path d="M116.25 194.603V199.657L125.459 199.943V194.314L116.25 194.603Z" stroke="#1D1D1B" stroke-width="0.627346" stroke-miterlimit="10"/>
<path d="M125.45 193.815L124.133 193.863V200.391L125.45 200.439V193.815Z" fill="white"/>
<path d="M123.527 193.889L122.266 193.935V200.325L123.527 200.371V193.889Z" fill="white"/>
<path d="M121.687 193.948L120.477 193.994V200.253L121.687 200.297V193.948Z" fill="white"/>
<path d="M119.92 194.013L118.758 194.057V200.191L119.92 200.232V194.013Z" fill="white"/>
<path d="M118.218 194.082L117.102 194.124V200.136L118.218 200.176V194.082Z" fill="white"/>
<path d="M116.588 194.145L116.158 194.161C115.802 194.174 115.516 194.557 115.516 195.014V199.251C115.516 199.709 115.802 200.092 116.158 200.104L116.588 200.121V194.147V194.145Z" fill="white"/>
<path d="M125.45 193.815L124.133 193.863V200.391L125.45 200.439V193.815Z" stroke="#1D1D1B" stroke-width="0.627346" stroke-miterlimit="10"/>
<path d="M123.527 193.889L122.266 193.935V200.325L123.527 200.371V193.889Z" stroke="#1D1D1B" stroke-width="0.627346" stroke-miterlimit="10"/>
<path d="M121.687 193.948L120.477 193.994V200.253L121.687 200.297V193.948Z" stroke="#1D1D1B" stroke-width="0.627346" stroke-miterlimit="10"/>
<path d="M119.92 194.013L118.758 194.057V200.191L119.92 200.232V194.013Z" stroke="#1D1D1B" stroke-width="0.627346" stroke-miterlimit="10"/>
<path d="M118.218 194.082L117.102 194.124V200.136L118.218 200.176V194.082Z" stroke="#1D1D1B" stroke-width="0.627346" stroke-miterlimit="10"/>
<path d="M116.588 194.145L116.158 194.161C115.802 194.174 115.516 194.557 115.516 195.014V199.251C115.516 199.709 115.802 200.092 116.158 200.104L116.588 200.121V194.147V194.145Z" stroke="#1D1D1B" stroke-width="0.627346" stroke-miterlimit="10"/>
<path d="M155.313 206H134.33C133.611 206 132.965 205.561 132.699 204.894L131.622 202.192H126.075C125.516 202.192 125.062 201.738 125.062 201.18V193.081C125.062 192.523 125.516 192.069 126.075 192.069H131.622L132.699 189.367C132.965 188.7 133.613 188.261 134.33 188.261H155.313V206Z" fill="#BABABA"/>
<path d="M155.313 206H134.33C133.611 206 132.965 205.561 132.699 204.894L131.622 202.192H126.075C125.516 202.192 125.062 201.738 125.062 201.18V193.081C125.062 192.523 125.516 192.069 126.075 192.069H131.622L132.699 189.367C132.965 188.7 133.613 188.261 134.33 188.261H155.313V206Z" stroke="#1D1D1B" stroke-width="0.627346" stroke-miterlimit="10"/>
<path opacity="0.5" d="M136.344 192.244V202.012C136.344 202.585 136.81 203.049 137.381 203.049H150.873C151.446 203.049 151.91 202.583 151.91 202.012V192.244C151.91 191.671 151.444 191.207 150.873 191.207H137.381C136.808 191.207 136.344 191.673 136.344 192.244Z" fill="#1D1D1B"/>
<path d="M136.344 192.244V202.012C136.344 202.585 136.81 203.049 137.381 203.049H150.873C151.446 203.049 151.91 202.583 151.91 202.012V192.244C151.91 191.671 151.444 191.207 150.873 191.207H137.381C136.808 191.207 136.344 191.673 136.344 192.244Z" stroke="#1D1D1B" stroke-width="0.627346" stroke-miterlimit="10"/>
<path d="M134.655 199.921C134.406 199.921 134.203 200.124 134.203 200.373C134.203 200.621 134.406 200.824 134.655 200.824C134.904 200.824 135.107 200.621 135.107 200.373C135.107 200.124 134.906 199.921 134.655 199.921Z" fill="#1D1D1B"/>
<path d="M134.655 193.433C134.904 193.433 135.107 193.635 135.107 193.884C135.107 194.134 134.904 194.336 134.655 194.336C134.405 194.336 134.203 194.134 134.203 193.884C134.203 193.635 134.405 193.433 134.655 193.433Z" fill="#1D1D1B"/>
<path d="M4.07994 183.037L4.07994 53.6341C4.07994 47.6362 8.94185 42.7743 14.9397 42.7743H15.1897C21.1876 42.7743 26.0495 47.6362 26.0495 53.6341V68.1438C26.0495 73.9737 30.7754 78.7016 36.6073 78.7016L72.5767 78.7016V75.6196L36.6073 75.6197C32.4794 75.6197 29.1315 72.2717 29.1315 68.1438V53.8181C29.1315 50.0742 27.7075 46.4442 25.0635 43.7923C22.4296 41.1503 18.9217 39.6943 15.1897 39.6943H15.1237C11.3798 39.6943 7.74987 41.1183 5.09792 43.7623C2.44597 46.4062 1 49.9041 1 53.6361V183.657C1 191.971 7.73987 198.711 16.0537 198.711L115.523 198.711V195.645L16.6877 195.645C9.72583 195.645 4.08194 190.001 4.08194 183.039L4.07994 183.037Z" stroke="#1D1D1B" stroke-width="0.599988" stroke-miterlimit="10"/>
<path d="M104.687 80.9766L104.688 73.1797L98.0677 73.1797L98.0677 80.9766L104.687 80.9766Z" fill="white"/>
<path d="M104.687 80.9766L104.688 73.1797L98.0677 73.1797L98.0677 80.9766L104.687 80.9766Z" stroke="#1D1D1B" stroke-width="0.773802" stroke-miterlimit="10"/>
<path d="M99.2497 74.6367C99.2497 74.4781 99.3782 74.3496 99.5368 74.3496L103.557 74.3496C103.715 74.3496 103.844 74.4781 103.844 74.6367C103.844 74.7954 103.715 74.9239 103.557 74.9239L99.5368 74.9239C99.3782 74.9239 99.2497 74.7954 99.2497 74.6367Z" stroke="#1D1D1B" stroke-width="0.773802" stroke-miterlimit="10"/>
<path d="M99.2419 79.5215C99.2419 79.3629 99.3704 79.2344 99.529 79.2344L103.549 79.2344C103.707 79.2344 103.836 79.3629 103.836 79.5215C103.836 79.6801 103.707 79.8086 103.549 79.8086L99.529 79.8086C99.3704 79.8086 99.2419 79.6801 99.2419 79.5215Z" stroke="#1D1D1B" stroke-width="0.773802" stroke-miterlimit="10"/>
<path d="M101.493 77.0805C101.493 76.9647 101.586 76.8711 101.702 76.8711L102.508 76.8711L102.508 77.2915L101.702 77.2915C101.586 77.2915 101.493 77.1979 101.493 77.0821L101.493 77.0805Z" fill="#1D1D1B"/>
<path d="M101.493 76.0317C101.493 75.9159 101.586 75.8223 101.702 75.8223L102.508 75.8223L102.508 76.2426L101.702 76.2426C101.586 76.2426 101.493 76.1491 101.493 76.0333L101.493 76.0317Z" fill="#1D1D1B"/>
<path d="M101.493 78.1254C101.493 78.0096 101.586 77.916 101.702 77.916L102.508 77.916L102.508 78.3364L101.702 78.3364C101.586 78.3364 101.493 78.2428 101.493 78.127L101.493 78.1254Z" fill="#1D1D1B"/>
<path d="M79.9141 79.5755L79.9141 74.6562L71.5762 74.6562L71.5762 79.5755L79.9141 79.5755Z" fill="#BABABA"/>
<path d="M79.9141 79.5755L79.9141 74.6562L71.5762 74.6562L71.5762 79.5755L79.9141 79.5755Z" stroke="#1D1D1B" stroke-width="0.773802" stroke-miterlimit="10"/>
<path opacity="0.5" d="M79.9141 79.5771L79.9141 74.6562L78.3721 74.6562L78.3721 79.5771L79.9141 79.5771Z" fill="white"/>
<path opacity="0.5" d="M77.6484 79.5771L77.6484 74.6562L76.1081 74.6562L76.1081 79.5771L77.6484 79.5771Z" fill="white"/>
<path opacity="0.5" d="M75.3828 79.5771L75.3828 74.6562L73.8409 74.6562L73.8409 79.5771L75.3828 79.5771Z" fill="white"/>
<path opacity="0.5" d="M73.1094 79.5771L73.1094 74.6562L71.569 74.6562L71.569 79.5771L73.1094 79.5771Z" fill="white"/>
<path d="M79.9141 79.5771L79.9141 74.6562L78.3721 74.6562L78.3721 79.5771L79.9141 79.5771Z" stroke="#1D1D1B" stroke-width="0.773802" stroke-miterlimit="10"/>
<path d="M77.6484 79.5771L77.6484 74.6562L76.1081 74.6562L76.1081 79.5771L77.6484 79.5771Z" stroke="#1D1D1B" stroke-width="0.773802" stroke-miterlimit="10"/>
<path d="M75.3828 79.5771L75.3828 74.6562L73.8409 74.6562L73.8409 79.5771L75.3828 79.5771Z" stroke="#1D1D1B" stroke-width="0.773802" stroke-miterlimit="10"/>
<path d="M73.1094 79.5771L73.1094 74.6562L71.569 74.6562L71.569 79.5771L73.1094 79.5771Z" stroke="#1D1D1B" stroke-width="0.773802" stroke-miterlimit="10"/>
<path d="M98.2031 82.964L81.6607 82.964C80.5074 82.964 79.573 82.0296 79.573 80.8747L79.573 73.2904C79.573 72.1371 80.5074 71.2012 81.6607 71.2012L98.2031 71.2012L98.2031 82.9624L98.2031 82.964Z" fill="#BABABA"/>
<path d="M98.2031 82.964L81.6607 82.964C80.5074 82.964 79.573 82.0296 79.573 80.8747L79.573 73.2904C79.573 72.1371 80.5074 71.2012 81.6607 71.2012L98.2031 71.2012L98.2031 82.9624L98.2031 82.964Z" stroke="#1D1D1B" stroke-width="0.773802" stroke-miterlimit="10"/>
</svg>
