<svg width="45" height="45" viewBox="0 0 45 45" fill="none" xmlns="http://www.w3.org/2000/svg">
<path d="M26.625 11.6711C26.625 11.02 26.9661 10.4315 27.3605 9.91341C27.7655 9.38157 28 8.75072 28 8.07422C28 6.17574 26.1532 4.63672 23.875 4.63672C21.5968 4.63672 19.75 6.17574 19.75 8.07422C19.75 8.75072 19.9845 9.38157 20.3895 9.91341C20.7839 10.4315 21.125 11.02 21.125 11.6711V11.6711C21.125 12.3334 20.5826 12.8683 19.9206 12.8493C17.3472 12.7751 14.8015 12.5905 12.2881 12.3C12.6298 15.2568 12.8249 18.2581 12.866 21.2967C12.8751 21.9676 12.3304 22.5116 11.6594 22.5117V22.5117C11.0083 22.5117 10.4197 22.1706 9.90169 21.7762C9.36985 21.3712 8.739 21.1367 8.0625 21.1367C6.16402 21.1367 4.625 22.9835 4.625 25.2617C4.625 27.5399 6.16402 29.3867 8.0625 29.3867C8.739 29.3867 9.36985 29.1522 9.90169 28.7473C10.4197 28.3528 11.0083 28.0117 11.6594 28.0117V28.0117C12.2262 28.0117 12.6762 28.4898 12.6346 29.0551C12.4039 32.1938 12.0086 35.2868 11.4572 38.3254C14.2401 38.6738 17.0633 38.8923 19.9206 38.9745C20.5828 38.9936 21.1252 38.4586 21.1252 37.7962V37.7962C21.1252 37.1451 20.7841 36.5565 20.3897 36.0385C19.9847 35.5067 19.7502 34.8758 19.7502 34.1993C19.7502 32.3008 21.597 30.7618 23.8752 30.7618C26.1534 30.7618 28.0002 32.3008 28.0002 34.1993C28.0002 34.8758 27.7657 35.5067 27.3607 36.0385C26.9663 36.5565 26.6252 37.1451 26.6252 37.7962V37.7962C26.6252 38.4065 27.1349 38.8938 27.7442 38.858C31.1153 38.6599 34.4354 38.272 37.6939 37.7049C38.1879 34.8664 38.5459 31.9813 38.761 29.0564C38.8026 28.4904 38.3521 28.0118 37.7846 28.0118V28.0118C37.1335 28.0118 36.5449 28.3529 36.0269 28.7473C35.4951 29.1523 34.8642 29.3868 34.1877 29.3868C32.2892 29.3868 30.7502 27.54 30.7502 25.2618C30.7502 22.9836 32.2892 21.1368 34.1877 21.1368C34.8642 21.1368 35.4951 21.3713 36.0269 21.7763C36.5449 22.1707 37.1335 22.5118 37.7846 22.5118V22.5118C38.4562 22.5118 39.0015 21.9673 38.9924 21.2957C38.9474 17.9726 38.7182 14.6939 38.3146 11.4695C34.8571 12.0968 31.3293 12.5222 27.7438 12.7328C27.1346 12.7686 26.625 12.2813 26.625 11.6711V11.6711Z" stroke="black" stroke-width="2.4" stroke-linecap="round" stroke-linejoin="round"/>
</svg>
