<svg width="44" height="45" viewBox="0 0 44 45" fill="none" xmlns="http://www.w3.org/2000/svg">
<path d="M26.125 11.3415C26.125 10.6904 26.4661 10.1019 26.8605 9.58382C27.2655 9.05198 27.5 8.42113 27.5 7.74463C27.5 5.84615 25.6532 4.30713 23.375 4.30713C21.0968 4.30713 19.25 5.84615 19.25 7.74463C19.25 8.42113 19.4845 9.05198 19.8895 9.58382C20.2839 10.1019 20.625 10.6904 20.625 11.3415V11.3415C20.625 12.0039 20.0826 12.5387 19.4206 12.5197C16.8472 12.4455 14.3015 12.2609 11.7881 11.9705C12.1298 14.9272 12.3249 17.9286 12.366 20.9671C12.3751 21.638 11.8304 22.182 11.1594 22.1821V22.1821C10.5083 22.1821 9.91973 21.841 9.40169 21.4466C8.86985 21.0416 8.239 20.8071 7.5625 20.8071C5.66402 20.8071 4.125 22.654 4.125 24.9321C4.125 27.2103 5.66402 29.0571 7.5625 29.0571C8.239 29.0571 8.86985 28.8226 9.40169 28.4177C9.91973 28.0232 10.5083 27.6821 11.1594 27.6821V27.6821C11.7262 27.6821 12.1762 28.1602 12.1346 28.7255C11.9039 31.8642 11.5086 34.9572 10.9572 37.9958C13.7401 38.3442 16.5633 38.5627 19.4206 38.6449C20.0828 38.664 20.6252 38.129 20.6252 37.4666V37.4666C20.6252 36.8155 20.2841 36.2269 19.8897 35.7089C19.4847 35.1771 19.2502 34.5462 19.2502 33.8697C19.2502 31.9712 21.097 30.4322 23.3752 30.4322C25.6534 30.4322 27.5002 31.9712 27.5002 33.8697C27.5002 34.5462 27.2657 35.1771 26.8607 35.7089C26.4663 36.2269 26.1252 36.8155 26.1252 37.4666V37.4666C26.1252 38.0769 26.6349 38.5642 27.2442 38.5284C30.6153 38.3303 33.9354 37.9424 37.1939 37.3753C37.6879 34.5369 38.0459 31.6517 38.261 28.7268C38.3026 28.1609 37.8521 27.6822 37.2846 27.6822V27.6822C36.6335 27.6822 36.0449 28.0233 35.5269 28.4178C34.9951 28.8227 34.3642 29.0572 33.6877 29.0572C31.7892 29.0572 30.2502 27.2104 30.2502 24.9322C30.2502 22.654 31.7892 20.8072 33.6877 20.8072C34.3642 20.8072 34.9951 21.0417 35.5269 21.4467C36.0449 21.8411 36.6335 22.1822 37.2846 22.1822V22.1822C37.9562 22.1822 38.5015 21.6377 38.4924 20.9662C38.4474 17.643 38.2182 14.3643 37.8146 11.1399C34.3571 11.7672 30.8293 12.1926 27.2438 12.4032C26.6346 12.439 26.125 11.9517 26.125 11.3415V11.3415Z" stroke="black" stroke-width="2.4" stroke-linecap="round" stroke-linejoin="round"/>
</svg>
