<svg width="97" height="97" viewBox="0 0 97 97" fill="none" xmlns="http://www.w3.org/2000/svg">
<path fill-rule="evenodd" clip-rule="evenodd" d="M37.2958 17.1297C40.8474 16.1252 44.598 15.5867 48.4793 15.5867C52.3606 15.5867 56.1112 16.1252 59.6628 17.1297C61.2571 17.5806 62.9151 16.6537 63.366 15.0594C63.817 13.4651 62.8901 11.8071 61.2958 11.3562C57.2181 10.2029 52.9182 9.58667 48.4793 9.58667C44.0404 9.58667 39.7405 10.2029 35.6628 11.3562C34.0685 11.8071 33.1416 13.4651 33.5925 15.0594C34.0435 16.6537 35.7015 17.5806 37.2958 17.1297ZM48.5 88.5871C29.7223 88.5871 14.5 73.3648 14.5 54.5871C14.5 35.8094 29.7223 20.5871 48.5 20.5871C67.2777 20.5871 82.5 35.8094 82.5 54.5871C82.5 58.0673 81.9771 61.4254 81.0056 64.5871H79.5535C68.5575 64.5871 59.3596 72.2856 57.0556 82.5868H82.486C84.1429 82.5868 85.486 83.93 85.486 85.5868C85.486 87.2437 84.1429 88.5868 82.486 88.5868H50.486C50.3325 88.5868 50.1817 88.5753 50.0344 88.5531C49.5258 88.5757 49.0142 88.5871 48.5 88.5871ZM48.473 33.587C50.1298 33.587 51.473 34.9302 51.473 36.587V51.3624C53.2924 52.393 54.5202 54.3465 54.5202 56.5868C54.5202 59.9005 51.8339 62.5868 48.5202 62.5868C45.2065 62.5868 42.5202 59.9005 42.5202 56.5868C42.5202 54.3854 43.7056 52.461 45.473 51.417V36.587C45.473 34.9302 46.8161 33.587 48.473 33.587ZM65.486 73.5868C65.486 71.93 66.8291 70.5868 68.486 70.5868H82.486C84.1429 70.5868 85.486 71.93 85.486 73.5868C85.486 75.2437 84.1429 76.5868 82.486 76.5868H68.486C66.8291 76.5868 65.486 75.2437 65.486 73.5868Z" fill="white"/>
</svg>
