<svg width="193" height="194" viewBox="0 0 193 194" fill="none" xmlns="http://www.w3.org/2000/svg">
<path fill-rule="evenodd" clip-rule="evenodd" d="M74.0102 33.4419C81.1504 31.4224 88.6907 30.3398 96.4937 30.3398C104.297 30.3398 111.837 31.4224 118.977 33.4419C122.183 34.3485 125.516 32.4851 126.422 29.2798C127.329 26.0746 125.465 22.7413 122.26 21.8348C114.062 19.5161 105.418 18.2773 96.4937 18.2773C87.5698 18.2773 78.9251 19.5161 70.7273 21.8348C67.522 22.7413 65.6586 26.0746 66.5652 29.2798C67.4717 32.4851 70.805 34.3485 74.0102 33.4419ZM96.487 177.1C58.736 177.1 28.1328 146.497 28.1328 108.746C28.1328 70.9953 58.736 40.3921 96.487 40.3921C134.238 40.3921 164.841 70.9953 164.841 108.746C164.841 115.743 163.79 122.494 161.837 128.85H144.737C126.972 128.85 112.57 143.252 112.57 161.017V165.038H164.844C168.175 165.038 170.875 167.738 170.875 171.069C170.875 174.4 168.175 177.1 164.844 177.1H100.51C100.199 177.1 99.8925 177.077 99.5935 177.031C98.5637 177.077 97.5281 177.1 96.487 177.1ZM96.487 66.5275C99.818 66.5275 102.518 69.2278 102.518 72.5588V102.318C106.124 104.404 108.549 108.302 108.549 112.767C108.549 119.429 103.149 124.83 96.487 124.83C89.8251 124.83 84.4245 119.429 84.4245 112.767C84.4245 108.302 86.8502 104.404 90.4557 102.318V72.5588C90.4557 69.2278 93.156 66.5275 96.487 66.5275ZM130.667 146.944C130.667 143.613 133.367 140.913 136.698 140.913H164.844C168.175 140.913 170.875 143.613 170.875 146.944C170.875 150.275 168.175 152.975 164.844 152.975H136.698C133.367 152.975 130.667 150.275 130.667 146.944Z" fill="white"/>
</svg>
