<svg width="45" height="45" viewBox="0 0 45 45" fill="none" xmlns="http://www.w3.org/2000/svg">
<mask id="mask0_10380_27726" style="mask-type:luminance" maskUnits="userSpaceOnUse" x="0" y="0" width="45" height="45">
<path d="M0.5 0.603516H44.5V44.6035H0.5V0.603516Z" fill="white"/>
</mask>
<g mask="url(#mask0_10380_27726)">
<path d="M38.1958 44.0805H6.32785C3.11107 44.0805 0.5 41.4774 0.5 38.2632V6.42082C0.5 3.20661 3.11107 0.603516 6.32785 0.603516H38.1958C41.4126 0.603516 44.0178 3.20661 44.0178 6.42082V38.2632C44.0178 41.4774 41.4126 44.0805 38.1958 44.0805Z" fill="white"/>
</g>
<mask id="mask1_10380_27726" style="mask-type:luminance" maskUnits="userSpaceOnUse" x="1" y="3" width="15" height="15">
<path d="M1.87109 3.33594H15.8968V17.5795H1.87109V3.33594Z" fill="white"/>
</mask>
<g mask="url(#mask1_10380_27726)">
<path d="M9.99077 3.78809H3.9571C3.05734 3.78809 2.32812 4.52259 2.32812 5.41575V11.4505" stroke="black" stroke-width="0.810796" stroke-linecap="round"/>
</g>
<mask id="mask2_10380_27726" style="mask-type:luminance" maskUnits="userSpaceOnUse" x="1" y="29" width="15" height="15">
<path d="M1.87109 29.6133H15.8968V43.9509H1.87109V29.6133Z" fill="white"/>
</mask>
<g mask="url(#mask2_10380_27726)">
<path d="M9.99077 43.4925H3.9571C3.05734 43.4925 2.32812 42.758 2.32812 41.8648V35.8301" stroke="black" stroke-width="0.810796" stroke-linecap="round"/>
</g>
<mask id="mask3_10380_27726" style="mask-type:luminance" maskUnits="userSpaceOnUse" x="27" y="3" width="16" height="15">
<path d="M27.9375 3.33594H42.516V17.5795H27.9375V3.33594Z" fill="white"/>
</mask>
<g mask="url(#mask3_10380_27726)">
<path d="M34.3945 3.78809H40.4282C41.328 3.78809 42.0572 4.52259 42.0572 5.41575V11.4505" stroke="black" stroke-width="0.810796" stroke-linecap="round"/>
</g>
<mask id="mask4_10380_27726" style="mask-type:luminance" maskUnits="userSpaceOnUse" x="27" y="29" width="16" height="15">
<path d="M27.9375 29.6133H42.516V43.9509H27.9375V29.6133Z" fill="white"/>
</mask>
<g mask="url(#mask4_10380_27726)">
<path d="M34.3945 43.4925H40.4282C41.328 43.4925 42.0572 42.758 42.0572 41.8648V35.8301" stroke="black" stroke-width="0.810796" stroke-linecap="round"/>
</g>
<path d="M11.7276 30.3481C11.4218 29.831 11.1395 29.308 10.8866 28.7733C10.6337 28.2327 10.4103 27.6862 10.2162 27.128C10.0751 26.7167 9.94568 26.2995 9.83982 25.8705C9.79866 25.7236 9.75749 25.5708 9.72809 25.4239L9.72221 25.3887H7.69922L7.71098 25.4416C7.86388 26.0115 8.03442 26.5756 8.22261 27.128C8.41079 27.6862 8.61662 28.2268 8.84009 28.7674C9.05768 29.308 9.29879 29.8369 9.56343 30.3598C9.65164 30.542 9.74573 30.7183 9.83982 30.8945C10.0162 31.2354 10.2103 31.5703 10.4103 31.9052L10.4279 31.9229H12.7861L12.739 31.8582C12.3744 31.3646 12.0392 30.8652 11.7276 30.3481Z" fill="black"/>
<path d="M39.4627 16.363C39.2628 16.1632 39.0276 16.0105 38.757 15.9164C38.4807 15.8166 38.1749 15.7637 37.8338 15.7637H32.988C32.6998 15.7637 32.4411 15.8048 32.2059 15.8753C31.9706 15.9517 31.7589 16.0634 31.5825 16.2103C31.4825 16.2984 31.3943 16.3983 31.3179 16.5041C31.2414 16.6039 31.1708 16.7215 31.1062 16.8449C31.0415 16.9624 31.0003 17.0917 30.965 17.2386C30.9356 17.3796 30.918 17.5265 30.918 17.6851V26.3994H32.7351V17.7087C32.7351 17.6381 32.7469 17.5676 32.7763 17.4971C32.8057 17.4266 32.8527 17.3561 32.9174 17.2856C32.9762 17.2092 33.0468 17.1622 33.1291 17.1269C33.2115 17.0917 33.3056 17.0682 33.4173 17.0682H37.428C37.5221 17.0682 37.6044 17.0858 37.6867 17.1093C37.7691 17.1387 37.8514 17.1798 37.9279 17.2386C38.0043 17.2973 38.0631 17.3561 38.0984 17.4148C38.1337 17.4795 38.1513 17.5441 38.1513 17.6088L38.1749 26.3876V26.4287H40.0038V17.7968C40.0038 17.503 39.9626 17.2386 39.8744 16.9976C39.7803 16.7626 39.645 16.5452 39.4686 16.363H39.4627Z" fill="black"/>
<path d="M5.73427 30.5184C5.68134 30.4949 5.6343 30.4655 5.58725 30.4244C5.5402 30.3832 5.5108 30.3421 5.48728 30.2951C5.46375 30.254 5.45199 30.2069 5.45199 30.1541V24.2369H10.433C10.6271 24.2369 10.8094 24.2016 10.9799 24.1487C11.1505 24.09 11.3092 24.0018 11.4563 23.8843C11.5327 23.8197 11.5974 23.7491 11.6621 23.6728C11.7268 23.5964 11.7797 23.52 11.8268 23.4318C11.8797 23.3437 11.915 23.2497 11.9385 23.1498C11.962 23.0558 11.9797 22.95 11.9797 22.8384V17.3971C11.9797 17.1621 11.9444 16.9505 11.8797 16.7625C11.815 16.5745 11.715 16.4041 11.5856 16.263C11.4327 16.1103 11.2681 15.9927 11.074 15.9163C10.8858 15.8341 10.6682 15.7988 10.433 15.7988H5.18148C4.98741 15.7988 4.79922 15.8282 4.6228 15.8987C4.44638 15.9634 4.27584 16.0633 4.11705 16.1984C4.0406 16.2689 3.97592 16.3453 3.91123 16.4276C3.85242 16.504 3.79949 16.5862 3.75245 16.6744C3.7054 16.7625 3.67599 16.8565 3.65247 16.9505C3.62895 17.0504 3.61719 17.1562 3.61719 17.2678V30.1717C3.61719 30.442 3.66423 30.6829 3.75245 30.8944C3.84066 31.1119 3.97003 31.2999 4.14058 31.4586C4.31112 31.6172 4.50519 31.7289 4.72865 31.8052C4.95801 31.8875 5.21088 31.9228 5.49316 31.9228H8.78639L8.79816 31.8934L9.40976 30.6006L9.43328 30.5419H5.88717C5.83424 30.5419 5.78131 30.5301 5.72839 30.5066L5.73427 30.5184ZM5.45199 17.5323C5.45199 17.4853 5.46375 17.4441 5.47551 17.403C5.49316 17.3619 5.52256 17.3207 5.55785 17.2855C5.59313 17.2502 5.63429 17.2208 5.67546 17.2032C5.71662 17.1856 5.75779 17.1797 5.80484 17.1797H9.73908C9.77437 17.1797 9.80377 17.1797 9.83317 17.1856C9.85082 17.1915 9.86846 17.1973 9.88022 17.2032C9.92138 17.2208 9.95667 17.2502 9.98607 17.2855C10.0155 17.3207 10.039 17.3619 10.0508 17.4089C10.0684 17.4559 10.0743 17.5088 10.0743 17.5675V19.2481H5.44611V17.5264L5.45199 17.5323ZM5.45199 20.5761H10.0802V22.4447C10.0802 22.5034 10.0743 22.5504 10.0508 22.5974C10.0331 22.6386 10.0037 22.6797 9.96255 22.7091C9.92726 22.7443 9.8861 22.7678 9.83905 22.7855H9.82729C9.78025 22.8031 9.72144 22.809 9.66263 22.809H5.44611V20.5702L5.45199 20.5761Z" fill="black"/>
<path d="M28.0413 22.0382C28.1413 21.8913 28.2472 21.7385 28.3412 21.5858C28.4412 21.4271 28.5353 21.2743 28.6294 21.1274C28.6647 21.0746 28.6941 21.0275 28.7235 20.9747C28.7823 20.8689 28.847 20.769 28.9058 20.6632C28.994 20.5163 29.0763 20.3635 29.1587 20.2108C29.2351 20.058 29.3175 19.917 29.3763 19.7818C29.4233 19.6937 29.4645 19.6114 29.5056 19.5291C29.5233 19.488 29.5468 19.4469 29.5644 19.4057C29.6762 19.1472 29.7232 18.918 29.7174 18.7124C29.7056 18.5067 29.635 18.3246 29.5056 18.1718L29.4998 18.16C29.3645 17.9955 29.1822 17.8721 28.947 17.7957C28.8764 17.7722 28.8058 17.7487 28.7235 17.7311C28.5412 17.6899 28.3354 17.6723 28.106 17.6723H27.1827C27.1063 17.5019 27.0357 17.3315 26.9651 17.1552C26.8946 16.9731 26.824 16.785 26.7593 16.597C26.6946 16.4031 26.6299 16.2209 26.5711 16.0388C26.5123 15.8507 26.4594 15.6686 26.4065 15.4864L26.3947 15.457H24.4776L24.4893 15.5099C24.5305 15.7038 24.5775 15.8977 24.6246 16.0858C24.6775 16.2738 24.7363 16.456 24.7951 16.6381C24.8539 16.8262 24.9186 17.0083 24.9892 17.1846C25.048 17.3432 25.1127 17.5078 25.1774 17.6723H22.9486V19.1061H27.4591C27.5297 19.1061 27.5767 19.1237 27.5944 19.1472C27.6062 19.1707 27.6062 19.2118 27.5767 19.2706C27.2886 19.8406 26.9651 20.3929 26.6123 20.9335C26.2536 21.4741 25.8713 21.9971 25.4479 22.5083C25.0245 23.0195 24.5834 23.5249 24.1188 24.0243C23.6543 24.5238 23.172 25.0115 22.6663 25.4934L22.5898 25.5639H25.1715L25.1833 25.5462L25.2891 25.4522L25.4126 25.3347C25.4655 25.2877 25.5126 25.2407 25.5479 25.1996L25.5714 25.1819V31.8983H27.465V22.8491C27.5532 22.7257 27.6473 22.5965 27.7473 22.4613C27.8473 22.3203 27.9472 22.1793 28.0472 22.0324L28.0413 22.0382Z" fill="black"/>
<path d="M30.7983 27.2274C30.7219 27.0981 30.6513 26.963 30.5807 26.8102C30.516 26.6574 30.4455 26.4988 30.3866 26.3284C30.322 26.1579 30.2573 25.9817 30.1985 25.7995C30.1514 25.6644 30.1044 25.5233 30.0632 25.3882C30.0456 25.347 30.0338 25.3059 30.022 25.2589C29.9632 25.0767 29.9103 24.8946 29.8633 24.7124C29.8103 24.5303 29.7692 24.354 29.728 24.1718C29.6868 23.9956 29.6516 23.8251 29.6163 23.6606C29.581 23.4961 29.5516 23.3433 29.5281 23.1905L29.5222 23.1553H27.7227L27.7344 23.2023C27.7873 23.5313 27.852 23.8722 27.9226 24.2247C27.9991 24.5773 28.0814 24.9357 28.1755 25.3059C28.2696 25.6702 28.3695 26.0169 28.4695 26.3519C28.5518 26.6104 28.6283 26.8513 28.7165 27.0805C28.74 27.1451 28.7636 27.2039 28.7812 27.2626L28.793 27.292H30.8277L30.7924 27.2274H30.7983Z" fill="black"/>
<path d="M20.2312 16.1742C20.0724 16.0097 19.8842 15.8922 19.6666 15.8099C19.449 15.7277 19.202 15.6865 18.9256 15.6865H14.9502C14.6915 15.6865 14.4504 15.7218 14.2387 15.7864C14.0152 15.8511 13.8211 15.9451 13.6506 16.0743C13.4565 16.2154 13.3095 16.3917 13.2095 16.5973C13.1095 16.803 13.0625 17.038 13.0625 17.3083V31.9221H14.9796V17.4787C14.9796 17.42 14.9914 17.3671 15.009 17.3201C15.0267 17.2789 15.0502 17.2378 15.0855 17.2025C15.1267 17.1732 15.1619 17.1497 15.2031 17.132C15.2443 17.1144 15.2913 17.1085 15.3384 17.1085H18.4199C18.4728 17.1085 18.5199 17.1144 18.5669 17.1379C18.6081 17.1555 18.6434 17.1849 18.6786 17.2319C18.7139 17.2731 18.7375 17.3201 18.7551 17.3612C18.7727 17.4023 18.7786 17.4376 18.7786 17.4787V27.944C18.7786 28.0968 18.7433 28.2084 18.6669 28.2848C18.5904 28.3553 18.4728 28.3906 18.3199 28.3906H15.8206L15.8441 28.4493L16.4145 29.7245L16.4263 29.748H18.9903C19.255 29.748 19.4961 29.7186 19.7019 29.6598C19.9136 29.6069 20.09 29.5188 20.2312 29.4013C20.39 29.272 20.5017 29.1192 20.5781 28.9312C20.6605 28.749 20.6958 28.5257 20.6958 28.2789V17.4376C20.6958 17.1732 20.6605 16.9322 20.5781 16.7207C20.5017 16.5092 20.39 16.3211 20.2371 16.1742H20.2312Z" fill="black"/>
<path d="M37.6621 30.63C37.6209 30.63 37.5739 30.6183 37.5268 30.5948C37.468 30.5772 37.4151 30.5478 37.3504 30.5008C37.2916 30.4596 37.2504 30.4185 37.221 30.3715C37.1916 30.3245 37.1799 30.2716 37.1799 30.2187V26.8047H35.7097C35.745 26.6755 35.7744 26.5462 35.8038 26.411C35.839 26.27 35.8626 26.1231 35.8861 25.9821C35.9096 25.8411 35.9331 25.6942 35.9567 25.5531C35.9743 25.4062 35.9978 25.2593 36.0155 25.1065C36.0272 24.9596 36.0449 24.801 36.0566 24.6423C36.0684 24.4837 36.0743 24.3192 36.086 24.1487C36.0919 23.9842 36.0978 23.8021 36.0978 23.614C36.0978 23.4201 36.1037 23.2262 36.1037 23.0205V18.1963H34.2689V23.2145C34.2689 23.708 34.2512 24.1781 34.216 24.613C34.1807 25.0478 34.1219 25.4532 34.0513 25.8234C33.9748 26.1936 33.8807 26.5462 33.7573 26.887C33.6338 27.2278 33.4926 27.551 33.3221 27.8624C33.1221 28.2385 32.881 28.5969 32.6046 28.9436C32.3282 29.2903 32.0165 29.6194 31.6696 29.9425C31.3167 30.2657 30.9286 30.5948 30.4934 30.9297C30.2935 31.0884 30.0759 31.2529 29.8524 31.4116C29.6701 31.5467 29.4819 31.676 29.2937 31.8111C29.2232 31.8581 29.1526 31.911 29.082 31.958L29.1056 32.0344H31.8813L31.9107 32.0227C32.3165 31.7406 32.6928 31.4351 33.0457 31.106C33.3926 30.777 33.7102 30.4303 33.9984 30.0542C34.2865 29.684 34.5512 29.3021 34.7923 28.9201C34.9569 28.6557 35.1098 28.3854 35.251 28.1151C35.2863 28.0505 35.3157 27.9917 35.3509 27.9271V30.6183C35.3509 30.8768 35.398 31.106 35.4921 31.3058C35.5862 31.5056 35.7273 31.676 35.9155 31.817C36.0978 31.9463 36.3036 32.0403 36.5389 32.1049C36.7741 32.1696 37.0328 32.199 37.321 32.199C38.0385 32.199 38.9265 32.2753 39.7968 32.246V30.6065C39.1911 30.6712 38.5148 30.63 37.668 30.63H37.6621Z" fill="black"/>
<path d="M38.5802 31.8228C38.5861 31.9638 38.5978 32.1048 38.6037 32.2459L39.9328 32.2341L39.9386 32.1989L40.3327 30.677L40.3503 30.6064L38.5508 30.6299C38.5567 31.0295 38.5684 31.4232 38.5802 31.8228Z" fill="black"/>
<path d="M11.9805 40.0966V37.3995H12.3392V40.0966H11.9805ZM13.8035 38.1164C14.027 38.1164 14.2093 38.1869 14.3445 38.3338C14.4798 38.4748 14.5504 38.6629 14.5504 38.9097V40.0966H14.2152V38.9332C14.2152 38.7745 14.174 38.657 14.0858 38.5689C14.0035 38.4807 13.8858 38.4337 13.7388 38.4337C13.5683 38.4337 13.4271 38.4925 13.333 38.5982C13.2272 38.704 13.1801 38.8627 13.1801 39.0742V40.0966H12.8449V38.1693H13.1801V38.4455C13.3154 38.228 13.5212 38.1223 13.8035 38.1223V38.1164ZM15.2678 38.6864C15.2678 38.8156 15.3972 38.9097 15.6501 38.9802C15.7442 38.9978 15.8265 39.0213 15.8912 39.0389C15.9559 39.0624 16.0264 39.0977 16.1029 39.1388C16.1852 39.1858 16.244 39.2387 16.2852 39.3151C16.3264 39.3856 16.344 39.4738 16.344 39.5678C16.344 39.7441 16.2793 39.8851 16.1441 39.9909C16.0088 40.0966 15.8324 40.1495 15.6207 40.1495C15.4384 40.1495 15.2737 40.1084 15.1443 40.0261C15.0091 39.9439 14.915 39.8381 14.8562 39.6971L15.1443 39.5267C15.1737 39.6207 15.2325 39.6971 15.3208 39.7499C15.4031 39.8028 15.5031 39.8263 15.6266 39.8263C15.7501 39.8263 15.8324 39.8087 15.9029 39.7676C15.9735 39.7206 16.0088 39.6559 16.0088 39.5678C16.0088 39.4385 15.8794 39.3445 15.6324 39.2857C15.5442 39.2622 15.4795 39.2446 15.4384 39.2328C15.3913 39.2152 15.3325 39.1917 15.2561 39.1623C15.1796 39.1271 15.1267 39.0918 15.0855 39.0566C15.0502 39.0154 15.015 38.9684 14.9797 38.9038C14.9503 38.8392 14.9326 38.7686 14.9326 38.6922C14.9326 38.5218 14.9973 38.3867 15.1267 38.2809C15.2561 38.1693 15.4148 38.1164 15.6148 38.1164C15.7736 38.1164 15.9147 38.1517 16.0323 38.2222C16.1558 38.2927 16.2499 38.3926 16.3146 38.516L16.0323 38.6746C15.9618 38.5101 15.8206 38.4278 15.6148 38.4278C15.5207 38.4278 15.4384 38.4513 15.3678 38.4983C15.309 38.5453 15.2737 38.61 15.2737 38.6864H15.2678ZM17.6848 38.1693V38.4925H17.1732V39.5384C17.1732 39.6324 17.1908 39.7029 17.2261 39.7441C17.2614 39.7793 17.3202 39.8028 17.4025 39.8028C17.479 39.8028 17.5731 39.8028 17.6848 39.797V40.0966C17.3908 40.1319 17.1732 40.1084 17.0379 40.0202C16.9027 39.9321 16.8321 39.7734 16.8321 39.5384V38.4925H16.4557V38.1693H16.8321V37.7286L17.1732 37.6287V38.1634H17.6848V38.1693ZM19.5432 38.4983V38.1693H19.8784V40.0966H19.5432V39.7617C19.3785 40.0144 19.1315 40.1436 18.8081 40.1436C18.5375 40.1436 18.3082 40.0437 18.12 39.8498C17.9259 39.65 17.8318 39.4091 17.8318 39.1271C17.8318 38.845 17.9259 38.61 18.12 38.4102C18.3141 38.2163 18.5434 38.1164 18.8081 38.1164C19.1315 38.1164 19.3785 38.2457 19.5432 38.4983ZM18.8551 39.8205C19.0492 39.8205 19.2138 39.7558 19.3432 39.6265C19.4785 39.4914 19.5432 39.3269 19.5432 39.133C19.5432 38.939 19.4785 38.7745 19.3432 38.6394C19.2138 38.5042 19.055 38.4396 18.8551 38.4396C18.6552 38.4396 18.5023 38.5042 18.367 38.6394C18.2376 38.7745 18.1729 38.9332 18.1729 39.133C18.1729 39.3327 18.2376 39.4914 18.367 39.6265C18.5023 39.7558 18.661 39.8205 18.8551 39.8205ZM21.4956 40.0966H21.0898L20.1253 37.3995H20.5076L21.2956 39.6442L22.0778 37.3995H22.4659L21.4956 40.0966ZM22.8011 37.8167C22.7364 37.8167 22.6835 37.7991 22.6364 37.7521C22.5953 37.7109 22.5718 37.6581 22.5718 37.5934C22.5718 37.5347 22.5953 37.4818 22.6364 37.4348C22.6835 37.3878 22.7364 37.3643 22.8011 37.3643C22.8599 37.3643 22.9128 37.3878 22.954 37.4348C23.0011 37.4818 23.0187 37.5347 23.0187 37.5934C23.0187 37.6581 23.0011 37.7109 22.954 37.7521C22.9128 37.7991 22.8599 37.8167 22.8011 37.8167ZM22.9658 40.0966H22.6247V38.1693H22.9658V40.0966ZM25.2887 39.2857H23.6715C23.7067 39.4503 23.7832 39.5854 23.9067 39.6853C24.0361 39.7793 24.189 39.8263 24.3713 39.8263C24.63 39.8263 24.8123 39.7323 24.9299 39.5443L25.2181 39.7029C25.024 39.9909 24.7418 40.1436 24.3654 40.1436C24.0655 40.1436 23.8126 40.0496 23.6185 39.8557C23.4303 39.6618 23.3363 39.4209 23.3363 39.1271C23.3363 38.8333 23.4303 38.5924 23.6185 38.4043C23.8067 38.2104 24.0478 38.1164 24.3477 38.1164C24.63 38.1164 24.8594 38.2163 25.0358 38.4102C25.2181 38.61 25.3063 38.845 25.3063 39.1271C25.3063 39.18 25.3004 39.227 25.2946 39.2799L25.2887 39.2857ZM24.3419 38.4337C24.1596 38.4337 24.0125 38.4807 23.8949 38.5865C23.7773 38.6864 23.7009 38.8215 23.6715 38.9919H24.9652C24.9358 38.8156 24.8653 38.6746 24.7535 38.5747C24.6359 38.4807 24.5007 38.4278 24.3419 38.4278V38.4337ZM27.4175 39.6383L27.8468 38.1693H28.1938L27.5939 40.0966H27.2529L26.8 38.6687L26.3472 40.0966H26.0061L25.4063 38.1693H25.7591L26.1826 39.6324L26.6354 38.1693H26.9588L27.4116 39.6383H27.4175Z" fill="black"/>
<path d="M29.2354 37.3105H33.0168C33.2109 37.3105 33.3108 37.4104 33.3108 37.6044V40.1663C33.3108 40.3602 33.2109 40.4601 33.0168 40.4601H29.2354C29.0414 40.4601 28.9414 40.3602 28.9414 40.1663V37.6044C28.9414 37.4104 29.0414 37.3105 29.2354 37.3105Z" fill="#98B0B4"/>
<path d="M32.086 40.0024V37.7988H32.5976V40.0024H32.086ZM30.6158 39.5323V39.1444H30.9686L30.6158 38.3042L30.7158 38.0574H30.6158V37.7988H30.8746L31.8566 40.0024H31.3215L31.1274 39.5323H30.6158ZM30.6158 37.7988V38.0574H30.5158L30.6158 38.3042L30.2688 39.1444H30.6158V39.5323H30.1042L29.9101 40.0024H29.3867L30.3688 37.7988H30.6217H30.6158Z" fill="#D7EEA1"/>
<path d="M30.4378 38.0518H30.7847C30.8259 38.0518 30.8553 38.0753 30.8553 38.0988V38.3279C30.8553 38.3514 30.8259 38.3749 30.7847 38.3749H30.4378C30.3966 38.3749 30.3672 38.3514 30.3672 38.3279V38.0988C30.3672 38.0753 30.3966 38.0518 30.4378 38.0518Z" fill="#D7EEA1"/>
</svg>
