<svg width="24" height="25" viewBox="0 0 24 25" fill="none" xmlns="http://www.w3.org/2000/svg">
<path fill-rule="evenodd" clip-rule="evenodd" d="M5 3.18164H19C20.1046 3.18164 21 4.07707 21 5.18164V19.1816C21 20.2862 20.1046 21.1816 19 21.1816H5C3.89543 21.1816 3 20.2862 3 19.1816V5.18164C3 4.07707 3.89543 3.18164 5 3.18164ZM8 18.1816C8.27614 18.1816 8.5 17.9577 8.5 17.6816V10.6816C8.5 10.4055 8.27614 10.1816 8 10.1816H6.5C6.22386 10.1816 6 10.4055 6 10.6816V17.6816C6 17.9577 6.22386 18.1816 6.5 18.1816H8ZM7.25 9.18164C6.42157 9.18164 5.75 8.51007 5.75 7.68164C5.75 6.85321 6.42157 6.18164 7.25 6.18164C8.07843 6.18164 8.75 6.85321 8.75 7.68164C8.75 8.51007 8.07843 9.18164 7.25 9.18164ZM17.5 18.1816C17.7761 18.1816 18 17.9577 18 17.6816V13.0816C18.0325 11.4924 16.8576 10.1362 15.28 9.94164C14.177 9.84089 13.1083 10.356 12.5 11.2816V10.6816C12.5 10.4055 12.2761 10.1816 12 10.1816H10.5C10.2239 10.1816 10 10.4055 10 10.6816V17.6816C10 17.9577 10.2239 18.1816 10.5 18.1816H12C12.2761 18.1816 12.5 17.9577 12.5 17.6816V13.9316C12.5 13.1032 13.1716 12.4316 14 12.4316C14.8284 12.4316 15.5 13.1032 15.5 13.9316V17.6816C15.5 17.9577 15.7239 18.1816 16 18.1816H17.5Z" fill="black"/>
</svg>
