<svg width="269" height="72" viewBox="0 0 269 72" fill="none" xmlns="http://www.w3.org/2000/svg">
<mask id="mask0_10383_57811" style="mask-type:luminance" maskUnits="userSpaceOnUse" x="0" y="4" width="24" height="24">
<path d="M0.722656 4.5459H23.8581V27.1344H0.722656V4.5459Z" fill="white"/>
</mask>
<g mask="url(#mask0_10383_57811)">
<path d="M14.1068 5.30103H4.16406C2.67969 5.30103 1.47656 6.50415 1.47656 7.98332V17.9312" stroke="black" stroke-width="1.50898" stroke-linecap="round"/>
</g>
<mask id="mask1_10383_57811" style="mask-type:luminance" maskUnits="userSpaceOnUse" x="0" y="48" width="24" height="24">
<path d="M0.722656 48.4678H23.8581V71.5459H0.722656V48.4678Z" fill="white"/>
</mask>
<g mask="url(#mask1_10383_57811)">
<path d="M14.1068 70.7907H4.16406C2.67969 70.7907 1.47656 69.5876 1.47656 68.1032V58.1553" stroke="black" stroke-width="1.50898" stroke-linecap="round"/>
</g>
<mask id="mask2_10383_57811" style="mask-type:luminance" maskUnits="userSpaceOnUse" x="45" y="4" width="23" height="24">
<path d="M45.1914 4.5459H67.7227V27.1344H45.1914V4.5459Z" fill="white"/>
</mask>
<g mask="url(#mask2_10383_57811)">
<path d="M54.3359 5.30103H64.2838C65.763 5.30103 66.9661 6.50415 66.9661 7.98332V17.9312" stroke="black" stroke-width="1.50898" stroke-linecap="round"/>
</g>
<mask id="mask3_10383_57811" style="mask-type:luminance" maskUnits="userSpaceOnUse" x="45" y="48" width="23" height="24">
<path d="M45.1914 48.4678H67.7227V71.5459H45.1914V48.4678Z" fill="white"/>
</mask>
<g mask="url(#mask3_10383_57811)">
<path d="M54.3359 70.7907H64.2838C65.763 70.7907 66.9661 69.5876 66.9661 68.1032V58.1553" stroke="black" stroke-width="1.50898" stroke-linecap="round"/>
</g>
<path d="M16.974 49.1081C16.4635 48.2591 16.0052 47.3945 15.5885 46.5091C15.1719 45.6185 14.8073 44.7227 14.4844 43.8008C14.2448 43.1185 14.0417 42.431 13.8542 41.7227C13.7917 41.4831 13.7292 41.2331 13.6719 40.9831L13.6615 40.9258H10.3281L10.349 41.0143C10.6042 41.9518 10.8906 42.8841 11.1979 43.8008C11.5104 44.7174 11.8437 45.6133 12.2083 46.5039C12.5677 47.3893 12.9688 48.2643 13.401 49.1289C13.5521 49.4258 13.7031 49.7174 13.8542 50.0091C14.1562 50.5664 14.474 51.1289 14.8073 51.6758L14.8281 51.7122H18.724L18.6406 51.5977C18.0417 50.7852 17.4844 49.957 16.974 49.1081Z" fill="black"/>
<path d="M62.6966 26.0358C62.3633 25.7077 61.9779 25.4577 61.5247 25.2962C61.0768 25.14 60.5716 25.0566 60.0039 25.0566H52.0247C51.5456 25.0566 51.1185 25.1139 50.7331 25.2389C50.3424 25.3587 49.9987 25.541 49.7018 25.7858C49.5456 25.9368 49.3997 26.0983 49.2695 26.2702C49.1445 26.4421 49.0299 26.6296 48.9206 26.8275C48.8164 27.0306 48.7435 27.2441 48.6914 27.4785C48.6393 27.7129 48.6133 27.9577 48.6133 28.2233V42.5931H51.6029V28.2546C51.6029 28.14 51.6237 28.0202 51.6758 27.9108C51.7227 27.7962 51.8008 27.6712 51.8997 27.5566C51.9987 27.4421 52.1185 27.3587 52.2487 27.2962C52.3893 27.2389 52.5456 27.2077 52.7279 27.2077H59.3424C59.4883 27.2077 59.6289 27.2285 59.7695 27.2754C59.9049 27.3171 60.0352 27.39 60.1602 27.4837C60.2904 27.5775 60.3841 27.6712 60.4466 27.7806C60.5039 27.8796 60.5352 27.9837 60.5352 28.0931L60.5664 42.5723V42.6452H63.5924V28.4056C63.5924 27.9212 63.5195 27.4837 63.3685 27.0931C63.2174 26.6973 62.9987 26.3431 62.7018 26.0358H62.6966Z" fill="black"/>
<path d="M7.09375 49.3848C7.01042 49.3535 6.93229 49.3014 6.85417 49.2389C6.77604 49.1712 6.72396 49.0983 6.68229 49.0254C6.64583 48.9525 6.625 48.8743 6.625 48.791V39.0254H14.8385C15.1615 39.0254 15.4583 38.9733 15.7448 38.8796C16.026 38.7858 16.2865 38.64 16.526 38.4473C16.651 38.3431 16.7656 38.2233 16.8698 38.0983C16.974 37.9733 17.0625 37.8431 17.1406 37.6973C17.224 37.5514 17.2812 37.4004 17.3229 37.2389C17.3646 37.0775 17.3854 36.9056 17.3854 36.7233V27.7441C17.3854 27.3587 17.3281 27.0098 17.224 26.6973C17.1146 26.3848 16.9531 26.1087 16.7344 25.8743C16.4896 25.6191 16.2135 25.4264 15.8958 25.2962C15.5833 25.1712 15.224 25.1035 14.8385 25.1035H6.18229C5.85937 25.1035 5.55729 25.1608 5.26042 25.2702C4.96875 25.3796 4.69271 25.5462 4.43229 25.7702C4.30208 25.8848 4.19271 26.015 4.09375 26.14C3.99479 26.2702 3.90104 26.4108 3.83333 26.5514C3.75521 26.6973 3.69792 26.8535 3.66667 27.015C3.625 27.1764 3.60938 27.3483 3.60938 27.5306V48.8223C3.60938 49.265 3.68229 49.6608 3.82812 50.015C3.96875 50.3691 4.1875 50.6816 4.46875 50.9473C4.74479 51.2025 5.06771 51.39 5.44271 51.515C5.8125 51.6452 6.22917 51.7077 6.69271 51.7077H12.125L12.1458 51.6608L13.151 49.5254L13.1979 49.4264H7.34896C7.26042 49.4264 7.17188 49.4108 7.08854 49.3743L7.09375 49.3848ZM6.625 27.9681C6.625 27.8952 6.64583 27.8223 6.67188 27.7546C6.69792 27.6921 6.75 27.6244 6.80729 27.5618C6.86458 27.4994 6.92708 27.4577 7 27.4316C7.06771 27.4004 7.13542 27.3848 7.21354 27.3848H13.6979C13.75 27.3848 13.8073 27.39 13.849 27.4004C13.8802 27.4056 13.9062 27.416 13.9271 27.4316C13.9948 27.4577 14.0521 27.4994 14.099 27.5566C14.151 27.6191 14.1875 27.6868 14.2135 27.7598C14.2396 27.8379 14.25 27.9264 14.25 28.0202V30.8014H6.61979V27.9629L6.625 27.9681ZM6.625 32.9889H14.2604V36.0723C14.2604 36.166 14.2448 36.2493 14.2135 36.3223C14.1771 36.3952 14.1354 36.4629 14.0677 36.5098C14.0052 36.5671 13.9323 36.6035 13.8542 36.6348H13.8438C13.7604 36.666 13.6667 36.6764 13.5677 36.6764H6.61979V32.9785L6.625 32.9889Z" fill="black"/>
<path d="M43.8646 35.3997C44.0312 35.1549 44.1979 34.9049 44.3594 34.6497C44.526 34.3945 44.6771 34.1445 44.8333 33.8997C44.8854 33.8164 44.9323 33.7331 44.9844 33.6497C45.0833 33.4779 45.1875 33.3112 45.2865 33.1393C45.4271 32.8893 45.5677 32.6393 45.6979 32.3893C45.8333 32.1393 45.9635 31.8997 46.0677 31.6862C46.1406 31.5404 46.2031 31.3997 46.2708 31.2695C46.3073 31.1966 46.3385 31.1237 46.3698 31.056C46.5521 30.6341 46.6354 30.2539 46.6198 29.9154C46.6042 29.5768 46.4896 29.2747 46.276 29.0195L46.2656 29.0039C46.0417 28.7383 45.7448 28.5299 45.3542 28.3997C45.2396 28.3581 45.1198 28.3268 44.9844 28.3008C44.6875 28.2331 44.349 28.207 43.9635 28.207H42.4427C42.3177 27.9206 42.1979 27.6341 42.0833 27.3477C41.9687 27.0456 41.849 26.7331 41.7448 26.4258C41.6406 26.1081 41.5365 25.8008 41.4375 25.5039C41.3385 25.1966 41.25 24.8997 41.1615 24.5977L41.1458 24.5508H37.9896L38.0052 24.6341C38.0729 24.9518 38.151 25.2695 38.2344 25.582C38.3177 25.8893 38.4115 26.1966 38.5104 26.4987C38.6094 26.8008 38.7135 27.1029 38.8281 27.3945C38.9271 27.6602 39.0312 27.9258 39.1406 28.2018H35.4688V30.5664H42.901C43.0156 30.5664 43.0938 30.5924 43.1198 30.6289C43.1458 30.6706 43.1406 30.7383 43.099 30.8424C42.6198 31.7799 42.0885 32.6862 41.5052 33.582C40.9167 34.4674 40.2812 35.3372 39.5885 36.181C38.8906 37.0247 38.1615 37.8581 37.3958 38.681C36.6302 39.4987 35.8333 40.306 35 41.0977L34.875 41.2122H39.125L39.1458 41.1914L39.3229 41.0299L39.5312 40.8372C39.6146 40.7591 39.6927 40.6862 39.7552 40.6185L39.7865 40.5872V51.6706H42.9115V36.7383C43.0573 36.5404 43.2135 36.3268 43.375 36.1029C43.5417 35.8737 43.7031 35.6393 43.8698 35.3893L43.8646 35.3997Z" fill="black"/>
<path d="M48.4062 43.9681C48.2865 43.7493 48.1667 43.5254 48.0521 43.2754C47.9427 43.0254 47.8281 42.7598 47.724 42.4733C47.6198 42.1973 47.5208 41.9108 47.4167 41.6087C47.3385 41.3796 47.2656 41.1556 47.1927 40.9316C47.1719 40.8587 47.1458 40.7858 47.125 40.7181C47.0312 40.416 46.9427 40.1191 46.8646 39.8118C46.7812 39.5098 46.7083 39.2181 46.6458 38.9264C46.5781 38.6296 46.5156 38.3483 46.4583 38.0827C46.4062 37.8066 46.3542 37.5514 46.3125 37.3066L46.2969 37.2441H43.3438L43.3542 37.3223C43.4427 37.8691 43.5469 38.4316 43.6719 39.015C43.7917 39.5879 43.9323 40.1816 44.0833 40.7962C44.2396 41.4004 44.401 41.9681 44.5677 42.515C44.7031 42.9421 44.8333 43.3379 44.974 43.7181C45.0104 43.8223 45.0521 43.9212 45.0833 44.0202L45.099 44.0671H48.4531L48.3958 43.9681H48.4062Z" fill="black"/>
<path d="M30.9935 25.7279C30.7279 25.457 30.4154 25.2591 30.056 25.1237C29.6914 24.9935 29.2904 24.9258 28.832 24.9258H22.2852C21.8529 24.9258 21.4622 24.9831 21.1081 25.0872C20.7435 25.1914 20.4258 25.3529 20.1393 25.5664C19.8164 25.7956 19.5768 26.0872 19.4154 26.4258C19.2539 26.7643 19.1758 27.1549 19.1758 27.5924V51.7122H22.332V27.8789C22.332 27.7852 22.3477 27.6966 22.3737 27.6237C22.4049 27.5508 22.4466 27.4831 22.5091 27.431C22.5716 27.3737 22.6289 27.332 22.7018 27.306C22.7695 27.2799 22.8477 27.2695 22.9258 27.2695H28.0039C28.0924 27.2695 28.1706 27.2852 28.2383 27.3164C28.3112 27.3529 28.3737 27.3997 28.431 27.4727C28.4831 27.5456 28.5299 27.6185 28.556 27.6862C28.582 27.7487 28.5977 27.8164 28.5977 27.8789V45.1497C28.5977 45.3997 28.5352 45.582 28.4049 45.7018C28.2852 45.8268 28.0924 45.8789 27.8372 45.8789H23.7122L23.7591 45.9727L24.6966 48.0768L24.7122 48.1237H28.9414C29.3841 48.1237 29.7695 48.0716 30.1133 47.9779C30.457 47.8841 30.7539 47.7383 30.9935 47.5456C31.2487 47.3372 31.4362 47.082 31.5612 46.7747C31.6914 46.4674 31.7539 46.1081 31.7539 45.6966V27.8112C31.7539 27.3737 31.6914 26.9779 31.5612 26.6289C31.4362 26.2799 31.2487 25.9727 30.9987 25.7279H30.9935Z" fill="black"/>
<path d="M59.7161 49.5716C59.6484 49.5716 59.5703 49.5508 59.487 49.5195C59.3984 49.4883 59.3099 49.4362 59.2057 49.3633C59.1068 49.2956 59.0391 49.2279 58.9922 49.1497C58.9453 49.0716 58.9193 48.9883 58.9193 48.8997V43.2695H56.4974C56.5547 43.0508 56.612 42.832 56.6536 42.6185C56.7109 42.3789 56.7526 42.1393 56.7943 41.9102C56.8307 41.6758 56.8724 41.4362 56.9036 41.1966C56.9349 40.9518 56.9714 40.7122 56.9974 40.4674C57.0286 40.2174 57.0495 39.9622 57.0703 39.7018C57.0859 39.4414 57.1016 39.1654 57.1172 38.8841C57.1276 38.6081 57.138 38.3112 57.138 38.0039C57.138 37.681 57.1484 37.3581 57.1484 37.0247V29.0664H54.1224V37.3372C54.1224 38.1602 54.0911 38.931 54.0339 39.6497C53.9766 40.3633 53.8828 41.0299 53.763 41.6393C53.6432 42.2539 53.4818 42.8424 53.2839 43.3997C53.0807 43.9622 52.8411 44.4987 52.5651 45.0091C52.2318 45.6237 51.8411 46.2174 51.3828 46.7904C50.9297 47.3633 50.4141 47.9102 49.8359 48.4414C49.2578 48.9727 48.6172 49.5143 47.9036 50.0664C47.5651 50.3372 47.2109 50.6029 46.8411 50.8685C46.5391 51.082 46.237 51.3008 45.9193 51.5247C45.8047 51.5977 45.6849 51.681 45.5703 51.7591L45.612 51.8893H50.1901L50.237 51.8737C50.9089 51.4049 51.5286 50.8997 52.1068 50.3633C52.6745 49.8216 53.2057 49.2435 53.6797 48.6289C54.1536 48.0091 54.5911 47.3841 54.987 46.7487C55.2578 46.3112 55.513 45.8685 55.7422 45.4258C55.7995 45.3216 55.8516 45.2227 55.9036 45.1133V49.556C55.9036 49.9779 55.9818 50.3581 56.138 50.6862C56.2943 51.0195 56.5286 51.2956 56.8359 51.5352C57.138 51.7435 57.4766 51.9049 57.862 52.0091C58.2526 52.1185 58.6797 52.1654 59.1589 52.1654C60.3307 52.1654 61.8047 52.2904 63.237 52.2435V49.5299C62.2422 49.6393 61.1276 49.5716 59.7214 49.5716H59.7161Z" fill="black"/>
<path d="M61.2318 51.5404C61.2422 51.7695 61.2526 52.0091 61.263 52.2435L63.4557 52.2174L63.4661 52.1654L64.1172 49.6549L64.1432 49.5352L61.1797 49.5768C61.1901 50.2279 61.2109 50.8841 61.2318 51.5404Z" fill="black"/>
<path d="M17.3828 65.1865V60.7386H17.9766V65.1865H17.3828ZM20.388 61.9261C20.763 61.9261 21.0599 62.0407 21.2891 62.2803C21.5078 62.5146 21.6276 62.8271 21.6276 63.2334V65.1865H21.0703V63.2646C21.0703 63.0094 20.9974 62.8115 20.862 62.6657C20.7214 62.5251 20.5286 62.4521 20.2839 62.4521C20.0026 62.4521 19.7734 62.5407 19.612 62.7178C19.4453 62.8896 19.362 63.1501 19.362 63.499V65.1865H18.8099V62.0094H19.362V62.4678C19.5859 62.1084 19.9297 61.9313 20.3932 61.9313L20.388 61.9261ZM22.8099 62.8688C22.8099 63.0719 23.0182 63.2282 23.4349 63.3428C23.5911 63.3792 23.7214 63.4157 23.8307 63.4521C23.9401 63.4834 24.0547 63.5407 24.1849 63.6136C24.3151 63.6813 24.4141 63.7751 24.4818 63.9001C24.5495 64.0146 24.5807 64.1605 24.5807 64.3219C24.5807 64.6084 24.4714 64.8428 24.2422 65.0146C24.0234 65.1865 23.7318 65.2751 23.388 65.2751C23.0859 65.2751 22.8203 65.2074 22.5964 65.0771C22.3724 64.9417 22.2214 64.7594 22.1276 64.5251L22.6016 64.2542C22.6536 64.4105 22.7474 64.5251 22.8932 64.6136C23.0286 64.7021 23.1953 64.749 23.3932 64.749C23.5964 64.749 23.7422 64.7126 23.8568 64.6449C23.9714 64.5719 24.0286 64.4678 24.0286 64.3219C24.0286 64.1032 23.8151 63.9521 23.4036 63.848C23.263 63.8115 23.1589 63.7855 23.0859 63.7594C23.013 63.7386 22.9141 63.7021 22.7839 63.6449C22.6641 63.5876 22.5703 63.5355 22.5078 63.473C22.4453 63.4105 22.388 63.3271 22.3307 63.223C22.2786 63.1188 22.2526 62.999 22.2526 62.874C22.2526 62.598 22.3568 62.3688 22.5703 62.1917C22.7839 62.0146 23.0495 61.9261 23.3776 61.9261C23.638 61.9261 23.8672 61.9834 24.0651 62.1032C24.2734 62.2178 24.4245 62.3792 24.5286 62.5824L24.0599 62.848C23.9453 62.5719 23.7161 62.4417 23.3776 62.4417C23.2161 62.4417 23.0859 62.4782 22.9766 62.5563C22.8672 62.6344 22.8151 62.7334 22.8151 62.8688H22.8099ZM26.7839 62.0094V62.5407H25.9401V64.2646C25.9401 64.4209 25.9714 64.5355 26.0286 64.6032C26.0911 64.6657 26.1901 64.7021 26.3203 64.7021C26.4453 64.7021 26.6016 64.7021 26.7891 64.6917V65.1865C26.3047 65.249 25.9453 65.2074 25.7214 65.0667C25.4974 64.9209 25.388 64.6553 25.388 64.2646V62.5407H24.763V62.0094H25.388V61.2803L25.9401 61.1136V62.0042H26.7839V62.0094ZM29.8464 62.5563V62.0094H30.4036V65.1865H29.8464V64.6396C29.5755 65.0615 29.1745 65.2646 28.6432 65.2646C28.1953 65.2646 27.8151 65.1032 27.5078 64.7803C27.1901 64.4521 27.0339 64.0615 27.0339 63.5928C27.0339 63.1292 27.1901 62.7386 27.5078 62.4105C27.8203 62.0876 28.2005 61.9261 28.6432 61.9261C29.1745 61.9261 29.5755 62.1344 29.8464 62.5511V62.5563ZM28.7161 64.7386C29.0391 64.7386 29.3099 64.6344 29.5234 64.4157C29.7422 64.1917 29.8464 63.9209 29.8464 63.598C29.8464 63.2803 29.7422 63.0042 29.5234 62.7907C29.3099 62.5667 29.0443 62.4574 28.7161 62.4574C28.388 62.4574 28.1328 62.5667 27.9193 62.7907C27.7005 63.0042 27.5964 63.2751 27.5964 63.598C27.5964 63.9261 27.7005 64.1865 27.9193 64.4157C28.1328 64.6344 28.3984 64.7386 28.7161 64.7386ZM33.0651 65.1865H32.3984L30.8099 60.7386H31.4453L32.737 64.4469L34.0234 60.7386H34.6693L33.0703 65.1865H33.0651ZM35.2161 61.4313C35.112 61.4313 35.0234 61.4001 34.9505 61.3271C34.8776 61.2542 34.8464 61.1657 34.8464 61.0667C34.8464 60.9626 34.8776 60.874 34.9505 60.8063C35.0234 60.7282 35.112 60.6865 35.2161 60.6865C35.3255 60.6865 35.4089 60.7282 35.4766 60.8063C35.5495 60.874 35.5859 60.9626 35.5859 61.0667C35.5859 61.1657 35.5495 61.2542 35.4766 61.3271C35.4089 61.4001 35.3203 61.4313 35.2161 61.4313ZM35.4922 65.1865H34.9349V62.0094H35.4922V65.1865ZM39.3255 63.848H36.6589C36.7161 64.1292 36.8411 64.348 37.0495 64.5094C37.2526 64.6657 37.5078 64.7438 37.8151 64.7438C38.237 64.7438 38.5391 64.5876 38.7318 64.2751L39.2005 64.5407C38.8828 65.0199 38.4193 65.2646 37.8047 65.2646C37.3047 65.2646 36.8932 65.1084 36.5703 64.7907C36.2578 64.473 36.1016 64.0719 36.1016 63.5876C36.1016 63.1084 36.2578 62.7074 36.5651 62.3949C36.8776 62.0824 37.2786 61.9209 37.7682 61.9209C38.237 61.9209 38.612 62.0876 38.9089 62.4105C39.2005 62.7334 39.3516 63.1292 39.3516 63.5928C39.3516 63.6761 39.3464 63.7542 39.3359 63.8428L39.3255 63.848ZM37.7578 62.4469C37.4661 62.4469 37.2214 62.5303 37.0234 62.6969C36.8255 62.8636 36.7057 63.0824 36.6589 63.3688H38.7839C38.7422 63.0719 38.6224 62.848 38.4349 62.6865C38.2474 62.5251 38.0234 62.4417 37.763 62.4417L37.7578 62.4469ZM42.8359 64.4313L43.5339 62.0094H44.112L43.1224 65.1865H42.5599L41.8151 62.8324L41.0703 65.1865H40.5026L39.5182 62.0094H40.0964L40.7943 64.4261L41.5443 62.0094H42.0755L42.8255 64.4313H42.8359Z" fill="black"/>
<path d="M45.8333 60.5928H52.0573C52.1927 60.5928 52.3073 60.6396 52.401 60.7386C52.5 60.8324 52.5469 60.9469 52.5469 61.0824V65.3011C52.5469 65.4365 52.5 65.5511 52.401 65.6501C52.3073 65.7438 52.1927 65.7907 52.0573 65.7907H45.8333C45.6979 65.7907 45.5833 65.7438 45.4896 65.6501C45.3906 65.5511 45.3438 65.4365 45.3438 65.3011V61.0824C45.3438 60.9469 45.3906 60.8324 45.4896 60.7386C45.5833 60.6396 45.6979 60.5928 45.8333 60.5928Z" fill="#929292"/>
<path d="M50.5299 65.0355V61.4053H51.3737V65.0355H50.5299ZM48.1081 64.2594V63.624H48.681L48.1081 62.2282L48.2747 61.8324H48.1081V61.4053H48.5299L50.1549 65.0355H49.2695L48.9518 64.2594H48.1081ZM48.1081 61.4053V61.8324H47.9414L48.1081 62.2282L47.5299 63.624H48.1081V64.2594H47.2643L46.9414 65.0355H46.082L47.7018 61.4053H48.1133H48.1081Z" fill="#D7EEA1"/>
<path d="M47.8125 61.8164H48.3906C48.4531 61.8164 48.5 61.8529 48.5 61.8893V62.2747C48.5 62.3112 48.4531 62.3477 48.3906 62.3477H47.8125C47.7552 62.3477 47.7031 62.3112 47.7031 62.2747V61.8893C47.7031 61.8529 47.7552 61.8164 47.8125 61.8164Z" fill="#D7EEA1"/>
<path d="M80.3789 49.2695V17.9935H84.556V49.2695H80.3789ZM101.52 26.3372C104.134 26.3372 106.238 27.1602 107.837 28.8372C109.395 30.4727 110.217 32.6966 110.217 35.5456V49.2695H106.316V35.7799C106.316 33.9831 105.811 32.582 104.832 31.5664C103.858 30.5508 102.493 30.0456 100.78 30.0456C98.7904 30.0456 97.1914 30.6706 96.0612 31.9154C94.8893 33.1237 94.306 34.957 94.306 37.4154V49.2695H90.4049V26.9258H94.306V30.1602C95.8633 27.6289 98.2799 26.3789 101.556 26.3789L101.52 26.3372ZM118.525 32.9674C118.525 34.4102 120.004 35.5039 122.931 36.3216C124.02 36.556 124.957 36.832 125.697 37.0664C126.478 37.3008 127.296 37.6862 128.197 38.1966C129.129 38.7018 129.832 39.3633 130.301 40.2227C130.77 41.0404 131.004 42.056 131.004 43.1862C131.004 45.2174 130.223 46.8529 128.624 48.0612C127.066 49.2695 125.035 49.8945 122.618 49.8945C120.473 49.8945 118.603 49.4258 117.04 48.4935C115.483 47.556 114.389 46.2695 113.728 44.6289L117.082 42.7174C117.431 43.8112 118.092 44.6289 119.108 45.2539C120.082 45.8789 121.254 46.1914 122.655 46.1914C124.061 46.1914 125.077 45.957 125.895 45.4518C126.712 44.9414 127.103 44.2018 127.103 43.1862C127.103 41.6654 125.618 40.5768 122.697 39.8737C121.723 39.5977 120.978 39.4049 120.473 39.2487C119.967 39.0924 119.264 38.8216 118.368 38.431C117.509 38.0404 116.848 37.6497 116.415 37.2227C115.988 36.7904 115.561 36.207 115.171 35.4674C114.816 34.7227 114.624 33.9049 114.624 33.0091C114.624 31.0612 115.363 29.4622 116.848 28.2122C118.368 26.9622 120.238 26.3372 122.54 26.3372C124.374 26.3372 125.973 26.7695 127.374 27.5872C128.816 28.4049 129.874 29.5352 130.613 30.9831L127.337 32.8112C126.52 30.9049 124.921 29.9674 122.54 29.9674C121.41 29.9674 120.473 30.2383 119.691 30.7852C118.952 31.332 118.561 32.0352 118.561 32.9674H118.525ZM146.488 26.9258V30.6706H140.556V42.7956C140.556 43.8893 140.754 44.707 141.181 45.1758C141.613 45.6081 142.311 45.8789 143.212 45.8789C144.108 45.8789 145.197 45.8789 146.525 45.8008V49.2695C143.092 49.7018 140.598 49.4258 138.999 48.4154C137.436 47.3997 136.66 45.5299 136.66 42.7956V30.6706H132.249V26.9258H136.66V21.8164L140.556 20.6445V26.8841H146.488V26.9258ZM168.014 30.7852V26.9258H171.915V49.2695H168.014V45.4102C166.103 48.3737 163.296 49.8164 159.551 49.8164C156.389 49.8164 153.738 48.6862 151.556 46.4258C149.332 44.1237 148.238 41.3529 148.238 38.0768C148.238 34.8008 149.332 32.0716 151.556 29.7695C153.78 27.4727 156.431 26.3372 159.551 26.3372C163.296 26.3372 166.103 27.8216 168.014 30.7487V30.7852ZM160.056 46.1133C162.322 46.1133 164.233 45.3737 165.754 43.8529C167.275 42.2904 168.014 40.3789 168.014 38.1185C168.014 35.8581 167.275 33.9466 165.754 32.4258C164.233 30.8633 162.358 30.082 160.056 30.082C157.759 30.082 155.962 30.8633 154.441 32.4258C152.921 33.9466 152.181 35.8164 152.181 38.1185C152.181 40.4206 152.921 42.2539 154.441 43.8529C155.962 45.3737 157.837 46.1133 160.056 46.1133ZM190.634 49.2695H185.952L174.759 17.9935H179.243L188.332 44.082L197.379 17.9935H201.905L190.671 49.2695H190.634ZM205.764 22.8685C205.025 22.8685 204.4 22.6341 203.895 22.1289C203.384 21.6185 203.155 20.9987 203.155 20.2956C203.155 19.5924 203.384 18.9674 203.895 18.4622C204.4 17.9154 205.025 17.6445 205.764 17.6445C206.504 17.6445 207.092 17.9154 207.598 18.4622C208.108 18.9674 208.337 19.5924 208.337 20.2956C208.337 20.9987 208.108 21.6185 207.598 22.1289C207.092 22.6341 206.467 22.8685 205.764 22.8685ZM207.676 49.2695H203.775V26.9258H207.676V49.2695ZM234.624 39.8737H215.905C216.296 41.8216 217.191 43.3841 218.634 44.5143C220.077 45.6081 221.874 46.1497 224.02 46.1497C226.983 46.1497 229.129 45.0612 230.452 42.8737L233.77 44.7487C231.546 48.1029 228.27 49.8164 223.941 49.8164C220.431 49.8164 217.546 48.7279 215.28 46.5039C213.056 44.2383 211.967 41.431 211.967 38.0404C211.967 34.6445 213.056 31.8372 215.243 29.6549C217.426 27.431 220.233 26.3008 223.707 26.3008C226.983 26.3008 229.634 27.4727 231.702 29.7695C233.77 32.0352 234.822 34.8008 234.822 38.0768C234.822 38.6654 234.78 39.207 234.702 39.832L234.624 39.8737ZM223.629 30.0039C221.561 30.0039 219.842 30.5924 218.441 31.7591C217.077 32.931 216.217 34.4883 215.905 36.4779H230.842C230.53 34.4102 229.712 32.8112 228.384 31.681C227.061 30.5508 225.499 29.9674 223.665 29.9674L223.629 30.0039ZM259.311 43.9674L264.228 26.9258H268.28L261.342 49.2695H257.363L252.134 32.7331L246.91 49.2695H242.931L235.988 26.9258H240.046L244.962 43.931L250.228 26.9258H253.967L259.233 43.9674H259.311Z" fill="black"/>
<path d="M88.7917 63.1761C88.4688 62.9469 87.1458 62.1396 86.6927 61.9001C86.7188 61.8271 86.7396 61.7699 86.75 61.7021H88.8802V60.999H86.8802C86.901 60.848 86.901 60.723 86.901 60.5876V59.9157H88.5938V59.2282H85.4635C85.5781 58.9521 85.6927 58.6709 85.7708 58.3844L85 58.2334C84.7344 59.098 84.2865 59.9626 83.6979 60.5303C83.8958 60.6188 84.2292 60.8271 84.3906 60.9417C84.6458 60.6657 84.8958 60.3115 85.1146 59.9157H86.0833V60.5876C86.0833 60.723 86.0833 60.848 86.0625 60.999H83.6979V61.7021H85.9115C85.6667 62.4053 85.0573 63.1657 83.5938 63.7438C83.7917 63.8688 84.0312 64.1449 84.1354 64.3271C85.3438 63.7751 86.0365 63.1292 86.4271 62.473C87.0052 62.8688 87.8594 63.4782 88.1927 63.7646L88.7917 63.1761ZM91.5312 64.7646V65.848H86.2083V64.7646H91.5312ZM86.2083 67.6605V66.5199H91.5312V67.6605H86.2083ZM85.3698 68.7855H86.2083V68.3584H91.5312V68.7646H92.3958V64.0667H85.3698V68.7855ZM92.5365 62.4053H90.1615V59.9626H92.5365V62.4053ZM89.3542 59.1917V63.1865H93.375V59.1917H89.3542Z" fill="black"/>
<path d="M107.279 63.2907C108.19 63.2907 108.44 62.9001 108.544 61.5199C108.305 61.4626 107.956 61.3324 107.784 61.1865C107.727 62.3271 107.648 62.5199 107.211 62.5199H105.378C104.862 62.5199 104.768 62.4417 104.768 62.0824V60.9209C105.872 60.5876 107.107 60.1813 108.018 59.7542L107.44 59.1344C106.784 59.4678 105.747 59.8949 104.768 60.2178V58.2907H103.94V62.0928C103.94 63.0251 104.216 63.2907 105.299 63.2907H107.279ZM99.5859 65.7699V64.723H102.013V65.7699H99.5859ZM102.013 63.0615V64.0407H99.5859V63.0615H102.013ZM102.857 62.3376H98.7891V68.7751H99.5859V66.4365H102.013V67.7855C102.013 67.9365 101.982 67.9678 101.82 67.9678C101.669 67.9782 101.185 67.9938 100.643 67.9678C100.758 68.1865 100.872 68.5199 100.919 68.7542C101.648 68.7542 102.143 68.7386 102.451 68.6032C102.773 68.4626 102.857 68.2334 102.857 67.7959V62.3376ZM101.195 59.2386C101.471 59.6188 101.773 60.0667 102.023 60.5146L99.5026 60.6657C99.9974 60.0563 100.518 59.2699 100.909 58.5146L100.034 58.2334C99.6641 59.1344 99.0286 60.0459 98.8359 60.2855C98.638 60.5303 98.4766 60.6917 98.3047 60.7334C98.4089 60.9417 98.5339 61.3688 98.5807 61.5407C98.8359 61.4469 99.2266 61.3896 102.372 61.1605C102.477 61.3896 102.555 61.5876 102.622 61.7699L103.372 61.4365C103.133 60.7594 102.487 59.723 101.898 58.9521L101.195 59.2386ZM105.414 67.9209C104.883 67.9209 104.779 67.8532 104.779 67.473V66.1396C105.94 65.8167 107.268 65.3792 108.143 64.8584L107.581 64.223C106.935 64.6501 105.815 65.0876 104.779 65.4209V63.6136H103.94V67.473C103.94 68.4209 104.227 68.6813 105.331 68.6813H107.336C108.294 68.6813 108.544 68.2803 108.648 66.723C108.409 66.6813 108.076 66.5407 107.888 66.4157C107.831 67.6917 107.737 67.9209 107.268 67.9209H105.414Z" fill="black"/>
<path d="M114.051 60.3896H121.618V61.9001H122.504V59.5928H118.415C118.243 59.2021 117.978 58.6709 117.749 58.249L116.874 58.4521C117.046 58.8011 117.254 59.2386 117.415 59.5928H113.197V61.9001H114.051V60.3896ZM119.65 63.5459C119.301 64.4678 118.785 65.2282 118.139 65.8376C117.311 65.5146 116.457 65.2021 115.665 64.9521C115.952 64.5355 116.264 64.0511 116.572 63.5459H119.65ZM122.816 63.5459V62.7282H117.046C117.358 62.1657 117.645 61.5876 117.874 61.0667L116.952 60.874C116.723 61.4469 116.389 62.0928 116.046 62.7282H112.91V63.5459H115.561C115.145 64.2126 114.717 64.8376 114.337 65.3219L114.327 65.3324C115.285 65.6292 116.332 66.0251 117.368 66.4365C116.249 67.1969 114.811 67.6709 113.072 67.9678C113.254 68.1657 113.52 68.5355 113.613 68.7542C115.488 68.3376 117.035 67.7594 118.254 66.8167C119.707 67.4521 121.03 68.1292 121.874 68.7074L122.577 67.9678C121.702 67.4053 120.4 66.7699 118.983 66.1709C119.671 65.4834 120.223 64.6188 120.629 63.5459H122.816Z" fill="black"/>
<path d="M128.922 62.4893C130.208 61.6455 131.422 60.5882 132.354 59.4215C133.438 60.6663 134.589 61.6351 135.854 62.4893H128.922ZM135.891 63.2601V62.5101C136.318 62.7965 136.755 63.0622 137.203 63.3382C137.328 63.0882 137.583 62.7965 137.802 62.6143C135.938 61.6351 134.245 60.4476 132.828 58.8018C132.896 58.6976 132.964 58.5934 133.031 58.4893L132.271 58.1455C131.12 59.9528 129.026 61.6351 126.938 62.5882C127.156 62.7861 127.411 63.0622 127.536 63.2913C127.99 63.0622 128.448 62.807 128.885 62.5101V63.2601H131.917V65.0465H128.953V65.8018H131.917V67.682H127.516V68.4632H137.25V67.682H132.792V65.8018H135.891V65.0465H132.792V63.2601H135.891Z" fill="black"/>
<path d="M144.299 58.291C143.643 60.0306 142.534 61.7389 141.398 62.8327C141.544 63.0254 141.789 63.4785 141.878 63.6608C142.294 63.2337 142.721 62.7389 143.112 62.1868V68.7546H143.93V60.9316C144.378 60.1816 144.773 59.3639 145.107 58.5358L144.299 58.291ZM146.289 59.5723H150.565V61.6816H146.289V59.5723ZM152.049 64.6504V63.8691H148.826V62.4421H151.419V58.8014H145.487V62.4421H147.971V63.8691H144.633V64.6504H147.477C146.706 65.8743 145.487 67.015 144.299 67.5983C144.492 67.7598 144.747 68.0723 144.898 68.2806C146.013 67.6348 147.169 66.4837 147.971 65.2181V68.7858H148.826V65.1816C149.596 66.4368 150.706 67.6348 151.742 68.3014C151.888 68.0827 152.164 67.7754 152.352 67.6243C151.242 67.0254 150.081 65.8639 149.32 64.6504H152.049Z" fill="black"/>
<path d="M161.198 60.0667C161.323 60.3428 161.464 60.7021 161.542 60.9678H159.677V61.6657H166.531V60.9678H164.573C164.724 60.7126 164.87 60.4105 165.031 60.1136L164.193 59.9313C164.099 60.2282 163.917 60.6292 163.766 60.9678H161.922L162.312 60.8376C162.234 60.598 162.062 60.1917 161.922 59.8949H166.083V59.1917H163.51C163.406 58.9053 163.26 58.5251 163.12 58.2334L162.37 58.4313C162.474 58.6605 162.568 58.9365 162.651 59.1917H160.172V59.8949H161.865L161.198 60.0667ZM159.286 58.6865L159.156 58.7334H156.453V68.7542H157.214V59.5042H158.823C158.557 60.2646 158.203 61.2751 157.844 62.0824C158.734 63.0042 158.953 63.7855 158.964 64.4209C158.964 64.7803 158.88 65.0876 158.708 65.2178C158.604 65.2855 158.469 65.3219 158.318 65.3219C158.135 65.3428 157.88 65.3324 157.604 65.3063C157.729 65.5251 157.812 65.848 157.823 66.0667C158.089 66.0824 158.396 66.0824 158.641 66.0563C158.87 66.0251 159.089 65.9521 159.25 65.8376C159.583 65.598 159.724 65.1136 159.724 64.4886C159.724 63.7751 159.505 62.9469 158.615 61.9886C159.031 61.0928 159.469 59.9626 159.849 59.0303L159.286 58.6865ZM161.302 64.2126H164.839V64.9626H161.302V64.2126ZM161.302 62.9105H164.839V63.6709H161.302V62.9105ZM166.589 66.3792H163.557V65.5615H165.677V62.3115H160.505V65.5615H162.719V66.3792H159.687V67.1032H162.719V68.7751H163.557V67.1032H166.589V66.3792Z" fill="black"/>
<path d="M174.919 57.2188V58.2396H173.815V68.3854H174.919V69.4062H172.648V57.2188H174.919Z" fill="black"/>
<path d="M182.432 62.0732C182.432 62.4482 182.339 62.8128 182.161 63.1566C181.979 63.5055 181.688 63.792 181.286 64.0107C180.896 64.2191 180.391 64.3232 179.766 64.3232H178.391V67.3857H177.141V59.8232H179.766C180.349 59.8232 180.839 59.9222 181.245 60.1149C181.646 60.3128 181.943 60.5837 182.141 60.9274C182.333 61.2607 182.432 61.6462 182.432 62.0732ZM179.766 63.3024C180.234 63.3024 180.583 63.1982 180.807 62.9899C181.042 62.7712 181.161 62.4639 181.161 62.0732C181.161 61.2399 180.693 60.8232 179.766 60.8232H178.391V63.3024H179.766Z" fill="black"/>
<path d="M186.223 67.4896C185.65 67.4896 185.139 67.3646 184.681 67.1146C184.233 66.8542 183.879 66.4844 183.618 66.0104C183.353 65.5417 183.223 65 183.223 64.3854C183.223 63.776 183.353 63.2344 183.618 62.7604C183.895 62.2917 184.264 61.9271 184.723 61.6771C185.191 61.4167 185.712 61.2812 186.285 61.2812C186.853 61.2812 187.368 61.4167 187.827 61.6771C188.296 61.9271 188.665 62.2917 188.931 62.7604C189.207 63.2344 189.348 63.776 189.348 64.3854C189.348 65 189.207 65.5417 188.931 66.0104C188.65 66.4844 188.275 66.8542 187.806 67.1146C187.332 67.3646 186.806 67.4896 186.223 67.4896ZM186.223 66.4062C186.54 66.4062 186.837 66.3333 187.118 66.1771C187.41 66.026 187.639 65.7969 187.806 65.4896C187.983 65.1875 188.077 64.8177 188.077 64.3854C188.077 63.9427 187.993 63.5729 187.827 63.2812C187.66 62.9792 187.436 62.75 187.16 62.5938C186.879 62.4427 186.582 62.3646 186.264 62.3646C185.941 62.3646 185.645 62.4427 185.368 62.5938C185.103 62.75 184.889 62.9792 184.723 63.2812C184.566 63.5729 184.493 63.9427 184.493 64.3854C184.493 65.026 184.65 65.526 184.973 65.8854C185.306 66.2344 185.723 66.4062 186.223 66.4062Z" fill="black"/>
<path d="M198.626 61.3857L196.772 67.3857H195.46L194.251 62.9482L193.043 67.3857H191.73L189.855 61.3857H191.126L192.376 66.2191L193.647 61.3857H194.939L196.168 66.1774L197.418 61.3857H198.626Z" fill="black"/>
<path d="M205.049 64.2396C205.049 64.4635 205.034 64.6667 205.008 64.8438H200.424C200.466 65.3333 200.643 65.7188 200.966 66.0104C201.284 66.2917 201.674 66.4271 202.133 66.4271C202.799 66.4271 203.268 66.151 203.549 65.5938H204.883C204.701 66.151 204.372 66.6094 203.904 66.9688C203.43 67.3177 202.841 67.4896 202.133 67.4896C201.56 67.4896 201.049 67.3646 200.591 67.1146C200.133 66.8542 199.768 66.4844 199.508 66.0104C199.258 65.5417 199.133 65 199.133 64.3854C199.133 63.7604 199.258 63.2188 199.508 62.7604C199.758 62.2917 200.112 61.9271 200.57 61.6771C201.029 61.4167 201.549 61.2812 202.133 61.2812C202.701 61.2812 203.206 61.4062 203.654 61.6562C204.096 61.9062 204.435 62.2552 204.674 62.6979C204.924 63.1458 205.049 63.6562 205.049 64.2396ZM203.758 63.8438C203.758 63.3854 203.596 63.0208 203.279 62.7396C202.956 62.4635 202.56 62.3229 202.091 62.3229C201.659 62.3229 201.289 62.4635 200.987 62.7396C200.68 63.0208 200.497 63.3854 200.445 63.8438H203.758Z" fill="black"/>
<path d="M207.516 62.2604C207.693 61.9583 207.932 61.7188 208.224 61.5521C208.526 61.375 208.891 61.2812 209.307 61.2812V62.5729H208.995C208.505 62.5729 208.141 62.6979 207.891 62.9479C207.641 63.1875 207.516 63.6094 207.516 64.2188V67.3854H206.266V61.3854H207.516V62.2604Z" fill="black"/>
<path d="M215.948 64.2396C215.948 64.4635 215.932 64.6667 215.906 64.8438H211.323C211.365 65.3333 211.542 65.7188 211.865 66.0104C212.182 66.2917 212.573 66.4271 213.031 66.4271C213.698 66.4271 214.167 66.151 214.448 65.5938H215.781C215.599 66.151 215.271 66.6094 214.802 66.9688C214.328 67.3177 213.74 67.4896 213.031 67.4896C212.458 67.4896 211.948 67.3646 211.49 67.1146C211.031 66.8542 210.667 66.4844 210.406 66.0104C210.156 65.5417 210.031 65 210.031 64.3854C210.031 63.7604 210.156 63.2188 210.406 62.7604C210.656 62.2917 211.01 61.9271 211.469 61.6771C211.927 61.4167 212.448 61.2812 213.031 61.2812C213.599 61.2812 214.104 61.4062 214.552 61.6562C214.995 61.9062 215.333 62.2552 215.573 62.6979C215.823 63.1458 215.948 63.6562 215.948 64.2396ZM214.656 63.8438C214.656 63.3854 214.495 63.0208 214.177 62.7396C213.854 62.4635 213.458 62.3229 212.99 62.3229C212.557 62.3229 212.187 62.4635 211.885 62.7396C211.578 63.0208 211.396 63.3854 211.344 63.8438H214.656Z" fill="black"/>
<path d="M216.75 64.3649C216.75 63.7555 216.875 63.2191 217.125 62.7607C217.375 62.292 217.714 61.9274 218.146 61.6774C218.589 61.417 219.073 61.2816 219.604 61.2816C219.99 61.2816 220.375 61.3753 220.75 61.5524C221.135 61.7191 221.443 61.943 221.667 62.2191V59.3232H222.917V67.3857H221.667V66.4899C221.469 66.7816 221.193 67.0264 220.833 67.2191C220.469 67.3962 220.052 67.4899 219.583 67.4899C219.068 67.4899 218.589 67.3597 218.146 67.0941C217.714 66.8337 217.375 66.4639 217.125 65.9899C216.875 65.5055 216.75 64.9639 216.75 64.3649ZM221.667 64.3857C221.667 63.9691 221.583 63.6097 221.417 63.3024C221.25 63.0003 221.026 62.7712 220.75 62.6149C220.469 62.4482 220.172 62.3649 219.854 62.3649C219.531 62.3649 219.234 62.443 218.958 62.5941C218.677 62.7503 218.458 62.9795 218.292 63.2816C218.125 63.5889 218.042 63.9482 218.042 64.3649C218.042 64.7712 218.125 65.1305 218.292 65.4482C218.458 65.7555 218.677 65.9899 218.958 66.1566C219.234 66.3232 219.531 66.4066 219.854 66.4066C220.172 66.4066 220.469 66.3337 220.75 66.1774C221.026 66.0107 221.25 65.7764 221.417 65.4691C221.583 65.1514 221.667 64.792 221.667 64.3857Z" fill="black"/>
<path d="M231.441 63.4899C231.842 63.5732 232.181 63.7972 232.462 64.1566C232.754 64.5055 232.9 64.9014 232.9 65.3441C232.9 65.7347 232.796 66.0837 232.587 66.3857C232.389 66.693 232.108 66.9378 231.733 67.1149C231.358 67.2972 230.921 67.3857 230.421 67.3857H227.379V59.8232H230.275C230.785 59.8232 231.223 59.917 231.587 60.0941C231.962 60.2607 232.238 60.4899 232.421 60.7816C232.613 61.0732 232.712 61.4014 232.712 61.7607C232.712 62.2087 232.592 62.5732 232.358 62.8649C232.134 63.1462 231.827 63.3545 231.441 63.4899ZM228.629 62.9899H230.171C230.572 62.9899 230.884 62.9014 231.108 62.7191C231.342 62.542 231.462 62.2712 231.462 61.9066C231.462 61.5732 231.342 61.3128 231.108 61.1149C230.884 60.9222 230.572 60.8232 230.171 60.8232H228.629V62.9899ZM230.296 66.3649C230.723 66.3649 231.056 66.2712 231.296 66.0732C231.53 65.8649 231.65 65.5837 231.65 65.2191C231.65 64.8441 231.525 64.5524 231.275 64.3441C231.025 64.1253 230.681 64.0107 230.254 64.0107H228.629V66.3649H230.296Z" fill="black"/>
<path d="M239.656 61.3857L235.969 70.1982H234.677L235.906 67.2816L233.531 61.3857H234.927L236.615 65.9482L238.365 61.3857H239.656Z" fill="black"/>
<path d="M247.969 65.8444H244.802L244.26 67.3861H242.969L245.677 59.8027H247.115L249.823 67.3861H248.531L247.969 65.8444ZM247.635 64.8236L246.406 61.3027L245.156 64.8236H247.635Z" fill="black"/>
<path d="M252.246 59.8232V67.3857H250.996V59.8232H252.246Z" fill="black"/>
<path d="M256.724 69.4062H254.453V68.3854H255.557V58.2396H254.453V57.2188H256.724V69.4062Z" fill="black"/>
</svg>
