<svg width="628" height="157" viewBox="0 0 628 157" fill="none" xmlns="http://www.w3.org/2000/svg">
<mask id="mask0_10383_58086" style="mask-type:luminance" maskUnits="userSpaceOnUse" x="0" y="0" width="54" height="54">
<path d="M0.804688 0.621826H53.3176V53.1826H0.804688V0.621826Z" fill="white"/>
</mask>
<g mask="url(#mask0_10383_58086)">
<path d="M31.9245 2.37939H8.79809C5.35373 2.37939 2.55859 5.17453 2.55859 8.61889V31.7454" stroke="black" stroke-width="3.50793" stroke-linecap="round"/>
</g>
<mask id="mask1_10383_58086" style="mask-type:luminance" maskUnits="userSpaceOnUse" x="0" y="103" width="54" height="54">
<path d="M0.804688 103.92H53.3176V156.378H0.804688V103.92Z" fill="white"/>
</mask>
<g mask="url(#mask1_10383_58086)">
<path d="M31.9245 154.62H8.79809C5.35373 154.62 2.55859 151.825 2.55859 148.381V125.254" stroke="black" stroke-width="3.50793" stroke-linecap="round"/>
</g>
<mask id="mask2_10383_58086" style="mask-type:luminance" maskUnits="userSpaceOnUse" x="104" y="0" width="53" height="54">
<path d="M104.051 0.621826H156.557V53.1826H104.051V0.621826Z" fill="white"/>
</mask>
<g mask="url(#mask2_10383_58086)">
<path d="M125.434 2.37939H148.56C152.004 2.37939 154.8 5.17453 154.8 8.61889V31.7454" stroke="black" stroke-width="3.50793" stroke-linecap="round"/>
</g>
<mask id="mask3_10383_58086" style="mask-type:luminance" maskUnits="userSpaceOnUse" x="104" y="103" width="53" height="54">
<path d="M104.051 103.92H156.557V156.378H104.051V103.92Z" fill="white"/>
</mask>
<g mask="url(#mask3_10383_58086)">
<path d="M125.434 154.62H148.56C152.004 154.62 154.8 151.825 154.8 148.381V125.254" stroke="black" stroke-width="3.50793" stroke-linecap="round"/>
</g>
<g clip-path="url(#clip0_10383_58086)">
<path d="M40.027 103.949C38.8447 101.981 37.7718 99.9649 36.8082 97.901C35.8377 95.8371 34.9903 93.7527 34.2386 91.6068C33.685 90.0213 33.2066 88.4221 32.7829 86.7888C32.6257 86.2216 32.4822 85.6407 32.3592 85.0598L32.3319 84.9299H24.582L24.6299 85.135C25.2244 87.315 25.8805 89.4814 26.6049 91.6136C27.3293 93.739 28.1016 95.8303 28.949 97.8941C29.7896 99.9512 30.719 101.995 31.7236 104.004C32.0722 104.687 32.4207 105.371 32.7829 106.04C33.48 107.346 34.2112 108.644 34.9903 109.922L35.0381 110.004H44.0933L43.9019 109.744C42.5078 107.845 41.2161 105.924 40.027 103.949Z" fill="#000100"/>
<path d="M17.0554 104.598C16.864 104.523 16.6864 104.407 16.5018 104.249C16.3241 104.092 16.1943 103.928 16.1055 103.757C16.0166 103.593 15.9756 103.409 15.9756 103.218V80.5079H35.0631C35.808 80.5079 36.5051 80.3918 37.1612 80.1731C37.8241 79.9544 38.4255 79.6127 38.9859 79.1616C39.2797 78.9224 39.5394 78.6491 39.7855 78.3552C40.0247 78.0682 40.2365 77.7607 40.4142 77.4258C40.6056 77.0909 40.7354 76.7287 40.8379 76.3528C40.9336 75.977 40.9814 75.5806 40.9814 75.1569V54.2857C40.9814 53.3836 40.8516 52.5703 40.6056 51.8459C40.3527 51.1283 39.9768 50.4791 39.4711 49.9392C38.9039 49.3446 38.2615 48.8936 37.5234 48.5997C36.7921 48.299 35.9652 48.1487 35.0631 48.1487H14.9437C14.1988 48.1487 13.488 48.2785 12.8046 48.5314C12.1212 48.7911 11.472 49.1806 10.8706 49.6932C10.5699 49.9665 10.3102 50.2604 10.0847 50.5611C9.85229 50.855 9.64044 51.1762 9.47642 51.511C9.2919 51.8459 9.16889 52.2081 9.08688 52.584C8.99804 52.9599 8.95703 53.3562 8.95703 53.7868V103.279C8.95703 104.311 9.12788 105.227 9.46275 106.054C9.79762 106.881 10.3033 107.605 10.9594 108.22C11.6018 108.815 12.3536 109.252 13.2146 109.553C14.0826 109.847 15.0462 109.99 16.1328 109.99H28.7553L28.81 109.888L31.1404 104.919L31.2429 104.687H17.65C17.4449 104.687 17.2399 104.646 17.0486 104.571L17.0554 104.598ZM15.9756 54.8051C15.9756 54.6342 16.0166 54.4702 16.0781 54.313C16.1396 54.1558 16.2558 54.0055 16.3857 53.862C16.5292 53.7184 16.6727 53.6159 16.8367 53.5544C16.9939 53.4861 17.1647 53.4451 17.3424 53.4451H32.4047C32.5345 53.4451 32.6644 53.4587 32.7669 53.4861C32.8284 53.4997 32.8967 53.5271 32.9446 53.5544C33.1018 53.6159 33.2316 53.7184 33.3478 53.8483C33.464 53.9918 33.5528 54.1421 33.6075 54.3267C33.669 54.5044 33.6963 54.7094 33.6963 54.9281V61.3931H15.9619V54.7914L15.9756 54.8051ZM15.9756 66.4708H33.7237V73.6465C33.7237 73.8652 33.6826 74.0566 33.6075 74.2274C33.5255 74.3915 33.423 74.5486 33.2726 74.6648C33.1291 74.7947 32.9582 74.8835 32.7806 74.945H32.7532C32.5619 75.027 32.3432 75.0475 32.1108 75.0475H15.9619V66.4503L15.9756 66.4708Z" fill="#000100"/>
<path d="M72.1692 49.9612C71.5541 49.3461 70.8297 48.8814 69.9891 48.567C69.1554 48.2595 68.2123 48.1023 67.153 48.1023H51.9336C50.929 48.1023 50.0132 48.2321 49.1863 48.4782C48.3525 48.7242 47.6008 49.1001 46.9447 49.5853C46.1998 50.132 45.6326 50.8017 45.2567 51.5877C44.8808 52.3736 44.7031 53.2893 44.7031 54.3076V110.374H52.0361V54.9637C52.0361 54.745 52.0771 54.54 52.1454 54.376C52.2069 54.2051 52.3094 54.0479 52.4529 53.9249C52.5965 53.7951 52.7331 53.6994 52.904 53.6379C53.0543 53.5764 53.2389 53.549 53.4165 53.549H65.219C65.424 53.549 65.6085 53.5832 65.7725 53.6652C65.9434 53.7404 66.0869 53.8566 66.2099 54.0274C66.3397 54.1914 66.4423 54.3623 66.5106 54.5126C66.5721 54.6698 66.5994 54.827 66.5994 54.9637V95.1138C66.5994 95.6947 66.4559 96.1184 66.1621 96.4054C65.875 96.6856 65.424 96.8155 64.8294 96.8155H55.2481L55.3506 97.0341L57.5306 101.92L57.5717 102.03H67.399C68.431 102.03 69.3331 101.914 70.1327 101.695C70.9322 101.469 71.6156 101.135 72.1692 100.684C72.7638 100.205 73.2011 99.6174 73.5018 98.893C73.7957 98.1823 73.9392 97.3485 73.9392 96.3917V54.8133C73.9392 53.7951 73.7957 52.8793 73.5018 52.066C73.2011 51.2528 72.7638 50.5421 72.1829 49.9612H72.1692Z" fill="#000100"/>
<path d="M103.65 72.015C104.039 71.4478 104.429 70.8669 104.798 70.2792C105.187 69.6846 105.549 69.1037 105.912 68.5228C106.028 68.3315 106.144 68.1333 106.26 67.9419C106.492 67.5456 106.732 67.156 106.95 66.7528C107.292 66.1787 107.613 65.5979 107.921 65.017C108.228 64.4361 108.529 63.8825 108.775 63.3768C108.939 63.0419 109.096 62.7207 109.247 62.4063C109.329 62.2423 109.404 62.0715 109.479 61.9211C109.91 60.937 110.101 60.0486 110.06 59.2627C110.026 58.4768 109.752 57.7797 109.26 57.1851L109.24 57.151C108.72 56.5291 108.023 56.0507 107.121 55.7431C106.848 55.6543 106.568 55.5723 106.26 55.5108C105.563 55.3536 104.777 55.2921 103.882 55.2921H100.349C100.055 54.636 99.7815 53.9595 99.5149 53.2897C99.2416 52.5926 98.9682 51.8751 98.729 51.1507C98.483 50.4126 98.237 49.7087 98.0183 49.0116C97.7859 48.3009 97.5809 47.6038 97.369 46.9067L97.3349 46.7905H89.9951L90.0361 46.9819C90.1864 47.7336 90.371 48.4649 90.5623 49.1893C90.7537 49.9137 90.9724 50.6244 91.2047 51.3215C91.4371 52.0254 91.6831 52.7225 91.9428 53.4059C92.1751 54.0278 92.4212 54.6429 92.674 55.2784H84.1383V60.7867H101.408C101.681 60.7867 101.859 60.8345 101.927 60.9234C101.989 61.019 101.975 61.1831 101.873 61.4154C100.766 63.5955 99.5286 65.714 98.1686 67.7848C96.8018 69.8486 95.3188 71.8784 93.706 73.8329C92.1 75.7943 90.3915 77.7283 88.6146 79.6418C86.8377 81.5485 84.9789 83.4211 83.0448 85.2594L82.7578 85.5328H92.6399L92.6877 85.485L93.0909 85.1091L93.583 84.658C93.7743 84.4735 93.952 84.3095 94.0955 84.1523L94.1707 84.0771V109.842H101.435V75.1245C101.784 74.6598 102.146 74.1746 102.515 73.6552C102.905 73.1153 103.28 72.5754 103.663 71.9945L103.65 72.015Z" fill="#000100"/>
<path d="M114.216 91.9286C113.929 91.4297 113.663 90.8966 113.39 90.3157C113.13 89.7348 112.877 89.1198 112.631 88.4569C112.385 87.8145 112.153 87.1447 111.907 86.4476C111.729 85.9214 111.558 85.3884 111.394 84.8758C111.339 84.705 111.292 84.5409 111.237 84.3701C111.018 83.673 110.813 82.9759 110.629 82.272C110.437 81.575 110.266 80.8916 110.116 80.2082C109.959 79.5247 109.815 78.8618 109.692 78.2468C109.562 77.6112 109.446 77.0235 109.344 76.4426L109.316 76.2991H102.441L102.469 76.4768C102.674 77.7547 102.92 79.06 103.2 80.4132C103.487 81.7527 103.808 83.1331 104.17 84.5546C104.533 85.9556 104.902 87.2882 105.291 88.5525C105.599 89.5435 105.913 90.4729 106.234 91.3477C106.323 91.5937 106.412 91.8261 106.494 92.0584L106.528 92.1609H114.319L114.189 91.9286H114.216Z" fill="#000100"/>
<path d="M144.871 50.3834C144.099 49.6248 143.197 49.0439 142.151 48.6681C141.105 48.2922 139.93 48.1008 138.618 48.1008H120.056C118.949 48.1008 117.958 48.2443 117.056 48.5245C116.154 48.8116 115.355 49.2353 114.671 49.8025C114.295 50.151 113.96 50.5269 113.66 50.9233C113.366 51.3265 113.093 51.7639 112.846 52.2286C112.607 52.6933 112.436 53.1922 112.307 53.7389C112.19 54.2788 112.129 54.846 112.129 55.4611V88.866H119.079V55.5431C119.079 55.2698 119.127 54.9964 119.243 54.7435C119.359 54.4702 119.544 54.19 119.776 53.9166C120.009 53.6433 120.275 53.4519 120.589 53.3084C120.911 53.1785 121.273 53.1034 121.697 53.1034H137.073C137.415 53.1034 137.743 53.158 138.064 53.2605C138.385 53.3631 138.679 53.5271 138.98 53.7458C139.274 53.9713 139.492 54.19 139.636 54.4292C139.78 54.6615 139.841 54.9076 139.841 55.1672L139.923 88.825V88.9958H146.948V55.8917C146.948 54.7709 146.784 53.7458 146.436 52.83C146.087 51.9142 145.568 51.0941 144.885 50.3834H144.871Z" fill="#000100"/>
<path d="M137.948 105.092C137.791 105.092 137.613 105.051 137.415 104.976C137.21 104.901 137.005 104.785 136.759 104.614C136.527 104.463 136.376 104.293 136.26 104.115C136.157 103.93 136.089 103.739 136.089 103.534V90.4399H130.465C130.595 89.941 130.724 89.4353 130.827 88.9364C130.957 88.376 131.059 87.8224 131.148 87.2826C131.244 86.7427 131.333 86.1891 131.408 85.6287C131.483 85.0615 131.565 84.4943 131.626 83.927C131.695 83.3461 131.743 82.7584 131.797 82.1502C131.832 81.5419 131.873 80.9132 131.9 80.2503C131.927 79.6079 131.948 78.9245 131.948 78.2001C131.948 77.4552 131.975 76.7103 131.975 75.9312V57.4246H124.95V76.6556C124.95 78.5623 124.868 80.3597 124.738 82.034C124.601 83.6947 124.382 85.246 124.109 86.6607C123.822 88.0821 123.453 89.449 122.988 90.7543C122.524 92.0527 121.97 93.3034 121.321 94.4925C120.548 95.9208 119.633 97.3013 118.573 98.6339C117.521 99.9597 116.318 101.238 114.979 102.475C113.639 103.698 112.143 104.962 110.489 106.254C109.703 106.876 108.876 107.491 108.015 108.113C107.318 108.612 106.607 109.117 105.876 109.63C105.602 109.814 105.329 110.006 105.062 110.19L105.165 110.484H115.806L115.908 110.443C117.466 109.363 118.908 108.188 120.255 106.937C121.58 105.673 122.804 104.334 123.918 102.898C125.011 101.47 126.029 100.014 126.945 98.5382C127.581 97.52 128.168 96.488 128.715 95.4561C128.845 95.2169 128.954 94.9845 129.084 94.7385V105.065C129.084 106.049 129.269 106.924 129.631 107.682C129.986 108.461 130.533 109.104 131.251 109.657C131.948 110.149 132.734 110.525 133.643 110.764C134.545 111.01 135.536 111.127 136.643 111.127C139.376 111.127 142.793 111.414 146.135 111.311V105.003C143.812 105.263 141.222 105.092 137.962 105.092H137.948Z" fill="#000100"/>
<path d="M141.468 109.668C141.495 110.208 141.522 110.762 141.543 111.309L146.641 111.24L146.668 111.124L148.172 105.281L148.24 105.014L141.352 105.103C141.379 106.627 141.413 108.144 141.468 109.668Z" fill="#000100"/>
</g>
<path d="M188.051 92.6193V19.5222H197.803V92.6193H188.051ZM237.454 39.0266C243.557 39.0266 248.484 40.9402 252.216 44.8561C255.865 48.6832 257.779 53.8839 257.779 60.5334V92.6193H248.662V61.0801C248.662 56.8909 247.48 53.6105 245.197 51.2391C242.921 48.8677 239.73 47.6854 235.718 47.6854C231.071 47.6854 227.333 49.141 224.688 52.0592C221.955 54.8816 220.588 59.1666 220.588 64.9072V92.6193H211.478V40.3934H220.588V47.9587C224.237 42.0336 229.889 39.1155 237.543 39.1155L237.454 39.0266ZM277.194 54.5194C277.194 57.8886 280.659 60.4446 287.493 62.3581C290.042 62.9048 292.229 63.5404 293.965 64.0871C295.783 64.6338 297.703 65.5496 299.794 66.7319C301.981 67.921 303.622 69.4655 304.722 71.4747C305.815 73.3883 306.362 75.7597 306.362 78.3976C306.362 83.1405 304.537 86.9675 300.799 89.7968C297.157 92.6193 292.414 94.075 286.762 94.075C281.753 94.075 277.372 92.9815 273.729 90.7946C270.08 88.6077 267.531 85.6007 265.98 81.7737L273.818 77.3042C274.638 79.8601 276.19 81.7737 278.561 83.2293C280.837 84.6918 283.57 85.4162 286.851 85.4162C290.138 85.4162 292.503 84.8695 294.416 83.6872C296.336 82.5049 297.245 80.7691 297.245 78.3976C297.245 74.8439 293.78 72.2948 286.946 70.6547C284.664 70.0122 282.935 69.5612 281.753 69.1922C280.563 68.83 278.923 68.1944 276.825 67.2786C274.823 66.3697 273.271 65.4539 272.274 64.4562C271.269 63.4516 270.264 62.0847 269.356 60.3557C268.535 58.6199 268.078 56.7063 268.078 54.6083C268.078 50.0568 269.807 46.3186 273.271 43.4004C276.825 40.4823 281.206 39.0266 286.577 39.0266C290.862 39.0266 294.601 40.0244 297.881 41.9379C301.257 43.8583 303.717 46.4963 305.446 49.8723L297.792 54.1572C295.879 49.6878 292.14 47.5009 286.577 47.5009C283.939 47.5009 281.753 48.1364 279.928 49.4144C278.192 50.6924 277.283 52.3325 277.283 54.5194H277.194ZM342.541 40.3934V49.141H328.689V77.4887C328.689 80.0378 329.147 81.9582 330.151 83.0516C331.149 84.0494 332.789 84.6918 334.887 84.6918C336.985 84.6918 339.535 84.6918 342.637 84.5073V92.6193C334.614 93.6239 328.785 92.9815 325.046 90.6169C321.397 88.2455 319.579 83.8717 319.579 77.4887V49.141H309.273V40.3934H319.579V28.4543L328.689 25.7139V40.2978H342.541V40.3934ZM392.861 49.4144V40.3934H401.97V92.6193H392.861V83.5984C388.391 90.5213 381.83 93.8973 373.076 93.8973C365.695 93.8973 359.497 91.2525 354.392 85.9629C349.198 80.5845 346.649 74.1195 346.649 66.4585C346.649 58.8044 349.198 52.4214 354.392 47.043C359.592 41.6646 365.784 39.0266 373.076 39.0266C381.83 39.0266 388.391 42.4915 392.861 49.3256V49.4144ZM374.265 85.2385C379.548 85.2385 384.017 83.5027 387.571 79.949C391.125 76.3064 392.861 71.8369 392.861 66.5542C392.861 61.2647 391.125 56.7952 387.571 53.2415C384.017 49.5989 379.644 47.7742 374.265 47.7742C368.887 47.7742 364.691 49.5989 361.137 53.2415C357.583 56.7952 355.854 61.1758 355.854 66.5542C355.854 71.9258 357.583 76.2107 361.137 79.949C364.691 83.5027 369.071 85.2385 374.265 85.2385ZM445.722 92.6193H434.788L408.627 19.5222H419.11L440.344 80.4957L461.488 19.5222H472.067L445.811 92.6193H445.722ZM481.088 30.9146C479.359 30.9146 477.897 30.3679 476.715 29.1788C475.525 27.9965 474.979 26.534 474.979 24.8938C474.979 23.2536 475.525 21.798 476.715 20.6157C477.897 19.3377 479.359 18.6953 481.088 18.6953C482.817 18.6953 484.184 19.3377 485.373 20.6157C486.556 21.798 487.102 23.2536 487.102 24.8938C487.102 26.534 486.556 27.9965 485.373 29.1788C484.184 30.3679 482.728 30.9146 481.088 30.9146ZM485.558 92.6193H476.441V40.3934H485.558V92.6193ZM548.534 70.6547H504.789C505.698 75.213 507.796 78.8555 511.165 81.5003C514.541 84.0494 518.73 85.3274 523.746 85.3274C530.669 85.3274 535.686 82.7783 538.781 77.6732L546.531 82.047C541.337 89.8857 533.683 93.8973 523.562 93.8973C515.361 93.8973 508.616 91.3413 503.326 86.1475C498.132 80.8579 495.583 74.2972 495.583 66.3697C495.583 58.4422 498.132 51.8747 503.237 46.7696C508.343 41.5757 514.903 38.931 523.015 38.931C530.669 38.931 536.868 41.6646 541.7 47.043C546.531 52.3325 548.992 58.8044 548.992 66.4585C548.992 67.8254 548.903 69.1033 548.718 70.559L548.534 70.6547ZM522.831 47.5897C518.006 47.5897 513.994 48.9565 510.714 51.697C507.522 54.4306 505.513 58.0732 504.789 62.7203H539.697C538.966 57.8886 537.052 54.1572 533.957 51.5125C530.854 48.8677 527.211 47.5009 522.926 47.5009L522.831 47.5897ZM606.234 80.2223L617.715 40.3934H627.194L610.97 92.6193H601.675L589.463 53.9727L577.25 92.6193H567.949L551.725 40.3934H561.204L572.692 80.1335L584.993 40.3934H593.748L606.049 80.2223H606.234Z" fill="black"/>
<path d="M217.639 123.284C216.887 122.744 213.799 120.864 212.746 120.297C212.801 120.14 212.855 120.003 212.883 119.839H217.858V118.199H213.177C213.231 117.851 213.231 117.557 213.231 117.236V115.677H217.188V114.065H209.869C210.142 113.415 210.409 112.773 210.6 112.096L208.796 111.748C208.181 113.764 207.128 115.78 205.762 117.099C206.213 117.318 206.992 117.796 207.374 118.069C207.962 117.42 208.557 116.586 209.063 115.677H211.325V117.236C211.325 117.557 211.325 117.851 211.27 118.199H205.762V119.839H210.921C210.354 121.48 208.933 123.256 205.516 124.603C205.974 124.897 206.541 125.539 206.78 125.969C209.602 124.685 211.215 123.174 212.131 121.644C213.477 122.559 215.466 123.981 216.245 124.657L217.639 123.284ZM224.043 126.995V129.523H211.618V126.995H224.043ZM211.618 133.74V131.081H224.043V133.74H211.618ZM209.657 136.378H211.618V135.38H224.043V136.323H226.059V125.354H209.657V136.378ZM226.38 121.48H220.844V115.78H226.38V121.48ZM218.958 113.983V123.311H228.341V113.983H218.958Z" fill="black"/>
<path d="M258.474 123.55C260.592 123.55 261.187 122.641 261.426 119.409C260.866 119.279 260.059 118.978 259.656 118.63C259.519 121.295 259.335 121.753 258.31 121.753H254.038C252.829 121.753 252.61 121.562 252.61 120.728V118.015C255.193 117.236 258.071 116.292 260.189 115.295L258.85 113.846C257.319 114.625 254.893 115.623 252.61 116.374V111.884H250.676V120.755C250.676 122.935 251.318 123.55 253.847 123.55H258.474ZM240.514 129.332V126.885H246.186V129.332H240.514ZM246.186 123.017V125.3H240.514V123.017H246.186ZM248.147 121.322H238.655V136.35H240.514V130.89H246.186V134.04C246.186 134.389 246.104 134.471 245.728 134.471C245.38 134.498 244.245 134.519 242.988 134.471C243.254 134.977 243.521 135.756 243.63 136.296C245.325 136.296 246.48 136.268 247.204 135.947C247.956 135.626 248.147 135.086 248.147 134.068V121.322ZM244.273 114.085C244.922 114.973 245.619 116.026 246.213 117.072L240.322 117.42C241.477 115.999 242.687 114.167 243.603 112.397L241.559 111.748C240.698 113.846 239.222 115.971 238.764 116.532C238.306 117.099 237.931 117.475 237.527 117.584C237.767 118.069 238.067 119.06 238.17 119.463C238.764 119.252 239.68 119.115 247.02 118.575C247.259 119.115 247.45 119.573 247.608 120.003L249.357 119.224C248.79 117.639 247.286 115.22 245.913 113.415L244.273 114.085ZM254.114 134.362C252.877 134.362 252.637 134.198 252.637 133.309V130.193C255.351 129.441 258.446 128.416 260.49 127.206L259.171 125.73C257.667 126.728 255.057 127.746 252.637 128.525V124.302H250.676V133.309C250.676 135.517 251.346 136.139 253.929 136.139H258.604C260.838 136.139 261.426 135.195 261.672 131.567C261.105 131.457 260.326 131.136 259.895 130.835C259.765 133.822 259.547 134.362 258.446 134.362H254.114Z" fill="black"/>
<path d="M273.521 116.75H291.187V120.27H293.258V114.891H283.71C283.307 113.983 282.685 112.746 282.152 111.748L280.109 112.233C280.512 113.039 280.997 114.058 281.373 114.891H271.532V120.27H273.521V116.75ZM286.587 124.117C285.781 126.27 284.571 128.04 283.061 129.469C281.127 128.717 279.138 127.986 277.286 127.398C277.956 126.427 278.68 125.3 279.405 124.117H286.587ZM293.982 124.117V122.211H280.512C281.236 120.892 281.906 119.545 282.446 118.336L280.293 117.878C279.76 119.224 278.974 120.728 278.168 122.211H270.855V124.117H277.04C276.077 125.676 275.079 127.124 274.19 128.259L274.163 128.286C276.398 128.983 278.844 129.899 281.264 130.863C278.653 132.64 275.291 133.74 271.231 134.444C271.662 134.895 272.284 135.756 272.496 136.268C276.883 135.305 280.485 133.958 283.334 131.751C286.724 133.234 289.813 134.82 291.775 136.159L293.415 134.444C291.371 133.125 288.337 131.642 285.029 130.248C286.642 128.635 287.934 126.619 288.87 124.117H293.982Z" fill="black"/>
<path d="M307.795 121.883C310.802 119.921 313.624 117.447 315.804 114.727C318.333 117.632 321.019 119.894 323.978 121.883H307.795ZM324.06 123.687V121.937C325.051 122.607 326.076 123.229 327.121 123.871C327.422 123.277 328.01 122.607 328.522 122.177C324.169 119.894 320.212 117.126 316.904 113.279C317.068 113.039 317.232 112.793 317.39 112.554L315.62 111.748C312.927 115.964 308.034 119.894 303.168 122.122C303.681 122.58 304.268 123.229 304.569 123.762C305.615 123.229 306.688 122.634 307.713 121.937V123.687H314.786V127.849H307.877V129.626H314.786V134.006H304.514V135.838H327.231V134.006H316.829V129.626H324.06V127.849H316.829V123.687H324.06Z" fill="black"/>
<path d="M344.486 111.748C342.949 115.807 340.372 119.785 337.707 122.341C338.056 122.798 338.623 123.844 338.841 124.275C339.805 123.284 340.803 122.122 341.712 120.837V136.159H343.625V117.905C344.671 116.156 345.587 114.249 346.366 112.308L344.486 111.748ZM349.134 114.734H359.111V119.655H349.134V114.734ZM362.576 126.591V124.76H355.052V121.425H361.1V112.93H347.254V121.425H353.063V124.76H345.265V126.591H351.908C350.104 129.441 347.254 132.1 344.486 133.473C344.944 133.849 345.532 134.574 345.881 135.059C348.491 133.555 351.177 130.863 353.063 127.904V136.241H355.052V127.828C356.849 130.753 359.432 133.555 361.852 135.113C362.2 134.601 362.85 133.876 363.28 133.528C360.697 132.127 357.984 129.414 356.207 126.591H362.576Z" fill="black"/>
<path d="M383.543 116.026C383.837 116.668 384.165 117.502 384.349 118.124H379.996V119.764H395.995V118.124H391.423C391.771 117.529 392.12 116.832 392.495 116.128L390.534 115.705C390.315 116.402 389.892 117.338 389.536 118.124H385.238L386.153 117.823C385.962 117.263 385.559 116.32 385.238 115.623H394.942V113.983H388.949C388.703 113.306 388.354 112.424 388.033 111.748L386.283 112.206C386.529 112.746 386.741 113.388 386.933 113.983H381.151V115.623H385.101L383.543 116.026ZM379.08 112.8L378.786 112.903H372.465V136.296H374.242V114.707H378.007C377.385 116.484 376.552 118.848 375.718 120.728C377.789 122.88 378.301 124.705 378.328 126.188C378.328 127.022 378.137 127.746 377.734 128.04C377.495 128.204 377.174 128.286 376.818 128.286C376.394 128.341 375.8 128.314 375.157 128.259C375.451 128.771 375.636 129.523 375.663 130.029C376.285 130.056 377.009 130.056 377.577 130.008C378.11 129.926 378.622 129.762 378.998 129.496C379.777 128.929 380.098 127.801 380.098 126.345C380.098 124.685 379.593 122.744 377.522 120.516C378.486 118.418 379.511 115.78 380.399 113.607L379.08 112.8ZM383.782 125.703H392.038V127.452H383.782V125.703ZM383.782 122.662H392.038V124.439H383.782V122.662ZM396.124 130.76H389.058V128.847H393.999V121.268H381.93V128.847H387.09V130.76H380.023V132.455H387.09V136.35H389.058V132.455H396.124V130.76Z" fill="black"/>
<path d="M417.147 109.821V112.226H414.577V135.899H417.147V138.305H411.871V109.821H417.147Z" fill="black"/>
<path d="M434.751 120.7C434.751 121.595 434.532 122.443 434.094 123.242C433.671 124.049 433.001 124.705 432.072 125.211C431.142 125.703 429.946 125.949 428.491 125.949H425.292V133.111H422.395V115.452H428.491C429.837 115.452 430.985 115.691 431.935 116.162C432.878 116.62 433.582 117.249 434.04 118.049C434.511 118.835 434.751 119.716 434.751 120.7ZM428.491 123.571C429.584 123.571 430.404 123.324 430.951 122.832C431.497 122.327 431.771 121.616 431.771 120.7C431.771 118.773 430.677 117.803 428.491 117.803H425.292V123.571H428.491Z" fill="black"/>
<path d="M443.088 133.111C441.755 133.111 440.552 132.81 439.48 132.209C438.42 131.608 437.58 130.76 436.965 129.667C436.363 128.573 436.062 127.309 436.062 125.867C436.062 124.445 436.37 123.188 436.992 122.095C437.627 120.987 438.482 120.14 439.562 119.552C440.655 118.951 441.871 118.65 443.225 118.65C444.55 118.65 445.753 118.951 446.833 119.552C447.926 120.14 448.781 120.987 449.403 122.095C450.038 123.188 450.359 124.445 450.359 125.867C450.359 127.288 450.031 128.56 449.375 129.667C448.733 130.76 447.858 131.608 446.751 132.209C445.637 132.81 444.414 133.111 443.088 133.111ZM443.088 130.596C443.833 130.596 444.537 130.425 445.193 130.077C445.849 129.714 446.375 129.175 446.778 128.464C447.175 127.753 447.38 126.892 447.38 125.867C447.38 124.869 447.175 124.008 446.778 123.297C446.396 122.587 445.883 122.06 445.247 121.712C444.605 121.35 443.915 121.165 443.17 121.165C442.418 121.165 441.728 121.35 441.092 121.712C440.45 122.06 439.944 122.587 439.562 123.297C439.192 124.008 439.015 124.869 439.015 125.867C439.015 127.384 439.398 128.546 440.163 129.366C440.942 130.186 441.919 130.596 443.088 130.596Z" fill="black"/>
<path d="M472.147 119.115L467.8 133.111H464.739L461.923 122.75L459.107 133.111H456.046L451.672 119.115H454.624L457.549 130.377L460.529 119.115H463.563L466.406 130.323L469.304 119.115H472.147Z" fill="black"/>
<path d="M487.262 125.539C487.262 126.072 487.234 126.543 487.18 126.96H476.464C476.553 128.095 476.97 128.997 477.721 129.667C478.466 130.343 479.375 130.678 480.455 130.678C482.02 130.678 483.12 130.022 483.763 128.71H486.879C486.455 130.008 485.69 131.061 484.583 131.881C483.469 132.701 482.095 133.111 480.455 133.111C479.122 133.111 477.92 132.81 476.847 132.209C475.787 131.608 474.961 130.76 474.359 129.667C473.758 128.573 473.457 127.309 473.457 125.867C473.457 124.432 473.744 123.161 474.332 122.067C474.933 120.974 475.76 120.14 476.819 119.552C477.872 118.951 479.088 118.65 480.455 118.65C481.781 118.65 482.956 118.944 483.981 119.525C485.02 120.092 485.82 120.905 486.387 121.958C486.968 122.997 487.262 124.193 487.262 125.539ZM484.255 124.637C484.234 123.564 483.852 122.71 483.107 122.067C482.355 121.411 481.439 121.083 480.346 121.083C479.341 121.083 478.487 121.404 477.776 122.04C477.065 122.682 476.635 123.543 476.491 124.637H484.255Z" fill="black"/>
<path d="M491.472 121.138C491.889 120.427 492.442 119.874 493.139 119.47C493.85 119.074 494.684 118.869 495.654 118.869V121.876H494.916C493.782 121.876 492.928 122.17 492.347 122.751C491.759 123.318 491.472 124.309 491.472 125.73V133.111H488.574V119.115H491.472V121.138Z" fill="black"/>
<path d="M510.774 125.539C510.774 126.072 510.746 126.543 510.692 126.96H499.976C500.065 128.095 500.481 128.997 501.233 129.667C501.978 130.343 502.887 130.678 503.967 130.678C505.532 130.678 506.632 130.022 507.275 128.71H510.391C509.967 130.008 509.202 131.061 508.095 131.881C506.981 132.701 505.607 133.111 503.967 133.111C502.634 133.111 501.431 132.81 500.358 132.209C499.299 131.608 498.472 130.76 497.871 129.667C497.269 128.573 496.969 127.309 496.969 125.867C496.969 124.432 497.256 123.161 497.844 122.067C498.445 120.974 499.272 120.14 500.331 119.552C501.384 118.951 502.6 118.65 503.967 118.65C505.293 118.65 506.468 118.944 507.493 119.525C508.532 120.092 509.332 120.905 509.899 121.958C510.48 122.997 510.774 124.193 510.774 125.539ZM507.767 124.637C507.746 123.564 507.363 122.71 506.618 122.067C505.867 121.411 504.951 121.083 503.857 121.083C502.853 121.083 501.999 121.404 501.288 122.04C500.577 122.682 500.147 123.543 500.003 124.637H507.767Z" fill="black"/>
<path d="M512.086 125.812C512.086 124.411 512.373 123.174 512.961 122.094C513.562 121.001 514.362 120.154 515.366 119.552C516.364 118.951 517.485 118.65 518.729 118.65C519.638 118.65 520.54 118.855 521.435 119.252C522.323 119.655 523.034 120.181 523.567 120.837V114.085H526.492V132.892H523.567V130.787C523.089 131.464 522.433 132.018 521.599 132.455C520.758 132.892 519.795 133.111 518.701 133.111C517.478 133.111 516.364 132.803 515.366 132.182C514.362 131.566 513.562 130.705 512.961 129.612C512.373 128.505 512.086 127.234 512.086 125.812ZM523.567 125.867C523.567 124.903 523.362 124.063 522.966 123.352C522.563 122.641 522.036 122.108 521.38 121.739C520.738 121.356 520.054 121.165 519.33 121.165C518.578 121.165 517.881 121.35 517.225 121.712C516.583 122.081 516.063 122.614 515.667 123.325C515.264 124.022 515.066 124.849 515.066 125.812C515.066 126.783 515.264 127.63 515.667 128.354C516.063 129.086 516.596 129.639 517.252 130.022C517.909 130.405 518.599 130.596 519.33 130.596C520.054 130.596 520.738 130.418 521.38 130.049C522.036 129.667 522.563 129.12 522.966 128.409C523.362 127.685 523.567 126.837 523.567 125.867Z" fill="black"/>
<path d="M547.759 121.033C548.702 121.197 549.509 121.703 550.165 122.537C550.821 123.357 551.149 124.3 551.149 125.352C551.149 126.247 550.91 127.061 550.438 127.785C549.98 128.496 549.304 129.063 548.415 129.48C547.54 129.904 546.515 130.109 545.354 130.109H538.301V112.449H545.025C546.228 112.449 547.253 112.654 548.114 113.051C548.989 113.454 549.645 114.001 550.083 114.691C550.52 115.388 550.739 116.154 550.739 116.987C550.739 118.012 550.465 118.86 549.919 119.53C549.386 120.206 548.668 120.705 547.759 121.033ZM541.198 119.858H544.779C545.723 119.858 546.461 119.653 546.994 119.229C547.54 118.791 547.814 118.163 547.814 117.343C547.814 116.543 547.54 115.921 546.994 115.484C546.461 115.033 545.723 114.8 544.779 114.8H541.198V119.858ZM545.108 127.758C546.092 127.758 546.857 127.525 547.404 127.047C547.964 126.555 548.251 125.892 548.251 125.051C548.251 124.197 547.95 123.514 547.349 123.001C546.761 122.496 545.982 122.236 544.998 122.236H541.198V127.758H545.108Z" fill="black"/>
<path d="M567 116.381L558.416 136.965H555.409L558.252 130.158L552.73 116.381H555.956L559.92 127.042L563.993 116.381H567Z" fill="black"/>
<path d="M589.337 128.833H581.956L580.671 132.441H577.664L583.979 114.755H587.341L593.683 132.441H590.621L589.337 128.833ZM588.544 126.455L585.674 118.254L582.776 126.455H588.544Z" fill="black"/>
<path d="M599.206 114.755V132.414H596.309V114.755H599.206Z" fill="black"/>
<path d="M609.729 138.305H604.453V135.899H607.023V112.226H604.453V109.821H609.729V138.305Z" fill="black"/>
<defs>
<clipPath id="clip0_10383_58086">
<rect width="141.711" height="64.2948" fill="white" transform="translate(7.96484 46.7893)"/>
</clipPath>
</defs>
</svg>
