<svg width="262" height="70" viewBox="0 0 262 70" fill="none" xmlns="http://www.w3.org/2000/svg">
<path d="M74.5451 45.0332V13.9141H78.6795V45.0332H74.5451ZM95.5801 22.2273C98.1881 22.2273 100.278 23.0572 101.848 24.7169C103.419 26.3469 104.204 28.5697 104.204 31.3852V45.0332H100.337V31.6075C100.337 29.8293 99.8478 28.4363 98.8698 27.4287C97.8918 26.421 96.5433 25.9172 94.8243 25.9172C92.8386 25.9172 91.2678 26.5396 90.112 27.7843C88.9561 28.9995 88.3782 30.8221 88.3782 33.2524V45.0332H84.5105V22.8053H88.3782V26.0061C89.9193 23.4869 92.32 22.2273 95.5801 22.2273ZM112.493 28.8068C112.493 30.2294 113.96 31.3408 116.895 32.141C117.991 32.3781 118.91 32.63 119.651 32.8967C120.421 33.1338 121.251 33.5043 122.14 34.0081C123.059 34.512 123.756 35.1788 124.23 36.0087C124.704 36.8385 124.941 37.8165 124.941 38.9427C124.941 40.9581 124.156 42.5733 122.585 43.7884C121.014 45.0036 119.028 45.6111 116.628 45.6111C114.494 45.6111 112.642 45.1518 111.071 44.233C109.53 43.2846 108.433 42.0102 107.781 40.4098L111.115 38.4982C111.471 39.5651 112.138 40.4098 113.116 41.0322C114.094 41.6546 115.265 41.9657 116.628 41.9657C117.961 41.9657 119.028 41.7138 119.829 41.21C120.629 40.7062 121.029 39.9504 121.029 38.9427C121.029 37.4312 119.562 36.3347 116.628 35.653C115.65 35.3863 114.909 35.1788 114.405 35.0306C113.901 34.8824 113.205 34.6157 112.316 34.2304C111.456 33.8451 110.804 33.445 110.36 33.0301C109.915 32.5856 109.5 32.0076 109.115 31.2963C108.759 30.5554 108.581 29.7404 108.581 28.8513C108.581 26.9248 109.322 25.3392 110.804 24.0945C112.316 22.8497 114.198 22.2273 116.45 22.2273C118.258 22.2273 119.858 22.6423 121.251 23.4721C122.674 24.2723 123.741 25.3985 124.452 26.8507L121.207 28.6734C120.407 26.7767 118.821 25.8283 116.45 25.8283C115.324 25.8283 114.375 26.095 113.605 26.6285C112.864 27.1619 112.493 27.8881 112.493 28.8068ZM140.3 22.8053V26.5396H134.387V38.5871C134.387 39.6837 134.594 40.4691 135.009 40.9433C135.454 41.3878 136.121 41.6249 137.01 41.6546C137.899 41.6546 138.995 41.6249 140.3 41.5656V45.0332C136.891 45.4778 134.402 45.1962 132.831 44.1885C131.29 43.1809 130.519 41.3137 130.519 38.5871V26.5396H126.118V22.8053H130.519V17.7373L134.387 16.5814V22.8053H140.3ZM161.71 26.6285V22.8053H165.578V45.0332H161.71V41.21C159.813 44.1441 157.012 45.6111 153.308 45.6111C150.166 45.6111 147.514 44.4849 145.35 42.2325C143.157 39.9504 142.06 37.1793 142.06 33.9192C142.06 30.6888 143.157 27.9325 145.35 25.6504C147.543 23.3684 150.196 22.2273 153.308 22.2273C157.012 22.2273 159.813 23.6944 161.71 26.6285ZM153.797 41.8768C156.049 41.8768 157.931 41.1211 159.443 39.6096C160.954 38.0388 161.71 36.142 161.71 33.9192C161.71 31.6668 160.954 29.7848 159.443 28.2733C157.931 26.7322 156.049 25.9616 153.797 25.9616C151.574 25.9616 149.707 26.7322 148.195 28.2733C146.684 29.7848 145.928 31.6668 145.928 33.9192C145.928 36.142 146.684 38.0388 148.195 39.6096C149.707 41.1211 151.574 41.8768 153.797 41.8768ZM184.196 45.0332H179.528L168.414 13.9141H172.86L181.885 39.8763L190.865 13.9141H195.355L184.196 45.0332ZM199.247 18.7598C198.506 18.7598 197.884 18.5079 197.38 18.004C196.876 17.5002 196.624 16.8926 196.624 16.1813C196.624 15.47 196.876 14.8625 197.38 14.3586C197.884 13.8252 198.506 13.5584 199.247 13.5584C199.959 13.5584 200.566 13.8252 201.07 14.3586C201.574 14.8625 201.826 15.47 201.826 16.1813C201.826 16.8926 201.574 17.5002 201.07 18.004C200.566 18.5079 199.959 18.7598 199.247 18.7598ZM201.159 45.0332H197.291V22.8053H201.159V45.0332ZM227.954 35.6975H209.327C209.712 37.6535 210.616 39.1947 212.038 40.3209C213.461 41.4175 215.239 41.9657 217.373 41.9657C220.307 41.9657 222.441 40.884 223.775 38.7205L227.065 40.5876C224.871 43.9366 221.611 45.6111 217.284 45.6111C213.787 45.6111 210.912 44.5146 208.66 42.3214C206.467 40.069 205.37 37.2682 205.37 33.9192C205.37 30.5406 206.452 27.7547 208.615 25.5615C210.779 23.3387 213.58 22.2273 217.018 22.2273C220.278 22.2273 222.93 23.3832 224.975 25.6949C227.05 27.9473 228.087 30.7036 228.087 33.9637C228.087 34.5268 228.043 35.1047 227.954 35.6975ZM217.018 25.8727C214.973 25.8727 213.254 26.4506 211.861 27.6065C210.497 28.7624 209.653 30.3331 209.327 32.3188H224.175C223.849 30.2739 223.034 28.6883 221.73 27.562C220.426 26.4358 218.855 25.8727 217.018 25.8727ZM252.514 39.743L257.405 22.8053H261.45L254.559 45.0332H250.603L245.402 28.5845L240.2 45.0332H236.244L229.353 22.8053H233.398L238.289 39.6985L243.534 22.8053H247.269L252.514 39.743Z" fill="black"/>
<path d="M16.9854 6.85352H10.4386C9.46285 6.85352 8.67188 7.64449 8.67188 8.62021V15.1671" stroke="black" stroke-width="1.84745" stroke-linecap="round"/>
<path d="M16.9854 49.9629H10.4386C9.46285 49.9629 8.67188 49.1719 8.67188 48.1962V41.6493" stroke="black" stroke-width="1.84745" stroke-linecap="round"/>
<path d="M43.4599 6.85352H50.0067C50.9825 6.85352 51.7734 7.64449 51.7734 8.62021V15.1671" stroke="black" stroke-width="1.84745" stroke-linecap="round"/>
<path d="M43.4599 49.9629H50.0067C50.9825 49.9629 51.7734 49.1719 51.7734 48.1962V41.6493" stroke="black" stroke-width="1.84745" stroke-linecap="round"/>
<rect width="6.07818" height="22.9114" rx="3.03909" transform="matrix(0.893353 -0.449355 0.449353 0.893355 14.0156 20.9082)" fill="black"/>
<rect width="6.07818" height="22.9114" rx="3.03909" transform="matrix(0.893353 -0.449355 0.449353 0.893355 23.7344 20.916)" fill="black"/>
<rect width="6.07818" height="22.9114" rx="3.03909" transform="matrix(-0.893353 -0.449355 -0.449353 0.893355 47.2109 20.916)" fill="black"/>
<path d="M75.7715 60.375C76.2633 60.375 76.6873 60.4767 77.0435 60.6802C77.3996 60.8781 77.6965 61.1721 77.9339 61.5622L77.3657 62.0031C77.1566 61.6413 76.9191 61.3869 76.6534 61.2399C76.3933 61.0873 76.0768 61.011 75.7036 61.011C75.404 61.011 75.1552 61.0534 74.9574 61.1382C74.7652 61.223 74.6238 61.336 74.5334 61.4774C74.4429 61.6131 74.3977 61.7685 74.3977 61.9438C74.3977 62.1417 74.4599 62.3169 74.5843 62.4696C74.7086 62.6165 74.9574 62.7324 75.3305 62.8172L76.5432 63.0886C77.0802 63.2073 77.4534 63.3882 77.6625 63.6313C77.8774 63.8688 77.9848 64.1656 77.9848 64.5217C77.9848 64.8383 77.8943 65.121 77.7134 65.3698C77.5382 65.6128 77.2894 65.8022 76.9672 65.9379C76.6449 66.0736 76.2661 66.1414 75.8308 66.1414C75.4238 66.1414 75.0648 66.0877 74.7539 65.9803C74.4486 65.8673 74.1857 65.7174 73.9652 65.5309C73.7447 65.3443 73.5638 65.1351 73.4225 64.9033L74.0161 64.42C74.1235 64.6348 74.262 64.8242 74.4316 64.9881C74.6012 65.1521 74.8047 65.2793 75.0422 65.3698C75.2853 65.4602 75.5623 65.5054 75.8732 65.5054C76.1616 65.5054 76.4103 65.4715 76.6195 65.4037C76.8343 65.3302 76.9983 65.2256 77.1113 65.0899C77.2244 64.9486 77.2809 64.779 77.2809 64.5811C77.2809 64.4002 77.2216 64.2391 77.1028 64.0977C76.9841 63.9507 76.7608 63.8405 76.4329 63.767L75.1185 63.4702C74.7736 63.3911 74.4938 63.2836 74.279 63.148C74.0698 63.0066 73.9171 62.8427 73.821 62.6561C73.7306 62.4639 73.6854 62.2575 73.6854 62.0371C73.6854 61.7374 73.7673 61.4632 73.9313 61.2145C74.1009 60.9601 74.3412 60.7566 74.6521 60.6039C74.9687 60.4513 75.3418 60.375 75.7715 60.375ZM79.2376 66.0566V61.8166H79.8313L79.8737 62.478C80.0263 62.218 80.2242 62.0286 80.4673 61.9099C80.716 61.7911 80.9704 61.7318 81.2305 61.7318C81.5301 61.7318 81.8128 61.7996 82.0785 61.9353C82.3442 62.071 82.5477 62.2802 82.6891 62.5628C82.7795 62.3706 82.9067 62.2151 83.0707 62.0964C83.2346 61.9721 83.4127 61.8816 83.6049 61.8251C83.8028 61.7629 83.9893 61.7318 84.1646 61.7318C84.436 61.7318 84.6932 61.7883 84.9363 61.9014C85.185 62.0145 85.3886 62.1897 85.5469 62.4272C85.7051 62.6646 85.7843 62.9699 85.7843 63.343V66.0566H85.1059V63.4108C85.1059 63.0264 85.0098 62.7494 84.8176 62.5798C84.6253 62.4102 84.3879 62.3254 84.1052 62.3254C83.8848 62.3254 83.6784 62.3791 83.4862 62.4865C83.294 62.5939 83.1385 62.7522 83.0198 62.9614C82.9067 63.1706 82.8502 63.4278 82.8502 63.7331V66.0566H82.1718V63.4108C82.1718 63.0264 82.0757 62.7494 81.8834 62.5798C81.6912 62.4102 81.4538 62.3254 81.1711 62.3254C80.9846 62.3254 80.7923 62.3763 80.5945 62.478C80.4023 62.5741 80.2411 62.7296 80.1111 62.9444C79.9811 63.1593 79.9161 63.4419 79.9161 63.7925V66.0566H79.2376ZM89.7964 63.3176C89.7964 63.001 89.7116 62.7579 89.542 62.5883C89.3724 62.413 89.1322 62.3254 88.8212 62.3254C88.5273 62.3254 88.2785 62.3904 88.075 62.5204C87.8715 62.6448 87.7216 62.8483 87.6255 63.131L87.0743 62.7918C87.1874 62.4752 87.3966 62.2208 87.7019 62.0286C88.0071 61.8307 88.3859 61.7318 88.8382 61.7318C89.1435 61.7318 89.4205 61.7855 89.6692 61.8929C89.918 61.9947 90.113 62.153 90.2544 62.3678C90.4014 62.577 90.4749 62.8483 90.4749 63.1819V65.2341C90.4749 65.4376 90.5823 65.5394 90.7971 65.5394C90.9045 65.5394 91.0091 65.5252 91.1109 65.497L91.0769 66.0312C90.9639 66.0877 90.8169 66.116 90.636 66.116C90.472 66.116 90.325 66.0849 90.195 66.0227C90.065 65.9605 89.9632 65.8673 89.8897 65.7429C89.8162 65.6128 89.7795 65.4517 89.7795 65.2595V65.1747L89.9491 65.2001C89.8813 65.4206 89.7654 65.6015 89.6014 65.7429C89.4375 65.8786 89.2537 65.9803 89.0502 66.0482C88.8467 66.1103 88.646 66.1414 88.4481 66.1414C88.1994 66.1414 87.9676 66.099 87.7527 66.0142C87.5379 65.9294 87.3655 65.8022 87.2355 65.6326C87.1111 65.4574 87.0489 65.2425 87.0489 64.9881C87.0489 64.6716 87.1535 64.4115 87.3627 64.208C87.5775 63.9988 87.8743 63.8575 88.2531 63.784L89.9321 63.4532V64.0129L88.5668 64.2928C88.2898 64.3493 88.0835 64.4285 87.9478 64.5302C87.8121 64.632 87.7443 64.7733 87.7443 64.9542C87.7443 65.1295 87.8121 65.2736 87.9478 65.3867C88.0891 65.4941 88.287 65.5478 88.5414 65.5478C88.7053 65.5478 88.8608 65.528 89.0078 65.4885C89.1604 65.4432 89.2961 65.3782 89.4148 65.2934C89.5336 65.203 89.6268 65.0927 89.6947 64.9627C89.7625 64.827 89.7964 64.6687 89.7964 64.4878V63.3176ZM92.1234 66.0566V61.8166H92.6747L92.7679 62.512C92.8867 62.2519 93.0591 62.0569 93.2852 61.9268C93.517 61.7968 93.7969 61.7318 94.1248 61.7318C94.1982 61.7318 94.2774 61.7374 94.3622 61.7487C94.4527 61.76 94.529 61.7827 94.5912 61.8166L94.4724 62.4356C94.4102 62.413 94.3424 62.3961 94.2689 62.3848C94.1954 62.3734 94.0908 62.3678 93.9552 62.3678C93.7799 62.3678 93.6018 62.4187 93.4209 62.5204C93.2456 62.6222 93.0987 62.7777 92.9799 62.9868C92.8612 63.1904 92.8019 63.4504 92.8019 63.767V66.0566H92.1234ZM96.329 60.6124V64.8864C96.329 65.0956 96.3883 65.251 96.5071 65.3528C96.6258 65.4546 96.7784 65.5054 96.965 65.5054C97.1289 65.5054 97.2703 65.4772 97.389 65.4206C97.5077 65.3641 97.6151 65.2878 97.7112 65.1917L97.9487 65.7598C97.8187 65.8786 97.6632 65.9718 97.4823 66.0397C97.307 66.1075 97.1035 66.1414 96.8717 66.1414C96.6569 66.1414 96.4562 66.1047 96.2696 66.0312C96.0831 65.9521 95.9332 65.8305 95.8202 65.6666C95.7128 65.497 95.6562 65.2765 95.6506 65.0051V60.799L96.329 60.6124ZM97.8724 61.8166V62.4017H94.8026V61.8166H97.8724ZM103.696 60.375C104.188 60.375 104.612 60.4767 104.968 60.6802C105.324 60.8781 105.621 61.1721 105.859 61.5622L105.29 62.0031C105.081 61.6413 104.844 61.3869 104.578 61.2399C104.318 61.0873 104.002 61.011 103.628 61.011C103.329 61.011 103.08 61.0534 102.882 61.1382C102.69 61.223 102.549 61.336 102.458 61.4774C102.368 61.6131 102.322 61.7685 102.322 61.9438C102.322 62.1417 102.385 62.3169 102.509 62.4696C102.633 62.6165 102.882 62.7324 103.255 62.8172L104.468 63.0886C105.005 63.2073 105.378 63.3882 105.587 63.6313C105.802 63.8688 105.91 64.1656 105.91 64.5217C105.91 64.8383 105.819 65.121 105.638 65.3698C105.463 65.6128 105.214 65.8022 104.892 65.9379C104.57 66.0736 104.191 66.1414 103.756 66.1414C103.349 66.1414 102.99 66.0877 102.679 65.9803C102.373 65.8673 102.11 65.7174 101.89 65.5309C101.669 65.3443 101.489 65.1351 101.347 64.9033L101.941 64.42C102.048 64.6348 102.187 64.8242 102.356 64.9881C102.526 65.1521 102.729 65.2793 102.967 65.3698C103.21 65.4602 103.487 65.5054 103.798 65.5054C104.086 65.5054 104.335 65.4715 104.544 65.4037C104.759 65.3302 104.923 65.2256 105.036 65.0899C105.149 64.9486 105.206 64.779 105.206 64.5811C105.206 64.4002 105.146 64.2391 105.028 64.0977C104.909 63.9507 104.686 63.8405 104.358 63.767L103.043 63.4702C102.698 63.3911 102.419 63.2836 102.204 63.148C101.995 63.0066 101.842 62.8427 101.746 62.6561C101.655 62.4639 101.61 62.2575 101.61 62.0371C101.61 61.7374 101.692 61.4632 101.856 61.2145C102.026 60.9601 102.266 60.7566 102.577 60.6039C102.893 60.4513 103.267 60.375 103.696 60.375ZM109.597 63.3176C109.597 63.001 109.512 62.7579 109.343 62.5883C109.173 62.413 108.933 62.3254 108.622 62.3254C108.328 62.3254 108.079 62.3904 107.876 62.5204C107.672 62.6448 107.522 62.8483 107.426 63.131L106.875 62.7918C106.988 62.4752 107.197 62.2208 107.503 62.0286C107.808 61.8307 108.187 61.7318 108.639 61.7318C108.944 61.7318 109.221 61.7855 109.47 61.8929C109.719 61.9947 109.914 62.153 110.055 62.3678C110.202 62.577 110.276 62.8483 110.276 63.1819V65.2341C110.276 65.4376 110.383 65.5394 110.598 65.5394C110.705 65.5394 110.81 65.5252 110.912 65.497L110.878 66.0312C110.765 66.0877 110.618 66.116 110.437 66.116C110.273 66.116 110.126 66.0849 109.996 66.0227C109.866 65.9605 109.764 65.8673 109.69 65.7429C109.617 65.6128 109.58 65.4517 109.58 65.2595V65.1747L109.75 65.2001C109.682 65.4206 109.566 65.6015 109.402 65.7429C109.238 65.8786 109.054 65.9803 108.851 66.0482C108.647 66.1103 108.447 66.1414 108.249 66.1414C108 66.1414 107.768 66.099 107.553 66.0142C107.339 65.9294 107.166 65.8022 107.036 65.6326C106.912 65.4574 106.85 65.2425 106.85 64.9881C106.85 64.6716 106.954 64.4115 107.163 64.208C107.378 63.9988 107.675 63.8575 108.054 63.784L109.733 63.4532V64.0129L108.368 64.2928C108.091 64.3493 107.884 64.4285 107.749 64.5302C107.613 64.632 107.545 64.7733 107.545 64.9542C107.545 65.1295 107.613 65.2736 107.749 65.3867C107.89 65.4941 108.088 65.5478 108.342 65.5478C108.506 65.5478 108.662 65.528 108.809 65.4885C108.961 65.4432 109.097 65.3782 109.216 65.2934C109.334 65.203 109.428 65.0927 109.495 64.9627C109.563 64.827 109.597 64.6687 109.597 64.4878V63.3176ZM113.604 59.8238C113.751 59.8238 113.89 59.8407 114.02 59.8746C114.15 59.9086 114.252 59.9566 114.325 60.0188L114.147 60.57C114.079 60.5248 114.006 60.4937 113.926 60.4767C113.847 60.4541 113.76 60.4428 113.664 60.4428C113.421 60.4428 113.231 60.5022 113.095 60.6209C112.96 60.734 112.892 60.9177 112.892 61.1721V61.8166V62.0371V66.0566H112.213V61.1043C112.213 60.9177 112.242 60.7453 112.298 60.587C112.355 60.4287 112.44 60.293 112.553 60.1799C112.671 60.0669 112.818 59.9792 112.994 59.917C113.169 59.8549 113.372 59.8238 113.604 59.8238ZM114.308 61.8166V62.4017H111.365V61.8166H114.308ZM116.868 66.1414C116.467 66.1414 116.108 66.0538 115.791 65.8786C115.48 65.7033 115.237 65.4517 115.062 65.1238C114.887 64.7903 114.799 64.3945 114.799 63.9366C114.799 63.4787 114.887 63.0858 115.062 62.7579C115.237 62.4243 115.478 62.1699 115.783 61.9947C116.088 61.8194 116.436 61.7318 116.826 61.7318C117.222 61.7318 117.558 61.8166 117.835 61.9862C118.118 62.1558 118.333 62.3876 118.48 62.6816C118.626 62.9699 118.7 63.295 118.7 63.6568C118.7 63.7529 118.697 63.8405 118.692 63.9197C118.686 63.9988 118.677 64.0695 118.666 64.1317H115.24V63.5296H118.369L118.022 63.5974C118.022 63.1904 117.909 62.8766 117.682 62.6561C117.462 62.4356 117.171 62.3254 116.809 62.3254C116.532 62.3254 116.292 62.3904 116.088 62.5204C115.89 62.6448 115.735 62.8285 115.622 63.0716C115.514 63.3091 115.461 63.5974 115.461 63.9366C115.461 64.2702 115.517 64.5585 115.63 64.8016C115.743 65.0447 115.902 65.2312 116.105 65.3613C116.314 65.4856 116.563 65.5478 116.851 65.5478C117.162 65.5478 117.414 65.4885 117.606 65.3698C117.804 65.251 117.962 65.0899 118.081 64.8864L118.615 65.2001C118.508 65.3924 118.369 65.5591 118.2 65.7005C118.036 65.8418 117.841 65.9521 117.615 66.0312C117.394 66.1047 117.145 66.1414 116.868 66.1414ZM120.867 60.6124V64.8864C120.867 65.0956 120.926 65.251 121.045 65.3528C121.163 65.4546 121.316 65.5054 121.503 65.5054C121.667 65.5054 121.808 65.4772 121.927 65.4206C122.045 65.3641 122.153 65.2878 122.249 65.1917L122.486 65.7598C122.356 65.8786 122.201 65.9718 122.02 66.0397C121.845 66.1075 121.641 66.1414 121.409 66.1414C121.195 66.1414 120.994 66.1047 120.807 66.0312C120.621 65.9521 120.471 65.8305 120.358 65.6666C120.25 65.497 120.194 65.2765 120.188 65.0051V60.799L120.867 60.6124ZM122.41 61.8166V62.4017H119.34V61.8166H122.41ZM126.904 61.8166L124.911 66.769C124.804 67.046 124.685 67.2636 124.555 67.4219C124.431 67.5859 124.289 67.7018 124.131 67.7696C123.978 67.8431 123.8 67.8799 123.597 67.8799C123.405 67.8799 123.226 67.8516 123.063 67.7951C122.904 67.7442 122.763 67.6735 122.639 67.5831L122.825 66.9895C122.938 67.0912 123.057 67.1647 123.181 67.2099C123.311 67.2608 123.438 67.2863 123.563 67.2863C123.71 67.2863 123.848 67.241 123.978 67.1506C124.108 67.0601 124.227 66.8764 124.335 66.5994L124.555 66.0482L124.131 65.039L122.783 61.8166H123.554L124.614 64.5811L124.877 65.3358L125.183 64.4963L126.175 61.8166H126.904ZM134.714 66.0566H133.994L133.4 64.5048H130.864L130.271 66.0566H129.558L131.738 60.4598H132.543L134.714 66.0566ZM131.11 63.8688H133.154L132.128 61.1127L131.11 63.8688ZM135.725 66.0566V61.8166H136.318L136.378 62.7664L136.268 62.6731C136.358 62.4469 136.48 62.266 136.632 62.1303C136.785 61.989 136.96 61.8873 137.158 61.8251C137.361 61.7629 137.571 61.7318 137.785 61.7318C138.091 61.7318 138.368 61.7911 138.617 61.9099C138.865 62.0229 139.063 62.1982 139.21 62.4356C139.363 62.6731 139.439 62.9755 139.439 63.343V66.0566H138.761V63.5804C138.761 63.1112 138.659 62.7861 138.455 62.6052C138.258 62.4187 138.012 62.3254 137.718 62.3254C137.514 62.3254 137.311 62.3734 137.107 62.4696C136.904 62.5657 136.734 62.7211 136.598 62.936C136.468 63.1508 136.403 63.4391 136.403 63.8009V66.0566H135.725ZM142.629 66.1414C142.278 66.1414 141.956 66.0538 141.662 65.8786C141.368 65.7033 141.133 65.4517 140.958 65.1238C140.783 64.7903 140.695 64.3945 140.695 63.9366C140.695 63.4674 140.789 63.0688 140.975 62.7409C141.162 62.413 141.408 62.1643 141.713 61.9947C142.018 61.8194 142.346 61.7318 142.697 61.7318C143.047 61.7318 143.35 61.8222 143.604 62.0031C143.864 62.1841 144.037 62.4243 144.121 62.724L144.037 62.7833V59.8662H144.715V66.0566H144.121L144.062 65.0305L144.155 64.9797C144.116 65.2284 144.02 65.4404 143.867 65.6157C143.72 65.7853 143.536 65.9153 143.316 66.0058C143.101 66.0962 142.872 66.1414 142.629 66.1414ZM142.697 65.5478C142.968 65.5478 143.203 65.48 143.401 65.3443C143.604 65.2086 143.76 65.0164 143.867 64.7677C143.98 64.5133 144.037 64.2165 144.037 63.8773C144.037 63.555 143.98 63.278 143.867 63.0462C143.76 62.8144 143.607 62.6363 143.409 62.512C143.217 62.3876 142.991 62.3254 142.731 62.3254C142.301 62.3254 141.967 62.4724 141.73 62.7664C141.492 63.0603 141.374 63.4504 141.374 63.9366C141.374 64.4228 141.49 64.8129 141.721 65.1069C141.953 65.4008 142.278 65.5478 142.697 65.5478ZM151.107 60.375C151.599 60.375 152.023 60.4767 152.379 60.6802C152.735 60.8781 153.032 61.1721 153.269 61.5622L152.701 62.0031C152.492 61.6413 152.255 61.3869 151.989 61.2399C151.729 61.0873 151.412 61.011 151.039 61.011C150.74 61.011 150.491 61.0534 150.293 61.1382C150.101 61.223 149.959 61.336 149.869 61.4774C149.778 61.6131 149.733 61.7685 149.733 61.9438C149.733 62.1417 149.795 62.3169 149.92 62.4696C150.044 62.6165 150.293 62.7324 150.666 62.8172L151.879 63.0886C152.416 63.2073 152.789 63.3882 152.998 63.6313C153.213 63.8688 153.32 64.1656 153.32 64.5217C153.32 64.8383 153.23 65.121 153.049 65.3698C152.874 65.6128 152.625 65.8022 152.303 65.9379C151.98 66.0736 151.602 66.1414 151.166 66.1414C150.759 66.1414 150.4 66.0877 150.089 65.9803C149.784 65.8673 149.521 65.7174 149.301 65.5309C149.08 65.3443 148.899 65.1351 148.758 64.9033L149.352 64.42C149.459 64.6348 149.598 64.8242 149.767 64.9881C149.937 65.1521 150.14 65.2793 150.378 65.3698C150.621 65.4602 150.898 65.5054 151.209 65.5054C151.497 65.5054 151.746 65.4715 151.955 65.4037C152.17 65.3302 152.334 65.2256 152.447 65.0899C152.56 64.9486 152.616 64.779 152.616 64.5811C152.616 64.4002 152.557 64.2391 152.438 64.0977C152.32 63.9507 152.096 63.8405 151.768 63.767L150.454 63.4702C150.109 63.3911 149.829 63.2836 149.615 63.148C149.405 63.0066 149.253 62.8427 149.157 62.6561C149.066 62.4639 149.021 62.2575 149.021 62.0371C149.021 61.7374 149.103 61.4632 149.267 61.2145C149.436 60.9601 149.677 60.7566 149.988 60.6039C150.304 60.4513 150.677 60.375 151.107 60.375ZM156.387 66.1414C155.986 66.1414 155.627 66.0538 155.31 65.8786C154.999 65.7033 154.756 65.4517 154.581 65.1238C154.405 64.7903 154.318 64.3945 154.318 63.9366C154.318 63.4787 154.405 63.0858 154.581 62.7579C154.756 62.4243 154.996 62.1699 155.301 61.9947C155.607 61.8194 155.954 61.7318 156.345 61.7318C156.74 61.7318 157.077 61.8166 157.354 61.9862C157.636 62.1558 157.851 62.3876 157.998 62.6816C158.145 62.9699 158.219 63.295 158.219 63.6568C158.219 63.7529 158.216 63.8405 158.21 63.9197C158.205 63.9988 158.196 64.0695 158.185 64.1317H154.759V63.5296H157.888L157.54 63.5974C157.54 63.1904 157.427 62.8766 157.201 62.6561C156.981 62.4356 156.689 62.3254 156.328 62.3254C156.051 62.3254 155.81 62.3904 155.607 62.5204C155.409 62.6448 155.253 62.8285 155.14 63.0716C155.033 63.3091 154.979 63.5974 154.979 63.9366C154.979 64.2702 155.036 64.5585 155.149 64.8016C155.262 65.0447 155.42 65.2312 155.624 65.3613C155.833 65.4856 156.082 65.5478 156.37 65.5478C156.681 65.5478 156.932 65.4885 157.125 65.3698C157.323 65.251 157.481 65.0899 157.6 64.8864L158.134 65.2001C158.026 65.3924 157.888 65.5591 157.718 65.7005C157.554 65.8418 157.359 65.9521 157.133 66.0312C156.913 66.1047 156.664 66.1414 156.387 66.1414ZM161.264 61.7318C161.558 61.7318 161.815 61.777 162.036 61.8675C162.262 61.9579 162.457 62.0879 162.621 62.2575C162.785 62.4272 162.918 62.6278 163.02 62.8596L162.375 63.1649C162.285 62.8936 162.146 62.6872 161.96 62.5459C161.779 62.3989 161.541 62.3254 161.247 62.3254C160.965 62.3254 160.722 62.3904 160.518 62.5204C160.314 62.6448 160.159 62.8285 160.052 63.0716C159.944 63.3091 159.89 63.5974 159.89 63.9366C159.89 64.2702 159.944 64.5585 160.052 64.8016C160.159 65.0447 160.314 65.2312 160.518 65.3613C160.722 65.4856 160.965 65.5478 161.247 65.5478C161.468 65.5478 161.657 65.5139 161.815 65.4461C161.979 65.3782 162.112 65.2793 162.214 65.1493C162.321 65.0192 162.395 64.8609 162.435 64.6744L163.062 64.8949C162.966 65.1549 162.833 65.3782 162.663 65.5648C162.5 65.7514 162.299 65.8955 162.061 65.9973C161.83 66.0934 161.564 66.1414 161.264 66.1414C160.869 66.1414 160.515 66.0538 160.204 65.8786C159.893 65.7033 159.65 65.4517 159.475 65.1238C159.3 64.7903 159.212 64.3945 159.212 63.9366C159.212 63.4787 159.3 63.0858 159.475 62.7579C159.65 62.4243 159.893 62.1699 160.204 61.9947C160.515 61.8194 160.869 61.7318 161.264 61.7318ZM165.789 66.1414C165.518 66.1414 165.26 66.0906 165.017 65.9888C164.78 65.887 164.585 65.7231 164.432 65.497C164.285 65.2652 164.212 64.9655 164.212 64.5981V61.8166H164.89V64.42C164.89 64.8496 164.983 65.1464 165.17 65.3104C165.357 65.4687 165.619 65.5478 165.959 65.5478C166.117 65.5478 166.272 65.5224 166.425 65.4715C166.578 65.415 166.713 65.3302 166.832 65.2171C166.956 65.0984 167.053 64.9486 167.12 64.7677C167.194 64.5868 167.231 64.3719 167.231 64.1232V61.8166H167.909V66.0566H167.315L167.273 65.4122C167.126 65.6666 166.925 65.8531 166.671 65.9718C166.422 66.0849 166.128 66.1414 165.789 66.1414ZM169.488 66.0566V61.8166H170.039L170.132 62.512C170.251 62.2519 170.424 62.0569 170.65 61.9268C170.881 61.7968 171.161 61.7318 171.489 61.7318C171.563 61.7318 171.642 61.7374 171.727 61.7487C171.817 61.76 171.893 61.7827 171.956 61.8166L171.837 62.4356C171.775 62.413 171.707 62.3961 171.633 62.3848C171.56 62.3734 171.455 62.3678 171.32 62.3678C171.144 62.3678 170.966 62.4187 170.785 62.5204C170.61 62.6222 170.463 62.7777 170.344 62.9868C170.226 63.1904 170.166 63.4504 170.166 63.767V66.0566H169.488ZM173.289 61.0025C173.136 61.0025 173.012 60.9573 172.916 60.8668C172.825 60.7707 172.78 60.6463 172.78 60.4937C172.78 60.341 172.825 60.2195 172.916 60.129C173.012 60.0329 173.136 59.9849 173.289 59.9849C173.441 59.9849 173.563 60.0329 173.653 60.129C173.749 60.2195 173.798 60.341 173.798 60.4937C173.798 60.6463 173.749 60.7707 173.653 60.8668C173.563 60.9573 173.441 61.0025 173.289 61.0025ZM173.628 61.8166V66.0566H172.95V61.8166H173.628ZM176.203 60.6124V64.8864C176.203 65.0956 176.262 65.251 176.381 65.3528C176.5 65.4546 176.652 65.5054 176.839 65.5054C177.003 65.5054 177.144 65.4772 177.263 65.4206C177.381 65.3641 177.489 65.2878 177.585 65.1917L177.822 65.7598C177.692 65.8786 177.537 65.9718 177.356 66.0397C177.181 66.1075 176.977 66.1414 176.745 66.1414C176.531 66.1414 176.33 66.1047 176.143 66.0312C175.957 65.9521 175.807 65.8305 175.694 65.6666C175.586 65.497 175.53 65.2765 175.524 65.0051V60.799L176.203 60.6124ZM177.746 61.8166V62.4017H174.676V61.8166H177.746ZM182.24 61.8166L180.247 66.769C180.14 67.046 180.021 67.2636 179.891 67.4219C179.767 67.5859 179.625 67.7018 179.467 67.7696C179.314 67.8431 179.136 67.8799 178.933 67.8799C178.741 67.8799 178.563 67.8516 178.399 67.7951C178.24 67.7442 178.099 67.6735 177.975 67.5831L178.161 66.9895C178.274 67.0912 178.393 67.1647 178.517 67.2099C178.647 67.2608 178.775 67.2863 178.899 67.2863C179.046 67.2863 179.184 67.241 179.314 67.1506C179.444 67.0601 179.563 66.8764 179.671 66.5994L179.891 66.0482L179.467 65.039L178.119 61.8166H178.89L179.95 64.5811L180.213 65.3358L180.519 64.4963L181.511 61.8166H182.24ZM187.999 60.4598C188.4 60.4598 188.745 60.5304 189.033 60.6718C189.327 60.8131 189.556 61.0138 189.72 61.2739C189.884 61.5339 189.966 61.8477 189.966 62.2151C189.966 62.577 189.884 62.8907 189.72 63.1564C189.556 63.4165 189.327 63.6172 189.033 63.7585C188.745 63.8999 188.4 63.9705 187.999 63.9705H186.752V66.0566H185.845V60.4598H187.999ZM187.854 63.1904C188.256 63.1904 188.55 63.1084 188.736 62.9444C188.929 62.7748 189.025 62.5317 189.025 62.2151C189.025 61.8929 188.929 61.6498 188.736 61.4859C188.55 61.3163 188.256 61.2315 187.854 61.2315H186.752V63.1904H187.854ZM192.783 61.7318C193.196 61.7318 193.56 61.8194 193.877 61.9947C194.194 62.1699 194.44 62.4243 194.615 62.7579C194.796 63.0858 194.886 63.4787 194.886 63.9366C194.886 64.3945 194.796 64.7903 194.615 65.1238C194.44 65.4517 194.194 65.7033 193.877 65.8786C193.56 66.0538 193.196 66.1414 192.783 66.1414C192.37 66.1414 192.006 66.0538 191.689 65.8786C191.373 65.7033 191.124 65.4517 190.943 65.1238C190.762 64.7903 190.672 64.3945 190.672 63.9366C190.672 63.4787 190.762 63.0858 190.943 62.7579C191.124 62.4243 191.373 62.1699 191.689 61.9947C192.006 61.8194 192.37 61.7318 192.783 61.7318ZM192.783 62.4441C192.529 62.4441 192.311 62.5035 192.13 62.6222C191.955 62.7353 191.819 62.902 191.723 63.1225C191.627 63.343 191.579 63.6144 191.579 63.9366C191.579 64.2532 191.627 64.5246 191.723 64.7507C191.819 64.9712 191.955 65.1408 192.13 65.2595C192.311 65.3726 192.529 65.4291 192.783 65.4291C193.038 65.4291 193.252 65.3726 193.428 65.2595C193.603 65.1408 193.739 64.9712 193.835 64.7507C193.931 64.5246 193.979 64.2532 193.979 63.9366C193.979 63.6144 193.931 63.343 193.835 63.1225C193.739 62.902 193.603 62.7353 193.428 62.6222C193.252 62.5035 193.038 62.4441 192.783 62.4441ZM201.297 61.8166H202.281L200.856 66.0566H199.864L198.795 62.9105L197.786 66.0566H196.794L195.378 61.8166H196.353L197.32 65.1662L198.371 61.8166H199.279L200.33 65.1662L201.297 61.8166ZM204.899 66.1414C204.475 66.1414 204.102 66.0538 203.78 65.8786C203.458 65.7033 203.206 65.4517 203.025 65.1238C202.85 64.7903 202.762 64.3945 202.762 63.9366C202.762 63.4787 202.85 63.0858 203.025 62.7579C203.206 62.4243 203.455 62.1699 203.771 61.9947C204.088 61.8194 204.447 61.7318 204.848 61.7318C205.261 61.7318 205.612 61.8166 205.9 61.9862C206.188 62.1558 206.409 62.3876 206.561 62.6816C206.714 62.9755 206.79 63.3091 206.79 63.6822C206.79 63.784 206.788 63.8801 206.782 63.9705C206.776 64.061 206.768 64.1401 206.756 64.208H203.347V63.5126H206.358L205.908 63.6483C205.908 63.2639 205.812 62.9699 205.62 62.7664C205.428 62.5572 205.165 62.4526 204.832 62.4526C204.588 62.4526 204.376 62.5091 204.196 62.6222C204.015 62.7353 203.876 62.9049 203.78 63.131C203.684 63.3515 203.636 63.6228 203.636 63.9451C203.636 64.2617 203.687 64.5302 203.788 64.7507C203.89 64.9712 204.034 65.138 204.221 65.251C204.408 65.3641 204.628 65.4206 204.882 65.4206C205.165 65.4206 205.394 65.3669 205.569 65.2595C205.745 65.1521 205.883 65.0023 205.985 64.8101L206.706 65.1493C206.604 65.3528 206.465 65.5309 206.29 65.6835C206.12 65.8305 205.917 65.9436 205.68 66.0227C205.442 66.1019 205.182 66.1414 204.899 66.1414ZM207.936 66.0566V61.8166H208.708L208.793 62.5798C208.906 62.3028 209.073 62.0936 209.293 61.9523C209.519 61.8053 209.796 61.7318 210.124 61.7318C210.209 61.7318 210.294 61.7403 210.379 61.7572C210.463 61.7685 210.534 61.7883 210.591 61.8166L210.463 62.6137C210.401 62.5911 210.331 62.5741 210.251 62.5628C210.178 62.5459 210.076 62.5374 209.946 62.5374C209.771 62.5374 209.598 62.5854 209.429 62.6816C209.259 62.772 209.118 62.9105 209.005 63.0971C208.897 63.2836 208.844 63.5211 208.844 63.8094V66.0566H207.936ZM213.206 66.1414C212.782 66.1414 212.408 66.0538 212.086 65.8786C211.764 65.7033 211.512 65.4517 211.331 65.1238C211.156 64.7903 211.069 64.3945 211.069 63.9366C211.069 63.4787 211.156 63.0858 211.331 62.7579C211.512 62.4243 211.761 62.1699 212.078 61.9947C212.394 61.8194 212.753 61.7318 213.155 61.7318C213.567 61.7318 213.918 61.8166 214.206 61.9862C214.495 62.1558 214.715 62.3876 214.868 62.6816C215.02 62.9755 215.097 63.3091 215.097 63.6822C215.097 63.784 215.094 63.8801 215.088 63.9705C215.082 64.061 215.074 64.1401 215.063 64.208H211.654V63.5126H214.664L214.215 63.6483C214.215 63.2639 214.119 62.9699 213.926 62.7664C213.734 62.5572 213.471 62.4526 213.138 62.4526C212.895 62.4526 212.683 62.5091 212.502 62.6222C212.321 62.7353 212.182 62.9049 212.086 63.131C211.99 63.3515 211.942 63.6228 211.942 63.9451C211.942 64.2617 211.993 64.5302 212.095 64.7507C212.196 64.9712 212.341 65.138 212.527 65.251C212.714 65.3641 212.934 65.4206 213.189 65.4206C213.471 65.4206 213.7 65.3669 213.875 65.2595C214.051 65.1521 214.189 65.0023 214.291 64.8101L215.012 65.1493C214.91 65.3528 214.772 65.5309 214.596 65.6835C214.427 65.8305 214.223 65.9436 213.986 66.0227C213.748 66.1019 213.488 66.1414 213.206 66.1414ZM217.871 66.1414C217.52 66.1414 217.201 66.0538 216.912 65.8786C216.63 65.7033 216.406 65.4517 216.243 65.1238C216.079 64.7959 215.997 64.403 215.997 63.9451C215.997 63.4702 216.084 63.0688 216.259 62.7409C216.435 62.413 216.669 62.1643 216.963 61.9947C217.257 61.8194 217.58 61.7318 217.93 61.7318C218.292 61.7318 218.597 61.8307 218.846 62.0286C219.095 62.2265 219.261 62.4837 219.346 62.8003L219.244 62.8936V59.9086H220.152V66.0566H219.346L219.278 64.9033L219.397 64.9118C219.358 65.1662 219.264 65.3867 219.117 65.5733C218.97 65.7542 218.787 65.8955 218.566 65.9973C218.351 66.0934 218.119 66.1414 217.871 66.1414ZM218.066 65.4122C218.309 65.4122 218.518 65.35 218.693 65.2256C218.869 65.1012 219.004 64.926 219.1 64.6998C219.196 64.4737 219.244 64.2023 219.244 63.8857C219.244 63.5918 219.196 63.3402 219.1 63.131C219.004 62.9162 218.869 62.7522 218.693 62.6392C218.524 62.5261 218.326 62.4696 218.1 62.4696C217.721 62.4696 217.427 62.5996 217.218 62.8596C217.009 63.1197 216.904 63.4787 216.904 63.9366C216.904 64.3945 217.006 64.7564 217.209 65.0221C217.413 65.2821 217.698 65.4122 218.066 65.4122ZM224.444 66.0566V60.4598H226.649C227.322 60.4598 227.813 60.5954 228.124 60.8668C228.435 61.1382 228.591 61.5141 228.591 61.9947C228.591 62.2886 228.506 62.5515 228.336 62.7833C228.167 63.0095 227.918 63.1536 227.59 63.2158V63.2243C227.952 63.2808 228.232 63.4306 228.43 63.6737C228.633 63.9112 228.735 64.1882 228.735 64.5048C228.735 64.9853 228.56 65.3641 228.209 65.6411C227.859 65.9181 227.35 66.0566 226.683 66.0566H224.444ZM225.334 65.3019H226.725C227.081 65.3019 227.347 65.2284 227.522 65.0814C227.703 64.9344 227.794 64.7281 227.794 64.4624C227.794 64.1967 227.703 63.9903 227.522 63.8433C227.347 63.6963 227.081 63.6228 226.725 63.6228H225.334V65.3019ZM225.334 62.8681H226.581C227.293 62.8681 227.65 62.5939 227.65 62.0455C227.65 61.4972 227.293 61.223 226.581 61.223H225.334V62.8681ZM233.654 61.8166L231.797 66.557C231.673 66.8849 231.537 67.1449 231.39 67.3371C231.249 67.5294 231.085 67.6679 230.898 67.7527C230.712 67.8375 230.494 67.8799 230.245 67.8799C230.042 67.8799 229.852 67.8516 229.677 67.7951C229.508 67.7442 229.358 67.6735 229.228 67.5831L229.448 66.8792C229.556 66.9697 229.669 67.0375 229.787 67.0827C229.912 67.128 230.045 67.1506 230.186 67.1506C230.339 67.1506 230.474 67.1082 230.593 67.0234C230.717 66.9442 230.828 66.7831 230.924 66.54L231.11 66.0821L230.661 65.0305L229.338 61.8166H230.356L231.297 64.4793L231.543 65.2765L231.823 64.403L232.713 61.8166H233.654ZM241.463 66.0566H240.505L239.971 64.5896H237.622L237.088 66.0566H236.155L238.266 60.4598H239.352L241.463 66.0566ZM237.876 63.8518H239.717L238.801 61.2399L237.876 63.8518ZM243.363 60.4598V66.0566H242.456V60.4598H243.363Z" fill="black"/>
<path d="M186.253 57.002H183.578V59.677" stroke="black" stroke-width="0.422381" stroke-linecap="round"/>
<path d="M186.253 69.252H183.578V66.5769" stroke="black" stroke-width="0.422381" stroke-linecap="round"/>
<path d="M243.137 57.002H245.812V59.677" stroke="black" stroke-width="0.422381" stroke-linecap="round"/>
<path d="M243.137 69.252H245.812V66.5769" stroke="black" stroke-width="0.422381" stroke-linecap="round"/>
</svg>
