<svg width="262" height="70" viewBox="0 0 262 70" fill="none" xmlns="http://www.w3.org/2000/svg">
<path d="M75.0451 45.3633V14.2442H79.1795V45.3633H75.0451ZM96.0801 22.5574C98.6881 22.5574 100.778 23.3873 102.348 25.0469C103.919 26.677 104.704 28.8998 104.704 31.7153V45.3633H100.837V31.9376C100.837 30.1594 100.348 28.7664 99.3698 27.7588C98.3918 26.7511 97.0433 26.2473 95.3243 26.2473C93.3386 26.2473 91.7678 26.8696 90.612 28.1144C89.4561 29.3295 88.8782 31.1522 88.8782 33.5825V45.3633H85.0105V23.1353H88.8782V26.3362C90.4193 23.817 92.82 22.5574 96.0801 22.5574ZM112.993 29.1369C112.993 30.5595 114.46 31.6709 117.395 32.4711C118.491 32.7082 119.41 32.9601 120.151 33.2268C120.921 33.4639 121.751 33.8344 122.64 34.3382C123.559 34.8421 124.256 35.5089 124.73 36.3387C125.204 37.1686 125.441 38.1466 125.441 39.2728C125.441 41.2882 124.656 42.9034 123.085 44.1185C121.514 45.3336 119.528 45.9412 117.128 45.9412C114.994 45.9412 113.142 45.4818 111.571 44.5631C110.03 43.6147 108.933 42.3403 108.281 40.7399L111.615 38.8283C111.971 39.8952 112.638 40.7399 113.616 41.3623C114.594 41.9846 115.765 42.2958 117.128 42.2958C118.461 42.2958 119.528 42.0439 120.329 41.5401C121.129 41.0362 121.529 40.2805 121.529 39.2728C121.529 37.7613 120.062 36.6647 117.128 35.9831C116.15 35.7164 115.409 35.5089 114.905 35.3607C114.401 35.2125 113.705 34.9458 112.816 34.5605C111.956 34.1752 111.304 33.7751 110.86 33.3602C110.415 32.9156 110 32.3377 109.615 31.6264C109.259 30.8855 109.081 30.0705 109.081 29.1813C109.081 27.2549 109.822 25.6693 111.304 24.4246C112.816 23.1798 114.698 22.5574 116.95 22.5574C118.758 22.5574 120.358 22.9723 121.751 23.8022C123.174 24.6024 124.241 25.7286 124.952 27.1808L121.707 29.0035C120.907 27.1067 119.321 26.1583 116.95 26.1583C115.824 26.1583 114.875 26.4251 114.105 26.9585C113.364 27.492 112.993 28.2181 112.993 29.1369ZM140.8 23.1353V26.8696H134.887V38.9172C134.887 40.0138 135.094 40.7991 135.509 41.2733C135.954 41.7179 136.621 41.955 137.51 41.9846C138.399 41.9846 139.495 41.955 140.8 41.8957V45.3633C137.391 45.8078 134.902 45.5263 133.331 44.5186C131.79 43.511 131.019 41.6438 131.019 38.9172V26.8696H126.618V23.1353H131.019V18.0674L134.887 16.9115V23.1353H140.8ZM162.21 26.9585V23.1353H166.078V45.3633H162.21V41.5401C160.313 44.4742 157.512 45.9412 153.808 45.9412C150.666 45.9412 148.014 44.815 145.85 42.5626C143.657 40.2805 142.56 37.5094 142.56 34.2493C142.56 31.0189 143.657 28.2626 145.85 25.9805C148.043 23.6985 150.696 22.5574 153.808 22.5574C157.512 22.5574 160.313 24.0245 162.21 26.9585ZM154.297 42.2069C156.549 42.2069 158.431 41.4512 159.943 39.9397C161.454 38.3689 162.21 36.4721 162.21 34.2493C162.21 31.9969 161.454 30.1149 159.943 28.6034C158.431 27.0623 156.549 26.2917 154.297 26.2917C152.074 26.2917 150.207 27.0623 148.695 28.6034C147.184 30.1149 146.428 31.9969 146.428 34.2493C146.428 36.4721 147.184 38.3689 148.695 39.9397C150.207 41.4512 152.074 42.2069 154.297 42.2069ZM184.696 45.3633H180.028L168.914 14.2442H173.36L182.385 40.2064L191.365 14.2442H195.855L184.696 45.3633ZM199.747 19.0899C199.006 19.0899 198.384 18.8379 197.88 18.3341C197.376 17.8303 197.124 17.2227 197.124 16.5114C197.124 15.8001 197.376 15.1926 197.88 14.6887C198.384 14.1553 199.006 13.8885 199.747 13.8885C200.459 13.8885 201.066 14.1553 201.57 14.6887C202.074 15.1926 202.326 15.8001 202.326 16.5114C202.326 17.2227 202.074 17.8303 201.57 18.3341C201.066 18.8379 200.459 19.0899 199.747 19.0899ZM201.659 45.3633H197.791V23.1353H201.659V45.3633ZM228.454 36.0275H209.827C210.212 37.9836 211.116 39.5247 212.538 40.651C213.961 41.7475 215.739 42.2958 217.873 42.2958C220.807 42.2958 222.941 41.2141 224.275 39.0505L227.565 40.9177C225.371 44.2667 222.111 45.9412 217.784 45.9412C214.287 45.9412 211.412 44.8446 209.16 42.6515C206.967 40.399 205.87 37.5983 205.87 34.2493C205.87 30.8707 206.952 28.0848 209.115 25.8916C211.279 23.6688 214.08 22.5574 217.518 22.5574C220.778 22.5574 223.43 23.7133 225.475 26.025C227.55 28.2774 228.587 31.0337 228.587 34.2938C228.587 34.8569 228.543 35.4348 228.454 36.0275ZM217.518 26.2028C215.473 26.2028 213.754 26.7807 212.361 27.9366C210.997 29.0924 210.153 30.6632 209.827 32.6489H224.675C224.349 30.6039 223.534 29.0183 222.23 27.8921C220.926 26.7659 219.355 26.2028 217.518 26.2028ZM253.014 40.073L257.905 23.1353H261.95L255.059 45.3633H251.103L245.902 28.9146L240.7 45.3633H236.744L229.853 23.1353H233.898L238.789 40.0286L244.034 23.1353H247.769L253.014 40.073Z" fill="black"/>
<path d="M17.4854 7.18359H10.9386C9.96285 7.18359 9.17188 7.97457 9.17188 8.95028V15.4971" stroke="black" stroke-width="1.84745" stroke-linecap="round"/>
<path d="M17.4854 50.293H10.9386C9.96285 50.293 9.17188 49.502 9.17188 48.5263V41.9794" stroke="black" stroke-width="1.84745" stroke-linecap="round"/>
<path d="M43.9599 7.18359H50.5067C51.4825 7.18359 52.2734 7.97457 52.2734 8.95028V15.4971" stroke="black" stroke-width="1.84745" stroke-linecap="round"/>
<path d="M43.9599 50.293H50.5067C51.4825 50.293 52.2734 49.502 52.2734 48.5263V41.9794" stroke="black" stroke-width="1.84745" stroke-linecap="round"/>
<rect width="6.07818" height="22.9114" rx="3.03909" transform="matrix(0.893353 -0.449355 0.449353 0.893355 14.5156 21.2383)" fill="black"/>
<rect width="6.07818" height="22.9114" rx="3.03909" transform="matrix(0.893353 -0.449355 0.449353 0.893355 24.2344 21.2461)" fill="black"/>
<rect width="6.07818" height="22.9114" rx="3.03909" transform="matrix(-0.893353 -0.449355 -0.449353 0.893355 47.7109 21.2461)" fill="black"/>
<path d="M76.2715 60.705C76.7633 60.705 77.1873 60.8068 77.5435 61.0103C77.8996 61.2082 78.1965 61.5022 78.4339 61.8923L77.8657 62.3332C77.6566 61.9714 77.4191 61.717 77.1534 61.57C76.8933 61.4174 76.5768 61.3411 76.2036 61.3411C75.904 61.3411 75.6552 61.3835 75.4574 61.4683C75.2652 61.5531 75.1238 61.6661 75.0334 61.8075C74.9429 61.9431 74.8977 62.0986 74.8977 62.2739C74.8977 62.4717 74.9599 62.647 75.0843 62.7996C75.2086 62.9466 75.4574 63.0625 75.8305 63.1473L77.0432 63.4187C77.5802 63.5374 77.9534 63.7183 78.1625 63.9614C78.3774 64.1988 78.4848 64.4957 78.4848 64.8518C78.4848 65.1684 78.3943 65.4511 78.2134 65.6998C78.0382 65.9429 77.7894 66.1323 77.4672 66.268C77.1449 66.4037 76.7661 66.4715 76.3308 66.4715C75.9238 66.4715 75.5648 66.4178 75.2539 66.3104C74.9486 66.1973 74.6857 66.0475 74.4652 65.861C74.2447 65.6744 74.0638 65.4652 73.9225 65.2334L74.5161 64.7501C74.6235 64.9649 74.762 65.1543 74.9316 65.3182C75.1012 65.4822 75.3047 65.6094 75.5422 65.6998C75.7853 65.7903 76.0623 65.8355 76.3732 65.8355C76.6616 65.8355 76.9103 65.8016 77.1195 65.7337C77.3343 65.6603 77.4983 65.5557 77.6113 65.42C77.7244 65.2787 77.7809 65.109 77.7809 64.9112C77.7809 64.7303 77.7216 64.5691 77.6028 64.4278C77.4841 64.2808 77.2608 64.1706 76.9329 64.0971L75.6185 63.8003C75.2736 63.7211 74.9938 63.6137 74.779 63.478C74.5698 63.3367 74.4171 63.1728 74.321 62.9862C74.2306 62.794 74.1854 62.5876 74.1854 62.3671C74.1854 62.0675 74.2673 61.7933 74.4313 61.5446C74.6009 61.2902 74.8412 61.0866 75.1521 60.934C75.4687 60.7814 75.8418 60.705 76.2715 60.705ZM79.7376 66.3867V62.1467H80.3313L80.3737 62.8081C80.5263 62.5481 80.7242 62.3587 80.9673 62.2399C81.216 62.1212 81.4704 62.0619 81.7305 62.0619C82.0301 62.0619 82.3128 62.1297 82.5785 62.2654C82.8442 62.4011 83.0477 62.6102 83.1891 62.8929C83.2795 62.7007 83.4067 62.5452 83.5707 62.4265C83.7346 62.3021 83.9127 62.2117 84.1049 62.1551C84.3028 62.093 84.4893 62.0619 84.6646 62.0619C84.936 62.0619 85.1932 62.1184 85.4363 62.2315C85.685 62.3445 85.8886 62.5198 86.0469 62.7572C86.2051 62.9947 86.2843 63.3 86.2843 63.6731V66.3867H85.6059V63.7409C85.6059 63.3565 85.5098 63.0795 85.3176 62.9099C85.1253 62.7403 84.8879 62.6555 84.6052 62.6555C84.3848 62.6555 84.1784 62.7092 83.9862 62.8166C83.794 62.924 83.6385 63.0823 83.5198 63.2915C83.4067 63.5007 83.3502 63.7579 83.3502 64.0632V66.3867H82.6718V63.7409C82.6718 63.3565 82.5757 63.0795 82.3834 62.9099C82.1912 62.7403 81.9538 62.6555 81.6711 62.6555C81.4846 62.6555 81.2923 62.7063 81.0945 62.8081C80.9023 62.9042 80.7411 63.0597 80.6111 63.2745C80.4811 63.4893 80.4161 63.772 80.4161 64.1225V66.3867H79.7376ZM90.2964 63.6476C90.2964 63.3311 90.2116 63.088 90.042 62.9184C89.8724 62.7431 89.6322 62.6555 89.3212 62.6555C89.0273 62.6555 88.7785 62.7205 88.575 62.8505C88.3715 62.9749 88.2216 63.1784 88.1255 63.4611L87.5743 63.1219C87.6874 62.8053 87.8966 62.5509 88.2019 62.3587C88.5071 62.1608 88.8859 62.0619 89.3382 62.0619C89.6435 62.0619 89.9205 62.1156 90.1692 62.223C90.418 62.3247 90.613 62.483 90.7544 62.6979C90.9014 62.907 90.9749 63.1784 90.9749 63.512V65.5641C90.9749 65.7677 91.0823 65.8694 91.2971 65.8694C91.4045 65.8694 91.5091 65.8553 91.6109 65.827L91.5769 66.3613C91.4639 66.4178 91.3169 66.4461 91.136 66.4461C90.972 66.4461 90.825 66.415 90.695 66.3528C90.565 66.2906 90.4632 66.1973 90.3897 66.073C90.3162 65.9429 90.2795 65.7818 90.2795 65.5896V65.5048L90.4491 65.5302C90.3813 65.7507 90.2654 65.9316 90.1014 66.073C89.9375 66.2086 89.7537 66.3104 89.5502 66.3782C89.3467 66.4404 89.146 66.4715 88.9481 66.4715C88.6994 66.4715 88.4676 66.4291 88.2527 66.3443C88.0379 66.2595 87.8655 66.1323 87.7355 65.9627C87.6111 65.7875 87.5489 65.5726 87.5489 65.3182C87.5489 65.0016 87.6535 64.7416 87.8627 64.5381C88.0775 64.3289 88.3743 64.1875 88.7531 64.114L90.4321 63.7833V64.343L89.0668 64.6229C88.7898 64.6794 88.5835 64.7585 88.4478 64.8603C88.3121 64.9621 88.2443 65.1034 88.2443 65.2843C88.2443 65.4596 88.3121 65.6037 88.4478 65.7168C88.5891 65.8242 88.787 65.8779 89.0414 65.8779C89.2053 65.8779 89.3608 65.8581 89.5078 65.8186C89.6604 65.7733 89.7961 65.7083 89.9148 65.6235C90.0336 65.5331 90.1268 65.4228 90.1947 65.2928C90.2625 65.1571 90.2964 64.9988 90.2964 64.8179V63.6476ZM92.6234 66.3867V62.1467H93.1747L93.2679 62.842C93.3867 62.582 93.5591 62.3869 93.7852 62.2569C94.017 62.1269 94.2969 62.0619 94.6248 62.0619C94.6982 62.0619 94.7774 62.0675 94.8622 62.0788C94.9527 62.0901 95.029 62.1127 95.0912 62.1467L94.9724 62.7657C94.9102 62.7431 94.8424 62.7261 94.7689 62.7148C94.6954 62.7035 94.5908 62.6979 94.4552 62.6979C94.2799 62.6979 94.1018 62.7487 93.9209 62.8505C93.7456 62.9523 93.5987 63.1077 93.4799 63.3169C93.3612 63.5204 93.3019 63.7805 93.3019 64.0971V66.3867H92.6234ZM96.829 60.9425V65.2165C96.829 65.4256 96.8883 65.5811 97.0071 65.6829C97.1258 65.7846 97.2784 65.8355 97.465 65.8355C97.6289 65.8355 97.7703 65.8072 97.889 65.7507C98.0077 65.6942 98.1151 65.6179 98.2112 65.5217L98.4487 66.0899C98.3187 66.2086 98.1632 66.3019 97.9823 66.3698C97.807 66.4376 97.6035 66.4715 97.3717 66.4715C97.1569 66.4715 96.9562 66.4348 96.7696 66.3613C96.5831 66.2821 96.4332 66.1606 96.3202 65.9966C96.2128 65.827 96.1562 65.6065 96.1506 65.3352V61.129L96.829 60.9425ZM98.3724 62.1467V62.7318H95.3026V62.1467H98.3724ZM104.196 60.705C104.688 60.705 105.112 60.8068 105.468 61.0103C105.824 61.2082 106.121 61.5022 106.359 61.8923L105.79 62.3332C105.581 61.9714 105.344 61.717 105.078 61.57C104.818 61.4174 104.502 61.3411 104.128 61.3411C103.829 61.3411 103.58 61.3835 103.382 61.4683C103.19 61.5531 103.049 61.6661 102.958 61.8075C102.868 61.9431 102.822 62.0986 102.822 62.2739C102.822 62.4717 102.885 62.647 103.009 62.7996C103.133 62.9466 103.382 63.0625 103.755 63.1473L104.968 63.4187C105.505 63.5374 105.878 63.7183 106.087 63.9614C106.302 64.1988 106.41 64.4957 106.41 64.8518C106.41 65.1684 106.319 65.4511 106.138 65.6998C105.963 65.9429 105.714 66.1323 105.392 66.268C105.07 66.4037 104.691 66.4715 104.256 66.4715C103.849 66.4715 103.49 66.4178 103.179 66.3104C102.873 66.1973 102.61 66.0475 102.39 65.861C102.169 65.6744 101.989 65.4652 101.847 65.2334L102.441 64.7501C102.548 64.9649 102.687 65.1543 102.856 65.3182C103.026 65.4822 103.229 65.6094 103.467 65.6998C103.71 65.7903 103.987 65.8355 104.298 65.8355C104.586 65.8355 104.835 65.8016 105.044 65.7337C105.259 65.6603 105.423 65.5557 105.536 65.42C105.649 65.2787 105.706 65.109 105.706 64.9112C105.706 64.7303 105.646 64.5691 105.528 64.4278C105.409 64.2808 105.186 64.1706 104.858 64.0971L103.543 63.8003C103.198 63.7211 102.919 63.6137 102.704 63.478C102.495 63.3367 102.342 63.1728 102.246 62.9862C102.155 62.794 102.11 62.5876 102.11 62.3671C102.11 62.0675 102.192 61.7933 102.356 61.5446C102.526 61.2902 102.766 61.0866 103.077 60.934C103.393 60.7814 103.767 60.705 104.196 60.705ZM110.097 63.6476C110.097 63.3311 110.012 63.088 109.843 62.9184C109.673 62.7431 109.433 62.6555 109.122 62.6555C108.828 62.6555 108.579 62.7205 108.376 62.8505C108.172 62.9749 108.022 63.1784 107.926 63.4611L107.375 63.1219C107.488 62.8053 107.697 62.5509 108.003 62.3587C108.308 62.1608 108.687 62.0619 109.139 62.0619C109.444 62.0619 109.721 62.1156 109.97 62.223C110.219 62.3247 110.414 62.483 110.555 62.6979C110.702 62.907 110.776 63.1784 110.776 63.512V65.5641C110.776 65.7677 110.883 65.8694 111.098 65.8694C111.205 65.8694 111.31 65.8553 111.412 65.827L111.378 66.3613C111.265 66.4178 111.118 66.4461 110.937 66.4461C110.773 66.4461 110.626 66.415 110.496 66.3528C110.366 66.2906 110.264 66.1973 110.19 66.073C110.117 65.9429 110.08 65.7818 110.08 65.5896V65.5048L110.25 65.5302C110.182 65.7507 110.066 65.9316 109.902 66.073C109.738 66.2086 109.554 66.3104 109.351 66.3782C109.147 66.4404 108.947 66.4715 108.749 66.4715C108.5 66.4715 108.268 66.4291 108.053 66.3443C107.839 66.2595 107.666 66.1323 107.536 65.9627C107.412 65.7875 107.35 65.5726 107.35 65.3182C107.35 65.0016 107.454 64.7416 107.663 64.5381C107.878 64.3289 108.175 64.1875 108.554 64.114L110.233 63.7833V64.343L108.868 64.6229C108.591 64.6794 108.384 64.7585 108.249 64.8603C108.113 64.9621 108.045 65.1034 108.045 65.2843C108.045 65.4596 108.113 65.6037 108.249 65.7168C108.39 65.8242 108.588 65.8779 108.842 65.8779C109.006 65.8779 109.162 65.8581 109.309 65.8186C109.461 65.7733 109.597 65.7083 109.716 65.6235C109.834 65.5331 109.928 65.4228 109.995 65.2928C110.063 65.1571 110.097 64.9988 110.097 64.8179V63.6476ZM114.104 60.1538C114.251 60.1538 114.39 60.1708 114.52 60.2047C114.65 60.2386 114.752 60.2867 114.825 60.3489L114.647 60.9001C114.579 60.8549 114.506 60.8238 114.426 60.8068C114.347 60.7842 114.26 60.7729 114.164 60.7729C113.921 60.7729 113.731 60.8322 113.595 60.951C113.46 61.064 113.392 61.2478 113.392 61.5022V62.1467V62.3671V66.3867H112.713V61.4343C112.713 61.2478 112.742 61.0753 112.798 60.917C112.855 60.7587 112.94 60.6231 113.053 60.51C113.171 60.3969 113.318 60.3093 113.494 60.2471C113.669 60.1849 113.872 60.1538 114.104 60.1538ZM114.808 62.1467V62.7318H111.865V62.1467H114.808ZM117.368 66.4715C116.967 66.4715 116.608 66.3839 116.291 66.2086C115.98 66.0334 115.737 65.7818 115.562 65.4539C115.387 65.1204 115.299 64.7246 115.299 64.2667C115.299 63.8088 115.387 63.4159 115.562 63.088C115.737 62.7544 115.978 62.5 116.283 62.3247C116.588 62.1495 116.936 62.0619 117.326 62.0619C117.722 62.0619 118.058 62.1467 118.335 62.3163C118.618 62.4859 118.833 62.7177 118.98 63.0116C119.126 63.3 119.2 63.625 119.2 63.9868C119.2 64.083 119.197 64.1706 119.192 64.2497C119.186 64.3289 119.177 64.3995 119.166 64.4617H115.74V63.8596H118.869L118.522 63.9275C118.522 63.5204 118.409 63.2067 118.182 62.9862C117.962 62.7657 117.671 62.6555 117.309 62.6555C117.032 62.6555 116.792 62.7205 116.588 62.8505C116.39 62.9749 116.235 63.1586 116.122 63.4017C116.014 63.6392 115.961 63.9275 115.961 64.2667C115.961 64.6002 116.017 64.8886 116.13 65.1317C116.243 65.3748 116.402 65.5613 116.605 65.6913C116.814 65.8157 117.063 65.8779 117.351 65.8779C117.662 65.8779 117.914 65.8186 118.106 65.6998C118.304 65.5811 118.462 65.42 118.581 65.2165L119.115 65.5302C119.008 65.7224 118.869 65.8892 118.7 66.0306C118.536 66.1719 118.341 66.2821 118.115 66.3613C117.894 66.4348 117.645 66.4715 117.368 66.4715ZM121.367 60.9425V65.2165C121.367 65.4256 121.426 65.5811 121.545 65.6829C121.663 65.7846 121.816 65.8355 122.003 65.8355C122.167 65.8355 122.308 65.8072 122.427 65.7507C122.545 65.6942 122.653 65.6179 122.749 65.5217L122.986 66.0899C122.856 66.2086 122.701 66.3019 122.52 66.3698C122.345 66.4376 122.141 66.4715 121.909 66.4715C121.695 66.4715 121.494 66.4348 121.307 66.3613C121.121 66.2821 120.971 66.1606 120.858 65.9966C120.75 65.827 120.694 65.6065 120.688 65.3352V61.129L121.367 60.9425ZM122.91 62.1467V62.7318H119.84V62.1467H122.91ZM127.404 62.1467L125.411 67.099C125.304 67.3761 125.185 67.5937 125.055 67.752C124.931 67.916 124.789 68.0319 124.631 68.0997C124.478 68.1732 124.3 68.2099 124.097 68.2099C123.905 68.2099 123.726 68.1817 123.563 68.1251C123.404 68.0743 123.263 68.0036 123.139 67.9131L123.325 67.3195C123.438 67.4213 123.557 67.4948 123.681 67.54C123.811 67.5909 123.938 67.6163 124.063 67.6163C124.21 67.6163 124.348 67.5711 124.478 67.4807C124.608 67.3902 124.727 67.2065 124.835 66.9294L125.055 66.3782L124.631 65.3691L123.283 62.1467H124.054L125.114 64.9112L125.377 65.6659L125.683 64.8264L126.675 62.1467H127.404ZM135.214 66.3867H134.494L133.9 64.8349H131.364L130.771 66.3867H130.058L132.238 60.7898H133.043L135.214 66.3867ZM131.61 64.1988H133.654L132.628 61.4428L131.61 64.1988ZM136.225 66.3867V62.1467H136.818L136.878 63.0964L136.768 63.0032C136.858 62.777 136.98 62.5961 137.132 62.4604C137.285 62.3191 137.46 62.2173 137.658 62.1551C137.861 62.093 138.071 62.0619 138.285 62.0619C138.591 62.0619 138.868 62.1212 139.117 62.2399C139.365 62.353 139.563 62.5283 139.71 62.7657C139.863 63.0032 139.939 63.3056 139.939 63.6731V66.3867H139.261V63.9105C139.261 63.4413 139.159 63.1162 138.955 62.9353C138.758 62.7487 138.512 62.6555 138.218 62.6555C138.014 62.6555 137.811 62.7035 137.607 62.7996C137.404 62.8957 137.234 63.0512 137.098 63.266C136.968 63.4809 136.903 63.7692 136.903 64.131V66.3867H136.225ZM143.129 66.4715C142.778 66.4715 142.456 66.3839 142.162 66.2086C141.868 66.0334 141.633 65.7818 141.458 65.4539C141.283 65.1204 141.195 64.7246 141.195 64.2667C141.195 63.7975 141.289 63.3989 141.475 63.071C141.662 62.7431 141.908 62.4943 142.213 62.3247C142.518 62.1495 142.846 62.0619 143.197 62.0619C143.547 62.0619 143.85 62.1523 144.104 62.3332C144.364 62.5141 144.537 62.7544 144.621 63.054L144.537 63.1134V60.1962H145.215V66.3867H144.621L144.562 65.3606L144.655 65.3097C144.616 65.5585 144.52 65.7705 144.367 65.9458C144.22 66.1154 144.036 66.2454 143.816 66.3358C143.601 66.4263 143.372 66.4715 143.129 66.4715ZM143.197 65.8779C143.468 65.8779 143.703 65.8101 143.901 65.6744C144.104 65.5387 144.26 65.3465 144.367 65.0977C144.48 64.8433 144.537 64.5465 144.537 64.2073C144.537 63.8851 144.48 63.6081 144.367 63.3763C144.26 63.1445 144.107 62.9664 143.909 62.842C143.717 62.7177 143.491 62.6555 143.231 62.6555C142.801 62.6555 142.467 62.8025 142.23 63.0964C141.992 63.3904 141.874 63.7805 141.874 64.2667C141.874 64.7529 141.99 65.143 142.221 65.4369C142.453 65.7309 142.778 65.8779 143.197 65.8779ZM151.607 60.705C152.099 60.705 152.523 60.8068 152.879 61.0103C153.235 61.2082 153.532 61.5022 153.769 61.8923L153.201 62.3332C152.992 61.9714 152.755 61.717 152.489 61.57C152.229 61.4174 151.912 61.3411 151.539 61.3411C151.24 61.3411 150.991 61.3835 150.793 61.4683C150.601 61.5531 150.459 61.6661 150.369 61.8075C150.278 61.9431 150.233 62.0986 150.233 62.2739C150.233 62.4717 150.295 62.647 150.42 62.7996C150.544 62.9466 150.793 63.0625 151.166 63.1473L152.379 63.4187C152.916 63.5374 153.289 63.7183 153.498 63.9614C153.713 64.1988 153.82 64.4957 153.82 64.8518C153.82 65.1684 153.73 65.4511 153.549 65.6998C153.374 65.9429 153.125 66.1323 152.803 66.268C152.48 66.4037 152.102 66.4715 151.666 66.4715C151.259 66.4715 150.9 66.4178 150.589 66.3104C150.284 66.1973 150.021 66.0475 149.801 65.861C149.58 65.6744 149.399 65.4652 149.258 65.2334L149.852 64.7501C149.959 64.9649 150.098 65.1543 150.267 65.3182C150.437 65.4822 150.64 65.6094 150.878 65.6998C151.121 65.7903 151.398 65.8355 151.709 65.8355C151.997 65.8355 152.246 65.8016 152.455 65.7337C152.67 65.6603 152.834 65.5557 152.947 65.42C153.06 65.2787 153.116 65.109 153.116 64.9112C153.116 64.7303 153.057 64.5691 152.938 64.4278C152.82 64.2808 152.596 64.1706 152.268 64.0971L150.954 63.8003C150.609 63.7211 150.329 63.6137 150.115 63.478C149.905 63.3367 149.753 63.1728 149.657 62.9862C149.566 62.794 149.521 62.5876 149.521 62.3671C149.521 62.0675 149.603 61.7933 149.767 61.5446C149.936 61.2902 150.177 61.0866 150.488 60.934C150.804 60.7814 151.177 60.705 151.607 60.705ZM156.887 66.4715C156.486 66.4715 156.127 66.3839 155.81 66.2086C155.499 66.0334 155.256 65.7818 155.081 65.4539C154.905 65.1204 154.818 64.7246 154.818 64.2667C154.818 63.8088 154.905 63.4159 155.081 63.088C155.256 62.7544 155.496 62.5 155.801 62.3247C156.107 62.1495 156.454 62.0619 156.845 62.0619C157.24 62.0619 157.577 62.1467 157.854 62.3163C158.136 62.4859 158.351 62.7177 158.498 63.0116C158.645 63.3 158.719 63.625 158.719 63.9868C158.719 64.083 158.716 64.1706 158.71 64.2497C158.705 64.3289 158.696 64.3995 158.685 64.4617H155.259V63.8596H158.388L158.04 63.9275C158.04 63.5204 157.927 63.2067 157.701 62.9862C157.481 62.7657 157.189 62.6555 156.828 62.6555C156.551 62.6555 156.31 62.7205 156.107 62.8505C155.909 62.9749 155.753 63.1586 155.64 63.4017C155.533 63.6392 155.479 63.9275 155.479 64.2667C155.479 64.6002 155.536 64.8886 155.649 65.1317C155.762 65.3748 155.92 65.5613 156.124 65.6913C156.333 65.8157 156.582 65.8779 156.87 65.8779C157.181 65.8779 157.432 65.8186 157.625 65.6998C157.823 65.5811 157.981 65.42 158.1 65.2165L158.634 65.5302C158.526 65.7224 158.388 65.8892 158.218 66.0306C158.054 66.1719 157.859 66.2821 157.633 66.3613C157.413 66.4348 157.164 66.4715 156.887 66.4715ZM161.764 62.0619C162.058 62.0619 162.315 62.1071 162.536 62.1975C162.762 62.288 162.957 62.418 163.121 62.5876C163.285 62.7572 163.418 62.9579 163.52 63.1897L162.875 63.495C162.785 63.2236 162.646 63.0173 162.46 62.876C162.279 62.729 162.041 62.6555 161.747 62.6555C161.465 62.6555 161.222 62.7205 161.018 62.8505C160.814 62.9749 160.659 63.1586 160.552 63.4017C160.444 63.6392 160.39 63.9275 160.39 64.2667C160.39 64.6002 160.444 64.8886 160.552 65.1317C160.659 65.3748 160.814 65.5613 161.018 65.6913C161.222 65.8157 161.465 65.8779 161.747 65.8779C161.968 65.8779 162.157 65.844 162.315 65.7762C162.479 65.7083 162.612 65.6094 162.714 65.4793C162.821 65.3493 162.895 65.191 162.935 65.0045L163.562 65.2249C163.466 65.485 163.333 65.7083 163.163 65.8949C163 66.0814 162.799 66.2256 162.561 66.3274C162.33 66.4235 162.064 66.4715 161.764 66.4715C161.369 66.4715 161.015 66.3839 160.704 66.2086C160.393 66.0334 160.15 65.7818 159.975 65.4539C159.8 65.1204 159.712 64.7246 159.712 64.2667C159.712 63.8088 159.8 63.4159 159.975 63.088C160.15 62.7544 160.393 62.5 160.704 62.3247C161.015 62.1495 161.369 62.0619 161.764 62.0619ZM166.289 66.4715C166.018 66.4715 165.76 66.4206 165.517 66.3189C165.28 66.2171 165.085 66.0532 164.932 65.827C164.785 65.5952 164.712 65.2956 164.712 64.9281V62.1467H165.39V64.7501C165.39 65.1797 165.483 65.4765 165.67 65.6405C165.857 65.7988 166.119 65.8779 166.459 65.8779C166.617 65.8779 166.772 65.8525 166.925 65.8016C167.078 65.7451 167.213 65.6603 167.332 65.5472C167.456 65.4285 167.553 65.2787 167.62 65.0977C167.694 64.9168 167.731 64.702 167.731 64.4533V62.1467H168.409V66.3867H167.815L167.773 65.7422C167.626 65.9966 167.425 66.1832 167.171 66.3019C166.922 66.415 166.628 66.4715 166.289 66.4715ZM169.988 66.3867V62.1467H170.539L170.632 62.842C170.751 62.582 170.924 62.3869 171.15 62.2569C171.381 62.1269 171.661 62.0619 171.989 62.0619C172.063 62.0619 172.142 62.0675 172.227 62.0788C172.317 62.0901 172.393 62.1127 172.456 62.1467L172.337 62.7657C172.275 62.7431 172.207 62.7261 172.133 62.7148C172.06 62.7035 171.955 62.6979 171.82 62.6979C171.644 62.6979 171.466 62.7487 171.285 62.8505C171.11 62.9523 170.963 63.1077 170.844 63.3169C170.726 63.5204 170.666 63.7805 170.666 64.0971V66.3867H169.988ZM173.789 61.3326C173.636 61.3326 173.512 61.2873 173.416 61.1969C173.325 61.1008 173.28 60.9764 173.28 60.8238C173.28 60.6711 173.325 60.5496 173.416 60.4591C173.512 60.363 173.636 60.315 173.789 60.315C173.941 60.315 174.063 60.363 174.153 60.4591C174.249 60.5496 174.298 60.6711 174.298 60.8238C174.298 60.9764 174.249 61.1008 174.153 61.1969C174.063 61.2873 173.941 61.3326 173.789 61.3326ZM174.128 62.1467V66.3867H173.45V62.1467H174.128ZM176.703 60.9425V65.2165C176.703 65.4256 176.762 65.5811 176.881 65.6829C177 65.7846 177.152 65.8355 177.339 65.8355C177.503 65.8355 177.644 65.8072 177.763 65.7507C177.881 65.6942 177.989 65.6179 178.085 65.5217L178.322 66.0899C178.192 66.2086 178.037 66.3019 177.856 66.3698C177.681 66.4376 177.477 66.4715 177.245 66.4715C177.031 66.4715 176.83 66.4348 176.643 66.3613C176.457 66.2821 176.307 66.1606 176.194 65.9966C176.086 65.827 176.03 65.6065 176.024 65.3352V61.129L176.703 60.9425ZM178.246 62.1467V62.7318H175.176V62.1467H178.246ZM182.74 62.1467L180.747 67.099C180.64 67.3761 180.521 67.5937 180.391 67.752C180.267 67.916 180.125 68.0319 179.967 68.0997C179.814 68.1732 179.636 68.2099 179.433 68.2099C179.241 68.2099 179.063 68.1817 178.899 68.1251C178.74 68.0743 178.599 68.0036 178.475 67.9131L178.661 67.3195C178.774 67.4213 178.893 67.4948 179.017 67.54C179.147 67.5909 179.275 67.6163 179.399 67.6163C179.546 67.6163 179.684 67.5711 179.814 67.4807C179.944 67.3902 180.063 67.2065 180.171 66.9294L180.391 66.3782L179.967 65.3691L178.619 62.1467H179.39L180.45 64.9112L180.713 65.6659L181.019 64.8264L182.011 62.1467H182.74ZM188.499 60.7898C188.9 60.7898 189.245 60.8605 189.533 61.0018C189.827 61.1432 190.056 61.3439 190.22 61.6039C190.384 61.864 190.466 62.1778 190.466 62.5452C190.466 62.907 190.384 63.2208 190.22 63.4865C190.056 63.7466 189.827 63.9473 189.533 64.0886C189.245 64.2299 188.9 64.3006 188.499 64.3006H187.252V66.3867H186.345V60.7898H188.499ZM188.354 63.5204C188.756 63.5204 189.05 63.4385 189.236 63.2745C189.429 63.1049 189.525 62.8618 189.525 62.5452C189.525 62.223 189.429 61.9799 189.236 61.8159C189.05 61.6463 188.756 61.5615 188.354 61.5615H187.252V63.5204H188.354ZM193.283 62.0619C193.696 62.0619 194.06 62.1495 194.377 62.3247C194.694 62.5 194.94 62.7544 195.115 63.088C195.296 63.4159 195.386 63.8088 195.386 64.2667C195.386 64.7246 195.296 65.1204 195.115 65.4539C194.94 65.7818 194.694 66.0334 194.377 66.2086C194.06 66.3839 193.696 66.4715 193.283 66.4715C192.87 66.4715 192.506 66.3839 192.189 66.2086C191.873 66.0334 191.624 65.7818 191.443 65.4539C191.262 65.1204 191.172 64.7246 191.172 64.2667C191.172 63.8088 191.262 63.4159 191.443 63.088C191.624 62.7544 191.873 62.5 192.189 62.3247C192.506 62.1495 192.87 62.0619 193.283 62.0619ZM193.283 62.7742C193.029 62.7742 192.811 62.8336 192.63 62.9523C192.455 63.0653 192.319 63.2321 192.223 63.4526C192.127 63.6731 192.079 63.9444 192.079 64.2667C192.079 64.5833 192.127 64.8546 192.223 65.0808C192.319 65.3013 192.455 65.4709 192.63 65.5896C192.811 65.7027 193.029 65.7592 193.283 65.7592C193.538 65.7592 193.752 65.7027 193.928 65.5896C194.103 65.4709 194.239 65.3013 194.335 65.0808C194.431 64.8546 194.479 64.5833 194.479 64.2667C194.479 63.9444 194.431 63.6731 194.335 63.4526C194.239 63.2321 194.103 63.0653 193.928 62.9523C193.752 62.8336 193.538 62.7742 193.283 62.7742ZM201.797 62.1467H202.781L201.356 66.3867H200.364L199.295 63.2406L198.286 66.3867H197.294L195.878 62.1467H196.853L197.82 65.4963L198.871 62.1467H199.779L200.83 65.4963L201.797 62.1467ZM205.399 66.4715C204.975 66.4715 204.602 66.3839 204.28 66.2086C203.958 66.0334 203.706 65.7818 203.525 65.4539C203.35 65.1204 203.262 64.7246 203.262 64.2667C203.262 63.8088 203.35 63.4159 203.525 63.088C203.706 62.7544 203.955 62.5 204.271 62.3247C204.588 62.1495 204.947 62.0619 205.348 62.0619C205.761 62.0619 206.112 62.1467 206.4 62.3163C206.688 62.4859 206.909 62.7177 207.061 63.0116C207.214 63.3056 207.29 63.6392 207.29 64.0123C207.29 64.114 207.288 64.2102 207.282 64.3006C207.276 64.3911 207.268 64.4702 207.256 64.5381H203.847V63.8427H206.858L206.408 63.9784C206.408 63.5939 206.312 63.3 206.12 63.0964C205.928 62.8873 205.665 62.7827 205.332 62.7827C205.088 62.7827 204.876 62.8392 204.696 62.9523C204.515 63.0653 204.376 63.2349 204.28 63.4611C204.184 63.6816 204.136 63.9529 204.136 64.2752C204.136 64.5918 204.187 64.8603 204.288 65.0808C204.39 65.3013 204.534 65.468 204.721 65.5811C204.908 65.6942 205.128 65.7507 205.382 65.7507C205.665 65.7507 205.894 65.697 206.069 65.5896C206.245 65.4822 206.383 65.3324 206.485 65.1401L207.206 65.4793C207.104 65.6829 206.965 65.861 206.79 66.0136C206.62 66.1606 206.417 66.2737 206.18 66.3528C205.942 66.4319 205.682 66.4715 205.399 66.4715ZM208.436 66.3867V62.1467H209.208L209.293 62.9099C209.406 62.6329 209.573 62.4237 209.793 62.2823C210.019 62.1354 210.296 62.0619 210.624 62.0619C210.709 62.0619 210.794 62.0703 210.879 62.0873C210.963 62.0986 211.034 62.1184 211.091 62.1467L210.963 62.9438C210.901 62.9212 210.831 62.9042 210.751 62.8929C210.678 62.876 210.576 62.8675 210.446 62.8675C210.271 62.8675 210.098 62.9155 209.929 63.0116C209.759 63.1021 209.618 63.2406 209.505 63.4272C209.397 63.6137 209.344 63.8512 209.344 64.1395V66.3867H208.436ZM213.706 66.4715C213.282 66.4715 212.908 66.3839 212.586 66.2086C212.264 66.0334 212.012 65.7818 211.831 65.4539C211.656 65.1204 211.569 64.7246 211.569 64.2667C211.569 63.8088 211.656 63.4159 211.831 63.088C212.012 62.7544 212.261 62.5 212.578 62.3247C212.894 62.1495 213.253 62.0619 213.655 62.0619C214.067 62.0619 214.418 62.1467 214.706 62.3163C214.995 62.4859 215.215 62.7177 215.368 63.0116C215.52 63.3056 215.597 63.6392 215.597 64.0123C215.597 64.114 215.594 64.2102 215.588 64.3006C215.582 64.3911 215.574 64.4702 215.563 64.5381H212.154V63.8427H215.164L214.715 63.9784C214.715 63.5939 214.619 63.3 214.426 63.0964C214.234 62.8873 213.971 62.7827 213.638 62.7827C213.395 62.7827 213.183 62.8392 213.002 62.9523C212.821 63.0653 212.682 63.2349 212.586 63.4611C212.49 63.6816 212.442 63.9529 212.442 64.2752C212.442 64.5918 212.493 64.8603 212.595 65.0808C212.696 65.3013 212.841 65.468 213.027 65.5811C213.214 65.6942 213.434 65.7507 213.689 65.7507C213.971 65.7507 214.2 65.697 214.375 65.5896C214.551 65.4822 214.689 65.3324 214.791 65.1401L215.512 65.4793C215.41 65.6829 215.272 65.861 215.096 66.0136C214.927 66.1606 214.723 66.2737 214.486 66.3528C214.248 66.4319 213.988 66.4715 213.706 66.4715ZM218.371 66.4715C218.02 66.4715 217.701 66.3839 217.412 66.2086C217.13 66.0334 216.906 65.7818 216.743 65.4539C216.579 65.126 216.497 64.7331 216.497 64.2752C216.497 63.8003 216.584 63.3989 216.759 63.071C216.935 62.7431 217.169 62.4943 217.463 62.3247C217.757 62.1495 218.08 62.0619 218.43 62.0619C218.792 62.0619 219.097 62.1608 219.346 62.3587C219.595 62.5565 219.761 62.8138 219.846 63.1304L219.744 63.2236V60.2386H220.652V66.3867H219.846L219.778 65.2334L219.897 65.2419C219.858 65.4963 219.764 65.7168 219.617 65.9034C219.47 66.0843 219.287 66.2256 219.066 66.3274C218.851 66.4235 218.619 66.4715 218.371 66.4715ZM218.566 65.7422C218.809 65.7422 219.018 65.68 219.193 65.5557C219.369 65.4313 219.504 65.256 219.6 65.0299C219.696 64.8038 219.744 64.5324 219.744 64.2158C219.744 63.9218 219.696 63.6703 219.6 63.4611C219.504 63.2462 219.369 63.0823 219.193 62.9692C219.024 62.8562 218.826 62.7996 218.6 62.7996C218.221 62.7996 217.927 62.9297 217.718 63.1897C217.509 63.4498 217.404 63.8088 217.404 64.2667C217.404 64.7246 217.506 65.0864 217.709 65.3521C217.913 65.6122 218.198 65.7422 218.566 65.7422ZM224.944 66.3867V60.7898H227.149C227.822 60.7898 228.313 60.9255 228.624 61.1969C228.935 61.4683 229.091 61.8442 229.091 62.3247C229.091 62.6187 229.006 62.8816 228.836 63.1134C228.667 63.3395 228.418 63.4837 228.09 63.5459V63.5544C228.452 63.6109 228.732 63.7607 228.93 64.0038C229.133 64.2412 229.235 64.5183 229.235 64.8349C229.235 65.3154 229.06 65.6942 228.709 65.9712C228.359 66.2482 227.85 66.3867 227.183 66.3867H224.944ZM225.834 65.632H227.225C227.581 65.632 227.847 65.5585 228.022 65.4115C228.203 65.2645 228.294 65.0582 228.294 64.7925C228.294 64.5267 228.203 64.3204 228.022 64.1734C227.847 64.0264 227.581 63.9529 227.225 63.9529H225.834V65.632ZM225.834 63.1982H227.081C227.793 63.1982 228.15 62.924 228.15 62.3756C228.15 61.8272 227.793 61.5531 227.081 61.5531H225.834V63.1982ZM234.154 62.1467L232.297 66.887C232.173 67.2149 232.037 67.475 231.89 67.6672C231.749 67.8594 231.585 67.9979 231.398 68.0827C231.212 68.1675 230.994 68.2099 230.745 68.2099C230.542 68.2099 230.352 68.1817 230.177 68.1251C230.008 68.0743 229.858 68.0036 229.728 67.9131L229.948 67.2093C230.056 67.2997 230.169 67.3676 230.287 67.4128C230.412 67.458 230.545 67.4807 230.686 67.4807C230.839 67.4807 230.974 67.4383 231.093 67.3535C231.217 67.2743 231.328 67.1132 231.424 66.8701L231.61 66.4122L231.161 65.3606L229.838 62.1467H230.856L231.797 64.8094L232.043 65.6065L232.323 64.7331L233.213 62.1467H234.154ZM241.963 66.3867H241.005L240.471 64.9197H238.122L237.588 66.3867H236.655L238.766 60.7898H239.852L241.963 66.3867ZM238.376 64.1819H240.217L239.301 61.57L238.376 64.1819ZM243.863 60.7898V66.3867H242.956V60.7898H243.863Z" fill="black"/>
<path d="M186.753 57.332H184.078V60.0071" stroke="black" stroke-width="0.422381" stroke-linecap="round"/>
<path d="M186.753 69.582H184.078V66.9069" stroke="black" stroke-width="0.422381" stroke-linecap="round"/>
<path d="M243.637 57.332H246.312V60.0071" stroke="black" stroke-width="0.422381" stroke-linecap="round"/>
<path d="M243.637 69.582H246.312V66.9069" stroke="black" stroke-width="0.422381" stroke-linecap="round"/>
</svg>
