<svg width="262" height="70" viewBox="0 0 262 70" fill="none" xmlns="http://www.w3.org/2000/svg">
<path d="M75.0451 45.0332V13.9141H79.1795V45.0332H75.0451ZM96.0801 22.2273C98.6881 22.2273 100.778 23.0572 102.348 24.7169C103.919 26.3469 104.704 28.5697 104.704 31.3852V45.0332H100.837V31.6075C100.837 29.8293 100.348 28.4363 99.3698 27.4287C98.3918 26.421 97.0433 25.9172 95.3243 25.9172C93.3386 25.9172 91.7678 26.5396 90.612 27.7843C89.4561 28.9995 88.8782 30.8221 88.8782 33.2524V45.0332H85.0105V22.8053H88.8782V26.0061C90.4193 23.4869 92.82 22.2273 96.0801 22.2273ZM112.993 28.8068C112.993 30.2294 114.46 31.3408 117.395 32.141C118.491 32.3781 119.41 32.63 120.151 32.8967C120.921 33.1338 121.751 33.5043 122.64 34.0081C123.559 34.512 124.256 35.1788 124.73 36.0087C125.204 36.8385 125.441 37.8165 125.441 38.9427C125.441 40.9581 124.656 42.5733 123.085 43.7884C121.514 45.0036 119.528 45.6111 117.128 45.6111C114.994 45.6111 113.142 45.1518 111.571 44.233C110.03 43.2846 108.933 42.0102 108.281 40.4098L111.615 38.4982C111.971 39.5651 112.638 40.4098 113.616 41.0322C114.594 41.6546 115.765 41.9657 117.128 41.9657C118.461 41.9657 119.528 41.7138 120.329 41.21C121.129 40.7062 121.529 39.9504 121.529 38.9427C121.529 37.4312 120.062 36.3347 117.128 35.653C116.15 35.3863 115.409 35.1788 114.905 35.0306C114.401 34.8824 113.705 34.6157 112.816 34.2304C111.956 33.8451 111.304 33.445 110.86 33.0301C110.415 32.5856 110 32.0076 109.615 31.2963C109.259 30.5554 109.081 29.7404 109.081 28.8513C109.081 26.9248 109.822 25.3392 111.304 24.0945C112.816 22.8497 114.698 22.2273 116.95 22.2273C118.758 22.2273 120.358 22.6423 121.751 23.4721C123.174 24.2723 124.241 25.3985 124.952 26.8507L121.707 28.6734C120.907 26.7767 119.321 25.8283 116.95 25.8283C115.824 25.8283 114.875 26.095 114.105 26.6285C113.364 27.1619 112.993 27.8881 112.993 28.8068ZM140.8 22.8053V26.5396H134.887V38.5871C134.887 39.6837 135.094 40.4691 135.509 40.9433C135.954 41.3878 136.621 41.6249 137.51 41.6546C138.399 41.6546 139.495 41.6249 140.8 41.5656V45.0332C137.391 45.4778 134.902 45.1962 133.331 44.1885C131.79 43.1809 131.019 41.3137 131.019 38.5871V26.5396H126.618V22.8053H131.019V17.7373L134.887 16.5814V22.8053H140.8ZM162.21 26.6285V22.8053H166.078V45.0332H162.21V41.21C160.313 44.1441 157.512 45.6111 153.808 45.6111C150.666 45.6111 148.014 44.4849 145.85 42.2325C143.657 39.9504 142.56 37.1793 142.56 33.9192C142.56 30.6888 143.657 27.9325 145.85 25.6504C148.043 23.3684 150.696 22.2273 153.808 22.2273C157.512 22.2273 160.313 23.6944 162.21 26.6285ZM154.297 41.8768C156.549 41.8768 158.431 41.1211 159.943 39.6096C161.454 38.0388 162.21 36.142 162.21 33.9192C162.21 31.6668 161.454 29.7848 159.943 28.2733C158.431 26.7322 156.549 25.9616 154.297 25.9616C152.074 25.9616 150.207 26.7322 148.695 28.2733C147.184 29.7848 146.428 31.6668 146.428 33.9192C146.428 36.142 147.184 38.0388 148.695 39.6096C150.207 41.1211 152.074 41.8768 154.297 41.8768ZM184.696 45.0332H180.028L168.914 13.9141H173.36L182.385 39.8763L191.365 13.9141H195.855L184.696 45.0332ZM199.747 18.7598C199.006 18.7598 198.384 18.5079 197.88 18.004C197.376 17.5002 197.124 16.8926 197.124 16.1813C197.124 15.47 197.376 14.8625 197.88 14.3586C198.384 13.8252 199.006 13.5584 199.747 13.5584C200.459 13.5584 201.066 13.8252 201.57 14.3586C202.074 14.8625 202.326 15.47 202.326 16.1813C202.326 16.8926 202.074 17.5002 201.57 18.004C201.066 18.5079 200.459 18.7598 199.747 18.7598ZM201.659 45.0332H197.791V22.8053H201.659V45.0332ZM228.454 35.6975H209.827C210.212 37.6535 211.116 39.1947 212.538 40.3209C213.961 41.4175 215.739 41.9657 217.873 41.9657C220.807 41.9657 222.941 40.884 224.275 38.7205L227.565 40.5876C225.371 43.9366 222.111 45.6111 217.784 45.6111C214.287 45.6111 211.412 44.5146 209.16 42.3214C206.967 40.069 205.87 37.2682 205.87 33.9192C205.87 30.5406 206.952 27.7547 209.115 25.5615C211.279 23.3387 214.08 22.2273 217.518 22.2273C220.778 22.2273 223.43 23.3832 225.475 25.6949C227.55 27.9473 228.587 30.7036 228.587 33.9637C228.587 34.5268 228.543 35.1047 228.454 35.6975ZM217.518 25.8727C215.473 25.8727 213.754 26.4506 212.361 27.6065C210.997 28.7624 210.153 30.3331 209.827 32.3188H224.675C224.349 30.2739 223.534 28.6883 222.23 27.562C220.926 26.4358 219.355 25.8727 217.518 25.8727ZM253.014 39.743L257.905 22.8053H261.95L255.059 45.0332H251.103L245.902 28.5845L240.7 45.0332H236.744L229.853 22.8053H233.898L238.789 39.6985L244.034 22.8053H247.769L253.014 39.743Z" fill="black"/>
<path d="M17.4854 6.85352H10.9386C9.96285 6.85352 9.17188 7.64449 9.17188 8.62021V15.1671" stroke="black" stroke-width="1.84745" stroke-linecap="round"/>
<path d="M17.4854 49.9629H10.9386C9.96285 49.9629 9.17188 49.1719 9.17188 48.1962V41.6493" stroke="black" stroke-width="1.84745" stroke-linecap="round"/>
<path d="M43.9599 6.85352H50.5067C51.4825 6.85352 52.2734 7.64449 52.2734 8.62021V15.1671" stroke="black" stroke-width="1.84745" stroke-linecap="round"/>
<path d="M43.9599 49.9629H50.5067C51.4825 49.9629 52.2734 49.1719 52.2734 48.1962V41.6493" stroke="black" stroke-width="1.84745" stroke-linecap="round"/>
<rect width="6.07818" height="22.9114" rx="3.03909" transform="matrix(0.893353 -0.449355 0.449353 0.893355 14.5156 20.9082)" fill="black"/>
<rect width="6.07818" height="22.9114" rx="3.03909" transform="matrix(0.893353 -0.449355 0.449353 0.893355 24.2344 20.916)" fill="black"/>
<rect width="6.07818" height="22.9114" rx="3.03909" transform="matrix(-0.893353 -0.449355 -0.449353 0.893355 47.7109 20.916)" fill="black"/>
<path d="M76.2715 60.375C76.7633 60.375 77.1873 60.4767 77.5435 60.6802C77.8996 60.8781 78.1965 61.1721 78.4339 61.5622L77.8657 62.0031C77.6566 61.6413 77.4191 61.3869 77.1534 61.2399C76.8933 61.0873 76.5768 61.011 76.2036 61.011C75.904 61.011 75.6552 61.0534 75.4574 61.1382C75.2652 61.223 75.1238 61.336 75.0334 61.4774C74.9429 61.6131 74.8977 61.7685 74.8977 61.9438C74.8977 62.1417 74.9599 62.3169 75.0843 62.4696C75.2086 62.6165 75.4574 62.7324 75.8305 62.8172L77.0432 63.0886C77.5802 63.2073 77.9534 63.3882 78.1625 63.6313C78.3774 63.8688 78.4848 64.1656 78.4848 64.5217C78.4848 64.8383 78.3943 65.121 78.2134 65.3698C78.0382 65.6128 77.7894 65.8022 77.4672 65.9379C77.1449 66.0736 76.7661 66.1414 76.3308 66.1414C75.9238 66.1414 75.5648 66.0877 75.2539 65.9803C74.9486 65.8673 74.6857 65.7174 74.4652 65.5309C74.2447 65.3443 74.0638 65.1351 73.9225 64.9033L74.5161 64.42C74.6235 64.6348 74.762 64.8242 74.9316 64.9881C75.1012 65.1521 75.3047 65.2793 75.5422 65.3698C75.7853 65.4602 76.0623 65.5054 76.3732 65.5054C76.6616 65.5054 76.9103 65.4715 77.1195 65.4037C77.3343 65.3302 77.4983 65.2256 77.6113 65.0899C77.7244 64.9486 77.7809 64.779 77.7809 64.5811C77.7809 64.4002 77.7216 64.2391 77.6028 64.0977C77.4841 63.9507 77.2608 63.8405 76.9329 63.767L75.6185 63.4702C75.2736 63.3911 74.9938 63.2836 74.779 63.148C74.5698 63.0066 74.4171 62.8427 74.321 62.6561C74.2306 62.4639 74.1854 62.2575 74.1854 62.0371C74.1854 61.7374 74.2673 61.4632 74.4313 61.2145C74.6009 60.9601 74.8412 60.7566 75.1521 60.6039C75.4687 60.4513 75.8418 60.375 76.2715 60.375ZM79.7376 66.0566V61.8166H80.3313L80.3737 62.478C80.5263 62.218 80.7242 62.0286 80.9673 61.9099C81.216 61.7911 81.4704 61.7318 81.7305 61.7318C82.0301 61.7318 82.3128 61.7996 82.5785 61.9353C82.8442 62.071 83.0477 62.2802 83.1891 62.5628C83.2795 62.3706 83.4067 62.2151 83.5707 62.0964C83.7346 61.9721 83.9127 61.8816 84.1049 61.8251C84.3028 61.7629 84.4893 61.7318 84.6646 61.7318C84.936 61.7318 85.1932 61.7883 85.4363 61.9014C85.685 62.0145 85.8886 62.1897 86.0469 62.4272C86.2051 62.6646 86.2843 62.9699 86.2843 63.343V66.0566H85.6059V63.4108C85.6059 63.0264 85.5098 62.7494 85.3176 62.5798C85.1253 62.4102 84.8879 62.3254 84.6052 62.3254C84.3848 62.3254 84.1784 62.3791 83.9862 62.4865C83.794 62.5939 83.6385 62.7522 83.5198 62.9614C83.4067 63.1706 83.3502 63.4278 83.3502 63.7331V66.0566H82.6718V63.4108C82.6718 63.0264 82.5757 62.7494 82.3834 62.5798C82.1912 62.4102 81.9538 62.3254 81.6711 62.3254C81.4846 62.3254 81.2923 62.3763 81.0945 62.478C80.9023 62.5741 80.7411 62.7296 80.6111 62.9444C80.4811 63.1593 80.4161 63.4419 80.4161 63.7925V66.0566H79.7376ZM90.2964 63.3176C90.2964 63.001 90.2116 62.7579 90.042 62.5883C89.8724 62.413 89.6322 62.3254 89.3212 62.3254C89.0273 62.3254 88.7785 62.3904 88.575 62.5204C88.3715 62.6448 88.2216 62.8483 88.1255 63.131L87.5743 62.7918C87.6874 62.4752 87.8966 62.2208 88.2019 62.0286C88.5071 61.8307 88.8859 61.7318 89.3382 61.7318C89.6435 61.7318 89.9205 61.7855 90.1692 61.8929C90.418 61.9947 90.613 62.153 90.7544 62.3678C90.9014 62.577 90.9749 62.8483 90.9749 63.1819V65.2341C90.9749 65.4376 91.0823 65.5394 91.2971 65.5394C91.4045 65.5394 91.5091 65.5252 91.6109 65.497L91.5769 66.0312C91.4639 66.0877 91.3169 66.116 91.136 66.116C90.972 66.116 90.825 66.0849 90.695 66.0227C90.565 65.9605 90.4632 65.8673 90.3897 65.7429C90.3162 65.6128 90.2795 65.4517 90.2795 65.2595V65.1747L90.4491 65.2001C90.3813 65.4206 90.2654 65.6015 90.1014 65.7429C89.9375 65.8786 89.7537 65.9803 89.5502 66.0482C89.3467 66.1103 89.146 66.1414 88.9481 66.1414C88.6994 66.1414 88.4676 66.099 88.2527 66.0142C88.0379 65.9294 87.8655 65.8022 87.7355 65.6326C87.6111 65.4574 87.5489 65.2425 87.5489 64.9881C87.5489 64.6716 87.6535 64.4115 87.8627 64.208C88.0775 63.9988 88.3743 63.8575 88.7531 63.784L90.4321 63.4532V64.0129L89.0668 64.2928C88.7898 64.3493 88.5835 64.4285 88.4478 64.5302C88.3121 64.632 88.2443 64.7733 88.2443 64.9542C88.2443 65.1295 88.3121 65.2736 88.4478 65.3867C88.5891 65.4941 88.787 65.5478 89.0414 65.5478C89.2053 65.5478 89.3608 65.528 89.5078 65.4885C89.6604 65.4432 89.7961 65.3782 89.9148 65.2934C90.0336 65.203 90.1268 65.0927 90.1947 64.9627C90.2625 64.827 90.2964 64.6687 90.2964 64.4878V63.3176ZM92.6234 66.0566V61.8166H93.1747L93.2679 62.512C93.3867 62.2519 93.5591 62.0569 93.7852 61.9268C94.017 61.7968 94.2969 61.7318 94.6248 61.7318C94.6982 61.7318 94.7774 61.7374 94.8622 61.7487C94.9527 61.76 95.029 61.7827 95.0912 61.8166L94.9724 62.4356C94.9102 62.413 94.8424 62.3961 94.7689 62.3848C94.6954 62.3734 94.5908 62.3678 94.4552 62.3678C94.2799 62.3678 94.1018 62.4187 93.9209 62.5204C93.7456 62.6222 93.5987 62.7777 93.4799 62.9868C93.3612 63.1904 93.3019 63.4504 93.3019 63.767V66.0566H92.6234ZM96.829 60.6124V64.8864C96.829 65.0956 96.8883 65.251 97.0071 65.3528C97.1258 65.4546 97.2784 65.5054 97.465 65.5054C97.6289 65.5054 97.7703 65.4772 97.889 65.4206C98.0077 65.3641 98.1151 65.2878 98.2112 65.1917L98.4487 65.7598C98.3187 65.8786 98.1632 65.9718 97.9823 66.0397C97.807 66.1075 97.6035 66.1414 97.3717 66.1414C97.1569 66.1414 96.9562 66.1047 96.7696 66.0312C96.5831 65.9521 96.4332 65.8305 96.3202 65.6666C96.2128 65.497 96.1562 65.2765 96.1506 65.0051V60.799L96.829 60.6124ZM98.3724 61.8166V62.4017H95.3026V61.8166H98.3724ZM104.196 60.375C104.688 60.375 105.112 60.4767 105.468 60.6802C105.824 60.8781 106.121 61.1721 106.359 61.5622L105.79 62.0031C105.581 61.6413 105.344 61.3869 105.078 61.2399C104.818 61.0873 104.502 61.011 104.128 61.011C103.829 61.011 103.58 61.0534 103.382 61.1382C103.19 61.223 103.049 61.336 102.958 61.4774C102.868 61.6131 102.822 61.7685 102.822 61.9438C102.822 62.1417 102.885 62.3169 103.009 62.4696C103.133 62.6165 103.382 62.7324 103.755 62.8172L104.968 63.0886C105.505 63.2073 105.878 63.3882 106.087 63.6313C106.302 63.8688 106.41 64.1656 106.41 64.5217C106.41 64.8383 106.319 65.121 106.138 65.3698C105.963 65.6128 105.714 65.8022 105.392 65.9379C105.07 66.0736 104.691 66.1414 104.256 66.1414C103.849 66.1414 103.49 66.0877 103.179 65.9803C102.873 65.8673 102.61 65.7174 102.39 65.5309C102.169 65.3443 101.989 65.1351 101.847 64.9033L102.441 64.42C102.548 64.6348 102.687 64.8242 102.856 64.9881C103.026 65.1521 103.229 65.2793 103.467 65.3698C103.71 65.4602 103.987 65.5054 104.298 65.5054C104.586 65.5054 104.835 65.4715 105.044 65.4037C105.259 65.3302 105.423 65.2256 105.536 65.0899C105.649 64.9486 105.706 64.779 105.706 64.5811C105.706 64.4002 105.646 64.2391 105.528 64.0977C105.409 63.9507 105.186 63.8405 104.858 63.767L103.543 63.4702C103.198 63.3911 102.919 63.2836 102.704 63.148C102.495 63.0066 102.342 62.8427 102.246 62.6561C102.155 62.4639 102.11 62.2575 102.11 62.0371C102.11 61.7374 102.192 61.4632 102.356 61.2145C102.526 60.9601 102.766 60.7566 103.077 60.6039C103.393 60.4513 103.767 60.375 104.196 60.375ZM110.097 63.3176C110.097 63.001 110.012 62.7579 109.843 62.5883C109.673 62.413 109.433 62.3254 109.122 62.3254C108.828 62.3254 108.579 62.3904 108.376 62.5204C108.172 62.6448 108.022 62.8483 107.926 63.131L107.375 62.7918C107.488 62.4752 107.697 62.2208 108.003 62.0286C108.308 61.8307 108.687 61.7318 109.139 61.7318C109.444 61.7318 109.721 61.7855 109.97 61.8929C110.219 61.9947 110.414 62.153 110.555 62.3678C110.702 62.577 110.776 62.8483 110.776 63.1819V65.2341C110.776 65.4376 110.883 65.5394 111.098 65.5394C111.205 65.5394 111.31 65.5252 111.412 65.497L111.378 66.0312C111.265 66.0877 111.118 66.116 110.937 66.116C110.773 66.116 110.626 66.0849 110.496 66.0227C110.366 65.9605 110.264 65.8673 110.19 65.7429C110.117 65.6128 110.08 65.4517 110.08 65.2595V65.1747L110.25 65.2001C110.182 65.4206 110.066 65.6015 109.902 65.7429C109.738 65.8786 109.554 65.9803 109.351 66.0482C109.147 66.1103 108.947 66.1414 108.749 66.1414C108.5 66.1414 108.268 66.099 108.053 66.0142C107.839 65.9294 107.666 65.8022 107.536 65.6326C107.412 65.4574 107.35 65.2425 107.35 64.9881C107.35 64.6716 107.454 64.4115 107.663 64.208C107.878 63.9988 108.175 63.8575 108.554 63.784L110.233 63.4532V64.0129L108.868 64.2928C108.591 64.3493 108.384 64.4285 108.249 64.5302C108.113 64.632 108.045 64.7733 108.045 64.9542C108.045 65.1295 108.113 65.2736 108.249 65.3867C108.39 65.4941 108.588 65.5478 108.842 65.5478C109.006 65.5478 109.162 65.528 109.309 65.4885C109.461 65.4432 109.597 65.3782 109.716 65.2934C109.834 65.203 109.928 65.0927 109.995 64.9627C110.063 64.827 110.097 64.6687 110.097 64.4878V63.3176ZM114.104 59.8238C114.251 59.8238 114.39 59.8407 114.52 59.8746C114.65 59.9086 114.752 59.9566 114.825 60.0188L114.647 60.57C114.579 60.5248 114.506 60.4937 114.426 60.4767C114.347 60.4541 114.26 60.4428 114.164 60.4428C113.921 60.4428 113.731 60.5022 113.595 60.6209C113.46 60.734 113.392 60.9177 113.392 61.1721V61.8166V62.0371V66.0566H112.713V61.1043C112.713 60.9177 112.742 60.7453 112.798 60.587C112.855 60.4287 112.94 60.293 113.053 60.1799C113.171 60.0669 113.318 59.9792 113.494 59.917C113.669 59.8549 113.872 59.8238 114.104 59.8238ZM114.808 61.8166V62.4017H111.865V61.8166H114.808ZM117.368 66.1414C116.967 66.1414 116.608 66.0538 116.291 65.8786C115.98 65.7033 115.737 65.4517 115.562 65.1238C115.387 64.7903 115.299 64.3945 115.299 63.9366C115.299 63.4787 115.387 63.0858 115.562 62.7579C115.737 62.4243 115.978 62.1699 116.283 61.9947C116.588 61.8194 116.936 61.7318 117.326 61.7318C117.722 61.7318 118.058 61.8166 118.335 61.9862C118.618 62.1558 118.833 62.3876 118.98 62.6816C119.126 62.9699 119.2 63.295 119.2 63.6568C119.2 63.7529 119.197 63.8405 119.192 63.9197C119.186 63.9988 119.177 64.0695 119.166 64.1317H115.74V63.5296H118.869L118.522 63.5974C118.522 63.1904 118.409 62.8766 118.182 62.6561C117.962 62.4356 117.671 62.3254 117.309 62.3254C117.032 62.3254 116.792 62.3904 116.588 62.5204C116.39 62.6448 116.235 62.8285 116.122 63.0716C116.014 63.3091 115.961 63.5974 115.961 63.9366C115.961 64.2702 116.017 64.5585 116.13 64.8016C116.243 65.0447 116.402 65.2312 116.605 65.3613C116.814 65.4856 117.063 65.5478 117.351 65.5478C117.662 65.5478 117.914 65.4885 118.106 65.3698C118.304 65.251 118.462 65.0899 118.581 64.8864L119.115 65.2001C119.008 65.3924 118.869 65.5591 118.7 65.7005C118.536 65.8418 118.341 65.9521 118.115 66.0312C117.894 66.1047 117.645 66.1414 117.368 66.1414ZM121.367 60.6124V64.8864C121.367 65.0956 121.426 65.251 121.545 65.3528C121.663 65.4546 121.816 65.5054 122.003 65.5054C122.167 65.5054 122.308 65.4772 122.427 65.4206C122.545 65.3641 122.653 65.2878 122.749 65.1917L122.986 65.7598C122.856 65.8786 122.701 65.9718 122.52 66.0397C122.345 66.1075 122.141 66.1414 121.909 66.1414C121.695 66.1414 121.494 66.1047 121.307 66.0312C121.121 65.9521 120.971 65.8305 120.858 65.6666C120.75 65.497 120.694 65.2765 120.688 65.0051V60.799L121.367 60.6124ZM122.91 61.8166V62.4017H119.84V61.8166H122.91ZM127.404 61.8166L125.411 66.769C125.304 67.046 125.185 67.2636 125.055 67.4219C124.931 67.5859 124.789 67.7018 124.631 67.7696C124.478 67.8431 124.3 67.8799 124.097 67.8799C123.905 67.8799 123.726 67.8516 123.563 67.7951C123.404 67.7442 123.263 67.6735 123.139 67.5831L123.325 66.9895C123.438 67.0912 123.557 67.1647 123.681 67.2099C123.811 67.2608 123.938 67.2863 124.063 67.2863C124.21 67.2863 124.348 67.241 124.478 67.1506C124.608 67.0601 124.727 66.8764 124.835 66.5994L125.055 66.0482L124.631 65.039L123.283 61.8166H124.054L125.114 64.5811L125.377 65.3358L125.683 64.4963L126.675 61.8166H127.404ZM135.214 66.0566H134.494L133.9 64.5048H131.364L130.771 66.0566H130.058L132.238 60.4598H133.043L135.214 66.0566ZM131.61 63.8688H133.654L132.628 61.1127L131.61 63.8688ZM136.225 66.0566V61.8166H136.818L136.878 62.7664L136.768 62.6731C136.858 62.4469 136.98 62.266 137.132 62.1303C137.285 61.989 137.46 61.8873 137.658 61.8251C137.861 61.7629 138.071 61.7318 138.285 61.7318C138.591 61.7318 138.868 61.7911 139.117 61.9099C139.365 62.0229 139.563 62.1982 139.71 62.4356C139.863 62.6731 139.939 62.9755 139.939 63.343V66.0566H139.261V63.5804C139.261 63.1112 139.159 62.7861 138.955 62.6052C138.758 62.4187 138.512 62.3254 138.218 62.3254C138.014 62.3254 137.811 62.3734 137.607 62.4696C137.404 62.5657 137.234 62.7211 137.098 62.936C136.968 63.1508 136.903 63.4391 136.903 63.8009V66.0566H136.225ZM143.129 66.1414C142.778 66.1414 142.456 66.0538 142.162 65.8786C141.868 65.7033 141.633 65.4517 141.458 65.1238C141.283 64.7903 141.195 64.3945 141.195 63.9366C141.195 63.4674 141.289 63.0688 141.475 62.7409C141.662 62.413 141.908 62.1643 142.213 61.9947C142.518 61.8194 142.846 61.7318 143.197 61.7318C143.547 61.7318 143.85 61.8222 144.104 62.0031C144.364 62.1841 144.537 62.4243 144.621 62.724L144.537 62.7833V59.8662H145.215V66.0566H144.621L144.562 65.0305L144.655 64.9797C144.616 65.2284 144.52 65.4404 144.367 65.6157C144.22 65.7853 144.036 65.9153 143.816 66.0058C143.601 66.0962 143.372 66.1414 143.129 66.1414ZM143.197 65.5478C143.468 65.5478 143.703 65.48 143.901 65.3443C144.104 65.2086 144.26 65.0164 144.367 64.7677C144.48 64.5133 144.537 64.2165 144.537 63.8773C144.537 63.555 144.48 63.278 144.367 63.0462C144.26 62.8144 144.107 62.6363 143.909 62.512C143.717 62.3876 143.491 62.3254 143.231 62.3254C142.801 62.3254 142.467 62.4724 142.23 62.7664C141.992 63.0603 141.874 63.4504 141.874 63.9366C141.874 64.4228 141.99 64.8129 142.221 65.1069C142.453 65.4008 142.778 65.5478 143.197 65.5478ZM151.607 60.375C152.099 60.375 152.523 60.4767 152.879 60.6802C153.235 60.8781 153.532 61.1721 153.769 61.5622L153.201 62.0031C152.992 61.6413 152.755 61.3869 152.489 61.2399C152.229 61.0873 151.912 61.011 151.539 61.011C151.24 61.011 150.991 61.0534 150.793 61.1382C150.601 61.223 150.459 61.336 150.369 61.4774C150.278 61.6131 150.233 61.7685 150.233 61.9438C150.233 62.1417 150.295 62.3169 150.42 62.4696C150.544 62.6165 150.793 62.7324 151.166 62.8172L152.379 63.0886C152.916 63.2073 153.289 63.3882 153.498 63.6313C153.713 63.8688 153.82 64.1656 153.82 64.5217C153.82 64.8383 153.73 65.121 153.549 65.3698C153.374 65.6128 153.125 65.8022 152.803 65.9379C152.48 66.0736 152.102 66.1414 151.666 66.1414C151.259 66.1414 150.9 66.0877 150.589 65.9803C150.284 65.8673 150.021 65.7174 149.801 65.5309C149.58 65.3443 149.399 65.1351 149.258 64.9033L149.852 64.42C149.959 64.6348 150.098 64.8242 150.267 64.9881C150.437 65.1521 150.64 65.2793 150.878 65.3698C151.121 65.4602 151.398 65.5054 151.709 65.5054C151.997 65.5054 152.246 65.4715 152.455 65.4037C152.67 65.3302 152.834 65.2256 152.947 65.0899C153.06 64.9486 153.116 64.779 153.116 64.5811C153.116 64.4002 153.057 64.2391 152.938 64.0977C152.82 63.9507 152.596 63.8405 152.268 63.767L150.954 63.4702C150.609 63.3911 150.329 63.2836 150.115 63.148C149.905 63.0066 149.753 62.8427 149.657 62.6561C149.566 62.4639 149.521 62.2575 149.521 62.0371C149.521 61.7374 149.603 61.4632 149.767 61.2145C149.936 60.9601 150.177 60.7566 150.488 60.6039C150.804 60.4513 151.177 60.375 151.607 60.375ZM156.887 66.1414C156.486 66.1414 156.127 66.0538 155.81 65.8786C155.499 65.7033 155.256 65.4517 155.081 65.1238C154.905 64.7903 154.818 64.3945 154.818 63.9366C154.818 63.4787 154.905 63.0858 155.081 62.7579C155.256 62.4243 155.496 62.1699 155.801 61.9947C156.107 61.8194 156.454 61.7318 156.845 61.7318C157.24 61.7318 157.577 61.8166 157.854 61.9862C158.136 62.1558 158.351 62.3876 158.498 62.6816C158.645 62.9699 158.719 63.295 158.719 63.6568C158.719 63.7529 158.716 63.8405 158.71 63.9197C158.705 63.9988 158.696 64.0695 158.685 64.1317H155.259V63.5296H158.388L158.04 63.5974C158.04 63.1904 157.927 62.8766 157.701 62.6561C157.481 62.4356 157.189 62.3254 156.828 62.3254C156.551 62.3254 156.31 62.3904 156.107 62.5204C155.909 62.6448 155.753 62.8285 155.64 63.0716C155.533 63.3091 155.479 63.5974 155.479 63.9366C155.479 64.2702 155.536 64.5585 155.649 64.8016C155.762 65.0447 155.92 65.2312 156.124 65.3613C156.333 65.4856 156.582 65.5478 156.87 65.5478C157.181 65.5478 157.432 65.4885 157.625 65.3698C157.823 65.251 157.981 65.0899 158.1 64.8864L158.634 65.2001C158.526 65.3924 158.388 65.5591 158.218 65.7005C158.054 65.8418 157.859 65.9521 157.633 66.0312C157.413 66.1047 157.164 66.1414 156.887 66.1414ZM161.764 61.7318C162.058 61.7318 162.315 61.777 162.536 61.8675C162.762 61.9579 162.957 62.0879 163.121 62.2575C163.285 62.4272 163.418 62.6278 163.52 62.8596L162.875 63.1649C162.785 62.8936 162.646 62.6872 162.46 62.5459C162.279 62.3989 162.041 62.3254 161.747 62.3254C161.465 62.3254 161.222 62.3904 161.018 62.5204C160.814 62.6448 160.659 62.8285 160.552 63.0716C160.444 63.3091 160.39 63.5974 160.39 63.9366C160.39 64.2702 160.444 64.5585 160.552 64.8016C160.659 65.0447 160.814 65.2312 161.018 65.3613C161.222 65.4856 161.465 65.5478 161.747 65.5478C161.968 65.5478 162.157 65.5139 162.315 65.4461C162.479 65.3782 162.612 65.2793 162.714 65.1493C162.821 65.0192 162.895 64.8609 162.935 64.6744L163.562 64.8949C163.466 65.1549 163.333 65.3782 163.163 65.5648C163 65.7514 162.799 65.8955 162.561 65.9973C162.33 66.0934 162.064 66.1414 161.764 66.1414C161.369 66.1414 161.015 66.0538 160.704 65.8786C160.393 65.7033 160.15 65.4517 159.975 65.1238C159.8 64.7903 159.712 64.3945 159.712 63.9366C159.712 63.4787 159.8 63.0858 159.975 62.7579C160.15 62.4243 160.393 62.1699 160.704 61.9947C161.015 61.8194 161.369 61.7318 161.764 61.7318ZM166.289 66.1414C166.018 66.1414 165.76 66.0906 165.517 65.9888C165.28 65.887 165.085 65.7231 164.932 65.497C164.785 65.2652 164.712 64.9655 164.712 64.5981V61.8166H165.39V64.42C165.39 64.8496 165.483 65.1464 165.67 65.3104C165.857 65.4687 166.119 65.5478 166.459 65.5478C166.617 65.5478 166.772 65.5224 166.925 65.4715C167.078 65.415 167.213 65.3302 167.332 65.2171C167.456 65.0984 167.553 64.9486 167.62 64.7677C167.694 64.5868 167.731 64.3719 167.731 64.1232V61.8166H168.409V66.0566H167.815L167.773 65.4122C167.626 65.6666 167.425 65.8531 167.171 65.9718C166.922 66.0849 166.628 66.1414 166.289 66.1414ZM169.988 66.0566V61.8166H170.539L170.632 62.512C170.751 62.2519 170.924 62.0569 171.15 61.9268C171.381 61.7968 171.661 61.7318 171.989 61.7318C172.063 61.7318 172.142 61.7374 172.227 61.7487C172.317 61.76 172.393 61.7827 172.456 61.8166L172.337 62.4356C172.275 62.413 172.207 62.3961 172.133 62.3848C172.06 62.3734 171.955 62.3678 171.82 62.3678C171.644 62.3678 171.466 62.4187 171.285 62.5204C171.11 62.6222 170.963 62.7777 170.844 62.9868C170.726 63.1904 170.666 63.4504 170.666 63.767V66.0566H169.988ZM173.789 61.0025C173.636 61.0025 173.512 60.9573 173.416 60.8668C173.325 60.7707 173.28 60.6463 173.28 60.4937C173.28 60.341 173.325 60.2195 173.416 60.129C173.512 60.0329 173.636 59.9849 173.789 59.9849C173.941 59.9849 174.063 60.0329 174.153 60.129C174.249 60.2195 174.298 60.341 174.298 60.4937C174.298 60.6463 174.249 60.7707 174.153 60.8668C174.063 60.9573 173.941 61.0025 173.789 61.0025ZM174.128 61.8166V66.0566H173.45V61.8166H174.128ZM176.703 60.6124V64.8864C176.703 65.0956 176.762 65.251 176.881 65.3528C177 65.4546 177.152 65.5054 177.339 65.5054C177.503 65.5054 177.644 65.4772 177.763 65.4206C177.881 65.3641 177.989 65.2878 178.085 65.1917L178.322 65.7598C178.192 65.8786 178.037 65.9718 177.856 66.0397C177.681 66.1075 177.477 66.1414 177.245 66.1414C177.031 66.1414 176.83 66.1047 176.643 66.0312C176.457 65.9521 176.307 65.8305 176.194 65.6666C176.086 65.497 176.03 65.2765 176.024 65.0051V60.799L176.703 60.6124ZM178.246 61.8166V62.4017H175.176V61.8166H178.246ZM182.74 61.8166L180.747 66.769C180.64 67.046 180.521 67.2636 180.391 67.4219C180.267 67.5859 180.125 67.7018 179.967 67.7696C179.814 67.8431 179.636 67.8799 179.433 67.8799C179.241 67.8799 179.063 67.8516 178.899 67.7951C178.74 67.7442 178.599 67.6735 178.475 67.5831L178.661 66.9895C178.774 67.0912 178.893 67.1647 179.017 67.2099C179.147 67.2608 179.275 67.2863 179.399 67.2863C179.546 67.2863 179.684 67.241 179.814 67.1506C179.944 67.0601 180.063 66.8764 180.171 66.5994L180.391 66.0482L179.967 65.039L178.619 61.8166H179.39L180.45 64.5811L180.713 65.3358L181.019 64.4963L182.011 61.8166H182.74ZM188.499 60.4598C188.9 60.4598 189.245 60.5304 189.533 60.6718C189.827 60.8131 190.056 61.0138 190.22 61.2739C190.384 61.5339 190.466 61.8477 190.466 62.2151C190.466 62.577 190.384 62.8907 190.22 63.1564C190.056 63.4165 189.827 63.6172 189.533 63.7585C189.245 63.8999 188.9 63.9705 188.499 63.9705H187.252V66.0566H186.345V60.4598H188.499ZM188.354 63.1904C188.756 63.1904 189.05 63.1084 189.236 62.9444C189.429 62.7748 189.525 62.5317 189.525 62.2151C189.525 61.8929 189.429 61.6498 189.236 61.4859C189.05 61.3163 188.756 61.2315 188.354 61.2315H187.252V63.1904H188.354ZM193.283 61.7318C193.696 61.7318 194.06 61.8194 194.377 61.9947C194.694 62.1699 194.94 62.4243 195.115 62.7579C195.296 63.0858 195.386 63.4787 195.386 63.9366C195.386 64.3945 195.296 64.7903 195.115 65.1238C194.94 65.4517 194.694 65.7033 194.377 65.8786C194.06 66.0538 193.696 66.1414 193.283 66.1414C192.87 66.1414 192.506 66.0538 192.189 65.8786C191.873 65.7033 191.624 65.4517 191.443 65.1238C191.262 64.7903 191.172 64.3945 191.172 63.9366C191.172 63.4787 191.262 63.0858 191.443 62.7579C191.624 62.4243 191.873 62.1699 192.189 61.9947C192.506 61.8194 192.87 61.7318 193.283 61.7318ZM193.283 62.4441C193.029 62.4441 192.811 62.5035 192.63 62.6222C192.455 62.7353 192.319 62.902 192.223 63.1225C192.127 63.343 192.079 63.6144 192.079 63.9366C192.079 64.2532 192.127 64.5246 192.223 64.7507C192.319 64.9712 192.455 65.1408 192.63 65.2595C192.811 65.3726 193.029 65.4291 193.283 65.4291C193.538 65.4291 193.752 65.3726 193.928 65.2595C194.103 65.1408 194.239 64.9712 194.335 64.7507C194.431 64.5246 194.479 64.2532 194.479 63.9366C194.479 63.6144 194.431 63.343 194.335 63.1225C194.239 62.902 194.103 62.7353 193.928 62.6222C193.752 62.5035 193.538 62.4441 193.283 62.4441ZM201.797 61.8166H202.781L201.356 66.0566H200.364L199.295 62.9105L198.286 66.0566H197.294L195.878 61.8166H196.853L197.82 65.1662L198.871 61.8166H199.779L200.83 65.1662L201.797 61.8166ZM205.399 66.1414C204.975 66.1414 204.602 66.0538 204.28 65.8786C203.958 65.7033 203.706 65.4517 203.525 65.1238C203.35 64.7903 203.262 64.3945 203.262 63.9366C203.262 63.4787 203.35 63.0858 203.525 62.7579C203.706 62.4243 203.955 62.1699 204.271 61.9947C204.588 61.8194 204.947 61.7318 205.348 61.7318C205.761 61.7318 206.112 61.8166 206.4 61.9862C206.688 62.1558 206.909 62.3876 207.061 62.6816C207.214 62.9755 207.29 63.3091 207.29 63.6822C207.29 63.784 207.288 63.8801 207.282 63.9705C207.276 64.061 207.268 64.1401 207.256 64.208H203.847V63.5126H206.858L206.408 63.6483C206.408 63.2639 206.312 62.9699 206.12 62.7664C205.928 62.5572 205.665 62.4526 205.332 62.4526C205.088 62.4526 204.876 62.5091 204.696 62.6222C204.515 62.7353 204.376 62.9049 204.28 63.131C204.184 63.3515 204.136 63.6228 204.136 63.9451C204.136 64.2617 204.187 64.5302 204.288 64.7507C204.39 64.9712 204.534 65.138 204.721 65.251C204.908 65.3641 205.128 65.4206 205.382 65.4206C205.665 65.4206 205.894 65.3669 206.069 65.2595C206.245 65.1521 206.383 65.0023 206.485 64.8101L207.206 65.1493C207.104 65.3528 206.965 65.5309 206.79 65.6835C206.62 65.8305 206.417 65.9436 206.18 66.0227C205.942 66.1019 205.682 66.1414 205.399 66.1414ZM208.436 66.0566V61.8166H209.208L209.293 62.5798C209.406 62.3028 209.573 62.0936 209.793 61.9523C210.019 61.8053 210.296 61.7318 210.624 61.7318C210.709 61.7318 210.794 61.7403 210.879 61.7572C210.963 61.7685 211.034 61.7883 211.091 61.8166L210.963 62.6137C210.901 62.5911 210.831 62.5741 210.751 62.5628C210.678 62.5459 210.576 62.5374 210.446 62.5374C210.271 62.5374 210.098 62.5854 209.929 62.6816C209.759 62.772 209.618 62.9105 209.505 63.0971C209.397 63.2836 209.344 63.5211 209.344 63.8094V66.0566H208.436ZM213.706 66.1414C213.282 66.1414 212.908 66.0538 212.586 65.8786C212.264 65.7033 212.012 65.4517 211.831 65.1238C211.656 64.7903 211.569 64.3945 211.569 63.9366C211.569 63.4787 211.656 63.0858 211.831 62.7579C212.012 62.4243 212.261 62.1699 212.578 61.9947C212.894 61.8194 213.253 61.7318 213.655 61.7318C214.067 61.7318 214.418 61.8166 214.706 61.9862C214.995 62.1558 215.215 62.3876 215.368 62.6816C215.52 62.9755 215.597 63.3091 215.597 63.6822C215.597 63.784 215.594 63.8801 215.588 63.9705C215.582 64.061 215.574 64.1401 215.563 64.208H212.154V63.5126H215.164L214.715 63.6483C214.715 63.2639 214.619 62.9699 214.426 62.7664C214.234 62.5572 213.971 62.4526 213.638 62.4526C213.395 62.4526 213.183 62.5091 213.002 62.6222C212.821 62.7353 212.682 62.9049 212.586 63.131C212.49 63.3515 212.442 63.6228 212.442 63.9451C212.442 64.2617 212.493 64.5302 212.595 64.7507C212.696 64.9712 212.841 65.138 213.027 65.251C213.214 65.3641 213.434 65.4206 213.689 65.4206C213.971 65.4206 214.2 65.3669 214.375 65.2595C214.551 65.1521 214.689 65.0023 214.791 64.8101L215.512 65.1493C215.41 65.3528 215.272 65.5309 215.096 65.6835C214.927 65.8305 214.723 65.9436 214.486 66.0227C214.248 66.1019 213.988 66.1414 213.706 66.1414ZM218.371 66.1414C218.02 66.1414 217.701 66.0538 217.412 65.8786C217.13 65.7033 216.906 65.4517 216.743 65.1238C216.579 64.7959 216.497 64.403 216.497 63.9451C216.497 63.4702 216.584 63.0688 216.759 62.7409C216.935 62.413 217.169 62.1643 217.463 61.9947C217.757 61.8194 218.08 61.7318 218.43 61.7318C218.792 61.7318 219.097 61.8307 219.346 62.0286C219.595 62.2265 219.761 62.4837 219.846 62.8003L219.744 62.8936V59.9086H220.652V66.0566H219.846L219.778 64.9033L219.897 64.9118C219.858 65.1662 219.764 65.3867 219.617 65.5733C219.47 65.7542 219.287 65.8955 219.066 65.9973C218.851 66.0934 218.619 66.1414 218.371 66.1414ZM218.566 65.4122C218.809 65.4122 219.018 65.35 219.193 65.2256C219.369 65.1012 219.504 64.926 219.6 64.6998C219.696 64.4737 219.744 64.2023 219.744 63.8857C219.744 63.5918 219.696 63.3402 219.6 63.131C219.504 62.9162 219.369 62.7522 219.193 62.6392C219.024 62.5261 218.826 62.4696 218.6 62.4696C218.221 62.4696 217.927 62.5996 217.718 62.8596C217.509 63.1197 217.404 63.4787 217.404 63.9366C217.404 64.3945 217.506 64.7564 217.709 65.0221C217.913 65.2821 218.198 65.4122 218.566 65.4122ZM224.944 66.0566V60.4598H227.149C227.822 60.4598 228.313 60.5954 228.624 60.8668C228.935 61.1382 229.091 61.5141 229.091 61.9947C229.091 62.2886 229.006 62.5515 228.836 62.7833C228.667 63.0095 228.418 63.1536 228.09 63.2158V63.2243C228.452 63.2808 228.732 63.4306 228.93 63.6737C229.133 63.9112 229.235 64.1882 229.235 64.5048C229.235 64.9853 229.06 65.3641 228.709 65.6411C228.359 65.9181 227.85 66.0566 227.183 66.0566H224.944ZM225.834 65.3019H227.225C227.581 65.3019 227.847 65.2284 228.022 65.0814C228.203 64.9344 228.294 64.7281 228.294 64.4624C228.294 64.1967 228.203 63.9903 228.022 63.8433C227.847 63.6963 227.581 63.6228 227.225 63.6228H225.834V65.3019ZM225.834 62.8681H227.081C227.793 62.8681 228.15 62.5939 228.15 62.0455C228.15 61.4972 227.793 61.223 227.081 61.223H225.834V62.8681ZM234.154 61.8166L232.297 66.557C232.173 66.8849 232.037 67.1449 231.89 67.3371C231.749 67.5294 231.585 67.6679 231.398 67.7527C231.212 67.8375 230.994 67.8799 230.745 67.8799C230.542 67.8799 230.352 67.8516 230.177 67.7951C230.008 67.7442 229.858 67.6735 229.728 67.5831L229.948 66.8792C230.056 66.9697 230.169 67.0375 230.287 67.0827C230.412 67.128 230.545 67.1506 230.686 67.1506C230.839 67.1506 230.974 67.1082 231.093 67.0234C231.217 66.9442 231.328 66.7831 231.424 66.54L231.61 66.0821L231.161 65.0305L229.838 61.8166H230.856L231.797 64.4793L232.043 65.2765L232.323 64.403L233.213 61.8166H234.154ZM241.963 66.0566H241.005L240.471 64.5896H238.122L237.588 66.0566H236.655L238.766 60.4598H239.852L241.963 66.0566ZM238.376 63.8518H240.217L239.301 61.2399L238.376 63.8518ZM243.863 60.4598V66.0566H242.956V60.4598H243.863Z" fill="black"/>
<path d="M186.753 57.002H184.078V59.677" stroke="black" stroke-width="0.422381" stroke-linecap="round"/>
<path d="M186.753 69.252H184.078V66.5769" stroke="black" stroke-width="0.422381" stroke-linecap="round"/>
<path d="M243.637 57.002H246.312V59.677" stroke="black" stroke-width="0.422381" stroke-linecap="round"/>
<path d="M243.637 69.252H246.312V66.5769" stroke="black" stroke-width="0.422381" stroke-linecap="round"/>
</svg>
