<svg width="247" height="66" viewBox="0 0 247 66" fill="none" xmlns="http://www.w3.org/2000/svg">
<path d="M70.4751 42.3877V13.1618H74.358V42.3877H70.4751ZM90.2303 20.9693C92.6797 20.9693 94.6421 21.7486 96.1173 23.3073C97.5925 24.8382 98.3301 26.9258 98.3301 29.57V42.3877H94.6977V29.7788C94.6977 28.1087 94.2385 26.8005 93.3199 25.8542C92.4014 24.9078 91.1349 24.4346 89.5206 24.4346C87.6557 24.4346 86.1805 25.0191 85.0949 26.1882C84.0094 27.3294 83.4666 29.0412 83.4666 31.3236V42.3877H79.8342V21.512H83.4666V24.5181C84.914 22.1522 87.1686 20.9693 90.2303 20.9693ZM106.115 27.1485C106.115 28.4845 107.493 29.5283 110.248 30.2798C111.278 30.5025 112.141 30.7391 112.837 30.9896C113.56 31.2123 114.34 31.5602 115.175 32.0334C116.038 32.5065 116.692 33.1328 117.137 33.9122C117.582 34.6915 117.805 35.6101 117.805 36.6678C117.805 38.5605 117.068 40.0775 115.592 41.2187C114.117 42.3599 112.252 42.9305 109.998 42.9305C107.994 42.9305 106.254 42.499 104.779 41.6362C103.331 40.7455 102.301 39.5486 101.689 38.0456L104.82 36.2502C105.154 37.2523 105.781 38.0456 106.699 38.6301C107.618 39.2146 108.717 39.5069 109.998 39.5069C111.25 39.5069 112.252 39.2703 113.004 38.7971C113.755 38.3239 114.131 37.6141 114.131 36.6678C114.131 35.2482 112.753 34.2184 109.998 33.5782C109.079 33.3277 108.383 33.1328 107.91 32.9936C107.437 32.8545 106.783 32.604 105.948 32.2421C105.141 31.8803 104.528 31.5045 104.111 31.1148C103.693 30.6973 103.303 30.1546 102.942 29.4865C102.608 28.7907 102.441 28.0252 102.441 27.1902C102.441 25.381 103.136 23.8919 104.528 22.7228C105.948 21.5538 107.715 20.9693 109.831 20.9693C111.529 20.9693 113.032 21.3589 114.34 22.1383C115.676 22.8898 116.678 23.9475 117.346 25.3114L114.298 27.0232C113.546 25.2418 112.057 24.3511 109.831 24.3511C108.773 24.3511 107.882 24.6016 107.159 25.1026C106.463 25.6037 106.115 26.2856 106.115 27.1485ZM132.229 21.512V25.0191H126.676V36.3338C126.676 37.3636 126.871 38.1012 127.261 38.5466C127.678 38.9641 128.305 39.1868 129.14 39.2146C129.975 39.2146 131.005 39.1868 132.229 39.1311V42.3877C129.028 42.8052 126.69 42.5408 125.215 41.5944C123.768 40.6481 123.044 38.8945 123.044 36.3338V25.0191H118.911V21.512H123.044V16.7524L126.676 15.6668V21.512H132.229ZM152.337 25.1026V21.512H155.969V42.3877H152.337V38.7971C150.556 41.5527 147.925 42.9305 144.446 42.9305C141.496 42.9305 139.004 41.8728 136.973 39.7574C134.913 37.6141 133.883 35.0116 133.883 31.9499C133.883 28.9159 134.913 26.3273 136.973 24.1841C139.032 22.0409 141.523 20.9693 144.446 20.9693C147.925 20.9693 150.556 22.3471 152.337 25.1026ZM144.905 39.4234C147.021 39.4234 148.788 38.7136 150.208 37.294C151.627 35.8188 152.337 34.0374 152.337 31.9499C152.337 29.8345 151.627 28.067 150.208 26.6474C148.788 25.2001 147.021 24.4764 144.905 24.4764C142.818 24.4764 141.064 25.2001 139.645 26.6474C138.225 28.067 137.515 29.8345 137.515 31.9499C137.515 34.0374 138.225 35.8188 139.645 37.294C141.064 38.7136 142.818 39.4234 144.905 39.4234ZM173.455 42.3877H169.072L158.634 13.1618H162.809L171.284 37.5445L179.718 13.1618H183.935L173.455 42.3877ZM187.591 17.7127C186.895 17.7127 186.31 17.4761 185.837 17.0029C185.364 16.5297 185.128 15.9591 185.128 15.2911C185.128 14.6231 185.364 14.0525 185.837 13.5793C186.31 13.0783 186.895 12.8277 187.591 12.8277C188.259 12.8277 188.829 13.0783 189.303 13.5793C189.776 14.0525 190.012 14.6231 190.012 15.2911C190.012 15.9591 189.776 16.5297 189.303 17.0029C188.829 17.4761 188.259 17.7127 187.591 17.7127ZM189.386 42.3877H185.754V21.512H189.386V42.3877ZM214.551 33.6199H197.057C197.419 35.457 198.268 36.9044 199.604 37.9621C200.94 38.9919 202.61 39.5069 204.614 39.5069C207.37 39.5069 209.374 38.4909 210.626 36.459L213.716 38.2126C211.656 41.3578 208.594 42.9305 204.53 42.9305C201.246 42.9305 198.546 41.9006 196.431 39.8409C194.371 37.7255 193.341 35.0951 193.341 31.9499C193.341 28.7768 194.357 26.1603 196.389 24.1006C198.421 22.013 201.051 20.9693 204.28 20.9693C207.342 20.9693 209.833 22.0548 211.753 24.2259C213.702 26.3413 214.676 28.9298 214.676 31.9916C214.676 32.5205 214.634 33.0632 214.551 33.6199ZM204.28 24.3929C202.359 24.3929 200.745 24.9356 199.437 26.0212C198.156 27.1067 197.363 28.5819 197.057 30.4468H211.002C210.696 28.5263 209.93 27.0371 208.706 25.9794C207.481 24.9217 206.006 24.3929 204.28 24.3929ZM237.617 37.4193L242.21 21.512H246.009L239.538 42.3877H235.822L230.937 26.9397L226.052 42.3877H222.336L215.865 21.512H219.664L224.257 37.3775L229.184 21.512H232.691L237.617 37.4193Z" fill="black"/>
<path d="M16.4171 6.40137H10.2686C9.35223 6.40137 8.60938 7.14422 8.60938 8.06058V14.2092" stroke="black" stroke-width="1.73506" stroke-linecap="round"/>
<path d="M16.4171 46.8882H10.2686C9.35223 46.8882 8.60938 46.1453 8.60938 45.229V39.0804" stroke="black" stroke-width="1.73506" stroke-linecap="round"/>
<path d="M41.286 6.40137H47.4345C48.3509 6.40137 49.0938 7.14422 49.0938 8.06058V14.2092" stroke="black" stroke-width="1.73506" stroke-linecap="round"/>
<path d="M41.286 46.8882H47.4345C48.3509 46.8882 49.0938 46.1453 49.0938 45.229V39.0804" stroke="black" stroke-width="1.73506" stroke-linecap="round"/>
<rect width="5.70841" height="21.5176" rx="2.8542" transform="matrix(0.893353 -0.449355 0.449353 0.893355 13.6328 19.5996)" fill="black"/>
<rect width="5.70841" height="21.5176" rx="2.8542" transform="matrix(0.893353 -0.449355 0.449353 0.893355 22.7578 19.6069)" fill="black"/>
<rect width="5.70841" height="21.5176" rx="2.8542" transform="matrix(-0.893353 -0.449355 -0.449353 0.893355 44.8125 19.6069)" fill="black"/>
<path d="M71.3667 56.1537C71.8286 56.1537 72.2268 56.2493 72.5613 56.4404C72.8958 56.6263 73.1746 56.9024 73.3976 57.2687L72.864 57.6829C72.6675 57.343 72.4445 57.1041 72.195 56.9661C71.9507 56.8227 71.6534 56.751 71.303 56.751C71.0216 56.751 70.7879 56.7909 70.6021 56.8705C70.4216 56.9501 70.2889 57.0563 70.2039 57.1891C70.119 57.3165 70.0765 57.4625 70.0765 57.6271C70.0765 57.8129 70.1349 57.9775 70.2517 58.1209C70.3685 58.2589 70.6021 58.3678 70.9525 58.4474L72.0914 58.7023C72.5958 58.8138 72.9462 58.9837 73.1427 59.212C73.3445 59.435 73.4453 59.7137 73.4453 60.0482C73.4453 60.3456 73.3604 60.611 73.1905 60.8446C73.0259 61.073 72.7923 61.2508 72.4896 61.3782C72.187 61.5057 71.8313 61.5694 71.4224 61.5694C71.0401 61.5694 70.703 61.5189 70.411 61.4181C70.1243 61.3119 69.8774 61.1712 69.6703 60.996C69.4632 60.8208 69.2933 60.6243 69.1606 60.4066L69.7181 59.9527C69.819 60.1544 69.949 60.3323 70.1083 60.4863C70.2676 60.6402 70.4588 60.7597 70.6818 60.8446C70.9101 60.9296 71.1702 60.9721 71.4622 60.9721C71.733 60.9721 71.9666 60.9402 72.1631 60.8765C72.3649 60.8075 72.5188 60.7093 72.625 60.5818C72.7312 60.4491 72.7843 60.2898 72.7843 60.104C72.7843 59.9341 72.7286 59.7827 72.6171 59.65C72.5056 59.512 72.2958 59.4084 71.9879 59.3394L70.7534 59.0607C70.4296 58.9863 70.1667 58.8854 69.965 58.758C69.7685 58.6253 69.6252 58.4713 69.5349 58.2961C69.45 58.1156 69.4075 57.9218 69.4075 57.7147C69.4075 57.4333 69.4845 57.1758 69.6384 56.9422C69.7977 56.7033 70.0234 56.5121 70.3154 56.3688C70.6127 56.2254 70.9632 56.1537 71.3667 56.1537ZM74.622 61.4897V57.5076H75.1795L75.2193 58.1288C75.3627 57.8846 75.5485 57.7067 75.7768 57.5952C76.0104 57.4837 76.2493 57.428 76.4936 57.428C76.775 57.428 77.0405 57.4917 77.29 57.6191C77.5395 57.7466 77.7307 57.943 77.8634 58.2085C77.9484 58.028 78.0678 57.882 78.2218 57.7705C78.3758 57.6536 78.543 57.5687 78.7236 57.5156C78.9094 57.4572 79.0846 57.428 79.2492 57.428C79.5041 57.428 79.7456 57.4811 79.9739 57.5873C80.2076 57.6935 80.3987 57.8581 80.5474 58.0811C80.696 58.3041 80.7704 58.5908 80.7704 58.9412V61.4897H80.1332V59.0049C80.1332 58.6439 80.043 58.3837 79.8624 58.2244C79.6819 58.0651 79.4589 57.9855 79.1934 57.9855C78.9864 57.9855 78.7926 58.0359 78.6121 58.1368C78.4315 58.2377 78.2855 58.3864 78.174 58.5828C78.0678 58.7793 78.0147 59.0208 78.0147 59.3076V61.4897H77.3776V59.0049C77.3776 58.6439 77.2873 58.3837 77.1068 58.2244C76.9263 58.0651 76.7033 57.9855 76.4378 57.9855C76.2626 57.9855 76.0821 58.0333 75.8963 58.1288C75.7157 58.2191 75.5644 58.3651 75.4423 58.5669C75.3202 58.7686 75.2591 59.0341 75.2591 59.3633V61.4897H74.622ZM84.5384 58.9173C84.5384 58.62 84.4588 58.3917 84.2995 58.2324C84.1402 58.0678 83.9146 57.9855 83.6225 57.9855C83.3465 57.9855 83.1128 58.0466 82.9217 58.1687C82.7306 58.2855 82.5899 58.4766 82.4996 58.7421L81.9819 58.4235C82.0881 58.1262 82.2846 57.8873 82.5713 57.7067C82.858 57.5209 83.2137 57.428 83.6385 57.428C83.9252 57.428 84.1854 57.4784 84.419 57.5793C84.6526 57.6749 84.8358 57.8236 84.9685 58.0253C85.1065 58.2218 85.1756 58.4766 85.1756 58.7899V60.7172C85.1756 60.9084 85.2764 61.0039 85.4782 61.0039C85.5791 61.0039 85.6773 60.9907 85.7729 60.9641L85.741 61.4659C85.6348 61.5189 85.4968 61.5455 85.3269 61.5455C85.1729 61.5455 85.0349 61.5163 84.9127 61.4579C84.7906 61.3995 84.6951 61.3119 84.626 61.1951C84.557 61.073 84.5225 60.9216 84.5225 60.7411V60.6615L84.6818 60.6854C84.6181 60.8924 84.5092 61.0623 84.3553 61.1951C84.2013 61.3225 84.0287 61.4181 83.8376 61.4818C83.6464 61.5402 83.458 61.5694 83.2721 61.5694C83.0385 61.5694 82.8208 61.5296 82.6191 61.4499C82.4173 61.3703 82.2554 61.2508 82.1332 61.0915C82.0164 60.9269 81.958 60.7252 81.958 60.4863C81.958 60.1889 82.0563 59.9447 82.2527 59.7535C82.4545 59.5571 82.7332 59.4244 83.0889 59.3553L84.6659 59.0447V59.5704L83.3836 59.8332C83.1235 59.8863 82.9297 59.9606 82.8022 60.0562C82.6748 60.1518 82.6111 60.2845 82.6111 60.4544C82.6111 60.619 82.6748 60.7544 82.8022 60.8606C82.935 60.9615 83.1208 61.0119 83.3597 61.0119C83.5137 61.0119 83.6597 60.9933 83.7978 60.9561C83.9411 60.9137 84.0685 60.8526 84.18 60.773C84.2915 60.688 84.3791 60.5845 84.4429 60.4624C84.5066 60.3349 84.5384 60.1863 84.5384 60.0164V58.9173ZM86.7239 61.4897V57.5076H87.2415L87.3291 58.1607C87.4406 57.9165 87.6026 57.7333 87.815 57.6112C88.0326 57.4891 88.2955 57.428 88.6034 57.428C88.6724 57.428 88.7468 57.4333 88.8264 57.4439C88.9114 57.4545 88.983 57.4758 89.0414 57.5076L88.9299 58.089C88.8715 58.0678 88.8078 58.0519 88.7388 58.0412C88.6698 58.0306 88.5716 58.0253 88.4441 58.0253C88.2795 58.0253 88.1123 58.0731 87.9424 58.1687C87.7778 58.2642 87.6397 58.4103 87.5282 58.6067C87.4167 58.7978 87.361 59.0421 87.361 59.3394V61.4897H86.7239ZM90.6736 56.3767V60.3907C90.6736 60.5871 90.7293 60.7331 90.8408 60.8287C90.9523 60.9243 91.0957 60.9721 91.2709 60.9721C91.4248 60.9721 91.5576 60.9455 91.6691 60.8924C91.7806 60.8393 91.8815 60.7677 91.9717 60.6774L92.1947 61.211C92.0726 61.3225 91.9266 61.4101 91.7567 61.4738C91.5921 61.5375 91.4009 61.5694 91.1833 61.5694C90.9815 61.5694 90.793 61.5349 90.6178 61.4659C90.4426 61.3915 90.3019 61.2774 90.1957 61.1234C90.0948 60.9641 90.0417 60.757 90.0364 60.5022V56.5519L90.6736 56.3767ZM92.123 57.5076V58.0572H89.24V57.5076H92.123ZM97.5926 56.1537C98.0545 56.1537 98.4527 56.2493 98.7872 56.4404C99.1217 56.6263 99.4005 56.9024 99.6235 57.2687L99.0899 57.6829C98.8934 57.343 98.6704 57.1041 98.4209 56.9661C98.1766 56.8227 97.8793 56.751 97.5289 56.751C97.2475 56.751 97.0139 56.7909 96.828 56.8705C96.6475 56.9501 96.5148 57.0563 96.4298 57.1891C96.3449 57.3165 96.3024 57.4625 96.3024 57.6271C96.3024 57.8129 96.3608 57.9775 96.4776 58.1209C96.5944 58.2589 96.828 58.3678 97.1784 58.4474L98.3173 58.7023C98.8217 58.8138 99.1722 58.9837 99.3686 59.212C99.5704 59.435 99.6712 59.7137 99.6712 60.0482C99.6712 60.3456 99.5863 60.611 99.4164 60.8446C99.2518 61.073 99.0182 61.2508 98.7155 61.3782C98.4129 61.5057 98.0572 61.5694 97.6483 61.5694C97.2661 61.5694 96.9289 61.5189 96.6369 61.4181C96.3502 61.3119 96.1033 61.1712 95.8962 60.996C95.6891 60.8208 95.5192 60.6243 95.3865 60.4066L95.944 59.9527C96.0449 60.1544 96.175 60.3323 96.3342 60.4863C96.4935 60.6402 96.6847 60.7597 96.9077 60.8446C97.136 60.9296 97.3961 60.9721 97.6882 60.9721C97.9589 60.9721 98.1926 60.9402 98.389 60.8765C98.5908 60.8075 98.7447 60.7093 98.8509 60.5818C98.9571 60.4491 99.0102 60.2898 99.0102 60.104C99.0102 59.9341 98.9545 59.7827 98.843 59.65C98.7315 59.512 98.5217 59.4084 98.2138 59.3394L96.9793 59.0607C96.6555 58.9863 96.3926 58.8854 96.1909 58.758C95.9944 58.6253 95.8511 58.4713 95.7608 58.2961C95.6759 58.1156 95.6334 57.9218 95.6334 57.7147C95.6334 57.4333 95.7104 57.1758 95.8644 56.9422C96.0236 56.7033 96.2493 56.5121 96.5413 56.3688C96.8386 56.2254 97.1891 56.1537 97.5926 56.1537ZM103.135 58.9173C103.135 58.62 103.055 58.3917 102.896 58.2324C102.736 58.0678 102.511 57.9855 102.219 57.9855C101.943 57.9855 101.709 58.0466 101.518 58.1687C101.327 58.2855 101.186 58.4766 101.096 58.7421L100.578 58.4235C100.684 58.1262 100.881 57.8873 101.167 57.7067C101.454 57.5209 101.81 57.428 102.235 57.428C102.521 57.428 102.781 57.4784 103.015 57.5793C103.249 57.6749 103.432 57.8236 103.565 58.0253C103.703 58.2218 103.772 58.4766 103.772 58.7899V60.7172C103.772 60.9084 103.873 61.0039 104.074 61.0039C104.175 61.0039 104.273 60.9907 104.369 60.9641L104.337 61.4659C104.231 61.5189 104.093 61.5455 103.923 61.5455C103.769 61.5455 103.631 61.5163 103.509 61.4579C103.387 61.3995 103.291 61.3119 103.222 61.1951C103.153 61.073 103.119 60.9216 103.119 60.7411V60.6615L103.278 60.6854C103.214 60.8924 103.105 61.0623 102.951 61.1951C102.797 61.3225 102.625 61.4181 102.434 61.4818C102.243 61.5402 102.054 61.5694 101.868 61.5694C101.635 61.5694 101.417 61.5296 101.215 61.4499C101.013 61.3703 100.851 61.2508 100.729 61.0915C100.613 60.9269 100.554 60.7252 100.554 60.4863C100.554 60.1889 100.652 59.9447 100.849 59.7535C101.051 59.5571 101.329 59.4244 101.685 59.3553L103.262 59.0447V59.5704L101.98 59.8332C101.72 59.8863 101.526 59.9606 101.398 60.0562C101.271 60.1518 101.207 60.2845 101.207 60.4544C101.207 60.619 101.271 60.7544 101.398 60.8606C101.531 60.9615 101.717 61.0119 101.956 61.0119C102.11 61.0119 102.256 60.9933 102.394 60.9561C102.537 60.9137 102.665 60.8526 102.776 60.773C102.888 60.688 102.975 60.5845 103.039 60.4624C103.103 60.3349 103.135 60.1863 103.135 60.0164V58.9173ZM106.898 55.636C107.036 55.636 107.166 55.652 107.288 55.6838C107.41 55.7157 107.506 55.7608 107.575 55.8192L107.408 56.3369C107.344 56.2944 107.275 56.2652 107.2 56.2493C107.126 56.2281 107.044 56.2174 106.954 56.2174C106.725 56.2174 106.547 56.2732 106.42 56.3847C106.293 56.4909 106.229 56.6634 106.229 56.9024V57.5076V57.7147V61.4897H105.592V56.8386C105.592 56.6634 105.618 56.5015 105.671 56.3528C105.724 56.2042 105.804 56.0767 105.91 55.9705C106.022 55.8644 106.16 55.7821 106.324 55.7237C106.489 55.6653 106.68 55.636 106.898 55.636ZM107.559 57.5076V58.0572H104.795V57.5076H107.559ZM109.963 61.5694C109.586 61.5694 109.249 61.4871 108.952 61.3225C108.66 61.1579 108.432 60.9216 108.267 60.6137C108.102 60.3004 108.02 59.9288 108.02 59.4987C108.02 59.0686 108.102 58.6996 108.267 58.3917C108.432 58.0784 108.657 57.8395 108.944 57.6749C109.231 57.5103 109.557 57.428 109.923 57.428C110.295 57.428 110.611 57.5076 110.871 57.6669C111.137 57.8262 111.338 58.0439 111.477 58.32C111.615 58.5908 111.684 58.8961 111.684 59.2359C111.684 59.3261 111.681 59.4084 111.676 59.4828C111.67 59.5571 111.662 59.6235 111.652 59.6819H108.434V59.1164H111.373L111.046 59.1801C111.046 58.7978 110.94 58.5032 110.728 58.2961C110.521 58.089 110.247 57.9855 109.908 57.9855C109.647 57.9855 109.422 58.0466 109.231 58.1687C109.045 58.2855 108.899 58.458 108.793 58.6863C108.692 58.9093 108.641 59.1801 108.641 59.4987C108.641 59.812 108.694 60.0827 108.801 60.311C108.907 60.5393 109.055 60.7146 109.247 60.8367C109.443 60.9535 109.677 61.0119 109.947 61.0119C110.239 61.0119 110.476 60.9561 110.656 60.8446C110.842 60.7331 110.991 60.5818 111.102 60.3907L111.604 60.6854C111.503 60.8659 111.373 61.0225 111.214 61.1552C111.06 61.288 110.877 61.3915 110.664 61.4659C110.457 61.5349 110.223 61.5694 109.963 61.5694ZM113.718 56.3767V60.3907C113.718 60.5871 113.774 60.7331 113.886 60.8287C113.997 60.9243 114.141 60.9721 114.316 60.9721C114.47 60.9721 114.602 60.9455 114.714 60.8924C114.825 60.8393 114.926 60.7677 115.017 60.6774L115.24 61.211C115.117 61.3225 114.971 61.4101 114.802 61.4738C114.637 61.5375 114.446 61.5694 114.228 61.5694C114.026 61.5694 113.838 61.5349 113.663 61.4659C113.487 61.3915 113.347 61.2774 113.241 61.1234C113.14 60.9641 113.087 60.757 113.081 60.5022V56.5519L113.718 56.3767ZM115.168 57.5076V58.0572H112.285V57.5076H115.168ZM119.389 57.5076L117.517 62.1587C117.416 62.4189 117.305 62.6233 117.182 62.772C117.066 62.926 116.933 63.0348 116.784 63.0985C116.641 63.1675 116.474 63.2021 116.282 63.2021C116.102 63.2021 115.935 63.1755 115.781 63.1224C115.632 63.0746 115.499 63.0083 115.383 62.9233L115.558 62.3658C115.664 62.4614 115.775 62.5304 115.892 62.5729C116.014 62.6207 116.134 62.6446 116.251 62.6446C116.389 62.6446 116.519 62.6021 116.641 62.5171C116.763 62.4322 116.874 62.2596 116.975 61.9995L117.182 61.4818L116.784 60.534L115.518 57.5076H116.243L117.238 60.104L117.485 60.8128L117.772 60.0243L118.704 57.5076H119.389ZM126.724 61.4897H126.047L125.489 60.0323H123.108L122.55 61.4897H121.881L123.928 56.2334H124.685L126.724 61.4897ZM123.339 59.435H125.258L124.295 56.8466L123.339 59.435ZM127.673 61.4897V57.5076H128.23L128.286 58.3996L128.182 58.312C128.267 58.0996 128.381 57.9297 128.525 57.8023C128.668 57.6696 128.833 57.574 129.019 57.5156C129.21 57.4572 129.406 57.428 129.608 57.428C129.895 57.428 130.155 57.4837 130.388 57.5952C130.622 57.7014 130.808 57.866 130.946 58.089C131.089 58.312 131.161 58.5961 131.161 58.9412V61.4897H130.524V59.1642C130.524 58.7235 130.428 58.4182 130.237 58.2483C130.051 58.0731 129.82 57.9855 129.544 57.9855C129.353 57.9855 129.162 58.0306 128.971 58.1209C128.78 58.2111 128.62 58.3572 128.493 58.5589C128.371 58.7607 128.31 59.0315 128.31 59.3713V61.4897H127.673ZM134.157 61.5694C133.827 61.5694 133.525 61.4871 133.249 61.3225C132.973 61.1579 132.752 60.9216 132.588 60.6137C132.423 60.3004 132.341 59.9288 132.341 59.4987C132.341 59.058 132.428 58.6837 132.604 58.3757C132.779 58.0678 133.01 57.8342 133.297 57.6749C133.583 57.5103 133.891 57.428 134.22 57.428C134.55 57.428 134.834 57.5129 135.073 57.6829C135.317 57.8528 135.479 58.0784 135.558 58.3598L135.479 58.4156V55.6759H136.116V61.4897H135.558L135.503 60.5261L135.59 60.4783C135.553 60.7119 135.463 60.911 135.319 61.0756C135.181 61.2349 135.009 61.357 134.802 61.442C134.6 61.5269 134.385 61.5694 134.157 61.5694ZM134.22 61.0119C134.475 61.0119 134.696 60.9482 134.881 60.8208C135.073 60.6933 135.219 60.5128 135.319 60.2792C135.426 60.0403 135.479 59.7615 135.479 59.4429C135.479 59.1403 135.426 58.8801 135.319 58.6625C135.219 58.4448 135.075 58.2775 134.889 58.1607C134.709 58.0439 134.496 57.9855 134.252 57.9855C133.849 57.9855 133.535 58.1235 133.312 58.3996C133.089 58.6757 132.978 59.0421 132.978 59.4987C132.978 59.9553 133.087 60.3217 133.304 60.5978C133.522 60.8738 133.827 61.0119 134.22 61.0119ZM142.119 56.1537C142.581 56.1537 142.979 56.2493 143.314 56.4404C143.648 56.6263 143.927 56.9024 144.15 57.2687L143.616 57.6829C143.42 57.343 143.197 57.1041 142.947 56.9661C142.703 56.8227 142.406 56.751 142.055 56.751C141.774 56.751 141.54 56.7909 141.355 56.8705C141.174 56.9501 141.041 57.0563 140.956 57.1891C140.871 57.3165 140.829 57.4625 140.829 57.6271C140.829 57.8129 140.887 57.9775 141.004 58.1209C141.121 58.2589 141.355 58.3678 141.705 58.4474L142.844 58.7023C143.348 58.8138 143.699 58.9837 143.895 59.212C144.097 59.435 144.198 59.7137 144.198 60.0482C144.198 60.3456 144.113 60.611 143.943 60.8446C143.778 61.073 143.545 61.2508 143.242 61.3782C142.939 61.5057 142.584 61.5694 142.175 61.5694C141.793 61.5694 141.455 61.5189 141.163 61.4181C140.877 61.3119 140.63 61.1712 140.423 60.996C140.216 60.8208 140.046 60.6243 139.913 60.4066L140.47 59.9527C140.571 60.1544 140.701 60.3323 140.861 60.4863C141.02 60.6402 141.211 60.7597 141.434 60.8446C141.662 60.9296 141.923 60.9721 142.215 60.9721C142.485 60.9721 142.719 60.9402 142.915 60.8765C143.117 60.8075 143.271 60.7093 143.377 60.5818C143.484 60.4491 143.537 60.2898 143.537 60.104C143.537 59.9341 143.481 59.7827 143.369 59.65C143.258 59.512 143.048 59.4084 142.74 59.3394L141.506 59.0607C141.182 58.9863 140.919 58.8854 140.717 58.758C140.521 58.6253 140.378 58.4713 140.287 58.2961C140.202 58.1156 140.16 57.9218 140.16 57.7147C140.16 57.4333 140.237 57.1758 140.391 56.9422C140.55 56.7033 140.776 56.5121 141.068 56.3688C141.365 56.2254 141.716 56.1537 142.119 56.1537ZM147.078 61.5694C146.701 61.5694 146.364 61.4871 146.066 61.3225C145.774 61.1579 145.546 60.9216 145.381 60.6137C145.217 60.3004 145.135 59.9288 145.135 59.4987C145.135 59.0686 145.217 58.6996 145.381 58.3917C145.546 58.0784 145.772 57.8395 146.058 57.6749C146.345 57.5103 146.672 57.428 147.038 57.428C147.41 57.428 147.726 57.5076 147.986 57.6669C148.251 57.8262 148.453 58.0439 148.591 58.32C148.729 58.5908 148.798 58.8961 148.798 59.2359C148.798 59.3261 148.795 59.4084 148.79 59.4828C148.785 59.5571 148.777 59.6235 148.766 59.6819H145.549V59.1164H148.487L148.161 59.1801C148.161 58.7978 148.055 58.5032 147.842 58.2961C147.635 58.089 147.362 57.9855 147.022 57.9855C146.762 57.9855 146.536 58.0466 146.345 58.1687C146.159 58.2855 146.013 58.458 145.907 58.6863C145.806 58.9093 145.756 59.1801 145.756 59.4987C145.756 59.812 145.809 60.0827 145.915 60.311C146.021 60.5393 146.17 60.7146 146.361 60.8367C146.557 60.9535 146.791 61.0119 147.062 61.0119C147.354 61.0119 147.59 60.9561 147.771 60.8446C147.957 60.7331 148.105 60.5818 148.217 60.3907L148.718 60.6854C148.618 60.8659 148.487 61.0225 148.328 61.1552C148.174 61.288 147.991 61.3915 147.779 61.4659C147.572 61.5349 147.338 61.5694 147.078 61.5694ZM151.658 57.428C151.934 57.428 152.176 57.4705 152.383 57.5554C152.596 57.6404 152.779 57.7625 152.933 57.9218C153.087 58.0811 153.211 58.2695 153.307 58.4872L152.702 58.7739C152.617 58.5191 152.487 58.3253 152.311 58.1926C152.142 58.0545 151.919 57.9855 151.642 57.9855C151.377 57.9855 151.149 58.0466 150.958 58.1687C150.766 58.2855 150.62 58.458 150.52 58.6863C150.419 58.9093 150.368 59.1801 150.368 59.4987C150.368 59.812 150.419 60.0827 150.52 60.311C150.62 60.5393 150.766 60.7146 150.958 60.8367C151.149 60.9535 151.377 61.0119 151.642 61.0119C151.85 61.0119 152.027 60.98 152.176 60.9163C152.33 60.8526 152.455 60.7597 152.55 60.6376C152.651 60.5155 152.72 60.3668 152.757 60.1916L153.347 60.3986C153.257 60.6429 153.132 60.8526 152.972 61.0278C152.819 61.203 152.63 61.3384 152.407 61.434C152.189 61.5243 151.94 61.5694 151.658 61.5694C151.287 61.5694 150.955 61.4871 150.663 61.3225C150.371 61.1579 150.143 60.9216 149.978 60.6137C149.813 60.3004 149.731 59.9288 149.731 59.4987C149.731 59.0686 149.813 58.6996 149.978 58.3917C150.143 58.0784 150.371 57.8395 150.663 57.6749C150.955 57.5103 151.287 57.428 151.658 57.428ZM155.908 61.5694C155.653 61.5694 155.411 61.5216 155.183 61.426C154.96 61.3305 154.777 61.1765 154.634 60.9641C154.496 60.7464 154.427 60.465 154.427 60.1199V57.5076H155.064V59.9527C155.064 60.3562 155.151 60.6349 155.326 60.7889C155.502 60.9376 155.749 61.0119 156.067 61.0119C156.216 61.0119 156.362 60.988 156.505 60.9402C156.649 60.8871 156.776 60.8075 156.887 60.7013C157.004 60.5898 157.095 60.4491 157.158 60.2792C157.227 60.1093 157.262 59.9075 157.262 59.6739V57.5076H157.899V61.4897H157.341L157.302 60.8845C157.164 61.1234 156.975 61.2986 156.736 61.4101C156.503 61.5163 156.226 61.5694 155.908 61.5694ZM159.382 61.4897V57.5076H159.899L159.987 58.1607C160.099 57.9165 160.26 57.7333 160.473 57.6112C160.691 57.4891 160.953 57.428 161.261 57.428C161.33 57.428 161.405 57.4333 161.484 57.4439C161.569 57.4545 161.641 57.4758 161.699 57.5076L161.588 58.089C161.529 58.0678 161.466 58.0519 161.397 58.0412C161.328 58.0306 161.229 58.0253 161.102 58.0253C160.937 58.0253 160.77 58.0731 160.6 58.1687C160.436 58.2642 160.298 58.4103 160.186 58.6067C160.075 58.7978 160.019 59.0421 160.019 59.3394V61.4897H159.382ZM162.951 56.7431C162.808 56.7431 162.691 56.7006 162.601 56.6156C162.516 56.5254 162.473 56.4086 162.473 56.2652C162.473 56.1219 162.516 56.0077 162.601 55.9228C162.691 55.8325 162.808 55.7874 162.951 55.7874C163.095 55.7874 163.209 55.8325 163.294 55.9228C163.384 56.0077 163.429 56.1219 163.429 56.2652C163.429 56.4086 163.384 56.5254 163.294 56.6156C163.209 56.7006 163.095 56.7431 162.951 56.7431ZM163.27 57.5076V61.4897H162.633V57.5076H163.27ZM165.688 56.3767V60.3907C165.688 60.5871 165.744 60.7331 165.855 60.8287C165.967 60.9243 166.11 60.9721 166.285 60.9721C166.439 60.9721 166.572 60.9455 166.684 60.8924C166.795 60.8393 166.896 60.7677 166.986 60.6774L167.209 61.211C167.087 61.3225 166.941 61.4101 166.771 61.4738C166.607 61.5375 166.415 61.5694 166.198 61.5694C165.996 61.5694 165.808 61.5349 165.632 61.4659C165.457 61.3915 165.316 61.2774 165.21 61.1234C165.109 60.9641 165.056 60.757 165.051 60.5022V56.5519L165.688 56.3767ZM167.138 57.5076V58.0572H164.254V57.5076H167.138ZM171.358 57.5076L169.487 62.1587C169.386 62.4189 169.274 62.6233 169.152 62.772C169.035 62.926 168.902 63.0348 168.754 63.0985C168.61 63.1675 168.443 63.2021 168.252 63.2021C168.072 63.2021 167.904 63.1755 167.75 63.1224C167.602 63.0746 167.469 63.0083 167.352 62.9233L167.527 62.3658C167.634 62.4614 167.745 62.5304 167.862 62.5729C167.984 62.6207 168.103 62.6446 168.22 62.6446C168.358 62.6446 168.488 62.6021 168.61 62.5171C168.733 62.4322 168.844 62.2596 168.945 61.9995L169.152 61.4818L168.754 60.534L167.488 57.5076H168.212L169.208 60.104L169.455 60.8128L169.741 60.0243L170.673 57.5076H171.358ZM176.766 56.2334C177.143 56.2334 177.467 56.2997 177.738 56.4325C178.014 56.5652 178.229 56.7537 178.383 56.9979C178.537 57.2422 178.614 57.5368 178.614 57.882C178.614 58.2218 178.537 58.5164 178.383 58.766C178.229 59.0102 178.014 59.1987 177.738 59.3314C177.467 59.4642 177.143 59.5305 176.766 59.5305H175.596V61.4897H174.743V56.2334H176.766ZM176.631 58.7978C177.008 58.7978 177.284 58.7209 177.459 58.5669C177.64 58.4076 177.73 58.1793 177.73 57.882C177.73 57.5793 177.64 57.351 177.459 57.197C177.284 57.0378 177.008 56.9581 176.631 56.9581H175.596V58.7978H176.631ZM181.26 57.428C181.647 57.428 181.99 57.5103 182.287 57.6749C182.584 57.8395 182.815 58.0784 182.98 58.3917C183.15 58.6996 183.235 59.0686 183.235 59.4987C183.235 59.9288 183.15 60.3004 182.98 60.6137C182.815 60.9216 182.584 61.1579 182.287 61.3225C181.99 61.4871 181.647 61.5694 181.26 61.5694C180.872 61.5694 180.53 61.4871 180.232 61.3225C179.935 61.1579 179.701 60.9216 179.532 60.6137C179.362 60.3004 179.277 59.9288 179.277 59.4987C179.277 59.0686 179.362 58.6996 179.532 58.3917C179.701 58.0784 179.935 57.8395 180.232 57.6749C180.53 57.5103 180.872 57.428 181.26 57.428ZM181.26 58.097C181.021 58.097 180.816 58.1527 180.647 58.2642C180.482 58.3704 180.354 58.5271 180.264 58.7341C180.174 58.9412 180.129 59.1961 180.129 59.4987C180.129 59.796 180.174 60.0509 180.264 60.2633C180.354 60.4703 180.482 60.6296 180.647 60.7411C180.816 60.8473 181.021 60.9004 181.26 60.9004C181.499 60.9004 181.7 60.8473 181.865 60.7411C182.03 60.6296 182.157 60.4703 182.247 60.2633C182.338 60.0509 182.383 59.796 182.383 59.4987C182.383 59.1961 182.338 58.9412 182.247 58.7341C182.157 58.5271 182.03 58.3704 181.865 58.2642C181.7 58.1527 181.499 58.097 181.26 58.097ZM189.256 57.5076H190.179L188.841 61.4897H187.91L186.906 58.535L185.958 61.4897H185.027L183.696 57.5076H184.612L185.52 60.6535L186.508 57.5076H187.36L188.348 60.6535L189.256 57.5076ZM192.639 61.5694C192.241 61.5694 191.89 61.4871 191.588 61.3225C191.285 61.1579 191.049 60.9216 190.879 60.6137C190.714 60.3004 190.632 59.9288 190.632 59.4987C190.632 59.0686 190.714 58.6996 190.879 58.3917C191.049 58.0784 191.282 57.8395 191.58 57.6749C191.877 57.5103 192.214 57.428 192.591 57.428C192.979 57.428 193.308 57.5076 193.579 57.6669C193.849 57.8262 194.057 58.0439 194.2 58.32C194.343 58.5961 194.415 58.9093 194.415 59.2598C194.415 59.3553 194.412 59.4456 194.407 59.5305C194.402 59.6155 194.394 59.6898 194.383 59.7535H191.181V59.1005H194.009L193.587 59.2279C193.587 58.8669 193.496 58.5908 193.316 58.3996C193.135 58.2032 192.888 58.105 192.575 58.105C192.347 58.105 192.148 58.1581 191.978 58.2642C191.808 58.3704 191.678 58.5297 191.588 58.7421C191.497 58.9492 191.452 59.204 191.452 59.5067C191.452 59.804 191.5 60.0562 191.596 60.2633C191.691 60.4703 191.827 60.627 192.002 60.7331C192.177 60.8393 192.384 60.8924 192.623 60.8924C192.888 60.8924 193.103 60.842 193.268 60.7411C193.433 60.6402 193.563 60.4995 193.658 60.319L194.335 60.6376C194.24 60.8287 194.11 60.996 193.945 61.1393C193.786 61.2774 193.595 61.3836 193.372 61.4579C193.149 61.5322 192.904 61.5694 192.639 61.5694ZM195.491 61.4897V57.5076H196.216L196.295 58.2244C196.402 57.9643 196.558 57.7678 196.765 57.6351C196.978 57.497 197.238 57.428 197.546 57.428C197.625 57.428 197.705 57.436 197.785 57.4519C197.864 57.4625 197.931 57.4811 197.984 57.5076L197.864 58.2563C197.806 58.235 197.74 58.2191 197.665 58.2085C197.596 58.1926 197.501 58.1846 197.379 58.1846C197.214 58.1846 197.052 58.2297 196.893 58.32C196.733 58.4049 196.601 58.535 196.495 58.7102C196.394 58.8854 196.343 59.1084 196.343 59.3792V61.4897H195.491ZM200.44 61.5694C200.042 61.5694 199.691 61.4871 199.388 61.3225C199.086 61.1579 198.85 60.9216 198.68 60.6137C198.515 60.3004 198.433 59.9288 198.433 59.4987C198.433 59.0686 198.515 58.6996 198.68 58.3917C198.85 58.0784 199.083 57.8395 199.381 57.6749C199.678 57.5103 200.015 57.428 200.392 57.428C200.78 57.428 201.109 57.5076 201.38 57.6669C201.65 57.8262 201.857 58.0439 202.001 58.32C202.144 58.5961 202.216 58.9093 202.216 59.2598C202.216 59.3553 202.213 59.4456 202.208 59.5305C202.202 59.6155 202.195 59.6898 202.184 59.7535H198.982V59.1005H201.81L201.387 59.2279C201.387 58.8669 201.297 58.5908 201.117 58.3996C200.936 58.2032 200.689 58.105 200.376 58.105C200.148 58.105 199.949 58.1581 199.779 58.2642C199.609 58.3704 199.479 58.5297 199.388 58.7421C199.298 58.9492 199.253 59.204 199.253 59.5067C199.253 59.804 199.301 60.0562 199.396 60.2633C199.492 60.4703 199.627 60.627 199.803 60.7331C199.978 60.8393 200.185 60.8924 200.424 60.8924C200.689 60.8924 200.904 60.842 201.069 60.7411C201.234 60.6402 201.364 60.4995 201.459 60.319L202.136 60.6376C202.041 60.8287 201.91 60.996 201.746 61.1393C201.587 61.2774 201.395 61.3836 201.172 61.4579C200.949 61.5322 200.705 61.5694 200.44 61.5694ZM204.821 61.5694C204.492 61.5694 204.192 61.4871 203.921 61.3225C203.656 61.1579 203.446 60.9216 203.292 60.6137C203.138 60.3057 203.061 59.9367 203.061 59.5067C203.061 59.0607 203.143 58.6837 203.308 58.3757C203.472 58.0678 203.693 57.8342 203.969 57.6749C204.245 57.5103 204.548 57.428 204.877 57.428C205.217 57.428 205.503 57.5209 205.737 57.7067C205.971 57.8926 206.127 58.1342 206.207 58.4315L206.111 58.5191V55.7157H206.963V61.4897H206.207L206.143 60.4066L206.255 60.4146C206.217 60.6535 206.13 60.8606 205.992 61.0358C205.854 61.2057 205.681 61.3384 205.474 61.434C205.272 61.5243 205.055 61.5694 204.821 61.5694ZM205.004 60.8845C205.233 60.8845 205.429 60.8261 205.594 60.7093C205.758 60.5924 205.886 60.4279 205.976 60.2155C206.066 60.0031 206.111 59.7482 206.111 59.4509C206.111 59.1748 206.066 58.9385 205.976 58.7421C205.886 58.5403 205.758 58.3864 205.594 58.2802C205.434 58.174 205.248 58.1209 205.036 58.1209C204.68 58.1209 204.404 58.243 204.208 58.4872C204.011 58.7315 203.913 59.0686 203.913 59.4987C203.913 59.9288 204.009 60.2686 204.2 60.5181C204.391 60.7623 204.659 60.8845 205.004 60.8845ZM210.995 61.4897V56.2334H213.065C213.697 56.2334 214.159 56.3608 214.451 56.6156C214.743 56.8705 214.889 57.2236 214.889 57.6749C214.889 57.951 214.809 58.1979 214.65 58.4156C214.491 58.6279 214.257 58.7633 213.949 58.8217V58.8297C214.289 58.8828 214.552 59.0235 214.738 59.2518C214.929 59.4748 215.024 59.735 215.024 60.0323C215.024 60.4836 214.86 60.8393 214.531 61.0995C214.201 61.3597 213.724 61.4897 213.097 61.4897H210.995ZM211.831 60.7809H213.137C213.471 60.7809 213.721 60.7119 213.886 60.5739C214.055 60.4358 214.14 60.242 214.14 59.9925C214.14 59.7429 214.055 59.5491 213.886 59.4111C213.721 59.273 213.471 59.204 213.137 59.204H211.831V60.7809ZM211.831 58.4952H213.002C213.671 58.4952 214.005 58.2377 214.005 57.7227C214.005 57.2077 213.671 56.9501 213.002 56.9501H211.831V58.4952ZM219.645 57.5076L217.9 61.9596C217.784 62.2676 217.656 62.5118 217.518 62.6923C217.385 62.8729 217.231 63.0029 217.056 63.0826C216.881 63.1622 216.677 63.2021 216.443 63.2021C216.252 63.2021 216.074 63.1755 215.909 63.1224C215.75 63.0746 215.609 63.0083 215.487 62.9233L215.694 62.2623C215.795 62.3472 215.901 62.4109 216.013 62.4534C216.13 62.4959 216.254 62.5171 216.387 62.5171C216.531 62.5171 216.658 62.4773 216.769 62.3977C216.886 62.3233 216.99 62.172 217.08 61.9437L217.255 61.5136L216.833 60.5261L215.591 57.5076H216.546L217.43 60.0084L217.661 60.757L217.924 59.9367L218.761 57.5076H219.645ZM226.979 61.4897H226.079L225.577 60.1119H223.371L222.869 61.4897H221.993L223.976 56.2334H224.995L226.979 61.4897ZM223.61 59.4191H225.338L224.478 56.9661L223.61 59.4191ZM228.763 56.2334V61.4897H227.911V56.2334H228.763Z" fill="black"/>
<path d="M175.395 53.499H172.883V56.0114" stroke="black" stroke-width="0.396685" stroke-linecap="round"/>
<path d="M175.395 65.0039H172.883V62.4916" stroke="black" stroke-width="0.396685" stroke-linecap="round"/>
<path d="M228.824 53.499H231.336V56.0114" stroke="black" stroke-width="0.396685" stroke-linecap="round"/>
<path d="M228.824 65.0039H231.336V62.4916" stroke="black" stroke-width="0.396685" stroke-linecap="round"/>
</svg>
