<svg width="34" height="34" viewBox="0 0 34 34" fill="none" xmlns="http://www.w3.org/2000/svg">
<path d="M21.1646 15.9386L15.6474 21.4558L12.8887 18.6972M5.99219 23.9387V16.5622C5.99219 15.8252 5.99219 15.4565 6.0818 15.1136C6.16122 14.8096 6.29259 14.522 6.46902 14.2621C6.66811 13.9688 6.9448 13.7256 7.49946 13.2403L14.1223 7.44529C15.1506 6.54556 15.6648 6.09568 16.2438 5.92444C16.7544 5.77344 17.2987 5.77344 17.8093 5.92444C18.3888 6.09581 18.9037 6.54612 19.9335 7.4472L26.5542 13.2403C27.1088 13.7256 27.3856 13.9688 27.5847 14.2621C27.7611 14.522 27.8915 14.8096 27.9709 15.1136C28.0605 15.4565 28.0612 15.8252 28.0612 16.5622V23.9435C28.0612 25.4855 28.0612 26.2573 27.7608 26.8468C27.4963 27.3659 27.0732 27.7875 26.5541 28.052C25.9646 28.3524 25.1936 28.3524 23.6516 28.3524H10.4017C8.85977 28.3524 8.08764 28.3524 7.49811 28.052C6.97905 27.7875 6.55734 27.3659 6.29286 26.8468C5.99219 26.2567 5.99219 25.4837 5.99219 23.9387Z" stroke="black" stroke-width="1.7734" stroke-linecap="round" stroke-linejoin="round"/>
</svg>
