<svg width="101" height="80" viewBox="0 0 101 80" fill="none" xmlns="http://www.w3.org/2000/svg">
<g clip-path="url(#clip0_9363_97106)">
<path d="M79.3141 37.7648L59.6141 17.9648C58.6141 16.9648 57.1141 16.9648 56.1141 17.9648C55.1141 18.9648 55.1141 20.4648 56.1141 21.4648L71.7141 37.0648H47.4141C46.0141 37.0648 44.9141 38.1648 44.9141 39.5648C44.9141 40.9648 46.0141 42.0648 47.4141 42.0648H71.7141L56.1141 57.4648C55.2141 58.3648 55.1141 59.9648 56.1141 60.8648C57.1141 61.8648 58.7141 61.8648 59.7141 60.8648L79.3141 41.1648C79.8141 40.6648 80.0141 40.0648 80.0141 39.4648C80.0141 38.8648 79.8141 38.1648 79.3141 37.7648Z" fill="#212121"/>
<path d="M39.2109 42.2461C40.5916 42.2461 41.7109 41.1268 41.7109 39.7461C41.7109 38.3654 40.5916 37.2461 39.2109 37.2461C37.8302 37.2461 36.7109 38.3654 36.7109 39.7461C36.7109 41.1268 37.8302 42.2461 39.2109 42.2461Z" fill="#212121"/>
<path d="M31.0859 42.2461C32.4666 42.2461 33.5859 41.1268 33.5859 39.7461C33.5859 38.3654 32.4666 37.2461 31.0859 37.2461C29.7052 37.2461 28.5859 38.3654 28.5859 39.7461C28.5859 41.1268 29.7052 42.2461 31.0859 42.2461Z" fill="#212121"/>
<path d="M23 42.2461C24.3807 42.2461 25.5 41.1268 25.5 39.7461C25.5 38.3654 24.3807 37.2461 23 37.2461C21.6193 37.2461 20.5 38.3654 20.5 39.7461C20.5 41.1268 21.6193 42.2461 23 42.2461Z" fill="#212121"/>
</g>
<defs>
<clipPath id="clip0_9363_97106">
<rect width="100" height="79" fill="white" transform="translate(0.5 0.183594)"/>
</clipPath>
</defs>
</svg>
