<svg width="34" height="27" viewBox="0 0 34 27" fill="none" xmlns="http://www.w3.org/2000/svg">
<g clip-path="url(#clip0_9363_97793)">
<path d="M26.4347 12.7904L20.0385 6.36168C19.7138 6.03699 19.2268 6.03699 18.9021 6.36168C18.5774 6.68636 18.5774 7.17339 18.9021 7.49807L23.9671 12.5631H16.0773C15.6228 12.5631 15.2656 12.9203 15.2656 13.3748C15.2656 13.8294 15.6228 14.1866 16.0773 14.1866H23.9671L18.9021 19.1867C18.6099 19.4789 18.5774 19.9984 18.9021 20.2906C19.2268 20.6153 19.7463 20.6153 20.0709 20.2906L26.4347 13.8943C26.5971 13.732 26.662 13.5372 26.662 13.3424C26.662 13.1476 26.5971 12.9203 26.4347 12.7904Z" fill="#212121"/>
<path d="M13.4055 14.2494C13.8538 14.2494 14.2172 13.886 14.2172 13.4377C14.2172 12.9894 13.8538 12.626 13.4055 12.626C12.9572 12.626 12.5938 12.9894 12.5938 13.4377C12.5938 13.886 12.9572 14.2494 13.4055 14.2494Z" fill="#212121"/>
<path d="M10.7726 14.2494C11.2209 14.2494 11.5844 13.886 11.5844 13.4377C11.5844 12.9894 11.2209 12.626 10.7726 12.626C10.3244 12.626 9.96094 12.9894 9.96094 13.4377C9.96094 13.886 10.3244 14.2494 10.7726 14.2494Z" fill="#212121"/>
<path d="M8.14765 14.2494C8.59594 14.2494 8.95936 13.886 8.95936 13.4377C8.95936 12.9894 8.59594 12.626 8.14765 12.626C7.69935 12.626 7.33594 12.9894 7.33594 13.4377C7.33594 13.886 7.69935 14.2494 8.14765 14.2494Z" fill="#212121"/>
</g>
<defs>
<clipPath id="clip0_9363_97793">
<rect width="32.4684" height="25.65" fill="white" transform="translate(0.84375 0.586914)"/>
</clipPath>
</defs>
</svg>
