<svg width="32" height="27" viewBox="0 0 32 27" fill="none" xmlns="http://www.w3.org/2000/svg">
<g clip-path="url(#clip0_9363_97818)">
<path d="M25.0945 13.0612L18.9781 6.63243C18.6676 6.30775 18.2019 6.30775 17.8914 6.63243C17.5809 6.95711 17.5809 7.44414 17.8914 7.76882L22.7349 12.8339H15.1903C14.7556 12.8339 14.4141 13.191 14.4141 13.6456C14.4141 14.1001 14.7556 14.4573 15.1903 14.4573H22.7349L17.8914 19.4574C17.612 19.7496 17.5809 20.2691 17.8914 20.5614C18.2019 20.886 18.6987 20.886 19.0091 20.5614L25.0945 14.1651C25.2498 14.0027 25.3119 13.8079 25.3119 13.6131C25.3119 13.4183 25.2498 13.191 25.0945 13.0612Z" fill="#212121"/>
<path d="M12.6512 14.5162C13.0799 14.5162 13.4274 14.1528 13.4274 13.7045C13.4274 13.2562 13.0799 12.8928 12.6512 12.8928C12.2225 12.8928 11.875 13.2562 11.875 13.7045C11.875 14.1528 12.2225 14.5162 12.6512 14.5162Z" fill="#212121"/>
<path d="M10.1199 14.5162C10.5486 14.5162 10.8961 14.1528 10.8961 13.7045C10.8961 13.2562 10.5486 12.8928 10.1199 12.8928C9.69127 12.8928 9.34375 13.2562 9.34375 13.7045C9.34375 14.1528 9.69127 14.5162 10.1199 14.5162Z" fill="#212121"/>
<path d="M7.61213 14.5162C8.04082 14.5162 8.38833 14.1528 8.38833 13.7045C8.38833 13.2562 8.04082 12.8928 7.61213 12.8928C7.18345 12.8928 6.83594 13.2562 6.83594 13.7045C6.83594 14.1528 7.18345 14.5162 7.61213 14.5162Z" fill="#212121"/>
</g>
<defs>
<clipPath id="clip0_9363_97818">
<rect width="31.0479" height="25.65" fill="white" transform="translate(0.625 0.861572)"/>
</clipPath>
</defs>
</svg>
