<svg width="97" height="80" viewBox="0 0 97 80" fill="none" xmlns="http://www.w3.org/2000/svg">
<g clip-path="url(#clip0_9363_97131)">
<path d="M76.0044 37.7648L57.1663 17.9648C56.21 16.9648 54.7756 16.9648 53.8194 17.9648C52.8631 18.9648 52.8631 20.4648 53.8194 21.4648L68.7369 37.0648H45.5C44.1612 37.0648 43.1094 38.1648 43.1094 39.5648C43.1094 40.9648 44.1612 42.0648 45.5 42.0648H68.7369L53.8194 57.4648C52.9588 58.3648 52.8631 59.9648 53.8194 60.8648C54.7756 61.8648 56.3056 61.8648 57.2619 60.8648L76.0044 41.1648C76.4825 40.6648 76.6737 40.0648 76.6737 39.4648C76.6737 38.8648 76.4825 38.1648 76.0044 37.7648Z" fill="#212121"/>
<path d="M37.6562 42.2461C38.9766 42.2461 40.0469 41.1268 40.0469 39.7461C40.0469 38.3654 38.9766 37.2461 37.6562 37.2461C36.3359 37.2461 35.2656 38.3654 35.2656 39.7461C35.2656 41.1268 36.3359 42.2461 37.6562 42.2461Z" fill="#212121"/>
<path d="M29.8906 42.2461C31.2109 42.2461 32.2812 41.1268 32.2812 39.7461C32.2812 38.3654 31.2109 37.2461 29.8906 37.2461C28.5703 37.2461 27.5 38.3654 27.5 39.7461C27.5 41.1268 28.5703 42.2461 29.8906 42.2461Z" fill="#212121"/>
<path d="M22.1562 42.2461C23.4766 42.2461 24.5469 41.1268 24.5469 39.7461C24.5469 38.3654 23.4766 37.2461 22.1562 37.2461C20.8359 37.2461 19.7656 38.3654 19.7656 39.7461C19.7656 41.1268 20.8359 42.2461 22.1562 42.2461Z" fill="#212121"/>
</g>
<defs>
<clipPath id="clip0_9363_97131">
<rect width="95.625" height="79" fill="white" transform="translate(0.640625 0.183594)"/>
</clipPath>
</defs>
</svg>
