<svg width="46" height="47" viewBox="0 0 46 47" fill="none" xmlns="http://www.w3.org/2000/svg">
<rect y="0.545898" width="46" height="46" rx="23" fill="white"/>
<mask id="mask0_10383_26182" style="mask-type:luminance" maskUnits="userSpaceOnUse" x="9" y="10" width="27" height="28">
<path d="M9.32422 10.0459H35.8956V37.4745H9.32422V10.0459Z" fill="white"/>
</mask>
<g mask="url(#mask0_10383_26182)">
<path d="M23.3304 36.2921C23.6473 36.2921 23.9018 36.5466 23.9018 36.8635C23.9018 37.1537 23.6875 37.3948 23.4107 37.4305L23.3304 37.435H21.808C21.4955 37.435 21.2366 37.1805 21.2366 36.8635C21.2366 36.5733 21.4554 36.3323 21.7321 36.2966L21.808 36.2921H23.3304ZM24.8527 34.7608C25.1696 34.7608 25.4241 35.0198 25.4241 35.3367C25.4241 35.6269 25.2098 35.8635 24.933 35.9037L24.8527 35.9082H20.2857C19.9732 35.9082 19.7143 35.6537 19.7143 35.3367C19.7143 35.0466 19.9286 34.8055 20.2098 34.7653L20.2857 34.7608H24.8527ZM25.6161 33.2341C25.933 33.2341 26.1875 33.4885 26.1875 33.8055C26.1875 34.0957 25.9732 34.3367 25.692 34.3769L25.6161 34.3814H19.5268C19.2098 34.3814 18.9554 34.1225 18.9554 33.8055C18.9554 33.5153 19.1696 33.2787 19.4464 33.2385L19.5268 33.2341H25.6161ZM22.5714 15.6626C26.6696 15.6626 29.9955 18.9975 29.9955 23.1091C29.9955 24.868 28.9509 26.7653 26.9062 28.8278C26.4866 29.2564 26.2321 29.8189 26.192 30.4171L26.1875 30.5778V31.8992C26.1875 32.3903 25.8125 32.7966 25.3304 32.8457L25.2366 32.8501H19.9062C19.4152 32.8501 19.0089 32.4751 18.9598 31.993L18.9554 31.8948V30.5778C18.9554 29.926 18.6964 29.2966 18.2366 28.8278C16.192 26.7653 15.1473 24.868 15.1473 23.1091C15.1473 18.9975 18.4732 15.6626 22.5714 15.6626ZM15.7411 29.3278C15.942 29.5287 15.9598 29.8546 15.7902 30.0778L15.7411 30.1358L14.125 31.7564C13.9018 31.9796 13.5402 31.9796 13.317 31.7564C13.1116 31.551 13.0937 31.2296 13.2679 31.0064L13.317 30.9483L14.933 29.3278C15.1563 29.1001 15.5179 29.1001 15.7411 29.3278ZM30.2143 29.2742L30.2723 29.3278L31.8884 30.9483C32.1116 31.1716 32.1116 31.5332 31.8884 31.7564C31.683 31.9617 31.3661 31.9796 31.1384 31.81L31.0804 31.7564L29.4688 30.1358C29.2455 29.9126 29.2455 29.551 29.4688 29.3278C29.6696 29.1225 29.9911 29.1046 30.2143 29.2742ZM22.5714 16.8055C19.1027 16.8055 16.2902 19.6314 16.2902 23.1091C16.2902 24.5064 17.192 26.1537 19.0446 28.0198C19.6741 28.6582 20.0446 29.4975 20.0893 30.3903L20.0982 30.5778L20.0938 31.7073H25.0446V30.5778C25.0446 29.7475 25.3304 28.9483 25.8438 28.3055L25.9643 28.1626L26.0982 28.0198C27.9464 26.1537 28.8527 24.5064 28.8527 23.1091C28.8527 19.6314 26.0402 16.8055 22.5714 16.8055ZM12.3259 21.8635C12.6429 21.8635 12.8973 22.1225 12.8973 22.4394C12.8973 22.7296 12.683 22.9662 12.4018 23.0064L12.3259 23.0108H10.0402C9.72768 23.0108 9.46875 22.7519 9.46875 22.4394C9.46875 22.1492 9.6875 21.9082 9.96429 21.868L10.0402 21.8635H12.3259ZM35.1652 21.8635C35.4821 21.8635 35.7366 22.1225 35.7366 22.4394C35.7366 22.7296 35.5223 22.9662 35.2411 23.0064L35.1652 23.0108H32.8795C32.567 23.0108 32.308 22.7519 32.308 22.4394C32.308 22.1492 32.5268 21.9082 32.8036 21.868L32.8795 21.8635H35.1652ZM23.3304 17.9528C25.75 17.9528 27.7098 19.9216 27.7098 22.3457C27.7098 22.6626 27.4554 22.9216 27.1384 22.9216C26.8214 22.9216 26.567 22.6626 26.567 22.3457C26.567 20.5555 25.1205 19.1001 23.3304 19.1001C23.0179 19.1001 22.7589 18.8412 22.7589 18.5242C22.7589 18.2117 23.0179 17.9528 23.3304 17.9528ZM14.067 13.0689L14.125 13.118L15.7411 14.7385C15.9643 14.9617 15.9643 15.3233 15.7411 15.551C15.5357 15.7564 15.2143 15.7698 14.9911 15.6001L14.933 15.551L13.317 13.9305C13.0937 13.7028 13.0937 13.3412 13.317 13.118C13.5223 12.9126 13.8437 12.8948 14.067 13.0689ZM31.8884 13.118C32.0938 13.3233 32.1116 13.6448 31.942 13.868L31.8884 13.9305L30.2723 15.551C30.0536 15.7742 29.692 15.7742 29.4688 15.551C29.2634 15.3457 29.2455 15.0242 29.4152 14.7966L29.4688 14.7385L31.0804 13.118C31.3036 12.8948 31.6652 12.8948 31.8884 13.118ZM22.6027 10.0198C22.8929 10.0198 23.1295 10.2385 23.1696 10.5153L23.1741 10.5957V12.8858C23.1741 13.2028 22.9196 13.4617 22.6027 13.4617C22.3125 13.4617 22.0759 13.243 22.0357 12.9662L22.0313 12.8858V10.5957C22.0313 10.2787 22.2857 10.0198 22.6027 10.0198Z" fill="black"/>
</g>
<mask id="mask1_10383_26182" style="mask-type:luminance" maskUnits="userSpaceOnUse" x="9" y="9" width="28" height="27">
<path d="M9.49219 9.42822H36.0636V35.9996H9.49219V9.42822Z" fill="white"/>
</mask>
<g mask="url(#mask1_10383_26182)">
<path d="M35.8806 35.2415C36.0547 35.4156 36.0547 35.6923 35.8806 35.8665C35.7958 35.9513 35.6842 35.9959 35.5681 35.9959C35.4565 35.9959 35.3449 35.9513 35.26 35.8665L22.7734 23.3575L10.2913 35.8665C10.2065 35.9513 10.0949 35.9959 9.97879 35.9959C9.86719 35.9959 9.75558 35.9513 9.66629 35.8665C9.49665 35.6923 9.49665 35.4156 9.66629 35.2415L22.1529 22.7325L9.66629 10.2236C9.49665 10.054 9.49665 9.77271 9.66629 9.5986C9.8404 9.42449 10.1217 9.42449 10.2913 9.5986L22.7734 22.1075L35.26 9.5986C35.4297 9.42449 35.7109 9.42449 35.8806 9.5986C36.0547 9.77271 36.0547 10.054 35.8806 10.2236L23.3984 22.7325L35.8806 35.2415Z" fill="black"/>
</g>
</svg>
