<svg width="46" height="47" viewBox="0 0 46 47" fill="none" xmlns="http://www.w3.org/2000/svg">
<rect y="0.545898" width="46" height="46" rx="23" fill="white"/>
<g clip-path="url(#clip0_10383_26208)">
<path fill-rule="evenodd" clip-rule="evenodd" d="M19.4698 19.2667C19.0575 19.2667 19.0922 18.9846 19.1096 18.811L18.1851 14.0888C18.0983 13.6591 18.7493 13.5289 18.8361 13.9585L19.7953 18.8717C19.8344 19.0757 19.6781 19.2667 19.4698 19.2667ZM13.2936 19.2667C13.0853 19.2667 12.9247 19.0757 12.9681 18.8717L13.9273 13.9585C14.0141 13.5289 14.6608 13.6591 14.5783 14.0888L13.6538 18.811C13.6712 18.9802 13.7103 19.2667 13.2936 19.2667Z" fill="black"/>
<mask id="mask0_10383_26208" style="mask-type:luminance" maskUnits="userSpaceOnUse" x="11" y="17" width="11" height="7">
<path d="M11.3633 17.9902H21.385V23.5458H11.3633V17.9902Z" fill="white"/>
</mask>
<g mask="url(#mask0_10383_26208)">
<path fill-rule="evenodd" clip-rule="evenodd" d="M19.4136 22.5524H13.3416C12.2565 22.5524 11.3711 21.667 11.3711 20.5776C11.3711 19.4882 12.2565 18.6028 13.3416 18.6028H19.4136C20.4987 18.6028 21.3841 19.4882 21.3841 20.5776C21.3841 21.667 20.4987 22.5524 19.4136 22.5524ZM13.3416 19.2668C11.6185 19.2668 11.6185 21.8884 13.3416 21.8884H19.4136C21.1324 21.8884 21.1324 19.2668 19.4136 19.2668H13.3416Z" fill="black"/>
</g>
<path fill-rule="evenodd" clip-rule="evenodd" d="M22.8862 34.0367C16.4583 34.0367 11.4583 28.39 12.2265 21.975C12.2786 21.541 12.934 21.6235 12.8819 22.0532C11.9444 29.87 19.8697 35.6296 26.9183 32.5306C27.3177 32.357 27.5824 32.9646 27.1831 33.1382C25.8246 33.7372 24.3793 34.0367 22.8862 34.0367ZM31.7968 28.9933C31.5407 28.9933 31.3758 28.7155 31.5104 28.4898C35.5251 21.8275 30.7552 13.173 22.8862 13.173C19.6397 13.173 18.7239 14.5141 18.4288 13.837C18.355 13.6677 18.4331 13.4724 18.6024 13.3987C25.6163 10.3344 33.6197 15.482 33.6197 23.2728C33.6197 25.2389 33.0859 27.1617 32.0789 28.8327C32.0182 28.9368 31.9053 28.9933 31.7968 28.9933Z" fill="black"/>
<path fill-rule="evenodd" clip-rule="evenodd" d="M27.5303 19.0883C26.276 19.0883 27.1137 15.9156 26.7708 15.551C26.6189 15.3904 25.3819 16.2107 24.8958 13.1552C24.8264 12.7255 25.4774 12.6213 25.5468 13.051C25.638 13.6022 25.7942 14.084 25.9114 14.3921C26.2543 15.2819 26.7491 14.5571 27.2526 15.0996C27.8298 15.7159 27.2569 17.6647 27.5651 18.3982C27.6649 18.3375 27.921 18.1204 28.3984 17.3826C28.8368 16.6968 29.5486 16.1196 30.0694 15.6812C30.3646 15.4381 30.9158 15.8418 30.408 16.2628C29.9218 16.6708 29.3185 17.1743 28.954 17.7428C28.3507 18.676 27.921 19.0883 27.5303 19.0883Z" fill="black"/>
<path fill-rule="evenodd" clip-rule="evenodd" d="M17.8918 32.7609C17.5879 32.7609 17.4447 32.3833 17.6704 32.1837C19.2242 30.7991 18.5819 31.8799 19.3718 30.4042C18.2997 30.4042 18.5037 30.5517 18.0176 29.5448C17.4187 28.3122 17.0237 27.4918 15.6131 27.5873C13.8596 27.7002 13.7772 28.6724 13.3605 28.221C12.8657 27.6915 14.4109 26.997 15.5697 26.9233C17.6661 26.7887 18.1348 28.3295 18.851 29.7401C19.4022 29.7401 20.0532 29.6359 20.2095 29.9007C20.2702 30.0005 20.2746 30.1264 20.2182 30.2262C18.9334 32.6264 19.9187 31.0726 18.1088 32.6785C18.048 32.7349 17.9699 32.7609 17.8918 32.7609Z" fill="black"/>
<path fill-rule="evenodd" clip-rule="evenodd" d="M25.822 33.6152C25.2752 33.6152 25.3403 32.3522 25.7266 32.031L26.6771 31.2324C26.8377 31.0458 26.7812 30.4989 27.2109 30.577C27.7882 30.6769 27.276 31.6013 27.1415 31.7098L26.178 32.5171C25.9089 32.8079 26.434 33.6152 25.822 33.6152ZM26.0608 29.926C25.9957 29.926 25.9306 29.9043 25.8741 29.8652C25.2535 29.4355 24.4635 28.7541 24.1988 27.9251C23.5217 26.3062 24.5069 26.189 25.9523 24.6829C26.3689 24.2489 26.9245 24.4225 27.3368 24.939C27.7665 25.4816 28.5521 25.1213 28.5174 25.6725C28.4696 26.3192 27.1892 25.8375 26.8116 25.3427C26.5469 24.9954 26.4557 25.1213 26.421 25.156L24.8064 26.6708C24.4245 26.9746 24.8064 27.6343 24.8238 27.6994C24.98 28.2159 25.4835 28.7888 26.2474 29.3184C26.5165 29.505 26.3819 29.926 26.0608 29.926ZM30.1102 25.4642C29.7587 25.4642 29.6502 24.9737 29.9757 24.8305C30.9479 24.3878 31.651 23.9928 31.9505 23.7151C32.1719 23.5111 33.3003 23.3288 33.5087 24.7567C33.5694 25.1908 32.9141 25.2862 32.8533 24.8522C32.7882 24.3965 32.5582 24.1447 32.3411 24.2533C31.9635 24.5788 31.2604 24.9737 30.2448 25.4338C30.2014 25.4555 30.158 25.4642 30.1102 25.4642Z" fill="black"/>
<path fill-rule="evenodd" clip-rule="evenodd" d="M20.8656 27.6513C20.0844 27.6513 18.6911 26.9395 18.5306 26.7399C17.554 25.5246 19.5679 23.0072 19.8891 22.6253L20.6095 21.371C20.5227 21.1756 20.6616 20.7156 21.1955 21.0194C21.3517 21.1105 21.4082 21.3145 21.3127 21.4751L20.4142 23.0289C19.7589 23.8102 18.5783 25.6027 19.0167 26.2842C19.8717 26.7963 20.9351 27.1652 21.126 26.9092C21.5991 26.2668 22.4715 25.8675 22.784 25.7416L23.5089 24.5177C24.1859 23.8883 25.2623 23.4456 25.9828 23.2026C24.4767 22.0828 24.9889 20.3901 25.7311 19.3267C25.4142 18.6539 23.9516 18.272 23.4307 18.1895C23.2918 18.1678 23.179 18.0506 23.1573 17.9074C22.9924 16.7746 22.1156 15.963 20.9915 15.8805C20.8179 16.1192 20.3578 16.4664 19.1252 16.9135C18.7128 17.0611 18.4871 16.4361 18.8995 16.2885C21.113 15.4855 20.2406 15.2078 20.7962 15.2078C22.2458 15.2078 23.4568 16.1887 23.7693 17.5776C24.4333 17.7121 26.1651 18.1765 26.4212 19.3137C26.5123 19.7086 25.4186 20.4725 25.7137 21.7225C25.9872 22.8987 27.1807 22.7946 27.133 23.3284C27.12 23.4717 27.0201 23.5888 26.8812 23.6236C26.8639 23.6279 24.9455 24.1227 23.995 24.9734C23.7736 25.2425 23.396 26.2234 23.1269 26.3189C21.5253 26.9005 21.8378 27.6513 20.8656 27.6513Z" fill="black"/>
<mask id="mask1_10383_26208" style="mask-type:luminance" maskUnits="userSpaceOnUse" x="24" y="33" width="11" height="5">
<path d="M24.7227 33.5459H34.7227V37.5476H24.7227V33.5459Z" fill="white"/>
</mask>
<g mask="url(#mask1_10383_26208)">
<path fill-rule="evenodd" clip-rule="evenodd" d="M32.0816 37.5467H26.5521C25.6623 37.5467 24.9375 36.8175 24.9375 35.9278C24.9375 35.0337 25.6623 34.3088 26.5521 34.3088H32.0816C32.9714 34.3088 33.6962 35.0337 33.6962 35.9278C33.6962 36.8175 32.9714 37.5467 32.0816 37.5467ZM26.5521 34.9729C25.3021 34.9729 25.3021 36.8826 26.5521 36.8826H32.0816C33.3359 36.8826 33.3359 34.9729 32.0816 34.9729H26.5521Z" fill="black"/>
</g>
<path fill-rule="evenodd" clip-rule="evenodd" d="M31.8574 34.9737C31.7055 34.9737 31.5666 34.8652 31.5319 34.7133L30.7203 30.9763C30.6291 30.5509 31.2758 30.4077 31.3713 30.833L32.1786 34.57C32.2263 34.7784 32.0658 34.9737 31.8574 34.9737ZM26.6578 34.9737C26.4494 34.9737 26.2888 34.7784 26.3366 34.57L27.1482 30.833C27.2394 30.4077 27.8861 30.5466 27.7949 30.9763L26.9833 34.7133C26.9486 34.8652 26.814 34.9737 26.6578 34.9737Z" fill="black"/>
<path fill-rule="evenodd" clip-rule="evenodd" d="M31.2884 31.2364H27.2259C25.2424 31.2364 25.2424 28.2156 27.2259 28.2156H31.2884C33.2719 28.2156 33.2719 31.2364 31.2884 31.2364ZM27.2259 28.8796C26.1148 28.8796 26.1148 30.5723 27.2259 30.5723H31.2884C32.3995 30.5723 32.3995 28.8796 31.2884 28.8796H27.2259Z" fill="black"/>
<path fill-rule="evenodd" clip-rule="evenodd" d="M30.3547 28.8806C30.077 28.8806 29.9207 28.5508 30.103 28.3338C30.8061 27.4961 30.0205 25.3867 29.2566 24.3277C28.4928 25.3867 27.7072 27.4961 28.4103 28.3338C28.6924 28.668 28.1846 29.0933 27.9025 28.7591C26.7523 27.3876 28.1586 24.5056 29.0136 23.5768C29.1395 23.4379 29.3738 23.4379 29.4997 23.5768C30.3547 24.5056 31.761 27.3876 30.6108 28.7591C30.5457 28.8372 30.4502 28.8806 30.3547 28.8806Z" fill="black"/>
<path fill-rule="evenodd" clip-rule="evenodd" d="M16.4006 14.7091C14.7079 14.7091 13.332 13.3245 13.332 11.6275C13.332 9.93045 14.7079 8.5459 16.4006 8.5459C18.0977 8.5459 19.4735 9.93045 19.4735 11.6275C19.4735 13.3245 18.0977 14.7091 16.4006 14.7091ZM16.4006 9.20996C15.0725 9.20996 13.9918 10.295 13.9918 11.6275C13.9918 12.96 15.0725 14.045 16.4006 14.045C17.7331 14.045 18.8138 12.96 18.8138 11.6275C18.8138 10.295 17.7331 9.20996 16.4006 9.20996Z" fill="black"/>
</g>
<defs>
<clipPath id="clip0_10383_26208">
<rect width="25.8333" height="30" fill="white" transform="translate(10 8.5459)"/>
</clipPath>
</defs>
</svg>
