<svg width="47" height="47" viewBox="0 0 47 47" fill="none" xmlns="http://www.w3.org/2000/svg">
<g clip-path="url(#clip0_10383_26518)">
<rect x="0.5" y="0.545898" width="46" height="46" rx="23" fill="white"/>
<g clip-path="url(#clip1_10383_26518)">
<path d="M23.9776 25.1402H33.0472C33.1254 25.1402 33.1928 25.0728 33.1928 24.9911V23.6523C33.1928 23.5706 33.1254 23.5032 33.0472 23.5032H23.9776C23.896 23.5032 23.832 23.5706 23.832 23.6523V24.9911C23.832 25.0728 23.896 25.1402 23.9776 25.1402ZM24.1232 23.7979H32.9016V24.842H24.1232V23.7979Z" fill="black"/>
<path d="M34.8217 26.7139H22.5987C22.5206 26.7139 22.4531 26.7813 22.4531 26.863C22.4531 26.9447 22.5206 27.0122 22.5987 27.0122H34.8217C34.8999 27.0122 34.9673 26.9447 34.9673 26.863C34.9673 26.7813 34.8999 26.7139 34.8217 26.7139Z" fill="black"/>
<path d="M26.8548 28.4896C26.9364 28.4896 27.0004 28.4256 27.0004 28.344C27.0004 28.2623 26.9364 28.1948 26.8548 28.1948H23.6765C23.5948 28.1948 23.5273 28.2623 23.5273 28.344C23.5273 28.4256 23.5948 28.4896 23.6765 28.4896H26.8548Z" fill="black"/>
<path d="M34.1033 28.1948H29.0714C28.9933 28.1948 28.9258 28.2623 28.9258 28.344C28.9258 28.4256 28.9933 28.4896 29.0714 28.4896H34.1033C34.185 28.4896 34.2489 28.4256 34.2489 28.344C34.2489 28.2623 34.185 28.1948 34.1033 28.1948Z" fill="black"/>
<path d="M27.9206 30.8369C27.5513 30.6913 27.0399 30.7126 26.4895 30.8973C26.6067 30.5031 26.4505 30.3433 26.3439 30.2865C26.2551 30.2332 26.0669 30.1302 24.8489 30.8511C25.0549 30.4214 25.03 30.2403 24.9909 30.1409C24.959 30.0557 24.8915 29.9953 24.8063 29.9669C24.1529 29.7574 22.7324 31.2879 22.4554 31.5969C22.4022 31.6572 22.4057 31.7531 22.4661 31.8064C22.4945 31.8348 22.53 31.8454 22.562 31.8454C22.6046 31.8454 22.6436 31.8312 22.672 31.7957C23.3077 31.0855 24.3659 30.1373 24.721 30.251C24.721 30.251 24.7779 30.3646 24.5364 30.8192C24.4796 30.9221 24.5009 31.05 24.5861 31.1317C24.6678 31.2133 24.7921 31.2275 24.8951 31.1672C25.7686 30.6381 26.1344 30.528 26.2054 30.5457C26.2622 30.5777 26.2409 30.7126 26.2054 30.8298C26.1735 30.9292 26.2019 31.0393 26.2764 31.1139C26.351 31.1885 26.4611 31.2133 26.5605 31.1814C27.0612 31.0145 27.5051 30.9896 27.8176 31.1139C27.8922 31.1423 27.9774 31.1033 28.0058 31.0287C28.0343 30.9506 27.9987 30.8653 27.9206 30.8369Z" fill="black"/>
<path d="M33.3622 31.0632C32.1264 31.0632 31.125 32.0824 31.125 33.3324C31.125 34.586 32.1264 35.6051 33.3622 35.6051C34.5945 35.6051 35.5994 34.586 35.5994 33.3324C35.5994 32.0824 34.5945 31.0632 33.3622 31.0632ZM33.3622 35.3068C32.2898 35.3068 31.4162 34.4226 31.4162 33.3324C31.4162 32.2458 32.2898 31.3615 33.3622 31.3615C34.4347 31.3615 35.3047 32.2458 35.3047 33.3324C35.3047 34.4226 34.4347 35.3068 33.3622 35.3068Z" fill="black"/>
<path d="M34.8051 32.7144C34.7838 32.6612 34.7306 32.6256 34.6737 32.6256H33.8321L33.4912 31.9474C33.4415 31.8479 33.2817 31.8479 33.232 31.9474L32.8911 32.6256H32.053C31.9926 32.6256 31.9429 32.6576 31.9181 32.7144C31.8967 32.7677 31.9038 32.8281 31.9429 32.8742L32.536 33.5276L32.2092 34.3479C32.1844 34.4083 32.2021 34.4722 32.2448 34.5148C32.2909 34.5575 32.3584 34.5646 32.4117 34.5362L33.3634 34.0319L34.3115 34.5362C34.3328 34.5468 34.3577 34.5539 34.379 34.5539C34.4145 34.5539 34.45 34.5397 34.4784 34.5148C34.5246 34.4722 34.5388 34.4083 34.5175 34.3479L34.1872 33.5276L34.7803 32.8742C34.8193 32.8281 34.83 32.7677 34.8051 32.7144ZM33.9102 33.3962C33.8712 33.4389 33.8605 33.4992 33.8818 33.5525L34.0949 34.0887L33.4308 33.7372C33.3882 33.7123 33.3385 33.7123 33.2959 33.7372L32.6283 34.0887L32.8413 33.5525C32.8627 33.4992 32.852 33.4389 32.8165 33.3962L32.3833 32.9204H32.9834C33.0367 32.9204 33.0864 32.8884 33.1112 32.8387L33.3634 32.3416L33.6119 32.8387C33.6368 32.8884 33.6901 32.9204 33.7433 32.9204H34.3399L33.9102 33.3962Z" fill="black"/>
<path fill-rule="evenodd" clip-rule="evenodd" d="M34.1777 10.6049C33.819 9.27323 32.4376 8.48488 31.0988 8.83999L7.80692 15.0403C6.46814 15.3989 5.67269 16.7697 6.03135 18.0978L8.34314 26.6774C8.70181 28.009 10.0832 28.7974 11.422 28.4423L34.7139 22.242C36.0527 21.8833 36.8481 20.5161 36.4895 19.1845L34.1777 10.6049ZM33.0804 10.8997L35.3922 19.4756C35.5875 20.2036 35.1542 20.9565 34.4191 21.1518L11.1272 27.3521C10.3921 27.5474 9.63931 27.1141 9.44045 26.3862L7.12866 17.8066C6.92979 17.0786 7.36658 16.3258 8.10167 16.1305L31.3936 9.93019C32.1287 9.73488 32.8815 10.1681 33.0804 10.8997ZM17.9277 16.7626C18.368 16.8016 18.51 16.9685 18.6166 17.3698L18.8794 18.3357C18.9824 18.7299 19.0001 19.0069 18.574 19.1631L18.7018 19.6354C19.199 19.5538 19.3268 20.0012 19.4262 20.367L19.5718 20.9139C19.6748 21.2867 19.8098 21.6312 20.1684 21.8407C20.4845 22.0254 20.8218 22.0289 21.1698 21.9366C21.5143 21.8443 21.7877 21.7022 22.0008 21.4075C22.1429 21.2228 22.3275 20.857 22.2636 20.6227C22.2352 20.5126 22.0718 20.4274 21.9689 20.4558C21.7771 20.5055 21.8126 20.7434 21.6848 20.7789C21.5818 20.8073 21.5605 20.6404 21.5427 20.5694L21.351 19.8627C21.1095 19.0211 20.3673 18.9962 19.6216 19.0815L19.618 19.0673C20.3886 18.6553 20.8929 18.0907 20.6265 17.1781C20.4561 16.5708 20.0619 16.205 19.4511 16.0843C18.9078 15.9813 18.3645 16.1411 17.8424 16.2796L17.7998 16.2903L17.9277 16.7626ZM11.6848 23.3712C11.7664 23.6695 11.7877 23.7157 11.5285 23.8755C11.4326 23.9359 11.3794 24.0282 11.4113 24.1383C11.4717 24.3727 11.7416 24.3158 11.7735 24.3087L14.0534 23.7015C14.0853 23.6944 14.3446 23.6056 14.2842 23.3748C14.2522 23.2612 14.1599 23.2114 14.0498 23.2043C13.7444 23.1937 13.7373 23.144 13.6592 22.8457L12.2849 17.7604L10.1613 18.3251C10.1294 18.3357 9.86658 18.421 9.9305 18.6518C9.95891 18.7654 10.0512 18.8187 10.1649 18.8222C10.4703 18.8364 10.4774 18.8862 10.5555 19.1809L11.6848 23.3712ZM26.4397 14.259C26.4717 14.3691 26.564 14.4224 26.6777 14.4259C26.9831 14.4401 26.9866 14.4899 27.0647 14.7846L28.1975 18.9749C28.2757 19.2732 28.297 19.3194 28.0413 19.4827C27.9419 19.5396 27.8922 19.6319 27.9206 19.7455C27.9845 19.9764 28.2544 19.9231 28.2863 19.9124L30.4099 19.3478L28.7977 13.3641L26.6706 13.9288C26.6386 13.9394 26.3794 14.0247 26.4397 14.259ZM30.7721 19.2519L32.6258 18.7583L32.1926 17.1568C32.1855 17.1248 32.1429 16.8798 31.8872 16.9472C31.7416 16.9863 31.7274 17.1283 31.7025 17.2633C31.6599 17.9593 31.2799 18.5346 30.6478 18.7867L30.7721 19.2519ZM21.145 15.6688C21.1734 15.7789 21.2657 15.8322 21.3794 15.8357C21.6848 15.8499 21.6883 15.8997 21.77 16.1944L22.8993 20.3883C22.9809 20.683 23.0022 20.7292 22.743 20.8925C22.6471 20.9529 22.5939 21.0417 22.6223 21.1553C22.6862 21.3862 22.9561 21.3329 22.988 21.3222L25.1152 20.7576L23.4994 14.7739L21.3758 15.3421C21.3439 15.3492 21.0811 15.4345 21.145 15.6688ZM25.4774 20.6617L27.3275 20.1681L26.8943 18.5701C26.8872 18.5381 26.8481 18.2896 26.5889 18.357C26.4433 18.3961 26.4291 18.5381 26.4078 18.6731C26.3616 19.3691 25.9816 19.9444 25.3495 20.1965L25.4774 20.6617ZM16.8375 22.0005C16.9191 22.2952 16.9404 22.3414 16.6812 22.5048C16.5853 22.5651 16.5321 22.6575 16.5605 22.7675C16.6244 23.0019 16.8943 22.9451 16.9262 22.938L19.2061 22.3308C19.238 22.3237 19.4973 22.2349 19.4369 22.0041C19.4049 21.8904 19.3126 21.8372 19.199 21.8336C18.8936 21.8229 18.89 21.7697 18.8119 21.4749L17.4376 16.3897L15.314 16.9543C15.2821 16.9614 15.0193 17.0502 15.0832 17.281C15.1116 17.3947 15.2039 17.4444 15.3176 17.4515C15.623 17.4622 15.6265 17.5119 15.7082 17.8102L16.8375 22.0005ZM13.5029 20.8322C13.8652 20.8286 14.1031 21.0985 14.2558 21.3862C14.3339 21.5104 14.4156 21.6241 14.586 21.5815C14.8346 21.514 14.7174 21.237 14.6997 21.1731L14.2345 19.4437C14.2167 19.3798 14.1777 19.0815 13.9291 19.1489C13.7586 19.1951 13.7444 19.3336 13.7409 19.4827C13.7515 19.8059 13.6841 20.1575 13.368 20.335L13.5029 20.8322ZM30.0122 16.4359C30.3744 16.4323 30.6123 16.7058 30.7686 16.9899C30.8431 17.1141 30.9284 17.2313 31.0953 17.1852C31.3439 17.1177 31.2267 16.8407 31.2089 16.7768L30.7437 15.0509C30.726 14.987 30.6904 14.6852 30.4419 14.7526C30.2714 14.7988 30.2572 14.9373 30.2537 15.0864C30.2643 15.4096 30.1933 15.7612 29.8808 15.9387L30.0122 16.4359ZM24.7174 17.8457C25.0797 17.8421 25.314 18.1156 25.4703 18.3997C25.5484 18.5239 25.6301 18.6411 25.797 18.595C26.0491 18.5275 25.9319 18.2505 25.9142 18.1866L25.449 16.4607C25.4312 16.3968 25.3922 16.0985 25.1436 16.1624C24.9731 16.2086 24.9589 16.3506 24.9554 16.4962C24.966 16.8194 24.8985 17.171 24.5825 17.3485L24.7174 17.8457ZM12.775 18.1262C13.5136 18.0516 14.0285 18.3322 14.412 18.9252C14.4866 19.0353 14.547 19.1028 14.6855 19.0673C14.927 19.0033 14.8914 18.8506 14.8808 18.808L14.444 17.1852L12.6471 17.6646L12.775 18.1262ZM29.2842 13.7335C30.0228 13.6553 30.5413 13.9394 30.9248 14.5289C30.9958 14.639 31.0562 14.71 31.1947 14.671C31.4362 14.607 31.4042 14.4543 31.3936 14.4153L30.9532 12.7889L29.1599 13.2683L29.2842 13.7335ZM23.9859 15.1433C24.7245 15.0651 25.243 15.3492 25.6265 15.9387C25.6975 16.0488 25.7615 16.1198 25.8964 16.0808C26.1379 16.0168 26.1059 15.8641 26.0953 15.8251L25.6585 14.1987L23.8616 14.6781L23.9859 15.1433Z" fill="black"/>
<path d="M37.0266 21.5005H20.6417C20.0877 21.5005 19.6367 21.955 19.6367 22.5161V33.0807C19.6367 33.6418 20.0877 34.0999 20.6417 34.0999H30.8548C30.9471 34.4479 31.1033 34.7675 31.3058 35.0552C30.7589 35.84 30.3256 36.7349 30.0202 37.7185C30.0025 37.7789 30.0238 37.8428 30.0735 37.8819C30.1197 37.9174 30.1871 37.9209 30.2404 37.889C30.4641 37.7469 31.1211 37.3918 31.4514 37.4735C31.7354 37.5445 32.0621 38.1092 32.2042 38.4465C32.2255 38.5033 32.2788 38.5388 32.3391 38.5388C32.3462 38.5388 32.3533 38.5388 32.364 38.5353C32.4279 38.5246 32.4812 38.4678 32.4847 38.4003C32.5309 37.6191 32.7546 36.8876 33.1417 36.2199C33.3086 36.2484 33.4755 36.2661 33.6495 36.2661C33.82 36.2661 33.9904 36.2484 34.1538 36.2199C34.5444 36.8876 34.7646 37.6191 34.8143 38.4003C34.8178 38.4678 34.8675 38.5246 34.935 38.5353C34.9421 38.5388 34.9492 38.5388 34.9599 38.5388C35.0167 38.5388 35.07 38.5033 35.0948 38.4465C35.2333 38.1092 35.5636 37.5445 35.8477 37.4735C36.1779 37.3918 36.8313 37.7469 37.0586 37.889C37.1083 37.9209 37.1758 37.9174 37.2255 37.8819C37.2717 37.8428 37.293 37.7789 37.2752 37.7185C36.9698 36.7349 36.5401 35.84 35.9897 35.0552C36.1957 34.7675 36.3484 34.4479 36.4442 34.0999H37.0266C37.5806 34.0999 38.0316 33.6418 38.0316 33.0807V22.5161C38.0316 21.955 37.5806 21.5005 37.0266 21.5005ZM33.6495 30.3819C32.2362 30.3819 31.0607 31.4082 30.8015 32.7647H20.9542V22.8322H36.7141V32.7647H36.494C36.2383 31.4082 35.0593 30.3819 33.6495 30.3819ZM32.2468 37.8819C32.0728 37.5942 31.8171 37.2604 31.5188 37.1859C31.1957 37.1042 30.7305 37.2888 30.418 37.4486C30.695 36.6638 31.0572 35.9394 31.4975 35.2931C31.8562 35.6944 32.3178 35.9962 32.8434 36.1489C32.5415 36.6887 32.3391 37.2711 32.2468 37.8819ZM31.0394 33.3222C31.0394 31.8663 32.2113 30.6766 33.6495 30.6766C35.0877 30.6766 36.256 31.8663 36.256 33.3222C36.256 34.7817 35.0877 35.9714 33.6495 35.9714C32.2113 35.9714 31.0394 34.7817 31.0394 33.3222ZM36.8775 37.4486C36.565 37.2888 36.1033 37.1042 35.7766 37.1859C35.4783 37.2604 35.2227 37.5942 35.0522 37.8854C34.9563 37.2711 34.7539 36.6887 34.4521 36.1489C34.9776 35.9962 35.4393 35.6944 35.7979 35.2931C36.2418 35.9394 36.604 36.6638 36.8775 37.4486ZM37.7369 33.0807C37.7369 33.4785 37.4208 33.8016 37.0266 33.8016H36.5082C36.533 33.6454 36.5472 33.4856 36.5472 33.3222C36.5472 33.237 36.5437 33.1482 36.5366 33.063H36.8597C36.9414 33.063 37.0053 32.9955 37.0053 32.9138V22.683C37.0053 22.6013 36.9414 22.5374 36.8597 22.5374H20.8086C20.7269 22.5374 20.663 22.6013 20.663 22.683V32.9138C20.663 32.9955 20.7269 33.063 20.8086 33.063H30.7624C30.7518 33.1482 30.7482 33.237 30.7482 33.3222C30.7482 33.4856 30.766 33.6454 30.7908 33.8016H20.6417C20.2475 33.8016 19.9315 33.4785 19.9315 33.0807V22.5161C19.9315 22.1184 20.2475 21.7952 20.6417 21.7952H37.0266C37.4208 21.7952 37.7369 22.1184 37.7369 22.5161V33.0807Z" fill="black"/>
</g>
</g>
<defs>
<clipPath id="clip0_10383_26518">
<rect x="0.5" y="0.545898" width="46" height="46" rx="23" fill="white"/>
</clipPath>
<clipPath id="clip1_10383_26518">
<rect width="33.4091" height="30" fill="white" transform="translate(6 8.5459)"/>
</clipPath>
</defs>
</svg>
