<svg width="46" height="47" viewBox="0 0 46 47" fill="none" xmlns="http://www.w3.org/2000/svg">
<rect y="0.545898" width="46" height="46" rx="23" fill="white"/>
<g clip-path="url(#clip0_10383_26007)">
<path d="M30.6591 19.111C30.3819 19.111 30.1602 18.8842 30.1602 18.612V15.6029C30.1602 15.3257 30.3819 15.0989 30.6591 15.0989C30.9313 15.0989 31.1581 15.3257 31.1581 15.6029V18.612C31.1581 18.8842 30.9313 19.111 30.6591 19.111Z" fill="#100F0D"/>
<path d="M32.6552 19.111C32.378 19.111 32.1562 18.8842 32.1562 18.612V15.6029C32.1562 15.3257 32.378 15.0989 32.6552 15.0989C32.9325 15.0989 33.1542 15.3257 33.1542 15.6029V18.612C33.1542 18.8842 32.9325 19.111 32.6552 19.111Z" fill="#100F0D"/>
<path d="M30.6591 29.6391C30.3819 29.6391 30.1602 29.4122 30.1602 29.135V26.131C30.1602 25.8538 30.3819 25.627 30.6591 25.627C30.9313 25.627 31.1581 25.8538 31.1581 26.131V29.135C31.1581 29.4122 30.9313 29.6391 30.6591 29.6391Z" fill="#100F0D"/>
<path d="M33.6552 29.6391C33.378 29.6391 33.1562 29.4122 33.1562 29.135V26.131C33.1562 25.8538 33.378 25.627 33.6552 25.627C33.9325 25.627 34.1542 25.8538 34.1542 26.131V29.135C34.1542 29.4122 33.9325 29.6391 33.6552 29.6391Z" fill="#100F0D"/>
<mask id="mask0_10383_26007" style="mask-type:luminance" maskUnits="userSpaceOnUse" x="35" y="25" width="3" height="6">
<path d="M35.9688 25.3196H37.1734V30.4809H35.9688V25.3196Z" fill="white"/>
</mask>
<g mask="url(#mask0_10383_26007)">
<path d="M36.6474 29.6412C36.3702 29.6412 36.1484 29.4144 36.1484 29.1372V26.1332C36.1484 25.856 36.3702 25.6292 36.6474 25.6292C36.9246 25.6292 37.1464 25.856 37.1464 26.1332V29.1372C37.1464 29.4144 36.9246 29.6412 36.6474 29.6412Z" fill="#100F0D"/>
</g>
<mask id="mask1_10383_26007" style="mask-type:luminance" maskUnits="userSpaceOnUse" x="33" y="14" width="5" height="7">
<path d="M33.3867 14.9966H37.172V20.1579H33.3867V14.9966Z" fill="white"/>
</mask>
<g mask="url(#mask1_10383_26007)">
<path d="M35.1503 16.1004V18.1065H36.1483V16.1004H35.1503ZM36.1483 19.1095H35.1503C34.6009 19.1095 34.1523 18.6609 34.1523 18.1065V16.1004C34.1523 15.546 34.6009 15.0974 35.1503 15.0974H36.1483C36.7027 15.0974 37.1463 15.546 37.1463 16.1004V18.1065C37.1463 18.6609 36.7027 19.1095 36.1483 19.1095Z" fill="#100F0D"/>
</g>
<mask id="mask2_10383_26007" style="mask-type:luminance" maskUnits="userSpaceOnUse" x="35" y="20" width="3" height="6">
<path d="M35.9688 20.158H37.1734V25.3192H35.9688V20.158Z" fill="white"/>
</mask>
<g mask="url(#mask2_10383_26007)">
<path d="M36.6474 24.6242C36.3702 24.6242 36.1484 24.4024 36.1484 24.1252V21.1161C36.1484 20.8389 36.3702 20.6121 36.6474 20.6121C36.9246 20.6121 37.1464 20.8389 37.1464 21.1161V24.1252C37.1464 24.4024 36.9246 24.6242 36.6474 24.6242Z" fill="#100F0D"/>
</g>
<path d="M34.6513 24.6246C34.3741 24.6246 34.1523 24.4029 34.1523 24.1257V21.1166C34.1523 20.8394 34.3741 20.6125 34.6513 20.6125C34.9286 20.6125 35.1503 20.8394 35.1503 21.1166V24.1257C35.1503 24.4029 34.9286 24.6246 34.6513 24.6246Z" fill="#100F0D"/>
<path d="M31.1581 21.6156V23.6216H32.1561V21.6156H31.1581ZM32.1561 24.6246H31.1581C30.6037 24.6246 30.1602 24.1761 30.1602 23.6216V21.6156C30.1602 21.0611 30.6037 20.6125 31.1581 20.6125H32.1561C32.7055 20.6125 33.1541 21.0611 33.1541 21.6156V23.6216C33.1541 24.1761 32.7055 24.6246 32.1561 24.6246Z" fill="#100F0D"/>
<mask id="mask3_10383_26007" style="mask-type:luminance" maskUnits="userSpaceOnUse" x="29" y="30" width="4" height="6">
<path d="M29.5156 30.4792H32.0963V35.2424H29.5156V30.4792Z" fill="white"/>
</mask>
<g mask="url(#mask3_10383_26007)">
<path d="M30.6591 35.1525C30.3819 35.1525 30.1602 34.9257 30.1602 34.6484V31.6444C30.1602 31.3672 30.3819 31.1404 30.6591 31.1404C30.9313 31.1404 31.1581 31.3672 31.1581 31.6444V34.6484C31.1581 34.9257 30.9313 35.1525 30.6591 35.1525Z" fill="#100F0D"/>
</g>
<mask id="mask4_10383_26007" style="mask-type:luminance" maskUnits="userSpaceOnUse" x="32" y="30" width="2" height="6">
<path d="M32.0977 30.4792H33.388V35.2424H32.0977V30.4792Z" fill="white"/>
</mask>
<g mask="url(#mask4_10383_26007)">
<path d="M32.6552 35.1525C32.378 35.1525 32.1562 34.9257 32.1562 34.6484V31.6444C32.1562 31.3672 32.378 31.1404 32.6552 31.1404C32.9325 31.1404 33.1542 31.3672 33.1542 31.6444V34.6484C33.1542 34.9257 32.9325 35.1525 32.6552 35.1525Z" fill="#100F0D"/>
</g>
<mask id="mask5_10383_26007" style="mask-type:luminance" maskUnits="userSpaceOnUse" x="33" y="30" width="5" height="6">
<path d="M33.3867 30.4792H37.172V35.2424H33.3867V30.4792Z" fill="white"/>
</mask>
<g mask="url(#mask5_10383_26007)">
<path d="M35.1503 32.1434V34.1495H36.1483V32.1434H35.1503ZM36.1483 35.1525H35.1503C34.6009 35.1525 34.1523 34.7039 34.1523 34.1495V32.1434C34.1523 31.589 34.6009 31.1404 35.1503 31.1404H36.1483C36.7027 31.1404 37.1463 31.589 37.1463 32.1434V34.1495C37.1463 34.7039 36.7027 35.1525 36.1483 35.1525Z" fill="#100F0D"/>
</g>
<path d="M13.6865 19.111C13.4093 19.111 13.1875 18.8842 13.1875 18.612V15.6029C13.1875 15.3257 13.4093 15.0989 13.6865 15.0989C13.9637 15.0989 14.1855 15.3257 14.1855 15.6029V18.612C14.1855 18.8842 13.9637 19.111 13.6865 19.111Z" fill="#100F0D"/>
<path d="M11.6904 19.111C11.4132 19.111 11.1914 18.8842 11.1914 18.612V15.6029C11.1914 15.3257 11.4132 15.0989 11.6904 15.0989C11.9676 15.0989 12.1894 15.3257 12.1894 15.6029V18.612C12.1894 18.8842 11.9676 19.111 11.6904 19.111Z" fill="#100F0D"/>
<path d="M13.6865 29.6391C13.4093 29.6391 13.1875 29.4122 13.1875 29.135V26.131C13.1875 25.8538 13.4093 25.627 13.6865 25.627C13.9637 25.627 14.1855 25.8538 14.1855 26.131V29.135C14.1855 29.4122 13.9637 29.6391 13.6865 29.6391Z" fill="#100F0D"/>
<path d="M10.6943 29.6391C10.4171 29.6391 10.1953 29.4122 10.1953 29.135V26.131C10.1953 25.8538 10.4171 25.627 10.6943 25.627C10.9665 25.627 11.1933 25.8538 11.1933 26.131V29.135C11.1933 29.4122 10.9665 29.6391 10.6943 29.6391Z" fill="#100F0D"/>
<mask id="mask6_10383_26007" style="mask-type:luminance" maskUnits="userSpaceOnUse" x="7" y="25" width="2" height="6">
<path d="M7.16797 25.3196H8.86656V30.4809H7.16797V25.3196Z" fill="white"/>
</mask>
<g mask="url(#mask6_10383_26007)">
<path d="M7.69821 29.6412C7.42099 29.6412 7.19922 29.4144 7.19922 29.1372V26.1332C7.19922 25.856 7.42099 25.6292 7.69821 25.6292C7.97039 25.6292 8.1972 25.856 8.1972 26.1332V29.1372C8.1972 29.4144 7.97039 29.6412 7.69821 29.6412Z" fill="#100F0D"/>
</g>
<mask id="mask7_10383_26007" style="mask-type:luminance" maskUnits="userSpaceOnUse" x="7" y="14" width="5" height="7">
<path d="M7.16797 14.9966H11.4472V20.1579H7.16797V14.9966Z" fill="white"/>
</mask>
<g mask="url(#mask7_10383_26007)">
<path d="M8.1972 16.1004V18.1065H9.19519V16.1004H8.1972ZM9.19519 19.1095H8.1972C7.64277 19.1095 7.19922 18.6609 7.19922 18.1065V16.1004C7.19922 15.546 7.64277 15.0974 8.1972 15.0974H9.19519C9.74458 15.0974 10.1932 15.546 10.1932 16.1004V18.1065C10.1932 18.6609 9.74458 19.1095 9.19519 19.1095Z" fill="#100F0D"/>
</g>
<mask id="mask8_10383_26007" style="mask-type:luminance" maskUnits="userSpaceOnUse" x="7" y="20" width="2" height="6">
<path d="M7.16797 20.158H8.86656V25.3192H7.16797V20.158Z" fill="white"/>
</mask>
<g mask="url(#mask8_10383_26007)">
<path d="M7.69821 24.6242C7.42099 24.6242 7.19922 24.4024 7.19922 24.1252V21.1161C7.19922 20.8389 7.42099 20.6121 7.69821 20.6121C7.97039 20.6121 8.1972 20.8389 8.1972 21.1161V24.1252C8.1972 24.4024 7.97039 24.6242 7.69821 24.6242Z" fill="#100F0D"/>
</g>
<path d="M9.6943 24.6246C9.41709 24.6246 9.19531 24.4029 9.19531 24.1257V21.1166C9.19531 20.8394 9.41709 20.6125 9.6943 20.6125C9.96648 20.6125 10.1933 20.8394 10.1933 21.1166V24.1257C10.1933 24.4029 9.96648 24.6246 9.6943 24.6246Z" fill="#100F0D"/>
<path d="M12.1894 21.6156V23.6216H13.1874V21.6156H12.1894ZM13.1874 24.6246H12.1894C11.635 24.6246 11.1914 24.1761 11.1914 23.6216V21.6156C11.1914 21.0611 11.635 20.6125 12.1894 20.6125H13.1874C13.7368 20.6125 14.1854 21.0611 14.1854 21.6156V23.6216C14.1854 24.1761 13.7368 24.6246 13.1874 24.6246Z" fill="#100F0D"/>
<mask id="mask9_10383_26007" style="mask-type:luminance" maskUnits="userSpaceOnUse" x="12" y="30" width="4" height="6">
<path d="M12.7422 30.4792H15.3228V35.2424H12.7422V30.4792Z" fill="white"/>
</mask>
<g mask="url(#mask9_10383_26007)">
<path d="M13.6865 35.1525C13.4093 35.1525 13.1875 34.9257 13.1875 34.6484V31.6444C13.1875 31.3672 13.4093 31.1404 13.6865 31.1404C13.9637 31.1404 14.1855 31.3672 14.1855 31.6444V34.6484C14.1855 34.9257 13.9637 35.1525 13.6865 35.1525Z" fill="#100F0D"/>
</g>
<mask id="mask10_10383_26007" style="mask-type:luminance" maskUnits="userSpaceOnUse" x="10" y="30" width="3" height="6">
<path d="M10.1602 30.4792H12.7408V35.2424H10.1602V30.4792Z" fill="white"/>
</mask>
<g mask="url(#mask10_10383_26007)">
<path d="M11.6943 35.1525C11.4171 35.1525 11.1953 34.9257 11.1953 34.6484V31.6444C11.1953 31.3672 11.4171 31.1404 11.6943 31.1404C11.9715 31.1404 12.1933 31.3672 12.1933 31.6444V34.6484C12.1933 34.9257 11.9715 35.1525 11.6943 35.1525Z" fill="#100F0D"/>
</g>
<mask id="mask11_10383_26007" style="mask-type:luminance" maskUnits="userSpaceOnUse" x="7" y="30" width="5" height="6">
<path d="M7.16797 30.4792H11.4472V35.2424H7.16797V30.4792Z" fill="white"/>
</mask>
<g mask="url(#mask11_10383_26007)">
<path d="M8.1972 32.1434V34.1495H9.19519V32.1434H8.1972ZM9.19519 35.1525H8.1972C7.64277 35.1525 7.19922 34.7039 7.19922 34.1495V32.1434C7.19922 31.589 7.64277 31.1404 8.1972 31.1404H9.19519C9.74458 31.1404 10.1932 31.589 10.1932 32.1434V34.1495C10.1932 34.7039 9.74458 35.1525 9.19519 35.1525Z" fill="#100F0D"/>
</g>
<mask id="mask12_10383_26007" style="mask-type:luminance" maskUnits="userSpaceOnUse" x="34" y="10" width="4" height="5">
<path d="M34.6758 10.0818H37.1707V14.9961H34.6758V10.0818Z" fill="white"/>
</mask>
<g mask="url(#mask12_10383_26007)">
<path d="M36.1474 14.0942C35.8702 14.0942 35.6484 13.8724 35.6484 13.5952V10.5862C35.6484 10.3089 35.8702 10.0872 36.1474 10.0872C36.4246 10.0872 36.6464 10.3089 36.6464 10.5862V13.5952C36.6464 13.8724 36.4246 14.0942 36.1474 14.0942Z" fill="#100F0D"/>
</g>
<mask id="mask13_10383_26007" style="mask-type:luminance" maskUnits="userSpaceOnUse" x="33" y="10" width="2" height="5">
<path d="M33.3867 10.0818H34.677V14.9961H33.3867V10.0818Z" fill="white"/>
</mask>
<g mask="url(#mask13_10383_26007)">
<path d="M34.1513 14.0942C33.8741 14.0942 33.6523 13.8724 33.6523 13.5952V10.5862C33.6523 10.3089 33.8741 10.0872 34.1513 10.0872C34.4286 10.0872 34.6503 10.3089 34.6503 10.5862V13.5952C34.6503 13.8724 34.4286 14.0942 34.1513 14.0942Z" fill="#100F0D"/>
</g>
<mask id="mask14_10383_26007" style="mask-type:luminance" maskUnits="userSpaceOnUse" x="26" y="10" width="4" height="5">
<path d="M26.9336 10.0818H29.5142V14.9961H26.9336V10.0818Z" fill="white"/>
</mask>
<g mask="url(#mask14_10383_26007)">
<path d="M28.1631 14.0942C27.8858 14.0942 27.6641 13.8724 27.6641 13.5952V10.5862C27.6641 10.3089 27.8858 10.0872 28.1631 10.0872C28.4352 10.0872 28.662 10.3089 28.662 10.5862V13.5952C28.662 13.8724 28.4352 14.0942 28.1631 14.0942Z" fill="#100F0D"/>
<path d="M28.1631 14.0942C27.8858 14.0942 27.6641 13.8724 27.6641 13.5952V10.5862C27.6641 10.3089 27.8858 10.0872 28.1631 10.0872C28.4352 10.0872 28.662 10.3089 28.662 10.5862V13.5952C28.662 13.8724 28.4352 14.0942 28.1631 14.0942Z" fill="#100F0D"/>
</g>
<mask id="mask15_10383_26007" style="mask-type:luminance" maskUnits="userSpaceOnUse" x="20" y="10" width="4" height="5">
<path d="M20.4844 10.0818H23.065V14.9961H20.4844V10.0818Z" fill="white"/>
</mask>
<g mask="url(#mask15_10383_26007)">
<path d="M22.1709 14.0942C21.8987 14.0942 21.6719 13.8724 21.6719 13.5952V10.5862C21.6719 10.3089 21.8987 10.0872 22.1709 10.0872C22.4481 10.0872 22.6699 10.3089 22.6699 10.5862V13.5952C22.6699 13.8724 22.4481 14.0942 22.1709 14.0942Z" fill="#100F0D"/>
</g>
<mask id="mask16_10383_26007" style="mask-type:luminance" maskUnits="userSpaceOnUse" x="29" y="10" width="5" height="5">
<path d="M29.5156 10.0818H33.3866V14.9961H29.5156V10.0818Z" fill="white"/>
</mask>
<g mask="url(#mask16_10383_26007)">
<path d="M30.6581 11.0902V13.0912H31.6561V11.0902H30.6581ZM31.6561 14.0942H30.6581C30.1037 14.0942 29.6602 13.6456 29.6602 13.0912V11.0902C29.6602 10.5357 30.1037 10.0872 30.6581 10.0872H31.6561C32.2055 10.0872 32.6541 10.5357 32.6541 11.0902V13.0912C32.6541 13.6456 32.2055 14.0942 31.6561 14.0942Z" fill="#100F0D"/>
</g>
<mask id="mask17_10383_26007" style="mask-type:luminance" maskUnits="userSpaceOnUse" x="23" y="10" width="4" height="5">
<path d="M23.0625 10.0818H26.9335V14.9961H23.0625V10.0818Z" fill="white"/>
</mask>
<g mask="url(#mask17_10383_26007)">
<path d="M24.671 11.0902V13.0912H25.669V11.0902H24.671ZM25.669 14.0942H24.671C24.1166 14.0942 23.668 13.6456 23.668 13.0912V11.0902C23.668 10.5357 24.1166 10.0872 24.671 10.0872H25.669C26.2184 10.0872 26.667 10.5357 26.667 11.0902V13.0912C26.667 13.6456 26.2184 14.0942 25.669 14.0942Z" fill="#100F0D"/>
</g>
<mask id="mask18_10383_26007" style="mask-type:luminance" maskUnits="userSpaceOnUse" x="20" y="10" width="4" height="5">
<path d="M20.4844 10.0818H23.065V14.9961H20.4844V10.0818Z" fill="white"/>
</mask>
<g mask="url(#mask18_10383_26007)">
<path d="M22.1709 14.0942C21.8987 14.0942 21.6719 13.8724 21.6719 13.5952V10.5862C21.6719 10.3089 21.8987 10.0872 22.1709 10.0872C22.4481 10.0872 22.6699 10.3089 22.6699 10.5862V13.5952C22.6699 13.8724 22.4481 14.0942 22.1709 14.0942Z" fill="#100F0D"/>
</g>
<mask id="mask19_10383_26007" style="mask-type:luminance" maskUnits="userSpaceOnUse" x="19" y="10" width="3" height="5">
<path d="M19.1953 10.0818H21.776V14.9961H19.1953V10.0818Z" fill="white"/>
</mask>
<g mask="url(#mask19_10383_26007)">
<path d="M20.1787 14.0942C19.9065 14.0942 19.6797 13.8724 19.6797 13.5952V10.5862C19.6797 10.3089 19.9065 10.0872 20.1787 10.0872C20.4559 10.0872 20.6777 10.3089 20.6777 10.5862V13.5952C20.6777 13.8724 20.4559 14.0942 20.1787 14.0942Z" fill="#100F0D"/>
</g>
<mask id="mask20_10383_26007" style="mask-type:luminance" maskUnits="userSpaceOnUse" x="7" y="10" width="2" height="5">
<path d="M7.57812 10.0818H8.86845V14.9961H7.57812V10.0818Z" fill="white"/>
</mask>
<g mask="url(#mask20_10383_26007)">
<path d="M8.19821 14.0942C7.92099 14.0942 7.69922 13.8724 7.69922 13.5952V10.5862C7.69922 10.3089 7.92099 10.0872 8.19821 10.0872C8.47039 10.0872 8.6972 10.3089 8.6972 10.5862V13.5952C8.6972 13.8724 8.47039 14.0942 8.19821 14.0942Z" fill="#100F0D"/>
<path d="M8.19821 14.0942C7.92099 14.0942 7.69922 13.8724 7.69922 13.5952V10.5862C7.69922 10.3089 7.92099 10.0872 8.19821 10.0872C8.47039 10.0872 8.6972 10.3089 8.6972 10.5862V13.5952C8.6972 13.8724 8.47039 14.0942 8.19821 14.0942Z" fill="#100F0D"/>
</g>
<mask id="mask21_10383_26007" style="mask-type:luminance" maskUnits="userSpaceOnUse" x="12" y="10" width="4" height="5">
<path d="M12.7422 10.0818H15.3228V14.9961H12.7422V10.0818Z" fill="white"/>
</mask>
<g mask="url(#mask21_10383_26007)">
<path d="M14.1865 14.0942C13.9093 14.0942 13.6875 13.8724 13.6875 13.5952V10.5862C13.6875 10.3089 13.9093 10.0872 14.1865 10.0872C14.4637 10.0872 14.6855 10.3089 14.6855 10.5862V13.5952C14.6855 13.8724 14.4637 14.0942 14.1865 14.0942Z" fill="#100F0D"/>
<path d="M14.1865 14.0942C13.9093 14.0942 13.6875 13.8724 13.6875 13.5952V10.5862C13.6875 10.3089 13.9093 10.0872 14.1865 10.0872C14.4637 10.0872 14.6855 10.3089 14.6855 10.5862V13.5952C14.6855 13.8724 14.4637 14.0942 14.1865 14.0942Z" fill="#100F0D"/>
</g>
<mask id="mask22_10383_26007" style="mask-type:luminance" maskUnits="userSpaceOnUse" x="15" y="10" width="5" height="5">
<path d="M15.3242 10.0818H19.1952V14.9961H15.3242V10.0818Z" fill="white"/>
</mask>
<g mask="url(#mask22_10383_26007)">
<path d="M16.6855 11.0902V13.0912H17.6835V11.0902H16.6855ZM17.6835 14.0942H16.6855C16.1361 14.0942 15.6875 13.6456 15.6875 13.0912V11.0902C15.6875 10.5357 16.1361 10.0872 16.6855 10.0872H17.6835C18.2329 10.0872 18.6815 10.5357 18.6815 11.0902V13.0912C18.6815 13.6456 18.2329 14.0942 17.6835 14.0942Z" fill="#100F0D"/>
</g>
<mask id="mask23_10383_26007" style="mask-type:luminance" maskUnits="userSpaceOnUse" x="8" y="10" width="5" height="5">
<path d="M8.86719 10.0818H12.7382V14.9961H8.86719V10.0818Z" fill="white"/>
</mask>
<g mask="url(#mask23_10383_26007)">
<path d="M10.6933 11.0902V13.0912H11.6913V11.0902H10.6933ZM11.6913 14.0942H10.6933C10.1389 14.0942 9.69531 13.6456 9.69531 13.0912V11.0902C9.69531 10.5357 10.1389 10.0872 10.6933 10.0872H11.6913C12.2407 10.0872 12.6893 10.5357 12.6893 11.0902V13.0912C12.6893 13.6456 12.2407 14.0942 11.6913 14.0942Z" fill="#100F0D"/>
</g>
<mask id="mask24_10383_26007" style="mask-type:luminance" maskUnits="userSpaceOnUse" x="14" y="22" width="17" height="14">
<path d="M14.0352 22.738H30.8094V35.2431H14.0352V22.738Z" fill="white"/>
</mask>
<g mask="url(#mask24_10383_26007)">
<path d="M28.4287 25.8038V32.8653C28.4287 33.4954 27.9196 34.0044 27.2946 34.0044H17.3299C16.7049 34.0044 16.2009 33.4954 16.2009 32.8653V25.8038C16.2009 25.1788 16.7049 24.6698 17.3299 24.6698H27.2946C27.9196 24.6698 28.4287 25.1788 28.4287 25.8038ZM27.5567 23.4248L18.0809 23.4298V23.4248H17.0224C15.8279 23.5659 14.9609 24.5589 14.9609 25.7837V32.8552C14.9609 34.1708 16.0144 35.2444 17.3148 35.2444H27.2744C28.5698 35.2444 29.6232 34.1708 29.6232 32.8552V25.7837C29.6232 24.5589 28.7513 23.5659 27.5567 23.4248Z" fill="#100F0D"/>
</g>
<path d="M25.8466 16.4799C24.9394 15.5676 23.7448 15.0686 22.4797 15.0686C22.4596 15.0686 22.4394 15.0686 22.4192 15.0686C19.7227 15.0736 17.5352 17.2863 17.5352 20.0132V22.6039H18.3114V22.5031C18.3164 22.5182 18.3214 22.5283 18.3214 22.5283L18.3114 22.6039H19.9596V20.0132C19.9596 18.622 21.0634 17.493 22.4293 17.493H22.4545C23.0896 17.493 23.6995 17.745 24.1481 18.1986C24.6269 18.6775 24.894 19.3327 24.8839 20.0132V22.6039H27.3134V20.0132C27.3184 18.6876 26.7892 17.4124 25.8466 16.4799Z" fill="#100F0D"/>
<path d="M22.7049 29.6251C22.3722 29.6251 22.1001 29.3529 22.1001 29.0152C22.1001 28.6775 22.3722 28.4053 22.7049 28.4053C23.0426 28.4053 23.3148 28.6775 23.3148 29.0152C23.3148 29.3529 23.0426 29.6251 22.7049 29.6251ZM24.4388 28.5767C24.222 27.8106 23.5315 27.2864 22.7351 27.2864C21.7573 27.2864 20.9609 28.0827 20.9609 29.0707C20.9609 29.867 21.4801 30.5676 22.2462 30.7844V32.1704C22.2462 32.4376 22.468 32.6644 22.7351 32.6644C23.0073 32.6644 23.2291 32.4376 23.2291 32.1704V30.7844C24.1716 30.5122 24.716 29.5192 24.4388 28.5767Z" fill="#100F0D"/>
</g>
<defs>
<clipPath id="clip0_10383_26007">
<rect width="36.7742" height="30" fill="white" transform="translate(5 8.5459)"/>
</clipPath>
</defs>
</svg>
