<svg width="47" height="47" viewBox="0 0 47 47" fill="none" xmlns="http://www.w3.org/2000/svg">
<rect x="0.5" y="0.545898" width="46" height="46" rx="23" fill="white"/>
<g clip-path="url(#clip0_10383_26419)">
<mask id="mask0_10383_26419" style="mask-type:luminance" maskUnits="userSpaceOnUse" x="17" y="19" width="22" height="17">
<path d="M17 19.4365H38.2431V35.4365H17V19.4365Z" fill="white"/>
</mask>
<g mask="url(#mask0_10383_26419)">
<path d="M17.747 34.9424C17.6359 34.9424 17.5247 34.9008 17.4414 34.8139C17.2747 34.6473 17.2747 34.373 17.4414 34.2028L18.6914 32.9459C19.1081 32.5292 19.5942 32.2028 20.1359 31.9771C20.6775 31.7514 21.2504 31.6369 21.8372 31.6369H28.3407C29.3442 31.6369 30.3824 31.1612 31.122 30.3591L37.0004 23.5501C37.2365 23.2723 37.3685 22.9216 37.3685 22.557C37.3685 22.116 37.1775 21.6994 36.8477 21.4112C36.2227 20.866 35.2678 20.932 34.7227 21.5639L30.431 26.5362C30.2747 26.7167 30.0039 26.7376 29.8234 26.5813C29.6463 26.4251 29.6254 26.1508 29.7817 25.9702L34.0734 20.998C34.931 20.0084 36.4275 19.9008 37.4102 20.7619C37.931 21.2133 38.2261 21.866 38.2261 22.557C38.2261 23.1299 38.0213 23.682 37.6463 24.116L31.7643 30.932C31.7609 30.9355 31.7574 30.9389 31.7539 30.9424C31.3199 31.4112 30.7886 31.8035 30.2157 32.0709C29.6081 32.3556 28.9796 32.5014 28.3407 32.5014H21.8372C20.8789 32.5014 19.9761 32.8764 19.299 33.557L18.049 34.8139C17.9657 34.8973 17.8546 34.9424 17.747 34.9424Z" fill="black"/>
</g>
<mask id="mask1_10383_26419" style="mask-type:luminance" maskUnits="userSpaceOnUse" x="6" y="27" width="13" height="12">
<path d="M6.92969 27.0381H18.1797V38.3471H6.92969V27.0381Z" fill="white"/>
</mask>
<g mask="url(#mask1_10383_26419)">
<path d="M14.3533 38.3472C14.2422 38.3472 14.1345 38.3056 14.0512 38.2222L7.05469 31.191C6.88802 31.0209 6.88802 30.7466 7.05469 30.5799L10.447 27.1702C10.5269 27.0903 10.6345 27.0452 10.7491 27.0452C10.8637 27.0452 10.9714 27.0903 11.0512 27.1702L18.0477 34.2014C18.1276 34.2847 18.1727 34.3924 18.1727 34.507C18.1727 34.6216 18.1276 34.7327 18.0477 34.8125L14.6589 38.2222C14.572 38.3056 14.4644 38.3472 14.3533 38.3472ZM7.96788 30.8854L14.3533 37.3056L17.138 34.507L10.7491 28.0868L7.96788 30.8854Z" fill="black"/>
</g>
<path d="M28.2431 28.7373H21.3403C21.1042 28.7373 20.9097 28.5463 20.9097 28.3067C20.9097 28.0672 21.1042 27.8762 21.3403 27.8762H28.2431C29.0382 27.8762 29.684 27.2234 29.684 26.4248C29.684 26.3797 29.6806 26.338 29.6771 26.2963V26.2929C29.6493 25.9561 29.5 25.6401 29.2604 25.4005C28.9896 25.1262 28.6285 24.9769 28.2431 24.9769H15.3299C14.3715 24.9769 13.4722 25.3519 12.7951 26.0324L11.0521 27.7824C10.8854 27.9491 10.6146 27.9491 10.4479 27.7824C10.2778 27.6123 10.2778 27.338 10.4479 27.1713L12.1875 25.4213C12.6007 25.0047 13.0868 24.6783 13.6285 24.4526C14.1701 24.2269 14.7431 24.1123 15.3299 24.1123H28.2431C28.8576 24.1123 29.434 24.3554 29.8681 24.7894C30.25 25.1713 30.4861 25.6783 30.5347 26.2165C30.5382 26.2824 30.5417 26.3554 30.5417 26.4248C30.5417 27.7026 29.5104 28.7373 28.2431 28.7373Z" fill="black"/>
<mask id="mask2_10383_26419" style="mask-type:luminance" maskUnits="userSpaceOnUse" x="16" y="9" width="14" height="14">
<path d="M16.1094 9.68262H29.4427V22.1028H16.1094V9.68262Z" fill="white"/>
</mask>
<g mask="url(#mask2_10383_26419)">
<path d="M22.5729 22.0229C20.9132 22.0229 19.4097 21.3979 18.2361 20.2139C17.059 19.0333 16.4375 17.5264 16.4375 15.8528C16.4375 14.1826 17.059 12.6722 18.2361 11.4916C19.4097 10.3076 20.9132 9.68262 22.5729 9.68262C24.2361 9.68262 25.7361 10.3076 26.9132 11.4916C28.0903 12.6722 28.7118 14.1826 28.7118 15.8528C28.7118 17.5264 28.0903 19.0333 26.9132 20.2139C25.7396 21.3979 24.2361 22.0229 22.5729 22.0229ZM22.5729 10.5472C21.1458 10.5472 19.8542 11.0854 18.8438 12.1028C17.8333 13.1166 17.2986 14.4153 17.2986 15.8528C17.2986 17.2903 17.8333 18.5889 18.8438 19.6062C19.8542 20.6201 21.1458 21.1583 22.5729 21.1583C24.0035 21.1583 25.2951 20.6201 26.3056 19.6062C27.316 18.5889 27.8507 17.2903 27.8507 15.8528C27.8507 14.4153 27.316 13.1166 26.3056 12.1028C25.2951 11.0854 24.0035 10.5472 22.5729 10.5472Z" fill="black"/>
</g>
<path d="M24.2499 16.1288C24.1284 15.9309 23.9548 15.7712 23.736 15.6566C23.5138 15.5385 23.1631 15.4205 22.6909 15.3094C22.2048 15.1948 21.8888 15.0802 21.7569 14.9691C21.6423 14.8719 21.5867 14.7538 21.5867 14.6149C21.5867 14.4621 21.6458 14.3441 21.7708 14.2538C21.9444 14.1288 22.184 14.0628 22.486 14.0628C22.7777 14.0628 22.9999 14.1253 23.1527 14.2434C23.236 14.3128 23.3055 14.4031 23.3576 14.5142C23.427 14.667 23.5833 14.7642 23.7534 14.7573L23.7742 14.7538C23.9201 14.7503 24.0485 14.667 24.1215 14.542C24.1909 14.4135 24.1944 14.2642 24.1249 14.1392C24.052 14.0038 23.9513 13.8788 23.8298 13.7746C23.5347 13.5177 23.0867 13.3857 22.4965 13.3857C22.1319 13.3857 21.8194 13.4413 21.5624 13.5524C21.3124 13.66 21.118 13.8163 20.986 14.0212C20.8541 14.226 20.7847 14.4482 20.7847 14.6844C20.7847 15.0524 20.9235 15.358 21.2117 15.6149C21.4131 15.7989 21.7777 15.9587 22.2916 16.0837C22.7083 16.1878 22.9687 16.2607 23.0867 16.3024C23.2708 16.3649 23.3958 16.4413 23.4722 16.535C23.5485 16.6288 23.5902 16.7434 23.5902 16.8753C23.5902 17.0767 23.4999 17.2538 23.3229 17.4031C23.1492 17.5489 22.8923 17.6219 22.5624 17.6219C22.2465 17.6219 21.9895 17.5385 21.802 17.3788C21.6874 17.2781 21.5937 17.1427 21.5277 16.976C21.4617 16.8198 21.3124 16.7191 21.1423 16.7191C21.1284 16.7191 21.1145 16.7191 21.1006 16.7225C20.9687 16.733 20.8541 16.8094 20.7847 16.9205C20.7152 17.035 20.7048 17.167 20.7499 17.2885C20.8506 17.5385 20.993 17.7434 21.177 17.9031C21.493 18.1774 21.9548 18.3163 22.552 18.3163C22.9652 18.3163 23.3124 18.2573 23.5867 18.1427C23.8541 18.0316 24.0659 17.8545 24.2117 17.6253C24.3576 17.3927 24.434 17.1392 24.434 16.8719C24.434 16.5767 24.3715 16.3267 24.2499 16.1288Z" fill="black"/>
<path d="M22.5755 13.9041C22.3394 13.9041 22.1484 13.7131 22.1484 13.4735V13.1159C22.1484 12.8797 22.3394 12.6853 22.5755 12.6853C22.8151 12.6853 23.0061 12.8797 23.0061 13.1159V13.4735C23.0061 13.7131 22.8151 13.9041 22.5755 13.9041Z" fill="black"/>
<path d="M22.5755 19.0186C22.3394 19.0186 22.1484 18.8241 22.1484 18.588V18.2304C22.1484 17.9942 22.3394 17.7998 22.5755 17.7998C22.8151 17.7998 23.0061 17.9942 23.0061 18.2304V18.588C23.0061 18.8241 22.8151 19.0186 22.5755 19.0186Z" fill="black"/>
</g>
<defs>
<clipPath id="clip0_10383_26419">
<rect width="31.3333" height="30" fill="white" transform="translate(7 8.5459)"/>
</clipPath>
</defs>
</svg>
