<svg width="46" height="47" viewBox="0 0 46 47" fill="none" xmlns="http://www.w3.org/2000/svg">
<rect y="0.545898" width="46" height="46" rx="23" fill="white"/>
<path fill-rule="evenodd" clip-rule="evenodd" d="M29.9911 21.1342C29.7799 21.1342 29.5688 21.0793 29.3829 20.9695C29.2267 20.8766 29.1718 20.6739 29.2647 20.5176C29.3576 20.3614 29.5645 20.3107 29.7208 20.4036C29.839 20.4712 29.9784 20.4965 30.1009 20.4627C30.1642 20.4458 30.2529 20.4078 30.3078 20.3149C30.4134 20.1418 30.3204 19.8926 30.1009 19.7659C29.9826 19.6941 29.8433 19.673 29.7208 19.7026C29.6574 19.7195 29.5688 19.7575 29.5139 19.8504C29.3703 20.0911 29.1296 20.2558 28.8382 20.3149C28.5595 20.3656 28.2681 20.3149 28.0189 20.1671C27.4868 19.8546 27.2884 19.2043 27.5797 18.7144C27.7107 18.4906 27.9302 18.3301 28.1921 18.2625C28.4835 18.1908 28.8044 18.2372 29.0747 18.3977C29.2309 18.4906 29.2816 18.6891 29.1887 18.8453C29.0958 19.0016 28.8931 19.0565 28.7368 18.9636C28.6186 18.8918 28.4792 18.8707 28.3568 18.9002C28.2934 18.9171 28.2047 18.9551 28.1498 19.048C28.0443 19.2254 28.1372 19.4703 28.3568 19.6012C28.4666 19.6646 28.5933 19.6899 28.7115 19.6688C28.8128 19.6477 28.8973 19.5928 28.9438 19.5125C29.0747 19.293 29.2943 19.1325 29.5561 19.0649C29.8475 18.9889 30.1684 19.0396 30.4387 19.1958C30.9708 19.5083 31.165 20.1629 30.8737 20.6485C30.7427 20.8723 30.5232 21.0328 30.2613 21.1004C30.1769 21.1257 30.084 21.1342 29.9911 21.1342Z" fill="black"/>
<path fill-rule="evenodd" clip-rule="evenodd" d="M27.8621 19.2095C27.8114 19.2095 27.7608 19.2011 27.7101 19.1758L27.2667 18.9435C27.1062 18.859 27.0429 18.6605 27.1273 18.5001C27.2118 18.3396 27.4145 18.2763 27.575 18.3607L28.0184 18.5888C28.1788 18.6732 28.2422 18.8717 28.1577 19.0322C28.0986 19.1462 27.9846 19.2095 27.8621 19.2095Z" fill="black"/>
<path fill-rule="evenodd" clip-rule="evenodd" d="M31.034 21.0416C30.9833 21.0416 30.9284 21.0289 30.882 21.0036L30.4386 20.7755C30.2781 20.6911 30.2147 20.4926 30.2992 20.3321C30.3837 20.1716 30.5821 20.1083 30.7468 20.1927L31.186 20.4208C31.3507 20.5052 31.4141 20.7037 31.3296 20.8642C31.2705 20.9782 31.1522 21.0416 31.034 21.0416Z" fill="black"/>
<path fill-rule="evenodd" clip-rule="evenodd" d="M29.2286 23.1866C29.1949 23.1866 29.1611 23.1866 29.1315 23.1866C28.9457 23.1782 28.8021 23.0304 28.8063 22.8488C28.8106 22.6672 28.9668 22.5236 29.1484 22.5278C30.1915 22.5574 31.167 22.0211 31.6991 21.13C32.5015 19.7829 32.0496 18.0304 30.6898 17.2322C29.33 16.4341 27.569 16.8817 26.7624 18.2331C26.1797 19.2086 26.2388 20.4332 26.906 21.3496C27.0158 21.4974 26.982 21.7043 26.8342 21.8099C26.6864 21.9155 26.4753 21.8859 26.3697 21.7381C25.5462 20.6064 25.4744 19.0988 26.1923 17.8994C27.1847 16.2356 29.3553 15.6824 31.0276 16.6663C32.7042 17.6503 33.2616 19.804 32.2692 21.4679C31.6315 22.5363 30.4744 23.1866 29.2286 23.1866Z" fill="black"/>
<path fill-rule="evenodd" clip-rule="evenodd" d="M32.1063 14.1583C31.8318 14.1583 31.6122 14.3779 31.6122 14.6439C31.6122 14.9142 31.8318 15.1338 32.1063 15.1338C32.3766 15.1338 32.5962 14.9142 32.5962 14.6439C32.5962 14.3779 32.3766 14.1583 32.1063 14.1583ZM32.1063 15.7926C31.4686 15.7926 30.9492 15.2774 30.9492 14.6439C30.9492 14.0147 31.4686 13.4995 32.1063 13.4995C32.7398 13.4995 33.2592 14.0147 33.2592 14.6439C33.2592 15.2774 32.7398 15.7926 32.1063 15.7926Z" fill="black"/>
<mask id="mask0_10383_25962" style="mask-type:luminance" maskUnits="userSpaceOnUse" x="9" y="24" width="9" height="12">
<path d="M9.44141 24.761H17.351V35.8885H9.44141V24.761Z" fill="white"/>
</mask>
<g mask="url(#mask0_10383_25962)">
<path fill-rule="evenodd" clip-rule="evenodd" d="M12.381 26.0506C12.3218 26.0506 12.2585 26.0632 12.1994 26.0886L10.2864 26.8571C10.2273 26.8783 10.2019 26.9416 10.223 27.0007L13.234 35.1553C13.2467 35.1933 13.2762 35.2144 13.2931 35.2186C13.3142 35.2271 13.3438 35.2355 13.3818 35.2228L15.3202 34.4416C15.5651 34.3445 15.6833 34.0742 15.5947 33.8293L12.837 26.3673C12.7948 26.2448 12.7019 26.1477 12.5794 26.0928C12.5161 26.0674 12.4485 26.0506 12.381 26.0506ZM13.3396 35.8901C13.234 35.8901 13.1284 35.8647 13.0271 35.8225C12.8328 35.7381 12.685 35.5818 12.6132 35.3833L9.59803 27.2245C9.45445 26.8318 9.6487 26.4011 10.0372 26.2448L11.9502 25.4762C12.2416 25.358 12.5626 25.3664 12.8497 25.4931C13.1369 25.6198 13.3523 25.8478 13.462 26.1435L16.2154 33.6054C16.4308 34.184 16.1436 34.8217 15.5693 35.0539L13.631 35.831C13.5381 35.869 13.4367 35.8901 13.3396 35.8901Z" fill="black"/>
</g>
<path fill-rule="evenodd" clip-rule="evenodd" d="M14.0794 34.1365C14.0583 34.1365 14.0372 34.1323 14.016 34.1281C13.9949 34.1238 13.9738 34.1196 13.9527 34.1112C13.9316 34.1027 13.9147 34.09 13.8936 34.0816C13.8767 34.0689 13.8598 34.0563 13.8471 34.0394C13.7838 33.9803 13.75 33.8958 13.75 33.8071C13.75 33.786 13.75 33.7649 13.7542 33.7438C13.7584 33.7227 13.7669 33.7015 13.7753 33.6804C13.7838 33.6593 13.7922 33.6424 13.8049 33.6255C13.8176 33.6044 13.8302 33.5875 13.8471 33.5748C13.8598 33.558 13.8767 33.5453 13.8936 33.5326C13.9147 33.5199 13.9316 33.5115 13.9527 33.5031C13.9738 33.4946 13.9949 33.4904 14.016 33.4862C14.1216 33.465 14.2399 33.4988 14.3159 33.5748C14.3285 33.5917 14.3454 33.6044 14.3539 33.6255C14.3666 33.6424 14.3792 33.6635 14.3834 33.6804C14.3919 33.7015 14.4003 33.7227 14.4046 33.7438C14.4088 33.7649 14.413 33.786 14.413 33.8071C14.413 33.8282 14.4088 33.8493 14.4046 33.8705C14.4003 33.8916 14.3919 33.9127 14.3834 33.9338C14.3792 33.9549 14.3666 33.9718 14.3539 33.9887C14.3454 34.0098 14.3285 34.0267 14.3159 34.0394C14.2525 34.1027 14.1681 34.1365 14.0794 34.1365Z" fill="black"/>
<path fill-rule="evenodd" clip-rule="evenodd" d="M13.2842 26.9456C13.149 26.9456 13.0266 26.8653 12.9759 26.7344C12.9083 26.5655 12.997 26.3755 13.1659 26.3121L13.66 26.1221C14.1456 25.9405 14.5553 25.6111 14.8424 25.1804L18.2968 19.9397C18.8754 19.0613 19.758 18.4194 20.7757 18.1322L24.1752 17.1736C24.3483 17.1272 24.5342 17.2285 24.5848 17.4017C24.6355 17.5748 24.5299 17.7564 24.3568 17.8071L20.9531 18.7657C20.0916 19.0106 19.3441 19.5554 18.85 20.3028L15.3956 25.5393C15.0325 26.0883 14.513 26.5022 13.8965 26.7387L13.4024 26.9245C13.3644 26.9414 13.3222 26.9456 13.2842 26.9456Z" fill="black"/>
<path fill-rule="evenodd" clip-rule="evenodd" d="M15.7487 33.618C15.6094 33.618 15.4827 33.5335 15.4362 33.3984C15.3771 33.2253 15.4658 33.0395 15.639 32.9803C16.5807 32.6552 17.7969 32.2835 18.6584 32.0597L20.3391 31.6248C21.8341 31.232 23.1474 30.4001 24.1271 29.2134L24.4396 28.8376C24.5536 28.694 24.7648 28.6771 24.9042 28.7911C25.0477 28.9052 25.0688 29.1121 24.9506 29.2557L24.6381 29.6315C23.5697 30.9237 22.1381 31.8317 20.508 32.2582L18.8273 32.6974C17.9785 32.917 16.7834 33.2802 15.8585 33.6011C15.8205 33.6138 15.7868 33.618 15.7487 33.618Z" fill="black"/>
<mask id="mask1_10383_25962" style="mask-type:luminance" maskUnits="userSpaceOnUse" x="20" y="9" width="19" height="24">
<path d="M20.5938 9.13257H38.6301V32.3294H20.5938V9.13257Z" fill="white"/>
</mask>
<g mask="url(#mask1_10383_25962)">
<path fill-rule="evenodd" clip-rule="evenodd" d="M25.1913 28.9654L28.4768 30.9925C28.5317 31.0263 28.5823 31.0178 28.6077 31.0136C28.6372 31.0051 28.6837 30.9882 28.7175 30.9291L37.818 14.9621C37.8644 14.8776 37.8349 14.7763 37.7546 14.7298L35.4151 13.3911C35.4067 13.3869 35.4024 13.3827 35.3982 13.3827L29.2116 9.84382C29.1567 9.81004 29.1018 9.81849 29.0764 9.82693C29.0511 9.83115 29.0046 9.85227 28.9751 9.90717L21.8636 22.3861C21.5975 22.8464 21.6904 23.4165 22.0874 23.7754C22.2985 23.9654 22.5688 24.0668 22.8518 24.0668C23.1389 24.0668 23.4134 23.9654 23.6246 23.7712L26.0485 21.5584C26.1795 21.4401 26.3273 21.3388 26.4877 21.2543C27.1507 20.9122 27.9531 20.9545 28.5781 21.3725C29.0764 21.7062 29.3974 22.2298 29.4692 22.821C29.4776 22.897 29.4818 22.9773 29.4818 23.0575C29.4818 23.5263 29.3171 23.9866 29.0173 24.3497L25.1913 28.9654ZM28.5654 31.6766C28.4092 31.6766 28.2614 31.6344 28.1262 31.5499L24.5198 29.3244C24.4396 29.2779 24.3847 29.1935 24.3678 29.1006C24.3551 29.0077 24.3805 28.9105 24.4396 28.8388L28.5063 23.9317C28.709 23.6825 28.8188 23.3785 28.8188 23.0575C28.8188 23.0026 28.8188 22.9519 28.8104 22.9013V22.897C28.7639 22.5001 28.5443 22.1411 28.2107 21.9173C27.7884 21.6344 27.2436 21.6048 26.7918 21.8413C26.6862 21.8962 26.5849 21.9638 26.4962 22.044L24.0722 24.2568C23.7386 24.5609 23.3036 24.7256 22.8518 24.7256C22.4041 24.7256 21.9734 24.5609 21.644 24.2653C21.0148 23.6994 20.8712 22.7915 21.285 22.0609L28.3965 9.582C28.5063 9.38774 28.6879 9.25261 28.9033 9.18926C29.1229 9.13436 29.3467 9.16392 29.5409 9.27372L35.7445 12.821C35.7487 12.821 35.7572 12.8252 35.7614 12.8295L38.0882 14.1597C38.481 14.3835 38.6246 14.8903 38.3965 15.2872L37.0663 17.6183L29.2918 31.2543C29.1778 31.4528 28.9962 31.5921 28.7724 31.6513C28.7048 31.6681 28.633 31.6766 28.5654 31.6766Z" fill="black"/>
</g>
<path fill-rule="evenodd" clip-rule="evenodd" d="M28.9343 12.8112C28.322 12.8112 27.7181 12.6549 27.1902 12.3551C27.0339 12.2664 26.9748 12.068 27.0677 11.9075C27.1564 11.7512 27.3591 11.6963 27.5196 11.785C27.9461 12.0257 28.436 12.1524 28.9343 12.1524C29.9562 12.1524 30.9064 11.6077 31.4174 10.7293C31.5103 10.5688 31.713 10.5181 31.8735 10.6068C32.0297 10.6997 32.0846 10.8982 31.9917 11.0587C31.3625 12.1397 30.1885 12.8112 28.9343 12.8112Z" fill="black"/>
<path fill-rule="evenodd" clip-rule="evenodd" d="M36.7716 17.7857C36.7167 17.7857 36.6618 17.7689 36.6069 17.7435C35.5048 17.1185 34.8164 15.9488 34.8164 14.6903C34.8164 14.0738 34.9769 13.4699 35.2894 12.9378C35.3781 12.7815 35.5808 12.7266 35.7412 12.8195C35.8975 12.9082 35.9524 13.1109 35.8637 13.2672C35.6103 13.6979 35.4794 14.1878 35.4794 14.6903C35.4794 15.7123 36.0368 16.6624 36.9363 17.1692C37.0968 17.2579 37.1517 17.4606 37.0588 17.6168C36.9997 17.7266 36.8857 17.7857 36.7716 17.7857Z" fill="black"/>
<path fill-rule="evenodd" clip-rule="evenodd" d="M26.025 30.1965C25.9659 30.1965 25.9025 30.1796 25.8477 30.1458C25.6914 30.0487 25.6449 29.846 25.7421 29.694C26.3924 28.6594 27.5157 28.0386 28.7446 28.0386C29.3527 28.0386 29.9566 28.1948 30.4845 28.4947C30.6449 28.5833 30.6998 28.7818 30.6069 28.9423C30.5183 29.0985 30.3156 29.1534 30.1551 29.0648C29.7286 28.824 29.2387 28.6974 28.7446 28.6974C27.7438 28.6974 26.8358 29.1999 26.3037 30.0403C26.2446 30.1416 26.1348 30.1965 26.025 30.1965Z" fill="black"/>
</svg>
