<svg width="47" height="47" viewBox="0 0 47 47" fill="none" xmlns="http://www.w3.org/2000/svg">
<rect x="0.5" y="0.545898" width="46" height="46" rx="23" fill="white"/>
<g clip-path="url(#clip0_10383_26627)">
<path d="M28.3742 34.3651C28.3327 34.3651 28.2498 34.4066 28.2084 34.4066C28.1669 34.448 28.1255 34.448 28.084 34.4895C28.0426 34.5309 28.0011 34.5724 27.9597 34.6138C27.9182 34.6553 27.8768 34.6967 27.8353 34.7382C27.7938 34.7828 27.7938 34.8243 27.7524 34.8657C27.7524 34.9072 27.7109 34.9901 27.7109 35.0316C27.7109 35.073 27.7109 35.1559 27.7109 35.1974C27.7109 35.3217 27.7109 35.4046 27.7524 35.5322C27.7938 35.6151 27.8768 35.7395 27.9182 35.7809C28.0011 35.8638 28.084 35.9053 28.1669 35.9467C28.2913 35.9882 28.3742 36.0296 28.4986 36.0296C28.709 36.0296 28.9163 35.9467 29.0821 35.7809C29.165 35.698 29.2065 35.6151 29.2479 35.5322C29.2894 35.4046 29.3308 35.3217 29.3308 35.1974C29.3308 35.1559 29.3308 35.073 29.3308 35.0316C29.3308 34.9901 29.2894 34.9072 29.2894 34.8657C29.2894 34.8243 29.2479 34.7828 29.2065 34.7382C29.165 34.6967 29.1236 34.6553 29.0821 34.6138C28.9577 34.4066 28.6676 34.3236 28.3742 34.3651Z" fill="black"/>
<path d="M25.7161 26.7474C25.8819 26.7474 26.0477 26.706 26.1721 26.623C26.5452 26.3711 26.6727 25.8322 26.3794 25.456C26.1307 25.0829 25.5886 24.9553 25.2155 25.2072C24.8424 25.456 24.7148 25.998 24.9668 26.3711C25.2155 26.623 25.4642 26.7474 25.7161 26.7474Z" fill="black"/>
<path d="M26.5003 29.1202C26.6278 29.4518 26.9595 29.6209 27.2497 29.6209C27.374 29.6209 27.4569 29.6209 27.5845 29.5379C27.999 29.3689 28.2063 28.8715 28.0405 28.4538C27.8747 28.0392 27.374 27.8288 26.9595 27.9978C26.5003 28.205 26.3345 28.7025 26.5003 29.1202Z" fill="black"/>
<path d="M27.4168 32.0758C27.4997 32.4904 27.8345 32.7423 28.2491 32.7423C28.2905 32.7423 28.3734 32.7423 28.4149 32.7423C28.8741 32.6594 29.1642 32.2002 29.0813 31.741C28.9984 31.285 28.5424 30.9916 28.0832 31.0777C27.6273 31.2021 27.2924 31.6166 27.4168 32.0758Z" fill="black"/>
<path d="M23.6752 24.2502C23.8857 24.2502 24.093 24.1641 24.2588 23.9983C24.5904 23.6666 24.5904 23.166 24.2588 22.8344C23.9271 22.4995 23.385 22.4995 23.0949 22.8344C22.76 23.166 22.76 23.6666 23.0949 23.9983C23.2192 24.1641 23.4265 24.2502 23.6752 24.2502Z" fill="black"/>
<path d="M30.1484 33.8394V37.7105C30.1484 37.9752 30.3653 38.192 30.6331 38.192H37.4061C37.6739 38.192 37.8908 37.9752 37.8908 37.7105V33.8394C37.8908 32.3948 36.8321 31.1959 35.4514 30.9726C36.121 30.5135 36.5611 29.7482 36.5611 28.8776C36.5611 27.4746 35.4195 26.3394 34.0196 26.3394C32.6197 26.3394 31.4782 27.4746 31.4782 28.8776C31.4782 29.7482 31.9182 30.5198 32.5879 30.9726C31.2071 31.1959 30.1484 32.3917 30.1484 33.8394ZM32.4475 28.8776C32.4475 28.0135 33.1523 27.3056 34.0196 27.3056C34.887 27.3056 35.5917 28.0135 35.5917 28.8776C35.5917 29.745 34.887 30.4497 34.0196 30.4497C33.1523 30.4497 32.4475 29.745 32.4475 28.8776ZM31.1178 33.8394C31.1178 32.7679 31.982 31.9038 33.0502 31.9038H34.9858C36.0572 31.9038 36.9214 32.7679 36.9214 33.8394V37.2258H31.1178V33.8394Z" fill="black"/>
<mask id="mask0_10383_26627" style="mask-type:luminance" maskUnits="userSpaceOnUse" x="17" y="8" width="15" height="16">
<path d="M17.2461 8.67529H31.1236V23.8507H17.2461V8.67529Z" fill="white"/>
</mask>
<g mask="url(#mask0_10383_26627)">
<path d="M30.6376 19.3194V9.64468C30.6376 9.11216 30.2007 8.67529 29.6682 8.67529H19.0241C18.4916 8.67529 18.0547 9.11216 18.0547 9.64468V19.3194C18.0547 19.852 18.4916 20.2888 19.0241 20.2888H23.0292L23.887 22.8622C23.9539 23.0599 24.1389 23.1906 24.3461 23.1906C24.5534 23.1906 24.7384 23.0567 24.8053 22.8622L25.6631 20.2888H29.6682C30.2007 20.2888 30.6376 19.852 30.6376 19.3194ZM25.3155 19.3194C25.1051 19.3194 24.9233 19.4565 24.8532 19.6511L24.3461 21.1753L23.8391 19.6511C23.7722 19.4502 23.5872 19.3194 23.3799 19.3194H19.0241V9.64468H29.6682V19.3194H25.3155Z" fill="black"/>
</g>
<mask id="mask1_10383_26627" style="mask-type:luminance" maskUnits="userSpaceOnUse" x="29" y="11" width="11" height="14">
<path d="M29.4883 11.6084H39.3416V24.6696H29.4883V11.6084Z" fill="white"/>
</mask>
<g mask="url(#mask1_10383_26627)">
<path d="M38.3758 12.0625H32.0843V13.0319H38.3758V21.7404H34.8458C34.6545 21.7404 34.4791 21.8552 34.4026 22.037L34.0199 22.9298L33.6373 22.037C33.5607 21.8552 33.3854 21.7404 33.194 21.7404H29.6641V22.7098H32.872L33.5735 24.3489C33.6532 24.5274 33.8254 24.6454 34.0199 24.6454C34.2144 24.6454 34.3866 24.5274 34.4664 24.3489L35.1679 22.7098H38.3758C38.9083 22.7098 39.342 22.273 39.342 21.7404V13.0319C39.342 12.4994 38.9083 12.0625 38.3758 12.0625Z" fill="black"/>
</g>
<path d="M10.793 33.8394V37.7105C10.793 37.9752 11.013 38.192 11.2777 38.192H18.0506C18.3185 38.192 18.5353 37.9752 18.5353 37.7105V33.8394C18.5353 32.3948 17.4766 31.1959 16.0959 30.9726C16.7655 30.5135 17.2056 29.7482 17.2056 28.8776C17.2056 27.4746 16.064 26.3394 14.6641 26.3394C13.2675 26.3394 12.1259 27.4746 12.1259 28.8776C12.1259 29.7482 12.5659 30.5198 13.2324 30.9726C11.8548 31.1959 10.793 32.3917 10.793 33.8394ZM13.0921 28.8776C13.0921 28.0135 13.8 27.3056 14.6641 27.3056C15.5315 27.3056 16.2362 28.0135 16.2362 28.8776C16.2362 29.745 15.5315 30.4497 14.6641 30.4497C13.8 30.4497 13.0921 29.745 13.0921 28.8776ZM11.7624 33.8394C11.7624 32.7679 12.6265 31.9038 13.6979 31.9038H15.6335C16.7018 31.9038 17.5691 32.7679 17.5691 33.8394V37.2258H11.7624V33.8394Z" fill="black"/>
<mask id="mask2_10383_26627" style="mask-type:luminance" maskUnits="userSpaceOnUse" x="9" y="11" width="11" height="14">
<path d="M9.33984 11.6084H19.6906V24.6696H9.33984V11.6084Z" fill="white"/>
</mask>
<g mask="url(#mask2_10383_26627)">
<path d="M10.3092 22.7098H13.5171L14.2187 24.3489C14.2952 24.5274 14.4706 24.6454 14.6619 24.6454C14.8564 24.6454 15.0318 24.5274 15.1083 24.3489L15.8099 22.7098H19.0178V21.7404H15.491C15.2965 21.7404 15.1211 21.8552 15.0446 22.037L14.6619 22.9298L14.2793 22.037C14.2027 21.8552 14.0305 21.7404 13.836 21.7404H10.3092V13.0319H16.5975V12.0625H10.3092C9.77671 12.0625 9.33984 12.4994 9.33984 13.0319V21.7404C9.33984 22.273 9.77671 22.7098 10.3092 22.7098Z" fill="black"/>
</g>
<path d="M26.9778 13.5145H26.4771L26.7354 12.4941C26.8789 11.9138 26.56 11.3302 26.0147 11.1548C25.4567 10.9795 24.8636 11.2696 24.6531 11.8117L24.1748 13.0936C24.0824 13.3455 23.8368 13.5145 23.569 13.5145H23.3776C23.3776 13.2499 23.1576 13.0362 22.8929 13.0362H20.9574C20.6895 13.0362 20.4727 13.2562 20.4727 13.5209V17.3921C20.4727 17.6568 20.6895 17.8768 20.9574 17.8768H22.8929C23.1289 17.8768 23.317 17.7014 23.3585 17.4782L23.8304 17.7939C23.9102 17.8481 24.0058 17.8768 24.0983 17.8768H26.7641C27.3923 17.8768 27.9248 17.4017 27.9918 16.7735L28.2022 14.8857C28.2405 14.5381 28.1289 14.1842 27.8897 13.9227C27.6538 13.6612 27.319 13.5113 26.9682 13.5113L26.9778 13.5145ZM22.4082 16.9074H21.442V14.0056H22.4082V16.9074ZM27.0352 16.665C27.0192 16.8022 26.9044 16.9074 26.7673 16.9074H24.2482L23.6423 16.5056C23.5658 16.4546 23.4669 16.4227 23.3776 16.4227V14.4839H23.5658C24.2322 14.4839 24.8413 14.063 25.0804 13.4348L25.5588 12.1529C25.5779 12.0923 25.6448 12.0509 25.7246 12.0732C25.782 12.0923 25.8139 12.1816 25.7947 12.2518L25.3897 13.8781C25.3515 14.0247 25.3897 14.1778 25.4758 14.2958C25.5651 14.4106 25.7086 14.4775 25.8585 14.4775H26.9778C27.083 14.4775 27.1468 14.5381 27.1787 14.57C27.2137 14.6051 27.2584 14.6784 27.2488 14.7805L27.0383 16.665H27.0352Z" fill="black"/>
<path d="M33.5919 19.0788L34.421 19.7102C34.5071 19.7772 34.6091 19.8059 34.7112 19.8059C34.8132 19.8059 34.9184 19.7708 35.0013 19.7102L35.8272 19.0788C36.3502 18.6834 36.7903 18.1892 37.141 17.6088C37.546 16.936 37.4695 16.0623 36.9465 15.4851C36.6468 15.1503 36.2386 14.9685 35.8049 14.9685C35.3872 14.9685 35.0013 15.1375 34.7048 15.4404C34.4114 15.1375 34.0192 14.9685 33.6079 14.9685C33.171 14.9685 32.766 15.1503 32.4663 15.4851C31.9497 16.0623 31.8668 16.936 32.2718 17.6088C32.6193 18.1892 33.0626 18.6834 33.5823 19.0788H33.5919ZM33.1933 16.1324C33.3081 16.0017 33.458 15.9347 33.6142 15.9347C33.7673 15.9347 33.9235 16.008 34.0383 16.1324L34.3572 16.4864C34.5422 16.6904 34.8961 16.6904 35.0747 16.4864L35.3936 16.1324C35.6263 15.8773 36.009 15.8773 36.2386 16.1324C36.4682 16.3907 36.5065 16.8052 36.3215 17.1114C36.0377 17.5865 35.6774 17.9883 35.2533 18.3103L34.7144 18.7185L34.1786 18.3103C33.7545 17.9915 33.3942 17.5865 33.1104 17.1114C32.9255 16.8116 32.9637 16.3907 33.1933 16.1324Z" fill="black"/>
<path d="M12.0078 15.21H12.974V16.1762H12.0078V15.21Z" fill="black"/>
<path d="M14.4219 15.21H15.3913V16.1762H14.4219V15.21Z" fill="black"/>
<path d="M13.6976 19.5631C15.0337 19.5631 16.1179 18.4789 16.1179 17.146H15.1485C15.1485 17.9432 14.4948 18.5969 13.6976 18.5969C12.8972 18.5969 12.2467 17.9432 12.2467 17.146H11.2773C11.2773 18.4789 12.3615 19.5631 13.6976 19.5631Z" fill="black"/>
</g>
<defs>
<clipPath id="clip0_10383_26627">
<rect width="36.7347" height="30" fill="white" transform="translate(5 8.5459)"/>
</clipPath>
</defs>
</svg>
