<svg width="47" height="47" viewBox="0 0 47 47" fill="none" xmlns="http://www.w3.org/2000/svg">
<g clip-path="url(#clip0_10383_26767)">
<rect x="0.5" y="0.545898" width="46" height="46" rx="23" fill="white"/>
<g clip-path="url(#clip1_10383_26767)">
<mask id="mask0_10383_26767" style="mask-type:luminance" maskUnits="userSpaceOnUse" x="6" y="8" width="34" height="30">
<path d="M6.66406 8.1748H39.2567V37.8912H6.66406V8.1748Z" fill="white"/>
</mask>
<g mask="url(#mask0_10383_26767)">
<path d="M19.6612 23.5511H22.5894V34.1761C21.7619 34.3844 21.1542 35.1252 21.1542 36.0048C21.1542 37.0464 22.0107 37.8914 23.0639 37.8914C24.1172 37.8914 24.9795 37.0464 24.9795 36.0048C24.9795 35.1252 24.366 34.3844 23.5385 34.1761V23.5511H26.4725V31.5893L29.1403 33.7015C29.0362 33.933 28.9783 34.1877 28.9783 34.4539C28.9783 35.4955 29.8406 36.3404 30.8938 36.3404C31.947 36.3404 32.8035 35.4955 32.8035 34.4539C32.8035 33.4122 31.947 32.5615 30.8938 32.5615C30.454 32.5615 30.0489 32.712 29.7248 32.9608L27.4216 31.1379V23.5511H30.4193V27.7351L33.2144 29.9921C33.0639 30.264 32.9771 30.5708 32.9771 30.9006C32.9771 31.9423 33.8336 32.793 34.8927 32.793C35.9459 32.793 36.8024 31.9423 36.8024 30.9006C36.8024 29.8589 35.9459 29.014 34.8927 29.014C34.5107 29.014 34.1577 29.124 33.8626 29.3092C33.851 29.2976 33.8394 29.286 33.8278 29.2745L31.3683 27.2895V23.5511H38.7237C38.9841 23.5511 39.1982 23.3427 39.1982 23.0823C39.1982 22.8219 38.9841 22.6136 38.7237 22.6136H37.3406V21.7455C37.3406 20.5534 36.3568 19.5812 35.1531 19.5812H33.851C33.4633 19.5812 33.145 19.3728 32.9945 19.0198C32.8498 18.6668 32.9193 18.2964 33.1971 18.0245L34.1172 17.1159C34.9679 16.271 34.9679 14.8995 34.1172 14.0603L32.2017 12.168C31.3452 11.3231 29.9621 11.3231 29.1056 12.168L28.1855 13.0765C27.9135 13.3485 27.5373 13.418 27.1785 13.2733C26.8197 13.1286 26.6056 12.8103 26.6056 12.4284V11.1437C26.6056 9.95154 25.6276 8.98511 24.4181 8.98511H21.7098C20.5061 8.98511 19.5223 9.95154 19.5223 11.1437V12.4284C19.5223 12.8103 19.3082 13.1286 18.9494 13.2733C18.5964 13.418 18.2202 13.3485 17.9424 13.0765L17.0223 12.168C16.1716 11.3231 14.7827 11.3231 13.932 12.168L12.0107 14.0603C11.16 14.8995 11.16 16.271 12.0107 17.1159L12.9366 18.0245C13.2086 18.2964 13.2839 18.6668 13.1334 19.0198C12.9887 19.3728 12.6646 19.5812 12.2827 19.5812H10.9748C9.77112 19.5812 8.78733 20.5534 8.78733 21.7455V22.6136H7.40422C7.14381 22.6136 6.92969 22.8219 6.92969 23.0823C6.92969 23.3427 7.14381 23.5511 7.40422 23.5511H14.7595V27.2895L12.3001 29.2745C12.2885 29.286 12.2769 29.2976 12.2653 29.3092C11.9702 29.124 11.6172 29.014 11.241 29.014C10.1878 29.014 9.32552 29.8589 9.32552 30.9006C9.32552 31.9423 10.1878 32.793 11.241 32.793C12.2943 32.793 13.1508 31.9423 13.1508 30.9006C13.1508 30.5708 13.0639 30.264 12.9193 29.9921L15.7144 27.7351V23.5511H18.7063V31.1379L16.4031 32.9608C16.079 32.712 15.6797 32.5615 15.2341 32.5615C14.1808 32.5615 13.3244 33.4122 13.3244 34.4539C13.3244 35.4955 14.1808 36.3404 15.2341 36.3404C16.2931 36.3404 17.1496 35.4955 17.1496 34.4539C17.1496 34.1877 17.0917 33.933 16.9933 33.7015L19.6612 31.5893V23.5511ZM24.0246 36.0048C24.0246 36.5256 23.5964 36.9539 23.0639 36.9539C22.5373 36.9539 22.1033 36.5256 22.1033 36.0048C22.1033 35.4839 22.5373 35.0557 23.0639 35.0557C23.5964 35.0557 24.0246 35.4839 24.0246 36.0048ZM30.8938 33.5048C31.4204 33.5048 31.8545 33.9272 31.8545 34.4539C31.8545 34.9747 31.4204 35.4029 30.8938 35.4029C30.3614 35.4029 29.9332 34.9747 29.9332 34.4539C29.9332 33.9272 30.3614 33.5048 30.8938 33.5048ZM34.8927 29.9515C35.4193 29.9515 35.8533 30.3798 35.8533 30.9006C35.8533 31.4272 35.4193 31.8497 34.8927 31.8497C34.3602 31.8497 33.9262 31.4272 33.9262 30.9006C33.9262 30.3798 34.3602 29.9515 34.8927 29.9515ZM11.241 31.8497C10.7086 31.8497 10.2804 31.4272 10.2804 30.9006C10.2804 30.3798 10.7086 29.9515 11.241 29.9515C11.7676 29.9515 12.2017 30.3798 12.2017 30.9006C12.2017 31.4272 11.7676 31.8497 11.241 31.8497ZM9.74219 21.7455C9.74219 21.0684 10.2977 20.5245 10.9748 20.5245H12.2827C13.0524 20.5245 13.7179 20.0846 14.013 19.3786C14.3082 18.6726 14.1519 17.8971 13.6079 17.3589L12.6878 16.4504C12.2017 15.9758 12.2017 15.2004 12.6878 14.7258L14.6033 12.8335C15.0836 12.3532 15.8649 12.3532 16.351 12.8335L17.2711 13.7421C17.8151 14.2802 18.6021 14.4365 19.3139 14.1414C20.0315 13.852 20.4771 13.1923 20.4771 12.4284V11.1437C20.4771 10.4724 21.0269 9.92261 21.7098 9.92261H24.4181C25.101 9.92261 25.6565 10.4724 25.6565 11.1437V12.4284C25.6565 13.1923 26.0964 13.852 26.8139 14.1414C27.5258 14.4365 28.3128 14.2802 28.8568 13.7421L29.7827 12.8335C30.263 12.3532 31.0443 12.3532 31.5246 12.8335L33.4459 14.7258C33.9262 15.2004 33.9262 15.9758 33.4459 16.4504L32.52 17.3589C31.976 17.8971 31.8197 18.6726 32.1149 19.3786C32.41 20.0846 33.0755 20.5245 33.851 20.5245H35.1531C35.8359 20.5245 36.3857 21.0684 36.3857 21.7455V22.6136H9.74219V21.7455ZM15.2341 35.4029C14.7075 35.4029 14.2734 34.9747 14.2734 34.4539C14.2734 33.9272 14.7075 33.5048 15.2341 33.5048C15.7665 33.5048 16.1947 33.9272 16.1947 34.4539C16.1947 34.9747 15.7665 35.4029 15.2341 35.4029Z" fill="#363636"/>
</g>
<path d="M23.0648 17.0703C20.4202 17.0703 18.0938 18.737 17.272 21.2196C17.1852 21.4685 17.3241 21.7289 17.573 21.8099C17.8218 21.8909 18.0938 21.7578 18.1748 21.5148C18.8692 19.4199 20.8311 18.0136 23.0648 18.0136C25.3102 18.0136 27.2778 19.4314 27.9665 21.5379C28.0301 21.7347 28.2153 21.862 28.4179 21.862C28.4642 21.862 28.5162 21.8562 28.5625 21.8388C28.8172 21.7636 28.9503 21.4974 28.8692 21.2486C28.0591 18.7486 25.7269 17.0703 23.0648 17.0703Z" fill="#363636"/>
</g>
</g>
<defs>
<clipPath id="clip0_10383_26767">
<rect x="0.5" y="0.545898" width="46" height="46" rx="23" fill="white"/>
</clipPath>
<clipPath id="clip1_10383_26767">
<rect width="45.5556" height="30" fill="white" transform="translate(0 8.5459)"/>
</clipPath>
</defs>
</svg>
