<svg width="46" height="47" viewBox="0 0 46 47" fill="none" xmlns="http://www.w3.org/2000/svg">
<rect y="0.545898" width="46" height="46" rx="23" fill="white"/>
<path d="M13.4492 19.7749L14.3306 20.6523C15.6247 19.3582 17.7321 19.3582 19.0261 20.6523L19.9076 19.7749C18.1247 17.992 15.2321 17.992 13.4492 19.7749Z" fill="black"/>
<path d="M17.9492 13.7021H19.1952V15.5972H17.9492V13.7021Z" fill="black"/>
<path d="M13.9961 13.7021H15.2421V15.5972H13.9961V13.7021Z" fill="black"/>
<mask id="mask0_10383_26327" style="mask-type:luminance" maskUnits="userSpaceOnUse" x="8" y="8" width="31" height="31">
<path d="M8 8.5459H38.7893V38.5459H8V8.5459Z" fill="white"/>
</mask>
<g mask="url(#mask0_10383_26327)">
<path d="M35.9005 25.8455L34.306 23.2654C33.7892 22.428 32.7195 22.1195 31.8701 22.5602C31.5416 22.7325 31.2812 22.9889 31.1129 23.2934C30.6562 23.1091 30.1273 23.1171 29.6666 23.3535C29.2178 23.5819 28.9494 23.9024 28.8132 24.2429C28.4126 24.1468 27.9799 24.1868 27.5832 24.3751C27.3989 24.4673 27.2347 24.5795 27.0945 24.7197L24.8749 20.0722C25.1874 19.1908 25.3557 18.2613 25.3557 17.2998C25.3557 12.5122 21.4614 8.61792 16.6778 8.61792C11.8941 8.61792 8.00391 12.5122 8.00391 17.2998C8.00391 22.0755 11.8941 25.9617 16.6778 25.9617C18.685 25.9617 20.588 25.2886 22.1185 24.0466L24.4863 29.0025L23.3965 28.1972C22.9398 27.8567 22.3509 27.7325 21.798 27.8487C21.4294 27.9288 21.0888 28.1131 20.8204 28.3775C20.4478 28.7421 20.2435 29.2429 20.2435 29.7758C20.2435 30.3287 20.4759 30.8695 20.8725 31.2541L25.3917 35.6532C25.4278 35.6852 27.8437 37.8246 30.9767 37.8246C32.3909 37.8246 33.9494 37.388 35.5039 36.1299C39.5424 32.8487 37.5071 27.9328 35.9005 25.8455ZM20.6602 20.9937L21.5616 22.8767C20.2154 24.0626 18.5007 24.7197 16.6778 24.7197C12.5792 24.7197 9.24589 21.3904 9.24589 17.2998C9.24589 13.2013 12.5792 9.86391 16.6778 9.86391C20.7763 9.86391 24.1097 13.2013 24.1097 17.2998C24.1097 17.7205 24.0656 18.1331 23.9975 18.5378C23.7731 18.3214 23.5087 18.1452 23.2002 18.041C22.6594 17.8567 22.0784 17.9048 21.5696 18.1652C20.568 18.678 20.1634 19.948 20.6602 20.9937ZM34.7187 35.1604C30.56 38.5378 26.4013 34.8839 26.2451 34.7437L21.7379 30.3647C21.5816 30.2085 21.4895 29.9921 21.4895 29.7718C21.4855 29.5755 21.5616 29.3952 21.6938 29.263C21.794 29.1668 21.9182 29.0987 22.0584 29.0666C22.1105 29.0546 22.1626 29.0506 22.2146 29.0506C22.3749 29.0506 22.5271 29.1027 22.6553 29.1948L26.1169 31.763L26.9062 31.19L21.786 20.4569C21.5736 20.0122 21.7299 19.4833 22.1385 19.271C22.3469 19.1668 22.5832 19.1508 22.8036 19.2229C23.0239 19.295 23.2002 19.4553 23.3004 19.6636L26.7098 26.799C26.7178 26.819 26.7259 26.8391 26.7339 26.8551L27.455 28.3615L28.5768 27.8287L27.8517 26.3102L27.8396 26.2742C27.7755 26.138 27.7675 25.9857 27.8196 25.8415C27.8677 25.6892 27.9799 25.569 28.1241 25.5009C28.4005 25.3647 28.7251 25.4649 28.8853 25.7213L29.6425 27.3158L30.7683 26.779L29.9911 25.1524C29.8989 24.94 29.8669 24.6476 30.2315 24.4593C30.4638 24.3391 30.7563 24.4272 30.8845 24.6355L31.7018 26.3343L32.8236 25.7974L32.1545 24.3992C32.0464 24.1267 32.1706 23.8102 32.447 23.666C32.7154 23.5258 33.076 23.638 33.2483 23.9224L34.8789 26.5506C35.0392 26.763 38.8412 31.819 34.7187 35.1604Z" fill="black"/>
</g>
<path d="M21.7305 35.3327L22.5959 34.4353L23.5013 35.3127L22.6359 36.2101L21.7305 35.3327Z" fill="black"/>
<path d="M19.9517 31.8833C18.0326 29.8801 19.4549 28.3416 19.6232 28.1734L19.1865 27.7327L18.7498 27.2839C17.8684 28.1453 16.7987 30.3889 19.0663 32.7607L21.2458 34.8641L22.1112 33.9706L19.9517 31.8833Z" fill="black"/>
<mask id="mask1_10383_26327" style="mask-type:luminance" maskUnits="userSpaceOnUse" x="23" y="8" width="3" height="4">
<path d="M23.4023 8.5459H25.4536V11.0259H23.4023V8.5459Z" fill="white"/>
</mask>
<g mask="url(#mask1_10383_26327)">
<path d="M25.4562 9.40659C25.1878 9.10611 24.9033 8.82165 24.6069 8.55322L23.7695 9.4747C24.038 9.71508 24.2904 9.97149 24.5307 10.2399L25.4562 9.40659Z" fill="black"/>
</g>
<path d="M27.2386 17.2989C27.2386 18.585 27.0062 19.823 26.5495 20.9808L27.7073 21.4376C28.2202 20.1355 28.4806 18.7412 28.4806 17.2989C28.4806 14.6587 27.6312 12.1667 26.0246 10.0874L25.0391 10.8486C26.4774 12.7076 27.2386 14.9392 27.2386 17.2989Z" fill="black"/>
</svg>
