<svg width="46" height="47" viewBox="0 0 46 47" fill="none" xmlns="http://www.w3.org/2000/svg">
<rect y="0.545898" width="46" height="46" rx="23" fill="white"/>
<path d="M18.6243 29.2163H26.6347C27.2503 29.2163 27.7545 28.7237 27.7545 28.1178V23.2313C27.7545 22.6214 27.2505 22.1286 26.6347 22.1286H18.6243C18.0085 22.1286 17.5046 22.6214 17.5046 23.2313V28.1178C17.5046 28.7237 18.0087 29.2163 18.6243 29.2163ZM18.3242 23.2271C18.3242 23.0698 18.4561 22.9355 18.6243 22.9355H26.6347C26.798 22.9355 26.9305 23.0692 26.9305 23.2271V28.1136C26.9305 28.2751 26.7986 28.4052 26.6347 28.4052H18.6243C18.4555 28.4052 18.3242 28.2745 18.3242 28.1136V23.2271Z" fill="black" stroke="black" stroke-width="0.162746"/>
<path d="M24.9619 22.5321V22.6135H25.0433H25.7002H25.7045H25.7858V22.5321V20.5826C25.7858 19.7594 25.4547 18.9801 24.8588 18.3971C24.2669 17.8097 23.4749 17.488 22.6317 17.488C20.8931 17.488 19.4733 18.8747 19.4733 20.5826V22.5321V22.6135H19.5547H20.2159H20.2972V22.5321V20.5826C20.2972 19.3237 21.3401 18.2991 22.6275 18.2991C23.255 18.2991 23.8405 18.5369 24.2785 18.9666C24.7208 19.4008 24.9619 19.9732 24.9619 20.5826V22.5321Z" fill="black" stroke="black" stroke-width="0.162746"/>
<path d="M23.4662 25.2469C23.4662 24.7896 23.0895 24.4196 22.6262 24.4196C22.1634 24.4196 21.7819 24.7891 21.7819 25.2469C21.7819 25.5772 21.9838 25.8585 22.2651 25.9911V26.5691C22.2651 26.7641 22.4261 26.9218 22.6262 26.9218C22.8229 26.9218 22.983 26.7632 22.983 26.5691V25.9921C23.2692 25.8621 23.4662 25.5759 23.4662 25.2469Z" fill="black" stroke="black" stroke-width="0.162746"/>
<path d="M31.7245 14.8717C31.7245 15.0394 31.8638 15.1725 32.0317 15.1725C32.2006 15.1725 32.3357 15.0384 32.3357 14.8717V12.0432C32.3357 11.8774 32.2016 11.7391 32.0317 11.7391C31.8628 11.7391 31.7245 11.8764 31.7245 12.0432V14.8717Z" fill="black" stroke="black" stroke-width="0.12136"/>
<path d="M31.7245 16.5946C31.7245 16.7623 31.8638 16.8954 32.0317 16.8954C32.2006 16.8954 32.3357 16.7613 32.3357 16.5946V16.3986C32.3357 16.2329 32.2016 16.0946 32.0317 16.0946C31.8628 16.0946 31.7245 16.2319 31.7245 16.3986V16.5946Z" fill="black" stroke="black" stroke-width="0.12136"/>
<path d="M21.999 38.5535L21.999 38.5534L19.2908 36.6675L21.999 38.5535ZM21.999 38.5535L22.0015 38.5551M21.999 38.5535L22.0015 38.5551M22.0015 38.5551C22.0724 38.6007 22.1552 38.6274 22.2362 38.6274C22.3205 38.6274 22.4045 38.6012 22.4733 38.5536L22.4734 38.5535L25.1859 36.6675L25.1859 36.6675C31.0403 32.5918 34.4534 26.3516 35.3329 18.1193C35.3595 17.8978 35.1883 17.6988 34.9682 17.6774C34.7415 17.6515 34.5399 17.8151 34.5184 18.0384C33.6599 26.0331 30.3596 32.0744 24.7115 36.0042L22.2362 37.7264L19.7609 36.0042L19.7144 36.071L19.7609 36.0042C16.307 33.6018 13.7017 30.3551 12.0249 26.3555L12.0249 26.3555C10.5552 22.8577 9.78565 18.794 9.74323 14.267H10.8013C11.4017 14.267 11.9577 14.2425 12.489 14.1934L15.0514 16.1918V17.7286C15.0514 17.8609 15.115 17.9833 15.2218 18.0581L15.2218 18.0581L17.8453 19.8932L17.8453 19.8932L17.8463 19.8938C17.9921 19.9928 18.1867 19.994 18.3303 19.8876C18.4726 19.7822 18.532 19.5967 18.473 19.4306L18.473 19.4305L17.5183 16.7516L17.832 15.1078L17.8321 15.1078L17.8326 15.1041C17.8426 15.0341 17.8381 14.9618 17.8166 14.8973L17.8166 14.8973L17.8159 14.8953L17.1126 12.9532C18.0612 12.5244 19.0403 11.9901 20.1789 11.3319C20.1789 11.3318 20.1789 11.3318 20.179 11.3318L22.2363 10.1515L24.2978 11.3319C25.9173 12.2646 27.1853 12.9371 28.4848 13.4143C28.6955 13.4931 28.9333 13.3882 29.013 13.1762C29.0936 12.9662 28.9796 12.7342 28.7706 12.6558L28.7701 12.6556C27.531 12.2004 26.3027 11.5466 24.7095 10.6356C24.7095 10.6356 24.7094 10.6356 24.7094 10.6355L22.4425 9.33481C22.4424 9.33474 22.4423 9.33468 22.4422 9.33462C22.3153 9.26075 22.1571 9.26076 22.0302 9.33465C22.0301 9.3347 22.03 9.33475 22.0299 9.33481L19.763 10.6356L22.0015 38.5551ZM12.5728 13.3715L12.5733 13.3715C12.6795 13.3609 12.7843 13.3928 12.8675 13.4551L12.8688 13.4561L12.8688 13.4561L15.7161 15.6804C15.8168 15.7551 15.8754 15.8723 15.8754 15.9953V17.5168L17.2674 18.4941L16.7052 16.9177C16.6789 16.8487 16.6732 16.7738 16.6891 16.7033L17.0026 15.0611L16.2093 12.8745C16.2093 12.8745 16.2092 12.8744 16.2092 12.8744C16.1345 12.6712 16.2365 12.4491 16.4313 12.3649L16.4316 12.3647C17.4569 11.926 18.5045 11.3559 19.7629 10.6356L12.5728 13.3715ZM12.5728 13.3715C12.0168 13.4305 11.4391 13.4558 10.8013 13.4558H9.33059C9.10548 13.4558 8.91863 13.6343 8.91863 13.8593C8.91863 18.6571 9.70838 22.9613 11.2645 26.6643C13.0038 30.8059 15.7005 34.1707 19.2907 36.6675L12.5728 13.3715Z" fill="black" stroke="black" stroke-width="0.162746"/>
<path d="M26.9593 17.8548L26.9592 17.8546C26.7749 17.5228 26.7749 17.1243 26.9592 16.7926L26.9592 16.7925L31.298 9.00208C31.298 9.00201 31.2981 9.00193 31.2981 9.00186C31.4827 8.66558 31.8183 8.46453 32.1936 8.46453C32.5659 8.46453 32.901 8.67005 33.0853 9.00165L33.0852 9.00162L33.0142 9.04123L33.0853 9.00171L26.9593 17.8548ZM26.9593 17.8548C27.1474 18.1904 27.4825 18.3918 27.8546 18.3918H36.5289C36.9042 18.3918 37.2398 18.1907 37.4244 17.8544L26.9593 17.8548ZM27.5915 17.1637L27.5916 17.1635L31.9265 9.37351C31.9266 9.37336 31.9266 9.37321 31.9267 9.37307C31.9854 9.27098 32.0824 9.21475 32.1936 9.21475C32.302 9.21475 32.4015 9.27166 32.4561 9.37196L32.4561 9.37196L32.4565 9.37264L36.7955 17.1635L36.7956 17.1637C36.8507 17.2618 36.8507 17.385 36.7958 17.4831C36.7371 17.5853 36.6402 17.6415 36.5289 17.6415H27.8546C27.7474 17.6415 27.6502 17.5856 27.5913 17.4831C27.5364 17.385 27.5364 17.2618 27.5915 17.1637Z" fill="black" stroke="black" stroke-width="0.162746"/>
</svg>
