<svg width="47" height="47" viewBox="0 0 47 47" fill="none" xmlns="http://www.w3.org/2000/svg">
<rect x="0.5" y="0.545898" width="46" height="46" rx="23" fill="white"/>
<g clip-path="url(#clip0_10383_26577)">
<path d="M29.9216 13.9618C29.872 13.9618 29.773 14.0114 29.7234 14.0114C29.6739 14.0609 29.6243 14.0609 29.5748 14.1105C29.5252 14.16 29.4757 14.2096 29.4262 14.2591C29.3766 14.3086 29.3271 14.3582 29.2775 14.4077C29.228 14.4611 29.228 14.5106 29.1784 14.5602C29.1784 14.6097 29.1289 14.7088 29.1289 14.7583C29.1289 14.8079 29.1289 14.907 29.1289 14.9565C29.1289 15.1051 29.1289 15.2042 29.1784 15.3567C29.228 15.4558 29.3271 15.6044 29.3766 15.6539C29.4757 15.753 29.5748 15.8026 29.6739 15.8521C29.8225 15.9016 29.9216 15.9512 30.0702 15.9512C30.3217 15.9512 30.5695 15.8521 30.7676 15.6539C30.8667 15.5548 30.9163 15.4558 30.9658 15.3567C31.0153 15.2042 31.0649 15.1051 31.0649 14.9565C31.0649 14.907 31.0649 14.8079 31.0649 14.7583C31.0649 14.7088 31.0153 14.6097 31.0153 14.5602C31.0153 14.5106 30.9658 14.4611 30.9163 14.4077C30.8667 14.3582 30.8172 14.3086 30.7676 14.2591C30.619 14.0114 30.2722 13.9123 29.9216 13.9618Z" fill="black"/>
<path d="M30.8173 17.3451L30.1199 18.2902L29.4263 17.3451C29.0795 16.8954 28.4812 16.7963 28.0353 17.1431C27.5856 17.4937 27.4865 18.092 27.8333 18.5379L29.3272 20.5272C29.5254 20.7788 29.8226 20.9274 30.1199 20.9274C30.4209 20.9274 30.7182 20.7788 30.9164 20.5272L32.4103 18.5379C32.7571 18.092 32.658 17.4937 32.2083 17.1431C31.7624 16.7963 31.1641 16.8954 30.8173 17.3451Z" fill="black"/>
<path d="M28.7774 11.2244C28.8765 11.7198 29.2766 12.0209 29.772 12.0209C29.8216 12.0209 29.9207 12.0209 29.9702 12.0209C30.519 11.9218 30.8658 11.373 30.7667 10.8243C30.6676 10.2793 30.1188 9.92868 29.5739 10.0316C29.0289 10.1802 28.6287 10.6756 28.7774 11.2244Z" fill="black"/>
<path d="M31.4513 12.6345H30.4414V13.6482H31.4513V12.6345Z" fill="black"/>
<path d="M29.4319 12.6345H28.4258V13.6482H29.4319V12.6345Z" fill="black"/>
<path d="M27.4123 12.6345H26.4023V13.6482H27.4123V12.6345Z" fill="black"/>
<path d="M32.457 18.1995H33.4669V19.7162H32.457V18.1995Z" fill="black"/>
<mask id="mask0_10383_26577" style="mask-type:luminance" maskUnits="userSpaceOnUse" x="8" y="10" width="27" height="25">
<path d="M8.23828 10.6133H34.0958V34.8854H8.23828V10.6133Z" fill="white"/>
</mask>
<g mask="url(#mask0_10383_26577)">
<path d="M21.3597 34.8778H10.2659C9.15311 34.8778 8.24609 33.9708 8.24609 32.8541V12.6331C8.24609 11.5203 9.15311 10.6133 10.2659 10.6133H31.4473C32.5601 10.6133 33.4633 11.5203 33.4633 12.6331V17.1834H32.4572V12.6331C32.4572 12.0767 32.0037 11.6232 31.4473 11.6232H10.2659C9.70951 11.6232 9.256 12.0767 9.256 12.6331V32.8541C9.256 33.4105 9.70951 33.864 10.2659 33.864H21.3597V34.8778Z" fill="black"/>
</g>
<path d="M22.3711 33.8655H23.3772V34.8792H22.3711V33.8655Z" fill="black"/>
<path d="M8.75391 14.6582H32.9612V15.6681H8.75391V14.6582Z" fill="black"/>
<path d="M20.8602 22.7455H11.2756C10.7192 22.7455 10.2695 22.292 10.2695 21.7356V18.702C10.2695 18.1456 10.7192 17.6921 11.2756 17.6921H20.8602C21.4166 17.6921 21.8663 18.1456 21.8663 18.702V21.7356C21.8663 22.292 21.4166 22.7455 20.8602 22.7455ZM11.2756 18.702V21.7356H20.8602V18.702H11.2756Z" fill="black"/>
<path d="M23.3789 17.6921H26.9117V18.702H23.3789V17.6921Z" fill="black"/>
<path d="M23.3789 19.7158H29.4307V20.7257H23.3789V19.7158Z" fill="black"/>
<path d="M18.3374 27.2954H11.2756C10.7192 27.2954 10.2695 26.8419 10.2695 26.2855V24.7687C10.2695 24.2123 10.7192 23.7588 11.2756 23.7588H17.5485C17.8991 23.7588 18.2307 23.9455 18.4136 24.2466L19.2139 25.79C19.3892 26.0797 19.3968 26.4608 19.2139 26.7809C19.031 27.1048 18.7032 27.2954 18.3374 27.2954ZM17.5333 24.742L11.2756 24.7687V26.2855H18.3374L17.5333 24.742Z" fill="black"/>
<path d="M12.7885 31.3399H11.2755C10.7191 31.3399 10.2656 30.8864 10.2656 30.33V29.3201C10.2656 28.7599 10.7191 28.3064 11.2755 28.3064H12.7885C13.3449 28.3064 13.7984 28.7599 13.7984 29.3201V30.33C13.7984 30.8864 13.3449 31.3399 12.7885 31.3399ZM11.2755 29.3201V30.33H12.7885V29.3201H11.2755Z" fill="black"/>
<path d="M14.8086 28.3064H17.8345V29.3201H14.8086V28.3064Z" fill="black"/>
<path d="M14.8086 30.3298H18.8406V31.3397H14.8086V30.3298Z" fill="black"/>
<path d="M19.8516 30.3298H20.8615V31.3397H19.8516V30.3298Z" fill="black"/>
<mask id="mask1_10383_26577" style="mask-type:luminance" maskUnits="userSpaceOnUse" x="24" y="30" width="10" height="9">
<path d="M24.3438 30.9827H33.1242V38.4179H24.3438V30.9827Z" fill="white"/>
</mask>
<g mask="url(#mask1_10383_26577)">
<path d="M30.7785 38.4142C30.4317 38.4142 30.1001 38.2732 29.8486 38.0179L25.043 33.2122L25.7556 32.4958L30.5651 37.3052C30.6108 37.351 30.6832 37.4043 30.7785 37.4043C30.8623 37.4043 30.9195 37.37 30.9538 37.3433L31.3463 37.027C31.4149 36.9737 31.453 36.8936 31.453 36.8098C31.453 36.7526 31.434 36.7031 31.4035 36.6535L27.6039 32.4386L28.3547 31.7603L32.2076 36.0362C32.3715 36.2648 32.4591 36.5316 32.4591 36.8098C32.4591 37.2023 32.2838 37.572 31.9751 37.8197L31.5826 38.1322C31.3578 38.3151 31.0719 38.4142 30.7785 38.4142Z" fill="black"/>
</g>
<path d="M25.397 33.3635C23.6135 33.3635 22.3711 31.9306 22.3711 29.8803C22.3711 28.6379 23.118 27.5327 24.4252 26.8582L27.8208 25.0937C28.5944 24.6935 29.2766 24.1562 29.852 23.5007L31.99 21.0503C32.1729 20.8406 32.4206 20.7263 32.6798 20.7263C33.0533 20.7263 33.381 20.9474 33.5144 21.2942L36.929 30.0975C36.9748 30.208 36.9976 30.3224 36.9976 30.4405C36.9976 30.9397 36.5937 31.3399 36.0982 31.3399H32.9618C32.4359 31.3399 32.0091 31.4847 31.5136 31.6524C31.2697 31.7324 31.0182 31.8163 30.74 31.8887L26.2354 33.253C25.9496 33.3292 25.6714 33.3635 25.397 33.3635ZM32.6455 21.8391L30.6104 24.1676C29.9511 24.9184 29.1699 25.532 28.2857 25.9931L24.8901 27.7538C24.4366 27.99 23.3772 28.6684 23.3772 29.8803C23.3772 31.3818 24.1699 32.3498 25.397 32.3498C25.5876 32.3498 25.7781 32.3269 25.961 32.2812L30.4656 30.9169C30.7362 30.8445 30.9687 30.7682 31.1897 30.692C31.7194 30.5129 32.2682 30.33 32.9618 30.33H35.9344L32.6455 21.8391Z" fill="black"/>
<path d="M25.668 26.6903L26.6283 26.374L28.4538 31.9419L27.4972 32.2582L25.668 26.6903Z" fill="black"/>
<path d="M30.1758 34.4758L31.9479 33.1152L32.5615 33.9194L30.7893 35.2799L30.1758 34.4758Z" fill="black"/>
</g>
<defs>
<clipPath id="clip0_10383_26577">
<rect width="29.2683" height="30" fill="white" transform="translate(8 8.5459)"/>
</clipPath>
</defs>
</svg>
