<svg width="47" height="47" viewBox="0 0 47 47" fill="none" xmlns="http://www.w3.org/2000/svg">
<rect x="0.5" y="0.545898" width="46" height="46" rx="23" fill="white"/>
<g clip-path="url(#clip0_10383_26690)">
<path fill-rule="evenodd" clip-rule="evenodd" d="M13.2935 36.2913H33.4453C32.4989 37.0949 31.4766 37.7779 30.3694 38.336H16.3694C15.2623 37.7779 14.2355 37.0949 13.2935 36.2913ZM24.4587 10.0056H29.0882C30.3962 10.5235 31.606 11.2065 32.7266 12.0503H24.4587V10.0056ZM24.4587 23.1485H38.856C38.8917 23.5815 38.9096 24.019 38.9096 24.461C38.9096 24.7065 38.9051 24.952 38.8917 25.1931H24.4587V23.1485ZM24.4587 18.7645H37.8337C38.0971 19.4342 38.3114 20.1172 38.481 20.8137H24.4587V18.7645ZM24.4587 14.3851H35.1998C35.7489 15.0279 36.24 15.711 36.6775 16.4342H24.4587V14.3851ZM8.13281 27.5279H38.606C38.4676 28.2244 38.2801 28.9074 38.048 29.577H8.69085C8.45871 28.9074 8.2712 28.2244 8.13281 27.5279ZM9.72656 31.9119H37.0078C36.615 32.6262 36.1685 33.3092 35.6685 33.9565H11.0658C10.5658 33.3092 10.1194 32.6262 9.72656 31.9119Z" fill="black"/>
<path fill-rule="evenodd" clip-rule="evenodd" d="M23.3689 8.91577V25.1926H7.84208C7.83315 24.9515 7.82422 24.706 7.82422 24.4604C7.82422 15.8756 14.784 8.91577 23.3689 8.91577Z" fill="black"/>
<path fill-rule="evenodd" clip-rule="evenodd" d="M19.8292 21.1804L20.0658 21.792L20.7176 21.8277L20.2132 22.2385L20.3783 22.8679L19.8292 22.5152L19.2801 22.8679L19.4498 22.2385L18.9453 21.8277L19.5971 21.792L19.8292 21.1804Z" fill="white"/>
<path fill-rule="evenodd" clip-rule="evenodd" d="M15.5681 21.1804L15.8002 21.792L16.452 21.8277L15.9475 22.2385L16.1127 22.8679L15.5681 22.5152L15.019 22.8679L15.1842 22.2385L14.6797 21.8277L15.3315 21.792L15.5681 21.1804Z" fill="white"/>
<path fill-rule="evenodd" clip-rule="evenodd" d="M11.3064 21.1804L11.5385 21.792L12.1948 21.8277L11.6858 22.2385L11.8555 22.8679L11.3064 22.5152L10.7573 22.8679L10.9224 22.2385L10.418 21.8277L11.0698 21.792L11.3064 21.1804Z" fill="white"/>
<path fill-rule="evenodd" clip-rule="evenodd" d="M21.5681 22.7424L21.8047 23.3496L22.4565 23.3853L21.9475 23.8005L22.1172 24.4299L21.5681 24.0773L21.019 24.4299L21.1886 23.8005L20.6797 23.3853L21.3315 23.3496L21.5681 22.7424Z" fill="white"/>
<path fill-rule="evenodd" clip-rule="evenodd" d="M17.572 22.7424L17.8086 23.3496L18.4604 23.3853L17.9515 23.8005L18.1211 24.4299L17.572 24.0773L17.0229 24.4299L17.1925 23.8005L16.6836 23.3853L17.3354 23.3496L17.572 22.7424Z" fill="white"/>
<path fill-rule="evenodd" clip-rule="evenodd" d="M13.5798 22.7424L13.8164 23.3496L14.4682 23.3853L13.9593 23.8005L14.1289 24.4299L13.5798 24.0773L13.0307 24.4299L13.2003 23.8005L12.6914 23.3853L13.3432 23.3496L13.5798 22.7424Z" fill="white"/>
<path fill-rule="evenodd" clip-rule="evenodd" d="M9.58371 22.7424L9.81585 23.3496L10.4721 23.3853L9.96317 23.8005L10.1328 24.4299L9.58371 24.0773L9.0346 24.4299L9.20424 23.8005L8.69531 23.3853L9.3471 23.3496L9.58371 22.7424Z" fill="white"/>
<path fill-rule="evenodd" clip-rule="evenodd" d="M21.5681 9.6792L21.8047 10.2908L22.4565 10.3265L21.9475 10.7372L22.1172 11.3667L21.5681 11.014L21.019 11.3667L21.1886 10.7372L20.6797 10.3265L21.3315 10.2908L21.5681 9.6792Z" fill="white"/>
<path fill-rule="evenodd" clip-rule="evenodd" d="M19.8292 11.3853L20.0658 11.9969L20.7176 12.0281L20.2132 12.4433L20.3783 13.0728L19.8292 12.7201L19.2801 13.0728L19.4498 12.4433L18.9453 12.0281L19.5971 11.9969L19.8292 11.3853Z" fill="white"/>
<path fill-rule="evenodd" clip-rule="evenodd" d="M15.5681 11.3853L15.8002 11.9969L16.452 12.0281L15.9475 12.4433L16.1127 13.0728L15.5681 12.7201L15.019 13.0728L15.1842 12.4433L14.6797 12.0281L15.3315 11.9969L15.5681 11.3853Z" fill="white"/>
<path fill-rule="evenodd" clip-rule="evenodd" d="M17.6903 9.9873L17.8108 10.2909L18.4626 10.3266L17.9537 10.7373L18.1233 11.3668L17.5742 11.0141L17.0251 11.3668L17.1948 10.7373L16.7617 10.3891C16.8153 10.3623 16.8689 10.3355 16.9269 10.3132L17.3376 10.2909L17.4135 10.0989C17.5073 10.0632 17.5965 10.023 17.6903 9.9873Z" fill="white"/>
<path fill-rule="evenodd" clip-rule="evenodd" d="M21.5681 12.947L21.8047 13.5542L22.4565 13.5899L21.9475 14.0006L22.1172 14.6345L21.5681 14.2774L21.019 14.6345L21.1886 14.0006L20.6797 13.5899L21.3315 13.5542L21.5681 12.947Z" fill="white"/>
<path fill-rule="evenodd" clip-rule="evenodd" d="M19.8292 14.6479L20.0658 15.2596L20.7176 15.2953L20.2132 15.706L20.3783 16.3399L19.8292 15.9828L19.2801 16.3399L19.4498 15.706L18.9453 15.2953L19.5971 15.2596L19.8292 14.6479Z" fill="white"/>
<path fill-rule="evenodd" clip-rule="evenodd" d="M15.5681 14.6479L15.8002 15.2596L16.452 15.2953L15.9475 15.706L16.1127 16.3399L15.5681 15.9828L15.019 16.3399L15.1842 15.706L14.6797 15.2953L15.3315 15.2596L15.5681 14.6479Z" fill="white"/>
<path fill-rule="evenodd" clip-rule="evenodd" d="M11.3064 14.658L11.5385 15.2606L12.1948 15.2964L11.6858 15.7071L11.8555 16.341L11.3064 15.9839L10.7573 16.341L10.9224 15.7071L10.668 15.5017C10.7215 15.4258 10.7751 15.3499 10.8331 15.274L11.0698 15.2606L11.2974 14.6714L11.3064 14.658Z" fill="white"/>
<path fill-rule="evenodd" clip-rule="evenodd" d="M17.572 12.947L17.8086 13.5542L18.4604 13.5899L17.9515 14.0006L18.1211 14.6345L17.572 14.2774L17.0229 14.6345L17.1925 14.0006L16.6836 13.5899L17.3354 13.5542L17.572 12.947Z" fill="white"/>
<path fill-rule="evenodd" clip-rule="evenodd" d="M13.5798 12.947L13.8164 13.5542L14.4682 13.5899L13.9593 14.0006L14.1289 14.6345L13.5798 14.2774L13.0307 14.6345L13.2003 14.0006L12.6914 13.5899L13.3432 13.5542L13.5798 12.947Z" fill="white"/>
<path fill-rule="evenodd" clip-rule="evenodd" d="M21.5681 16.2117L21.8047 16.8233L22.4565 16.859L21.9475 17.2697L22.1172 17.8992L21.5681 17.5465L21.019 17.8992L21.1886 17.2697L20.6797 16.859L21.3315 16.8233L21.5681 16.2117Z" fill="white"/>
<path fill-rule="evenodd" clip-rule="evenodd" d="M19.8292 17.9158L20.0658 18.5229L20.7176 18.5586L20.2132 18.9738L20.3783 19.6033L19.8292 19.2506L19.2801 19.6033L19.4498 18.9738L18.9453 18.5586L19.5971 18.5229L19.8292 17.9158Z" fill="white"/>
<path fill-rule="evenodd" clip-rule="evenodd" d="M15.5681 17.9158L15.8002 18.5229L16.452 18.5586L15.9475 18.9738L16.1127 19.6033L15.5681 19.2506L15.019 19.6033L15.1842 18.9738L14.6797 18.5586L15.3315 18.5229L15.5681 17.9158Z" fill="white"/>
<path fill-rule="evenodd" clip-rule="evenodd" d="M11.3064 17.9158L11.5385 18.5229L12.1948 18.5586L11.6858 18.9738L11.8555 19.6033L11.3064 19.2506L10.7573 19.6033L10.9224 18.9738L10.418 18.5586L11.0698 18.5229L11.3064 17.9158Z" fill="white"/>
<path fill-rule="evenodd" clip-rule="evenodd" d="M17.572 16.2117L17.8086 16.8233L18.4604 16.859L17.9515 17.2697L18.1211 17.8992L17.572 17.5465L17.0229 17.8992L17.1925 17.2697L16.6836 16.859L17.3354 16.8233L17.572 16.2117Z" fill="white"/>
<path fill-rule="evenodd" clip-rule="evenodd" d="M13.5798 16.2117L13.8164 16.8233L14.4682 16.859L13.9593 17.2697L14.1289 17.8992L13.5798 17.5465L13.0307 17.8992L13.2003 17.2697L12.6914 16.859L13.3432 16.8233L13.5798 16.2117Z" fill="white"/>
<path fill-rule="evenodd" clip-rule="evenodd" d="M21.5681 19.4795L21.8047 20.0866L22.4565 20.1223L21.9475 20.5331L22.1172 21.167L21.5681 20.8098L21.019 21.167L21.1886 20.5331L20.6797 20.1223L21.3315 20.0866L21.5681 19.4795Z" fill="white"/>
<path fill-rule="evenodd" clip-rule="evenodd" d="M17.572 19.4795L17.8086 20.0866L18.4604 20.1223L17.9515 20.5331L18.1211 21.167L17.572 20.8098L17.0229 21.167L17.1925 20.5331L16.6836 20.1223L17.3354 20.0866L17.572 19.4795Z" fill="white"/>
<path fill-rule="evenodd" clip-rule="evenodd" d="M13.5798 19.4795L13.8164 20.0866L14.4682 20.1223L13.9593 20.5331L14.1289 21.167L13.5798 20.8098L13.0307 21.167L13.2003 20.5331L12.6914 20.1223L13.3432 20.0866L13.5798 19.4795Z" fill="white"/>
<path fill-rule="evenodd" clip-rule="evenodd" d="M9.58371 19.4795L9.81585 20.0866L10.4721 20.1223L9.96317 20.5331L10.1328 21.167L9.58371 20.8098L9.0346 21.167L9.20424 20.5331L8.69531 20.1223L9.3471 20.0866L9.58371 19.4795Z" fill="white"/>
<path d="M18.6602 23.1492H28.3834V38.3099H18.6602V23.1492Z" fill="black"/>
<path d="M24.0787 30.3311C24.3421 30.3311 24.5519 30.5364 24.5519 30.7864C24.5519 31.0409 24.3421 31.2462 24.0787 31.2462C23.8198 31.2462 23.6055 31.0409 23.6055 30.7864C23.6055 30.5364 23.8198 30.3311 24.0787 30.3311Z" fill="white"/>
<path d="M22.5117 24.7595L25.2528 25.2372L25.4626 25.2774V36.4024L25.2483 36.4336L22.8064 36.822H27.0965V24.7595H22.5117Z" fill="white"/>
<path fill-rule="evenodd" clip-rule="evenodd" d="M25.4626 25.4783V36.4024L25.2483 36.4336L22.8064 36.822H27.0965V24.7595H22.5117L25.2528 25.2372L25.4626 25.2774V25.4783Z" fill="white"/>
</g>
<defs>
<clipPath id="clip0_10383_26690">
<rect width="30.8571" height="30" fill="white" transform="translate(8 8.5459)"/>
</clipPath>
</defs>
</svg>
