<svg width="47" height="47" viewBox="0 0 47 47" fill="none" xmlns="http://www.w3.org/2000/svg">
<rect x="0.5" y="0.545898" width="46" height="46" rx="23" fill="white"/>
<path fill-rule="evenodd" clip-rule="evenodd" d="M19.0887 18.1811H26.253C26.1547 16.3784 24.6558 14.9432 22.83 14.9432H22.5117C20.683 14.9432 19.1871 16.3784 19.0887 18.1811ZM26.5742 18.8176H18.7675C18.591 18.8176 18.4492 18.673 18.4492 18.4993V18.3691C18.4492 16.1296 20.2692 14.3066 22.5117 14.3066H22.83C25.0696 14.3066 26.8925 16.1296 26.8925 18.3691V18.4993C26.8925 18.673 26.7507 18.8176 26.5742 18.8176Z" fill="black"/>
<path fill-rule="evenodd" clip-rule="evenodd" d="M16.5519 22.7907H13.5253C13.3488 22.7907 13.207 22.6489 13.207 22.4753C13.207 22.2988 13.3488 22.157 13.5253 22.157H16.5519C16.7255 22.157 16.8673 22.2988 16.8673 22.4753C16.8673 22.6489 16.7255 22.7907 16.5519 22.7907Z" fill="black"/>
<path fill-rule="evenodd" clip-rule="evenodd" d="M31.6681 22.7907H28.6386C28.465 22.7907 28.3203 22.6489 28.3203 22.4753C28.3203 22.2988 28.465 22.157 28.6386 22.157H31.6681C31.8417 22.157 31.9864 22.2988 31.9864 22.4753C31.9864 22.6489 31.8417 22.7907 31.6681 22.7907Z" fill="black"/>
<path fill-rule="evenodd" clip-rule="evenodd" d="M20.8279 26.4337H21.7973C21.9738 26.4337 22.1155 26.5755 22.1155 26.7491V28.87L24.3725 26.1501H23.4581C23.2816 26.1501 23.1399 26.0083 23.1399 25.8318V23.7109L20.8279 26.4337ZM21.7973 30.0708C21.7625 30.0708 21.7249 30.065 21.6902 30.0506C21.5629 30.0043 21.479 29.8856 21.479 29.7525V27.0674H20.1393C20.0149 27.0674 19.902 26.995 19.8499 26.8851C19.7978 26.7722 19.8152 26.6391 19.8962 26.5436L23.2151 22.6403C23.3019 22.539 23.4408 22.5014 23.5681 22.5477C23.6925 22.594 23.7735 22.7126 23.7735 22.8457L23.7764 25.5135L25.0496 25.5164C25.174 25.5164 25.2839 25.5859 25.3389 25.6987C25.3881 25.8087 25.3736 25.9418 25.2926 26.0373L22.0432 29.9551C21.9824 30.0303 21.8899 30.0708 21.7973 30.0708Z" fill="black"/>
<path fill-rule="evenodd" clip-rule="evenodd" d="M22.7076 10.2936C21.7499 10.2936 20.9686 11.0719 20.9686 12.0297C20.9686 12.9903 21.7499 13.7687 22.7076 13.7687C23.6654 13.7687 24.4466 12.9903 24.4466 12.0297C24.4466 11.0719 23.6654 10.2936 22.7076 10.2936ZM22.7076 14.4052C21.3968 14.4052 20.332 13.3404 20.332 12.0297C20.332 10.7218 21.3968 9.65698 22.7076 9.65698C24.0155 9.65698 25.0803 10.7218 25.0803 12.0297C25.0803 13.3404 24.0155 14.4052 22.7076 14.4052Z" fill="black"/>
<path fill-rule="evenodd" clip-rule="evenodd" d="M13.7691 20.2907C13.7546 20.2907 13.7459 20.3022 13.7459 20.3167V27.999C13.7459 32.8601 17.6609 36.8242 22.4728 36.8387C22.4815 36.8387 22.4902 36.8387 22.4959 36.8387C24.8281 36.8387 27.0214 35.9301 28.6765 34.2808C30.3374 32.6228 31.2488 30.4238 31.2488 28.0887V20.3167C31.2488 20.3022 31.2373 20.2907 31.2228 20.2907H28.8848C28.8704 20.2907 28.8588 20.3022 28.8588 20.3167V28.0887C28.8588 29.7959 28.1875 31.4018 26.9722 32.6055C25.7685 33.7947 24.1829 34.4486 22.4988 34.4486C22.4757 34.4486 22.4554 34.4486 22.4323 34.4486C18.9601 34.4139 16.1331 31.5262 16.1331 28.0106V20.3167C16.1331 20.3022 16.1244 20.2907 16.11 20.2907H13.7691ZM22.4959 37.4753C22.4873 37.4753 22.4786 37.4753 22.4699 37.4753C17.3079 37.4608 13.1094 33.2102 13.1094 27.999V20.3167C13.1094 19.9521 13.4045 19.657 13.7691 19.657H16.11C16.4745 19.657 16.7697 19.9521 16.7697 20.3167V28.0106C16.7697 31.179 19.3131 33.7831 22.441 33.8121C23.9803 33.8294 25.4271 33.2392 26.5237 32.1541C27.6204 31.069 28.2222 29.6252 28.2222 28.0887V20.3167C28.2222 19.9521 28.5203 19.657 28.8848 19.657H31.2228C31.5874 19.657 31.8854 19.9521 31.8854 20.3167V28.0887C31.8854 30.5945 30.9045 32.9527 29.125 34.7293C27.3513 36.5002 24.9988 37.4753 22.4959 37.4753Z" fill="black"/>
</svg>
