<svg width="47" height="47" viewBox="0 0 47 47" fill="none" xmlns="http://www.w3.org/2000/svg">
<rect x="0.5" y="0.545898" width="46" height="46" rx="23" fill="white"/>
<g clip-path="url(#clip0_10383_26550)">
<path d="M15.3049 27.0583C15.6892 27.0583 16.0625 26.9851 16.4175 26.835C16.7725 26.6886 17.0836 26.4763 17.3544 26.2055C17.6289 25.931 17.8376 25.6163 17.984 25.2613C18.1303 24.9026 18.2035 24.5329 18.2035 24.1486C18.2035 23.7607 18.1303 23.391 17.984 23.0324C17.8376 22.6774 17.6289 22.3626 17.3544 22.0881C17.0836 21.8173 16.7725 21.605 16.4175 21.4586C16.0625 21.3122 15.6892 21.2354 15.3049 21.2354C14.9206 21.2354 14.551 21.3122 14.1959 21.4586C13.8409 21.605 13.5298 21.8173 13.2553 22.0881C12.9845 22.3626 12.7759 22.6774 12.6295 23.0324C12.4831 23.391 12.4062 23.7607 12.4062 24.1486C12.4062 24.5329 12.4831 24.9026 12.6295 25.2613C12.7759 25.6163 12.9845 25.931 13.2553 26.2055C13.5298 26.4763 13.8409 26.6886 14.1959 26.835C14.551 26.9851 14.9206 27.0583 15.3049 27.0583ZM15.3049 22.2052C15.5611 22.2052 15.81 22.2565 16.0479 22.3553C16.2821 22.4541 16.4907 22.5932 16.6737 22.7762C16.853 22.9555 16.9921 23.1678 17.0909 23.4057C17.1898 23.6436 17.2373 23.8888 17.2373 24.1486C17.2373 24.4048 17.1898 24.65 17.0909 24.8879C16.9921 25.1258 16.853 25.3381 16.6737 25.5174C16.4907 25.7004 16.2821 25.8395 16.0479 25.9383C15.81 26.0372 15.5611 26.0884 15.3049 26.0884C15.0487 26.0884 14.8035 26.0372 14.5656 25.9383C14.3314 25.8395 14.1227 25.7004 13.9398 25.5174C13.7604 25.3381 13.6177 25.1258 13.5225 24.8879C13.4237 24.65 13.3725 24.4048 13.3725 24.1486C13.3725 23.8888 13.4237 23.6436 13.5225 23.4057C13.6177 23.1678 13.7604 22.9555 13.9398 22.7762C14.1227 22.5932 14.3314 22.4541 14.5656 22.3553C14.8035 22.2565 15.0487 22.2052 15.3049 22.2052Z" fill="black"/>
<path d="M32.6955 27.0583C33.0798 27.0583 33.4531 26.9851 33.8081 26.835C34.1631 26.6886 34.4742 26.4763 34.7451 26.2055C35.0196 25.931 35.2282 25.6163 35.3746 25.2613C35.521 24.9026 35.5942 24.5329 35.5942 24.1486C35.5942 23.7607 35.521 23.391 35.3746 23.0324C35.2282 22.6774 35.0196 22.3626 34.7451 22.0881C34.4742 21.8173 34.1631 21.605 33.8081 21.4586C33.4531 21.3122 33.0798 21.2354 32.6955 21.2354C32.3112 21.2354 31.9416 21.3122 31.5866 21.4586C31.2316 21.605 30.9205 21.8173 30.646 22.0881C30.3751 22.3626 30.1665 22.6774 30.0201 23.0324C29.8737 23.391 29.7969 23.7607 29.7969 24.1486C29.7969 24.5329 29.8737 24.9026 30.0201 25.2613C30.1665 25.6163 30.3751 25.931 30.646 26.2055C30.9205 26.4763 31.2316 26.6886 31.5866 26.835C31.9416 26.9851 32.3112 27.0583 32.6955 27.0583ZM32.6955 22.2052C32.9517 22.2052 33.2006 22.2565 33.4385 22.3553C33.6727 22.4541 33.8813 22.5932 34.0643 22.7762C34.2437 22.9555 34.3827 23.1678 34.4816 23.4057C34.5804 23.6436 34.628 23.8888 34.628 24.1486C34.628 24.4048 34.5804 24.65 34.4816 24.8879C34.3827 25.1258 34.2437 25.3381 34.0643 25.5174C33.8813 25.7004 33.6727 25.8395 33.4385 25.9383C33.2006 26.0372 32.9517 26.0884 32.6955 26.0884C32.4393 26.0884 32.1941 26.0372 31.9562 25.9383C31.722 25.8395 31.5134 25.7004 31.3304 25.5174C31.151 25.3381 31.0083 25.1258 30.9131 24.8879C30.8143 24.65 30.7631 24.4048 30.7631 24.1486C30.7631 23.8888 30.8143 23.6436 30.9131 23.4057C31.0083 23.1678 31.151 22.9555 31.3304 22.7762C31.5134 22.5932 31.722 22.4541 31.9562 22.3553C32.1941 22.2565 32.4393 22.2052 32.6955 22.2052Z" fill="black"/>
<path d="M21.1095 14.9302C21.1095 15.1315 21.0363 15.3035 20.8972 15.4463C20.7545 15.589 20.5825 15.6586 20.3848 15.6586C20.1835 15.6586 20.0115 15.589 19.8724 15.4463C19.7297 15.3035 19.6602 15.1315 19.6602 14.9302C19.6602 14.7326 19.7297 14.5606 19.8724 14.4178C20.0115 14.2751 20.1835 14.2056 20.3848 14.2056C20.5825 14.2056 20.7545 14.2751 20.8972 14.4178C21.0363 14.5606 21.1095 14.7326 21.1095 14.9302Z" fill="black"/>
<path d="M22.5587 14.9302C22.5587 15.1315 22.4855 15.3035 22.3464 15.4463C22.2037 15.589 22.0317 15.6586 21.834 15.6586C21.6327 15.6586 21.4607 15.589 21.3216 15.4463C21.1789 15.3035 21.1094 15.1315 21.1094 14.9302C21.1094 14.7326 21.1789 14.5606 21.3216 14.4178C21.4607 14.2751 21.6327 14.2056 21.834 14.2056C22.0317 14.2056 22.2037 14.2751 22.3464 14.4178C22.4855 14.5606 22.5587 14.7326 22.5587 14.9302Z" fill="black"/>
<path d="M24.0079 14.9302C24.0079 15.1315 23.9347 15.3035 23.7956 15.4463C23.6529 15.589 23.4809 15.6586 23.2833 15.6586C23.082 15.6586 22.9099 15.589 22.7709 15.4463C22.6281 15.3035 22.5586 15.1315 22.5586 14.9302C22.5586 14.7326 22.6281 14.5606 22.7709 14.4178C22.9099 14.2751 23.082 14.2056 23.2833 14.2056C23.4809 14.2056 23.6529 14.2751 23.7956 14.4178C23.9347 14.5606 24.0079 14.7326 24.0079 14.9302Z" fill="black"/>
<path d="M38.5452 35.6562H37.2423C37.4619 35.3707 37.5753 35.0486 37.579 34.6863V30.32C37.579 28.717 36.0638 27.4104 34.1972 27.4104H30.3323C28.6634 27.4104 27.2727 28.4645 27.0055 29.8369H25.0182C24.8644 29.8369 24.7363 29.8955 24.6375 30.0199C24.5424 30.1444 24.5131 30.2834 24.5497 30.4371L25.849 35.6562H21.2887L22.6026 30.4371C22.6429 30.2834 22.6136 30.1444 22.5184 30.0199C22.416 29.8918 22.2842 29.8296 22.1195 29.8369H20.1358C19.8687 28.4645 18.4779 27.4104 16.8053 27.4104H12.9405C11.0776 27.4104 9.5587 28.717 9.5587 30.32V34.6863C9.56602 35.0486 9.67948 35.3707 9.89907 35.6562H8.59248C8.46073 35.6562 8.34727 35.7038 8.25211 35.7989C8.15695 35.8941 8.10938 36.0075 8.10938 36.1429C8.10938 36.2747 8.15695 36.3918 8.25211 36.487C8.34727 36.5785 8.46073 36.6261 8.59248 36.6261H38.5452C38.6806 36.6261 38.7941 36.5785 38.8892 36.487C38.9844 36.3918 39.0283 36.2747 39.0283 36.1429C39.0283 36.0075 38.9844 35.8941 38.8892 35.7989C38.7941 35.7038 38.6806 35.6562 38.5452 35.6562ZM16.3222 35.6562H11.9742C11.1874 35.6562 10.5249 35.2097 10.5249 34.6863V30.32C10.5249 29.2513 11.6082 28.3803 12.9405 28.3803H16.8053C17.3104 28.351 17.7752 28.4718 18.1997 28.7389C18.628 29.0061 18.939 29.3721 19.1367 29.8369H15.356C15.2425 29.8333 15.1401 29.8662 15.0522 29.9357C14.9607 30.0053 14.9022 30.0931 14.8729 30.2066L14.0128 33.7164H12.9405V32.2634C12.9405 32.128 12.8965 32.0146 12.8014 31.9194C12.7062 31.8243 12.5928 31.7767 12.4573 31.7767C12.3256 31.7767 12.2121 31.8243 12.117 31.9194C12.0218 32.0146 11.9742 32.128 11.9742 32.2634V34.2032C11.9742 34.335 12.0218 34.4521 12.117 34.5436C12.2121 34.6387 12.3256 34.6863 12.4573 34.6863H17.691C17.5885 34.9791 17.4129 35.2133 17.1603 35.389C16.9115 35.5683 16.6296 35.6562 16.3222 35.6562ZM20.2932 35.6562H18.2546C18.5804 35.228 18.7414 34.7412 18.7378 34.2032C18.7378 34.0678 18.6938 33.9543 18.5987 33.8592C18.5035 33.764 18.3901 33.7164 18.2546 33.7164H15.0083L15.733 30.8068H21.501L20.2932 35.6562ZM26.8445 35.6562L25.6367 30.8068H31.4047L32.1294 33.7164H28.883C28.7513 33.7164 28.6378 33.764 28.5427 33.8592C28.4475 33.9543 28.3999 34.0678 28.3999 34.2032C28.3999 34.7412 28.561 35.228 28.883 35.6562H26.8445ZM36.6128 34.6863C36.6128 35.2097 35.954 35.6562 35.1634 35.6562H30.8155C30.5117 35.6562 30.2299 35.5683 29.981 35.389C29.7285 35.2133 29.5528 34.9791 29.4503 34.6863H34.6803C34.8157 34.6863 34.9292 34.6387 35.0244 34.5436C35.1195 34.4521 35.1634 34.335 35.1634 34.2032V32.2634C35.1634 32.128 35.1195 32.0146 35.0244 31.9194C34.9292 31.8243 34.8157 31.7767 34.6803 31.7767C34.5486 31.7767 34.4351 31.8243 34.3399 31.9194C34.2448 32.0146 34.1972 32.128 34.1972 32.2634V33.7164H33.1249L32.2648 30.2066C32.2392 30.0931 32.1806 30.0053 32.0891 29.9357C31.9976 29.8662 31.8988 29.8333 31.7817 29.8369H28.0046C28.2023 29.3721 28.5134 29.0061 28.9379 28.7389C29.3661 28.4718 29.8309 28.351 30.3323 28.3803H34.1972C35.5331 28.3803 36.6128 29.2513 36.6128 30.32V34.6863Z" fill="black"/>
<path d="M30.3522 15.9324C30.3522 15.6433 30.323 15.3615 30.2681 15.0797C30.2132 14.7979 30.129 14.5234 30.0192 14.2598C29.9094 13.9963 29.7776 13.7438 29.6202 13.5059C29.4592 13.268 29.2799 13.0448 29.0786 12.8435C28.8773 12.6422 28.6577 12.4592 28.4198 12.3018C28.1819 12.1408 27.9294 12.009 27.6659 11.8992C27.4023 11.7894 27.1315 11.7052 26.8534 11.6503C26.5715 11.5918 26.2897 11.5662 26.0043 11.5662C25.5358 11.5662 25.0783 11.6394 24.6355 11.7931C24.4159 11.5771 24.1743 11.3832 23.9108 11.2185C23.6473 11.0501 23.3728 10.9147 23.08 10.8086C22.7909 10.7024 22.4907 10.6292 22.1833 10.5853C21.8759 10.545 21.5684 10.5341 21.261 10.5597C20.9499 10.5816 20.6461 10.6402 20.3497 10.728C20.0532 10.8159 19.7678 10.9367 19.4969 11.0867C19.2261 11.2368 18.9736 11.4124 18.7393 11.6174C18.5051 11.8223 18.2965 12.0493 18.1098 12.2981C17.9232 12.547 17.7695 12.8142 17.6377 13.096C17.5096 13.3778 17.4108 13.6743 17.3449 13.978C17.279 14.2818 17.2461 14.5892 17.2461 14.9003C17.2461 15.2114 17.2754 15.5189 17.3413 15.8226C17.4071 16.1264 17.5023 16.4192 17.6304 16.7047C17.7548 16.9865 17.9122 17.2537 18.0952 17.5062C18.2818 17.7551 18.4905 17.982 18.721 18.1906C18.9553 18.3955 19.2041 18.5749 19.475 18.7249L19.2627 20.2292C19.2298 20.4341 19.2993 20.5952 19.4713 20.7123C19.5518 20.7672 19.6433 20.7964 19.7422 20.7964C19.83 20.7964 19.9105 20.7745 19.9837 20.7342L22.5639 19.2483C22.7286 19.2117 22.8897 19.1678 23.0471 19.1129C23.6363 19.6765 24.3244 20.0425 25.1186 20.2182L27.6878 21.6895C27.7647 21.7297 27.8452 21.7517 27.9294 21.7517C28.0282 21.7517 28.1197 21.7224 28.2002 21.6675C28.3759 21.554 28.4454 21.3894 28.4088 21.1844L28.1965 19.6802C28.8626 19.2922 29.386 18.7615 29.7703 18.0918C30.1546 17.422 30.3486 16.7047 30.3522 15.9324ZM22.2821 18.2967C22.2309 18.3077 22.1797 18.326 22.1321 18.3516L20.3424 19.3837L20.4412 18.5273C20.4668 18.3004 20.3753 18.1394 20.174 18.0405C19.9325 17.9234 19.7092 17.7807 19.5006 17.6123C19.2956 17.444 19.1126 17.2537 18.948 17.0414C18.7869 16.8291 18.6515 16.5985 18.5454 16.3533C18.4356 16.1081 18.3587 15.8556 18.3111 15.5921C18.2635 15.3285 18.2452 15.065 18.2599 14.7979C18.2745 14.5307 18.3221 14.2672 18.3953 14.011C18.4722 13.7548 18.5783 13.5096 18.7101 13.279C18.8455 13.0484 19.0029 12.8361 19.1858 12.6422C19.3688 12.4482 19.5738 12.2762 19.7971 12.1298C20.0203 11.987 20.2582 11.8699 20.5107 11.7784C20.7633 11.6906 21.0195 11.632 21.2866 11.6028C21.5501 11.5771 21.8137 11.5808 22.0772 11.6137C22.3443 11.6503 22.6005 11.7162 22.8494 11.8114C23.0983 11.9065 23.3325 12.031 23.5521 12.181C23.7717 12.3311 23.9693 12.5068 24.1487 12.708C24.328 12.9057 24.4817 13.1216 24.6062 13.3559C24.7343 13.5937 24.8331 13.839 24.9026 14.0988C24.9722 14.355 25.0124 14.6185 25.0197 14.8857C25.0271 15.1529 25.0014 15.42 24.9465 15.6799C24.8916 15.9434 24.8075 16.1959 24.694 16.4375C24.5769 16.679 24.4378 16.9023 24.2695 17.1109C24.1048 17.3195 23.9145 17.5062 23.7022 17.6672C23.4936 17.8319 23.2666 17.9673 23.0214 18.0771C22.7799 18.1869 22.5273 18.2675 22.2638 18.3187L22.2821 18.2967ZM27.4682 18.9921C27.2633 19.0909 27.1754 19.252 27.1974 19.4752L27.3182 20.3353L25.5248 19.3252C25.4772 19.3032 25.426 19.2849 25.3748 19.2739C24.866 19.1714 24.4012 18.9628 23.9876 18.6481C24.2292 18.4944 24.4525 18.315 24.6611 18.1174C24.866 17.9198 25.0527 17.7002 25.2174 17.4659C25.3821 17.2317 25.5212 16.9828 25.6346 16.7193C25.7481 16.4558 25.8359 16.185 25.8981 15.9031C25.9603 15.6213 25.9933 15.3395 26.0006 15.0504C26.0043 14.7649 25.9823 14.4794 25.9347 14.1976C25.8835 13.9158 25.8066 13.6377 25.7005 13.3705C25.598 13.1033 25.4663 12.8508 25.3125 12.6092C25.5395 12.558 25.77 12.536 26.0043 12.536C26.3849 12.536 26.7582 12.6019 27.1169 12.73C27.4792 12.8581 27.8086 13.0448 28.105 13.2827C28.4052 13.5242 28.654 13.806 28.859 14.1318C29.0603 14.4575 29.203 14.8088 29.2872 15.1858C29.3714 15.5591 29.3933 15.9361 29.3494 16.3204C29.3055 16.701 29.1994 17.0633 29.031 17.411C28.8663 17.7551 28.6467 18.0625 28.3759 18.3333C28.105 18.6078 27.7976 18.8238 27.4536 18.9921H27.4682Z" fill="black"/>
</g>
<defs>
<clipPath id="clip0_10383_26550">
<rect width="34.4324" height="26" fill="white" transform="translate(6 10.5459)"/>
</clipPath>
</defs>
</svg>
