<svg width="224" height="177" viewBox="0 0 224 177" fill="none" xmlns="http://www.w3.org/2000/svg">
<mask id="mask0_10383_37309" style="mask-type:luminance" maskUnits="userSpaceOnUse" x="1" y="5" width="123" height="127">
<path d="M1.69922 5.84326H123.517V131.037H1.69922V5.84326Z" fill="white"/>
</mask>
<g mask="url(#mask0_10383_37309)">
<path d="M9.92775 145.687C5.38502 145.687 1.69922 142.001 1.69922 137.458V14.0718C1.69922 9.52907 5.38502 5.84326 9.92775 5.84326H145.652C150.195 5.84326 153.881 9.52907 153.881 14.0718V137.458C153.881 142.001 150.195 145.687 145.652 145.687H9.92775Z" fill="#2D5275"/>
</g>
<mask id="mask1_10383_37309" style="mask-type:luminance" maskUnits="userSpaceOnUse" x="103" y="125" width="21" height="7">
<path d="M103.355 125.063H123.509V131.041H103.355V125.063Z" fill="white"/>
</mask>
<g mask="url(#mask1_10383_37309)">
<path d="M131.985 150.452C122.817 152.383 115.621 159.094 110.923 164.875C108.786 167.56 104.512 166.032 104.512 162.625V145.724C104.512 134.326 113.721 125.116 125.078 125.116H125.821" fill="#3D6BBD"/>
</g>
<path d="M59.2705 42.8562C59.2705 54.213 50.0714 63.4121 38.7146 63.4121C27.3475 63.4121 18.1484 54.213 18.1484 42.8562C18.1484 31.4994 27.3475 22.29 38.7146 22.29C50.0714 22.29 59.2705 31.4994 59.2705 42.8562Z" fill="#49C08E"/>
<path d="M59.2705 104.55C59.2705 115.907 50.0714 125.116 38.7146 125.116C27.3475 125.116 18.1484 115.907 18.1484 104.55C18.1484 93.1932 27.3475 83.9839 38.7146 83.9839C50.0714 83.9839 59.2705 93.1932 59.2705 104.55Z" fill="#49C08E"/>
<path d="M37.6004 51.0782C36.7022 51.0782 35.8039 50.7788 35.0606 50.2006L32.0562 47.826C30.2804 46.4219 29.9707 43.8408 31.3645 42.0547C32.624 40.4647 34.8025 40.0414 36.537 40.981L39.3555 36.5415C40.5635 34.6108 43.1136 34.0533 45.0236 35.2716C46.9543 36.4898 47.5118 39.0296 46.2935 40.95L41.09 49.1682C40.4602 50.149 39.4485 50.8304 38.3128 51.0163C38.065 51.0679 37.8482 51.0782 37.6004 51.0782Z" fill="white"/>
<path d="M37.6004 112.777C36.7022 112.777 35.8039 112.467 35.0606 111.889L32.0562 109.514C30.2804 108.12 29.9707 105.529 31.3645 103.743C32.624 102.153 34.8025 101.74 36.537 102.669L39.3555 98.2399C40.5635 96.3092 43.1136 95.7414 45.0236 96.97C46.9543 98.1883 47.5118 100.728 46.2935 102.638L41.09 110.867C40.4602 111.847 39.4485 112.519 38.3128 112.715C38.065 112.756 37.8482 112.777 37.6004 112.777Z" fill="white"/>
<mask id="mask2_10383_37309" style="mask-type:luminance" maskUnits="userSpaceOnUse" x="98" y="21" width="26" height="12">
<path d="M98.0703 21.9707H123.51V32.5429H98.0703V21.9707Z" fill="white"/>
</mask>
<g mask="url(#mask2_10383_37309)">
<path d="M137.419 30.5156H104.515C102.254 30.5156 100.406 28.6676 100.406 26.3962C100.406 24.1352 102.254 22.2871 104.515 22.2871H137.419C139.691 22.2871 141.539 24.1352 141.539 26.3962C141.539 28.6676 139.691 30.5156 137.419 30.5156Z" fill="#24435C"/>
</g>
<path d="M88.0664 30.5186H75.7288C73.4574 30.5186 71.6094 28.6705 71.6094 26.3991C71.6094 24.1381 73.4574 22.29 75.7288 22.29H88.0664C90.3275 22.29 92.1755 24.1381 92.1755 26.3991C92.1755 28.6705 90.3275 30.5186 88.0664 30.5186Z" fill="#24435C"/>
<mask id="mask3_10383_37309" style="mask-type:luminance" maskUnits="userSpaceOnUse" x="90" y="37" width="34" height="12">
<path d="M90.1445 37.8325H123.513V48.4047H90.1445V37.8325Z" fill="white"/>
</mask>
<g mask="url(#mask3_10383_37309)">
<path d="M133.308 46.9683H96.2952C94.0238 46.9683 92.1758 45.1202 92.1758 42.8592C92.1758 40.5878 94.0238 38.7397 96.2952 38.7397H133.308C135.569 38.7397 137.417 40.5878 137.417 42.8592C137.417 45.1202 135.569 46.9683 133.308 46.9683Z" fill="#24435C"/>
</g>
<path d="M79.8379 46.9683H75.7288C73.4574 46.9683 71.6094 45.1202 71.6094 42.8592C71.6094 40.5878 73.4574 38.7397 75.7288 38.7397H79.8379C82.1093 38.7397 83.9573 40.5878 83.9573 42.8592C83.9573 45.1202 82.1093 46.9683 79.8379 46.9683Z" fill="#24435C"/>
<mask id="mask4_10383_37309" style="mask-type:luminance" maskUnits="userSpaceOnUse" x="69" y="53" width="55" height="12">
<path d="M69 53.687H123.513V64.2592H69V53.687Z" fill="white"/>
</mask>
<g mask="url(#mask4_10383_37309)">
<path d="M120.974 63.4223H75.7327C73.4613 63.4223 71.6133 61.5846 71.6133 59.3132C71.6133 57.0522 73.4613 55.2041 75.7327 55.2041H120.974C123.235 55.2041 125.083 57.0522 125.083 59.3132C125.083 61.5846 123.235 63.4223 120.974 63.4223Z" fill="#24435C"/>
</g>
<path d="M112.744 92.2124H104.515C102.254 92.2124 100.406 90.3644 100.406 88.1033C100.406 85.832 102.254 83.9839 104.515 83.9839H112.744C115.005 83.9839 116.853 85.832 116.853 88.1033C116.853 90.3644 115.005 92.2124 112.744 92.2124Z" fill="#24435C"/>
<path d="M88.0664 92.2124H75.7288C73.4574 92.2124 71.6094 90.3644 71.6094 88.1033C71.6094 85.832 73.4574 83.9839 75.7288 83.9839H88.0664C90.3275 83.9839 92.1755 85.832 92.1755 88.1033C92.1755 90.3644 90.3275 92.2124 88.0664 92.2124Z" fill="#24435C"/>
<path d="M108.633 108.659H96.2952C94.0238 108.659 92.1758 106.821 92.1758 104.55C92.1758 102.288 94.0238 100.44 96.2952 100.44H108.633C110.894 100.44 112.742 102.288 112.742 104.55C112.742 106.821 110.894 108.659 108.633 108.659Z" fill="#24435C"/>
<path d="M79.8379 108.659H75.7288C73.4574 108.659 71.6094 106.821 71.6094 104.55C71.6094 102.288 73.4574 100.44 75.7288 100.44H79.8379C82.1093 100.44 83.9573 102.288 83.9573 104.55C83.9573 106.821 82.1093 108.659 79.8379 108.659Z" fill="#24435C"/>
<path d="M96.295 125.112H75.7288C73.4574 125.112 71.6094 123.264 71.6094 121.003C71.6094 118.732 73.4574 116.884 75.7288 116.884H96.295C98.556 116.884 100.404 118.732 100.404 121.003C100.404 123.264 98.556 125.112 96.295 125.112Z" fill="#24435C"/>
<mask id="mask5_10383_37309" style="mask-type:luminance" maskUnits="userSpaceOnUse" x="111" y="107" width="54" height="19">
<path d="M111.289 107.208H164.15V125.049H111.289V107.208Z" fill="white"/>
</mask>
<g mask="url(#mask5_10383_37309)">
<path d="M149.973 102.222C149.973 102.222 157.459 105.402 162.053 117.347C163.065 120 160.897 122.778 157.923 122.778H117.338C114.375 122.778 112.196 120 113.208 117.347C117.813 105.402 125.298 102.222 125.298 102.222" fill="#ADB5C3"/>
</g>
<mask id="mask6_10383_37309" style="mask-type:luminance" maskUnits="userSpaceOnUse" x="50" y="122" width="174" height="55">
<path d="M50.4961 122.399H223.997V176.241H50.4961V122.399Z" fill="white"/>
</mask>
<g mask="url(#mask6_10383_37309)">
<path d="M223.995 168.014C223.995 172.546 220.289 176.242 215.777 176.242H59.4863C54.9746 176.242 51.2578 172.546 51.2578 168.014C51.2578 163.492 54.9746 159.796 59.4863 159.796H63.5954C63.5954 155.263 67.3122 151.567 71.824 151.567C73.5069 151.567 75.1175 152.063 76.439 152.961C77.5437 149.75 80.5791 147.458 84.1616 147.458C86.3504 147.458 88.3223 148.274 89.7987 149.719C91.8946 145.899 95.9727 143.339 100.619 143.339C104.201 143.339 107.412 144.867 109.622 147.293C111.346 142.554 115.878 139.23 121.175 139.23V122.772H154.078V139.23C159.385 139.23 163.917 142.554 165.631 147.293C167.851 144.867 171.062 143.339 174.645 143.339C179.29 143.339 183.369 145.899 185.454 149.719C186.931 148.274 188.913 147.458 191.091 147.458C194.674 147.458 197.719 149.75 198.824 152.961C200.146 152.063 201.746 151.567 203.439 151.567C207.951 151.567 211.657 155.263 211.657 159.796H215.777C220.289 159.796 223.995 163.492 223.995 168.014Z" fill="#CED5DC"/>
</g>
<mask id="mask7_10383_37309" style="mask-type:luminance" maskUnits="userSpaceOnUse" x="132" y="107" width="11" height="5">
<path d="M132.43 107.208H143.002V111.834H132.43V107.208Z" fill="white"/>
</mask>
<g mask="url(#mask7_10383_37309)">
<path d="M137.635 110.446C135.364 110.446 133.516 108.598 133.516 106.337V73.4333C133.516 71.1723 135.364 69.3242 137.635 69.3242C139.896 69.3242 141.744 71.1723 141.744 73.4333V106.337C141.744 108.598 139.896 110.446 137.635 110.446Z" fill="#3D6BBD"/>
</g>
<path d="M121.176 131.012C125.223 131.012 129.136 132.488 132.151 135.203C133.844 136.721 133.988 139.323 132.471 141.006C131.655 141.925 130.53 142.369 129.404 142.369C128.423 142.369 127.443 142.038 126.658 141.326C125.161 139.973 123.199 139.24 121.176 139.24V131.012Z" fill="#ADB5C3"/>
<path d="M129.408 163.913C128.427 163.913 127.446 163.573 126.662 162.871C125.165 161.518 123.203 160.785 121.179 160.785C118.918 160.785 117.07 158.937 117.07 156.666C117.07 154.384 118.918 152.557 121.179 152.557C125.227 152.557 129.14 154.033 132.154 156.728C133.847 158.256 133.992 160.857 132.474 162.551C131.659 163.449 130.533 163.913 129.408 163.913Z" fill="#ADB5C3"/>
<path d="M145.856 163.913C144.741 163.913 143.615 163.449 142.81 162.551C141.282 160.857 141.427 158.256 143.11 156.748C146.135 154.033 150.027 152.557 154.084 152.557C156.356 152.557 158.204 154.384 158.204 156.666C158.204 158.937 156.356 160.785 154.084 160.785C152.061 160.785 150.099 161.518 148.612 162.85C147.817 163.573 146.837 163.913 145.856 163.913Z" fill="#ADB5C3"/>
<path d="M154.084 139.24C152.06 139.24 150.098 139.973 148.612 141.326C147.817 142.038 146.836 142.369 145.855 142.369C144.74 142.369 143.615 141.925 142.789 141.006C141.281 139.323 141.426 136.721 143.109 135.203C146.134 132.488 150.036 131.012 154.084 131.012V139.24Z" fill="#ADB5C3"/>
<mask id="mask8_10383_37309" style="mask-type:luminance" maskUnits="userSpaceOnUse" x="82" y="159" width="19" height="18">
<path d="M82.2109 159.409H100.712V176.248H82.2109V159.409Z" fill="white"/>
</mask>
<g mask="url(#mask8_10383_37309)">
<path d="M100.621 163.908C100.621 166.169 98.7731 168.017 96.5017 168.017C94.2407 168.017 92.3926 169.865 92.3926 172.136C92.3926 172.869 92.5991 173.582 92.9191 174.191C93.2908 174.852 93.4973 175.513 93.4973 176.246H84.9074C84.4015 174.934 84.1641 173.53 84.1641 172.136C84.1641 165.353 89.7083 159.799 96.5017 159.799C98.7731 159.799 100.621 161.647 100.621 163.908Z" fill="#ADB5C3"/>
</g>
<mask id="mask9_10383_37309" style="mask-type:luminance" maskUnits="userSpaceOnUse" x="172" y="159" width="22" height="18">
<path d="M172.082 159.409H193.226V176.248H172.082V159.409Z" fill="white"/>
</mask>
<g mask="url(#mask9_10383_37309)">
<path d="M191.099 172.136C191.099 173.53 190.862 174.934 190.366 176.246H181.766C181.766 175.513 181.983 174.852 182.344 174.191C182.674 173.582 182.881 172.869 182.881 172.136C182.881 169.865 181.033 168.017 178.761 168.017C176.5 168.017 174.652 166.169 174.652 163.908C174.652 161.647 176.5 159.799 178.761 159.799C185.565 159.799 191.099 165.353 191.099 172.136Z" fill="#ADB5C3"/>
</g>
<mask id="mask10_10383_37309" style="mask-type:luminance" maskUnits="userSpaceOnUse" x="5" y="5" width="58" height="71">
<path d="M5.16406 5.84326H62.6812V75.2128H5.16406V5.84326Z" fill="white"/>
</mask>
<g mask="url(#mask10_10383_37309)">
<path d="M-46.7129 145.687C-51.2659 145.687 -54.9414 142.001 -54.9414 137.458V14.0718C-54.9414 9.52907 -51.2659 5.84326 -46.7129 5.84326H89.0115C93.5542 5.84326 97.2297 9.52907 97.2297 14.0718V137.458C97.2297 142.001 93.5542 145.687 89.0115 145.687H-46.7129Z" fill="#2D5275"/>
</g>
<mask id="mask11_10383_37309" style="mask-type:luminance" maskUnits="userSpaceOnUse" x="42" y="21" width="21" height="12">
<path d="M42.5703 21.9707H62.6822V32.5429H42.5703V21.9707Z" fill="white"/>
</mask>
<g mask="url(#mask11_10383_37309)">
<path d="M80.7785 30.5156H47.8747C45.6137 30.5156 43.7656 28.6676 43.7656 26.3962C43.7656 24.1352 45.6137 22.2871 47.8747 22.2871H80.7785C83.0396 22.2871 84.8876 24.1352 84.8876 26.3962C84.8876 28.6676 83.0396 30.5156 80.7785 30.5156Z" fill="#24435C"/>
</g>
<path d="M31.4297 30.5186H19.0921C16.8207 30.5186 14.9727 28.6705 14.9727 26.3991C14.9727 24.1381 16.8207 22.29 19.0921 22.29H31.4297C33.6908 22.29 35.5388 24.1381 35.5388 26.3991C35.5388 28.6705 33.6908 30.5186 31.4297 30.5186Z" fill="#24435C"/>
<mask id="mask12_10383_37309" style="mask-type:luminance" maskUnits="userSpaceOnUse" x="34" y="37" width="29" height="12">
<path d="M34.6367 37.8325H62.6777V48.4047H34.6367V37.8325Z" fill="white"/>
</mask>
<g mask="url(#mask12_10383_37309)">
<path d="M76.6675 46.9683H39.6443C37.3832 46.9683 35.5352 45.1202 35.5352 42.8592C35.5352 40.5878 37.3832 38.7397 39.6443 38.7397H76.6675C78.9285 38.7397 80.7766 40.5878 80.7766 42.8592C80.7766 45.1202 78.9285 46.9683 76.6675 46.9683Z" fill="#24435C"/>
</g>
<path d="M23.2012 46.9683H19.0921C16.8207 46.9683 14.9727 45.1202 14.9727 42.8592C14.9727 40.5878 16.8207 38.7397 19.0921 38.7397H23.2012C25.4622 38.7397 27.3103 40.5878 27.3103 42.8592C27.3103 45.1202 25.4622 46.9683 23.2012 46.9683Z" fill="#24435C"/>
<mask id="mask13_10383_37309" style="mask-type:luminance" maskUnits="userSpaceOnUse" x="13" y="53" width="50" height="12">
<path d="M13.5 53.687H62.6854V64.2592H13.5V53.687Z" fill="white"/>
</mask>
<g mask="url(#mask13_10383_37309)">
<path d="M64.3335 63.4223H19.0921C16.8207 63.4223 14.9727 61.5846 14.9727 59.3132C14.9727 57.0522 16.8207 55.2041 19.0921 55.2041H64.3335C66.5946 55.2041 68.4426 57.0522 68.4426 59.3132C68.4426 61.5846 66.5946 63.4223 64.3335 63.4223Z" fill="#24435C"/>
</g>
<mask id="mask14_10383_37309" style="mask-type:luminance" maskUnits="userSpaceOnUse" x="54" y="4" width="67" height="65">
<path d="M54.0703 4.05029H120.053V68.3402H54.0703V4.05029Z" fill="white"/>
</mask>
<g mask="url(#mask14_10383_37309)">
<path d="M84.9512 13.3388C85.199 12.7606 85.8804 12.5128 86.4379 12.7813C87.016 13.029 87.2638 13.6898 86.9954 14.268L85.4364 17.6957C85.1886 18.2635 84.5072 18.5216 83.9497 18.2532C83.3819 18.0054 83.1238 17.324 83.3922 16.7665L84.9512 13.3388ZM75.6489 12.5541C75.587 11.9347 76.0516 11.3978 76.671 11.3358C77.2802 11.2739 77.8273 11.7282 77.8893 12.3476L78.2506 16.1057C78.3126 16.7252 77.8583 17.262 77.2389 17.324C76.6194 17.3859 76.0722 16.9317 76.0206 16.3122L75.6489 12.5541ZM67.2036 16.5497C66.8525 16.0438 66.9661 15.3417 67.4617 14.9804C67.9676 14.619 68.6696 14.7326 69.0413 15.2488L71.2301 18.3151C71.5914 18.8107 71.4675 19.5231 70.972 19.8741C70.4661 20.2251 69.764 20.1219 69.3923 19.6057L67.2036 16.5497ZM101.398 45.1172C104.113 45.1172 106.343 47.3266 106.343 50.0626C106.343 52.7882 104.134 55.008 101.398 55.008C98.6516 55.008 96.4525 52.7986 96.4525 50.0626C96.4525 47.337 98.6516 45.1172 101.398 45.1172ZM103.298 48.1629C101.604 46.4697 98.6826 47.6777 98.6826 50.0729C98.6826 52.4785 101.604 53.6658 103.298 51.9726C104.351 50.9299 104.351 49.2263 103.298 48.1629ZM104.702 41.132C105.703 41.4934 106.653 42.0406 107.469 42.7116C107.758 42.5568 108.429 42.1232 108.697 42.0715L111.113 41.4521C111.64 41.3178 112.166 41.5656 112.393 42.0406L113.88 44.6113C114.138 45.0759 114.056 45.6438 113.684 45.9948L111.98 47.7499C111.784 47.9461 111.082 48.3281 110.803 48.483C110.979 49.5774 110.979 50.5891 110.803 51.6835C111.082 51.8384 111.805 52.2204 111.98 52.4166L113.715 54.2027C114.066 54.564 114.128 55.1215 113.88 55.5552L112.342 58.1879C112.084 58.6318 111.567 58.8383 111.093 58.7144L108.677 58.095C108.429 58.0227 107.706 57.5788 107.458 57.4342C106.632 58.1156 105.703 58.6628 104.691 59.0242C104.691 59.4371 104.733 60.1495 104.629 60.4799L103.989 62.8132C103.855 63.3088 103.401 63.6288 102.916 63.6288H99.8596C99.3227 63.6288 98.8581 63.2468 98.7549 62.7513C98.631 62.2247 98.0631 60.4696 98.0631 60.1186V59.0448C97.072 58.6731 96.1222 58.1259 95.2962 57.4549C95.0174 57.6097 94.3464 58.0434 94.0779 58.095L91.662 58.7144C91.1355 58.8487 90.6089 58.5802 90.3818 58.1259L88.8951 55.5552C88.637 55.0906 88.7196 54.5227 89.0912 54.1717L90.7948 52.4166C90.9703 52.2204 91.724 51.8281 91.9718 51.6835C91.7962 50.5891 91.7962 49.5774 91.9718 48.483C91.6517 48.3075 90.9909 47.9564 90.7638 47.719L89.0603 45.9741C88.7092 45.6025 88.6473 45.045 88.8951 44.632L90.4334 41.9786C90.6812 41.5347 91.2077 41.3282 91.6827 41.4521L94.0986 42.0715C94.3464 42.1232 95.0691 42.5878 95.3169 42.7323C96.1428 42.0509 97.072 41.514 98.0838 41.1423C98.0838 40.7294 98.0425 40.0273 98.1457 39.6866L98.7858 37.3636C98.9201 36.8577 99.3743 36.5377 99.8802 36.5377H102.926C103.473 36.5377 103.927 36.9197 104.031 37.4359C104.165 37.9624 104.722 39.7176 104.722 40.048V41.132H104.702ZM105.032 43.7441C104.495 43.4344 103.938 43.2072 103.349 43.042C102.854 42.9181 102.472 42.4845 102.472 41.9373V40.1822L102.069 38.7884H100.717L100.324 40.2028V41.9476C100.324 42.4535 99.9835 42.9078 99.4776 43.042C98.249 43.3827 97.1443 44.0228 96.246 44.9107C95.8847 45.2618 95.3478 45.3547 94.8936 45.0863L93.3862 44.219L91.9408 43.8473L91.2697 45.014L92.3021 46.0774L93.7888 46.9446C94.2225 47.1718 94.4599 47.7086 94.3257 48.2042C94.0057 49.4328 94.0057 50.7234 94.3257 51.9623C94.4599 52.4269 94.2534 52.9638 93.7992 53.2115L92.3021 54.0788L91.2697 55.1422L91.9408 56.2985L93.3862 55.9372L94.8936 55.0699C95.3169 54.8118 95.8744 54.8738 96.246 55.2454C97.072 56.0714 98.2903 56.8148 99.426 57.0935C99.9215 57.1968 100.304 57.6614 100.304 58.1982V59.9534L100.706 61.3678H102.059L102.451 59.9534V58.1982C102.451 57.7026 102.792 57.2484 103.298 57.1142C104.454 56.8044 105.683 56.123 106.498 55.2764C106.86 54.9047 107.427 54.8015 107.882 55.0699L109.389 55.9372L110.834 56.2985L111.505 55.1422L110.463 54.0788L109.017 53.2528C108.553 53.0154 108.284 52.4888 108.429 51.9623C108.739 50.7647 108.77 49.4328 108.429 48.2352C108.295 47.7499 108.491 47.2234 108.945 46.955L110.463 46.0877L111.495 45.0243L110.814 43.868L109.368 44.2293L107.933 45.0759C107.489 45.3547 106.901 45.3031 106.519 44.9211C106.085 44.4565 105.579 44.0745 105.032 43.7441ZM101.398 31.6026C111.598 31.6026 119.868 39.8724 119.868 50.0729C119.868 60.2734 111.598 68.5536 101.398 68.5536C94.6251 68.5536 88.5854 64.8884 85.3641 59.2616C83.3199 64.7852 78.0338 68.5536 72.0044 68.5536C63.0945 68.5536 56.3939 60.4799 57.9839 51.7352L54.8246 49.9181C54.2878 49.6083 54.1019 48.9269 54.4116 48.4004L66.1814 27.2664C66.3879 26.8947 66.7699 26.6882 67.1726 26.6882H91.7653L97.3714 16.147L94.4806 14.4848C93.7269 14.0615 93.7269 12.9671 94.4909 12.5231L108.429 4.49078C109.182 4.04683 110.112 4.60435 110.112 5.46127V21.5673C110.112 22.4036 109.193 23.023 108.357 22.4965L105.631 20.9169L99.8906 31.6646C100.376 31.6233 100.882 31.6026 101.398 31.6026ZM83.8774 55.9682C83.258 54.1098 82.9173 52.1378 82.9173 50.0729C82.9173 49.8458 82.9173 49.5877 82.9379 49.3502C81.9984 47.275 80.491 45.5096 78.612 44.2809C73.8525 41.1423 67.5236 41.7928 63.5074 45.809C58.8305 50.4859 58.8305 58.0846 63.5074 62.7822C67.9985 67.2733 75.205 67.4902 79.9438 63.2675C82.0397 61.4091 83.4851 58.8487 83.8774 55.9682ZM83.4232 45.778C84.3214 42.0199 86.3553 38.7161 89.1738 36.2279H72.1076L69.8982 40.2028C75.1533 39.4182 80.3052 41.6173 83.4232 45.778ZM92.3434 33.9772C93.8095 33.1513 95.4201 32.5008 97.1236 32.1085L104.196 18.883C104.495 18.2635 105.208 18.057 105.765 18.3874L107.871 19.6057V7.39193L97.2888 13.4936L99.426 14.7222C99.9628 15.0113 100.159 15.6927 99.8802 16.2399L93.4894 28.2472C93.3242 28.6498 92.9113 28.9389 92.457 28.9389H67.8024L56.8998 48.5139L58.5724 49.4844C59.2951 47.4815 60.4411 45.6851 61.9175 44.219C63.3113 42.8149 65.0045 41.7205 66.8732 40.9978L70.4144 34.638C70.59 34.2353 70.9823 33.9772 71.4366 33.9772H92.3434ZM112.858 38.5922C106.529 32.2634 96.2564 32.2634 89.9275 38.5922C83.5987 44.9211 83.5987 55.1938 89.9275 61.533C96.2564 67.8618 106.529 67.8618 112.858 61.533C119.187 55.1938 119.187 44.9417 112.858 38.5922ZM72.0044 50.5891C75.2772 50.5891 76.9498 54.595 74.6165 56.918C72.2935 59.2513 68.2876 57.5994 68.2876 54.3059C68.2876 52.241 69.9498 50.5891 72.0044 50.5891ZM73.0162 53.2735C72.1076 52.3546 70.528 53.0051 70.528 54.3059C70.528 55.5965 72.1076 56.2469 73.0162 55.328C73.5944 54.7602 73.5944 53.831 73.0162 53.2735ZM74.6061 47.9977C75.1533 48.2249 75.6696 48.5346 76.1341 48.8856C76.3406 48.7617 76.6194 48.5862 76.8465 48.5346L78.4571 48.1216C78.994 47.9874 79.5205 48.2352 79.758 48.7101L80.7388 50.4343C80.9969 50.8679 80.9247 51.4151 80.584 51.7661L79.4173 52.9741C79.2521 53.1393 78.963 53.2838 78.7565 53.4077C78.8495 54.0375 78.8495 54.5537 78.7565 55.1835C78.963 55.2971 79.2521 55.4519 79.4173 55.6068L80.584 56.8148C80.9453 57.1968 80.9969 57.7852 80.7182 58.2189L80.2329 59.0551L79.7167 59.943C79.4586 60.3767 78.9321 60.5831 78.4571 60.4696L76.8465 60.0566C76.6194 59.9947 76.3613 59.8191 76.1341 59.7056C75.6696 60.0669 75.1533 60.3663 74.6061 60.5831C74.6061 60.8826 74.6371 61.1407 74.5442 61.4401L74.1002 62.9887C73.9764 63.4843 73.5118 63.8044 73.0265 63.8044H70.972C70.4248 63.8044 69.9705 63.4224 69.8672 62.9165C69.764 62.4828 69.3923 61.3781 69.3923 61.0581V60.5728C68.8451 60.3457 68.3392 60.0463 67.8643 59.6849C67.6578 59.8088 67.3791 59.9947 67.1623 60.0463L65.5207 60.4489C64.9941 60.5831 64.4676 60.3354 64.2405 59.8604L63.239 58.1466C62.9809 57.682 63.0635 57.1142 63.4352 56.7735C63.7242 56.4844 64.5502 55.5655 64.8186 55.421L65.2316 55.1732C65.1593 54.5537 65.1593 54.0168 65.2316 53.4077C64.9838 53.2528 64.7257 53.1393 64.5399 52.9431L63.3939 51.7661C63.0325 51.4048 62.9809 50.8369 63.2287 50.4343L64.2611 48.6482C64.5192 48.2042 65.0354 47.9977 65.5104 48.1216L67.1416 48.5346C67.3584 48.5862 67.6269 48.7617 67.8333 48.8856C68.3083 48.5346 68.8245 48.2249 69.3614 47.9977C69.3614 47.688 69.3407 47.4299 69.4233 47.1511L69.8466 45.6025C69.9808 45.0966 70.4351 44.7765 70.9203 44.7765H72.9852C73.5324 44.7765 73.9867 45.1585 74.0899 45.6644C74.1932 46.0877 74.5648 47.1924 74.5648 47.5125V47.9977H74.6061ZM74.2654 50.3414C73.9454 50.1658 73.6047 50.0007 73.233 49.8974C72.7374 49.7942 72.3554 49.3399 72.3554 48.7927V47.6673L72.1799 47.0272H71.8186L71.643 47.6673V48.7927C71.643 49.2986 71.3127 49.7529 70.8068 49.8871C70.0841 50.0729 69.3407 50.5065 68.8245 51.0331C68.4631 51.4048 67.8953 51.508 67.441 51.2396L66.4705 50.6821L65.7994 50.5065L65.6239 50.8163L66.0989 51.3015L67.059 51.8384C67.4926 52.0965 67.7301 52.6127 67.5959 53.1083C67.41 53.8413 67.3894 54.6879 67.5959 55.4313C67.7301 55.9165 67.5236 56.4534 67.0797 56.7115L66.1092 57.269L65.6446 57.7646L65.8201 58.064L66.4809 57.9091L67.4513 57.3516C67.8746 57.0935 68.4425 57.1555 68.8038 57.5271C69.3201 58.0227 70.0737 58.4976 70.7758 58.6731C71.2817 58.7867 71.6637 59.2307 71.6637 59.7778V60.9135L71.8392 61.5433H72.1902L72.3657 60.9135V59.7778C72.3657 59.272 72.7065 58.8177 73.202 58.6835C73.9247 58.4976 74.6784 58.0846 75.205 57.5375C75.5663 57.1761 76.1341 57.0729 76.5884 57.331L77.5589 57.8885L78.23 58.0537L78.3126 57.8885L78.4055 57.7336L77.9203 57.2484L77.022 56.7115C76.5471 56.4844 76.2787 55.9475 76.4336 55.421C76.64 54.657 76.64 53.8413 76.4336 53.0773C76.3097 52.5921 76.5058 52.0759 76.9601 51.8281L77.9306 51.2706L78.4158 50.7853L78.2403 50.4756L77.5796 50.6511L76.6091 51.2086C76.1754 51.4564 75.6179 51.4048 75.2566 51.0331C74.9262 50.7853 74.6165 50.5478 74.2654 50.3414Z" fill="#D6EDA1"/>
</g>
<mask id="mask15_10383_37309" style="mask-type:luminance" maskUnits="userSpaceOnUse" x="124" y="103" width="27" height="49">
<path d="M124.5 103.899H150.93V151.474H124.5V103.899Z" fill="white"/>
</mask>
<g mask="url(#mask15_10383_37309)">
<mask id="mask16_10383_37309" style="mask-type:luminance" maskUnits="userSpaceOnUse" x="114" y="103" width="48" height="48">
<path d="M114.449 126.357L137.173 103.633L161.105 127.554L138.371 150.289L114.449 126.357Z" fill="white"/>
</mask>
<g mask="url(#mask16_10383_37309)">
<mask id="mask17_10383_37309" style="mask-type:luminance" maskUnits="userSpaceOnUse" x="113" y="101" width="49" height="49">
<path d="M113.676 125.585L137.608 101.663L161.529 125.585L137.608 149.517L113.676 125.585Z" fill="white"/>
</mask>
<g mask="url(#mask17_10383_37309)">
<mask id="mask18_10383_37309" style="mask-type:luminance" maskUnits="userSpaceOnUse" x="75" y="24" width="125" height="126">
<path d="M75.2969 87.2029L137.501 24.9985L199.706 87.2029L137.501 149.418L75.2969 87.2029Z" fill="white"/>
</mask>
<g mask="url(#mask18_10383_37309)">
<mask id="mask19_10383_37309" style="mask-type:luminance" maskUnits="userSpaceOnUse" x="114" y="103" width="47" height="47">
<path d="M114.367 126.272L137.504 103.135L160.734 126.375L137.597 149.512L114.367 126.272Z" fill="white"/>
</mask>
<g mask="url(#mask19_10383_37309)">
<mask id="mask20_10383_37309" style="mask-type:luminance" maskUnits="userSpaceOnUse" x="114" y="103" width="47" height="47">
<path d="M114.367 126.271L137.504 103.134L160.641 126.282L137.504 149.418L114.367 126.271Z" fill="white"/>
</mask>
<g mask="url(#mask20_10383_37309)">
<path d="M140.632 107.005C139.64 106.427 138.587 106.117 137.503 106.117C136.409 106.107 135.345 106.417 134.354 107.005L134.334 107.016C134.323 107.026 134.303 107.026 134.292 107.036C127.85 110.856 124.866 119.106 125.197 126.271C125.207 126.549 125.465 126.642 125.579 126.415C125.909 125.703 126.25 125.052 126.601 124.443C126.694 124.288 126.869 124.381 126.859 124.577C126.828 125.207 126.817 125.847 126.817 126.487C126.817 136.76 135.707 147.394 137.276 149.18C137.4 149.325 137.606 149.325 137.73 149.18C139.289 147.405 148.189 136.76 148.189 126.487C148.189 125.858 148.179 125.238 148.148 124.619C148.137 124.423 148.323 124.33 148.406 124.485C148.757 125.083 149.087 125.723 149.407 126.415C149.521 126.642 149.779 126.549 149.789 126.271C150.12 119.085 147.115 110.805 140.632 107.005Z" fill="#F56831"/>
</g>
</g>
</g>
</g>
</g>
</g>
<mask id="mask21_10383_37309" style="mask-type:luminance" maskUnits="userSpaceOnUse" x="127" y="106" width="22" height="38">
<path d="M127.148 106.545H148.293V143.548H127.148V106.545Z" fill="white"/>
</mask>
<g mask="url(#mask21_10383_37309)">
<mask id="mask22_10383_37309" style="mask-type:luminance" maskUnits="userSpaceOnUse" x="114" y="103" width="48" height="48">
<path d="M114.449 126.376L137.173 103.652L161.105 127.574L138.371 150.308L114.449 126.376Z" fill="white"/>
</mask>
<g mask="url(#mask22_10383_37309)">
<mask id="mask23_10383_37309" style="mask-type:luminance" maskUnits="userSpaceOnUse" x="113" y="101" width="49" height="49">
<path d="M113.672 125.626L137.604 101.705L161.525 125.626L137.604 149.558L113.672 125.626Z" fill="white"/>
</mask>
<g mask="url(#mask23_10383_37309)">
<mask id="mask24_10383_37309" style="mask-type:luminance" maskUnits="userSpaceOnUse" x="75" y="25" width="125" height="125">
<path d="M75.2891 87.2366L137.493 25.0322L199.698 87.2366L137.493 149.451L75.2891 87.2366Z" fill="white"/>
</mask>
<g mask="url(#mask24_10383_37309)">
<path d="M144.575 118.368C144.885 120.423 145.05 122.653 145.05 124.976C145.05 132.43 141.168 138.862 138.969 141.918C138.153 143.043 136.821 143.043 136.006 141.918C133.807 138.862 129.925 132.43 129.925 124.976C129.925 123.716 129.976 122.477 130.069 121.29C130.142 120.392 130.234 119.525 130.358 118.678C130.4 118.368 130.152 118.141 129.966 118.327C129.429 118.843 128.903 119.401 128.386 119.999C128.314 120.082 128.201 119.989 128.221 119.865C128.624 117.656 129.45 115.415 130.389 113.443C130.42 113.371 130.451 113.309 130.493 113.237C132.031 110.036 134.612 108.013 137.41 107.93C137.493 107.92 137.575 107.92 137.658 107.92C137.74 107.92 137.823 107.92 137.916 107.93C140.796 108.023 143.429 110.212 144.916 113.598C144.947 113.681 144.988 113.764 145.019 113.856C145.783 115.632 146.382 117.645 146.764 119.865C146.784 119.999 146.671 120.092 146.599 120.01C145.897 119.194 144.864 118.12 144.72 118.007C144.689 117.976 144.513 117.955 144.544 118.182C144.554 118.244 144.565 118.306 144.575 118.368Z" fill="#FEC34C"/>
</g>
</g>
</g>
</g>
<mask id="mask25_10383_37309" style="mask-type:luminance" maskUnits="userSpaceOnUse" x="132" y="103" width="11" height="30">
<path d="M132.43 103.899H143.002V132.972H132.43V103.899Z" fill="white"/>
</mask>
<g mask="url(#mask25_10383_37309)">
<mask id="mask26_10383_37309" style="mask-type:luminance" maskUnits="userSpaceOnUse" x="114" y="103" width="48" height="48">
<path d="M114.449 126.357L137.173 103.633L161.105 127.554L138.371 150.289L114.449 126.357Z" fill="white"/>
</mask>
<g mask="url(#mask26_10383_37309)">
<mask id="mask27_10383_37309" style="mask-type:luminance" maskUnits="userSpaceOnUse" x="113" y="101" width="49" height="49">
<path d="M113.676 125.585L137.608 101.663L161.529 125.585L137.608 149.517L113.676 125.585Z" fill="white"/>
</mask>
<g mask="url(#mask27_10383_37309)">
<mask id="mask28_10383_37309" style="mask-type:luminance" maskUnits="userSpaceOnUse" x="75" y="24" width="125" height="126">
<path d="M75.2969 87.2029L137.501 24.9985L199.706 87.2029L137.501 149.418L75.2969 87.2029Z" fill="white"/>
</mask>
<g mask="url(#mask28_10383_37309)">
<path d="M142.029 118.983C142.029 124.073 139.706 128.471 138.394 130.557C137.93 131.3 137.083 131.3 136.619 130.557C135.307 128.471 132.984 124.073 132.984 118.983C132.984 111.88 135.008 106.119 137.506 106.119C140.005 106.119 142.029 111.88 142.029 118.983Z" fill="#FBEFA9"/>
</g>
</g>
</g>
</g>
<mask id="mask29_10383_37309" style="mask-type:luminance" maskUnits="userSpaceOnUse" x="113" y="101" width="49" height="9">
<path d="M113.93 101.27H161.504V109.199H113.93V101.27Z" fill="white"/>
</mask>
<g mask="url(#mask29_10383_37309)">
<mask id="mask30_10383_37309" style="mask-type:luminance" maskUnits="userSpaceOnUse" x="114" y="103" width="48" height="48">
<path d="M114.449 126.373L137.173 103.649L161.105 127.571L138.371 150.305L114.449 126.373Z" fill="white"/>
</mask>
<g mask="url(#mask30_10383_37309)">
<mask id="mask31_10383_37309" style="mask-type:luminance" maskUnits="userSpaceOnUse" x="113" y="101" width="49" height="49">
<path d="M113.672 125.607L137.604 101.685L161.525 125.607L137.604 149.539L113.672 125.607Z" fill="white"/>
</mask>
<g mask="url(#mask31_10383_37309)">
<mask id="mask32_10383_37309" style="mask-type:luminance" maskUnits="userSpaceOnUse" x="75" y="25" width="125" height="125">
<path d="M75.2891 87.2308L137.493 25.0264L199.698 87.2308L137.493 149.446L75.2891 87.2308Z" fill="white"/>
</mask>
<g mask="url(#mask32_10383_37309)">
<mask id="mask33_10383_37309" style="mask-type:luminance" maskUnits="userSpaceOnUse" x="92" y="25" width="91" height="91">
<path d="M92.1641 70.3538L137.498 25.0298L182.822 70.3538L137.498 115.688L92.1641 70.3538Z" fill="white"/>
</mask>
<g mask="url(#mask33_10383_37309)">
<mask id="mask34_10383_37309" style="mask-type:luminance" maskUnits="userSpaceOnUse" x="92" y="25" width="91" height="91">
<path d="M92.1641 70.3572L137.488 25.0332L182.822 70.3676L137.498 115.692L92.1641 70.3572Z" fill="white"/>
</mask>
<g mask="url(#mask34_10383_37309)">
<path d="M160.684 67.5286C160.684 82.8603 156.183 96.2923 149.451 103.674C147.397 105.925 145.136 107.608 142.73 108.62H132.241C129.825 107.608 127.564 105.904 125.509 103.643C118.788 96.2613 114.297 82.85 114.297 67.5286C114.297 49.3473 128.421 33.8608 134.626 27.9346C135.08 27.5009 135.596 27.1912 136.154 27.0054C136.277 26.9641 136.401 26.9228 136.536 26.8918C136.567 26.8918 136.598 26.8815 136.629 26.8712C137.165 26.7576 137.723 26.7576 138.26 26.8505C138.291 26.8608 138.322 26.8712 138.353 26.8712C139.086 27.026 139.777 27.3874 140.356 27.9346C143.412 30.8564 148.398 36.1012 152.662 42.843C157.05 49.781 160.684 58.3089 160.684 67.5286Z" fill="#F2F2F2"/>
</g>
</g>
</g>
</g>
</g>
</g>
<mask id="mask35_10383_37309" style="mask-type:luminance" maskUnits="userSpaceOnUse" x="124" y="101" width="27" height="9">
<path d="M124.5 101.27H150.93V109.199H124.5V101.27Z" fill="white"/>
</mask>
<g mask="url(#mask35_10383_37309)">
<mask id="mask36_10383_37309" style="mask-type:luminance" maskUnits="userSpaceOnUse" x="114" y="103" width="48" height="48">
<path d="M114.449 126.373L137.173 103.649L161.105 127.571L138.371 150.305L114.449 126.373Z" fill="white"/>
</mask>
<g mask="url(#mask36_10383_37309)">
<mask id="mask37_10383_37309" style="mask-type:luminance" maskUnits="userSpaceOnUse" x="113" y="101" width="49" height="49">
<path d="M113.676 125.607L137.608 101.685L161.529 125.607L137.608 149.539L113.676 125.607Z" fill="white"/>
</mask>
<g mask="url(#mask37_10383_37309)">
<mask id="mask38_10383_37309" style="mask-type:luminance" maskUnits="userSpaceOnUse" x="75" y="25" width="125" height="125">
<path d="M75.2969 87.2308L137.501 25.0264L199.706 87.2308L137.501 149.446L75.2969 87.2308Z" fill="white"/>
</mask>
<g mask="url(#mask38_10383_37309)">
<path d="M149.462 103.666C147.407 105.917 145.146 107.6 142.741 108.611H132.251C129.835 107.6 127.574 105.896 125.52 103.635C129.174 102.375 133.211 101.673 137.444 101.673C141.718 101.673 145.786 102.386 149.462 103.666Z" fill="#4D4D4D"/>
</g>
</g>
</g>
</g>
<mask id="mask39_10383_37309" style="mask-type:luminance" maskUnits="userSpaceOnUse" x="135" y="101" width="27" height="3">
<path d="M135.074 101.27H161.505V103.913H135.074V101.27Z" fill="white"/>
</mask>
<g mask="url(#mask39_10383_37309)">
<mask id="mask40_10383_37309" style="mask-type:luminance" maskUnits="userSpaceOnUse" x="114" y="103" width="48" height="48">
<path d="M114.449 126.373L137.173 103.649L161.105 127.571L138.371 150.305L114.449 126.373Z" fill="white"/>
</mask>
<g mask="url(#mask40_10383_37309)">
<mask id="mask41_10383_37309" style="mask-type:luminance" maskUnits="userSpaceOnUse" x="113" y="101" width="49" height="49">
<path d="M113.672 125.607L137.604 101.685L161.525 125.607L137.604 149.539L113.672 125.607Z" fill="white"/>
</mask>
<g mask="url(#mask41_10383_37309)">
<mask id="mask42_10383_37309" style="mask-type:luminance" maskUnits="userSpaceOnUse" x="75" y="25" width="125" height="125">
<path d="M75.2891 87.2308L137.493 25.0264L199.698 87.2308L137.493 149.446L75.2891 87.2308Z" fill="white"/>
</mask>
<g mask="url(#mask42_10383_37309)">
<path d="M149.455 103.659C146.286 102.554 142.838 101.873 139.214 101.708C139.214 101.687 139.214 101.677 139.214 101.656L141.413 101.604C143.168 100.81 144.82 99.6222 146.348 98.0942C146.719 97.7225 147.091 97.3302 147.453 96.9172C153.441 89.9999 157.261 77.59 156.91 63.5385C156.703 55.0931 153.183 47.3705 149.001 41.1139C148.867 40.9074 148.733 40.7113 148.599 40.5151C150.054 41.1656 151.417 41.9399 152.666 42.8278C154.494 45.7186 156.197 48.8882 157.55 52.2746C157.56 52.2849 157.56 52.2849 157.56 52.2952C159.46 57.0135 160.688 62.1447 160.688 67.5134C160.688 72.0768 160.286 76.4749 159.553 80.5944C159.388 81.5029 159.202 82.4115 159.006 83.289C157.385 90.5884 154.68 96.8759 151.242 101.481C150.663 102.255 150.065 102.978 149.455 103.659ZM136.653 26.856C136.488 26.8869 136.333 26.9282 136.178 26.9798C136.178 26.9798 136.178 26.9798 136.168 26.9798C136.282 26.9489 136.385 26.9179 136.498 26.8869C136.509 26.8869 136.519 26.8869 136.54 26.8766C136.571 26.8766 136.602 26.8663 136.633 26.856C136.633 26.856 136.643 26.856 136.653 26.856Z" fill="#E0E0E0"/>
</g>
</g>
</g>
</g>
<mask id="mask43_10383_37309" style="mask-type:luminance" maskUnits="userSpaceOnUse" x="137" y="101" width="14" height="9">
<path d="M137.719 101.27H150.934V109.199H137.719V101.27Z" fill="white"/>
</mask>
<g mask="url(#mask43_10383_37309)">
<mask id="mask44_10383_37309" style="mask-type:luminance" maskUnits="userSpaceOnUse" x="114" y="103" width="48" height="48">
<path d="M114.441 126.373L137.165 103.649L161.097 127.571L138.363 150.305L114.441 126.373Z" fill="white"/>
</mask>
<g mask="url(#mask44_10383_37309)">
<mask id="mask45_10383_37309" style="mask-type:luminance" maskUnits="userSpaceOnUse" x="113" y="101" width="49" height="49">
<path d="M113.664 125.607L137.596 101.685L161.518 125.607L137.596 149.539L113.664 125.607Z" fill="white"/>
</mask>
<g mask="url(#mask45_10383_37309)">
<mask id="mask46_10383_37309" style="mask-type:luminance" maskUnits="userSpaceOnUse" x="75" y="25" width="125" height="125">
<path d="M75.2852 87.2308L137.49 25.0264L199.694 87.2308L137.49 149.446L75.2852 87.2308Z" fill="white"/>
</mask>
<g mask="url(#mask46_10383_37309)">
<path d="M148.638 104.503C146.821 106.32 144.86 107.703 142.795 108.581C142.784 108.591 142.784 108.591 142.784 108.591C142.764 108.602 142.743 108.602 142.722 108.612H138.18C138.5 106.805 138.871 104.431 139.202 101.715C142.826 101.881 146.274 102.562 149.444 103.667C149.175 103.956 148.907 104.234 148.638 104.503Z" fill="#474747"/>
</g>
</g>
</g>
</g>
<mask id="mask47_10383_37309" style="mask-type:luminance" maskUnits="userSpaceOnUse" x="124" y="101" width="14" height="9">
<path d="M124.5 101.27H137.715V109.199H124.5V101.27Z" fill="white"/>
</mask>
<g mask="url(#mask47_10383_37309)">
<mask id="mask48_10383_37309" style="mask-type:luminance" maskUnits="userSpaceOnUse" x="114" y="103" width="48" height="48">
<path d="M114.449 126.373L137.173 103.649L161.105 127.571L138.371 150.305L114.449 126.373Z" fill="white"/>
</mask>
<g mask="url(#mask48_10383_37309)">
<mask id="mask49_10383_37309" style="mask-type:luminance" maskUnits="userSpaceOnUse" x="113" y="101" width="49" height="49">
<path d="M113.676 125.607L137.608 101.685L161.529 125.607L137.608 149.539L113.676 125.607Z" fill="white"/>
</mask>
<g mask="url(#mask49_10383_37309)">
<mask id="mask50_10383_37309" style="mask-type:luminance" maskUnits="userSpaceOnUse" x="75" y="25" width="125" height="125">
<path d="M75.2969 87.2308L137.501 25.0264L199.706 87.2308L137.501 149.446L75.2969 87.2308Z" fill="white"/>
</mask>
<g mask="url(#mask50_10383_37309)">
<path d="M136.794 108.607H132.251C130.155 107.73 128.173 106.336 126.345 104.509C126.067 104.22 125.788 103.93 125.52 103.631C128.359 102.65 131.435 102.01 134.657 101.773L135.782 101.742C136.112 104.467 136.484 106.821 136.794 108.607Z" fill="#474747"/>
</g>
</g>
</g>
</g>
<mask id="mask51_10383_37309" style="mask-type:luminance" maskUnits="userSpaceOnUse" x="135" y="101" width="6" height="14">
<path d="M135.074 101.27H140.36V114.485H135.074V101.27Z" fill="white"/>
</mask>
<g mask="url(#mask51_10383_37309)">
<mask id="mask52_10383_37309" style="mask-type:luminance" maskUnits="userSpaceOnUse" x="114" y="103" width="48" height="48">
<path d="M114.449 126.373L137.173 103.649L161.105 127.571L138.371 150.305L114.449 126.373Z" fill="white"/>
</mask>
<g mask="url(#mask52_10383_37309)">
<mask id="mask53_10383_37309" style="mask-type:luminance" maskUnits="userSpaceOnUse" x="113" y="101" width="49" height="49">
<path d="M113.672 125.607L137.604 101.685L161.525 125.607L137.604 149.539L113.672 125.607Z" fill="white"/>
</mask>
<g mask="url(#mask53_10383_37309)">
<mask id="mask54_10383_37309" style="mask-type:luminance" maskUnits="userSpaceOnUse" x="75" y="25" width="125" height="125">
<path d="M75.2891 87.2308L137.493 25.0264L199.698 87.2308L137.493 149.446L75.2891 87.2308Z" fill="white"/>
</mask>
<g mask="url(#mask54_10383_37309)">
<path d="M139.735 96.5174C139.033 105.283 137.484 112.293 137.484 112.293C137.484 112.293 135.967 105.417 135.234 96.5174C134.532 87.8242 136.245 80.7417 137.484 80.7417C138.723 80.7417 140.437 87.8242 139.735 96.5174Z" fill="#F15A24"/>
</g>
</g>
</g>
</g>
<mask id="mask55_10383_37309" style="mask-type:luminance" maskUnits="userSpaceOnUse" x="135" y="101" width="6" height="9">
<path d="M135.074 101.27H140.36V109.199H135.074V101.27Z" fill="white"/>
</mask>
<g mask="url(#mask55_10383_37309)">
<mask id="mask56_10383_37309" style="mask-type:luminance" maskUnits="userSpaceOnUse" x="114" y="103" width="48" height="48">
<path d="M114.449 126.373L137.173 103.649L161.105 127.571L138.371 150.305L114.449 126.373Z" fill="white"/>
</mask>
<g mask="url(#mask56_10383_37309)">
<mask id="mask57_10383_37309" style="mask-type:luminance" maskUnits="userSpaceOnUse" x="113" y="101" width="49" height="49">
<path d="M113.672 125.607L137.604 101.685L161.525 125.607L137.604 149.539L113.672 125.607Z" fill="white"/>
</mask>
<g mask="url(#mask57_10383_37309)">
<mask id="mask58_10383_37309" style="mask-type:luminance" maskUnits="userSpaceOnUse" x="75" y="25" width="125" height="125">
<path d="M75.2891 87.2308L137.493 25.0264L199.698 87.2308L137.493 149.446L75.2891 87.2308Z" fill="white"/>
</mask>
<g mask="url(#mask58_10383_37309)">
<path d="M137.486 108.615C137.486 108.615 137.052 102.916 136.836 95.5138C136.64 88.5241 137.104 82.7735 137.455 82.4224C137.465 82.4121 137.476 82.4121 137.486 82.4121C137.847 82.4121 138.333 88.297 138.137 95.5138C137.93 102.792 137.486 108.615 137.486 108.615Z" fill="#F5835B"/>
</g>
</g>
</g>
</g>
<path d="M134.297 64.6265H141.225V81.9405H134.297V64.6265Z" fill="#8C8C8E"/>
<path d="M132.574 81.938H142.961V99.252H132.574V81.938Z" fill="#F0F0F0"/>
<path d="M150.414 99.2559H125.12C123.427 99.2559 121.981 100.474 121.702 102.147L120.453 109.642H155.081L153.832 102.147C153.553 100.474 152.108 99.2559 150.414 99.2559Z" fill="#F0F0F0"/>
<path d="M170.664 35.1899C170.664 37.3477 170.458 39.4849 170.035 41.6014C169.611 43.7179 168.992 45.7828 168.166 47.7754C167.34 49.768 166.318 51.6677 165.12 53.4641C163.923 55.2605 162.56 56.9228 161.032 58.4508C159.504 59.9788 157.842 61.3416 156.045 62.5392C154.249 63.7369 152.349 64.7486 150.356 65.5746C148.364 66.4006 146.309 67.0303 144.182 67.4536C142.066 67.8769 139.929 68.0834 137.771 68.0834C135.613 68.0834 133.466 67.8769 131.349 67.4536C129.233 67.0303 127.178 66.4006 125.175 65.5746C123.183 64.7486 121.283 63.7369 119.497 62.5392C117.7 61.3416 116.038 59.9788 114.51 58.4508C112.982 56.9228 111.619 55.2605 110.411 53.4641C109.214 51.6677 108.202 49.768 107.376 47.7754C106.55 45.7828 105.92 43.7179 105.507 41.6014C105.084 39.4849 104.867 37.3477 104.867 35.1899C104.867 33.0218 105.084 30.8847 105.507 28.7682C105.92 26.6517 106.55 24.5868 107.376 22.5942C108.202 20.6016 109.214 18.7019 110.411 16.9055C111.619 15.109 112.982 13.4468 114.51 11.9188C116.038 10.3908 117.7 9.02795 119.497 7.83033C121.283 6.6327 123.183 5.62091 125.175 4.79496C127.178 3.96901 129.233 3.33922 131.349 2.91592C133.466 2.50294 135.613 2.28613 137.771 2.28613C139.929 2.28613 142.066 2.50294 144.182 2.91592C146.309 3.33922 148.364 3.96901 150.356 4.79496C152.349 5.62091 154.249 6.6327 156.045 7.83033C157.842 9.02795 159.504 10.3908 161.032 11.9188C162.56 13.4468 163.923 15.109 165.12 16.9055C166.318 18.7019 167.34 20.6016 168.166 22.5942C168.992 24.5868 169.611 26.6517 170.035 28.7682C170.458 30.8847 170.664 33.0218 170.664 35.1899Z" fill="#F0F0F0"/>
<path d="M155.081 35.1856C155.081 36.3213 154.968 37.4467 154.751 38.5617C154.524 39.6768 154.193 40.7608 153.76 41.8036C153.326 42.8567 152.789 43.8581 152.159 44.7976C151.53 45.7475 150.817 46.6251 150.012 47.42C149.207 48.2253 148.329 48.948 147.389 49.5778C146.44 50.2076 145.438 50.7445 144.395 51.1781C143.342 51.6117 142.258 51.9421 141.143 52.1589C140.028 52.3861 138.903 52.4996 137.767 52.4996C136.631 52.4996 135.506 52.3861 134.391 52.1589C133.276 51.9421 132.192 51.6117 131.139 51.1781C130.086 50.7445 129.095 50.2076 128.145 49.5778C127.205 48.948 126.328 48.2253 125.522 47.42C124.717 46.6251 124.005 45.7475 123.365 44.7976C122.735 43.8581 122.208 42.8567 121.764 41.8036C121.331 40.7608 121 39.6768 120.784 38.5617C120.556 37.4467 120.453 36.3213 120.453 35.1856C120.453 34.0396 120.556 32.9143 120.784 31.7992C121 30.6842 121.331 29.6002 121.764 28.5574C122.208 27.5043 122.735 26.5028 123.365 25.5633C124.005 24.6135 124.717 23.7462 125.522 22.9409C126.328 22.1356 127.205 21.4129 128.145 20.7831C129.095 20.1533 130.086 19.6165 131.139 19.1828C132.192 18.7492 133.276 18.4188 134.391 18.202C135.506 17.9749 136.631 17.8613 137.767 17.8613C138.903 17.8613 140.028 17.9749 141.143 18.202C142.258 18.4188 143.342 18.7492 144.395 19.1828C145.438 19.6165 146.44 20.1533 147.389 20.7831C148.329 21.4129 149.207 22.1356 150.012 22.9409C150.817 23.7462 151.53 24.6135 152.159 25.5633C152.789 26.5028 153.326 27.5043 153.76 28.5574C154.193 29.6002 154.524 30.6842 154.751 31.7992C154.968 32.9143 155.081 34.0396 155.081 35.1856Z" fill="#8C8C8E"/>
<path d="M141.225 35.1819C141.225 35.6362 141.142 36.0801 140.966 36.5034C140.791 36.9267 140.533 37.2984 140.213 37.6288C139.893 37.9488 139.511 38.1966 139.087 38.3721C138.664 38.5476 138.22 38.6406 137.766 38.6406C137.301 38.6406 136.868 38.5476 136.434 38.3721C136.011 38.1966 135.639 37.9488 135.319 37.6288C134.989 37.2984 134.741 36.9267 134.565 36.5034C134.39 36.0801 134.297 35.6362 134.297 35.1819C134.297 34.7173 134.39 34.2733 134.565 33.85C134.741 33.4267 134.989 33.0551 135.319 32.7247C135.639 32.4046 136.011 32.1568 136.434 31.9813C136.868 31.8058 137.301 31.7129 137.766 31.7129C138.22 31.7129 138.664 31.8058 139.087 31.9813C139.511 32.1568 139.893 32.4046 140.213 32.7247C140.533 33.0551 140.791 33.4267 140.966 33.85C141.142 34.2733 141.225 34.7173 141.225 35.1819Z" fill="#F0F0F0"/>
<path d="M170.664 35.1932C170.664 31.621 170.096 28.1933 169.053 24.9824C165.037 25.891 162.012 30.1136 162.012 35.1932C162.012 40.2625 165.037 44.4852 169.053 45.3937C170.096 42.1828 170.664 38.7551 170.664 35.1932Z" fill="#8C8C8E"/>
<path d="M104.867 35.1932C104.867 38.7551 105.445 42.1828 106.488 45.3937C110.494 44.4852 113.529 40.2625 113.529 35.1932C113.529 30.1136 110.494 25.891 106.488 24.9824C105.445 28.1933 104.867 31.621 104.867 35.1932Z" fill="#8C8C8E"/>
<mask id="mask59_10383_37309" style="mask-type:luminance" maskUnits="userSpaceOnUse" x="103" y="0" width="70" height="112">
<path d="M103.137 0.545898H172.496V111.832H103.137V0.545898Z" fill="white"/>
</mask>
<g mask="url(#mask59_10383_37309)">
<path d="M172.393 35.1842C172.393 16.0841 156.854 0.545898 137.765 0.545898C118.665 0.545898 103.137 16.0841 103.137 35.1842C103.137 52.5085 115.929 66.911 132.572 69.4199V80.1985C131.611 80.1985 130.837 80.9728 130.837 81.933V97.5125H125.107C122.567 97.5125 120.409 99.3399 119.986 101.849L118.985 107.899H115.258C114.297 107.899 113.523 108.673 113.523 109.633C113.523 110.593 114.297 111.368 115.258 111.368H160.272C161.232 111.368 162.006 110.593 162.006 109.633C162.006 108.673 161.232 107.899 160.272 107.899H156.545L155.533 101.849C155.12 99.3399 152.962 97.5125 150.412 97.5125H144.692V81.933C144.692 80.9728 143.918 80.1985 142.958 80.1985V69.4199C159.601 66.911 172.393 52.5085 172.393 35.1842ZM168.934 35.1842C168.934 37.9202 168.573 40.5839 167.902 43.1133C165.413 41.7712 163.731 38.6842 163.731 35.1842C163.731 31.6739 165.413 28.5869 167.902 27.2448C168.573 29.7742 168.934 32.4379 168.934 35.1842ZM106.595 35.1842C106.595 32.4379 106.957 29.7742 107.618 27.2448C110.106 28.5869 111.789 31.6739 111.789 35.1842C111.789 38.6842 110.106 41.7712 107.618 43.1133C106.957 40.5839 106.595 37.9202 106.595 35.1842ZM108.702 46.4378C112.594 44.6413 115.258 40.2122 115.258 35.1842C115.258 30.1459 112.594 25.7167 108.702 23.9203C113.234 12.2847 124.549 4.01489 137.765 4.01489C150.98 4.01489 162.295 12.2847 166.818 23.9203C162.936 25.7167 160.272 30.1459 160.272 35.1842C160.272 40.2122 162.936 44.6413 166.818 46.4378C162.295 58.0734 150.98 66.3432 137.765 66.3432C124.549 66.3432 113.224 58.0734 108.702 46.4378ZM152.116 102.417L153.034 107.899H122.495L123.403 102.417C123.548 101.58 124.26 100.971 125.117 100.971H150.412C151.259 100.971 151.981 101.58 152.116 102.417ZM134.296 97.5125V83.6572H141.223V97.5125H134.296ZM139.499 80.1985H136.03V69.7606C136.608 69.7915 137.187 69.8122 137.765 69.8122C138.343 69.8122 138.921 69.7915 139.499 69.7606V80.1985Z" fill="#3F3F3F"/>
</g>
<path d="M156.816 35.1867C156.816 24.6764 148.267 16.1382 137.767 16.1382C127.267 16.1382 118.719 24.6764 118.719 35.1867C118.719 45.6866 127.267 54.2248 137.767 54.2248C148.267 54.2248 156.816 45.6866 156.816 35.1867ZM122.177 35.1867C122.177 26.5865 129.177 19.5969 137.767 19.5969C146.357 19.5969 153.347 26.5865 153.347 35.1867C153.347 43.7766 146.357 50.7662 137.767 50.7662C129.177 50.7662 122.177 43.7766 122.177 35.1867Z" fill="#3F3F3F"/>
<path d="M142.961 35.1869C142.961 32.3167 140.627 29.9834 137.767 29.9834C134.897 29.9834 132.574 32.3167 132.574 35.1869C132.574 38.0467 134.897 40.3801 137.767 40.3801C140.627 40.3801 142.961 38.0467 142.961 35.1869ZM136.033 35.1869C136.033 34.2267 136.807 33.4524 137.767 33.4524C138.717 33.4524 139.502 34.2267 139.502 35.1869C139.502 36.1367 138.717 36.9111 137.767 36.9111C136.807 36.9111 136.033 36.1367 136.033 35.1869Z" fill="#3F3F3F"/>
<path d="M139.504 24.7881C139.504 25.2734 139.329 25.676 138.988 26.0167C138.658 26.3574 138.245 26.5226 137.77 26.5226C137.284 26.5226 136.882 26.3574 136.541 26.0167C136.2 25.676 136.035 25.2734 136.035 24.7881C136.035 24.3132 136.2 23.9002 136.541 23.5699C136.882 23.2292 137.284 23.064 137.77 23.064C138.245 23.064 138.658 23.2292 138.988 23.5699C139.329 23.9002 139.504 24.3132 139.504 24.7881Z" fill="#3F3F3F"/>
<path d="M139.504 45.5763C139.504 46.0512 139.329 46.4642 138.988 46.7946C138.658 47.1353 138.245 47.3005 137.77 47.3005C137.284 47.3005 136.882 47.1353 136.541 46.7946C136.2 46.4642 136.035 46.0512 136.035 45.5763C136.035 45.091 136.2 44.6884 136.541 44.3477C136.882 44.007 137.284 43.8418 137.77 43.8418C138.245 43.8418 138.658 44.007 138.988 44.3477C139.329 44.6884 139.504 45.091 139.504 45.5763Z" fill="#3F3F3F"/>
<path d="M129.199 26.6029C128.517 27.2843 128.517 28.3787 129.199 29.0498C129.87 29.7312 130.964 29.7312 131.645 29.0498C132.317 28.3787 132.317 27.2843 131.645 26.6029C130.964 25.9318 129.87 25.9318 129.199 26.6029Z" fill="#3F3F3F"/>
<path d="M146.341 43.7573C147.012 43.0758 147.012 41.9815 146.341 41.3104C145.67 40.629 144.565 40.629 143.894 41.3104C143.212 41.9815 143.212 43.0758 143.894 43.7573C144.565 44.4283 145.67 44.4283 146.341 43.7573Z" fill="#3F3F3F"/>
<path d="M129.107 35.1842C129.107 35.6591 128.942 36.0618 128.601 36.4025C128.261 36.7432 127.858 36.9084 127.383 36.9084C126.898 36.9084 126.495 36.7432 126.154 36.4025C125.814 36.0618 125.648 35.6591 125.648 35.1842C125.648 34.699 125.814 34.2963 126.154 33.9556C126.495 33.6149 126.898 33.4497 127.383 33.4497C127.858 33.4497 128.261 33.6149 128.601 33.9556C128.942 34.2963 129.107 34.699 129.107 35.1842Z" fill="#3F3F3F"/>
<path d="M149.891 35.1842C149.891 35.6591 149.715 36.0618 149.385 36.4025C149.044 36.7432 148.631 36.9084 148.156 36.9084C147.681 36.9084 147.268 36.7432 146.928 36.4025C146.597 36.0618 146.422 35.6591 146.422 35.1842C146.422 34.699 146.597 34.2963 146.928 33.9556C147.268 33.6149 147.681 33.4497 148.156 33.4497C148.631 33.4497 149.044 33.6149 149.385 33.9556C149.715 34.2963 149.891 34.699 149.891 35.1842Z" fill="#3F3F3F"/>
<path d="M129.199 41.3026C128.517 41.984 128.517 43.0784 129.199 43.7495C129.87 44.4309 130.964 44.4309 131.645 43.7495C132.317 43.0784 132.317 41.984 131.645 41.3026C130.964 40.6315 129.87 40.6315 129.199 41.3026Z" fill="#3F3F3F"/>
<path d="M146.341 29.0712C147.012 28.3898 147.012 27.2954 146.341 26.6243C145.67 25.9429 144.565 25.9429 143.894 26.6243C143.212 27.2954 143.212 28.3898 143.894 29.0712C144.565 29.7423 145.67 29.7423 146.341 29.0712Z" fill="#3F3F3F"/>
<mask id="mask60_10383_37309" style="mask-type:luminance" maskUnits="userSpaceOnUse" x="5" y="16" width="53" height="34">
<path d="M5.16406 16.0791H57.6119V49.9121H5.16406V16.0791Z" fill="white"/>
</mask>
<g mask="url(#mask60_10383_37309)">
<path d="M56.9328 67.5119H7.13833C1.05727 67.5119 -3.89844 62.5666 -3.89844 56.4752V6.68067C-3.89844 0.609928 1.04694 -4.33545 7.13833 -4.33545H56.9328C63.0036 -4.33545 67.9489 0.609928 67.9489 6.68067V56.4752C67.9489 62.5666 63.0036 67.5119 56.9328 67.5119ZM7.13833 -0.711591C3.0602 -0.711591 -0.25393 2.61286 -0.25393 6.68067V56.4752C-0.25393 60.5533 3.0602 63.8674 7.13833 63.8674H56.9328C61.0006 63.8674 64.3251 60.5533 64.3251 56.4752V6.68067C64.3251 2.61286 61.0006 -0.711591 56.9328 -0.711591H7.13833Z" fill="#D6EDA1"/>
</g>
<path d="M39.2423 45.4724H32.5004L30.8072 40.7645H18.8929L17.1481 45.4724H10.4062L21.1333 17.6792H28.5462L39.2423 45.4724ZM29.1657 35.561L24.8294 23.6054L20.5035 35.561H29.1657Z" fill="#D6EDA1"/>
<path d="M41.8398 17.6792H47.7557V45.4724H41.8398V17.6792Z" fill="#D6EDA1"/>
<mask id="mask61_10383_37309" style="mask-type:luminance" maskUnits="userSpaceOnUse" x="1" y="60" width="59" height="70">
<path d="M1.69922 60.5825H59.2267V129.952H1.69922V60.5825Z" fill="white"/>
</mask>
<g mask="url(#mask61_10383_37309)">
<path d="M-50.2324 200.416C-54.7751 200.416 -58.4609 196.74 -58.4609 192.198V68.8111C-58.4609 64.258 -54.7751 60.5825 -50.2324 60.5825H85.4919C90.0347 60.5825 93.7205 64.258 93.7205 68.8111V192.198C93.7205 196.74 90.0347 200.416 85.4919 200.416H-50.2324Z" fill="#2D5275"/>
</g>
<mask id="mask62_10383_37309" style="mask-type:luminance" maskUnits="userSpaceOnUse" x="39" y="74" width="21" height="12">
<path d="M39.9258 74.8247H59.2221V85.3969H39.9258V74.8247Z" fill="white"/>
</mask>
<g mask="url(#mask62_10383_37309)">
<path d="M77.259 85.2514H44.3552C42.0942 85.2514 40.2461 83.4033 40.2461 81.1423C40.2461 78.8813 42.0942 77.0332 44.3552 77.0332H77.259C79.5304 77.0332 81.3784 78.8813 81.3784 81.1423C81.3784 83.4033 79.5304 85.2514 77.259 85.2514Z" fill="#24435C"/>
</g>
<path d="M27.9077 85.2626H15.57C13.2987 85.2626 11.4609 83.4146 11.4609 81.1535C11.4609 78.8925 13.2987 77.0444 15.57 77.0444H27.9077C30.1687 77.0444 32.0168 78.8925 32.0168 81.1535C32.0168 83.4146 30.1687 85.2626 27.9077 85.2626Z" fill="#24435C"/>
<mask id="mask63_10383_37309" style="mask-type:luminance" maskUnits="userSpaceOnUse" x="31" y="93" width="29" height="11">
<path d="M31.9961 93.3423H59.2215V103.914H31.9961V93.3423Z" fill="white"/>
</mask>
<g mask="url(#mask63_10383_37309)">
<path d="M73.148 101.724H36.1351C33.8637 101.724 32.0156 99.8761 32.0156 97.6047C32.0156 95.3437 33.8637 93.4956 36.1351 93.4956H73.148C75.409 93.4956 77.2571 95.3437 77.2571 97.6047C77.2571 99.8761 75.409 101.724 73.148 101.724Z" fill="#24435C"/>
</g>
<path d="M19.6791 101.723H15.57C13.2987 101.723 11.4609 99.8751 11.4609 97.6037C11.4609 95.3427 13.2987 93.4946 15.57 93.4946H19.6791C21.9505 93.4946 23.7986 95.3427 23.7986 97.6037C23.7986 99.8751 21.9505 101.723 19.6791 101.723Z" fill="#24435C"/>
<mask id="mask64_10383_37309" style="mask-type:luminance" maskUnits="userSpaceOnUse" x="10" y="109" width="50" height="11">
<path d="M10.8516 109.196H59.2213V119.768H10.8516V109.196Z" fill="white"/>
</mask>
<g mask="url(#mask64_10383_37309)">
<path d="M60.8115 118.167H15.57C13.2987 118.167 11.4609 116.319 11.4609 114.058C11.4609 111.787 13.2987 109.939 15.57 109.939H60.8115C63.0725 109.939 64.9206 111.787 64.9206 114.058C64.9206 116.319 63.0725 118.167 60.8115 118.167Z" fill="#24435C"/>
</g>
<path d="M44.6816 96.0943C43.8969 96.0943 43.1639 96.3318 42.5341 96.7654C41.8734 96.2802 41.099 96.0117 40.2731 96.0117C39.251 96.0117 38.2908 96.404 37.5681 97.1268C37.2377 97.4675 37.2377 98.0043 37.5681 98.345C37.9088 98.6754 38.4457 98.6754 38.7864 98.345C39.5814 97.5501 40.9648 97.5501 41.7598 98.345C42.1624 98.7374 42.3793 99.2742 42.3793 99.8317C42.3793 100.4 42.1624 100.926 41.7598 101.318C41.4294 101.659 41.4294 102.206 41.7598 102.537C41.9353 102.702 42.1521 102.785 42.3689 102.785C42.5857 102.785 42.8129 102.702 42.9781 102.537C43.7008 101.814 44.1034 100.854 44.1034 99.8317C44.1034 99.2123 43.9382 98.6341 43.6595 98.0972C44.4648 97.6739 45.5179 97.7772 46.1683 98.4379C46.3335 98.6031 46.5606 98.6857 46.7774 98.6857C46.9943 98.6857 47.2214 98.6031 47.3866 98.4379C47.717 98.0972 47.717 97.5501 47.3866 97.2197C46.6639 96.497 45.7037 96.0943 44.6816 96.0943Z" fill="#D6EDA1"/>
<path d="M51.5525 93.6094C51.3357 93.3926 51.1085 93.1861 50.8711 93.0003C51.9345 92.2363 52.6262 90.987 52.6262 89.6139C52.6262 87.7452 51.377 86.1449 49.6631 85.6287C50.0554 84.2762 49.9832 82.8204 49.4463 81.4267C48.8165 79.8057 47.464 78.4945 45.8224 77.9164C44.4906 77.4518 43.1174 77.4001 41.8579 77.7615C41.9095 77.0904 41.8063 76.3987 41.5275 75.7276C41.1042 74.6848 40.2473 73.8795 39.1942 73.5079C37.8417 73.0226 36.4169 73.2084 35.2916 74.0034C34.9405 74.2512 34.6411 74.5506 34.383 74.8913C34.1352 74.5506 33.8255 74.2512 33.4745 74.0034C32.3491 73.2084 30.9244 73.0226 29.5822 73.5079C28.5188 73.8795 27.6722 74.6848 27.2385 75.7276C26.9701 76.3987 26.8565 77.0904 26.9185 77.7615C25.6589 77.4001 24.2858 77.4518 22.9436 77.9164C21.3124 78.4945 19.9599 79.8057 19.3197 81.4267C18.7829 82.8204 18.7209 84.2762 19.1133 85.6287C17.3994 86.1449 16.1398 87.7452 16.1398 89.6139C16.1398 90.987 16.8316 92.2363 17.895 93.0003C17.6575 93.1861 17.4304 93.3926 17.2239 93.6094C16.0882 94.7967 15.4688 96.3454 15.4688 97.987C15.4688 100.723 17.2136 103.108 19.743 103.965C19.5056 105.018 19.6192 106.112 20.0837 107.176C20.5793 108.28 21.5085 109.189 22.6442 109.654C23.976 110.211 25.3698 110.201 26.6294 109.643C27.5896 110.562 28.8285 111.058 30.1294 111.058C30.7901 111.058 31.4612 110.934 32.122 110.676C33.0615 110.304 33.8358 109.654 34.383 108.817C34.9302 109.654 35.7149 110.304 36.6441 110.676C37.3048 110.934 37.9759 111.058 38.6367 111.058C39.9375 111.058 41.1868 110.562 42.147 109.643C43.3962 110.201 44.79 110.211 46.1322 109.654C47.2679 109.189 48.197 108.28 48.6823 107.176C49.1469 106.112 49.2708 105.018 49.0333 103.965C51.5525 103.108 53.3076 100.723 53.3076 97.987C53.3076 96.3454 52.6778 94.7967 51.5525 93.6094ZM31.5025 109.075C29.6958 109.767 28.2503 109.003 27.4863 108.043C27.3211 107.826 27.0734 107.713 26.8152 107.713C26.6604 107.713 26.5055 107.754 26.361 107.847C25.7002 108.249 24.6368 108.621 23.2946 108.064C22.5719 107.764 21.9731 107.186 21.6634 106.484C21.1472 105.307 21.3536 104.326 21.6324 103.717C21.7357 103.469 21.7253 103.19 21.6014 102.963C21.4775 102.726 21.2504 102.561 20.9923 102.519C18.7829 102.127 17.1826 100.227 17.1826 97.987C17.1826 96.7893 17.6369 95.664 18.4628 94.8071C18.9274 94.3115 19.5056 93.9295 20.1354 93.6817C20.507 93.5475 20.7239 93.1758 20.6826 92.7835C20.6413 92.4015 20.3419 92.0917 19.9599 92.0298C18.7416 91.8543 17.864 90.8425 17.864 89.6139C17.864 88.2717 18.9584 87.1773 20.3006 87.167C20.6 87.167 20.8787 87.0121 21.0336 86.754C21.1885 86.5063 21.1988 86.1862 21.0646 85.9178C20.6413 85.0815 20.2799 83.7187 20.9303 82.0461C21.3743 80.8898 22.3448 79.9503 23.5114 79.5373C25.1117 78.9798 26.7636 79.2379 28.0438 80.2497C28.3949 80.5181 28.8905 80.4871 29.2002 80.1671C29.4996 79.847 29.5202 79.3411 29.2312 79.0108C28.591 78.2777 28.4465 77.3176 28.8285 76.378C29.066 75.7999 29.5615 75.3353 30.15 75.1288C30.9657 74.8294 31.8226 74.9326 32.4833 75.4075C33.1338 75.8721 33.5261 76.6155 33.5261 77.4105V100.609C32.7724 100.011 31.8226 99.6492 30.7901 99.6492C28.3329 99.6492 26.33 101.642 26.33 104.099C26.33 104.574 26.7223 104.956 27.1973 104.956C27.6722 104.956 28.0542 104.574 28.0542 104.099C28.0542 102.592 29.2828 101.363 30.7901 101.363C32.2975 101.363 33.5261 102.592 33.5261 104.099V105.937C33.5261 107.341 32.7105 108.6 31.5025 109.075ZM47.7737 102.519C47.5156 102.561 47.2885 102.726 47.1646 102.963C47.0407 103.19 47.0304 103.469 47.144 103.717C47.4124 104.326 47.6292 105.307 47.113 106.484C46.8033 107.186 46.2044 107.764 45.4714 108.064C44.1292 108.621 43.0658 108.249 42.4051 107.847C42.0334 107.62 41.5585 107.702 41.2797 108.043C40.526 109.003 39.0703 109.767 37.2738 109.075C36.0556 108.6 35.2399 107.341 35.2399 105.937V88.7673C36.004 89.3558 36.9435 89.7275 37.9759 89.7275C40.4331 89.7275 42.436 87.7349 42.436 85.2777C42.436 84.8027 42.054 84.4207 41.5791 84.4207C41.1042 84.4207 40.7119 84.8027 40.7119 85.2777C40.7119 86.785 39.4936 88.0136 37.9759 88.0136C36.4685 88.0136 35.2399 86.785 35.2399 85.2777V77.4105C35.2399 76.6155 35.6323 75.8721 36.2827 75.4075C36.706 75.1081 37.1913 74.9636 37.6971 74.9636C38.0069 74.9636 38.3166 75.0152 38.616 75.1288C39.2045 75.3353 39.7001 75.7999 39.9375 76.378C40.3195 77.3176 40.175 78.2777 39.5452 79.0108C39.2561 79.3411 39.2665 79.847 39.5762 80.1671C39.8756 80.4871 40.3815 80.5181 40.7325 80.2497C42.0024 79.2379 43.6543 78.9798 45.2546 79.5373C46.4213 79.9503 47.3917 80.8898 47.846 82.0461C48.4965 83.7187 48.1248 85.0815 47.7015 85.9178C47.5673 86.1862 47.5776 86.5063 47.7324 86.754C47.8873 87.0121 48.1661 87.167 48.4655 87.167C49.8077 87.1773 50.9124 88.2717 50.9124 89.6139C50.9124 90.8425 50.0245 91.8543 48.8165 92.0298C48.4242 92.0917 48.1248 92.4015 48.0835 92.7835C48.0422 93.1758 48.2693 93.5475 48.6307 93.6817C49.2605 93.9295 49.8386 94.3115 50.3135 94.8071C51.1292 95.664 51.5834 96.7893 51.5834 97.987C51.5834 100.227 49.9832 102.127 47.7737 102.519Z" fill="#D6EDA1"/>
<path d="M27.9895 92.1977C27.9895 92.6727 28.3715 93.0547 28.8464 93.0547C29.3214 93.0547 29.7034 92.6727 29.7034 92.1977C29.7034 90.8453 29.0013 89.6683 27.9482 88.9869C27.9482 88.9765 27.9585 88.9765 27.9585 88.9765C29.4556 87.4795 29.4556 85.0533 27.9585 83.5666C27.6282 83.2259 27.081 83.2259 26.7403 83.5666C26.4099 83.8969 26.4099 84.4441 26.7403 84.7848C27.5662 85.6005 27.5662 86.9426 26.7403 87.7583C25.9246 88.5842 24.5825 88.5842 23.7668 87.7583C23.4261 87.4279 22.8893 87.4279 22.5486 87.7583C22.2182 88.099 22.2182 88.6358 22.5486 88.9765C23.2919 89.7199 24.2727 90.0916 25.2536 90.0916C25.3981 90.0916 25.553 90.0709 25.6975 90.0503C25.7594 90.0606 25.8111 90.0916 25.8833 90.0916C27.0397 90.0916 27.9895 91.0311 27.9895 92.1977Z" fill="#D6EDA1"/>
<mask id="mask65_10383_37309" style="mask-type:luminance" maskUnits="userSpaceOnUse" x="0" y="57" width="69" height="71">
<path d="M0 57.7886H68.9978V127.148H0V57.7886Z" fill="white"/>
</mask>
<g mask="url(#mask65_10383_37309)">
<path d="M67.9035 93.0257C68.3784 93.0257 68.7604 92.6437 68.7604 92.1688C68.7604 91.6938 68.3784 91.3015 67.9035 91.3015H60.1705V79.2736H64.641C64.9713 80.0273 65.7354 80.5642 66.6129 80.5642C67.8002 80.5642 68.7604 79.604 68.7604 78.4167C68.7604 77.2294 67.8002 76.2692 66.6129 76.2692C65.7354 76.2692 64.9713 76.7958 64.641 77.5494H60.1705V70.6734C60.1705 68.3091 58.2398 66.3785 55.8652 66.3785H48.9995V58.6455C48.9995 58.1706 48.6072 57.7886 48.1323 57.7886C47.6677 57.7886 47.2753 58.1706 47.2753 58.6455V66.3785H35.2474V58.6455C35.2474 58.1706 34.8654 57.7886 34.3905 57.7886C33.9156 57.7886 33.5233 58.1706 33.5233 58.6455V66.3785H21.4954V61.8977C22.249 61.5673 22.7859 60.8136 22.7859 59.936C22.7859 58.7487 21.8257 57.7886 20.6384 57.7886C19.4511 57.7886 18.491 58.7487 18.491 59.936C18.491 60.8136 19.0175 61.5673 19.7712 61.8977V66.3785H12.8952C10.5309 66.3785 8.60021 68.3091 8.60021 70.6734V77.5494H0.867248C0.392328 77.5494 0 77.9418 0 78.4167C0 78.8916 0.392328 79.2736 0.867248 79.2736H8.60021V91.3015H0.867248C0.392328 91.3015 0 91.6938 0 92.1688C0 92.6437 0.392328 93.0257 0.867248 93.0257H8.60021V105.054H4.11943C3.78905 104.3 3.03537 103.763 2.1578 103.763C0.970491 103.763 0 104.734 0 105.921C0 107.098 0.970491 108.068 2.1578 108.068C3.03537 108.068 3.78905 107.531 4.11943 106.778H8.60021V113.654C8.60021 116.018 10.5309 117.949 12.8952 117.949H19.7712V122.44C19.0175 122.77 18.491 123.524 18.491 124.401C18.491 125.589 19.4511 126.549 20.6384 126.549C21.8257 126.549 22.7859 125.589 22.7859 124.401C22.7859 123.524 22.249 122.76 21.4954 122.43V117.949H33.5233V125.682C33.5233 126.157 33.9053 126.539 34.3802 126.539C34.8551 126.539 35.2371 126.157 35.2371 125.682V117.949H47.2753V125.682C47.2753 126.157 47.6574 126.539 48.1323 126.539C48.6072 126.539 48.9892 126.157 48.9892 125.682V117.949H55.8652C58.2398 117.949 60.1705 116.018 60.1705 113.654V106.778H67.9035C68.3784 106.778 68.7604 106.385 68.7604 105.921C68.7604 105.446 68.3784 105.054 67.9035 105.054H60.1705V93.0257H67.9035ZM58.4463 113.654C58.4463 115.068 57.29 116.225 55.8652 116.225H12.8952C11.4704 116.225 10.3141 115.068 10.3141 113.654V70.6734C10.3141 69.259 11.4704 68.1026 12.8952 68.1026H55.8652C57.29 68.1026 58.4463 69.259 58.4463 70.6734V113.654Z" fill="#D6EDA1"/>
</g>
</svg>
