<svg width="169" height="176" viewBox="0 0 169 176" fill="none" xmlns="http://www.w3.org/2000/svg">
<path d="M113.963 73.6456H128.579C129.397 73.6456 130.185 73.2976 130.738 72.6835L143.01 59.2347C144.095 58.0372 144.003 56.1949 142.836 55.1202C141.638 54.0353 139.796 54.1274 138.711 55.2942L127.32 67.7707H113.994C112.387 67.7707 111.066 69.091 111.066 70.6979C111.066 72.3048 112.387 73.6149 113.994 73.6149L113.963 73.6456Z" fill="#D7EEA1"/>
<path d="M130.739 103.828C130.186 103.214 129.398 102.866 128.579 102.866H113.964C112.357 102.866 111.047 104.186 111.047 105.793C111.047 107.4 112.357 108.71 113.964 108.71H127.29L138.692 121.186C139.275 121.831 140.063 122.159 140.851 122.159C141.547 122.159 142.253 121.893 142.806 121.391C144.004 120.316 144.096 118.474 142.98 117.277L130.708 103.828H130.739Z" fill="#D7EEA1"/>
<path d="M149.029 85.3311H113.964C112.357 85.3311 111.047 86.6411 111.047 88.2583C111.047 89.8652 112.357 91.1752 113.964 91.1752H149.029C150.636 91.1752 151.956 89.8652 151.956 88.2583C151.956 86.6411 150.636 85.3311 149.029 85.3311Z" fill="#D7EEA1"/>
<path d="M61.3681 67.8018H52.5967C50.9898 67.8018 49.6797 69.1118 49.6797 70.7187C49.6797 72.3256 50.9898 73.6459 52.5967 73.6459H61.3681C62.975 73.6459 64.2851 72.3256 64.2851 70.7187C64.2851 69.1118 62.975 67.8018 61.3681 67.8018Z" fill="#D7EEA1"/>
<path d="M61.3681 102.866H52.5967C50.9898 102.866 49.6797 104.186 49.6797 105.793C49.6797 107.4 50.9898 108.71 52.5967 108.71H61.3681C62.975 108.71 64.2851 107.4 64.2851 105.793C64.2851 104.186 62.975 102.866 61.3681 102.866Z" fill="#D7EEA1"/>
<path d="M61.3681 85.3311H52.5967C50.9898 85.3311 49.6797 86.6411 49.6797 88.2583C49.6797 89.8652 50.9898 91.1752 52.5967 91.1752H61.3681C62.975 91.1752 64.2851 89.8652 64.2851 88.2583C64.2851 86.6411 62.975 85.3311 61.3681 85.3311Z" fill="#D7EEA1"/>
<path d="M70.1318 50.2666C68.5249 50.2666 67.2148 51.5767 67.2148 53.1836V61.955C67.2148 63.5619 68.5249 64.872 70.1318 64.872C71.7387 64.872 73.059 63.5619 73.059 61.955V53.1836C73.059 51.5767 71.7387 50.2666 70.1318 50.2666Z" fill="#D7EEA1"/>
<path d="M105.205 50.2666C103.587 50.2666 102.277 51.5767 102.277 53.1836V61.955C102.277 63.5619 103.587 64.872 105.205 64.872C106.811 64.872 108.122 63.5619 108.122 61.955V53.1836C108.122 51.5767 106.811 50.2666 105.205 50.2666Z" fill="#D7EEA1"/>
<path d="M87.6631 50.2666C86.0562 50.2666 84.7461 51.5767 84.7461 53.1836V61.955C84.7461 63.5619 86.0562 64.872 87.6631 64.872C89.27 64.872 90.5903 63.5619 90.5903 61.955V53.1836C90.5903 51.5767 89.27 50.2666 87.6631 50.2666Z" fill="#D7EEA1"/>
<path d="M70.1318 111.641C68.5249 111.641 67.2148 112.951 67.2148 114.558V123.329C67.2148 124.936 68.5249 126.246 70.1318 126.246C71.7387 126.246 73.059 124.936 73.059 123.329V114.558C73.059 112.951 71.7387 111.641 70.1318 111.641Z" fill="#D7EEA1"/>
<path d="M105.205 111.641C103.587 111.641 102.277 112.951 102.277 114.558V123.329C102.277 124.936 103.587 126.246 105.205 126.246C106.811 126.246 108.122 124.936 108.122 123.329V114.558C108.122 112.951 106.811 111.641 105.205 111.641Z" fill="#D7EEA1"/>
<path d="M87.6631 111.641C86.0562 111.641 84.7461 112.951 84.7461 114.558V123.329C84.7461 124.936 86.0562 126.246 87.6631 126.246C89.27 126.246 90.5903 124.936 90.5903 123.329V114.558C90.5903 112.951 89.27 111.641 87.6631 111.641Z" fill="#D7EEA1"/>
<path d="M61.3647 59.0264H113.962C114.351 59.0264 114.72 59.1082 115.078 59.2515C115.436 59.4051 115.754 59.6098 116.03 59.8861C116.306 60.1625 116.511 60.4797 116.664 60.838C116.808 61.1962 116.89 61.5647 116.89 61.9536V114.551C116.89 114.94 116.808 115.309 116.664 115.667C116.511 116.025 116.306 116.342 116.03 116.619C115.754 116.895 115.436 117.1 115.078 117.253C114.72 117.397 114.351 117.479 113.962 117.479H61.3647C60.9758 117.479 60.5971 117.397 60.2491 117.253C59.8909 117.1 59.5736 116.895 59.2972 116.619C59.0209 116.342 58.806 116.025 58.6627 115.667C58.5091 115.309 58.4375 114.94 58.4375 114.551V61.9536C58.4375 61.5647 58.5091 61.1962 58.6627 60.838C58.806 60.4797 59.0209 60.1625 59.2972 59.8861C59.5736 59.6098 59.8909 59.4051 60.2491 59.2515C60.5971 59.1082 60.9758 59.0264 61.3647 59.0264Z" fill="#5FA4FB"/>
<path d="M84.5729 75.5448C84.1328 74.3985 83.0479 73.6411 81.8197 73.6411C80.5915 73.6411 79.5168 74.3985 79.0767 75.5448L70.3053 98.9216C69.7526 100.436 70.51 102.105 72.035 102.688C73.5498 103.241 75.2181 102.483 75.8015 100.969L77.2958 97.0179H86.3845L87.8686 100.969C88.3087 102.135 89.4243 102.862 90.6218 102.862C90.9698 102.862 91.3178 102.801 91.6453 102.688C93.1601 102.135 93.9175 100.436 93.3341 98.9216L84.5729 75.5448ZM79.4861 91.1737L81.8504 84.8894L84.2249 91.1737H79.4861Z" fill="white"/>
<path d="M99.3506 73.6411C97.7437 73.6411 96.4336 74.9512 96.4336 76.5581V99.9451C96.4336 101.552 97.7437 102.862 99.3506 102.862C100.968 102.862 102.278 101.552 102.278 99.9451V76.5581C102.278 74.9512 100.968 73.6411 99.3506 73.6411Z" fill="white"/>
<mask id="mask0_10383_36845" style="mask-type:luminance" maskUnits="userSpaceOnUse" x="0" y="0" width="92" height="176">
<path d="M0 0.545898H91.2554V175.442H0V0.545898Z" fill="white"/>
</mask>
<g mask="url(#mask0_10383_36845)">
<path d="M87.6634 38.5803C89.2703 38.5803 90.5907 37.2599 90.5907 35.653V3.5151C90.5907 1.89797 89.2703 0.587891 87.6634 0.587891H72.27C70.919 0.587891 69.7522 1.49881 69.4349 2.80889L65.259 19.5841C61.687 20.7509 58.2378 22.1531 54.9626 23.8214L40.1525 14.9374C39.0164 14.2312 37.5221 14.4359 36.5907 15.3775L14.8106 37.1474C13.8792 38.0787 13.6745 39.5731 14.3807 40.7091L23.2647 55.5294C21.5964 58.7944 20.1635 62.2436 19.0274 65.8156L2.25225 69.9915C0.931932 70.3088 0.03125 71.4858 0.03125 72.8266V103.624C0.03125 104.975 0.931932 106.142 2.25225 106.459L19.0274 110.645C20.1942 114.207 21.5964 117.656 23.2647 120.931L14.3807 135.741C13.6745 136.888 13.8792 138.372 14.8106 139.303L36.5907 161.083C37.5221 162.015 39.0164 162.219 40.1525 161.513L54.9626 152.629C58.2378 154.297 61.687 155.73 65.259 156.866L69.4349 173.641C69.7522 174.962 70.919 175.862 72.27 175.862H87.6634C89.2703 175.862 90.5907 174.552 90.5907 172.945V140.797C90.5907 139.19 89.2703 137.88 87.6634 137.88C60.2848 137.88 37.9929 115.578 37.9929 88.1996C37.9929 60.8209 60.2848 38.5188 87.6634 38.5188V38.5803Z" fill="#D7EEA1"/>
</g>
<mask id="mask1_10383_36845" style="mask-type:luminance" maskUnits="userSpaceOnUse" x="143" y="74" width="27" height="27">
<path d="M143.66 74.4678H169.002V100.669H143.66V74.4678Z" fill="white"/>
</mask>
<g mask="url(#mask1_10383_36845)">
<path d="M169.494 88.2548C169.494 89.0122 169.422 89.7798 169.269 90.5269C169.115 91.2843 168.9 92.011 168.604 92.7275C168.307 93.4337 167.948 94.1092 167.519 94.7438C167.099 95.3783 166.608 95.972 166.065 96.5144C165.523 97.0569 164.939 97.5379 164.295 97.9678C163.66 98.3977 162.984 98.7559 162.278 99.0527C161.572 99.3393 160.835 99.5645 160.088 99.718C159.331 99.8613 158.573 99.9432 157.806 99.9432C157.038 99.9432 156.281 99.8613 155.523 99.718C154.766 99.5645 154.039 99.3393 153.333 99.0527C152.616 98.7559 151.951 98.3977 151.306 97.9678C150.672 97.5379 150.078 97.0569 149.536 96.5144C148.993 95.972 148.512 95.3783 148.082 94.7438C147.663 94.1092 147.294 93.4337 147.008 92.7275C146.711 92.011 146.486 91.2843 146.342 90.5269C146.189 89.7798 146.117 89.0122 146.117 88.2548C146.117 87.4871 146.189 86.7195 146.342 85.9724C146.486 85.215 146.711 84.4883 147.008 83.7718C147.294 83.0656 147.663 82.3901 148.082 81.7555C148.512 81.121 148.993 80.5273 149.536 79.9849C150.078 79.4424 150.672 78.9614 151.306 78.5315C151.951 78.1016 152.616 77.7434 153.333 77.4466C154.039 77.16 154.766 76.9348 155.523 76.7813C156.281 76.638 157.038 76.5562 157.806 76.5562C158.573 76.5562 159.331 76.638 160.088 76.7813C160.835 76.9348 161.572 77.16 162.278 77.4466C162.984 77.7434 163.66 78.1016 164.295 78.5315C164.939 78.9614 165.523 79.4424 166.065 79.9849C166.608 80.5273 167.099 81.121 167.519 81.7555C167.948 82.3901 168.307 83.0656 168.604 83.7718C168.9 84.4883 169.115 85.215 169.269 85.9724C169.422 86.7195 169.494 87.4871 169.494 88.2548Z" fill="#FE832D"/>
</g>
<path d="M157.803 50.2655C157.803 51.0332 157.731 51.7906 157.577 52.5479C157.424 53.2951 157.209 54.032 156.912 54.7382C156.615 55.4444 156.257 56.12 155.827 56.7545C155.408 57.3993 154.916 57.9827 154.374 58.5252C153.831 59.0676 153.248 59.5589 152.603 59.9786C151.969 60.4084 151.293 60.7667 150.587 61.0635C149.881 61.3603 149.144 61.5752 148.397 61.7287C147.639 61.8823 146.882 61.9539 146.114 61.9539C145.347 61.9539 144.589 61.8823 143.832 61.7287C143.074 61.5752 142.348 61.3603 141.641 61.0635C140.925 60.7667 140.26 60.4084 139.615 59.9786C138.98 59.5589 138.387 59.0676 137.844 58.5252C137.302 57.9827 136.821 57.3993 136.391 56.7545C135.971 56.12 135.603 55.4444 135.316 54.7382C135.019 54.032 134.794 53.2951 134.651 52.5479C134.497 51.7906 134.426 51.0332 134.426 50.2655C134.426 49.4979 134.497 48.7405 134.651 47.9831C134.794 47.2257 135.019 46.499 135.316 45.7928C135.603 45.0764 135.971 44.4111 136.391 43.7663C136.821 43.1317 137.302 42.5381 137.844 41.9956C138.387 41.4532 138.98 40.9721 139.615 40.5423C140.26 40.1226 140.925 39.7542 141.641 39.4676C142.348 39.1708 143.074 38.9456 143.832 38.8023C144.589 38.6488 145.347 38.5771 146.114 38.5771C146.882 38.5771 147.639 38.6488 148.397 38.8023C149.144 38.9456 149.881 39.1708 150.587 39.4676C151.293 39.7542 151.969 40.1226 152.603 40.5423C153.248 40.9721 153.831 41.4532 154.374 41.9956C154.916 42.5381 155.408 43.1317 155.827 43.7663C156.257 44.4111 156.615 45.0764 156.912 45.7928C157.209 46.499 157.424 47.2257 157.577 47.9831C157.731 48.7405 157.803 49.4979 157.803 50.2655Z" fill="#FE832D"/>
<path d="M157.803 126.244C157.803 127.012 157.731 127.769 157.577 128.526C157.424 129.284 157.209 130.011 156.912 130.717C156.615 131.433 156.257 132.098 155.827 132.743C155.408 133.378 154.916 133.971 154.374 134.514C153.831 135.056 153.248 135.537 152.603 135.967C151.969 136.387 151.293 136.755 150.587 137.042C149.881 137.339 149.144 137.564 148.397 137.707C147.639 137.861 146.882 137.932 146.114 137.932C145.347 137.932 144.589 137.861 143.832 137.707C143.074 137.564 142.348 137.339 141.641 137.042C140.925 136.755 140.26 136.387 139.615 135.967C138.98 135.537 138.387 135.056 137.844 134.514C137.302 133.971 136.821 133.378 136.391 132.743C135.971 132.098 135.603 131.433 135.316 130.717C135.019 130.011 134.794 129.284 134.651 128.526C134.497 127.769 134.426 127.012 134.426 126.244C134.426 125.476 134.497 124.719 134.651 123.962C134.794 123.214 135.019 122.478 135.316 121.771C135.603 121.065 135.971 120.39 136.391 119.755C136.821 119.11 137.302 118.527 137.844 117.984C138.387 117.442 138.98 116.951 139.615 116.531C140.26 116.101 140.925 115.743 141.641 115.446C142.348 115.149 143.074 114.934 143.832 114.781C144.589 114.627 145.347 114.556 146.114 114.556C146.882 114.556 147.639 114.627 148.397 114.781C149.144 114.934 149.881 115.149 150.587 115.446C151.293 115.743 151.969 116.101 152.603 116.531C153.248 116.951 153.831 117.442 154.374 117.984C154.916 118.527 155.408 119.11 155.827 119.755C156.257 120.39 156.615 121.065 156.912 121.771C157.209 122.478 157.424 123.214 157.577 123.962C157.731 124.719 157.803 125.476 157.803 126.244Z" fill="#FE832D"/>
</svg>
