<svg width="798" height="185" viewBox="0 0 798 185" fill="none" xmlns="http://www.w3.org/2000/svg">
<g clip-path="url(#clip0_10383_57971)">
<rect y="13.9819" width="151.475" height="151.475" rx="19.4198" fill="#D7EEA1"/>
<mask id="mask0_10383_57971" style="mask-type:luminance" maskUnits="userSpaceOnUse" x="0" y="13" width="152" height="153">
<path d="M0 13.9819H151.475V165.457H0V13.9819Z" fill="white"/>
</mask>
<g mask="url(#mask0_10383_57971)">
<path d="M41.1411 33.4033H24.0375C21.4886 33.4033 19.4219 35.47 19.4219 38.0189V55.1225" stroke="black" stroke-width="2.89883" stroke-linecap="round"/>
<path d="M41.1411 146.028H24.0375C21.4886 146.028 19.4219 143.962 19.4219 141.413V124.309" stroke="black" stroke-width="2.89883" stroke-linecap="round"/>
<path d="M110.32 33.4033H127.424C129.973 33.4033 132.039 35.47 132.039 38.0189V55.1225" stroke="black" stroke-width="2.89883" stroke-linecap="round"/>
<path d="M110.32 146.028H127.424C129.973 146.028 132.039 143.962 132.039 141.413V124.309" stroke="black" stroke-width="2.89883" stroke-linecap="round"/>
<path d="M47.8119 108.749C46.9927 107.384 46.2577 105.998 45.5834 104.582C44.9125 103.153 44.3258 101.713 43.8167 100.243C43.4324 99.1475 43.102 98.0484 42.8154 96.9189C42.7075 96.5244 42.6097 96.13 42.5153 95.7254L42.4951 95.6411H37.1445L37.1749 95.7793C37.5795 97.2797 38.038 98.7732 38.5403 100.243C39.0427 101.713 39.5754 103.153 40.1586 104.572C40.7352 105.998 41.3758 107.394 42.0669 108.79C42.313 109.259 42.549 109.731 42.7918 110.199C43.2705 111.093 43.783 112 44.3157 112.873L44.3494 112.927H50.5934L50.4552 112.745C49.4977 111.433 48.6009 110.112 47.7917 108.749H47.8119Z" fill="#000100" stroke="black" stroke-width="0.532874" stroke-miterlimit="10"/>
<path d="M121.114 71.7507C120.581 71.2281 119.95 70.8235 119.236 70.5673C118.524 70.3111 117.702 70.1729 116.798 70.1729H103.996C103.231 70.1729 102.547 70.2673 101.93 70.4695C101.313 70.6617 100.756 70.9618 100.288 71.3562C100.032 71.599 99.7989 71.8552 99.5966 72.1317C99.3943 72.4115 99.2022 72.7082 99.0302 73.0285C98.8583 73.3488 98.7437 73.6994 98.656 74.0737C98.5717 74.4445 98.5312 74.839 98.5312 75.2672V98.308H103.326V75.3178C103.326 75.129 103.356 74.9469 103.444 74.7648C103.528 74.5727 103.646 74.3805 103.804 74.2018C103.966 74.0197 104.158 73.8815 104.371 73.7837C104.593 73.6994 104.839 73.6455 105.136 73.6455H115.743C115.985 73.6455 116.201 73.6792 116.424 73.7534C116.646 73.8276 116.849 73.9456 117.051 74.0939C117.253 74.2422 117.405 74.3906 117.509 74.5625C117.607 74.721 117.648 74.8929 117.648 75.075L117.702 98.2979V98.4125H122.553V75.574C122.553 74.7985 122.435 74.0939 122.199 73.4634C121.953 72.8363 121.602 72.2598 121.134 71.7709L121.114 71.7507Z" fill="#000100" stroke="black" stroke-width="0.532874" stroke-miterlimit="10"/>
<path d="M31.9653 109.195C31.8271 109.144 31.7091 109.057 31.581 108.952C31.4528 108.844 31.3686 108.726 31.3045 108.612C31.2404 108.494 31.2168 108.366 31.2168 108.237V92.5701H44.3792C44.8916 92.5701 45.3704 92.4858 45.8289 92.3374C46.2874 92.1857 46.7021 91.9531 47.0865 91.6429C47.2888 91.4743 47.4708 91.2923 47.6394 91.0799C47.8114 90.8877 47.9496 90.6753 48.0777 90.4393C48.2159 90.2033 48.3002 89.9605 48.3778 89.7043C48.4418 89.448 48.4722 89.1716 48.4722 88.8715V74.4752C48.4722 73.8549 48.3879 73.2918 48.2159 72.7895C48.0339 72.2905 47.781 71.8522 47.4371 71.4679C47.0427 71.0633 46.6077 70.743 46.0953 70.5407C45.5828 70.3384 45.0198 70.2339 44.4028 70.2339H30.5257C30.0132 70.2339 29.5244 70.3182 29.0422 70.5002C28.5635 70.6789 28.1286 70.9453 27.7105 71.2993C27.5082 71.4915 27.3295 71.6937 27.1677 71.896C27.0092 72.0983 26.871 72.3208 26.753 72.5568C26.6249 72.7895 26.5406 73.0356 26.4866 73.2918C26.4226 73.5481 26.4023 73.8245 26.4023 74.1212V108.258C26.4023 108.972 26.517 109.603 26.753 110.166C26.9856 110.732 27.3295 111.231 27.7847 111.659C28.2331 112.064 28.7455 112.371 29.3423 112.577C29.939 112.779 30.61 112.873 31.3551 112.873H40.0637L40.094 112.799L41.7056 109.377L41.7797 109.219H32.434C32.2957 109.219 32.144 109.185 32.0159 109.131L31.9957 109.154L31.9653 109.195ZM31.2168 74.8461C31.2168 74.7315 31.2506 74.6135 31.291 74.5056C31.3348 74.4011 31.4191 74.2932 31.5068 74.1988C31.6012 74.101 31.699 74.0268 31.8136 73.983C31.9215 73.9425 32.0395 73.9088 32.1676 73.9088H42.5586C42.6428 73.9088 42.7372 73.9088 42.8013 73.9425C42.8451 73.9425 42.889 73.9729 42.9294 73.983C43.0373 74.0268 43.1216 74.101 43.2093 74.1853C43.2935 74.2831 43.3475 74.3876 43.3879 74.5157C43.4318 74.6438 43.452 74.782 43.452 74.9338V79.3875H31.2067V74.836H31.227L31.2168 74.8461ZM31.2168 82.904H43.4621V87.85C43.4621 87.9983 43.4318 88.1365 43.3778 88.2545C43.3239 88.3725 43.2497 88.4771 43.1452 88.5546C43.0474 88.6389 42.9294 88.703 42.8013 88.7434H42.7811C42.6428 88.7974 42.4945 88.821 42.3327 88.821H31.2067V82.904H31.2168Z" fill="#000100" stroke="black" stroke-width="0.532874" stroke-miterlimit="10"/>
<path d="M90.9199 86.7758C91.1862 86.3813 91.4526 85.9868 91.7055 85.5688C91.9718 85.1642 92.2179 84.7596 92.4742 84.355L92.7203 83.9504C92.8787 83.674 93.0507 83.4076 93.199 83.1312C93.435 82.7232 93.6576 82.3288 93.87 81.9242C94.0824 81.5196 94.2847 81.1487 94.4566 80.7947C94.5746 80.5621 94.6791 80.3362 94.787 80.1238C94.8409 80.0058 94.8949 79.8912 94.9455 79.7833C95.2455 79.1124 95.3736 78.492 95.3534 77.9492C95.3197 77.4064 95.1376 76.9276 94.7971 76.523L94.7769 76.4893C94.4263 76.0645 93.9441 75.7341 93.317 75.5217C93.1249 75.4576 92.9327 75.4037 92.7203 75.3599C92.2382 75.2554 91.6953 75.2115 91.0784 75.2115H88.6374C88.4351 74.753 88.2429 74.2945 88.0609 73.836C87.8687 73.3572 87.69 72.8549 87.5181 72.3559C87.3495 71.8434 87.1775 71.3646 87.0292 70.8724C86.8674 70.3835 86.7291 69.9048 86.5808 69.4227L86.5471 69.3384H81.4865L81.5168 69.4766C81.6247 69.9891 81.7528 70.5015 81.8809 71.0005C82.0191 71.5029 82.1675 71.9917 82.3293 72.4705C82.4878 72.9627 82.6597 73.4415 82.8384 73.9101C83.0003 74.3383 83.1688 74.7631 83.3509 75.2014H77.4575V78.9943H89.3724C89.5646 78.9943 89.6826 79.0281 89.723 79.0921C89.7668 79.1528 89.7567 79.2708 89.6927 79.4326C88.924 80.933 88.0744 82.3928 87.1337 83.8223C86.1964 85.2518 85.1749 86.6476 84.0555 87.9895C82.9463 89.3415 81.7629 90.6766 80.5391 91.9982C79.3118 93.3198 78.034 94.6077 76.6922 95.8754L76.5 96.0676H83.3104L83.3408 96.0373L83.6172 95.781L83.9578 95.4709C84.096 95.3427 84.214 95.2247 84.3118 95.1202L84.3623 95.0663V112.844H89.3724V88.8964C89.6185 88.5761 89.8646 88.2356 90.1175 87.8816C90.3838 87.5107 90.6401 87.1365 90.9064 86.7319V86.7522L90.9199 86.7758Z" fill="#000100" stroke="black" stroke-width="0.532874" stroke-miterlimit="10"/>
<path d="M98.2118 100.51C98.0196 100.159 97.8274 99.7948 97.6454 99.4003C97.4633 98.9957 97.2947 98.5709 97.1228 98.1225C96.9542 97.6741 96.7924 97.2156 96.6238 96.7368C96.4957 96.3761 96.3777 96.012 96.2698 95.6512L96.1653 95.2972C96.0169 94.8185 95.8652 94.3397 95.7472 93.8508C95.609 93.3687 95.5045 92.9001 95.3966 92.4213C95.2921 91.9426 95.1943 91.4942 95.0999 91.0693C95.0122 90.6311 94.9279 90.2265 94.8538 89.8219L94.8335 89.7241H90.0898L90.1101 89.8522C90.2483 90.7389 90.4203 91.6324 90.6225 92.5697C90.8147 93.4968 91.0372 94.4476 91.2935 95.4253C91.5396 96.3963 91.8059 97.3134 92.0723 98.1866C92.2847 98.8676 92.4971 99.5082 92.723 100.115C92.787 100.287 92.8511 100.445 92.9017 100.607L92.9354 100.681H98.3062L98.2219 100.52H98.2421L98.2118 100.51Z" fill="#000100" stroke="black" stroke-width="0.532874" stroke-miterlimit="10"/>
<path d="M70.2871 71.2588C69.8589 70.8339 69.36 70.5137 68.7834 70.3012C68.2069 70.0855 67.5562 69.981 66.8212 69.981H56.3258C55.6312 69.981 55.0041 70.0652 54.4276 70.2372C53.8511 70.4058 53.3285 70.662 52.8835 71.0025C52.371 71.3768 51.9765 71.8353 51.7203 72.3781C51.4641 72.9209 51.3359 73.5514 51.3359 74.2526V112.92H56.3999V74.7011C56.3999 74.5527 56.4303 74.4044 56.4741 74.2965C56.5179 74.1785 56.5921 74.074 56.6865 73.9863C56.7843 73.902 56.8787 73.8379 56.9967 73.7941C57.1046 73.7537 57.2293 73.7301 57.3473 73.7301H65.4895C65.6277 73.7301 65.7558 73.7638 65.8738 73.8177C65.9918 73.8717 66.0862 73.956 66.1739 74.0605C66.2582 74.1785 66.3324 74.2965 66.3762 74.4044C66.4166 74.5089 66.4402 74.6168 66.4402 74.7112V102.401C66.4402 102.806 66.3425 103.092 66.1402 103.285C65.948 103.477 65.6277 103.571 65.2231 103.571H58.615L58.6925 103.723L60.1929 107.091L60.2266 107.165H67.0033C67.718 107.165 68.335 107.078 68.8913 106.929C69.4443 106.781 69.9129 106.545 70.2972 106.238C70.7018 105.908 71.012 105.503 71.2143 105.001C71.4166 104.512 71.511 103.935 71.511 103.274V74.6067C71.511 73.902 71.4166 73.2749 71.2143 72.7085C71.012 72.1421 70.7018 71.6633 70.3074 71.2588H70.2871Z" fill="#000100" stroke="black" stroke-width="0.532874" stroke-miterlimit="10"/>
<path d="M116.353 109.485C116.245 109.485 116.117 109.451 115.989 109.4C115.85 109.346 115.702 109.259 115.53 109.154C115.372 109.046 115.264 108.928 115.179 108.803C115.105 108.675 115.061 108.547 115.061 108.396V99.37H111.184C111.268 99.0194 111.363 98.6789 111.427 98.3249C111.515 97.9405 111.589 97.5595 111.653 97.1853C111.717 96.8111 111.781 96.4301 111.831 96.0457C111.885 95.6513 111.939 95.2669 111.983 94.8724C112.024 94.4679 112.067 94.0633 112.101 93.6452C112.132 93.2305 112.152 92.7956 112.175 92.3371C112.196 91.8887 112.206 91.42 112.206 90.9177C112.206 90.4187 112.226 89.886 112.226 89.3533V76.5854H107.378V89.8523C107.378 91.1739 107.324 92.4113 107.239 93.5609C107.145 94.714 106.993 95.7794 106.801 96.7605C106.612 97.7382 106.346 98.6789 106.026 99.5824C105.705 100.479 105.321 101.342 104.873 102.162C104.34 103.153 103.713 104.1 102.978 105.017C102.243 105.934 101.42 106.821 100.493 107.671C99.5659 108.514 98.5343 109.387 97.4014 110.284C96.8586 110.708 96.2956 111.137 95.6988 111.561C95.2167 111.915 94.7279 112.256 94.2154 112.607C94.0232 112.735 93.8445 112.863 93.6523 112.991L93.7265 113.193H101.07L101.144 113.159C102.219 112.414 103.211 111.605 104.138 110.742C105.055 109.869 105.898 108.942 106.663 107.961C107.422 106.969 108.123 105.968 108.753 104.953C109.192 104.252 109.596 103.537 109.967 102.833C110.055 102.664 110.139 102.502 110.223 102.334V109.461C110.223 110.135 110.351 110.742 110.597 111.265C110.844 111.797 111.214 112.246 111.717 112.627C112.196 112.967 112.738 113.224 113.359 113.395C113.976 113.564 114.667 113.642 115.425 113.642C117.31 113.642 119.667 113.834 121.97 113.77V109.42C120.368 109.603 118.578 109.485 116.329 109.485H116.353Z" fill="#000100" stroke="black" stroke-width="0.532874" stroke-miterlimit="10"/>
<path d="M114.982 104.686C115.013 104.696 115.016 104.767 114.992 104.902C114.972 105.033 114.925 105.215 114.854 105.451C114.783 105.684 114.696 105.95 114.588 106.25C114.48 106.547 114.362 106.857 114.234 107.174C114.106 107.494 113.978 107.798 113.85 108.088C113.718 108.378 113.6 108.63 113.489 108.85C113.377 109.065 113.283 109.231 113.209 109.342C113.131 109.453 113.081 109.5 113.05 109.49C113.023 109.477 113.02 109.406 113.04 109.274C113.064 109.139 113.111 108.957 113.179 108.725C113.249 108.492 113.34 108.226 113.445 107.926C113.553 107.626 113.671 107.319 113.799 106.999C113.927 106.682 114.055 106.378 114.187 106.088C114.315 105.798 114.436 105.542 114.547 105.326C114.659 105.111 114.75 104.945 114.827 104.834C114.901 104.723 114.955 104.672 114.982 104.686Z" fill="#000100"/>
<path d="M117.086 107.335H124.311V109.244H117.086V107.335Z" fill="#D7EEA1"/>
<path d="M120.316 117.047L123.735 103.554L126.007 104.131L122.589 117.623L120.316 117.047Z" fill="#D7EEA1"/>
</g>
</g>
<rect x="0.431552" y="14.4135" width="150.612" height="150.612" rx="18.9883" stroke="#E5EBEC" stroke-width="0.863103"/>
<path d="M191.477 92.7718V3.02566H203.4V92.7718H191.477Z" fill="black"/>
<path d="M252.14 27.0007C259.662 27.0007 265.688 29.3939 270.218 34.1804C274.748 38.8814 277.013 45.2918 277.013 53.4117V92.7718H265.859V54.0527C265.859 48.9244 264.448 44.9072 261.628 42.0011C258.807 39.095 254.918 37.642 249.961 37.642C244.234 37.642 239.704 39.4369 236.371 43.0268C233.037 46.5312 231.371 51.7877 231.371 58.7964V92.7718H220.216V28.6674H231.371V37.8984C235.815 30.6333 242.738 27.0007 252.14 27.0007Z" fill="black"/>
<path d="M300.918 45.9756C300.918 50.0783 305.149 53.2835 313.61 55.5912C316.773 56.275 319.422 57.0015 321.559 57.7708C323.782 58.4546 326.175 59.523 328.739 60.976C331.389 62.429 333.397 64.3522 334.765 66.7454C336.132 69.1386 336.816 71.9592 336.816 75.2072C336.816 81.0193 334.551 85.6775 330.021 89.1819C325.491 92.6863 319.764 94.4385 312.841 94.4385C306.687 94.4385 301.345 93.1136 296.815 90.464C292.37 87.7289 289.208 84.0536 287.328 79.438L296.943 73.9251C297.969 77.0021 299.892 79.438 302.713 81.233C305.533 83.0279 308.909 83.9254 312.841 83.9254C316.687 83.9254 319.764 83.1988 322.072 81.7458C324.38 80.2928 325.534 78.1132 325.534 75.2072C325.534 70.8481 321.303 67.6856 312.841 65.7197C310.021 64.9505 307.884 64.3522 306.431 63.9248C304.978 63.4974 302.969 62.7282 300.405 61.617C297.926 60.5059 296.046 59.352 294.764 58.1554C293.482 56.8733 292.285 55.2066 291.174 53.1553C290.148 51.0185 289.635 48.668 289.635 46.1038C289.635 40.5481 291.772 35.9753 296.046 32.3855C300.405 28.7956 305.832 27.0007 312.328 27.0007C317.542 27.0007 322.158 28.1973 326.175 30.5905C330.277 32.8983 333.355 36.1462 335.406 40.3344L326.047 45.591C323.739 40.1207 319.166 37.3856 312.328 37.3856C309.08 37.3856 306.345 38.1549 304.123 39.6934C301.986 41.2319 300.918 43.3259 300.918 45.9756Z" fill="black"/>
<path d="M381.109 28.6674V39.4369H364.057V74.1815C364.057 77.344 364.656 79.609 365.852 80.9766C367.134 82.2586 369.058 82.9424 371.622 83.0279C374.186 83.0279 377.348 82.9424 381.109 82.7715V92.7718C371.28 94.0538 364.1 93.2419 359.57 90.3358C355.126 87.4297 352.903 82.045 352.903 74.1815V39.4369H340.211V28.6674H352.903V14.0516L364.057 10.7182V28.6674H381.109Z" fill="black"/>
<path d="M442.856 39.6934V28.6674H454.01V92.7718H442.856V81.7458C437.386 90.2076 429.308 94.4385 418.624 94.4385C409.564 94.4385 401.914 91.1905 395.675 84.6946C389.35 78.1132 386.188 70.1216 386.188 60.7196C386.188 51.4031 389.35 43.4541 395.675 36.8728C402 30.2914 409.65 27.0007 418.624 27.0007C429.308 27.0007 437.386 31.2316 442.856 39.6934ZM420.035 83.6689C426.531 83.6689 431.958 81.4894 436.317 77.1303C440.676 72.6003 442.856 67.13 442.856 60.7196C442.856 54.2237 440.676 48.7962 436.317 44.4371C431.958 39.9925 426.531 37.7702 420.035 37.7702C413.624 37.7702 408.239 39.9925 403.88 44.4371C399.521 48.7962 397.342 54.2237 397.342 60.7196C397.342 67.13 399.521 72.6003 403.88 77.1303C408.239 81.4894 413.624 83.6689 420.035 83.6689Z" fill="black"/>
<path d="M507.705 92.7718H494.243L462.191 3.02566H475.012L501.038 77.8995L526.937 3.02566H539.886L507.705 92.7718Z" fill="black"/>
<path d="M551.112 17.0004C548.975 17.0004 547.18 16.2739 545.727 14.8209C544.274 13.3678 543.548 11.6157 543.548 9.56431C543.548 7.51297 544.274 5.76078 545.727 4.30775C547.18 2.76925 548.975 2 551.112 2C553.163 2 554.915 2.76925 556.369 4.30775C557.822 5.76078 558.548 7.51297 558.548 9.56431C558.548 11.6157 557.822 13.3678 556.369 14.8209C554.915 16.2739 553.163 17.0004 551.112 17.0004ZM556.625 92.7718H545.471V28.6674H556.625V92.7718Z" fill="black"/>
<path d="M633.9 65.8479H580.18C581.291 71.4891 583.898 75.9337 588.001 79.1816C592.104 82.3441 597.232 83.9254 603.386 83.9254C611.848 83.9254 618.002 80.8056 621.848 74.5661L631.336 79.9509C625.011 89.6093 615.609 94.4385 603.13 94.4385C593.044 94.4385 584.753 91.276 578.257 84.951C571.932 78.4551 568.77 70.378 568.77 60.7196C568.77 50.9757 571.889 42.9413 578.129 36.6163C584.368 30.2059 592.446 27.0007 602.36 27.0007C611.762 27.0007 619.412 30.3341 625.31 37.001C631.293 43.4969 634.284 51.4458 634.284 60.8478C634.284 62.4718 634.156 64.1385 633.9 65.8479ZM602.36 37.5138C596.463 37.5138 591.505 39.1805 587.488 42.5139C583.556 45.8474 581.12 50.3774 580.18 56.1041H623.002C622.062 50.2065 619.711 45.6337 615.95 42.3857C612.19 39.1378 607.66 37.5138 602.36 37.5138Z" fill="black"/>
<path d="M704.732 77.5149L718.835 28.6674H730.502L710.63 92.7718H699.219L684.219 45.3345L669.218 92.7718H657.808L637.935 28.6674H649.602L663.705 77.3867L678.834 28.6674H689.603L704.732 77.5149Z" fill="black"/>
<path d="M209.499 150.281C208.383 149.482 203.786 146.685 202.226 145.842C202.308 145.601 202.384 145.404 202.428 145.164H209.817V142.728H202.866C202.948 142.208 202.948 141.77 202.948 141.289V138.968H208.821V136.571H197.951C198.351 135.613 198.75 134.655 199.029 133.654L196.353 133.139C195.434 136.133 193.874 139.132 191.838 141.086C192.516 141.409 193.677 142.126 194.235 142.526C195.116 141.568 195.992 140.331 196.753 138.968H200.108V141.289C200.108 141.77 200.108 142.208 200.031 142.728H191.838V145.164H199.511C198.668 147.599 196.55 150.237 191.477 152.235C192.155 152.678 192.998 153.636 193.354 154.276C197.552 152.355 199.949 150.117 201.306 147.84C203.304 149.197 206.265 151.315 207.42 152.317L209.499 150.281ZM219.012 155.792V159.547H200.551V155.792H219.012ZM200.551 165.824V161.867H219.012V165.824H200.551ZM197.634 169.738H200.551V168.26H219.012V169.661H222.005V153.357H197.634V169.738ZM222.487 147.599H214.256V139.132H222.487V147.599ZM211.459 136.45V150.319H225.404V136.45H211.459Z" fill="black"/>
<path d="M267.04 150.68C270.198 150.68 271.073 149.318 271.434 144.523C270.597 144.326 269.398 143.883 268.796 143.368C268.599 147.32 268.32 147.999 266.799 147.999H260.444C258.649 147.999 258.326 147.719 258.326 146.483V142.449C262.163 141.289 266.443 139.887 269.596 138.41L267.598 136.253C265.321 137.414 261.725 138.891 258.326 140.008V133.336H255.453V146.521C255.453 149.761 256.411 150.68 260.165 150.68H267.04ZM240.347 159.268V155.634H248.781V159.268H240.347ZM248.781 149.881V153.275H240.347V149.881H248.781ZM251.698 147.364H237.589V169.699H240.347V161.588H248.781V166.262C248.781 166.782 248.661 166.903 248.097 166.903C247.583 166.941 245.902 166.979 244.025 166.903C244.425 167.663 244.824 168.818 244.983 169.617C247.501 169.617 249.219 169.579 250.297 169.097C251.414 168.621 251.698 167.822 251.698 166.301V147.364ZM245.941 136.615C246.899 137.934 247.938 139.488 248.82 141.048L240.068 141.568C241.787 139.45 243.582 136.735 244.945 134.097L241.907 133.139C240.626 136.253 238.432 139.411 237.753 140.249C237.069 141.086 236.511 141.65 235.914 141.809C236.27 142.526 236.713 144.003 236.872 144.605C237.753 144.282 239.11 144.085 250.018 143.286C250.379 144.085 250.659 144.764 250.899 145.404L253.494 144.244C252.656 141.885 250.418 138.289 248.382 135.613L245.941 136.615ZM260.565 166.744C258.726 166.744 258.37 166.503 258.37 165.184V160.548C262.404 159.432 267.001 157.91 270.039 156.115L268.079 153.915C265.841 155.393 261.966 156.914 258.37 158.069V151.797H255.453V165.184C255.453 168.463 256.449 169.377 260.286 169.377H267.242C270.559 169.377 271.434 167.981 271.796 162.584C270.958 162.426 269.798 161.944 269.158 161.506C268.961 165.945 268.638 166.744 267.001 166.744H260.565Z" fill="black"/>
<path d="M286.258 140.572H312.512V145.804H315.588V137.813H301.402C300.805 136.456 299.886 134.617 299.087 133.139L296.049 133.856C296.646 135.055 297.368 136.576 297.926 137.813H283.302V145.804H286.258V140.572ZM305.676 151.518C304.478 154.714 302.683 157.352 300.444 159.47C297.565 158.354 294.61 157.276 291.851 156.394C292.853 154.955 293.931 153.275 295.009 151.518H305.676ZM316.666 151.518V148.683H296.646C297.729 146.723 298.726 144.726 299.525 142.931L296.328 142.246C295.529 144.244 294.369 146.483 293.17 148.683H282.301V151.518H291.496C290.056 153.838 288.578 155.995 287.259 157.675L287.216 157.713C290.532 158.753 294.172 160.111 297.768 161.55C293.893 164.188 288.896 165.825 282.865 166.864C283.499 167.543 284.419 168.824 284.742 169.579C291.255 168.14 296.607 166.142 300.844 162.869C305.879 165.064 310.476 167.423 313.388 169.42L315.829 166.864C312.791 164.905 308.276 162.71 303.361 160.631C305.758 158.233 307.674 155.234 309.075 151.518H316.666Z" fill="black"/>
<path d="M334.05 148.207C338.522 145.289 342.719 141.612 345.954 137.578C349.714 141.891 353.709 145.246 358.104 148.207H334.05ZM358.225 150.883V148.283C359.702 149.285 361.218 150.204 362.778 151.162C363.216 150.281 364.097 149.285 364.858 148.644C358.383 145.246 352.511 141.13 347.596 135.416C347.837 135.06 348.072 134.699 348.313 134.338L345.675 133.139C341.679 139.411 334.406 145.246 327.176 148.562C327.937 149.241 328.812 150.204 329.256 151.003C330.81 150.204 332.408 149.323 333.93 148.283V150.883H344.438V157.073H334.17V159.711H344.438V166.224H329.173V168.944H362.937V166.224H347.476V159.711H358.225V157.073H347.476V150.883H358.225Z" fill="black"/>
<path d="M385.438 133.139C383.161 139.171 379.324 145.087 375.367 148.885C375.887 149.564 376.725 151.118 377.042 151.759C378.481 150.281 379.959 148.562 381.322 146.647V169.42H384.157V142.29C385.717 139.69 387.074 136.855 388.234 133.977L385.438 133.139ZM392.35 137.572H407.171V144.884H392.35V137.572ZM412.327 155.196V152.481H401.14V147.522H410.132V134.896H389.553V147.522H398.185V152.481H386.593V155.196H396.466C393.79 159.432 389.553 163.389 385.438 165.425C386.116 165.983 386.992 167.067 387.512 167.784C391.387 165.545 395.388 161.55 398.185 157.155V169.541H401.14V157.035C403.816 161.391 407.653 165.545 411.249 167.866C411.769 167.105 412.727 166.027 413.367 165.507C409.53 163.427 405.497 159.394 402.859 155.196H412.327Z" fill="black"/>
<path d="M440.338 139.488C440.781 140.451 441.258 141.688 441.537 142.608H435.067V145.043H458.843V142.608H452.045C452.565 141.726 453.085 140.687 453.643 139.652L450.726 139.012C450.409 140.052 449.768 141.447 449.248 142.608H442.856L444.213 142.17C443.934 141.327 443.337 139.931 442.856 138.891H457.283V136.45H448.373C448.011 135.454 447.491 134.135 447.015 133.139L444.416 133.818C444.777 134.617 445.094 135.575 445.373 136.45H436.781V138.891H442.659L440.338 139.488ZM433.705 134.694L433.267 134.852H423.875V169.617H426.513V137.534H432.107C431.187 140.167 429.95 143.686 428.713 146.483C431.789 149.679 432.55 152.399 432.588 154.594C432.588 155.831 432.309 156.914 431.707 157.352C431.351 157.593 430.87 157.713 430.35 157.713C429.709 157.79 428.834 157.752 427.87 157.67C428.314 158.43 428.593 159.547 428.631 160.308C429.551 160.346 430.629 160.346 431.466 160.269C432.265 160.149 433.026 159.908 433.584 159.509C434.745 158.671 435.226 156.991 435.226 154.835C435.226 152.355 434.465 149.482 431.39 146.165C432.829 143.045 434.345 139.132 435.664 135.892L433.705 134.694ZM440.699 153.877H452.965V156.471H440.699V153.877ZM440.699 149.361H452.965V151.999H440.699V149.361ZM459.04 161.386H448.531V158.551H455.882V147.282H437.941V158.551H445.614V161.386H435.106V163.903H445.614V169.699H448.531V163.903H459.04V161.386Z" fill="black"/>
<path d="M495.592 137.309C497.681 137.309 499.476 137.677 500.976 138.413C502.506 139.148 503.698 140.193 504.551 141.546C505.404 142.9 505.831 144.533 505.831 146.445C505.831 148.328 505.404 149.961 504.551 151.344C503.698 152.698 502.506 153.742 500.976 154.478C499.476 155.213 497.681 155.581 495.592 155.581H489.104V166.438H484.381V137.309H495.592ZM494.841 151.521C496.93 151.521 498.46 151.094 499.431 150.241C500.432 149.358 500.932 148.093 500.932 146.445C500.932 144.768 500.432 143.503 499.431 142.65C498.46 141.767 496.93 141.326 494.841 141.326H489.104V151.521H494.841ZM520.493 143.93C522.641 143.93 524.539 144.386 526.187 145.298C527.834 146.21 529.114 147.534 530.026 149.27C530.968 150.976 531.439 153.021 531.439 155.405C531.439 157.788 530.968 159.848 530.026 161.584C529.114 163.29 527.834 164.6 526.187 165.512C524.539 166.424 522.641 166.88 520.493 166.88C518.345 166.88 516.447 166.424 514.8 165.512C513.152 164.6 511.857 163.29 510.916 161.584C509.974 159.848 509.503 157.788 509.503 155.405C509.503 153.021 509.974 150.976 510.916 149.27C511.857 147.534 513.152 146.21 514.8 145.298C516.447 144.386 518.345 143.93 520.493 143.93ZM520.493 147.637C519.169 147.637 518.036 147.946 517.095 148.564C516.183 149.152 515.476 150.02 514.976 151.168C514.476 152.315 514.226 153.728 514.226 155.405C514.226 157.052 514.476 158.465 514.976 159.642C515.476 160.789 516.183 161.672 517.095 162.29C518.036 162.878 519.169 163.172 520.493 163.172C521.817 163.172 522.935 162.878 523.847 162.29C524.76 161.672 525.466 160.789 525.966 159.642C526.466 158.465 526.716 157.052 526.716 155.405C526.716 153.728 526.466 152.315 525.966 151.168C525.466 150.02 524.76 149.152 523.847 148.564C522.935 147.946 521.817 147.637 520.493 147.637ZM564.803 144.371H569.923L562.508 166.438H557.344L551.783 150.064L546.531 166.438H541.367L533.997 144.371H539.072L544.104 161.804L549.576 144.371H554.299L559.772 161.804L564.803 144.371ZM583.552 166.88C581.346 166.88 579.404 166.424 577.727 165.512C576.05 164.6 574.74 163.29 573.799 161.584C572.886 159.848 572.43 157.788 572.43 155.405C572.43 153.021 572.886 150.976 573.799 149.27C574.74 147.534 576.035 146.21 577.683 145.298C579.33 144.386 581.199 143.93 583.288 143.93C585.436 143.93 587.26 144.371 588.76 145.254C590.261 146.136 591.409 147.343 592.203 148.873C592.997 150.403 593.395 152.139 593.395 154.081C593.395 154.61 593.38 155.11 593.35 155.581C593.321 156.052 593.277 156.464 593.218 156.817H575.476V153.198H591.144L588.805 153.904C588.805 151.903 588.304 150.373 587.304 149.314C586.304 148.225 584.935 147.681 583.199 147.681C581.934 147.681 580.831 147.975 579.889 148.564C578.948 149.152 578.227 150.035 577.727 151.212C577.226 152.359 576.976 153.772 576.976 155.449C576.976 157.097 577.241 158.494 577.771 159.642C578.3 160.789 579.051 161.657 580.022 162.246C580.993 162.834 582.14 163.128 583.464 163.128C584.935 163.128 586.127 162.849 587.039 162.29C587.951 161.731 588.672 160.951 589.202 159.951L592.953 161.716C592.424 162.775 591.703 163.702 590.791 164.497C589.908 165.262 588.849 165.85 587.613 166.262C586.377 166.674 585.024 166.88 583.552 166.88ZM599.358 166.438V144.371H603.375L603.816 148.343C604.404 146.901 605.272 145.813 606.42 145.077C607.597 144.312 609.039 143.93 610.745 143.93C611.187 143.93 611.628 143.974 612.069 144.062C612.511 144.121 612.878 144.224 613.173 144.371L612.511 148.52C612.187 148.402 611.819 148.314 611.407 148.255C611.025 148.167 610.495 148.122 609.818 148.122C608.906 148.122 608.009 148.373 607.126 148.873C606.243 149.343 605.508 150.064 604.919 151.035C604.36 152.006 604.081 153.242 604.081 154.743V166.438H599.358ZM626.782 166.88C624.576 166.88 622.634 166.424 620.957 165.512C619.279 164.6 617.97 163.29 617.029 161.584C616.116 159.848 615.66 157.788 615.66 155.405C615.66 153.021 616.116 150.976 617.029 149.27C617.97 147.534 619.265 146.21 620.912 145.298C622.56 144.386 624.429 143.93 626.518 143.93C628.666 143.93 630.49 144.371 631.99 145.254C633.491 146.136 634.638 147.343 635.433 148.873C636.227 150.403 636.625 152.139 636.625 154.081C636.625 154.61 636.61 155.11 636.58 155.581C636.551 156.052 636.507 156.464 636.448 156.817H618.706V153.198H634.374L632.034 153.904C632.034 151.903 631.534 150.373 630.534 149.314C629.533 148.225 628.165 147.681 626.429 147.681C625.164 147.681 624.061 147.975 623.119 148.564C622.178 149.152 621.457 150.035 620.957 151.212C620.456 152.359 620.206 153.772 620.206 155.449C620.206 157.097 620.471 158.494 621.001 159.642C621.53 160.789 622.281 161.657 623.252 162.246C624.223 162.834 625.37 163.128 626.694 163.128C628.165 163.128 629.357 162.849 630.269 162.29C631.181 161.731 631.902 160.951 632.432 159.951L636.183 161.716C635.654 162.775 634.933 163.702 634.021 164.497C633.138 165.262 632.079 165.85 630.843 166.262C629.607 166.674 628.254 166.88 626.782 166.88ZM651.062 166.88C649.238 166.88 647.576 166.424 646.075 165.512C644.604 164.6 643.442 163.29 642.588 161.584C641.735 159.877 641.308 157.832 641.308 155.449C641.308 152.977 641.764 150.888 642.677 149.182C643.589 147.475 644.81 146.18 646.34 145.298C647.87 144.386 649.547 143.93 651.371 143.93C653.254 143.93 654.843 144.445 656.138 145.474C657.432 146.504 658.3 147.843 658.742 149.491L658.212 149.976V134.441H662.935V166.438H658.742L658.389 160.436L659.007 160.48C658.801 161.804 658.315 162.952 657.55 163.923C656.785 164.864 655.829 165.6 654.681 166.13C653.563 166.63 652.357 166.88 651.062 166.88ZM652.077 163.084C653.343 163.084 654.431 162.761 655.343 162.113C656.255 161.466 656.962 160.554 657.462 159.377C657.962 158.2 658.212 156.788 658.212 155.14C658.212 153.61 657.962 152.301 657.462 151.212C656.962 150.094 656.255 149.241 655.343 148.652C654.461 148.064 653.431 147.769 652.254 147.769C650.282 147.769 648.752 148.446 647.664 149.8C646.575 151.153 646.031 153.021 646.031 155.405C646.031 157.788 646.56 159.671 647.62 161.054C648.679 162.407 650.165 163.084 652.077 163.084ZM685.273 166.438V137.309H696.749C700.25 137.309 702.81 138.015 704.428 139.428C706.046 140.84 706.855 142.797 706.855 145.298C706.855 146.828 706.414 148.196 705.531 149.402C704.649 150.579 703.354 151.33 701.648 151.653V151.697C703.531 151.992 704.987 152.771 706.017 154.037C707.076 155.272 707.606 156.714 707.606 158.362C707.606 160.863 706.694 162.834 704.869 164.276C703.045 165.718 700.397 166.438 696.925 166.438H685.273ZM689.908 162.51H697.146C698.999 162.51 700.382 162.128 701.294 161.363C702.236 160.598 702.707 159.524 702.707 158.141C702.707 156.758 702.236 155.684 701.294 154.919C700.382 154.154 698.999 153.772 697.146 153.772H689.908V162.51ZM689.908 149.844H696.395C700.103 149.844 701.956 148.417 701.956 145.563C701.956 142.709 700.103 141.281 696.395 141.281H689.908V149.844ZM733.209 144.371L723.543 169.042C722.896 170.749 722.19 172.102 721.425 173.103C720.689 174.103 719.836 174.824 718.865 175.265C717.894 175.707 716.761 175.928 715.467 175.928C714.407 175.928 713.422 175.78 712.51 175.486C711.627 175.221 710.847 174.854 710.17 174.383L711.318 170.72C711.877 171.19 712.465 171.543 713.083 171.779C713.731 172.014 714.422 172.132 715.158 172.132C715.952 172.132 716.658 171.911 717.276 171.47C717.923 171.058 718.497 170.219 718.997 168.954L719.968 166.571L717.629 161.098L710.744 144.371H716.04L720.939 158.229L722.219 162.378L723.676 157.832L728.31 144.371H733.209ZM773.852 166.438H768.865L766.084 158.803H753.859L751.078 166.438H746.223L757.213 137.309H762.862L773.852 166.438ZM755.183 154.963H764.76L759.993 141.37L755.183 154.963ZM783.74 137.309V166.438H779.017V137.309H783.74Z" fill="black"/>
<path d="M486.008 120.185H472.051V133.953" stroke="black" stroke-width="2.31184" stroke-linecap="round"/>
<path d="M486.008 183.235H472.051V169.467" stroke="black" stroke-width="2.31184" stroke-linecap="round"/>
<path d="M782.801 120.185H796.758V133.953" stroke="black" stroke-width="2.31184" stroke-linecap="round"/>
<path d="M782.801 183.235H796.758V169.467" stroke="black" stroke-width="2.31184" stroke-linecap="round"/>
<defs>
<clipPath id="clip0_10383_57971">
<rect y="13.9819" width="151.475" height="151.475" rx="19.4198" fill="white"/>
</clipPath>
</defs>
</svg>
