<svg width="18" height="16" viewBox="0 0 18 16" fill="none" xmlns="http://www.w3.org/2000/svg">
<path d="M17.9737 2.89904C17.5093 3.51856 16.9479 4.05897 16.3112 4.4994C16.3112 4.66123 16.3112 4.82306 16.3112 4.99389C16.3163 7.93274 15.1424 10.7507 13.0527 12.8161C10.9629 14.8815 8.13206 16.0215 5.19491 15.9805C3.49685 15.9862 1.82053 15.5985 0.297277 14.8477C0.215137 14.8118 0.162166 14.7306 0.162476 14.6409V14.542C0.162476 14.4129 0.267087 14.3083 0.396127 14.3083C2.06528 14.2532 3.67488 13.6745 4.9972 12.654C3.48639 12.6235 2.12705 11.7285 1.50146 10.3523C1.46987 10.2772 1.4797 10.1909 1.52743 10.1248C1.57515 10.0587 1.65386 10.0223 1.73511 10.0287C2.19428 10.0748 2.65804 10.0321 3.10106 9.90284C1.43325 9.55664 0.180067 8.17204 0.000716559 6.47734C-0.00565344 6.39604 0.0307765 6.31734 0.0968565 6.26954C0.162926 6.22184 0.249097 6.21194 0.324237 6.24364C0.771797 6.44114 1.25495 6.54514 1.7441 6.54924C0.282696 5.5901 -0.348534 3.76569 0.207406 2.10786C0.264796 1.94677 0.402667 1.82776 0.570356 1.79458C0.738037 1.76139 0.910817 1.81892 1.02518 1.94603C2.99725 4.04489 5.7069 5.2956 8.58276 5.43443C8.50916 5.14049 8.47296 4.8384 8.47496 4.53536C8.50186 2.94636 9.48506 1.53085 10.9643 0.951512C12.4434 0.372182 14.1258 0.743673 15.2239 1.89208C15.9723 1.74949 16.6959 1.49809 17.3716 1.14585C17.4211 1.11495 17.4839 1.11495 17.5334 1.14585C17.5643 1.19537 17.5643 1.25816 17.5334 1.30768C17.2061 2.05716 16.6532 2.68576 15.9518 3.10583C16.566 3.0346 17.1694 2.88971 17.7491 2.67428C17.7979 2.64106 17.862 2.64106 17.9108 2.67428C17.9517 2.69298 17.9823 2.72875 17.9944 2.77206C18.0065 2.81537 17.9989 2.86182 17.9737 2.89904Z" fill="black"/>
</svg>
