<svg width="115" height="7" viewBox="0 0 115 7" fill="none" xmlns="http://www.w3.org/2000/svg">
<path d="M114.5 3.18213L109.5 0.295377V6.06888L114.5 3.18213ZM106.727 2.68213L101.545 2.68213V3.68213L106.727 3.68213V2.68213ZM96.3636 2.68213L91.1818 2.68213V3.68213L96.3636 3.68213V2.68213ZM86 2.68213L80.8182 2.68213V3.68213L86 3.68213V2.68213ZM75.6364 2.68213L70.4546 2.68213V3.68213L75.6364 3.68213V2.68213ZM65.2727 2.68213L60.0909 2.68213V3.68213L65.2727 3.68213V2.68213ZM54.9091 2.68213L49.7273 2.68213V3.68213L54.9091 3.68213V2.68213ZM44.5455 2.68213L39.3636 2.68213V3.68213L44.5455 3.68213V2.68213ZM34.1818 2.68213L29 2.68213V3.68213L34.1818 3.68213V2.68213ZM23.8182 2.68213L18.6364 2.68213V3.68213L23.8182 3.68213V2.68213ZM13.4546 2.68213L8.27276 2.68213V3.68213L13.4546 3.68213V2.68213ZM3.09093 2.68213H0.500008V3.68213L3.09093 3.68213V2.68213Z" fill="#5FA4FB"/>
</svg>
