<svg width="128" height="7" viewBox="0 0 128 7" fill="none" xmlns="http://www.w3.org/2000/svg">
<path d="M127.5 3.18213L122.5 0.295377V6.06888L127.5 3.18213ZM120.173 2.68213L115.288 2.68213V3.68213L120.173 3.68213V2.68213ZM110.404 2.68213L105.519 2.68213V3.68213L110.404 3.68213V2.68213ZM100.635 2.68213L95.75 2.68213V3.68213L100.635 3.68213V2.68213ZM90.8654 2.68213L85.9808 2.68213V3.68213L90.8654 3.68213V2.68213ZM81.0962 2.68213L76.2115 2.68213V3.68213L81.0962 3.68213V2.68213ZM71.3269 2.68213L66.4423 2.68213V3.68213L71.3269 3.68213V2.68213ZM61.5577 2.68213L56.6731 2.68213V3.68213L61.5577 3.68213V2.68213ZM51.7885 2.68213L46.9039 2.68213V3.68213L51.7885 3.68213V2.68213ZM42.0192 2.68213L37.1346 2.68213V3.68213L42.0192 3.68213V2.68213ZM32.25 2.68213L27.3654 2.68213V3.68213L32.25 3.68213V2.68213ZM22.4808 2.68213L17.5962 2.68213V3.68213L22.4808 3.68213V2.68213ZM12.7116 2.68213L7.82695 2.68213V3.68213L12.7116 3.68213V2.68213ZM2.94234 2.68213L0.5 2.68213V3.68213L2.94234 3.68213V2.68213Z" fill="#5FA4FB"/>
</svg>
