<svg width="35" height="43" viewBox="0 0 35 43" fill="none" xmlns="http://www.w3.org/2000/svg">
<path d="M35.0075 18.1155C35.0075 8.61422 27.1562 0.886719 17.5037 0.886719C7.85125 0.886719 0 8.61422 0 18.1155C0 22.5292 1.6775 26.6267 4.7025 29.8167C4.6475 30.023 4.60625 30.243 4.60625 30.463V36.7467C4.60625 39.7167 7.0675 42.1367 10.0925 42.1367H24.915C27.94 42.1367 30.4012 39.7167 30.4012 36.7467V30.463C30.4012 30.243 30.36 30.023 30.2912 29.8167C33.33 26.6405 34.9937 22.5292 34.9937 18.1155H35.0075ZM17.49 3.63672C25.63 3.63672 32.2437 10.1267 32.2437 18.1155C32.2437 22.1305 30.5938 25.8705 27.61 28.6205C25.8913 30.2155 23.8287 31.3705 21.615 32.0167C20.2812 32.4017 18.9062 32.5942 17.49 32.5942C15.6337 32.5942 13.805 32.2505 12.1137 31.5905C10.7525 31.068 9.47375 30.3392 8.31875 29.4317C7.98875 29.1842 7.6725 28.9092 7.37 28.6342L7.32875 28.593C4.3725 25.843 2.75 22.1167 2.75 18.1292C2.75 10.1267 9.36375 3.63672 17.49 3.63672ZM27.6512 36.7467C27.6512 38.2042 26.4275 39.3867 24.915 39.3867H10.0925C8.58 39.3867 7.35625 38.2042 7.35625 36.7467V32.1405C7.535 32.2642 7.7275 32.3742 7.90625 32.498C8.03 32.5805 8.14 32.6492 8.26375 32.7317C8.64875 32.9655 9.0475 33.1992 9.44625 33.4055C9.4875 33.433 9.5425 33.4605 9.58375 33.488C10.0375 33.7217 10.5188 33.928 10.9862 34.1205C11.0963 34.1617 11.22 34.203 11.3438 34.2442C11.6875 34.368 12.045 34.4917 12.4025 34.6017C12.595 34.6567 12.7875 34.7117 12.98 34.753C13.2688 34.8355 13.5575 34.9042 13.8462 34.9592C14.0662 35.0005 14.2862 35.0555 14.5062 35.083C14.7812 35.1242 15.0562 35.1655 15.3312 35.193C15.565 35.2205 15.7987 35.248 16.0187 35.2755C16.335 35.303 16.6513 35.3167 16.9675 35.3167C17.1325 35.3167 17.3112 35.3442 17.4762 35.3442C17.6275 35.3442 17.765 35.3305 17.9162 35.3305C18.2737 35.3305 18.6175 35.3167 18.975 35.2755C19.1812 35.2617 19.3875 35.2342 19.5938 35.2067C19.8962 35.1655 20.1987 35.1242 20.5012 35.083C20.7075 35.0417 20.9 35.0142 21.1063 34.9592C21.4225 34.8905 21.725 34.8217 22.0412 34.7392C22.22 34.698 22.385 34.643 22.5637 34.6017C22.9487 34.4917 23.32 34.3542 23.6912 34.2167C23.7875 34.1755 23.8838 34.148 23.9663 34.1205C24.4613 33.928 24.9287 33.708 25.41 33.4742C25.41 33.4742 25.4237 33.4742 25.4375 33.4742C25.8913 33.2405 26.3312 32.993 26.7712 32.718C26.84 32.6767 26.9225 32.6217 26.9912 32.5667C27.2112 32.4292 27.4312 32.2917 27.6375 32.1405V36.7467H27.6512Z" fill="black"/>
</svg>
