<svg width="90" height="7" viewBox="0 0 90 7" fill="none" xmlns="http://www.w3.org/2000/svg">
<path d="M89.5 3.18213L84.5 0.295377V6.06888L89.5 3.18213ZM82.0833 2.68213L77.1389 2.68213V3.68213L82.0833 3.68213V2.68213ZM72.1944 2.68213L67.25 2.68213V3.68213L72.1944 3.68213V2.68213ZM62.3056 2.68213L57.3611 2.68213V3.68213L62.3056 3.68213V2.68213ZM52.4167 2.68213L47.4722 2.68213V3.68213L52.4167 3.68213V2.68213ZM42.5278 2.68213L37.5833 2.68213V3.68213L42.5278 3.68213V2.68213ZM32.6389 2.68213L27.6945 2.68213V3.68213L32.6389 3.68213V2.68213ZM22.75 2.68213L17.8056 2.68213V3.68213L22.75 3.68213V2.68213ZM12.8611 2.68213L7.91668 2.68213V3.68213L12.8611 3.68213V2.68213ZM2.97224 2.68213H0.5V3.68213H2.97224V2.68213Z" fill="#5FA4FB"/>
</svg>
