<svg width="126" height="7" viewBox="0 0 126 7" fill="none" xmlns="http://www.w3.org/2000/svg">
<path d="M125.5 3.18213L120.5 0.295377V6.06888L125.5 3.18213ZM118.288 2.68213L113.481 2.68213V3.68213L118.288 3.68213V2.68213ZM108.673 2.68213L103.865 2.68213V3.68213L108.673 3.68213V2.68213ZM99.0577 2.68213L94.25 2.68213V3.68213L99.0577 3.68213V2.68213ZM89.4423 2.68213L84.6346 2.68213V3.68213L89.4423 3.68213V2.68213ZM79.8269 2.68213L75.0192 2.68213V3.68213L79.8269 3.68213V2.68213ZM70.2115 2.68213L65.4038 2.68213V3.68213L70.2115 3.68213V2.68213ZM60.5961 2.68213L55.7884 2.68213V3.68213L60.5961 3.68213V2.68213ZM50.9808 2.68213L46.1731 2.68213V3.68213L50.9808 3.68213V2.68213ZM41.3654 2.68213L36.5577 2.68213V3.68213L41.3654 3.68213V2.68213ZM31.75 2.68213L26.9423 2.68213V3.68213L31.75 3.68213V2.68213ZM22.1346 2.68213L17.3269 2.68213V3.68213L22.1346 3.68213V2.68213ZM12.5192 2.68213L7.71151 2.68213V3.68213L12.5192 3.68213V2.68213ZM2.90382 2.68213H0.5V3.68213H2.90382V2.68213Z" fill="#5FA4FB"/>
</svg>
