<svg width="35" height="42" viewBox="0 0 35 42" fill="none" xmlns="http://www.w3.org/2000/svg">
<path d="M35.0075 17.7859C35.0075 8.28463 27.1562 0.557129 17.5037 0.557129C7.85125 0.557129 0 8.28463 0 17.7859C0 22.1996 1.6775 26.2971 4.7025 29.4871C4.6475 29.6934 4.60625 29.9134 4.60625 30.1334V36.4171C4.60625 39.3871 7.0675 41.8071 10.0925 41.8071H24.915C27.94 41.8071 30.4012 39.3871 30.4012 36.4171V30.1334C30.4012 29.9134 30.36 29.6934 30.2912 29.4871C33.33 26.3109 34.9937 22.1996 34.9937 17.7859H35.0075ZM17.49 3.30713C25.63 3.30713 32.2437 9.79713 32.2437 17.7859C32.2437 21.8009 30.5938 25.5409 27.61 28.2909C25.8913 29.8859 23.8287 31.0409 21.615 31.6871C20.2812 32.0721 18.9062 32.2646 17.49 32.2646C15.6337 32.2646 13.805 31.9209 12.1137 31.2609C10.7525 30.7384 9.47375 30.0096 8.31875 29.1021C7.98875 28.8546 7.6725 28.5796 7.37 28.3046L7.32875 28.2634C4.3725 25.5134 2.75 21.7871 2.75 17.7996C2.75 9.79713 9.36375 3.30713 17.49 3.30713ZM27.6512 36.4171C27.6512 37.8746 26.4275 39.0571 24.915 39.0571H10.0925C8.58 39.0571 7.35625 37.8746 7.35625 36.4171V31.8109C7.535 31.9346 7.7275 32.0446 7.90625 32.1684C8.03 32.2509 8.14 32.3196 8.26375 32.4021C8.64875 32.6359 9.0475 32.8696 9.44625 33.0759C9.4875 33.1034 9.5425 33.1309 9.58375 33.1584C10.0375 33.3921 10.5188 33.5984 10.9862 33.7909C11.0963 33.8321 11.22 33.8734 11.3438 33.9146C11.6875 34.0384 12.045 34.1621 12.4025 34.2721C12.595 34.3271 12.7875 34.3821 12.98 34.4234C13.2688 34.5059 13.5575 34.5746 13.8462 34.6296C14.0662 34.6709 14.2862 34.7259 14.5062 34.7534C14.7812 34.7946 15.0562 34.8359 15.3312 34.8634C15.565 34.8909 15.7987 34.9184 16.0187 34.9459C16.335 34.9734 16.6513 34.9871 16.9675 34.9871C17.1325 34.9871 17.3112 35.0146 17.4762 35.0146C17.6275 35.0146 17.765 35.0009 17.9162 35.0009C18.2737 35.0009 18.6175 34.9871 18.975 34.9459C19.1812 34.9321 19.3875 34.9046 19.5938 34.8771C19.8962 34.8359 20.1987 34.7946 20.5012 34.7534C20.7075 34.7121 20.9 34.6846 21.1063 34.6296C21.4225 34.5609 21.725 34.4921 22.0412 34.4096C22.22 34.3684 22.385 34.3134 22.5637 34.2721C22.9487 34.1621 23.32 34.0246 23.6912 33.8871C23.7875 33.8459 23.8838 33.8184 23.9663 33.7909C24.4613 33.5984 24.9287 33.3784 25.41 33.1446C25.41 33.1446 25.4237 33.1446 25.4375 33.1446C25.8913 32.9109 26.3312 32.6634 26.7712 32.3884C26.84 32.3471 26.9225 32.2921 26.9912 32.2371C27.2112 32.0996 27.4312 31.9621 27.6375 31.8109V36.4171H27.6512Z" fill="black"/>
</svg>
