<svg width="20" height="21" viewBox="0 0 20 21" fill="none" xmlns="http://www.w3.org/2000/svg">
<path d="M10.4156 18.5146H3.39896C2.43229 18.5146 1.64062 17.7396 1.64062 16.7896V4.42295C1.64062 2.23961 3.26563 1.24795 5.25729 2.22295L8.95729 4.03961C9.75729 4.43128 10.4156 5.47295 10.4156 6.35628V18.5146Z" stroke="white" stroke-width="1.5" stroke-linecap="round" stroke-linejoin="round"/>
<path d="M18.3057 12.7319V15.8819C18.3057 17.6819 17.4724 18.5152 15.6724 18.5152H10.4141V8.86523L10.8057 8.94857L14.5557 9.79023L16.2474 10.1652C17.3474 10.4069 18.2474 10.9736 18.2974 12.5736C18.3057 12.6236 18.3057 12.6736 18.3057 12.7319Z" stroke="white" stroke-width="1.5" stroke-linecap="round" stroke-linejoin="round"/>
<path d="M4.58594 7.68164H7.4776" stroke="white" stroke-width="1.5" stroke-linecap="round" stroke-linejoin="round"/>
<path d="M4.58594 11.0146H7.4776" stroke="white" stroke-width="1.5" stroke-linecap="round" stroke-linejoin="round"/>
<path d="M14.5547 9.78991V12.4732C14.5547 13.5066 13.713 14.3482 12.6797 14.3482C11.6464 14.3482 10.8047 13.5066 10.8047 12.4732V8.94824L14.5547 9.78991Z" stroke="white" stroke-width="1.5" stroke-linecap="round" stroke-linejoin="round"/>
<path d="M18.2964 12.5734C18.2464 13.5567 17.4297 14.3484 16.4297 14.3484C15.3964 14.3484 14.5547 13.5067 14.5547 12.4734V9.79004L16.2464 10.165C17.3464 10.4067 18.2464 10.9734 18.2964 12.5734Z" stroke="white" stroke-width="1.5" stroke-linecap="round" stroke-linejoin="round"/>
</svg>
