<svg width="32" height="33" viewBox="0 0 32 33" fill="none" xmlns="http://www.w3.org/2000/svg">
<path d="M2.66406 13.5168V18.8501C2.66406 21.5168 3.9974 22.8501 6.66406 22.8501H8.57073C9.06406 22.8501 9.5574 22.9968 9.98406 23.2501L13.8774 25.6901C17.2374 27.7968 19.9974 26.2635 19.9974 22.3035V10.0635C19.9974 6.09014 17.2374 4.57014 13.8774 6.67681L9.98406 9.11681C9.5574 9.37014 9.06406 9.51681 8.57073 9.51681H6.66406C3.9974 9.51681 2.66406 10.8501 2.66406 13.5168Z" stroke="black" stroke-width="1.5"/>
<path d="M24 10.8501C26.3733 14.0101 26.3733 18.3568 24 21.5168" stroke="black" stroke-width="1.5" stroke-linecap="round" stroke-linejoin="round"/>
<path d="M26.4375 7.51709C30.2908 12.6504 30.2908 19.7171 26.4375 24.8504" stroke="black" stroke-width="1.5" stroke-linecap="round" stroke-linejoin="round"/>
</svg>
