<svg width="20" height="21" viewBox="0 0 20 21" fill="none" xmlns="http://www.w3.org/2000/svg">
<path d="M10.4156 18.9326H3.39896C2.43229 18.9326 1.64062 18.1576 1.64062 17.2076V4.84092C1.64062 2.65758 3.26563 1.66592 5.25729 2.64092L8.95729 4.45758C9.75729 4.84925 10.4156 5.89092 10.4156 6.77425V18.9326Z" stroke="white" stroke-width="1.5" stroke-linecap="round" stroke-linejoin="round"/>
<path d="M18.3057 13.1499V16.2999C18.3057 18.0999 17.4724 18.9332 15.6724 18.9332H10.4141V9.2832L10.8057 9.36654L14.5557 10.2082L16.2474 10.5832C17.3474 10.8249 18.2474 11.3915 18.2974 12.9915C18.3057 13.0415 18.3057 13.0915 18.3057 13.1499Z" stroke="white" stroke-width="1.5" stroke-linecap="round" stroke-linejoin="round"/>
<path d="M4.58594 8.09961H7.4776" stroke="white" stroke-width="1.5" stroke-linecap="round" stroke-linejoin="round"/>
<path d="M4.58594 11.4326H7.4776" stroke="white" stroke-width="1.5" stroke-linecap="round" stroke-linejoin="round"/>
<path d="M14.5547 10.2079V12.8912C14.5547 13.9245 13.713 14.7662 12.6797 14.7662C11.6464 14.7662 10.8047 13.9245 10.8047 12.8912V9.36621L14.5547 10.2079Z" stroke="white" stroke-width="1.5" stroke-linecap="round" stroke-linejoin="round"/>
<path d="M18.2964 12.9913C18.2464 13.9747 17.4297 14.7663 16.4297 14.7663C15.3964 14.7663 14.5547 13.9247 14.5547 12.8913V10.208L16.2464 10.583C17.3464 10.8247 18.2464 11.3913 18.2964 12.9913Z" stroke="white" stroke-width="1.5" stroke-linecap="round" stroke-linejoin="round"/>
</svg>
