<svg width="32" height="33" viewBox="0 0 32 33" fill="none" xmlns="http://www.w3.org/2000/svg">
<path d="M8.49688 13.1916C3.05688 13.5783 3.07021 21.4583 8.49688 21.8449H21.3769C22.9369 21.8583 24.4436 21.2716 25.6036 20.2183C29.4169 16.885 27.3769 10.2183 22.3502 9.57826C20.5502 -1.27507 4.83022 2.84496 8.55022 13.1916" stroke="black" stroke-width="1.5" stroke-miterlimit="10" stroke-linecap="round" stroke-linejoin="round"/>
<path d="M16 21.845V25.845" stroke="black" stroke-width="1.5" stroke-miterlimit="10" stroke-linecap="round" stroke-linejoin="round"/>
<path d="M16.0026 31.1783C17.4754 31.1783 18.6693 29.9844 18.6693 28.5116C18.6693 27.0389 17.4754 25.845 16.0026 25.845C14.5298 25.845 13.3359 27.0389 13.3359 28.5116C13.3359 29.9844 14.5298 31.1783 16.0026 31.1783Z" stroke="black" stroke-width="1.5" stroke-miterlimit="10" stroke-linecap="round" stroke-linejoin="round"/>
<path d="M23.9974 28.5117H18.6641" stroke="black" stroke-width="1.5" stroke-miterlimit="10" stroke-linecap="round" stroke-linejoin="round"/>
<path d="M13.3333 28.5117H8" stroke="black" stroke-width="1.5" stroke-miterlimit="10" stroke-linecap="round" stroke-linejoin="round"/>
</svg>
