<svg width="24" height="25" viewBox="0 0 24 25" fill="none" xmlns="http://www.w3.org/2000/svg">
<path d="M17.62 10.9313C17.19 10.9313 16.85 10.5812 16.85 10.1612C16.85 9.79125 16.48 9.02125 15.86 8.35125C15.25 7.70125 14.58 7.32125 14.02 7.32125C13.59 7.32125 13.25 6.97125 13.25 6.55125C13.25 6.13125 13.6 5.78125 14.02 5.78125C15.02 5.78125 16.07 6.32125 16.99 7.29125C17.85 8.20125 18.4 9.33125 18.4 10.1513C18.4 10.5813 18.05 10.9313 17.62 10.9313Z" fill="black"/>
<path d="M21.2278 10.9316C20.7978 10.9316 20.4578 10.5816 20.4578 10.1616C20.4578 6.61164 17.5678 3.73164 14.0278 3.73164C13.5978 3.73164 13.2578 3.38164 13.2578 2.96164C13.2578 2.54164 13.5978 2.18164 14.0178 2.18164C18.4178 2.18164 21.9978 5.76164 21.9978 10.1616C21.9978 10.5816 21.6478 10.9316 21.2278 10.9316Z" fill="black"/>
<path d="M11.05 15.1316L9.2 16.9816C8.81 17.3716 8.19 17.3716 7.79 16.9916C7.68 16.8816 7.57 16.7816 7.46 16.6716C6.43 15.6316 5.5 14.5416 4.67 13.4016C3.85 12.2616 3.19 11.1216 2.71 9.99164C2.24 8.85164 2 7.76164 2 6.72164C2 6.04164 2.12 5.39164 2.36 4.79164C2.6 4.18164 2.98 3.62164 3.51 3.12164C4.15 2.49164 4.85 2.18164 5.59 2.18164C5.87 2.18164 6.15 2.24164 6.4 2.36164C6.66 2.48164 6.89 2.66164 7.07 2.92164L9.39 6.19164C9.57 6.44164 9.7 6.67164 9.79 6.89164C9.88 7.10164 9.93 7.31164 9.93 7.50164C9.93 7.74164 9.86 7.98164 9.72 8.21164C9.59 8.44164 9.4 8.68164 9.16 8.92164L8.4 9.71164C8.29 9.82164 8.24 9.95164 8.24 10.1116C8.24 10.1916 8.25 10.2616 8.27 10.3416C8.3 10.4216 8.33 10.4816 8.35 10.5416C8.53 10.8716 8.84 11.3016 9.28 11.8216C9.73 12.3416 10.21 12.8716 10.73 13.4016C10.83 13.5016 10.94 13.6016 11.04 13.7016C11.44 14.0916 11.45 14.7316 11.05 15.1316Z" fill="black"/>
<path d="M21.9716 18.5117C21.9716 18.7917 21.9216 19.0817 21.8216 19.3617C21.7916 19.4417 21.7616 19.5217 21.7216 19.6017C21.5516 19.9617 21.3316 20.3017 21.0416 20.6217C20.5516 21.1617 20.0116 21.5517 19.4016 21.8017C19.3916 21.8017 19.3816 21.8117 19.3716 21.8117C18.7816 22.0517 18.1416 22.1817 17.4516 22.1817C16.4316 22.1817 15.3416 21.9417 14.1916 21.4517C13.0416 20.9617 11.8916 20.3017 10.7516 19.4717C10.3616 19.1817 9.97156 18.8917 9.60156 18.5817L12.8716 15.3117C13.1516 15.5217 13.4016 15.6817 13.6116 15.7917C13.6616 15.8117 13.7216 15.8417 13.7916 15.8717C13.8716 15.9017 13.9516 15.9117 14.0416 15.9117C14.2116 15.9117 14.3416 15.8517 14.4516 15.7417L15.2116 14.9917C15.4616 14.7417 15.7016 14.5517 15.9316 14.4317C16.1616 14.2917 16.3916 14.2217 16.6416 14.2217C16.8316 14.2217 17.0316 14.2617 17.2516 14.3517C17.4716 14.4417 17.7016 14.5717 17.9516 14.7417L21.2616 17.0917C21.5216 17.2717 21.7016 17.4817 21.8116 17.7317C21.9116 17.9817 21.9716 18.2317 21.9716 18.5117Z" fill="black"/>
</svg>
