<svg width="45" height="45" viewBox="0 0 45 45" fill="none" xmlns="http://www.w3.org/2000/svg">
<path d="M19.0342 20.9536H14.1759C13.0209 20.9536 12.0859 21.8885 12.0859 23.0435V32.4302H19.0342V20.9536V20.9536Z" stroke="black" stroke-width="2.4" stroke-miterlimit="10" stroke-linecap="round" stroke-linejoin="round"/>
<path d="M23.8923 12.6118H21.1056C19.9506 12.6118 19.0156 13.5468 19.0156 14.7018V32.4119H25.964V14.7018C25.964 13.5468 25.0473 12.6118 23.8923 12.6118Z" stroke="black" stroke-width="2.4" stroke-miterlimit="10" stroke-linecap="round" stroke-linejoin="round"/>
<path d="M30.8349 24.0703H25.9766V32.4121H32.9249V26.1603C32.9066 25.0053 31.9715 24.0703 30.8349 24.0703Z" stroke="black" stroke-width="2.4" stroke-miterlimit="10" stroke-linecap="round" stroke-linejoin="round"/>
<path d="M16.9974 40.8449H27.9974C37.1641 40.8449 40.8307 37.1782 40.8307 28.0116V17.0116C40.8307 7.84489 37.1641 4.17822 27.9974 4.17822H16.9974C7.83073 4.17822 4.16406 7.84489 4.16406 17.0116V28.0116C4.16406 37.1782 7.83073 40.8449 16.9974 40.8449Z" stroke="black" stroke-width="2.4" stroke-linecap="round" stroke-linejoin="round"/>
</svg>
