<svg width="25" height="25" viewBox="0 0 25 25" fill="none" xmlns="http://www.w3.org/2000/svg">
<path d="M17.5 4.09912H7.5C4.5 4.09912 2.5 5.59912 2.5 9.09912V16.0991C2.5 19.5991 4.5 21.0991 7.5 21.0991H17.5C20.5 21.0991 22.5 19.5991 22.5 16.0991V9.09912C22.5 5.59912 20.5 4.09912 17.5 4.09912ZM17.97 10.1891L14.84 12.6891C14.18 13.2191 13.34 13.4791 12.5 13.4791C11.66 13.4791 10.81 13.2191 10.16 12.6891L7.03 10.1891C6.71 9.92912 6.66 9.44912 6.91 9.12912C7.17 8.80912 7.64 8.74912 7.96 9.00912L11.09 11.5091C11.85 12.1191 13.14 12.1191 13.9 11.5091L17.03 9.00912C17.35 8.74912 17.83 8.79912 18.08 9.12912C18.34 9.44912 18.29 9.92912 17.97 10.1891Z" fill="black"/>
</svg>
