<svg width="39" height="39" viewBox="0 0 39 39" fill="none" xmlns="http://www.w3.org/2000/svg">
<path d="M28.2001 7.72548H9.26401L12.2233 4.76622C12.6797 4.30974 12.6797 3.55418 12.2233 3.0977C11.7668 2.64122 11.0112 2.64122 10.5547 3.0977L5.58067 8.07178C5.47049 8.18196 5.39178 8.30789 5.32882 8.44955C5.26586 8.59122 5.23438 8.74863 5.23438 8.90604C5.23438 9.06344 5.26586 9.22085 5.32882 9.36252C5.39178 9.50418 5.47049 9.63011 5.58067 9.74029L10.5547 14.7144C10.7909 14.9505 11.0899 15.0607 11.389 15.0607C11.6881 15.0607 11.9872 14.9505 12.2233 14.7144C12.6797 14.2579 12.6797 13.5023 12.2233 13.0459L9.26401 10.0866H28.2001C30.152 10.0866 31.7418 11.6764 31.7418 13.6283V18.8542C31.7418 19.4996 32.277 20.0347 32.9223 20.0347C33.5677 20.0347 34.1029 19.4996 34.1029 18.8542V13.6283C34.1029 10.3699 31.4585 7.72548 28.2001 7.72548Z" fill="black"/>
<path d="M34.1029 30.4394C34.1029 30.282 34.0714 30.1246 34.0085 29.9829C33.9455 29.8412 33.8668 29.7153 33.7566 29.6051L28.7825 24.631C28.326 24.1746 27.5705 24.1746 27.114 24.631C26.6575 25.0875 26.6575 25.8431 27.114 26.2996L30.0733 29.2588H11.1372C9.1853 29.2588 7.59549 27.669 7.59549 25.7172V20.4912C7.59549 19.8459 7.0603 19.3107 6.41493 19.3107C5.76956 19.3107 5.23438 19.8459 5.23438 20.4912V25.7172C5.23438 28.9755 7.87882 31.6199 11.1372 31.6199H30.0733L27.114 34.5792C26.6575 35.0357 26.6575 35.7912 27.114 36.2477C27.3501 36.4838 27.6492 36.594 27.9483 36.594C28.2473 36.594 28.5464 36.4838 28.7825 36.2477L33.7566 31.2736C33.8668 31.1634 33.9455 31.0375 34.0085 30.8959C34.0714 30.7542 34.1029 30.5968 34.1029 30.4394Z" fill="black"/>
</svg>
