<svg width="39" height="38" viewBox="0 0 39 38" fill="none" xmlns="http://www.w3.org/2000/svg">
<path d="M5.53906 11.8231L19.4381 19.8666L33.2427 11.8703" stroke="black" stroke-width="1.94444" stroke-linecap="round" stroke-linejoin="round"/>
<path d="M19.4375 34.1277V19.8508" stroke="black" stroke-width="1.94444" stroke-linecap="round" stroke-linejoin="round"/>
<path d="M16.181 4.01569L7.77543 8.69074C5.8708 9.74537 4.3125 12.3898 4.3125 14.562V23.4556C4.3125 25.6278 5.8708 28.2722 7.77543 29.3268L16.181 34.0019C17.9754 34.9935 20.9189 34.9935 22.7134 34.0019L31.119 29.3268C33.0236 28.2722 34.5819 25.6278 34.5819 23.4556V14.562C34.5819 12.3898 33.0236 9.74537 31.119 8.69074L22.7134 4.01569C20.9032 3.00828 17.9754 3.00828 16.181 4.01569Z" stroke="black" stroke-width="1.94444" stroke-linecap="round" stroke-linejoin="round"/>
<path d="M27.3129 20.9527V15.1916L12.375 6.56561" stroke="black" stroke-width="1.94444" stroke-linecap="round" stroke-linejoin="round"/>
</svg>
