<svg width="45" height="45" viewBox="0 0 45 45" fill="none" xmlns="http://www.w3.org/2000/svg">
<path d="M19.0342 20.624H14.1759C13.0209 20.624 12.0859 21.5589 12.0859 22.7139V32.1006H19.0342V20.624V20.624Z" stroke="black" stroke-width="2.4" stroke-miterlimit="10" stroke-linecap="round" stroke-linejoin="round"/>
<path d="M23.8923 12.2822H21.1056C19.9506 12.2822 19.0156 13.2173 19.0156 14.3723V32.0823H25.964V14.3723C25.964 13.2173 25.0473 12.2822 23.8923 12.2822Z" stroke="black" stroke-width="2.4" stroke-miterlimit="10" stroke-linecap="round" stroke-linejoin="round"/>
<path d="M30.8349 23.7407H25.9766V32.0825H32.9249V25.8307C32.9066 24.6757 31.9715 23.7407 30.8349 23.7407Z" stroke="black" stroke-width="2.4" stroke-miterlimit="10" stroke-linecap="round" stroke-linejoin="round"/>
<path d="M16.9974 40.5153H27.9974C37.1641 40.5153 40.8307 36.8486 40.8307 27.682V16.682C40.8307 7.5153 37.1641 3.84863 27.9974 3.84863H16.9974C7.83073 3.84863 4.16406 7.5153 4.16406 16.682V27.682C4.16406 36.8486 7.83073 40.5153 16.9974 40.5153Z" stroke="black" stroke-width="2.4" stroke-linecap="round" stroke-linejoin="round"/>
</svg>
