<svg width="21" height="21" viewBox="0 0 21 21" fill="none" xmlns="http://www.w3.org/2000/svg">
<path d="M11.7741 3.10684L13.2408 6.04017C13.4408 6.4485 13.9741 6.84017 14.4241 6.91517L17.0824 7.35684C18.7824 7.64017 19.1824 8.8735 17.9574 10.0902L15.8908 12.1568C15.5408 12.5068 15.3491 13.1818 15.4574 13.6652L16.0491 16.2235C16.5158 18.2485 15.4408 19.0318 13.6491 17.9735L11.1574 16.4985C10.7074 16.2318 9.96578 16.2318 9.50744 16.4985L7.01578 17.9735C5.23244 19.0318 4.14911 18.2402 4.61578 16.2235L5.20744 13.6652C5.31578 13.1818 5.12411 12.5068 4.77411 12.1568L2.70744 10.0902C1.49078 8.8735 1.88244 7.64017 3.58244 7.35684L6.24078 6.91517C6.68244 6.84017 7.21578 6.4485 7.41578 6.04017L8.88244 3.10684C9.68244 1.51517 10.9824 1.51517 11.7741 3.10684Z" fill="#F8F38B"/>
</svg>
