<svg width="32" height="33" viewBox="0 0 32 33" fill="none" xmlns="http://www.w3.org/2000/svg">
<path d="M23.9975 9.7301C23.9175 9.71677 23.8242 9.71677 23.7442 9.7301C21.9042 9.66344 20.4375 8.15677 20.4375 6.2901C20.4375 4.38343 21.9708 2.8501 23.8775 2.8501C25.7842 2.8501 27.3175 4.39677 27.3175 6.2901C27.3042 8.15677 25.8375 9.66344 23.9975 9.7301Z" stroke="black" stroke-width="1.5" stroke-linecap="round" stroke-linejoin="round"/>
<path d="M22.6259 19.437C24.4526 19.7436 26.4659 19.4236 27.8793 18.477C29.7593 17.2236 29.7593 15.1703 27.8793 13.917C26.4526 12.9703 24.4126 12.6503 22.5859 12.9703" stroke="black" stroke-width="1.5" stroke-linecap="round" stroke-linejoin="round"/>
<path d="M7.96063 9.7301C8.04063 9.71677 8.13396 9.71677 8.21396 9.7301C10.054 9.66344 11.5206 8.15677 11.5206 6.2901C11.5206 4.38343 9.98729 2.8501 8.08063 2.8501C6.17396 2.8501 4.64062 4.39677 4.64062 6.2901C4.65396 8.15677 6.12063 9.66344 7.96063 9.7301Z" stroke="black" stroke-width="1.5" stroke-linecap="round" stroke-linejoin="round"/>
<path d="M9.33521 19.437C7.50854 19.7436 5.49521 19.4236 4.08188 18.477C2.20188 17.2236 2.20188 15.1703 4.08188 13.917C5.50854 12.9703 7.54854 12.6503 9.3752 12.9703" stroke="black" stroke-width="1.5" stroke-linecap="round" stroke-linejoin="round"/>
<path d="M15.9975 19.6901C15.9175 19.6767 15.8242 19.6767 15.7442 19.6901C13.9042 19.6234 12.4375 18.1167 12.4375 16.2501C12.4375 14.3434 13.9708 12.8101 15.8775 12.8101C17.7842 12.8101 19.3175 14.3567 19.3175 16.2501C19.3042 18.1167 17.8375 19.6367 15.9975 19.6901Z" stroke="black" stroke-width="1.5" stroke-linecap="round" stroke-linejoin="round"/>
<path d="M12.1209 23.8901C10.2409 25.1434 10.2409 27.1967 12.1209 28.4501C14.2543 29.8767 17.7476 29.8767 19.8809 28.4501C21.7609 27.1967 21.7609 25.1434 19.8809 23.8901C17.7609 22.4767 14.2543 22.4767 12.1209 23.8901Z" stroke="black" stroke-width="1.5" stroke-linecap="round" stroke-linejoin="round"/>
</svg>
