<svg width="25" height="25" viewBox="0 0 25 25" fill="none" xmlns="http://www.w3.org/2000/svg">
<path d="M18.12 11.3492C17.69 11.3492 17.35 10.9992 17.35 10.5792C17.35 10.2092 16.98 9.43922 16.36 8.76922C15.75 8.11922 15.08 7.73922 14.52 7.73922C14.09 7.73922 13.75 7.38922 13.75 6.96922C13.75 6.54922 14.1 6.19922 14.52 6.19922C15.52 6.19922 16.57 6.73922 17.49 7.70922C18.35 8.61922 18.9 9.74922 18.9 10.5692C18.9 10.9992 18.55 11.3492 18.12 11.3492Z" fill="black"/>
<path d="M21.7278 11.3491C21.2978 11.3491 20.9578 10.9991 20.9578 10.5791C20.9578 7.02912 18.0678 4.14912 14.5278 4.14912C14.0978 4.14912 13.7578 3.79912 13.7578 3.37912C13.7578 2.95912 14.0978 2.59912 14.5178 2.59912C18.9178 2.59912 22.4978 6.17912 22.4978 10.5791C22.4978 10.9991 22.1478 11.3491 21.7278 11.3491Z" fill="black"/>
<path d="M11.55 15.5491L9.7 17.3991C9.31 17.7891 8.69 17.7891 8.29 17.4091C8.18 17.2991 8.07 17.1991 7.96 17.0891C6.93 16.0491 6 14.9591 5.17 13.8191C4.35 12.6791 3.69 11.5391 3.21 10.4091C2.74 9.26912 2.5 8.17912 2.5 7.13912C2.5 6.45912 2.62 5.80912 2.86 5.20912C3.1 4.59912 3.48 4.03912 4.01 3.53912C4.65 2.90912 5.35 2.59912 6.09 2.59912C6.37 2.59912 6.65 2.65912 6.9 2.77912C7.16 2.89912 7.39 3.07912 7.57 3.33912L9.89 6.60912C10.07 6.85912 10.2 7.08912 10.29 7.30912C10.38 7.51912 10.43 7.72912 10.43 7.91912C10.43 8.15912 10.36 8.39912 10.22 8.62912C10.09 8.85912 9.9 9.09912 9.66 9.33912L8.9 10.1291C8.79 10.2391 8.74 10.3691 8.74 10.5291C8.74 10.6091 8.75 10.6791 8.77 10.7591C8.8 10.8391 8.83 10.8991 8.85 10.9591C9.03 11.2891 9.34 11.7191 9.78 12.2391C10.23 12.7591 10.71 13.2891 11.23 13.8191C11.33 13.9191 11.44 14.0191 11.54 14.1191C11.94 14.5091 11.95 15.1491 11.55 15.5491Z" fill="black"/>
<path d="M22.4716 18.9292C22.4716 19.2092 22.4216 19.4992 22.3216 19.7792C22.2916 19.8592 22.2616 19.9392 22.2216 20.0192C22.0516 20.3792 21.8316 20.7192 21.5416 21.0392C21.0516 21.5792 20.5116 21.9692 19.9016 22.2192C19.8916 22.2192 19.8816 22.2292 19.8716 22.2292C19.2816 22.4692 18.6416 22.5992 17.9516 22.5992C16.9316 22.5992 15.8416 22.3592 14.6916 21.8692C13.5416 21.3792 12.3916 20.7192 11.2516 19.8892C10.8616 19.5992 10.4716 19.3092 10.1016 18.9992L13.3716 15.7292C13.6516 15.9392 13.9016 16.0992 14.1116 16.2092C14.1616 16.2292 14.2216 16.2592 14.2916 16.2892C14.3716 16.3192 14.4516 16.3292 14.5416 16.3292C14.7116 16.3292 14.8416 16.2692 14.9516 16.1592L15.7116 15.4092C15.9616 15.1592 16.2016 14.9692 16.4316 14.8492C16.6616 14.7092 16.8916 14.6392 17.1416 14.6392C17.3316 14.6392 17.5316 14.6792 17.7516 14.7692C17.9716 14.8592 18.2016 14.9892 18.4516 15.1592L21.7616 17.5092C22.0216 17.6892 22.2016 17.8992 22.3116 18.1492C22.4116 18.3992 22.4716 18.6492 22.4716 18.9292Z" fill="black"/>
</svg>
