<svg width="33" height="33" viewBox="0 0 33 33" fill="none" xmlns="http://www.w3.org/2000/svg">
<path d="M17.2041 27.7385H8.7774C4.56406 27.7385 3.16406 24.9385 3.16406 22.1252V10.8985C3.16406 6.68516 4.56406 5.28516 8.7774 5.28516H17.2041C21.4174 5.28516 22.8174 6.68516 22.8174 10.8985V22.1252C22.8174 26.3385 21.4041 27.7385 17.2041 27.7385Z" stroke="black" stroke-width="1.5" stroke-linecap="round" stroke-linejoin="round"/>
<path d="M26.527 23.3117L22.8203 20.7116V12.2983L26.527 9.69832C28.3403 8.43165 29.8336 9.20498 29.8336 11.4316V21.5917C29.8336 23.8183 28.3403 24.5917 26.527 23.3117Z" stroke="black" stroke-width="1.5" stroke-linecap="round" stroke-linejoin="round"/>
<path d="M15.8359 15.1785C16.9405 15.1785 17.8359 14.283 17.8359 13.1785C17.8359 12.0739 16.9405 11.1785 15.8359 11.1785C14.7314 11.1785 13.8359 12.0739 13.8359 13.1785C13.8359 14.283 14.7314 15.1785 15.8359 15.1785Z" stroke="black" stroke-width="1.5" stroke-linecap="round" stroke-linejoin="round"/>
</svg>
