<svg width="32" height="33" viewBox="0 0 32 33" fill="none" xmlns="http://www.w3.org/2000/svg">
<path d="M16.7041 27.4104H8.2774C4.06406 27.4104 2.66406 24.6104 2.66406 21.797V10.5704C2.66406 6.35703 4.06406 4.95703 8.2774 4.95703H16.7041C20.9174 4.95703 22.3174 6.35703 22.3174 10.5704V21.797C22.3174 26.0104 20.9041 27.4104 16.7041 27.4104Z" stroke="black" stroke-width="1.5" stroke-linecap="round" stroke-linejoin="round"/>
<path d="M26.027 22.9838L22.3203 20.3838V11.9704L26.027 9.37044C27.8403 8.10377 29.3336 8.8771 29.3336 11.1038V21.2638C29.3336 23.4904 27.8403 24.2638 26.027 22.9838Z" stroke="black" stroke-width="1.5" stroke-linecap="round" stroke-linejoin="round"/>
<path d="M15.3359 14.8501C16.4405 14.8501 17.3359 13.9547 17.3359 12.8501C17.3359 11.7455 16.4405 10.8501 15.3359 10.8501C14.2314 10.8501 13.3359 11.7455 13.3359 12.8501C13.3359 13.9547 14.2314 14.8501 15.3359 14.8501Z" stroke="black" stroke-width="1.5" stroke-linecap="round" stroke-linejoin="round"/>
</svg>
