<svg width="33" height="33" viewBox="0 0 33 33" fill="none" xmlns="http://www.w3.org/2000/svg">
<path d="M3.16406 13.8449V19.1783C3.16406 21.8449 4.4974 23.1783 7.16406 23.1783H9.07073C9.56406 23.1783 10.0574 23.3249 10.4841 23.5783L14.3774 26.0183C17.7374 28.1249 20.4974 26.5916 20.4974 22.6316V10.3916C20.4974 6.41827 17.7374 4.89827 14.3774 7.00493L10.4841 9.44493C10.0574 9.69827 9.56406 9.84493 9.07073 9.84493H7.16406C4.4974 9.84493 3.16406 11.1783 3.16406 13.8449Z" stroke="black" stroke-width="1.5"/>
<path d="M24.5 11.1785C26.8733 14.3385 26.8733 18.6851 24.5 21.8451" stroke="black" stroke-width="1.5" stroke-linecap="round" stroke-linejoin="round"/>
<path d="M26.9375 7.84497C30.7908 12.9783 30.7908 20.045 26.9375 25.1783" stroke="black" stroke-width="1.5" stroke-linecap="round" stroke-linejoin="round"/>
</svg>
