<svg width="20" height="21" viewBox="0 0 20 21" fill="none" xmlns="http://www.w3.org/2000/svg">
<path d="M9.9974 17.2653H5.83073C3.33073 17.2653 1.66406 16.0153 1.66406 13.0986V7.2653C1.66406 4.34863 3.33073 3.09863 5.83073 3.09863H14.1641C16.6641 3.09863 18.3307 4.34863 18.3307 7.2653V9.7653" stroke="white" stroke-width="1.5" stroke-miterlimit="10" stroke-linecap="round" stroke-linejoin="round"/>
<path d="M14.1693 7.68164L11.5609 9.76497C10.7026 10.4483 9.29427 10.4483 8.43593 9.76497L5.83594 7.68164" stroke="white" stroke-width="1.5" stroke-miterlimit="10" stroke-linecap="round" stroke-linejoin="round"/>
<path d="M16.0066 12.4902L13.0566 15.4402C12.9399 15.5569 12.8316 15.7735 12.8066 15.9319L12.6482 17.0569C12.5899 17.4652 12.8732 17.7486 13.2816 17.6902L14.4066 17.5319C14.5649 17.5069 14.7899 17.3985 14.8982 17.2819L17.8483 14.3319C18.3566 13.8236 18.5983 13.2319 17.8483 12.4819C17.1066 11.7402 16.5149 11.9819 16.0066 12.4902Z" stroke="white" stroke-width="1.5" stroke-miterlimit="10" stroke-linecap="round" stroke-linejoin="round"/>
<path d="M15.5781 12.915C15.8281 13.815 16.5281 14.515 17.4281 14.765" stroke="white" stroke-width="1.5" stroke-miterlimit="10" stroke-linecap="round" stroke-linejoin="round"/>
</svg>
