<svg width="17" height="17" viewBox="0 0 17 17" fill="none" xmlns="http://www.w3.org/2000/svg">
<rect width="15.5848" height="15.5848" transform="translate(0.859375 0.782227)" fill="#D7EEA1"/>
<path d="M13.7102 10.4773C12.3725 11.8085 10.4568 12.2176 8.77498 11.6916L5.71646 14.7436C5.49568 14.9709 5.0606 15.1072 4.7489 15.0618L3.33328 14.867C2.86574 14.802 2.43066 14.3605 2.35923 13.8929L2.16442 12.4773C2.11897 12.1656 2.26832 11.7305 2.48261 11.5098L5.53464 8.45773C5.01515 6.76938 5.41775 4.85374 6.75545 3.52254C8.67108 1.60691 11.7816 1.60691 13.7037 3.52254C15.6258 5.43817 15.6258 8.56163 13.7102 10.4773Z" stroke="black" stroke-width="0.649367" stroke-miterlimit="10" stroke-linecap="round" stroke-linejoin="round"/>
<path d="M5.33594 12.1396L6.82948 13.6332" stroke="black" stroke-width="0.649367" stroke-miterlimit="10" stroke-linecap="round" stroke-linejoin="round"/>
<path d="M10.2787 7.92527C10.8167 7.92527 11.2528 7.48918 11.2528 6.95122C11.2528 6.41327 10.8167 5.97717 10.2787 5.97717C9.74078 5.97717 9.30469 6.41327 9.30469 6.95122C9.30469 7.48918 9.74078 7.92527 10.2787 7.92527Z" stroke="black" stroke-width="0.649367" stroke-linecap="round" stroke-linejoin="round"/>
</svg>
