<svg width="24" height="25" viewBox="0 0 24 25" fill="none" xmlns="http://www.w3.org/2000/svg">
<path d="M7.6525 21.0915C7.6225 21.0915 7.5825 21.1115 7.5525 21.1115C5.6125 20.1515 4.0325 18.5615 3.0625 16.6215C3.0625 16.5915 3.0825 16.5515 3.0825 16.5215C4.3025 16.8815 5.5625 17.1515 6.8125 17.3615C7.0325 18.6215 7.2925 19.8715 7.6525 21.0915Z" fill="black"/>
<path d="M20.9391 16.6315C19.9491 18.6215 18.2991 20.2315 16.2891 21.2015C16.6691 19.9315 16.9891 18.6515 17.1991 17.3615C18.4591 17.1515 19.6991 16.8815 20.9191 16.5215C20.9091 16.5615 20.9391 16.6015 20.9391 16.6315Z" fill="black"/>
<path d="M21.0191 7.89211C19.7591 7.51211 18.4891 7.20211 17.1991 6.98211C16.9891 5.69211 16.6791 4.41211 16.2891 3.16211C18.3591 4.15211 20.0291 5.82211 21.0191 7.89211Z" fill="black"/>
<path d="M7.64656 3.27121C7.28656 4.49121 7.02656 5.73121 6.81656 6.99121C5.52656 7.19121 4.24656 7.51121 2.97656 7.89121C3.94656 5.88121 5.55656 4.23121 7.54656 3.24121C7.57656 3.24121 7.61656 3.27121 7.64656 3.27121Z" fill="black"/>
<path d="M15.4878 6.77164C13.1678 6.51164 10.8278 6.51164 8.50781 6.77164C8.75781 5.40164 9.07781 4.03164 9.52781 2.71164C9.54781 2.63164 9.53781 2.57164 9.54781 2.49164C10.3378 2.30164 11.1478 2.18164 11.9978 2.18164C12.8378 2.18164 13.6578 2.30164 14.4378 2.49164C14.4478 2.57164 14.4478 2.63164 14.4678 2.71164C14.9178 4.04164 15.2378 5.40164 15.4878 6.77164Z" fill="black"/>
<path d="M6.59 15.6714C5.21 15.4214 3.85 15.1014 2.53 14.6514C2.45 14.6314 2.39 14.6414 2.31 14.6314C2.12 13.8414 2 13.0314 2 12.1814C2 11.3414 2.12 10.5214 2.31 9.74141C2.39 9.73141 2.45 9.73141 2.53 9.71141C3.86 9.27141 5.21 8.94141 6.59 8.69141C6.34 11.0114 6.34 13.3514 6.59 15.6714Z" fill="black"/>
<path d="M21.9963 12.1814C21.9963 13.0314 21.8763 13.8414 21.6863 14.6314C21.6063 14.6414 21.5462 14.6314 21.4662 14.6514C20.1362 15.0914 18.7763 15.4214 17.4062 15.6714C17.6662 13.3514 17.6662 11.0114 17.4062 8.69141C18.7763 8.94141 20.1462 9.26141 21.4662 9.71141C21.5462 9.73141 21.6063 9.74141 21.6863 9.74141C21.8763 10.5314 21.9963 11.3414 21.9963 12.1814Z" fill="black"/>
<path d="M15.4878 17.5918C15.2378 18.9718 14.9178 20.3318 14.4678 21.6518C14.4478 21.7318 14.4478 21.7918 14.4378 21.8718C13.6578 22.0618 12.8378 22.1818 11.9978 22.1818C11.1478 22.1818 10.3378 22.0618 9.54781 21.8718C9.53781 21.7918 9.54781 21.7318 9.52781 21.6518C9.08781 20.3218 8.75781 18.9718 8.50781 17.5918C9.66781 17.7218 10.8278 17.8118 11.9978 17.8118C13.1678 17.8118 14.3378 17.7218 15.4878 17.5918Z" fill="black"/>
<path d="M15.7633 15.945C13.2622 16.2605 10.7378 16.2605 8.23667 15.945C7.92111 13.4439 7.92111 10.9194 8.23667 8.41831C10.7378 8.10275 13.2622 8.10275 15.7633 8.41831C16.0789 10.9194 16.0789 13.4439 15.7633 15.945Z" fill="black"/>
</svg>
