<svg width="25" height="25" viewBox="0 0 25 25" fill="none" xmlns="http://www.w3.org/2000/svg">
<path d="M21.1172 9.04912C20.0672 4.42912 16.0372 2.34912 12.4972 2.34912C12.4972 2.34912 12.4972 2.34912 12.4872 2.34912C8.95717 2.34912 4.91717 4.41912 3.86717 9.03912C2.69717 14.1991 5.85717 18.5691 8.71717 21.3191C9.77717 22.3391 11.1372 22.8491 12.4972 22.8491C13.8572 22.8491 15.2172 22.3391 16.2672 21.3191C19.1272 18.5691 22.2872 14.2091 21.1172 9.04912ZM12.4972 14.0591C10.7572 14.0591 9.34717 12.6491 9.34717 10.9091C9.34717 9.16912 10.7572 7.75912 12.4972 7.75912C14.2372 7.75912 15.6472 9.16912 15.6472 10.9091C15.6472 12.6491 14.2372 14.0591 12.4972 14.0591Z" fill="black"/>
</svg>
