<svg width="33" height="33" viewBox="0 0 33 33" fill="none" xmlns="http://www.w3.org/2000/svg">
<path d="M24.4975 10.0582C24.4175 10.0449 24.3242 10.0449 24.2442 10.0582C22.4042 9.99156 20.9375 8.48489 20.9375 6.61823C20.9375 4.71156 22.4708 3.17822 24.3775 3.17822C26.2842 3.17822 27.8175 4.72489 27.8175 6.61823C27.8042 8.48489 26.3375 9.99156 24.4975 10.0582Z" stroke="black" stroke-width="1.5" stroke-linecap="round" stroke-linejoin="round"/>
<path d="M23.1259 19.7651C24.9526 20.0718 26.9659 19.7518 28.3793 18.8051C30.2593 17.5518 30.2593 15.4984 28.3793 14.2451C26.9526 13.2984 24.9126 12.9784 23.0859 13.2984" stroke="black" stroke-width="1.5" stroke-linecap="round" stroke-linejoin="round"/>
<path d="M8.46063 10.0582C8.54063 10.0449 8.63396 10.0449 8.71396 10.0582C10.554 9.99156 12.0206 8.48489 12.0206 6.61823C12.0206 4.71156 10.4873 3.17822 8.58063 3.17822C6.67396 3.17822 5.14062 4.72489 5.14062 6.61823C5.15396 8.48489 6.62063 9.99156 8.46063 10.0582Z" stroke="black" stroke-width="1.5" stroke-linecap="round" stroke-linejoin="round"/>
<path d="M9.83521 19.7651C8.00854 20.0718 5.99521 19.7518 4.58188 18.8051C2.70188 17.5518 2.70188 15.4984 4.58188 14.2451C6.00854 13.2984 8.04854 12.9784 9.8752 13.2984" stroke="black" stroke-width="1.5" stroke-linecap="round" stroke-linejoin="round"/>
<path d="M16.4975 20.0182C16.4175 20.0049 16.3242 20.0049 16.2442 20.0182C14.4042 19.9515 12.9375 18.4449 12.9375 16.5782C12.9375 14.6715 14.4708 13.1382 16.3775 13.1382C18.2842 13.1382 19.8175 14.6849 19.8175 16.5782C19.8042 18.4449 18.3375 19.9649 16.4975 20.0182Z" stroke="black" stroke-width="1.5" stroke-linecap="round" stroke-linejoin="round"/>
<path d="M12.6209 24.2182C10.7409 25.4715 10.7409 27.5249 12.6209 28.7782C14.7543 30.2049 18.2476 30.2049 20.3809 28.7782C22.2609 27.5249 22.2609 25.4715 20.3809 24.2182C18.2609 22.8049 14.7543 22.8049 12.6209 24.2182Z" stroke="black" stroke-width="1.5" stroke-linecap="round" stroke-linejoin="round"/>
</svg>
