<svg width="24" height="25" viewBox="0 0 24 25" fill="none" xmlns="http://www.w3.org/2000/svg">
<path d="M17 3.68164H7C4 3.68164 2 5.18164 2 8.68164V15.6816C2 19.1816 4 20.6816 7 20.6816H17C20 20.6816 22 19.1816 22 15.6816V8.68164C22 5.18164 20 3.68164 17 3.68164ZM17.47 9.77164L14.34 12.2716C13.68 12.8016 12.84 13.0616 12 13.0616C11.16 13.0616 10.31 12.8016 9.66 12.2716L6.53 9.77164C6.21 9.51164 6.16 9.03164 6.41 8.71164C6.67 8.39164 7.14 8.33164 7.46 8.59164L10.59 11.0916C11.35 11.7016 12.64 11.7016 13.4 11.0916L16.53 8.59164C16.85 8.33164 17.33 8.38164 17.58 8.71164C17.84 9.03164 17.79 9.51164 17.47 9.77164Z" fill="black"/>
</svg>
