<svg width="38" height="38" viewBox="0 0 38 38" fill="none" xmlns="http://www.w3.org/2000/svg">
<path d="M19.4794 3.4963L33.6461 9.16293C34.197 9.3833 34.6377 10.0444 34.6377 10.6268V15.8527C34.6377 16.7185 33.9294 17.4268 33.0637 17.4268H4.73032C3.86458 17.4268 3.15625 16.7185 3.15625 15.8527V10.6268C3.15625 10.0444 3.597 9.3833 4.14792 9.16293L18.3146 3.4963C18.6294 3.37037 19.1646 3.37037 19.4794 3.4963Z" stroke="black" stroke-width="1.94444" stroke-miterlimit="10" stroke-linecap="round" stroke-linejoin="round"/>
<path d="M34.6377 34.7416H3.15625V30.0194C3.15625 29.1536 3.86458 28.4453 4.73032 28.4453H33.0637C33.9294 28.4453 34.6377 29.1536 34.6377 30.0194V34.7416Z" stroke="black" stroke-width="1.94444" stroke-miterlimit="10" stroke-linecap="round" stroke-linejoin="round"/>
<path d="M6.30469 28.4453V17.4268" stroke="black" stroke-width="1.94444" stroke-miterlimit="10" stroke-linecap="round" stroke-linejoin="round"/>
<path d="M12.5938 28.4453V17.4268" stroke="black" stroke-width="1.94444" stroke-miterlimit="10" stroke-linecap="round" stroke-linejoin="round"/>
<path d="M18.8984 28.4453V17.4268" stroke="black" stroke-width="1.94444" stroke-miterlimit="10" stroke-linecap="round" stroke-linejoin="round"/>
<path d="M25.1953 28.4453V17.4268" stroke="black" stroke-width="1.94444" stroke-miterlimit="10" stroke-linecap="round" stroke-linejoin="round"/>
<path d="M31.4922 28.4453V17.4268" stroke="black" stroke-width="1.94444" stroke-miterlimit="10" stroke-linecap="round" stroke-linejoin="round"/>
<path d="M1.57812 34.7416H36.2078" stroke="black" stroke-width="1.94444" stroke-miterlimit="10" stroke-linecap="round" stroke-linejoin="round"/>
<path d="M18.9002 13.4916C20.2042 13.4916 21.2613 12.4345 21.2613 11.1305C21.2613 9.82651 20.2042 8.76941 18.9002 8.76941C17.5962 8.76941 16.5391 9.82651 16.5391 11.1305C16.5391 12.4345 17.5962 13.4916 18.9002 13.4916Z" stroke="black" stroke-width="1.94444" stroke-miterlimit="10" stroke-linecap="round" stroke-linejoin="round"/>
</svg>
