<svg width="24" height="25" viewBox="0 0 24 25" fill="none" xmlns="http://www.w3.org/2000/svg">
<path d="M20.6172 8.63164C19.5672 4.01164 15.5372 1.93164 11.9972 1.93164C11.9972 1.93164 11.9972 1.93164 11.9872 1.93164C8.45717 1.93164 4.41717 4.00164 3.36717 8.62164C2.19717 13.7816 5.35717 18.1516 8.21717 20.9016C9.27717 21.9216 10.6372 22.4316 11.9972 22.4316C13.3572 22.4316 14.7172 21.9216 15.7672 20.9016C18.6272 18.1516 21.7872 13.7916 20.6172 8.63164ZM11.9972 13.6416C10.2572 13.6416 8.84717 12.2316 8.84717 10.4916C8.84717 8.75164 10.2572 7.34164 11.9972 7.34164C13.7372 7.34164 15.1472 8.75164 15.1472 10.4916C15.1472 12.2316 13.7372 13.6416 11.9972 13.6416Z" fill="black"/>
</svg>
