<svg width="25" height="25" viewBox="0 0 25 25" fill="none" xmlns="http://www.w3.org/2000/svg">
<path d="M8.1525 21.509C8.1225 21.509 8.0825 21.529 8.0525 21.529C6.1125 20.569 4.5325 18.979 3.5625 17.039C3.5625 17.009 3.5825 16.969 3.5825 16.939C4.8025 17.299 6.0625 17.569 7.3125 17.779C7.5325 19.039 7.7925 20.289 8.1525 21.509Z" fill="black"/>
<path d="M21.4391 17.049C20.4491 19.039 18.7991 20.649 16.7891 21.619C17.1691 20.349 17.4891 19.069 17.6991 17.779C18.9591 17.569 20.1991 17.299 21.4191 16.939C21.4091 16.979 21.4391 17.019 21.4391 17.049Z" fill="black"/>
<path d="M21.5191 8.3091C20.2591 7.9291 18.9891 7.6191 17.6991 7.3991C17.4891 6.1091 17.1791 4.8291 16.7891 3.5791C18.8591 4.5691 20.5291 6.2391 21.5191 8.3091Z" fill="black"/>
<path d="M8.14656 3.68918C7.78656 4.90918 7.52656 6.14918 7.31656 7.40918C6.02656 7.60918 4.74656 7.92918 3.47656 8.30918C4.44656 6.29918 6.05656 4.64918 8.04656 3.65918C8.07656 3.65918 8.11656 3.68918 8.14656 3.68918Z" fill="black"/>
<path d="M15.9878 7.18912C13.6678 6.92912 11.3278 6.92912 9.00781 7.18912C9.25781 5.81912 9.57781 4.44912 10.0278 3.12912C10.0478 3.04912 10.0378 2.98912 10.0478 2.90912C10.8378 2.71912 11.6478 2.59912 12.4978 2.59912C13.3378 2.59912 14.1578 2.71912 14.9378 2.90912C14.9478 2.98912 14.9478 3.04912 14.9678 3.12912C15.4178 4.45912 15.7378 5.81912 15.9878 7.18912Z" fill="black"/>
<path d="M7.09 16.0889C5.71 15.8389 4.35 15.5189 3.03 15.0689C2.95 15.0489 2.89 15.0589 2.81 15.0489C2.62 14.2589 2.5 13.4489 2.5 12.5989C2.5 11.7589 2.62 10.9389 2.81 10.1589C2.89 10.1489 2.95 10.1489 3.03 10.1289C4.36 9.68889 5.71 9.35889 7.09 9.10889C6.84 11.4289 6.84 13.7689 7.09 16.0889Z" fill="black"/>
<path d="M22.4963 12.5989C22.4963 13.4489 22.3763 14.2589 22.1863 15.0489C22.1063 15.0589 22.0462 15.0489 21.9662 15.0689C20.6362 15.5089 19.2763 15.8389 17.9062 16.0889C18.1662 13.7689 18.1662 11.4289 17.9062 9.10889C19.2763 9.35889 20.6462 9.67889 21.9662 10.1289C22.0462 10.1489 22.1063 10.1589 22.1863 10.1589C22.3763 10.9489 22.4963 11.7589 22.4963 12.5989Z" fill="black"/>
<path d="M15.9878 18.0093C15.7378 19.3893 15.4178 20.7493 14.9678 22.0693C14.9478 22.1493 14.9478 22.2093 14.9378 22.2893C14.1578 22.4793 13.3378 22.5993 12.4978 22.5993C11.6478 22.5993 10.8378 22.4793 10.0478 22.2893C10.0378 22.2093 10.0478 22.1493 10.0278 22.0693C9.58781 20.7393 9.25781 19.3893 9.00781 18.0093C10.1678 18.1393 11.3278 18.2293 12.4978 18.2293C13.6678 18.2293 14.8378 18.1393 15.9878 18.0093Z" fill="black"/>
<path d="M16.2633 16.3625C13.7622 16.678 11.2378 16.678 8.73667 16.3625C8.42111 13.8614 8.42111 11.3369 8.73667 8.83579C11.2378 8.52023 13.7622 8.52023 16.2633 8.83579C16.5789 11.3369 16.5789 13.8614 16.2633 16.3625Z" fill="black"/>
</svg>
