<svg width="32" height="33" viewBox="0 0 32 33" fill="none" xmlns="http://www.w3.org/2000/svg">
<path d="M16 21.5171V25.5171" stroke="black" stroke-width="1.5" stroke-miterlimit="10" stroke-linecap="round" stroke-linejoin="round"/>
<path d="M16.0026 30.8504C17.4754 30.8504 18.6693 29.6565 18.6693 28.1838C18.6693 26.711 17.4754 25.5171 16.0026 25.5171C14.5298 25.5171 13.3359 26.711 13.3359 28.1838C13.3359 29.6565 14.5298 30.8504 16.0026 30.8504Z" stroke="black" stroke-width="1.5" stroke-miterlimit="10" stroke-linecap="round" stroke-linejoin="round"/>
<path d="M23.9974 28.1836H18.6641" stroke="black" stroke-width="1.5" stroke-miterlimit="10" stroke-linecap="round" stroke-linejoin="round"/>
<path d="M13.3333 28.1836H8" stroke="black" stroke-width="1.5" stroke-miterlimit="10" stroke-linecap="round" stroke-linejoin="round"/>
<path d="M25.3307 11.2502V16.8501C25.3307 20.5834 24.3974 21.5168 20.6641 21.5168H11.3307C7.5974 21.5168 6.66406 20.5834 6.66406 16.8501V7.51676C6.66406 3.78343 7.5974 2.8501 11.3307 2.8501H12.7307C14.1307 2.8501 14.4374 3.26339 14.9707 3.97005L16.3708 5.83675C16.7308 6.30342 16.9308 6.5835 17.8641 6.5835H20.6641C24.3974 6.5835 25.3307 7.51683 25.3307 11.2502Z" stroke="black" stroke-width="1.5" stroke-miterlimit="10"/>
</svg>
