<svg width="49" height="49" viewBox="0 0 49 49" fill="none" xmlns="http://www.w3.org/2000/svg">
<rect width="48" height="48" transform="translate(0.5 0.183594)" fill="#D7EEA1"/>
<path d="M40.0852 30.0437C35.9652 34.1437 30.0652 35.4037 24.8852 33.7837L15.4652 43.1837C14.7852 43.8837 13.4452 44.3037 12.4852 44.1637L8.12518 43.5637C6.68518 43.3637 5.34518 42.0037 5.12518 40.5637L4.52518 36.2037C4.38518 35.2437 4.84518 33.9037 5.50518 33.2237L14.9052 23.8237C13.3052 18.6237 14.5452 12.7237 18.6652 8.62373C24.5652 2.72373 34.1452 2.72373 40.0652 8.62373C45.9852 14.5237 45.9852 24.1437 40.0852 30.0437Z" stroke="black" stroke-width="2" stroke-miterlimit="10" stroke-linecap="round" stroke-linejoin="round"/>
<path d="M14.2812 35.1636L18.8812 39.7636" stroke="black" stroke-width="2" stroke-miterlimit="10" stroke-linecap="round" stroke-linejoin="round"/>
<path d="M29.5 22.1836C31.1569 22.1836 32.5 20.8404 32.5 19.1836C32.5 17.5267 31.1569 16.1836 29.5 16.1836C27.8431 16.1836 26.5 17.5267 26.5 19.1836C26.5 20.8404 27.8431 22.1836 29.5 22.1836Z" stroke="black" stroke-width="2" stroke-linecap="round" stroke-linejoin="round"/>
</svg>
