<svg width="32" height="33" viewBox="0 0 32 33" fill="none" xmlns="http://www.w3.org/2000/svg">
<path d="M23.9975 9.72864C23.9175 9.7153 23.8242 9.7153 23.7442 9.72864C21.9042 9.66197 20.4375 8.1553 20.4375 6.28864C20.4375 4.38197 21.9708 2.84863 23.8775 2.84863C25.7842 2.84863 27.3175 4.3953 27.3175 6.28864C27.3042 8.1553 25.8375 9.66197 23.9975 9.72864Z" stroke="black" stroke-width="1.5" stroke-linecap="round" stroke-linejoin="round"/>
<path d="M22.6259 19.4355C24.4526 19.7422 26.4659 19.4222 27.8793 18.4755C29.7593 17.2222 29.7593 15.1688 27.8793 13.9155C26.4526 12.9688 24.4126 12.6488 22.5859 12.9688" stroke="black" stroke-width="1.5" stroke-linecap="round" stroke-linejoin="round"/>
<path d="M7.96063 9.72864C8.04063 9.7153 8.13396 9.7153 8.21396 9.72864C10.054 9.66197 11.5206 8.1553 11.5206 6.28864C11.5206 4.38197 9.98729 2.84863 8.08063 2.84863C6.17396 2.84863 4.64062 4.3953 4.64062 6.28864C4.65396 8.1553 6.12063 9.66197 7.96063 9.72864Z" stroke="black" stroke-width="1.5" stroke-linecap="round" stroke-linejoin="round"/>
<path d="M9.33521 19.4355C7.50854 19.7422 5.49521 19.4222 4.08188 18.4755C2.20188 17.2222 2.20188 15.1688 4.08188 13.9155C5.50854 12.9688 7.54854 12.6488 9.3752 12.9688" stroke="black" stroke-width="1.5" stroke-linecap="round" stroke-linejoin="round"/>
<path d="M15.9975 19.6886C15.9175 19.6753 15.8242 19.6753 15.7442 19.6886C13.9042 19.6219 12.4375 18.1153 12.4375 16.2486C12.4375 14.3419 13.9708 12.8086 15.8775 12.8086C17.7842 12.8086 19.3175 14.3553 19.3175 16.2486C19.3042 18.1153 17.8375 19.6353 15.9975 19.6886Z" stroke="black" stroke-width="1.5" stroke-linecap="round" stroke-linejoin="round"/>
<path d="M12.1209 23.8886C10.2409 25.1419 10.2409 27.1953 12.1209 28.4486C14.2543 29.8753 17.7476 29.8753 19.8809 28.4486C21.7609 27.1953 21.7609 25.1419 19.8809 23.8886C17.7609 22.4753 14.2543 22.4753 12.1209 23.8886Z" stroke="black" stroke-width="1.5" stroke-linecap="round" stroke-linejoin="round"/>
</svg>
