<svg width="20" height="21" viewBox="0 0 20 21" fill="none" xmlns="http://www.w3.org/2000/svg">
<path d="M9.9974 17.6833H5.83073C3.33073 17.6833 1.66406 16.4333 1.66406 13.5166V7.68327C1.66406 4.7666 3.33073 3.5166 5.83073 3.5166H14.1641C16.6641 3.5166 18.3307 4.7666 18.3307 7.68327V10.1833" stroke="white" stroke-width="1.5" stroke-miterlimit="10" stroke-linecap="round" stroke-linejoin="round"/>
<path d="M14.1693 8.09961L11.5609 10.1829C10.7026 10.8663 9.29427 10.8663 8.43593 10.1829L5.83594 8.09961" stroke="white" stroke-width="1.5" stroke-miterlimit="10" stroke-linecap="round" stroke-linejoin="round"/>
<path d="M16.0066 12.9082L13.0566 15.8582C12.9399 15.9748 12.8316 16.1915 12.8066 16.3498L12.6482 17.4748C12.5899 17.8832 12.8732 18.1665 13.2816 18.1082L14.4066 17.9499C14.5649 17.9249 14.7899 17.8165 14.8982 17.6998L17.8483 14.7499C18.3566 14.2415 18.5983 13.6499 17.8483 12.8999C17.1066 12.1582 16.5149 12.3998 16.0066 12.9082Z" stroke="white" stroke-width="1.5" stroke-miterlimit="10" stroke-linecap="round" stroke-linejoin="round"/>
<path d="M15.5781 13.333C15.8281 14.233 16.5281 14.933 17.4281 15.183" stroke="white" stroke-width="1.5" stroke-miterlimit="10" stroke-linecap="round" stroke-linejoin="round"/>
</svg>
