<svg width="32" height="33" viewBox="0 0 32 33" fill="none" xmlns="http://www.w3.org/2000/svg">
<path d="M16 21.845V25.845" stroke="black" stroke-width="1.5" stroke-miterlimit="10" stroke-linecap="round" stroke-linejoin="round"/>
<path d="M16.0026 31.1783C17.4754 31.1783 18.6693 29.9844 18.6693 28.5116C18.6693 27.0389 17.4754 25.845 16.0026 25.845C14.5298 25.845 13.3359 27.0389 13.3359 28.5116C13.3359 29.9844 14.5298 31.1783 16.0026 31.1783Z" stroke="black" stroke-width="1.5" stroke-miterlimit="10" stroke-linecap="round" stroke-linejoin="round"/>
<path d="M23.9974 28.5117H18.6641" stroke="black" stroke-width="1.5" stroke-miterlimit="10" stroke-linecap="round" stroke-linejoin="round"/>
<path d="M13.3333 28.5117H8" stroke="black" stroke-width="1.5" stroke-miterlimit="10" stroke-linecap="round" stroke-linejoin="round"/>
<path d="M25.3307 11.5785V17.1785C25.3307 20.9118 24.3974 21.8451 20.6641 21.8451H11.3307C7.5974 21.8451 6.66406 20.9118 6.66406 17.1785V7.84513C6.66406 4.1118 7.5974 3.17847 11.3307 3.17847H12.7307C14.1307 3.17847 14.4374 3.59175 14.9707 4.29842L16.3708 6.16512C16.7308 6.63179 16.9308 6.91187 17.8641 6.91187H20.6641C24.3974 6.91187 25.3307 7.8452 25.3307 11.5785Z" stroke="black" stroke-width="1.5" stroke-miterlimit="10"/>
</svg>
