<svg width="21" height="21" viewBox="0 0 21 21" fill="none" xmlns="http://www.w3.org/2000/svg">
<path d="M11.9382 3.47939L13.4048 6.41273C13.6048 6.82106 14.1382 7.21273 14.5882 7.28773L17.2465 7.72939C18.9465 8.01273 19.3465 9.24606 18.1215 10.4627L16.0548 12.5294C15.7048 12.8794 15.5132 13.5544 15.6215 14.0377L16.2132 16.5961C16.6798 18.6211 15.6048 19.4044 13.8132 18.3461L11.3215 16.8711C10.8715 16.6044 10.1298 16.6044 9.67151 16.8711L7.17984 18.3461C5.39651 19.4044 4.31317 18.6127 4.77984 16.5961L5.37151 14.0377C5.47984 13.5544 5.28817 12.8794 4.93817 12.5294L2.87151 10.4627C1.65484 9.24606 2.04651 8.01273 3.74651 7.72939L6.40484 7.28773C6.84651 7.21273 7.37984 6.82106 7.57984 6.41273L9.04651 3.47939C9.84651 1.88773 11.1465 1.88773 11.9382 3.47939Z" fill="#F8F38B"/>
</svg>
