<svg width="32" height="33" viewBox="0 0 32 33" fill="none" xmlns="http://www.w3.org/2000/svg">
<path d="M8.49688 12.8635C3.05688 13.2502 3.07021 21.1302 8.49688 21.5168H21.3769C22.9369 21.5302 24.4436 20.9435 25.6036 19.8902C29.4169 16.5569 27.3769 9.89014 22.3502 9.25014C20.5502 -1.6032 4.83022 2.51683 8.55022 12.8635" stroke="black" stroke-width="1.5" stroke-miterlimit="10" stroke-linecap="round" stroke-linejoin="round"/>
<path d="M16 21.5171V25.5171" stroke="black" stroke-width="1.5" stroke-miterlimit="10" stroke-linecap="round" stroke-linejoin="round"/>
<path d="M16.0026 30.8504C17.4754 30.8504 18.6693 29.6565 18.6693 28.1838C18.6693 26.711 17.4754 25.5171 16.0026 25.5171C14.5298 25.5171 13.3359 26.711 13.3359 28.1838C13.3359 29.6565 14.5298 30.8504 16.0026 30.8504Z" stroke="black" stroke-width="1.5" stroke-miterlimit="10" stroke-linecap="round" stroke-linejoin="round"/>
<path d="M23.9974 28.1836H18.6641" stroke="black" stroke-width="1.5" stroke-miterlimit="10" stroke-linecap="round" stroke-linejoin="round"/>
<path d="M13.3333 28.1836H8" stroke="black" stroke-width="1.5" stroke-miterlimit="10" stroke-linecap="round" stroke-linejoin="round"/>
</svg>
