<svg width="38" height="39" viewBox="0 0 38 39" fill="none" xmlns="http://www.w3.org/2000/svg">
<path d="M15.1797 22.4273C15.1797 23.9542 16.3603 25.182 17.8084 25.182H20.7676C22.0269 25.182 23.0501 24.1116 23.0501 22.7736C23.0501 21.3412 22.4204 20.8218 21.4917 20.4912L16.7538 18.8384C15.8251 18.5079 15.1954 18.0042 15.1954 16.556C15.1954 15.2338 16.2186 14.1477 17.4778 14.1477H20.4371C21.8852 14.1477 23.0658 15.3755 23.0658 16.9023" stroke="black" stroke-width="1.94444" stroke-linecap="round" stroke-linejoin="round"/>
<path d="M19.1172 12.5894V26.756" stroke="black" stroke-width="1.94444" stroke-linecap="round" stroke-linejoin="round"/>
<path d="M34.8565 19.6727C34.8565 28.3616 27.8046 35.4135 19.1157 35.4135C10.4269 35.4135 3.375 28.3616 3.375 19.6727C3.375 10.9839 10.4269 3.93201 19.1157 3.93201" stroke="black" stroke-width="1.94444" stroke-linecap="round" stroke-linejoin="round"/>
<path d="M26.9844 5.5061V11.8024H33.2807" stroke="black" stroke-width="1.94444" stroke-linecap="round" stroke-linejoin="round"/>
<path d="M34.8547 3.93201L26.9844 11.8024" stroke="black" stroke-width="1.94444" stroke-linecap="round" stroke-linejoin="round"/>
</svg>
