<svg width="14" height="10" viewBox="0 0 14 10" fill="none" xmlns="http://www.w3.org/2000/svg">
<path fill-rule="evenodd" clip-rule="evenodd" d="M7.04919 2.41225C8.87927 2.41233 10.6394 3.07826 11.9657 4.2724C12.0656 4.3646 12.2252 4.36343 12.3236 4.2698L13.2783 3.35732C13.3281 3.30983 13.3559 3.2455 13.3555 3.17856C13.3551 3.11163 13.3265 3.04761 13.2761 3.00067C9.79492 -0.158753 4.30291 -0.158753 0.821698 3.00067C0.77127 3.04757 0.742658 3.11157 0.742193 3.17851C0.741728 3.24544 0.769449 3.30979 0.81922 3.35732L1.77423 4.2698C1.87253 4.36358 2.03229 4.36474 2.13211 4.2724C3.45862 3.07818 5.21892 2.41225 7.04919 2.41225ZM7.04787 5.46014C8.04663 5.46008 9.00974 5.82966 9.75007 6.49707C9.8502 6.59179 10.0079 6.58973 10.1055 6.49244L11.0528 5.53963C11.1026 5.48965 11.1303 5.42186 11.1296 5.3514C11.1289 5.28095 11.0998 5.21373 11.0489 5.16477C8.79449 3.077 5.30318 3.077 3.04873 5.16477C2.9978 5.21373 2.96875 5.28099 2.96808 5.35146C2.96741 5.42194 2.99518 5.48973 3.04517 5.53963L3.99211 6.49244C4.08973 6.58973 4.24746 6.59179 4.34759 6.49707C5.08743 5.8301 6.04978 5.46055 7.04787 5.46014ZM8.90369 7.47765C8.90511 7.55373 8.87784 7.62708 8.82831 7.68039L7.22667 9.45319C7.17971 9.50529 7.1157 9.53462 7.04891 9.53462C6.98212 9.53462 6.91811 9.50529 6.87116 9.45319L5.26924 7.68039C5.21976 7.62704 5.19253 7.55367 5.194 7.47758C5.19547 7.4015 5.2255 7.32945 5.27699 7.27845C6.29987 6.32956 7.79796 6.32956 8.82083 7.27845C8.87229 7.32949 8.90227 7.40156 8.90369 7.47765Z" fill="black"/>
</svg>
